<svg id="Layer_1" xmlns="http://www.w3.org/2000/svg" width="1441.166" height="457.164" viewBox="0 0 1441.166 457.164"><style>.st0{opacity:.1;fill-rule:evenodd;clip-rule:evenodd;fill:#fff}</style><path class="st0" d="M1222.532 5.546l218.634 117.202v-1.316L1223.077 4.526c.213-.647.305-1.34.097-2.047a3.452 3.452 0 0 0-4.291-2.337c-1.399.41-2.328 1.64-2.449 3.012l-162.093 13.059c-.009-.042.005-.083-.009-.129a3.45 3.45 0 0 0-4.287-2.338 3.445 3.445 0 0 0-2.337 4.287c.022.083.083.139.115.222l-76.968 44.798-295.053 49.677c-.605-1.718-2.43-2.707-4.203-2.185-1.118.328-1.885 1.191-2.236 2.213L430.321 74.371c-.005-.31.014-.619-.079-.934a3.46 3.46 0 0 0-4.292-2.342c-1.271.379-2.12 1.427-2.37 2.643l-171.3-5.114c-.023-.166.004-.328-.042-.494a3.457 3.457 0 0 0-4.287-2.342c-1.636.48-2.578 2.064-2.393 3.7l-.227.064c-.729-1.474-2.379-2.296-4.014-1.815-1.649.485-2.601 2.102-2.379 3.76L57.349 128.333c-.744-1.441-2.374-2.24-3.986-1.765a3.44 3.44 0 0 0-2.337 4.282c.088.305.263.55.425.809L0 177.003v1.538l52.208-46.019c.388.31.822.536 1.307.656l-2.272 31.061L0 189.406v1.433l51.118-24.866-4.536 62.098L0 214.245v1.201l46.494 13.798L30.349 450.09 0 328.833v4.753l29.287 117.022c-1.557.688-2.43 2.397-1.936 4.079a3.44 3.44 0 0 0 4.287 2.332 3.445 3.445 0 0 0 2.439-2.854l299.731-10.602c.023.098 0 .185.028.277a3.447 3.447 0 0 0 4.282 2.342c1.69-.494 2.651-2.166 2.383-3.856l288.096-98.744c.758 1.391 2.355 2.153 3.945 1.687 1.122-.328 1.894-1.206 2.244-2.236l227.144 34.724c.005.306-.014.605.079.91a3.452 3.452 0 0 0 4.286 2.343c1.566-.463 2.49-1.936 2.411-3.497l158.819-36.29c.674 1.603 2.405 2.509 4.105 2.005 1.04-.31 1.779-1.076 2.167-2l178.848 41.237c-.023.383-.014.775.098 1.168a3.46 3.46 0 0 0 4.291 2.343c1.182-.352 1.977-1.294 2.291-2.394l119.688 12.598c.015.244-.009.494.064.743a3.449 3.449 0 0 0 4.287 2.338c1.663-.49 2.615-2.121 2.384-3.788l95.417-30.678v-1.215l-95.773 30.798a3.474 3.474 0 0 0-.633-.873l86.036-125.494 10.37 2.721v-1.196l-9.673-2.536 9.673-14.117v-2.041l-10.864 15.849-148.393-38.909c.022-.235-.032-.484-.064-.734l159.321-49.33V176.5l-159.663 49.441a3.367 3.367 0 0 0-3.303-1.834L1221.266 6.54a3.372 3.372 0 0 0 1.266-.994zm52.633 222.806l-118.478 53.751-108.522-181.717c.162-.139.272-.318.402-.485l226.718 126.455c-.223.629-.3 1.308-.12 1.996zm.499 1.039c.282.411.614.753 1.025 1.007l-57.451 142.826-9.114-1.64-52.845-88.484 118.385-53.709zM994.613 106.572l-25.347 4.633 18.283-47.149c.203.042.397.06.609.064l6.455 42.452zm-5.303-42.6c.577-.194 1.04-.545 1.423-.966l52.061 33.435a3.31 3.31 0 0 0-.259 1.363l-46.78 8.555-6.445-42.387zm-21.374 47.478l-113.22 20.709 130.792-69.347c.264.342.592.624.961.846l-18.533 47.792zm-.49 1.265l-41.182 106.213-72.487-83.384a3.368 3.368 0 0 0 .771-2.181l112.898-20.648zm-40.798 108.416l22.381 25.753-81.116 125.721 58.735-151.474zm.466-1.218l41.662-107.442 26.012-4.758 8.394 55.243-53.501 82.918-22.567-25.961zm68.811-112.409l46.794-8.56c.194.531.514.961.91 1.326l-39.5 61.216-8.204-53.982zm47.501-12.028l-35.218-22.621 37.361 21.471-.005.078c-.209.023-.406-.004-.609.056-.629.184-1.118.568-1.529 1.016zm-52.01-33.597c.162-.448.227-.915.189-1.404l56.984-14.089-2.943 46.65-54.23-31.157zm58.352-15.784l25.088-6.199 28.308 26.183-53.728 29.134-2.666-1.533 2.998-47.585zm-.527 50.702c-.015-.047-.056-.083-.069-.13l.245-.134 149.866 86.109-150.153-83.748c.231-.66.324-1.376.111-2.097zm1.372-.91l53.441-28.982 170.274 157.521-223.715-128.539zm25.587-56.324l139.417-34.465-111.382 60.398-28.035-25.933zm-21.753-22.2l158.365-12.764-137.629 34.021-21.3-19.701c.301-.471.509-.988.564-1.556zm-3.062 3.062c.208-.019.402.009.605-.051a3.45 3.45 0 0 0 1.127-.592l20.722 19.171-23.993 5.931 1.539-24.459zm-2.795-.974a3.446 3.446 0 0 0 1.645.919l-1.565 24.807-57.331 14.172a.58.58 0 0 0-.037-.069l57.288-39.829zm-9.673 5.321l-48.263 33.551c-.859-.878-2.139-1.294-3.396-.924-1.501.438-2.425 1.815-2.435 3.303l-10.74 1.811 64.834-37.741zm-67.655 39.385l13.544-2.286-108.144 57.345 94.6-55.059zm-3.229.54l-114.232 66.491a3.465 3.465 0 0 0-3.626-1.104c-1.174.347-1.968 1.284-2.282 2.379l-171.129-18.728 291.269-49.038zm-292.202 50.097l171.937 18.814c.019.254-.004.508.069.762.102.347.296.633.485.92l-94.097 89.366-79.212-108.431c.393-.405.661-.886.818-1.431zM430.136 75.516l239.038 38.387c0 .305-.014.619.079.929.042.143.139.24.194.369l-140.679 91.403L429.42 76.716c.324-.35.559-.753.716-1.2zm-2.841 2.263c.203-.022.402.005.605-.051.222-.069.393-.207.591-.313l99.302 129.822-113.091 73.476 12.593-202.934zm-14.347 207.28a3.456 3.456 0 0 0-.116-1.261c-.042-.139-.139-.236-.189-.365l.762-.499-.134 2.208-.323-.083zm.249 1.252l-3.687 59.428.559-57.617c.143-.023.282.005.425-.037 1.012-.291 1.742-1.025 2.144-1.917l.559.143zm-1.164-3.862c-.448-.48-1.026-.794-1.663-.965l12.495-150.993-9.368 151.007-1.464.951zM252.268 69.779l75.162 2.245-75.434-1.377c.133-.268.212-.564.272-.868zm171.304 5.15c.023.157-.005.305.042.462.355 1.201 1.326 2.01 2.458 2.31l-16.852 203.7c-.226.022-.448-.01-.674.06-.208.061-.37.194-.554.291L251.653 71.797l171.919 3.132zm-61.585 204.315l44.147 5.682c.014.272-.009.55.074.822.231.794.753 1.404 1.386 1.838l-18.972 41.445-26.635-49.787zm18.828 37.638l-21.286-37.953 1.053.134 20.233 37.819zm25.467-33.112l-44.965-5.778L270.2 107.648l136.802 174.848a3.394 3.394 0 0 0-.72 1.274zM267.027 101.712L253.085 75.65l127.083 170.671-113.141-144.609zm92.886 176.095l-1.09-.139L246.484 77.335l19.572 25.014 93.857 175.458zm27.665 53.506l-10.611 23.18-269.872-108.024 251.007 32.275 29.476 52.569zm.702 1.247l18.27 32.585c-.31.245-.545.559-.748.892l-27.763-11.109 10.241-22.368zm1.026-2.245l19.346-42.263c.088.023.171.069.264.083l-.744 76.34c-.144.023-.282-.005-.425.037-.046.014-.074.046-.115.06l-18.326-34.257zM247.205 72.079a3.43 3.43 0 0 0 2.698.342c.042-.014.069-.046.111-.06l12.865 24.053-17.406-22.247 1.732-2.088zm-1.552-.393l.375.01-.61.734c.101-.235.184-.485.235-.744zm111.742 205.798l-251.353-32.317c-.009-.277.009-.55-.069-.827a3.461 3.461 0 0 0-.702-1.271l138.955-167.4 113.169 201.815zM240.618 74.065a3.438 3.438 0 0 0 2.652.301c.064-.019.111-.069.175-.093l.176.318-98.679 118.885 95.676-119.411zM104.337 242.297c-.721-.401-1.589-.513-2.448-.313l-35.024-83.671 171.697-83.527-134.225 167.511zM57.696 129.433l176.931-55.262L66.26 156.868l-10.098-24.123c1.118-.706 1.71-1.977 1.534-3.312zm-3.026 3.82c.148-.015.291-.005.435-.042l10.116 24.164-12.772 6.273 2.221-30.395zm-2.346 32.137l13.502-6.573 35.01 83.629c-.541.342-.979.794-1.256 1.354l-51.866-15.396 4.61-63.014zm-20.76 283.956L47.63 229.581l51.603 15.313a3.441 3.441 0 0 0 1.77 3.451L31.564 449.346zm302.171-6.933L34.003 453.014c-.018-.092 0-.185-.023-.277a3.467 3.467 0 0 0-1.654-2.056l69.78-201.985c.494.078 1.012.083 1.529-.069a3.409 3.409 0 0 0 1.248-.68l229.305 193.182a3.444 3.444 0 0 0-.453 1.284zm4.277-2.828c-.591-.156-1.21-.217-1.838-.032-.48.139-.896.384-1.252.688L105.774 247.19l270.713 108.36-38.475 84.035zm1.095.394l38.451-84.004 27.827 11.143c-.115.545-.148 1.113.023 1.686.116.407.324.753.559 1.072l-66.86 70.103zm1.012 1.261c-.074-.139-.125-.296-.222-.416l66.921-70.168c.822.555 1.848.785 2.878.485 1.441-.425 2.36-1.709 2.439-3.128l214.182-24.865-286.198 98.092zm71.909-74.376v-.01c-.355-1.233-1.363-2.056-2.522-2.337l4.832-77.91 213.807 55.067c0 .032.01.06.01.092l-216.127 25.098zm216.422-26.308l-214.038-55.118.203-3.289 113.886-73.993 100.577 131.485a3.625 3.625 0 0 0-.628.915zm3.142-2c-.333-.005-.666-.014-.998.083-.227.069-.397.208-.596.314l-100.527-131.43 140.585-91.343c.374.406.841.684 1.357.868l-39.821 221.508zm2.004.67a3.267 3.267 0 0 0-.868-.458l39.819-221.507c.332.004.664.014 1.002-.088.199-.061.347-.189.521-.277l79.314 108.56-119.788 113.77zm228.51 37.389l-227.144-34.724c-.004-.305.014-.605-.073-.915-.103-.346-.296-.628-.485-.914l119.669-113.664 108.805 148.933a3.395 3.395 0 0 0-.772 1.284zm2.241-2.232c-.198.056-.347.189-.526.272L754.919 225.594l94.202-89.473c.49.365 1.035.643 1.649.712l13.779 237.531c-.064.019-.133.001-.202.019zm1.654-.032c-.106-.022-.194-.078-.301-.092l-13.779-237.527c.069-.015.134 0 .203-.019.296-.088.531-.259.785-.411l72.88 83.846-59.788 154.203zm161.275-34.257l-158.818 36.29a3.377 3.377 0 0 0-.841-1.188l82.201-127.406 78.211 89.976a3.388 3.388 0 0 0-.753 2.328zm1.622-3.086l-78.424-90.226 52.971-82.1 26.136 171.97c-.254.079-.462.227-.683.356zm-24.506-173.794l40.202-62.306c.176.073.361.124.545.171l-14.717 233.435-26.03-171.3zm29.088 174.787a3.38 3.38 0 0 0-2.032-1.395l14.846-235.468c.203-.022.407.005.61-.051.092-.027.162-.102.254-.134l108.467 181.633-122.145 55.415zm.504 1.036l122.236-55.456 52.394 87.731-174.552-31.375c.005-.3.005-.596-.078-.9zm178.935 42.303l-159.1-36.678 155.58 27.966 4.425 7.409c-.411.356-.697.804-.905 1.303zm3.862-2.013c-.551-.12-1.118-.152-1.695.014-.093.027-.162.097-.254.129l-3.922-6.573 7.885 1.418-2.014 5.012zm2.657 3.103c-.015-.249.005-.498-.065-.748-.249-.854-.817-1.511-1.515-1.944l2.093-5.216 106.749 19.189-107.262-11.281zm62.162-153.538l148.01 38.808-85.791 125.143a3.386 3.386 0 0 0-2.079-.235l-61.525-162.204c.613-.37 1.094-.879 1.385-1.512zm-2.467 1.936l61.534 162.2a3.38 3.38 0 0 0-1.468 1.76l-118.807-21.355 57.368-142.618c.449.096.906.101 1.373.013zm-2.056-6.435c-.24.106-.485.208-.683.365L1105.126 66.323 1217.15 5.579c.707.9 1.83 1.344 2.994 1.247l56.933 217.567z"/></svg>