<?xml version="1.0" encoding="utf-8"?>
<!-- Generator: Adobe Illustrator 23.0.2, SVG Export Plug-In . SVG Version: 6.00 Build 0)  -->
<svg version="1.1" id="Layer_1" xmlns="http://www.w3.org/2000/svg" xmlns:xlink="http://www.w3.org/1999/xlink" x="0px" y="0px"
	 viewBox="0 0 51.98 48.51" style="enable-background:new 0 0 51.98 48.51;" xml:space="preserve">
<style type="text/css">
	.st0{fill:#123859;}
</style>
<g>
	<path class="st0" d="M43.16,21.01c-1.06,0-2.01-0.5-2.68-1.3c-0.41-0.49-1.11-0.49-1.52,0c-0.67,0.8-1.62,1.3-2.68,1.3
		s-2.01-0.5-2.68-1.3c-0.41-0.49-1.11-0.49-1.52,0c-0.67,0.8-1.62,1.3-2.68,1.3s-2.01-0.5-2.68-1.3c-0.41-0.49-1.11-0.49-1.52,0
		c-0.67,0.8-1.62,1.3-2.68,1.3c-1.06,0-2.01-0.5-2.68-1.3c-0.41-0.49-1.11-0.49-1.52,0c-0.67,0.8-1.62,1.3-2.68,1.3
		c-1.06,0-2-0.5-2.68-1.3c-0.41-0.49-1.11-0.49-1.52,0c-0.52,0.61-1.2,1.05-1.96,1.22c-0.41,0.09-0.71,0.46-0.71,0.88v16.68
		c0,0.51,0.41,0.92,0.92,0.92h32.59c0.51,0,0.92-0.41,0.92-0.92V21.01C43.19,21.01,43.17,21.01,43.16,21.01z M35.86,35.72
		c0,0.6-0.49,1.09-1.09,1.09H17.22c-0.6,0-1.09-0.49-1.09-1.09v-0.46c0-0.6,0.49-1.09,1.09-1.09h2.1c0.6,0,1.09-0.49,1.09-1.09
		v-2.89c0-0.6,0.49-1.09,1.09-1.09h2.1c0.6,0,1.09-0.49,1.09-1.09v-2.26c0-0.6,0.49-1.09,1.09-1.09h0.74h1.58h2.41
		c0.6,0,1.09,0.49,1.09,1.09v4.92c0,0.6,0.49,1.09,1.09,1.09h2.1c0.6,0,1.09,0.49,1.09,1.09V35.72z"/>
	<path class="st0" d="M45.82,18.83v22.75c0,0.07-0.06,0.13-0.13,0.13H6.3c-0.07,0-0.13-0.06-0.13-0.13V18.83H2.99v22.75
		c0,1.82,1.48,3.31,3.31,3.31h39.39c1.82,0,3.31-1.48,3.31-3.31V18.83H45.82z"/>
	<path class="st0" d="M19.49,12.17l6.62,4.15l6.5-4.16V6.97h16.13V3.8H3.25v3.17h16.24V12.17z M22.66,6.97h6.78v3.45l-3.35,2.14
		l-3.43-2.15V6.97z"/>
</g>
</svg>
