<?xml version="1.0" encoding="utf-8"?>
<!-- Generator: Adobe Illustrator 23.0.2, SVG Export Plug-In . SVG Version: 6.00 Build 0)  -->
<svg version="1.1" id="Layer_1" xmlns="http://www.w3.org/2000/svg" xmlns:xlink="http://www.w3.org/1999/xlink" x="0px" y="0px"
	 viewBox="0 0 51.98 48.51" style="enable-background:new 0 0 51.98 48.51;" xml:space="preserve">
<style type="text/css">
	.st0{fill:#073B5B;}
</style>
<path class="st0" d="M44.4,10.11c-4.41-0.59-18.22-8.67-18.22-8.67S12.36,9.53,7.95,10.11c0,0-1.76,29.69,18.22,37.33
	C46.16,39.8,44.4,10.11,44.4,10.11z M27.2,32.71l-1.45,0.06c-3.62-0.21-6.49-3.13-6.49-6.7c0-1.53,0.53-2.95,1.42-4.08l2.6-2.95
	c0,0,1.35-1.69,1.5-2.56c0,0,0.73-2.03-0.97-3.85c0,0,4.96,0.63,5.47,6.29c0,0,0.27,1.96-0.68,4.67c0,0,1.84-0.48,2.71-3.65
	c0,0,1.77,1.86,1.77,6.13C33.08,29.44,30.53,32.23,27.2,32.71z"/>
</svg>
