<?xml version="1.0" encoding="utf-8"?>
<!-- Generator: Adobe Illustrator 23.0.2, SVG Export Plug-In . SVG Version: 6.00 Build 0)  -->
<svg version="1.1" id="Layer_1" xmlns="http://www.w3.org/2000/svg" xmlns:xlink="http://www.w3.org/1999/xlink" x="0px" y="0px"
	 viewBox="0 0 51.98 48.51" style="enable-background:new 0 0 51.98 48.51;" xml:space="preserve">
<style type="text/css">
	.st0{fill:#123859;}
</style>
<path class="st0" d="M36.2,13.9C34,7.26,27.73,2.44,20.36,2.44c-9.21,0-16.7,7.49-16.7,16.7c0,7.38,4.81,13.64,11.46,15.84
	c2.2,6.65,8.47,11.46,15.84,11.46c9.21,0,16.7-7.49,16.7-16.7C47.66,22.37,42.85,16.11,36.2,13.9z M30.97,14.94
	c1.28,0,2.52,0.18,3.71,0.49c0.31,1.19,0.49,2.43,0.49,3.71c0,0.33-0.03,0.65-0.05,0.98l-5.13-5.13
	C30.31,14.97,30.64,14.94,30.97,14.94z M27.66,15.32l7.12,7.12c-0.21,0.93-0.51,1.83-0.89,2.68l-8.91-8.91
	C25.83,15.84,26.73,15.54,27.66,15.32z M23.23,17.14l9.73,9.73c-0.45,0.73-0.96,1.42-1.52,2.05L21.18,18.66
	C21.82,18.1,22.5,17.59,23.23,17.14z M19.85,20l10.26,10.26c-0.64,0.56-1.33,1.07-2.06,1.51l-9.71-9.71
	C18.78,21.33,19.29,20.64,19.85,20z M17.41,23.8l8.89,8.89c-0.86,0.38-1.76,0.67-2.69,0.88l-7.08-7.08
	C16.74,25.56,17.03,24.66,17.41,23.8z M16.16,29.75c0-0.31,0.03-0.61,0.05-0.91l5.06,5.06c-0.3,0.02-0.6,0.05-0.91,0.05
	c-1.28,0-2.52-0.18-3.71-0.49C16.34,32.27,16.16,31.03,16.16,29.75z M30.97,44.56c-6.11,0-11.36-3.72-13.62-9.01
	c0.98,0.18,1.98,0.29,3.01,0.29c9.21,0,16.7-7.49,16.7-16.7c0-1.03-0.11-2.03-0.29-3.01c5.29,2.26,9.01,7.52,9.01,13.62
	C45.78,37.91,39.13,44.56,30.97,44.56z"/>
</svg>
