<?xml version="1.0" encoding="UTF-8"?>
<svg width="96px" height="18px" viewBox="0 0 96 18" version="1.1" xmlns="http://www.w3.org/2000/svg" xmlns:xlink="http://www.w3.org/1999/xlink">
    <!-- Generator: Sketch 53.2 (72643) - https://sketchapp.com -->
    <title>Group 30</title>
    <desc>Created with Sketch.</desc>
    <g id="Page-1" stroke="none" stroke-width="1" fill="none" fill-rule="evenodd">
        <g id="Option-1" transform="translate(-958.000000, -389.000000)" fill="#0D83DD">
            <g id="Group-30" transform="translate(1002.736860, 399.687822) rotate(30.000000) translate(-1002.736860, -399.687822) translate(954.236860, 364.187822)">
                <g id="Group-29" transform="translate(65.812726, 23.855297) rotate(-25.000000) translate(-65.812726, -23.855297) translate(37.312726, 11.355297)" fill-rule="nonzero">
                    <path d="M5.817,7.597 C4.83,10.285 3.066,15.85 2.247,18.853 C2.121,19.315 1.974,19.399 1.533,19.273 C1.092,19.147 0.651,18.979 0.273,18.706 C-0.084,18.454 -0.168,18.139 -0.021,17.53 C0.357,15.829 1.47,11.86 2.352,9.151 C1.743,8.752 1.575,8.626 1.911,8.059 C2.268,7.429 2.814,6.694 3.192,6.211 C3.549,5.77 3.738,5.707 4.2,5.854 C4.641,6.001 5.124,6.232 5.544,6.589 C5.943,6.925 6.006,7.093 5.817,7.597 Z M13.797,6.736 C14.385,7.282 14.574,7.933 14.616,8.71 C14.784,11.566 13.608,16.102 11.256,18.391 C10.458,19.168 9.618,19.378 8.589,19.273 C7.917,19.189 7.14,18.937 6.594,18.538 C6.195,18.265 5.733,17.698 5.544,17.068 C4.704,14.107 6.447,8.71 9.345,6.4 C9.975,5.896 10.794,5.707 11.529,5.791 C12.411,5.896 13.335,6.295 13.797,6.736 Z M11.697,8.143 C11.088,7.933 9.639,9.844 8.778,12.175 C8.001,14.275 7.749,16.711 8.505,17.026 C9.24,17.32 10.416,15.514 11.235,13.078 C11.865,11.188 12.327,8.353 11.697,8.143 Z M25.347,8.332 C23.352,10.6 18.585,16.501 16.926,18.853 C16.674,19.21 16.527,19.147 16.275,18.853 C15.834,18.349 15.666,17.803 16.275,16.921 C17.472,15.157 20.454,11.335 22.743,8.584 C22.008,9.004 21.168,9.088 20.538,8.836 C20.391,10.117 19.866,11.566 18.942,12.322 C18.522,12.658 18.018,12.805 17.493,12.7 C17.115,12.637 16.716,12.448 16.443,12.238 C16.191,12.028 15.981,11.755 15.855,11.377 C15.372,9.886 16.317,7.261 17.808,6.169 C18.123,5.938 18.627,5.854 18.942,5.917 C19.383,6.001 19.824,6.232 20.076,6.505 C20.223,6.673 20.37,6.946 20.496,7.219 C20.706,7.639 21.063,7.828 21.525,7.87 C22.302,7.933 23.709,7.387 24.717,6.295 C25.011,5.98 25.221,6.001 25.452,6.358 C25.83,6.967 25.935,7.66 25.347,8.332 Z M25.452,14.086 C25.536,15.514 24.948,17.761 23.709,18.727 C23.289,19.063 22.785,19.189 22.26,19.105 C21.903,19.042 21.483,18.874 21.21,18.643 C20.979,18.454 20.769,18.139 20.664,17.782 C20.223,16.291 21.21,13.666 22.722,12.574 C23.1,12.301 23.478,12.259 23.877,12.322 C24.36,12.406 24.759,12.679 24.99,12.91 C25.284,13.225 25.431,13.666 25.452,14.086 Z M19.005,7.219 C18.753,7.072 17.997,8.164 17.661,9.067 C17.22,10.285 17.094,11.314 17.43,11.461 C17.766,11.608 18.291,10.936 18.732,9.634 C19.089,8.563 19.278,7.366 19.005,7.219 Z M23.898,13.624 C23.646,13.477 22.869,14.569 22.512,15.472 C22.029,16.69 21.882,17.74 22.218,17.887 C22.512,18.013 23.079,17.341 23.562,16.06 C23.94,15.052 24.171,13.771 23.898,13.624 Z M40.047,6.673 C40.614,7.24 40.845,7.891 40.887,8.689 C41.034,11.545 39.858,16.123 37.485,18.454 C36.687,19.231 35.826,19.441 34.797,19.315 C34.125,19.231 33.327,18.979 32.781,18.601 C32.361,18.307 31.899,17.74 31.71,17.089 C30.807,14.086 32.634,8.752 35.553,6.337 C36.162,5.833 37.107,5.581 37.779,5.686 C38.661,5.812 39.564,6.19 40.047,6.673 Z M37.926,8.059 C37.275,7.849 35.784,10.18 35.049,12.154 C34.314,14.107 33.915,16.774 34.692,17.089 C35.448,17.404 36.645,15.577 37.485,13.078 C38.136,11.146 38.598,8.269 37.926,8.059 Z M49.539,8.038 C48.531,8.164 47.355,8.332 46.221,8.5 C45.927,9.277 45.591,10.264 45.213,11.335 C45.717,11.272 46.242,11.209 46.767,11.188 C47.229,11.167 47.502,11.356 47.628,11.671 C47.796,12.091 47.859,12.49 47.922,12.889 C47.985,13.351 47.88,13.498 47.397,13.582 C46.389,13.771 45.255,14.002 44.247,14.254 C43.701,15.913 43.176,17.572 42.798,18.832 C42.651,19.294 42.42,19.378 41.979,19.252 C41.538,19.126 41.034,18.937 40.677,18.685 C40.299,18.412 40.278,18.118 40.383,17.53 C40.698,15.808 42.021,11.461 43.113,8.332 C42.882,7.912 42.714,7.303 42.63,6.988 C42.525,6.568 42.672,6.505 42.987,6.4 C44.415,5.98 46.977,5.686 48.909,5.602 C49.371,5.581 49.581,5.686 49.791,6.169 C49.98,6.61 50.064,6.967 50.085,7.387 C50.106,7.849 50.001,7.975 49.539,8.038 Z M57.519,8.038 C56.511,8.164 55.335,8.332 54.201,8.5 C53.907,9.277 53.571,10.264 53.193,11.335 C53.697,11.272 54.222,11.209 54.747,11.188 C55.209,11.167 55.482,11.356 55.608,11.671 C55.776,12.091 55.839,12.49 55.902,12.889 C55.965,13.351 55.86,13.498 55.377,13.582 C54.369,13.771 53.235,14.002 52.227,14.254 C51.681,15.913 51.156,17.572 50.778,18.832 C50.631,19.294 50.4,19.378 49.959,19.252 C49.518,19.126 49.014,18.937 48.657,18.685 C48.279,18.412 48.258,18.118 48.363,17.53 C48.678,15.808 50.001,11.461 51.093,8.332 C50.862,7.912 50.694,7.303 50.61,6.988 C50.505,6.568 50.652,6.505 50.967,6.4 C52.395,5.98 54.957,5.686 56.889,5.602 C57.351,5.581 57.561,5.686 57.771,6.169 C57.96,6.61 58.044,6.967 58.065,7.387 C58.086,7.849 57.981,7.975 57.519,8.038 Z" id="10%off"></path>
                </g>
                <g id="Group-14" transform="translate(22.035898, 48.921920) rotate(-40.000000) translate(-22.035898, -48.921920) translate(3.535898, 36.921920)">
                    <path d="M4.87535957,9.93766451 C5.30187219,9.71665844 5.84696048,9.50601263 6.47471232,9.2730199 C6.78693395,9.15351152 7.11946678,9.02712566 7.47042121,8.89386174 C7.82043923,8.78899195 8.18840671,8.6781044 8.5724343,8.56205898 C9.33906666,8.31103812 10.1742152,8.12112847 11.0580218,7.9338145 C11.9404008,7.71122222 12.8771471,7.62803666 13.8417404,7.46139702 C14.8096675,7.38596459 15.8078081,7.24256663 16.8234673,7.23340188 C17.8391122,7.1760527 18.8698953,7.19098463 19.9006815,7.21624179 C20.9305279,7.25870739 21.960379,7.31666084 22.972294,7.42623516 C23.4777798,7.48317328 23.9794864,7.54011027 24.4750515,7.59618501 C24.9696776,7.67204951 25.4581625,7.74791219 25.9390885,7.82205177 C26.9004644,7.95742424 27.825491,8.17969002 28.7042056,8.34515333 C29.5796293,8.56482315 30.4096874,8.73285339 31.1707917,8.95765205 C31.9328377,9.17212576 32.6320455,9.35646564 33.2476455,9.56487303 C33.8641882,9.76639721 34.403244,9.92315582 34.8430988,10.0910708 C35.725165,10.4079718 36.2287978,10.5888122 36.2287978,10.5888122 C36.3426586,10.6301468 36.4164125,10.8306502 36.394271,11.0380087 C36.3721279,11.2402047 36.2658774,11.3744013 36.1548533,11.3408115 C36.1496564,11.3390891 35.6455596,11.186643 34.7635082,10.9196472 C34.3236609,10.7775453 33.7846141,10.650902 33.1690268,10.4855164 C32.5539097,10.312387 31.8556584,10.1676275 31.0955147,9.99617616 C30.3358406,9.81526016 29.5081583,9.69369416 28.6360561,9.52393062 C27.7611352,9.40751328 26.840376,9.2385958 25.884685,9.15743248 C25.4070737,9.1099674 24.921904,9.06250009 24.4301201,9.01330995 C23.9383426,8.98563072 23.4408961,8.95708937 22.9391979,8.92854677 C21.936275,8.87490345 20.9168336,8.87374185 19.8983418,8.88892882 C18.8798549,8.92046408 17.8623158,8.96232484 16.8627485,9.07388624 C15.8617501,9.13812324 14.8825213,9.33487381 13.9330329,9.46107742 C12.9887676,9.67762836 12.0704594,9.80986423 11.2117132,10.0754853 C10.3501224,10.3066881 9.53718888,10.5379052 8.7951318,10.8242112 C8.42339173,10.957469 8.06676671,11.0847082 7.72809114,11.2059296 C7.39556391,11.3512451 7.08004107,11.4896821 6.78341198,11.6203807 C6.19156847,11.8731741 5.67530171,12.1010371 5.24312869,12.3504359 C4.38302228,12.8087942 4.29624075,12.6209008 4.29624075,12.6209008 C3.92074158,12.8221319 3.11544751,10.7949994 3.49094668,10.5937683 C3.51220167,10.5834493 4.00768075,10.3486966 4.87535957,9.93766451 Z" id="Fill-1" transform="translate(19.895874, 9.926437) rotate(-13.000000) translate(-19.895874, -9.926437) "></path>
                    <path d="M12.2604992,3.56098949 C11.8639753,3.94404099 11.5384531,4.30429206 11.1868301,4.70856138 C10.8417338,5.10549522 10.5056204,5.51303238 10.1760387,5.92546438 C9.51769229,6.75195941 8.88547408,7.60047982 8.28346143,8.46205842 C7.68063223,9.32282132 7.11209309,10.2047976 6.60559008,11.0949532 C6.35274635,11.5392158 6.11214761,11.9875603 5.91317375,12.4302146 C5.80062813,12.6535746 5.72480939,12.8696118 5.639196,13.0856449 C5.54378932,13.3049353 5.51774918,13.4949018 5.44926965,13.694635 L5.11974322,12.2749682 C5.30510618,12.4699146 5.45863756,12.6672938 5.67175371,12.8663284 C5.87262621,13.0645426 6.07186695,13.2643868 6.29232739,13.4593477 C6.71774211,13.8541552 7.17172082,14.2400056 7.62977825,14.6201503 C8.54671002,15.3820707 9.50199365,16.1187311 10.4744077,16.8309379 C11.4468218,17.5431448 12.4371853,18.2374213 13.4463063,18.8941994 C13.9516825,19.2213658 14.4619523,19.5395653 14.9779282,19.8398293 C15.2359124,19.9809925 15.4955372,20.1417248 15.7551464,20.2649509 C16.0180283,20.4069314 16.2727338,20.5146637 16.5274375,20.6183193 L16.5723371,20.6362757 C16.8074485,20.7325849 16.920198,21.0000676 16.8247978,21.2348497 C16.7375513,21.4492514 16.5057914,21.561674 16.2870213,21.5061392 C15.9613152,21.4236534 15.6405023,21.3313854 15.3474328,21.2195604 C15.0396758,21.1183289 14.7604756,20.9910179 14.4657726,20.8767462 C13.8894205,20.6343471 13.3253049,20.3756461 12.7660828,20.1079782 C11.6492705,19.5710123 10.5544813,18.9981801 9.47029278,18.4008917 C8.38610425,17.8036032 7.31659684,17.1802296 6.25931378,16.5112012 C5.73026414,16.1766869 5.20447633,15.8348357 4.68112499,15.4636328 C4.41904443,15.285777 4.15858716,15.0859074 3.89731402,14.8868528 C3.63686251,14.7008442 3.37148794,14.4528667 3.10857422,14.234243 L3.0881616,14.2171121 C2.66847939,13.8679667 2.55559917,13.2857577 2.77986401,12.8145766 C2.91931645,12.522738 3.04732724,12.1958344 3.20312034,11.9431395 C3.35564415,11.6798437 3.50490038,11.4100237 3.66967935,11.1752704 C3.98943317,10.6829297 4.32797699,10.2313645 4.67468742,9.7904022 C5.36892517,8.91010875 6.09583545,8.08690357 6.8488773,7.29387732 C7.60191916,6.50085106 8.37537736,5.73392458 9.17251679,4.99309922 C9.57149479,4.62309439 9.97618869,4.25879941 10.3931303,3.9051091 C10.800279,3.55549149 11.2580252,3.1863264 11.6839665,2.88400707 L11.6913102,2.87830265 C11.8920411,2.73569912 12.1703915,2.78228975 12.3133138,2.9837413 C12.4431683,3.16561896 12.4163346,3.4102138 12.2604992,3.56098949" id="Fill-3" transform="translate(9.762771, 12.157987) rotate(-19.000000) translate(-9.762771, -12.157987) "></path>
                </g>
            </g>
        </g>
    </g>
</svg>