<?xml version="1.0" encoding="UTF-8"?>
<svg width="560px" height="170px" viewBox="0 0 560 170" version="1.1" xmlns="http://www.w3.org/2000/svg" xmlns:xlink="http://www.w3.org/1999/xlink">
    <!-- Generator: Sketch 47.1 (45422) - http://www.bohemiancoding.com/sketch -->
    <title>123FormBuilder logo 90px</title>
    <desc>Created with Sketch.</desc>
    <defs></defs>
    <g id="Final" stroke="none" stroke-width="1" fill="none" fill-rule="evenodd">
        <g id="123FormBuilder-logo-90px">
            <g id="Logo" transform="translate(40.000000, 40.000000)">
                <g id="Form-Builder" transform="translate(270.000000, 0.000000)" fill="#565656">
                    <g id="Builder" transform="translate(0.000000, 55.000000)">
                        <path d="M195.833333,22 L190.142857,22 L190.142857,35 L183,35 L183,0 L195.880952,0 C199.976211,0 202.777767,0.657042067 205,2.5 C207.222233,4.34295793 208.5,7.13459856 208.5,10.5 C208.5,12.8878325 208.023815,14.9054407 207,16.5 C205.976185,18.0945593 204.579375,19.4544763 202.5,20.3999939 L210,34.6634615 L210,35 L204.187435,35 C203.051119,35 202.01233,34.3579929 201.504154,33.3416408 L195.833333,22 Z M190,16.5 L195.799988,16.5 C197.593648,16.5 199.115844,15.6214912 200.099976,14.7000122 C201.084107,13.7785332 201.5,12.6185978 201.5,11 C201.5,9.34935072 201.028552,8.24550534 200.099976,7.29998779 C199.1714,6.35447024 197.720632,5.5 195.799988,5.5 L190,5.5 L190,16.5 Z" id="FORM"></path>
                        <polygon id="Path" points="173 20 159 20 159 29 175.5 29 175.5 35 152 35 152 0 175.5 0 175.5 6 159 6 159 14 173 14"></polygon>
                        <path d="M118,35 L118,0 L129.5,0 C132.547634,0 134.595226,0.61377512 137,2 C139.404774,3.38622488 141.150787,5.44389748 142.5,8 C143.849213,10.5561025 144.5,13.4467908 144.5,16.7000122 L144.5,18.2999878 C144.5,21.5532092 143.825403,24.4631284 142.5,26.9951923 C141.174597,29.5272563 139.41271,31.6057623 137,33 C134.58729,34.3942377 131.531761,34.9839743 128.5,35 L118,35 Z M125.5,5.97802734 L125.5,29.2338867 L129,29 C131.807306,29 134.016594,28.3343191 135.5,26.5 C136.983406,24.6656809 137.774739,22.0242684 137.806641,18.6108398 L137.806641,16.7685547 C137.806641,13.2275214 136.967455,10.3263438 135.5,8.5 C134.032545,6.67365623 131.823256,6 129,6 L125.5,5.97802734 Z" id="BUILDER"></path>
                        <polygon id="Path" points="94 29 109.5 29 109.5 35 87 35 87 0 94 0"></polygon>
                        <path d="M77,35 L70,35 L70,0 L74,0 C75.6568542,1.39730022e-16 77,1.34314575 77,3 L77,35 Z" id="Path"></path>
                        <path d="M60,0 L60,23 C60,26.7782483 58.8219949,29.8026087 56.5,32 C54.1780051,34.1973913 51.0227202,35 47,35 C43.0394067,35 39.8297608,34.134157 37.5,32 C35.1702392,29.865843 34.0465952,26.7308226 34,23 L34,0 L41,0 L41,22.5 C41,26.6161264 43.0137629,29 47,29 C50.9862371,29 53,26.5940854 53,22.5 L53,0 L60,0 Z" id="Path"></path>
                        <path d="M0,35 L0,0 L12,0 C16.2452461,0 19.8052879,0.873389303 22,2.5 C24.1947121,4.1266107 25,6.35895865 25,9.5 C25,11.2147522 24.8810888,12.6939037 24,14 C23.1189112,15.3060963 21.5699401,16.3862149 20,16.9951923 C21.7942172,17.4439125 23.4667231,18.3378259 24.5,19.7000122 C25.5332769,21.0621985 26,22.7288485 26,24.7000122 C26,28.0654136 24.9466405,30.5692099 22.7999878,32.2999878 C20.653335,34.0307657 17.4729096,34.9679486 13.5,35 L0,35 Z M7,19.5 L7,29.5 L13.5,29.5 C15.1980984,29.5 16.4468465,28.8092989 17.4000244,28 C18.3532023,27.1907011 18.7999878,25.9262892 18.7999878,24.5 C18.7999878,21.2948558 17.3160979,19.5480772 14,19.5 L7,19.5 Z M7,14.5 L12.5,14.5 C16.1364938,14.4358971 17.9981516,13.3365526 17.9981516,10.5 C17.9981516,8.91345361 17.4211383,7.49710666 16.5,6.79998779 C15.5788617,6.10286892 14.186467,5.5 12.2000122,5.5 L7,5.5 L7,14.5 Z" id="BUILDER"></path>
                    </g>
                    <g id="Form">
                        <polygon id="Path" points="111.211488 0 120 25.5 128.741514 0 138 0 138 35 131 35 131 25.5 131.5 9 122.396867 35 117.556136 35 108.5 9 109 25.5 109 35 102 35 102 0"></polygon>
                        <path d="M80.8333333,22 L75.1428571,22 L75.1428571,35 L68,35 L68,0 L80.8809524,0 C84.976211,0 87.7777667,0.657042067 90,2.5 C92.2222333,4.34295793 93.5,7.13459856 93.5,10.5 C93.5,12.8878325 93.0238146,14.9054407 92,16.5 C90.9761854,18.0945593 89.5793755,19.4544763 87.5,20.3999939 L95,34.6634615 L95,35 L89.1874353,35 C88.0511191,35 87.0123298,34.3579929 86.5041537,33.3416408 L80.8333333,22 Z M75,16.5 L80.7999878,16.5 C82.5936476,16.5 84.1158437,15.6214912 85.0999756,14.7000122 C86.0841075,13.7785332 86.5,12.6185978 86.5,11 C86.5,9.34935072 86.0285517,8.24550534 85.0999756,7.29998779 C84.1713995,6.35447024 82.7206323,5.5 80.7999878,5.5 L75,5.5 L75,16.5 Z" id="FORM"></path>
                        <path d="M59,18.2720588 C59,21.6254624 58.3871029,24.5654954 57.1612903,27.092246 C55.9354777,29.6189966 54.181463,31.5686206 51.8991935,32.9411765 C49.6169241,34.3137324 47.0000148,35 44.0483871,35 C41.1290177,35 38.524205,34.3215308 36.233871,32.9645722 C33.9435369,31.6076135 32.1693611,29.6696873 30.9112903,27.1507353 C29.6532195,24.6317833 29.0161291,21.734642 29,18.4592246 L29,16.7747326 C29,13.421329 29.6249937,10.4695983 30.875,7.91945187 C32.1250063,5.36930543 33.8911176,3.41188294 36.1733871,2.04712567 C38.4556566,0.682368399 41.0645015,0 44,0 C46.9354985,0 49.5443434,0.682368399 51.8266129,2.04712567 C54.1088824,3.41188294 55.8749938,5.36930543 57.125,7.91945187 C58.3750062,10.4695983 59,13.4135305 59,16.7513369 L59,18.2720588 Z M52,16.7000122 C52,13.19567 51.3080238,10.5210459 49.9240506,8.70001221 C48.5400775,6.87897848 46.5654137,6 44,6 C41.4514641,6 39.485239,6.89902627 38.1012658,8.69710579 C36.7172927,10.4951853 36.0168777,13.2262756 36,16.7000122 L36,18.2999878 C36,21.7125132 36.6919762,24.4177429 38.0759494,26.2999878 C39.4599225,28.1822327 41.4514638,29 44.0506329,29 C46.5991689,29 48.5569552,28.1133701 49.9240506,26.2999878 C51.2911461,24.4866055 51.9831223,21.7737244 52,18.2999878 L52,16.7000122 Z" id="FORM"></path>
                        <path d="M20.5,20.5 L7,20.5 L7,35 L0,35 L0,3 C-2.02906125e-16,1.34314575 1.34314575,3.04359188e-16 3,0 L22.5,0 L22.5,6 L7,6 L7,15 L20.5,15 L20.5,20.5 Z" id="Path"></path>
                    </g>
                </g>
                <g id="123">
                    <g id="3" transform="translate(150.000000, 0.000000)">
                        <path d="M90,60 C90,76.5685425 76.5685425,90 60,90 L5,90 L5,80 C5,74.4771525 9.4771525,70 15,70 L60,70 C65.5228475,70 70,65.5228475 70,60 C70,55.1030742 66.4801608,51.028251 61.8324761,50.1675239 L76.8348011,35.1651989 C84.780288,40.5617128 90,49.6712919 90,60 Z" id="Bottom" fill="#0372F2"></path>
                        <path d="M70.981153,0 C74.1690552,-3.41703408e-15 77.2263892,1.26638922 79.4805765,3.52057649 C84.1746785,8.21467848 84.1746785,15.8253215 79.4805765,20.5194235 L50,50 L22,50 L52,20 L0,20 L0,1.42108547e-14 L70.981153,1.42108547e-14 L70.981153,0 Z" id="Top" fill="#068FF6"></path>
                    </g>
                    <g id="2" transform="translate(50.000000, 0.000000)">
                        <polygon id="Bottom" fill="#FF9C00" points="0 70 90 70 90 90 0 90"></polygon>
                        <path d="M90,30 C90,46.5685425 76.5685425,60 60,60 L0,60 L0,50 C-6.76353751e-16,44.4771525 4.4771525,40 10,40 L60,40 C65.5228475,40 70,35.5228475 70,30 C70,24.4771525 65.5228475,20 60,20 L0,20 L0,0 L60,0 C76.5685425,-3.04359188e-15 90,13.4314575 90,30 Z" id="Top" fill="#FFAD00"></path>
                    </g>
                    <g id="1">
                        <polygon id="Bottom" fill="#01A063" points="15 41 35 31 35 90 15 90"></polygon>
                        <path d="M35,-2.27373675e-13 L35,20 L0.00232833864,37.4988358 L0.00071963175,23.6811443 C0.000278602446,19.8930044 2.1403682,16.4298159 5.52858361,14.7357082 L35,-2.27373675e-13 Z" id="Top" fill="#02B880"></path>
                    </g>
                </g>
            </g>
        </g>
    </g>
</svg>