<svg id="Layer_1" data-name="Layer 1" xmlns="http://www.w3.org/2000/svg" xmlns:xlink="http://www.w3.org/1999/xlink" viewBox="0 0 194 137"><defs><style>.cls-1{fill:none;}.cls-2{fill:#26337b;}.cls-3{clip-path:url(#clip-path);}.cls-4,.cls-5{fill:#fff;}.cls-5{fill-rule:evenodd;}.cls-6{fill:#231f20;}.cls-7{fill:#ef3742;}</style><clipPath id="clip-path"><polygon class="cls-1" points="2.51 33.43 17.51 133.74 63.95 116.95 63.95 5.03 2.51 33.43"/></clipPath></defs><title>Artboard 3</title><polygon class="cls-2" points="63.95 116.95 17.51 133.74 2.51 33.43 63.95 5.03 63.95 116.95"/><g class="cls-3"><path class="cls-4" d="M56.13,45.11c-.31,2-2.9,3.21-5.8,2.81s-5-2.3-4.68-4.25,2.91-3.21,5.8-2.81,5,2.3,4.68,4.25"/><path class="cls-4" d="M54.54,32.1c.07-.4-.2-1.26-1.47-1.43s-1.8.57-1.86,1L48.47,47.45l3.79.52Z"/><path class="cls-4" d="M55.64,17.68c.06-.4,0-.74-.39-.79s-.55.25-.61.65L52.06,33.38l1.13.15,2.45-15.85"/><path class="cls-4" d="M54.77,35.82a2.21,2.21,0,0,0-2.18-2.1,2.34,2.34,0,0,0-2.75,1.42L47,50.94l5.59.77,2.18-15.89"/><polygon class="cls-4" points="52.87 56.98 49.41 56.5 51.52 43.17 54.02 45.8 52.87 56.98"/><polygon class="cls-4" points="48.89 56.43 45.09 55.91 47.51 44.91 51 43.1 48.89 56.43"/><polygon class="cls-2" points="51.97 56.85 48.87 56.43 50.98 43.1 53.19 45.69 51.97 56.85"/><path class="cls-4" d="M62.84,77.49C61.72,84.57,53.28,89.27,44,88s-15.92-8-14.79-15.13S38.75,61.08,48,62.36s15.92,8,14.8,15.13"/><path class="cls-2" d="M60.65,78.34c-.94,6-8.34,9.88-16.53,8.75s-14-6.87-13.1-12.83,8.34-9.88,16.53-8.76,14.05,6.87,13.1,12.84"/><path class="cls-4" d="M58.42,78.12c-.82,5.16-7.13,8.58-14.08,7.62S32.41,79.82,33.23,74.66,40.35,66.08,47.3,67,59.23,73,58.42,78.12"/><path class="cls-4" d="M48.51,59.4c8.78,1.21,15.23,7.38,15.43,14.31a11.23,11.23,0,0,0,.53-2.09c1.23-7.76-5.61-15.13-15.28-16.46S30.67,59,29.44,66.8A12,12,0,0,0,29.3,69c2.35-6.58,10.44-10.76,19.21-9.55"/><path class="cls-2" d="M57,77c-.68,4.28-6.15,7.08-12.21,6.24S34.3,78.24,35,74s6.15-7.08,12.22-6.24S57.63,72.7,57,77"/><path class="cls-4" d="M56.11,76.37c-.58,3.66-5.56,6-11.12,5.24s-9.59-4.35-9-8,5.55-6,11.11-5.24,9.6,4.35,9,8"/><polygon class="cls-4" points="34.3 144.41 21.34 142.63 39.44 73.34 45.97 70.76 34.3 144.41"/><polygon class="cls-2" points="28.83 143.66 26.08 143.28 41.7 72.46 42.99 71.8 28.83 143.66"/><polygon class="cls-2" points="52.34 80.67 52.4 78.61 54.02 78.11 55.68 78.39 55.1 80.31 52.34 80.67"/><polygon class="cls-4" points="35.75 144.61 48.71 146.4 52.88 75.19 47.42 70.96 35.75 144.61"/><polygon class="cls-2" points="34.3 144.41 45.88 146.01 51.08 74.94 45.98 70.76 34.3 144.41"/><polygon class="cls-2" points="49.15 70.11 49.88 68.73 51 68.88 48.68 73.4 49.15 70.11"/><polygon class="cls-2" points="51.29 72.23 53.43 70.75 54.95 71.91 50.79 75.77 51.29 72.23"/><polygon class="cls-2" points="51.93 78.19 52.15 75.41 53.1 74.43 56.21 74.28 56.42 76.11 51.93 78.19"/><polygon class="cls-2" points="46.12 73.38 45.58 73.53 45.32 67.74 46.15 67.73 46.12 73.38"/><polygon class="cls-2" points="42.68 73.44 42.18 73.83 40.4 68.67 41.1 68.4 42.68 73.44"/><polygon class="cls-2" points="40.43 75.42 40.28 76.05 36.52 71.82 36.98 71.17 40.43 75.42"/><polygon class="cls-2" points="39.22 77.43 39.06 78.04 35.24 75.97 35.16 75.09 39.22 77.43"/></g><path class="cls-5" d="M30.51,50.65l.14.27-.16-.29a4.06,4.06,0,0,0-2-1.16c-.41-.12-.89-.36-1.28-.09s-.13,1.32-.06,1.63.12,1.17.15,1.44a4.13,4.13,0,0,0,.58,1.27A3.5,3.5,0,0,0,29,54.82a3,3,0,0,1-1.48-.72,10.3,10.3,0,0,0-1.32-.93,15.27,15.27,0,0,0-1.45-.71c-.54-.25-.28,1.11-.28,1.11a7.85,7.85,0,0,0-1.79-2.9.48.48,0,0,0-.78.08c-1,.56-.9,2.16-.9,2.16a1.55,1.55,0,0,1-.17-1.21,4.94,4.94,0,0,0,0-1,9.8,9.8,0,0,0-.13-1.07,1.48,1.48,0,0,1,.08-.83c.1-.5,0-.33,0-.33A18.08,18.08,0,0,1,32.71,36.82c-14.16,3.64-14,20.1-14,20.1h-.4a26,26,0,0,1,2.07-9.49l-.17.3a4,4,0,0,1-.49.46l-.88.49a5.92,5.92,0,0,0-.81.73,8.43,8.43,0,0,0-.8.87s.4-1,.63-1.59,0-.43.09-1.18-.33-.66-.85-1.2a2.54,2.54,0,0,0-1.61-.54c.5-.28.39-.66.37-1.06s-.41-.58-.73-1a5,5,0,0,0-1.2-1.1,3.43,3.43,0,0,1-.84-.92,4.17,4.17,0,0,0,.52.31,5.78,5.78,0,0,0,1.25.13,13,13,0,0,0,2.61-.55c.54-.2.5-1.19.52-1.86a2.32,2.32,0,0,0-.65-1.47c-.23-.36,0-.31,0-.31.54.59,1.43.32,2.14-.46s.44-1.24.44-1.24c.21.12.61-.39.88-.81s.52-.6.94-1.28A4.8,4.8,0,0,1,22.86,33a2.17,2.17,0,0,0-.6,2.07c.09.13.34.32.52.58s.84,0,.84,0c-.35.38.06,1.6.38,1.83s1.06-.16,1.74-.48a12,12,0,0,0,2-1.4c.4-.33,1.33-1.22,1.33-1.22a.81.81,0,0,0,.1,1.34c.28.23.86,0,1.24,0A8.1,8.1,0,0,0,32,35.31c-.43.31.22.56.59.69a11.46,11.46,0,0,0,2.36-.12c.31,0,1.81.09,1.81.09a3.8,3.8,0,0,0-3.12,1.52c-.59.65.59.85.59.85a1.9,1.9,0,0,0-1.86,1c-.09.44,2,.87,2,.87a7.81,7.81,0,0,0-2.14.34,6.78,6.78,0,0,0-1.83.74c-.75.43-1.14.89-1.12,1.25s1.47,1.07,2.17,1.33a3.73,3.73,0,0,0,1.2.27c-1.14.24.05,1.44.2,1.58s.8.88,1.37,1.36S36,48.46,36,48.46c-.31-.11-1.18-.31-1.61-.42a4.09,4.09,0,0,0-2,0c-.78.2-.25,1.07-.25,1.07a1.87,1.87,0,0,0-2.06-.28c-.5.24.53,2.1.53,2.1"/><path class="cls-6" d="M88.64,18.49c0,6.67-2.67,9.89-8.55,9.89-6.24,0-8.51-3.74-8.51-11.76S73.8,4.83,80.22,4.83c4.35,0,7,1.61,8,4.83L84.7,11a4.1,4.1,0,0,0-4.44-3.32c-3.74,0-4.69,2.81-4.69,8.9s1,8.89,4.69,8.89c3.08,0,4.6-2,4.6-5.9a10.2,10.2,0,0,0,0-1.09H80.63V15.75h7.89c.08,1,.12,1.9.12,2.74"/><path class="cls-6" d="M96.7,28.09h-4v-23h4.77c6.13,0,8.8,1.54,8.8,6,0,3.42-1.85,5.32-5.51,5.67l7,11.31h-4.24l-6.7-11.21H96.7Zm1.23-13c3.41,0,4.4-1.2,4.4-4,0-2.61-1.23-3.29-4.52-3.29H96.7v7.29Z"/><polygon class="cls-6" points="110.51 5.12 122.23 5.12 122.23 7.89 114.46 7.89 114.46 14.72 121.57 14.72 121.57 17.46 114.46 17.46 114.46 25.23 122.23 25.23 122.23 28.09 110.51 28.09 110.51 5.12"/><path class="cls-6" d="M131,5.12h3.7l6.87,23h-4l-1.4-4.51h-6.7l-1.35,4.51h-4ZM130.2,21h5.26l-2.63-9.95Z"/><polygon class="cls-6" points="146.57 7.99 141.15 7.99 141.15 5.12 155.98 5.12 155.98 7.99 150.55 7.99 150.55 28.09 146.57 28.09 146.57 7.99"/><polygon class="cls-6" points="158.9 5.12 170.62 5.12 170.62 7.89 162.84 7.89 162.84 14.72 169.96 14.72 169.96 17.46 162.84 17.46 162.84 25.23 170.62 25.23 170.62 28.09 158.9 28.09 158.9 5.12"/><path class="cls-6" d="M178.75,28.09h-3.94v-23h4.77c6.12,0,8.79,1.54,8.79,6,0,3.42-1.84,5.32-5.5,5.67l6.94,11.31h-4.23l-6.7-11.21h-.13Zm1.24-13c3.41,0,4.39-1.2,4.39-4,0-2.61-1.23-3.29-4.51-3.29h-1.12v7.29Z"/><polygon class="cls-6" points="75.78 37.53 71.55 37.53 71.55 34.66 83.11 34.66 83.11 37.53 78.88 37.53 78.88 57.63 75.78 57.63 75.78 37.53"/><path class="cls-6" d="M90.71,34.37c4.8,0,6.47,3.74,6.47,11.79s-1.67,11.76-6.47,11.76-6.5-3.7-6.5-11.76,1.7-11.79,6.5-11.79m0,20.62c2.72,0,3.33-2.87,3.33-8.89s-.7-8.86-3.36-8.86-3.39,2.83-3.39,8.86S88.12,55,90.74,55"/><path class="cls-6" d="M103.68,57.63H100.6v-23h3.72c4.77,0,6.85,1.55,6.85,6,0,3.42-1.44,5.32-4.29,5.67l5.41,11.31H109l-5.22-11.21h-.09Zm1-13c2.65,0,3.42-1.19,3.42-4,0-2.61-1-3.28-3.52-3.28h-.86v7.28Z"/><path class="cls-6" d="M120.36,34.37c4.8,0,6.47,3.74,6.47,11.79s-1.67,11.76-6.47,11.76-6.5-3.7-6.5-11.76,1.7-11.79,6.5-11.79m0,20.62c2.72,0,3.33-2.87,3.33-8.89s-.7-8.86-3.36-8.86S117,40.07,117,46.1s.8,8.89,3.42,8.89"/><polygon class="cls-6" points="130.22 34.66 133.07 34.66 139.12 50.61 139.12 34.66 142.04 34.66 142.04 57.63 139.15 57.63 133.13 41.55 133.13 57.63 130.22 57.63 130.22 34.66"/><polygon class="cls-6" points="148.6 37.53 144.38 37.53 144.38 34.66 155.93 34.66 155.93 37.53 151.71 37.53 151.71 57.63 148.6 57.63 148.6 37.53"/><path class="cls-6" d="M163.53,34.37c4.81,0,6.47,3.74,6.47,11.79s-1.66,11.76-6.47,11.76S157,54.22,157,46.16s1.69-11.79,6.49-11.79m0,20.62c2.72,0,3.33-2.87,3.33-8.89s-.71-8.86-3.37-8.86-3.39,2.83-3.39,8.86.8,8.89,3.43,8.89"/><polygon class="cls-6" points="174.59 42.04 173.02 41.59 175.1 33.24 177.5 33.98 174.59 42.04"/><path class="cls-6" d="M183.78,54.93a2.85,2.85,0,0,0,3.07-3c0-2.22-1.5-3.26-3.74-5.12s-3.65-3.68-3.65-6.35a5.75,5.75,0,0,1,5.7-6.06,8.14,8.14,0,0,1,4,1v3.09a6,6,0,0,0-3.43-1.25,3,3,0,0,0-3.2,3.16c0,2.12,1.57,3.22,3.84,5.05,2.47,2,3.59,3.74,3.59,6.42a5.78,5.78,0,0,1-6,6.05,8,8,0,0,1-4-1.16V53.61a7.33,7.33,0,0,0,3.75,1.32"/><polygon class="cls-6" points="75.52 68.45 71.53 68.45 71.53 64.2 84.74 64.2 84.74 68.45 80.75 68.45 80.75 87.18 75.52 87.18 75.52 68.45"/><path class="cls-6" d="M94.9,87.47c-5.71,0-9.15-4.32-9.15-11.77s3.58-11.79,9.15-11.79,9.18,4.35,9.18,12.12c0,7.12-3.69,11.44-9.18,11.44m4-11.77c0-5-1.31-7.41-4-7.41s-4,2.45-4,7.41,1.28,7.38,4,7.38,4-2.45,4-7.38"/><path class="cls-6" d="M107.31,64.2h5.41c5.71,0,8.49,2.13,8.49,6.67,0,4.32-2.81,6.8-7.68,6.8-.37,0-.77,0-1.17,0v9.53h-5Zm5.6,10c2.19,0,3.4-1.13,3.4-3.25s-1.06-3.19-3.4-3.19c-.19,0-.37,0-.55,0v6.38c.18,0,.36,0,.55,0"/><polygon class="cls-6" points="71.57 93.74 80.48 93.74 80.48 97.99 75.67 97.99 75.67 102.64 80.03 102.64 80.03 106.86 75.67 106.86 75.67 112.24 80.48 112.24 80.48 116.72 71.57 116.72 71.57 93.74"/><path class="cls-6" d="M84.37,93.74H89.8l1.1,8.77c.3,2.44.54,4.89.68,7.41.33-3.74.57-6.19.75-7.41l1.36-8.77h5.38l1.78,23H96.57l-.44-10.67c-.09-2.12-.24-4.77-.24-8l-2.76,18.66H90.07L87.49,97.93c0,2.9-.21,5.61-.36,8.19l-.65,10.6H82.29Z"/><path class="cls-6" d="M103.14,93.74h4.39c4.63,0,6.89,2.13,6.89,6.67,0,4.32-2.29,6.8-6.24,6.8-.29,0-.62,0-1,0v9.54h-4.09Zm4.54,10c1.78,0,2.76-1.13,2.76-3.25s-.86-3.19-2.76-3.19l-.45,0v6.38c.15,0,.3,0,.45,0"/><polygon class="cls-6" points="116.65 93.74 120.84 93.74 120.84 112.24 125.64 112.24 125.64 116.72 116.65 116.72 116.65 93.74"/><path class="cls-6" d="M134,117c-4.63,0-7.42-4.32-7.42-11.76s2.9-11.8,7.42-11.8,7.45,4.35,7.45,12.12c0,7.12-3,11.44-7.45,11.44m3.23-11.76c0-5-1.06-7.42-3.23-7.42s-3.21,2.45-3.21,7.42,1,7.38,3.21,7.38,3.23-2.45,3.23-7.38"/><path class="cls-6" d="M146.11,105.92,141.2,93.74h4.46l1.4,4.16c.53,1.58.95,3,1.3,4.48A34.85,34.85,0,0,1,149.55,98l1.54-4.29h4.13l-4.93,12.18v10.8h-4.18Z"/><polygon class="cls-6" points="155.7 93.74 164.6 93.74 164.6 98 159.79 98 159.79 102.64 164.16 102.64 164.16 106.86 159.79 106.86 159.79 112.24 164.6 112.24 164.6 116.72 155.7 116.72 155.7 93.74"/><path class="cls-6" d="M167.46,93.74h4.39c4.69,0,6.89,1.84,6.89,6.48,0,3.22-1.07,5.22-3.36,6l4.07,10.48H175l-3.45-9.54v9.54h-4.09Zm4.57,10c1.81,0,2.76-1.09,2.76-3.28s-.8-3.16-2.67-3.16a3.83,3.83,0,0,0-.57,0v6.38l.48,0"/><path class="cls-6" d="M180.43,111.14a4.54,4.54,0,0,0,3.12,1.52,2.13,2.13,0,0,0,2.31-2.29c0-1.61-1.12-2.26-2.37-3.48-2.23-2.19-3.38-3.93-3.38-6.8,0-4,2.25-6.64,5.58-6.64a6.74,6.74,0,0,1,3.56,1.13v4.06a6.64,6.64,0,0,0-2.82-1,2.06,2.06,0,0,0-2.08,2.25c0,1.58,1,2.52,2.47,3.9,2.07,1.94,3.35,3.26,3.35,6.48,0,4.12-2.29,6.77-6.09,6.77a6.07,6.07,0,0,1-3.65-1.1Z"/><rect class="cls-7" x="128.37" y="63.91" width="61.6" height="23.66"/><path class="cls-4" d="M145.26,82.3v3.22H133.07l4.61-6.09,1.15-1.52c.45-.58.88-1.21,1.3-1.86a15.58,15.58,0,0,0,1.05-2,4.42,4.42,0,0,0,.44-1.78,4,4,0,0,0-.16-1,3.45,3.45,0,0,0-.46-1,2.75,2.75,0,0,0-.73-.75,1.83,1.83,0,0,0-2,0,2.32,2.32,0,0,0-.71.78,3.38,3.38,0,0,0-.4,1.06,4.23,4.23,0,0,0-.09,1.11h-3.75a9.87,9.87,0,0,1,.52-2.55,6.51,6.51,0,0,1,1.16-2,5.49,5.49,0,0,1,1.81-1.38,5.84,5.84,0,0,1,2.46-.5,5.56,5.56,0,0,1,2.32.47,5.88,5.88,0,0,1,1.86,1.28,6.11,6.11,0,0,1,1.25,1.94,6.48,6.48,0,0,1,.45,2.43,7,7,0,0,1-.26,2,10,10,0,0,1-.7,1.77,12.32,12.32,0,0,1-1,1.62c-.38.52-.77,1-1.19,1.54l-2.66,3.25Z"/><path class="cls-4" d="M153.69,66a4.76,4.76,0,0,1,3.06,1,7.55,7.55,0,0,1,2,2.5,12.32,12.32,0,0,1,1.09,3.25,17,17,0,0,1,.34,3.29,16.29,16.29,0,0,1-.15,2.14,14.36,14.36,0,0,1-.46,2.24,14,14,0,0,1-.83,2.13,7.46,7.46,0,0,1-1.23,1.79,5.53,5.53,0,0,1-1.66,1.22,5.25,5.25,0,0,1-4.3,0,5.57,5.57,0,0,1-1.67-1.22,7.16,7.16,0,0,1-1.22-1.79,13.06,13.06,0,0,1-.83-2.13,14.39,14.39,0,0,1-.47-2.24,18.12,18.12,0,0,1-.14-2.14,17.8,17.8,0,0,1,.33-3.29,12.33,12.33,0,0,1,1.1-3.25,7.43,7.43,0,0,1,2-2.5A4.72,4.72,0,0,1,153.69,66Zm0,3.22a1.73,1.73,0,0,0-1.09.37,3.09,3.09,0,0,0-.81,1,6.17,6.17,0,0,0-.55,1.33c-.14.5-.26,1-.35,1.5a13.47,13.47,0,0,0-.18,1.44c0,.45-.05.84-.05,1.16s0,.7.05,1.16a13,13,0,0,0,.18,1.43c.09.51.21,1,.35,1.52a6.05,6.05,0,0,0,.55,1.34,3.25,3.25,0,0,0,.81,1,1.63,1.63,0,0,0,1.09.38,1.65,1.65,0,0,0,1.09-.38,3.22,3.22,0,0,0,.8-1,6.06,6.06,0,0,0,.56-1.34,13.82,13.82,0,0,0,.34-1.52,13,13,0,0,0,.18-1.43c0-.46.05-.84.05-1.16s0-.71-.05-1.16a15.17,15.17,0,0,0-.52-2.94,6.18,6.18,0,0,0-.56-1.33,3.06,3.06,0,0,0-.8-1A1.75,1.75,0,0,0,153.69,69.24Z"/><path class="cls-4" d="M163.14,69.75V66.52h5.91v19h-3.53V69.75Z"/><path class="cls-4" d="M176.32,84.34,180,78.82l0,0a3.46,3.46,0,0,1-1.42.28,4.72,4.72,0,0,1-2.24-.53,5.33,5.33,0,0,1-1.69-1.4,6.3,6.3,0,0,1-1.07-2,7.84,7.84,0,0,1,.11-5.08A6.39,6.39,0,0,1,175,67.91a6,6,0,0,1,2-1.39,6.78,6.78,0,0,1,5.06,0,6.22,6.22,0,0,1,2,1.32,6.06,6.06,0,0,1,1.35,2,7,7,0,0,1,.49,2.64,8.75,8.75,0,0,1-.66,3.33,18.63,18.63,0,0,1-1.55,3l-4.8,7.48ZM179.61,69a2.29,2.29,0,0,0-1.2.32,2.83,2.83,0,0,0-.9.82,3.7,3.7,0,0,0-.57,1.14,4.78,4.78,0,0,0-.19,1.28,4.67,4.67,0,0,0,.19,1.28,3.81,3.81,0,0,0,.57,1.14,2.92,2.92,0,0,0,.9.81,2.29,2.29,0,0,0,1.2.32,2.34,2.34,0,0,0,1.2-.32,3.16,3.16,0,0,0,.9-.81,4.29,4.29,0,0,0,.78-2.42,4.13,4.13,0,0,0-.21-1.28,3.93,3.93,0,0,0-.57-1.14,3.05,3.05,0,0,0-.9-.82A2.34,2.34,0,0,0,179.61,69Z"/></svg>