<svg xmlns="http://www.w3.org/2000/svg" xmlns:xlink="http://www.w3.org/1999/xlink" width="466" height="375" viewBox="0 0 466 375">
    <defs>
        <ellipse id="a" cx="90.346" cy="90.254" rx="90.346" ry="90.154"/>
        <circle id="c" cx="273.6" cy="187.2" r="187.2"/>
        <path id="e" d="M.096 105.245c0 58.061 47.152 105.119 105.312 105.119s105.313-47.058 105.313-105.119C210.72 47.19 163.568.133 105.408.133 47.248.133.096 47.19.096 105.245"/>
        <path id="g" d="M.096 105.245c0 58.061 47.152 105.119 105.312 105.119s105.313-47.058 105.313-105.119C210.72 47.19 163.568.133 105.408.133 47.248.133.096 47.19.096 105.245"/>
        <path id="i" d="M.096 105.245c0 58.061 47.152 105.119 105.312 105.119s105.313-47.058 105.313-105.119C210.72 47.19 163.568.133 105.408.133 47.248.133.096 47.19.096 105.245"/>
        <path id="k" d="M.278.484h12.19v16.745H.279z"/>
        <path id="m" d="M0 .603h8.688v11.935H0z"/>
    </defs>
    <g fill="none" fill-rule="evenodd" transform="translate(-36)">
        <circle cx="445.95" cy="73.35" r="55.35" fill="#EAB54B" fill-opacity=".2"/>
        <g transform="rotate(35 27.856 172.95)">
            <mask id="b" fill="#fff">
                <use xlink:href="#a"/>
            </mask>
            <g stroke="#B9E6C1" stroke-width="3.024" mask="url(#b)">
                <path stroke-linecap="square" d="M-31.057-1.63H197.23"/>
                <path stroke-linecap="round" stroke-linejoin="round" d="M64.446 5.291h228.287M47.771 12.213h228.287M37.665 19.135h228.287M29.58 26.056h228.287M22.506 32.978h228.287M17.453 39.9H245.74M12.905 46.822h228.287M9.368 53.743h228.287M6.841 60.665h228.287M4.315 67.587h228.287M2.799 74.508h228.287M1.788 81.43h228.287M1.283 88.352H229.57M1.788 95.274h228.287M2.294 102.195H230.58M3.81 109.117h228.287M5.325 116.039h228.288M7.852 122.96h228.287M10.884 129.882H239.17M14.926 136.804h228.287M19.474 143.725h228.287M25.538 150.647h228.287M32.612 157.569h228.287M41.708 164.49h228.287M54.34 171.412h228.287M78.595 178.334h228.287M-31.057 185.256H197.23M-31.057 192.177H197.23M-31.057 199.1H197.23M-31.057 206.02H197.23M-31.057 212.942H197.23M-31.057 219.864H197.23M-31.057 226.786H197.23M-31.057 233.708H197.23"/>
            </g>
        </g>
        <mask id="d" fill="#fff">
            <use xlink:href="#c"/>
        </mask>
        <use fill="#2672B9" xlink:href="#c"/>
        <path fill="#FFF" fill-rule="nonzero" d="M238.84 112.28v2.62h-22.428v-2.62h10.03V84.306c-2.571 3.024-5.343 5.292-9.224 7.762v-3.276c3.175-1.764 7.61-5.494 9.727-8.165h2.57v31.651h9.325zm28.835-24.495l-3.074 1.008c-1.562-3.73-4.082-5.695-7.308-5.695-4.637 0-8.266 3.427-9.778 9.122-.604 2.268-.756 3.528-.907 7.056 1.008-2.218 1.764-3.276 3.276-4.385 1.915-1.461 4.335-2.217 6.955-2.217 6.35 0 11.088 4.737 11.088 11.138 0 6.703-5.14 11.844-11.844 11.844-3.73 0-7.106-1.512-9.172-4.133-2.168-2.721-3.478-7.56-3.478-12.7 0-11.038 5.594-18.296 14.112-18.296 4.94 0 8.266 2.369 10.13 7.258zm-11.138 7.409c-5.09 0-9.072 4.082-9.072 9.273 0 4.839 3.73 8.568 8.568 8.568 4.889 0 8.72-3.981 8.72-9.072 0-4.889-3.63-8.77-8.216-8.77zm27.979-14.667c7.862 0 12.751 6.703 12.751 17.54 0 5.09-1.109 9.626-3.125 12.499-2.167 3.175-5.745 5.09-9.475 5.09-4.082 0-7.812-2.218-9.979-5.846-1.663-2.873-2.62-7.107-2.62-11.744 0-5.04 1.108-9.576 3.124-12.448 2.167-3.125 5.746-5.09 9.324-5.09zm.252 2.52c-5.846 0-9.526 5.796-9.526 15.02 0 9.223 3.68 15.069 9.425 15.069 5.746 0 9.425-5.846 9.425-15.07 0-9.072-3.68-15.019-9.324-15.019zm17.849 13.709h9.828V86.474h3.175v10.282h9.828v2.772h-9.828v10.282h-3.175V99.528h-9.828v-2.772zm-103.435 45.053l-3.175.857c-1.461-5.494-4.687-8.417-9.223-8.417-6.35 0-10.332 5.695-10.332 14.918 0 8.971 4.032 14.767 10.282 14.767 4.687 0 8.064-3.276 9.525-9.122l2.923.958c-1.814 7.106-6.148 10.886-12.448 10.886-8.316 0-13.608-6.804-13.608-17.59 0-10.735 5.342-17.539 13.708-17.539 6.099 0 10.584 3.73 12.348 10.282zm14.07-1.462c6.4 0 10.734 5.242 10.734 13.104 0 7.812-4.334 13.155-10.584 13.155-6.653 0-10.937-5.192-10.937-13.155 0-7.812 4.335-13.104 10.786-13.104zm0 2.47c-4.739 0-7.611 4.032-7.611 10.634 0 6.603 2.872 10.685 7.459 10.685 4.889 0 7.711-3.982 7.711-10.685 0-6.602-2.873-10.634-7.56-10.634zm16.033-1.764h2.974v15.775c0 5.04 1.613 7.308 5.191 7.308 4.536 0 7.812-3.931 7.812-9.425v-13.658h2.974V165.9h-2.974v-4.687c-1.865 3.679-4.486 5.393-8.114 5.393-2.873 0-5.242-1.21-6.552-3.428-.908-1.461-1.31-3.477-1.31-6.4v-15.725zm45.367 24.847h-2.973v-15.775c0-5.04-1.613-7.308-5.192-7.308-4.536 0-7.812 3.931-7.812 9.425V165.9h-2.973v-24.847h2.973v4.687c1.865-3.68 4.486-5.393 8.115-5.393 2.873 0 5.241 1.21 6.552 3.427.907 1.462 1.31 3.478 1.31 6.401V165.9zm10.742-22.478v15.472c0 3.932 1.21 5.343 4.587 5.343.806 0 1.562-.05 2.822-.252v2.369c-1.814.252-2.67.302-3.477.302-4.688 0-6.905-2.52-6.905-7.862v-15.372h-5.04v-2.37h4.838v-6.148l3.175-.302v6.45h5.847v2.37h-5.847zm23.191-2.873v2.419c-.806-.1-1.21-.151-1.764-.151-2.217 0-4.032 1.008-5.342 2.973-1.16 1.815-1.915 4.284-1.915 6.552V165.9h-2.974v-24.847h2.671v5.745c1.563-4.586 3.78-6.45 7.56-6.45.706 0 1.059.05 1.764.2zm7.013.504V165.9h-2.974v-24.847h2.974zm.202-8.77v3.528h-3.428v-3.528h3.428zm27.727 21.269h-18.9c0 6.502 3.225 10.584 8.416 10.584 3.478 0 6.15-1.966 7.258-5.443l2.772.705c-1.31 4.436-5.242 7.208-10.13 7.208-6.956 0-11.492-5.141-11.492-12.903 0-7.963 4.688-13.356 11.643-13.356 3.931 0 7.106 1.915 8.92 5.393 1.11 2.167 1.462 3.931 1.513 7.812zm-18.8-2.369h15.574c-.454-5.493-2.974-8.366-7.308-8.366a7.878 7.878 0 0 0-6.35 3.175c-1.059 1.411-1.512 2.62-1.916 5.191zm21.78 7.913l2.923-.655c.756 3.78 3.579 5.745 8.165 5.745 4.234 0 6.955-1.864 6.955-4.838 0-2.42-1.512-3.68-5.09-4.385l-5.09-.907c-4.587-.857-6.855-3.074-6.855-6.602 0-4.385 3.579-7.157 9.274-7.157 5.393 0 8.72 2.217 9.878 6.602l-2.772.605c-.857-3.024-3.477-4.738-7.257-4.738-3.579 0-5.948 1.764-5.948 4.486 0 2.016 1.412 3.326 4.184 3.83l4.586.807c3.629.655 5.14 1.21 6.4 2.47 1.26 1.159 1.866 2.62 1.866 4.535 0 4.839-3.932 7.762-10.383 7.762-3.326 0-5.745-.706-7.71-2.268-1.614-1.31-2.42-2.671-3.126-5.292z" mask="url(#d)"/>
        <g mask="url(#d)">
            <path fill="#86C1EE" d="M331.063 250.336c-6.516 0-13.904 5.14-20.64 10.281-6.739 5.14-12.826 10.28-16.743 10.28-.726 0-1.377-.177-1.945-.563-3.385-2.308-3.323-7.535-.154-13.064-30.426 18.346-50.771 51.676-50.771 89.75 0 57.872 46.992 104.78 104.952 104.78 4.563 0 9.06-.291 13.47-.856-.482-1.574.897-4.686-.285-8.05-2.375-6.77-15.255-11.839-16.272-17.584-1.01-5.762 15.94-5.762-7.444-16.253-23.39-10.492-31.536-16.898-35.247-27.73-2.792-8.149-5.425-19.297-7.79-19.297-2.38 0-1.363 5.85-3.156 7.114-.554.397-1.075.58-1.562.58-4.202 0-5.851-13.684-4.469-22.1 1.351-8.23 5.79-16.748 8.502-20.257 4.45-5.757 7.768-8.575 1.47-22.215-6.118-13.252-5.914-21.34 2.937-25.68 1.914-.937 4.005-1.538 6.12-1.538 4.917 0 9.963 3.248 13.202 13.046 1.805 5.46 4.43 7.148 7.582 7.148 2.55 0 5.445-1.106 8.528-2.21 3.082-1.107 6.351-2.213 9.652-2.213 1.02 0 2.044.106 3.066.35 10.798 2.581 18.08 17.81 8.447 17.81-.132 0-.268-.002-.406-.008-10.239-.428-4.67-8.693-7.391-10.047a1.115 1.115 0 0 0-.503-.11c-1.978 0-6.15 3.984-9.258 11.32-4.224 9.967-.845 19.531 3.585 19.531 2.085 0 4.404-2.12 6.27-7.314.63-1.754 1.18-4.179 1.714-7.174.55-3.078 2.037-4.382 4.212-4.382 4.983 0 13.576 6.844 22.764 14.865 5.02 4.37 6.909 6.21 6.145 7.688-.227.439-.641.626-1.197.626-1.644 0-4.518-1.637-7.396-3.26-2.6-1.467-5.551-2.59-7.85-2.59-1.546 0-2.796.507-3.447 1.76-1.381 2.659.693 4.734 5.3 6.929 5.897 2.81 2.476 4.809-3.805 11.384-3.461 3.623-3.778 3.648-11.21 14.014-2.14 2.985-4.74 7.042-6.488 9.921-.744 1.227-1.596 1.655-2.48 1.655-1.298 0-2.665-.923-3.859-1.599-3.295-1.863-7.411-3.307-11.103-3.307-4.87 0-9 2.515-9.524 9.9-.393 5.628.563 7.165 2.206 7.165.99 0 2.227-.557 3.568-1.114 1.342-.557 2.787-1.114 4.192-1.114.887 0 1.759.222 2.577.808 5.93 4.241-2.033 7.333 10.85 16.907 3.168 2.355 5.076 3.272 6.775 3.272 1.985 0 3.683-1.253 6.769-2.927 5.536-3.006 8.626-4.227 11.63-4.227 3.064 0 6.037 1.27 11.421 3.213 14.05 5.068 16.935 6.769 28.13 7.445 1.099.067 2.144.09 3.135.09 1.268 0 2.444-.039 3.517-.078 1.072-.039 2.041-.078 2.898-.078 4.42 0 5.85 1.044 2.977 8.52-3.335 8.73-18.01 18.25-32.638 24.846 34.933-13.9 60.635-45.998 65.344-84.565-1.04 1.437-2.367 2.062-3.835 2.062-5.774 0-13.727-9.68-14.92-17.688-1.98-13.282-.687-26.063-7.324-26.784-6.784-.736-7.015-3.738-9.895-10.47-3.58-8.364-8.872-19.915-22.926-27.139-23.043-11.838-11.857-15.222-22.81-24.066-3.348-2.712-6.318-3.507-9.246-3.507-2.072 0-4.124.398-6.272.797-2.148.398-4.394.796-6.856.796-2.968 0-6.25-.579-10.056-2.434-1.506-.734-3.092-1.06-4.734-1.06m46.05 61.513c-1.388 0-2.957-.24-4.603-.774-6.055-1.962-9.642-8.161-12.08-14.2-3.457-8.558-15.375-6.702-19.035-10.356-3.67-3.679 3.039-7.736 9.023-8.892 1.796-.347 3.454-.541 5.076-.541 4.494 0 8.708 1.487 14.812 5.319 11.165 7.007 3.494 15.73 5.108 19.426.637 1.462 4.306 2.662 5.597 3.94 3.398 3.36.776 6.078-3.898 6.078"/>
            <g transform="translate(240.81 241.436)">
                <mask id="f" fill="#fff">
                    <use xlink:href="#e"/>
                </mask>
                <path fill="#E7F2FB" d="M61.4 36.043c-2.12 0-4.215.602-6.133 1.542-8.872 4.348-9.076 12.453-2.943 25.733 6.312 13.668 2.986 16.492-1.475 22.262-2.717 3.515-7.167 12.053-8.52 20.3-1.386 8.432.267 22.146 4.478 22.146.489 0 1.01-.184 1.566-.582 1.797-1.267.778-7.129 3.163-7.129 2.372 0 5.01 11.172 7.808 19.338 3.72 10.854 11.884 17.274 35.328 27.788 23.438 10.513 6.448 10.513 7.46 16.288 1.02 5.757 13.93 10.836 16.31 17.62 1.184 3.372-.198 6.49.286 8.068.011.037.025.074.038.109a104.746 104.746 0 0 0 22.516-5.419c.952-.405 1.908-.823 2.864-1.254 14.661-6.61 29.37-16.15 32.713-24.899 2.88-7.49 1.446-8.537-2.983-8.537-.86 0-1.83.04-2.906.079a95.692 95.692 0 0 1-3.525.078c-.992 0-2.04-.023-3.142-.09-11.22-.678-14.111-2.383-28.194-7.462-5.396-1.947-8.376-3.22-11.446-3.22-3.011 0-6.109 1.225-11.658 4.238-3.092 1.677-4.795 2.932-6.784 2.932-1.703 0-3.615-.919-6.791-3.279-12.912-9.594-4.931-12.692-10.874-16.942-.82-.587-1.694-.81-2.583-.81-1.408 0-2.856.557-4.2 1.116-1.346.558-2.586 1.116-3.578 1.116-1.646 0-2.605-1.54-2.211-7.18.525-7.4 4.665-9.92 9.546-9.92 3.7 0 7.826 1.447 11.128 3.314 1.197.677 2.567 1.603 3.867 1.603.887 0 1.74-.43 2.487-1.659 1.751-2.885 4.358-6.951 6.503-9.942 7.449-10.387 7.766-10.413 11.235-14.044 6.296-6.589 9.725-8.592 3.814-11.408-4.618-2.2-6.697-4.28-5.313-6.944.653-1.254 1.907-1.764 3.455-1.764 2.304 0 5.263 1.126 7.869 2.596 2.884 1.626 5.765 3.267 7.412 3.267.558 0 .973-.188 1.2-.627.766-1.48-1.127-3.325-6.158-7.704-9.21-8.038-17.822-14.896-22.817-14.896-2.18 0-3.67 1.306-4.221 4.39-.536 3.002-1.086 5.432-1.718 7.19-1.871 5.205-4.195 7.33-6.284 7.33-4.44 0-7.828-9.585-3.593-19.573 3.115-7.35 7.296-11.343 9.278-11.343.19 0 .358.036.504.11 2.727 1.357-2.854 9.639 7.408 10.068.138.006.275.009.407.009 9.655 0 2.357-15.262-8.466-17.848a13.181 13.181 0 0 0-3.073-.351c-3.308 0-6.586 1.108-9.675 2.216-3.09 1.108-5.99 2.216-8.547 2.216-3.158 0-5.79-1.691-7.6-7.163-3.246-9.82-8.303-13.073-13.231-13.073" mask="url(#f)"/>
            </g>
            <g transform="translate(240.81 241.436)">
                <mask id="h" fill="#fff">
                    <use xlink:href="#g"/>
                </mask>
                <path fill="#E7F2FB" d="M105.408.132c-19.921 0-38.548 5.52-54.435 15.113l-.051.09c-3.176 5.54-3.238 10.778.154 13.092.569.387 1.222.564 1.95.564 3.926 0 10.027-5.15 16.78-10.302 6.752-5.15 14.157-10.302 20.689-10.302 1.645 0 3.234.327 4.745 1.063 3.813 1.859 7.103 2.44 10.078 2.44 2.468 0 4.719-.4 6.872-.8 2.153-.398 4.209-.798 6.286-.798 2.934 0 5.912.797 9.268 3.515 10.978 8.862-.234 12.254 22.862 24.117 14.086 7.239 19.39 18.814 22.978 27.196 2.886 6.746 3.118 9.753 9.918 10.491 6.65.722 5.355 13.53 7.34 26.84 1.195 8.027 9.167 17.726 14.955 17.726 1.471 0 2.802-.627 3.844-2.066a7.09 7.09 0 0 0 .365-.56c.473-4.037.715-8.143.715-12.306C210.72 47.19 163.568.132 105.408.132" mask="url(#h)"/>
            </g>
            <g transform="translate(240.81 241.436)">
                <mask id="j" fill="#fff">
                    <use xlink:href="#i"/>
                </mask>
                <path fill="#E7F2FB" d="M114.98 35.193c-1.625 0-3.287.194-5.087.542-5.998 1.159-12.721 5.225-9.044 8.91 3.67 3.664 15.615 1.803 19.079 10.38 2.444 6.05 6.04 12.263 12.108 14.23 1.65.534 3.222.774 4.613.774 4.686 0 7.313-2.724 3.907-6.09-1.294-1.281-4.97-2.484-5.61-3.95-1.617-3.703 6.071-12.443-5.118-19.466-6.118-3.84-10.342-5.33-14.847-5.33" mask="url(#j)"/>
            </g>
            <g>
                <path fill="#EFC100" d="M284.218 234.666c.051-.13.1-.123.108.017l.25 4.19c.009.14.128.282.264.317l2.59.653c.136.035.152.126.033.202l-2.13 1.375a.46.46 0 0 0-.19.393l.327 3.23c.013.14-.04.158-.12.042l-1.863-2.731c-.079-.116-.214-.12-.3-.008l-1.986 2.608c-.086.111-.143.088-.127-.05l.463-4.082a.647.647 0 0 0-.143-.443l-1.507-1.663c-.095-.104-.058-.174.082-.155l2.338.315a.344.344 0 0 0 .347-.204l1.564-4.006zM226.027 309.624c.042-.108.083-.102.09.014l.208 3.474a.309.309 0 0 0 .219.263l2.146.542c.114.029.126.104.028.167l-1.766 1.14a.382.382 0 0 0-.157.326l.27 2.677c.011.117-.032.133-.098.036l-1.546-2.264c-.065-.097-.176-.1-.247-.007l-1.649 2.162c-.07.093-.117.074-.104-.042l.383-3.383a.533.533 0 0 0-.118-.367l-1.25-1.38c-.078-.086-.047-.144.069-.128l1.938.26a.283.283 0 0 0 .287-.168l1.297-3.322zM220.194 289.468c.05-.13.098-.121.107.017l.247 4.133a.368.368 0 0 0 .26.313l2.555.644c.135.035.15.124.033.2l-2.102 1.355a.454.454 0 0 0-.186.388l.32 3.186c.014.138-.038.157-.116.042l-1.839-2.694c-.078-.114-.21-.118-.294-.008l-1.961 2.572c-.084.11-.14.088-.124-.05l.456-4.025a.64.64 0 0 0-.141-.437l-1.487-1.64c-.093-.103-.057-.172.08-.153l2.307.31a.338.338 0 0 0 .342-.201l1.543-3.952zM213.237 316.235c.081-.207.158-.196.172.027l.396 6.625c.013.221.2.448.417.502l4.095 1.034c.216.054.24.197.054.318l-3.37 2.174a.728.728 0 0 0-.299.622l.515 5.107c.022.221-.062.252-.188.068l-2.947-4.319c-.125-.184-.338-.19-.473-.012l-3.143 4.122c-.135.177-.225.141-.2-.08l.732-6.452a1.022 1.022 0 0 0-.226-.702l-2.383-2.63c-.15-.165-.091-.275.13-.245l3.696.498c.221.03.468-.115.549-.322l2.473-6.335zM207.489 295.428c.08-.207.157-.196.171.027l.397 6.625c.013.222.2.448.416.502l4.096 1.034c.216.054.24.197.052.318l-3.368 2.174a.728.728 0 0 0-.3.622l.515 5.108c.023.22-.061.25-.187.067l-2.948-4.319c-.125-.184-.337-.19-.473-.012l-3.143 4.123c-.135.176-.224.14-.2-.08l.733-6.453a1.021 1.021 0 0 0-.227-.7l-2.383-2.632c-.15-.164-.09-.275.13-.245l3.697.499c.22.03.468-.116.548-.323l2.474-6.335zM196.595 256.996c.056-.162.116-.156.133.015l.504 5.095c.016.17.168.339.336.375l3.188.674c.168.036.19.146.05.244l-2.532 1.777a.56.56 0 0 0-.212.487l.55 3.922c.023.17-.04.196-.143.057l-2.401-3.241c-.102-.138-.267-.136-.365.005l-2.3 3.27c-.098.141-.168.116-.155-.055l.37-4.996a.79.79 0 0 0-.195-.533l-1.916-1.956c-.12-.123-.077-.21.093-.194l2.865.275a.417.417 0 0 0 .413-.265l1.717-4.956zM176.945 248.077c.072-.21.15-.2.172.02l.653 6.606c.022.221.218.44.435.485l4.133.875c.218.046.247.189.065.317l-3.282 2.302a.726.726 0 0 0-.275.632l.713 5.084c.03.22-.053.254-.185.075l-3.113-4.202c-.132-.179-.345-.176-.473.006l-2.98 4.241c-.129.182-.22.15-.203-.072l.481-6.476a1.026 1.026 0 0 0-.253-.693l-2.484-2.536c-.156-.159-.102-.271.12-.25l3.714.355a.542.542 0 0 0 .535-.343l2.227-6.426zM200.37 228.974c.056-.215.134-.212.174.006l1.198 6.53c.04.218.253.42.474.448l4.19.532c.222.028.263.168.091.31l-3.08 2.565a.727.727 0 0 0-.221.652l1.13 5.008c.049.217-.031.258-.179.09l-3.448-3.932c-.148-.168-.36-.147-.472.045l-2.62 4.471c-.113.192-.206.167-.208-.055l-.055-6.494a1.02 1.02 0 0 0-.31-.669l-2.685-2.323c-.168-.146-.124-.263.099-.26l3.73.05a.541.541 0 0 0 .506-.386l1.687-6.588z"/>
                <g transform="translate(283.461 213.118)">
                    <mask id="l" fill="#fff">
                        <use xlink:href="#k"/>
                    </mask>
                    <path fill="#EFC100" d="M7.21.631c.08-.207.157-.195.17.027l.398 6.626c.013.222.2.448.416.502L12.29 8.82c.215.054.24.197.052.318l-3.368 2.175a.725.725 0 0 0-.3.62l.515 5.108c.022.221-.062.251-.187.068l-2.948-4.32c-.125-.183-.338-.189-.473-.012l-3.143 4.124c-.135.176-.224.14-.2-.08l.733-6.454a1.021 1.021 0 0 0-.227-.7L.361 7.037C.21 6.872.27 6.76.49 6.79l3.697.498c.22.03.467-.115.548-.322L7.21.63z" mask="url(#l)"/>
                </g>
                <path fill="#EFC100" d="M494.273 299.877c.054-.14.106-.132.115.018l.27 4.48c.008.15.135.304.281.34l2.77.7c.146.036.162.133.036.215l-2.278 1.47a.49.49 0 0 0-.203.42l.348 3.456c.015.15-.043.17-.127.045l-1.993-2.92c-.085-.125-.23-.129-.32-.009l-2.126 2.788c-.091.12-.152.096-.136-.053l.495-4.365a.687.687 0 0 0-.152-.474l-1.613-1.78c-.1-.11-.06-.185.089-.165l2.5.336a.366.366 0 0 0 .371-.217l1.673-4.285zM478.062 311.902c.08-.207.158-.194.171.027l.396 6.626a.59.59 0 0 0 .418.502l4.095 1.034c.216.054.24.198.053.318l-3.37 2.174a.729.729 0 0 0-.298.622l.515 5.107c.022.221-.063.252-.188.068l-2.947-4.319c-.126-.184-.338-.19-.473-.012l-3.143 4.123c-.135.176-.225.14-.2-.08l.732-6.454a1.02 1.02 0 0 0-.227-.7l-2.383-2.63c-.15-.165-.09-.276.13-.246l3.697.498a.542.542 0 0 0 .548-.322l2.474-6.336zM494.744 320.212c.055-.142.107-.133.116.018l.271 4.517c.01.151.137.306.284.342l2.792.705c.147.037.164.135.036.217l-2.297 1.483a.498.498 0 0 0-.204.423l.35 3.482c.017.151-.04.172-.126.046l-2.01-2.944c-.085-.125-.23-.129-.323-.008l-2.143 2.81c-.091.121-.152.097-.135-.054l.499-4.4a.696.696 0 0 0-.155-.478l-1.625-1.793c-.101-.112-.061-.187.088-.167l2.522.34a.37.37 0 0 0 .373-.22l1.687-4.32zM499.635 236.972c.082-.207.159-.196.172.027l.396 6.625c.014.222.201.448.418.502l4.094 1.034c.217.054.24.197.054.318l-3.37 2.175a.726.726 0 0 0-.299.621l.516 5.108c.022.22-.063.25-.188.067l-2.947-4.319c-.126-.183-.338-.19-.474-.012l-3.143 4.123c-.134.177-.224.14-.2-.08l.733-6.453a1.018 1.018 0 0 0-.227-.7l-2.383-2.632c-.15-.164-.091-.275.13-.245l3.697.499a.542.542 0 0 0 .548-.323l2.473-6.335zM265.709 223.779c.065-.273.163-.27.218.003l1.656 8.207c.056.274.33.524.608.554l5.296.579c.28.03.334.205.122.388l-3.827 3.302a.917.917 0 0 0-.265.827l1.537 6.29c.066.272-.034.325-.222.117l-4.438-4.881c-.188-.208-.454-.177-.592.066l-3.204 5.697c-.138.244-.256.215-.264-.065l-.215-8.187a1.292 1.292 0 0 0-.405-.836l-3.437-2.87c-.216-.18-.162-.328.12-.33l4.704-.02c.28-.002.563-.226.628-.498l1.98-8.343zM449.443 267.996c.058-.148.112-.14.122.018l.283 4.723a.42.42 0 0 0 .297.358l2.919.736c.154.039.17.141.038.227l-2.401 1.55a.517.517 0 0 0-.214.443l.367 3.64c.016.158-.044.18-.134.049l-2.1-3.079c-.09-.13-.241-.134-.338-.009l-2.24 2.939c-.095.126-.16.1-.143-.057l.522-4.6a.726.726 0 0 0-.16-.499l-1.699-1.875c-.107-.117-.065-.196.092-.175l2.635.355a.385.385 0 0 0 .391-.23l1.763-4.514z"/>
                <g transform="translate(155.7 308.638)">
                    <mask id="n" fill="#fff">
                        <use xlink:href="#m"/>
                    </mask>
                    <path fill="#EFC100" d="M4.94.708c.058-.147.113-.139.122.019l.283 4.723a.42.42 0 0 0 .297.358l2.919.736c.154.039.17.141.038.227l-2.401 1.55a.517.517 0 0 0-.214.443l.367 3.64c.016.158-.044.18-.134.048l-2.1-3.078c-.089-.13-.241-.135-.337-.009l-2.24 2.939c-.096.126-.16.1-.143-.057l.522-4.6a.726.726 0 0 0-.16-.499l-1.7-1.875c-.107-.117-.065-.196.092-.174l2.636.354a.385.385 0 0 0 .39-.229L4.94.708z" mask="url(#n)"/>
                </g>
                <path fill="#FFF" d="M228.658 272.275c-1.254-3.683 2.337-5.253 6.901-6.798 4.564-1.544 8.373-2.478 9.626 1.205 1.255 3.682-1.429 7.92-5.993 9.465-4.562 1.544-9.28-.19-10.534-3.872"/>
                <path fill="#FFF" d="M210.474 273.966c-1.38-4.051 8.284-10.983 21.584-15.485 13.299-4.5 25.2-4.865 26.58-.813 1.38 4.05-8.284 10.984-21.584 15.484-13.3 4.5-25.2 4.866-26.58.814"/>
                <path fill="#66A0CF" d="M242.46 258.68c1.255 3.683-2.337 5.253-6.9 6.797-4.564 1.545-8.374 2.478-9.627-1.204-1.255-3.682 1.429-7.92 5.993-9.465 4.563-1.545 9.28.19 10.534 3.872"/>
                <path stroke="#FFF" stroke-width="1.73" d="M242.46 258.68c1.255 3.683-2.337 5.253-6.9 6.797-4.564 1.545-8.374 2.478-9.627-1.204-1.255-3.682 1.429-7.92 5.993-9.465 4.563-1.545 9.28.19 10.534 3.872z"/>
            </g>
        </g>
    </g>
</svg>
