<svg xmlns="http://www.w3.org/2000/svg" viewBox="0 0 55 55"><defs><style>.cls-1{isolation:isolate;}.cls-10,.cls-11,.cls-12,.cls-13,.cls-2,.cls-9{fill:#fff;}.cls-3{fill:#e5f4fd;}.cls-4{opacity:0.26;}.cls-5{fill:#68b5eb;}.cls-6{fill:#6fc57c;}.cls-7{fill:#a8e0b2;}.cls-8{fill:#89d194;}.cls-9{opacity:0.44;}.cls-10{opacity:0.53;}.cls-11{opacity:0.64;}.cls-12{opacity:0.61;}.cls-13{opacity:0.55;}.cls-14,.cls-17{fill:#f9e699;}.cls-14{opacity:0.52;}.cls-15{opacity:0.6;mix-blend-mode:multiply;}.cls-16{fill:none;stroke:#fff;stroke-linecap:round;stroke-miterlimit:10;stroke-width:0.56px;}.cls-18{fill:#cbecd1;}.cls-19{fill:#fa8db5;}</style></defs><title>4-es-page</title><g class="cls-1"><g id="Layer_2" data-name="Layer 2"><rect class="cls-2" x="-8.75" y="-5.5" width="70.67" height="71"/><path class="cls-3" d="M54.1,27.51a26,26,0,0,1-.5,5.11q-.07.42-.18.84-.14.59-.3,1.17a26.59,26.59,0,0,1-51.24,0q-.17-.59-.3-1.17-.11-.42-.18-.84a26,26,0,0,1-.5-5.11,26.6,26.6,0,1,1,53.2,0Z"/><path class="cls-2" d="M22.83,5.31s.37,0,1-.07,1.57-.06,2.68,0,2.41.13,3.79.31c.69.1,1.4.2,2.12.34s1.45.28,2.17.47a33.1,33.1,0,0,1,4.16,1.31,17.19,17.19,0,0,1,1.85.79c.58.27,1.13.52,1.61.8s.93.52,1.32.75l1,.66.83.59-.91-.46-1-.54c-.41-.18-.87-.38-1.37-.62S41,9.18,40.39,9s-1.21-.45-1.86-.67-1.32-.43-2-.64-1.4-.39-2.1-.57S33,6.75,32.29,6.59l-2.08-.4c-1.35-.22-2.62-.43-3.72-.54C24.31,5.38,22.83,5.31,22.83,5.31Z"/><g class="cls-4"><path class="cls-5" d="M54.41,38.15c0,.22-.15.3-.45.34s-27,2.54-27,2.54a2,2,0,0,1-.49,0L13,36.45c-.06,0,.06-.64.06-.64l23-2.39a1.64,1.64,0,0,1,.5,0L54,37.77C54.25,37.84,54.41,37.92,54.41,38.15Z"/></g><path class="cls-5" d="M22,3.46s-.41,1.8-.53,2.14-.61.59-1.53.51S12.35,4.37,11.26,4s-.77-.84-.08-1.16,1.13-.28,3.14.29,5.91,1.55,5.91,1.55.87-1,1.06-1.22C21.65,3,22,3.07,22,3.46Z"/><path class="cls-5" d="M14.87,3.64S18,2.18,18.64,1.84a.94.94,0,0,1,.66-.12c.11,0,.29.23,0,.5L16.86,4.5Z"/><path class="cls-5" d="M16,4.48s1.18,3,1.44,3.72c.11.31.15.58-.12.65s-.6-.25-.86-.59-3-4.28-3-4.28Z"/><path class="cls-6" d="M46.42,15.7l-1.8,1.74V37.68l-31.14,2.8-1.06,1.89-2.31-2a.31.31,0,0,1-.09-.21V16.95a.35.35,0,0,1,.3-.35L44,13.71a.25.25,0,0,1,.21.07Z"/><path class="cls-7" d="M46.11,39.35l-33.68,3V19.06a.35.35,0,0,1,.31-.34l33.68-3V39A.35.35,0,0,1,46.11,39.35Z"/><path class="cls-8" d="M25,16.28H23.53V13a.72.72,0,0,1,.66-.72l7.7-.69a.74.74,0,0,1,.55.19.72.72,0,0,1,.23.53v3.13H31.23V13.13L25,13.69Z"/><polygon class="cls-9" points="11.86 36.19 10.03 36.74 10.03 33.12 10.86 32.87 11.86 36.19"/><rect class="cls-10" x="32.63" y="30.59" width="10.52" height="5.56" rx="0.16" ry="0.16" transform="translate(-8.01 12.35) rotate(-16.76)"/><polygon class="cls-11" points="20.1 30.29 23.4 32.88 22.8 37.04 18.9 38.6 15.6 36 16.2 31.85 20.1 30.29"/><path class="cls-12" d="M32.35,27l-.41.54-.74,1-.85,1.13-.74,1-.62.81a.47.47,0,0,1-.65.08L28,31.27l-.88-.66L26.35,30l-.89-.68-.75-.57-.78-.59a.47.47,0,0,1-.09-.65l.83-1.09.73-1,.87-1.13.73-1,.2-.26a.45.45,0,0,1,.65-.09h0l.76.59.89.67.75.58.89.67.75.58.35.26A.47.47,0,0,1,32.35,27Z"/><circle class="cls-13" cx="42.55" cy="20.62" r="2.39"/><path class="cls-14" d="M11.92,24.14A2.38,2.38,0,0,1,10,26.48V21.81A2.38,2.38,0,0,1,11.92,24.14Z"/><g class="cls-15"><path class="cls-6" d="M36.84,19.38l-1.68.11-.9,1.21v6.52l3.5-.23V20.47ZM36,20.92a.41.41,0,0,1-.45-.41A.49.49,0,0,1,36,20a.41.41,0,0,1,.44.42A.47.47,0,0,1,36,20.92Z"/><path class="cls-6" d="M36,16.31a.41.41,0,0,1,.27.38v3.58a.26.26,0,0,1-.27.22.24.24,0,0,1-.26-.22v-3.2a.41.41,0,0,0-.27-.38L32,15.42v-.57Z"/></g><path class="cls-16" d="M32.73,15.07s-1,.47-1.62-.07"/><path class="cls-17" d="M37.75,19.42,36,19.53,35,20.8v6.82l3.66-.24V20.56ZM36.88,21a.43.43,0,0,1-.47-.43.52.52,0,0,1,.47-.5.43.43,0,0,1,.46.44A.49.49,0,0,1,36.88,21Z"/><path class="cls-2" d="M36.86,16.29a.43.43,0,0,1,.28.4v3.74a.27.27,0,0,1-.29.23.25.25,0,0,1-.28-.23V17.09a.43.43,0,0,0-.28-.4l-3.62-1.33v-.6Z"/><circle class="cls-18" cx="36.57" cy="33.76" r="1.81" transform="translate(-6.8 9.34) rotate(-13.33)"/><circle class="cls-18" cx="39.09" cy="33.16" r="1.81" transform="translate(-6.59 9.9) rotate(-13.33)"/><circle class="cls-18" cx="28.09" cy="27.29" r="1.81" transform="translate(-5.53 7.21) rotate(-13.33)"/><path class="cls-19" d="M22.09,20.46a2.34,2.34,0,0,0-2,1.71,2.31,2.31,0,0,0-2-1.71,2,2,0,0,0-2,2.62c.36,1.2,2,2.41,2.78,3.28A7.41,7.41,0,0,1,20,28.15a0,0,0,0,0,0,0,7.4,7.4,0,0,1,1.19-1.79c.76-.88,2.42-2.09,2.78-3.28A2,2,0,0,0,22.09,20.46Z"/></g></g></svg>