<svg xmlns="http://www.w3.org/2000/svg" viewBox="0 0 55 55"><defs><style>.cls-1{isolation:isolate;}.cls-2{fill:#fff;}.cls-3{fill:#e5f4fd;}.cls-4{fill:#94d79f;}.cls-5{fill:#fafdff;}.cls-6{fill:#fa8db5;}.cls-7{opacity:0.43;mix-blend-mode:multiply;}.cls-8{fill:#68b5eb;}.cls-9{fill:none;stroke:#f2cd33;stroke-linecap:round;stroke-miterlimit:10;stroke-width:0.3px;}.cls-10{fill:#f9679c;}.cls-11{fill:#f2cd33;}</style></defs><title>4-es-page</title><g class="cls-1"><g id="Layer_2" data-name="Layer 2"><rect class="cls-2" x="-12.5" y="-7" width="80.67" height="71.83"/><circle class="cls-3" cx="27.5" cy="27.5" r="26.6"/><circle class="cls-4" cx="27.5" cy="27.5" r="23.25"/><circle class="cls-5" cx="27.5" cy="27.5" r="17.52"/><circle class="cls-4" cx="27.5" cy="27.5" r="11.98"/><circle class="cls-5" cx="27.5" cy="27.5" r="6.75"/><circle class="cls-6" cx="27.5" cy="27.5" r="1.84"/><g class="cls-7"><path class="cls-8" d="M27.56,27.54a.16.16,0,0,1,0-.16.15.15,0,0,1,.21-.05L38,33.3a.18.18,0,0,1,.08.22.15.15,0,0,1-.21.05l-10.28-6Z"/><path class="cls-8" d="M47.37,39.86,32.84,31.22a2.67,2.67,0,0,1,.61-1L47.9,38.78a.7.7,0,0,1,.31.87A.57.57,0,0,1,47.37,39.86Z"/><path class="cls-8" d="M32.84,31.22l-2-1.19a.67.67,0,0,1-.24-.23.66.66,0,0,1-.08-.65.57.57,0,0,1,.84-.2l2.1,1.26A2.67,2.67,0,0,0,32.84,31.22Z"/><path class="cls-8" d="M41.51,35.71s5-2.41,7.88,0-1.09,4.2-1.09,4.2Z"/><path class="cls-8" d="M41.51,35.71s.69,5.92,4.06,7.38S48.3,39.9,48.3,39.9Z"/></g><line class="cls-9" x1="36.69" y1="22.23" x2="27.59" y2="27.34"/><path class="cls-10" d="M45.73,18.07l-13,7.13a3,3,0,0,1-.48-1.07L45.16,17a.59.59,0,0,1,.57,1Z"/><path class="cls-11" d="M32.72,25.2l-1.79,1a.51.51,0,0,1-.28.07.59.59,0,0,1-.52-.3.58.58,0,0,1,.22-.8l1.89-1A3,3,0,0,0,32.72,25.2Z"/><path class="cls-10" d="M40,20.58s.44-5.46,3.54-6.49,2.66,3.25,2.66,3.25Z"/><path class="cls-6" d="M40,20.58s4.74,2.74,7.35.78-1.16-4-1.16-4Z"/></g></g></svg>