<svg xmlns="http://www.w3.org/2000/svg" viewBox="0 0 55 55"><defs><style>.cls-1{fill:#fff;}.cls-2{fill:#e5f4fd;}.cls-3{fill:#9acdf1;}.cls-4{fill:#0d83dd;}.cls-5{fill:none;stroke:#e5f4fd;stroke-linecap:round;stroke-miterlimit:10;stroke-width:0.77px;}.cls-6{fill:#94d79f;}</style></defs><title>4-es-page</title><g id="Layer_2" data-name="Layer 2"><rect class="cls-1" x="-6.51" y="-5.58" width="71.45" height="71"/><path class="cls-2" d="M54.1,27.51a26,26,0,0,1-.5,5.11q-.07.42-.18.84-.14.59-.3,1.17a26.59,26.59,0,0,1-51.24,0q-.17-.59-.3-1.17-.11-.42-.18-.84a26,26,0,0,1-.5-5.11,26.6,26.6,0,1,1,53.2,0Z"/><path class="cls-3" d="M28.64,37.07,9.42,38.41c-1.25.09-1.25.06-1.09-1.15L11,13.12,33.48,16.3Z"/><rect class="cls-1" x="12.21" y="11.66" width="32.83" height="32.33" transform="matrix(1, -0.07, 0.07, 1, -1.89, 2.09)"/><path class="cls-4" d="M17.89,9a1.63,1.63,0,0,0-1.3-.37c-1.28.21-2.13,2-2,4.23,0,.07,0,.13,0,.2L16,13c0-.07,0-.13,0-.2-.11-1.62.47-2.72.82-2.77a.3.3,0,0,1,.22.09,3.33,3.33,0,0,1,.83,2.24A3.28,3.28,0,0,1,17.13,15a.69.69,0,1,0,.7,1.19c1-.58,1.54-2.19,1.41-4A4.55,4.55,0,0,0,17.89,9Z"/><path class="cls-4" d="M25.28,8.46A1.62,1.62,0,0,0,24,8.09c-1.28.21-2.13,2-2,4.23,0,.07,0,.13,0,.2l1.38-.1c0-.07,0-.13,0-.2-.11-1.62.47-2.72.82-2.77a.3.3,0,0,1,.22.09,3.33,3.33,0,0,1,.83,2.24,3.28,3.28,0,0,1-.74,2.74.69.69,0,1,0,.7,1.19c1-.58,1.54-2.19,1.41-4A4.55,4.55,0,0,0,25.28,8.46Z"/><path class="cls-4" d="M32.67,7.94a1.63,1.63,0,0,0-1.3-.37c-1.28.21-2.13,2-2,4.23,0,.07,0,.13,0,.2l1.38-.1c0-.07,0-.13,0-.2-.11-1.62.47-2.72.82-2.77a.3.3,0,0,1,.22.09,3.33,3.33,0,0,1,.83,2.24A3.28,3.28,0,0,1,31.92,14a.69.69,0,1,0,.7,1.19c1-.58,1.54-2.19,1.41-4A4.55,4.55,0,0,0,32.67,7.94Z"/><path class="cls-4" d="M40.06,7.41A1.63,1.63,0,0,0,38.76,7c-1.28.21-2.13,2-2,4.23,0,.07,0,.13,0,.2l1.38-.1c0-.07,0-.13,0-.2-.11-1.62.47-2.72.82-2.77a.3.3,0,0,1,.22.09A3.33,3.33,0,0,1,40,10.74a3.28,3.28,0,0,1-.74,2.74.69.69,0,1,0,.7,1.19c1-.58,1.54-2.19,1.41-4A4.55,4.55,0,0,0,40.06,7.41Z"/><line class="cls-5" x1="16.56" y1="23.98" x2="40.47" y2="22.55"/><line class="cls-5" x1="21.34" y1="20.05" x2="22.85" y2="40.23"/><line class="cls-5" x1="28.21" y1="19.57" x2="29.72" y2="39.75"/><line class="cls-5" x1="35.08" y1="19.08" x2="36.59" y2="39.26"/><line class="cls-5" x1="16.98" y1="29.96" x2="40.9" y2="28.53"/><line class="cls-5" x1="17.4" y1="35.94" x2="41.32" y2="34.51"/><path class="cls-6" d="M38.63,37.83c-.19.06-.58.27-.29.9A5.76,5.76,0,0,0,39,39.82c.36.52.68.31,1.13-.45A15.71,15.71,0,0,1,42,36.84a.51.51,0,0,0,0-.77c-.22-.21-.64,0-.84.15a5.82,5.82,0,0,0-1.53,2.28c-.07.17-.13.2-.23-.1C39.15,37.66,38.8,37.78,38.63,37.83Z"/><path class="cls-6" d="M31.3,38.35c-.19.06-.58.27-.29.9a5.76,5.76,0,0,0,.66,1.09c.36.52.68.31,1.13-.45a15.71,15.71,0,0,1,1.83-2.54.51.51,0,0,0,0-.77c-.22-.21-.64,0-.84.15A5.82,5.82,0,0,0,32.31,39c-.07.17-.13.2-.23-.1C31.82,38.18,31.48,38.3,31.3,38.35Z"/><path class="cls-6" d="M24.52,38.83c-.19.06-.58.27-.29.9a5.76,5.76,0,0,0,.66,1.09c.36.52.68.31,1.13-.45a15.71,15.71,0,0,1,1.83-2.54.51.51,0,0,0,0-.77c-.22-.21-.64,0-.84.15a5.82,5.82,0,0,0-1.53,2.28c-.07.17-.13.2-.23-.1C25,38.66,24.69,38.78,24.52,38.83Z"/><path class="cls-6" d="M17.19,39.35c-.19.06-.58.27-.29.9a5.76,5.76,0,0,0,.66,1.09c.36.52.68.31,1.13-.45a15.71,15.71,0,0,1,1.83-2.54.51.51,0,0,0,0-.77c-.22-.21-.64,0-.84.15A5.82,5.82,0,0,0,18.2,40c-.07.17-.13.2-.23-.1C17.71,39.18,17.37,39.3,17.19,39.35Z"/><path class="cls-6" d="M38.74,31c-.19.06-.58.27-.29.9A5.76,5.76,0,0,0,39.11,33c.36.52.68.31,1.13-.45A15.71,15.71,0,0,1,42.07,30a.51.51,0,0,0,0-.77c-.22-.21-.64,0-.84.15a5.82,5.82,0,0,0-1.53,2.28c-.07.17-.13.2-.23-.1C39.25,30.84,38.91,31,38.74,31Z"/><path class="cls-6" d="M31.41,31.53c-.19.06-.58.27-.29.9a5.76,5.76,0,0,0,.66,1.09c.36.52.68.31,1.13-.45a15.71,15.71,0,0,1,1.83-2.54.51.51,0,0,0,0-.77c-.22-.21-.64,0-.84.15a5.82,5.82,0,0,0-1.53,2.28c-.07.17-.13.2-.23-.1C31.92,31.36,31.58,31.47,31.41,31.53Z"/><path class="cls-6" d="M24.63,32c-.19.06-.58.27-.29.9A5.76,5.76,0,0,0,25,34c.36.52.68.31,1.13-.45A15.71,15.71,0,0,1,28,31a.51.51,0,0,0,0-.77c-.22-.21-.64,0-.84.15a5.82,5.82,0,0,0-1.53,2.28c-.07.17-.13.2-.23-.1C25.14,31.84,24.8,32,24.63,32Z"/><path class="cls-6" d="M17.3,32.53c-.19.06-.58.27-.29.9a5.76,5.76,0,0,0,.66,1.09c.36.52.68.31,1.13-.45a15.71,15.71,0,0,1,1.83-2.54.51.51,0,0,0,0-.77c-.22-.21-.64,0-.84.15a5.82,5.82,0,0,0-1.53,2.28c-.07.17-.13.2-.23-.1C17.81,32.36,17.47,32.47,17.3,32.53Z"/><path class="cls-6" d="M38.31,25c-.19.06-.58.27-.29.9a5.76,5.76,0,0,0,.66,1.09c.36.52.68.31,1.13-.45A15.71,15.71,0,0,1,41.64,24a.51.51,0,0,0,0-.77c-.22-.21-.64,0-.84.15a5.82,5.82,0,0,0-1.53,2.28c-.07.17-.13.2-.23-.1C38.82,24.79,38.48,24.9,38.31,25Z"/><path class="cls-6" d="M31,25.48c-.19.06-.58.27-.29.9a5.76,5.76,0,0,0,.66,1.09c.36.52.68.31,1.13-.45a15.71,15.71,0,0,1,1.83-2.54.51.51,0,0,0,0-.77c-.22-.21-.64,0-.84.15A5.82,5.82,0,0,0,32,26.14c-.07.17-.13.2-.23-.1C31.49,25.3,31.15,25.42,31,25.48Z"/><path class="cls-6" d="M24.2,26c-.19.06-.58.27-.29.9a5.76,5.76,0,0,0,.66,1.09c.36.52.68.31,1.13-.45A15.71,15.71,0,0,1,27.53,25a.51.51,0,0,0,0-.77c-.22-.21-.64,0-.84.15a5.82,5.82,0,0,0-1.53,2.28c-.07.17-.13.2-.23-.1C24.71,25.78,24.37,25.9,24.2,26Z"/><path class="cls-6" d="M16.87,26.47c-.19.06-.58.27-.29.9a5.76,5.76,0,0,0,.66,1.09c.36.52.68.31,1.13-.45a15.71,15.71,0,0,1,1.83-2.54.51.51,0,0,0,0-.77c-.22-.21-.64,0-.84.15a5.82,5.82,0,0,0-1.53,2.28c-.07.17-.13.2-.23-.1C17.38,26.3,17,26.42,16.87,26.47Z"/><path class="cls-6" d="M37.87,18.83c-.19.06-.58.27-.29.9a5.76,5.76,0,0,0,.66,1.09c.36.52.68.31,1.13-.45a15.71,15.71,0,0,1,1.83-2.54.51.51,0,0,0,0-.77c-.22-.21-.64,0-.84.15a5.82,5.82,0,0,0-1.53,2.28c-.07.17-.13.2-.23-.1C38.39,18.66,38,18.78,37.87,18.83Z"/><path class="cls-6" d="M30.54,19.35c-.19.06-.58.27-.29.9a5.76,5.76,0,0,0,.66,1.09c.36.52.68.31,1.13-.45a15.71,15.71,0,0,1,1.83-2.54.51.51,0,0,0,0-.77c-.22-.21-.64,0-.84.15A5.82,5.82,0,0,0,31.55,20c-.07.17-.13.2-.23-.1C31.06,19.18,30.72,19.3,30.54,19.35Z"/><path class="cls-6" d="M23.76,19.83c-.19.06-.58.27-.29.9a5.76,5.76,0,0,0,.66,1.09c.36.52.68.31,1.13-.45a15.71,15.71,0,0,1,1.83-2.54.51.51,0,0,0,0-.77c-.22-.21-.64,0-.84.15a5.82,5.82,0,0,0-1.53,2.28c-.07.17-.13.2-.23-.1C24.28,19.66,23.93,19.78,23.76,19.83Z"/><path class="cls-6" d="M16.43,20.35c-.19.06-.58.27-.29.9a5.76,5.76,0,0,0,.66,1.09c.36.52.68.31,1.13-.45a15.71,15.71,0,0,1,1.83-2.54.51.51,0,0,0,0-.77c-.22-.21-.64,0-.84.15A5.82,5.82,0,0,0,17.44,21c-.07.17-.13.2-.23-.1C16.95,20.18,16.61,20.3,16.43,20.35Z"/></g></svg>