<svg xmlns="http://www.w3.org/2000/svg" viewBox="0 0 55 55"><defs><style>.cls-1{fill:#fff;}.cls-2{fill:#e5f4fd;}.cls-3{fill:#fcb3cd;}.cls-4{fill:#efc100;}.cls-5{fill:#fa8db5;}</style></defs><title>4-es-page</title><g id="Layer_2" data-name="Layer 2"><rect class="cls-1" x="-9.5" y="-7" width="80.67" height="71.83"/><path class="cls-2" d="M54.1,27.54A26.6,26.6,0,0,1,37.8,52.07L45.67,39.7l.17-.27,4.56-7.17L36.5,28.89h0l-5.74,25a10.55,10.55,0,0,1-1.13.12l2-12.18,4-24.71H19.72v.15l3.93,24.56,2,12.2c-.48,0-1-.08-1.43-.15L21,34.89l0-.14-1.27-.35-6.34-1.75-.62-.17L6.71,34.89l10,17A26.61,26.61,0,1,1,54.1,27.54Z"/><path class="cls-3" d="M10.83,17.55a.24.24,0,0,0,.25,0L13.35,16c.07,0,.1,0,.07.06l-1.05,2.34a.2.2,0,0,0,.06.23l2.41,1.76c.07.05.06.09,0,.08l-2.86-.18a.19.19,0,0,0-.19.14l-.64,2.72c0,.08-.06.09-.09,0l-1-2.83a.21.21,0,0,0-.21-.13l-2.48.26c-.08,0-.1,0,0-.08l2-1.63a.26.26,0,0,0,.08-.25L8.72,16.1c0-.08,0-.11.08-.06Z"/><path class="cls-4" d="M20.06,9.64a.14.14,0,0,0,.15,0l1.34-.9s.06,0,0,0L21,10.16a.12.12,0,0,0,0,.14l1.43,1s0,.05,0,0l-1.69-.11a.11.11,0,0,0-.11.08L20.23,13s0,.05-.05,0l-.59-1.67a.12.12,0,0,0-.12-.08L18,11.39c-.05,0-.06,0,0,0l1.19-1a.15.15,0,0,0,0-.15l-.4-1.44s0-.06,0,0Z"/><path class="cls-4" d="M34,9.9a.14.14,0,0,0,.1.11l1.58.31s.05,0,0,.05l-1.42.54a.12.12,0,0,0-.07.12l.27,1.75c0,.05,0,.06,0,0l-1.12-1.27a.11.11,0,0,0-.14,0l-1.41.87s-.06,0,0,0l.77-1.6a.12.12,0,0,0,0-.14l-1.15-.93s0-.05,0,0l1.53.16A.15.15,0,0,0,33,9.71l.73-1.31s.05,0,.06,0Z"/><path class="cls-3" d="M44.42,17.55a.24.24,0,0,0,.25,0L46.93,16c.07,0,.1,0,.07.06l-1.05,2.34a.2.2,0,0,0,.06.23l2.41,1.76c.07.05.06.09,0,.08l-2.86-.18a.19.19,0,0,0-.19.14l-.64,2.72c0,.08-.06.09-.09,0l-1-2.83a.21.21,0,0,0-.21-.13l-2.48.26c-.08,0-.1,0,0-.08l2-1.63a.26.26,0,0,0,.08-.25L42.3,16.1c0-.08,0-.11.08-.06Z"/><path class="cls-4" d="M45.1,30.3a.45.45,0,0,0,.31.38l5,1.42c.16,0,.16.12,0,.16l-4.7,1.36a.38.38,0,0,0-.26.38l.42,5.69c0,.16-.06.19-.16.06l-3.27-4.38a.36.36,0,0,0-.44-.1l-4.75,2.43c-.15.07-.2,0-.11-.12L40,32.63a.39.39,0,0,0-.07-.46l-3.46-3.29c-.12-.11-.08-.18.08-.15l4.86.9a.49.49,0,0,0,.46-.19l2.7-4c.09-.14.17-.11.19.05Z"/><polygon class="cls-1" points="18.29 26.47 21.79 45.78 13.21 32.37 18.29 26.47"/><path class="cls-4" d="M13.36,29.25a.45.45,0,0,0,.48,0l4.32-2.89c.14-.09.19,0,.12.11l-2,4.46a.38.38,0,0,0,.12.45L21,34.75c.13.1.11.17-.06.16l-5.46-.34a.36.36,0,0,0-.36.27L13.89,40c0,.16-.11.16-.17,0l-1.89-5.4a.39.39,0,0,0-.39-.25l-4.74.5c-.16,0-.19-.05-.06-.16l3.83-3.12a.49.49,0,0,0,.15-.47l-1.3-4.65c0-.16,0-.21.16-.11Z"/><path class="cls-5" d="M29.3,16.55a.49.49,0,0,0,.42.32L35.4,17c.18,0,.2.08,0,.17l-4.61,2.7a.42.42,0,0,0-.18.47l2,5.91c.06.17,0,.22-.15.1l-4.64-3.76a.4.4,0,0,0-.49,0L23,26.48c-.13.12-.2.07-.15-.1l1.73-6a.43.43,0,0,0-.19-.47l-4.54-2.55c-.16-.09-.14-.17,0-.18l5.39-.35a.54.54,0,0,0,.43-.33l1.78-5c.06-.17.15-.17.21,0Z"/></g></svg>