<?xml version="1.0" encoding="UTF-8"?>
<svg width="111px" height="70px" viewBox="0 0 111 70" version="1.1" xmlns="http://www.w3.org/2000/svg" xmlns:xlink="http://www.w3.org/1999/xlink">
    <!-- Generator: Sketch 54.1 (76490) - https://sketchapp.com -->
    <title>Logo/Aon</title>
    <desc>Created with Sketch.</desc>
    <g id="Logo/Aon" stroke="none" stroke-width="1" fill="none" fill-rule="evenodd">
        <g id="Aon-logo" fill-rule="nonzero">
            <path d="M38.3342007,0 L44.7301115,45.9763314 L34.5791822,45.9763314 L30.0814126,13.8757396 L29.9576208,13.7928994 L22.3237918,28.4142012 L30.535316,28.4142012 L31.7732342,36.9467456 L17.8672862,36.9467456 L13.1219331,45.9763314 L1.81561338,45.9763314 L6.27211896,36.9467456 L0,36.9467456 L4.3739777,28.4142012 L10.7698885,28.4142012 L25.7074349,0 L38.3342007,0 Z M110.79368,10.6449704 L104.645353,45.9763314 L94.4944238,45.9763314 L86.8193309,28.2071006 C85.6639405,34.0887574 84.7148699,40.0946746 83.6832714,45.9763314 L73.4498141,45.9763314 C73.8211896,43.2840237 74.3576208,40.5088757 74.6052045,37.816568 C71.3040892,43.6568047 65.4033457,47.0946746 58.8011152,46.9704142 C53.9732342,46.9289941 48.1137546,43.8639053 45.4315985,39.9289941 L42.7907063,21.4556213 C45.1427509,15.2426036 51.5386617,10.4378698 58.0996283,9.89940828 C64.7843866,9.52662722 70.4788104,12.3431953 74.3576208,17.9349112 C75.7193309,19.964497 76.5033457,22.2426036 76.998513,24.6449704 L79.5156134,10.6449704 L89.460223,10.6449704 L97.3003717,28.4970414 C98.3732342,22.5739645 99.4460967,16.6094675 100.436431,10.6449704 L110.79368,10.6449704 Z M65.1144981,21.9940828 C63.133829,19.5088757 59.9565056,18.7218935 57.0267658,19.6745562 C54.5921933,20.3372781 52.6527881,23.0295858 51.8275093,25.2248521 C50.3832714,29.0769231 52.033829,34.3786982 54.6747212,35.9940828 C56.4903346,37.112426 58.5535316,37.6923077 60.6992565,37.0710059 C62.8449814,36.3668639 64.9907063,34.6272189 65.939777,32.4319527 C67.3840149,29.3668639 67.6315985,24.6863905 65.1144981,21.9940828 L65.1144981,21.9940828 Z" id="Shape" fill="#E02027"></path>
            <polygon id="Shape" fill="#010101" points="1.81561338 66.6863905 1.81561338 57.4911243 6.80855019 57.4911243 6.80855019 58.7751479 3.63122677 58.7751479 3.63122677 61.260355 6.76728625 61.260355 6.76728625 62.5029586 3.63122677 62.5029586 3.63122677 65.443787 7.34498141 65.443787 7.34498141 66.6863905"></polygon>
            <path d="M17.1657993,66.6863905 L17.1657993,62.9585799 C17.1657993,62.295858 17.1245353,61.964497 16.9594796,61.6745562 C16.7944238,61.3431953 16.4643123,61.1360947 16.0516729,61.1360947 C15.5565056,61.1360947 15.1438662,61.4260355 14.8962825,61.9230769 C14.7724907,62.1301775 14.7312268,62.4201183 14.7312268,63 L14.7312268,66.6863905 L12.9568773,66.6863905 L12.9568773,63 C12.9568773,62.3372781 12.9156134,62.0059172 12.7918216,61.7573964 C12.6267658,61.4260355 12.3379182,61.1775148 11.8840149,61.1775148 C11.2650558,61.1775148 10.8524164,61.5088757 10.6873606,62.0473373 C10.6048327,62.3372781 10.5635688,62.7100592 10.5635688,63.1656805 L10.5635688,66.7278107 L8.83048327,66.7278107 L8.83048327,60.183432 L10.5635688,60.183432 L10.5635688,61.1360947 C11.0174721,60.4319527 11.7189591,60.0177515 12.6267658,60.0177515 C13.5345725,60.0177515 14.1947955,60.3905325 14.5249071,61.2189349 C15.0200743,60.4319527 15.8040892,60.0177515 16.670632,60.0177515 C17.6197026,60.0177515 18.3211896,60.4319527 18.6513011,61.0946746 C18.8576208,61.5088757 18.9401487,61.8402367 18.9401487,62.8757396 L18.9401487,66.7278107 L17.1657993,66.7278107 L17.1657993,66.6863905 Z" id="Shape" fill="#010101"></path>
            <path d="M22.5301115,65.6923077 L22.5301115,69.9585799 L20.797026,69.9585799 L20.797026,60.1420118 L22.5301115,60.1420118 L22.5301115,61.1775148 C23.1078067,60.3905325 23.7680297,59.9763314 24.7583643,59.9763314 C26.4089219,59.9763314 27.6468401,61.3017751 27.6468401,63.2485207 C27.6468401,65.2366864 26.3263941,66.8106509 24.5520446,66.8106509 C23.7680297,66.852071 23.0665428,66.4792899 22.5301115,65.6923077 M25.8312268,63.3313609 C25.8312268,61.8402367 25.0884758,61.0118343 24.2219331,61.0118343 C23.3966543,61.0118343 22.5301115,61.7159763 22.5301115,63.4556213 C22.5301115,64.8224852 23.1078067,65.816568 24.1394052,65.816568 C25.2535316,65.816568 25.8312268,64.6153846 25.8312268,63.3313609" id="Shape" fill="#010101"></path>
            <path d="M28.6784387,63.3313609 C28.6784387,61.3017751 30.1639405,59.9349112 32.1446097,59.9349112 C34.0840149,59.9349112 35.5695167,61.3017751 35.5695167,63.3313609 C35.5695167,65.4852071 33.960223,66.8106509 32.1033457,66.8106509 C30.2877323,66.852071 28.6784387,65.5266272 28.6784387,63.3313609 M33.7951673,63.3727811 C33.7951673,61.7573964 33.0936803,60.887574 32.1446097,60.887574 C31.195539,60.887574 30.494052,61.7988166 30.494052,63.3727811 C30.494052,64.9881657 31.236803,65.9408284 32.1033457,65.9408284 C33.0524164,65.9408284 33.7951673,65.0295858 33.7951673,63.3727811" id="Shape" fill="#010101"></path>
            <polygon id="Shape" fill="#010101" points="44.1111524 66.6863905 42.8732342 66.6863905 41.2226766 62.295858 39.572119 66.6863905 38.3754647 66.6863905 36.064684 60.3076923 37.7977695 60.0177515 39.2007435 64.6153846 40.8925651 60.1420118 42.0479554 60.1420118 43.6572491 64.6153846 45.1427509 60.0177515 46.6282528 60.2248521"></polygon>
            <path d="M53.1892193,66.0650888 C52.3639405,66.6035503 51.4973978,66.852071 50.5895911,66.852071 C49.6817844,66.852071 48.9390335,66.6035503 48.3200743,66.1065089 C47.4947955,65.4852071 47.0821561,64.4497041 47.0821561,63.2899408 C47.0821561,62.2544379 47.4947955,61.3017751 48.2375465,60.6804734 C48.8152416,60.2248521 49.5167286,59.9763314 50.3832714,59.9763314 C51.3736059,59.9763314 52.0750929,60.3076923 52.5702602,60.9289941 C53.0241636,61.4674556 53.2304833,62.2544379 53.2304833,63.0828402 C53.2304833,63.2071006 53.2304833,63.3727811 53.2304833,63.5384615 L48.8977695,63.5384615 C48.9390335,64.8639053 49.6405204,65.6923077 50.9197026,65.6923077 C51.4973978,65.6923077 52.1163569,65.443787 52.6527881,65.112426 L53.1892193,66.0650888 Z M51.7037175,62.5029586 C51.7037175,61.5502959 51.2498141,60.8461538 50.3832714,60.8461538 C49.5579926,60.8461538 48.9802974,61.4674556 48.9390335,62.6686391 L51.7037175,62.6686391 L51.7037175,62.5029586 Z" id="Shape" fill="#010101"></path>
            <path d="M58.6773234,61.7988166 C58.3884758,61.591716 58.0583643,61.5502959 57.8520446,61.5502959 C57.3156134,61.5502959 56.902974,61.8816568 56.6966543,62.5443787 C56.5728625,62.8757396 56.5315985,63.2899408 56.5315985,64.035503 L56.5315985,66.6863905 L54.798513,66.6863905 L54.798513,60.1420118 L56.5315985,60.1420118 L56.5315985,61.4260355 C56.5728625,61.3017751 56.6141264,61.1775148 56.6553903,61.0946746 C56.9442379,60.4733728 57.3568773,59.9763314 58.0171004,59.9763314 C58.3884758,59.9763314 58.8011152,60.1420118 59.2550186,60.5147929 L58.6773234,61.7988166 Z" id="Shape" fill="#010101"></path>
            <path d="M68.0442379,66.852071 L66.1873606,62.9171598 L64.9907063,62.9171598 L64.9907063,66.6863905 L63.133829,66.6863905 L63.133829,57.5325444 L65.7334572,57.5325444 C67.0539033,57.5325444 67.7553903,57.6982249 68.3330855,58.0710059 C68.9520446,58.4852071 69.3234201,59.2307692 69.3234201,60.0591716 C69.3234201,61.2189349 68.663197,62.0887574 67.7141264,62.5857988 L69.9011152,66.5207101 L68.0442379,66.852071 Z M67.0951673,59.0650888 C66.7650558,58.816568 66.3524164,58.6923077 65.6096654,58.6923077 L64.9907063,58.6923077 L64.9907063,61.8402367 L65.7747212,61.8402367 C66.5587361,61.8402367 66.8888476,61.6745562 67.1776952,61.3431953 C67.4665428,60.9704142 67.5903346,60.4733728 67.5903346,60.183432 C67.5490706,59.6863905 67.3840149,59.2721893 67.0951673,59.0650888 L67.0951673,59.0650888 Z" id="Shape" fill="#010101"></path>
            <path d="M76.6684015,66.0650888 C75.8431227,66.6035503 74.9765799,66.852071 74.0687732,66.852071 C73.1609665,66.852071 72.4182156,66.6035503 71.7992565,66.1065089 C70.9739777,65.4852071 70.5613383,64.4497041 70.5613383,63.2899408 C70.5613383,62.2544379 70.9739777,61.3017751 71.7167286,60.6804734 C72.2944238,60.2248521 72.9959108,59.9763314 73.8624535,59.9763314 C74.8527881,59.9763314 75.5542751,60.3076923 76.0494424,60.9289941 C76.5033457,61.4674556 76.7096654,62.2544379 76.7096654,63.0828402 C76.7096654,63.2071006 76.7096654,63.3727811 76.7096654,63.5384615 L72.3769517,63.5384615 C72.4182156,64.8639053 73.1197026,65.6923077 74.3988848,65.6923077 C74.9765799,65.6923077 75.595539,65.443787 76.1319703,65.112426 L76.6684015,66.0650888 Z M75.1828996,62.5029586 C75.1828996,61.5502959 74.7289963,60.8461538 73.8624535,60.8461538 C73.0371747,60.8461538 72.4594796,61.4674556 72.4182156,62.6686391 L75.1828996,62.6686391 L75.1828996,62.5029586 Z" id="Shape" fill="#010101"></path>
            <path d="M77.7412639,66.1065089 L78.2364312,65.1538462 C78.6490706,65.5266272 79.1855019,65.816568 79.6394052,65.816568 C80.2583643,65.816568 80.5884758,65.4852071 80.5884758,64.9881657 C80.5884758,64.5739645 80.3408922,64.2840237 79.5156134,63.6627219 C78.7728625,63.1242604 78.1126394,62.5857988 78.1126394,61.7159763 C78.1126394,60.6390533 79.0204461,59.9349112 80.3408922,59.9349112 C81.0423792,59.9349112 81.7026022,60.1420118 82.2390335,60.4733728 L81.7851301,61.3017751 C81.4550186,61.0532544 81.0836431,60.9289941 80.7122677,60.9289941 C80.1345725,60.9289941 79.8457249,61.3017751 79.8457249,61.591716 C79.8457249,61.964497 80.1345725,62.2544379 80.7947955,62.7514793 C82.0739777,63.6627219 82.3628253,64.0769231 82.3628253,64.8639053 C82.3628253,66.0236686 81.3312268,66.7692308 79.9282528,66.7692308 C79.06171,66.852071 78.3189591,66.5621302 77.7412639,66.1065089" id="Shape" fill="#010101"></path>
            <path d="M88.0572491,66.6863905 L88.0572491,65.7337278 C87.4795539,66.5207101 86.8605948,66.852071 85.9527881,66.852071 C85.0037175,66.852071 84.1784387,66.3964497 83.8895911,65.6094675 C83.7245353,65.1952663 83.6832714,64.8639053 83.6832714,63.8284024 L83.6832714,60.1420118 L85.4163569,60.1420118 L85.4163569,63.8698225 C85.4163569,64.4497041 85.4576208,64.8224852 85.5814126,65.0710059 C85.7464684,65.4023669 86.1178439,65.6508876 86.6542751,65.6508876 C87.2319703,65.6508876 87.6446097,65.3609467 87.8509294,64.8639053 C87.9747212,64.5325444 88.0159851,64.1597633 88.0159851,63.6627219 L88.0159851,60.1420118 L89.7903346,60.1420118 L89.7903346,66.6863905 L88.0572491,66.6863905 Z" id="Shape" fill="#010101"></path>
            <polygon id="Rectangle-path" fill="#010101" points="91.6884758 57.0769231 93.4215613 57.0769231 93.4215613 66.6863905 91.6884758 66.6863905"></polygon>
            <path d="M99.3223048,66.4378698 C98.7446097,66.6863905 98.2081784,66.852071 97.5892193,66.852071 C96.7639405,66.852071 96.2275093,66.6035503 95.8973978,66.1065089 C95.6498141,65.6923077 95.5672862,65.3609467 95.5672862,64.4497041 L95.5672862,61.0532544 L94.6594796,61.0532544 L94.6594796,60.1420118 L95.5672862,60.1420118 L95.5672862,58.5680473 L97.3003717,58.1952663 L97.3003717,60.1420118 L98.9921933,60.1420118 L98.9921933,61.0532544 L97.3003717,61.0532544 L97.3003717,63.9940828 C97.3003717,65.1538462 97.5066914,65.816568 98.2081784,65.816568 C98.4557621,65.816568 98.7033457,65.7751479 98.9921933,65.6094675 L99.3223048,66.4378698 Z" id="Shape" fill="#010101"></path>
            <path d="M100.065056,66.1065089 L100.560223,65.1538462 C100.972862,65.5266272 101.509294,65.816568 101.963197,65.816568 C102.582156,65.816568 102.912268,65.4852071 102.912268,64.9881657 C102.912268,64.5739645 102.664684,64.2840237 101.798141,63.6627219 C101.05539,63.1242604 100.395167,62.5857988 100.395167,61.7159763 C100.395167,60.6390533 101.302974,59.9349112 102.62342,59.9349112 C103.324907,59.9349112 103.98513,60.1420118 104.521561,60.4733728 L104.067658,61.3017751 C103.737546,61.0532544 103.366171,60.9289941 102.994796,60.9289941 C102.4171,60.9289941 102.128253,61.3017751 102.128253,61.591716 C102.128253,61.964497 102.4171,62.2544379 103.077323,62.7514793 C104.356506,63.6627219 104.645353,64.0769231 104.645353,64.8639053 C104.645353,66.0236686 103.613755,66.7692308 102.210781,66.7692308 C101.385502,66.852071 100.642751,66.5621302 100.065056,66.1065089" id="Shape" fill="#010101"></path>
            <path d="M105.883271,60.0177515 C105.883271,58.6094675 106.997398,57.5325444 108.400372,57.5325444 C109.762082,57.5325444 110.834944,58.6508876 110.834944,60.0177515 C110.834944,61.3846154 109.762082,62.5029586 108.359108,62.5029586 C106.956134,62.5029586 105.883271,61.3846154 105.883271,60.0177515 L105.883271,60.0177515 Z M110.257249,60.0177515 C110.257249,58.8994083 109.390706,57.9881657 108.359108,57.9881657 C107.327509,57.9881657 106.50223,58.8994083 106.50223,59.9763314 C106.50223,61.0946746 107.368773,61.964497 108.400372,61.964497 C109.390706,62.0059172 110.257249,61.1360947 110.257249,60.0177515 L110.257249,60.0177515 Z M108.813011,61.3431953 L108.359108,60.2248521 L108.07026,60.2248521 L108.07026,61.260355 L107.492565,61.260355 L107.492565,58.6508876 L108.317844,58.6508876 C108.565428,58.6508876 108.813011,58.6923077 109.019331,58.816568 C109.225651,58.9408284 109.349442,59.1065089 109.349442,59.3964497 C109.349442,59.7278107 109.184387,59.9763314 108.895539,60.1420118 L109.473234,61.2189349 L108.813011,61.3431953 Z M108.235316,59.8106509 C108.4829,59.8106509 108.647955,59.6863905 108.647955,59.4378698 C108.647955,59.147929 108.441636,59.0650888 108.235316,59.0650888 L108.028996,59.0650888 L108.028996,59.7692308 L108.235316,59.7692308 L108.235316,59.8106509 Z" id="Shape" fill="#010101"></path>
        </g>
    </g>
</svg>