<?xml version="1.0" encoding="UTF-8" standalone="no"?>
<svg width="195px" height="41px" viewBox="0 0 195 41" version="1.1" xmlns="http://www.w3.org/2000/svg" xmlns:xlink="http://www.w3.org/1999/xlink">
    <!-- Generator: Sketch 40.3 (33839) - http://www.bohemiancoding.com/sketch -->
    <title>Page 1</title>
    <desc>Created with Sketch.</desc>
    <defs></defs>
    <g id="Page-1" stroke="none" stroke-width="1" fill="none" fill-rule="evenodd">
        <g id="Webinars" transform="translate(-475.000000, -632.000000)" fill="#CDD4D9">
            <g id="Page-1" transform="translate(475.000000, 601.000000)">
                <path d="M176.58494,23.0080956 C175.570824,22.1138984 174.026131,22.2113719 173.132429,23.224118 C172.238728,24.236864 172.335435,25.7828919 173.348047,26.6767127 C178.189088,30.9486119 183.352239,35.9931486 186.694495,39.7645081 C162.3986,31.8488306 137.996967,28.6604305 114.108977,30.2915124 C94.1581659,31.6538836 74.5298406,36.360462 55.7696289,44.2806556 C23.8161211,57.7711408 5.70464288,75.6727731 4.94941783,76.4280987 C3.99400358,77.3836403 3.99400358,78.9323025 4.94941783,79.8878441 C5.42693681,80.3654267 6.05271621,80.6044061 6.6788719,80.6044061 C7.3046513,80.6044061 7.930807,80.3654267 8.40832597,79.8878441 C8.58669004,79.7094562 26.5913003,61.91019 57.6721789,48.7881471 C75.9322939,41.0790834 95.0326766,36.4978281 114.442374,35.1723388 C138.479378,33.5310956 163.075556,36.9091739 187.560351,45.2072185 C183.377827,46.4329762 175.384182,47.7930893 165.890246,48.53863 C164.543861,48.6443831 163.537647,49.8219686 163.643386,51.1689095 C163.743857,52.4507427 164.814794,53.4239725 166.079147,53.4239725 C166.548763,53.3946176 173.10797,52.8741316 179.787591,51.826009 C191.009852,50.0654642 195.182216,48.1355638 195.182216,44.7051735 C195.182216,42.8211873 194.019087,39.9150464 185.58066,31.4758721 C181.135482,27.0301013 176.768573,23.1703005 176.58494,23.0080956 Z" id="Fill-1" transform="translate(99.707537, 51.500291) rotate(14.000000) translate(-99.707537, -51.500291) "></path>
            </g>
        </g>
    </g>
</svg>