<svg xmlns="http://www.w3.org/2000/svg" viewBox="0 0 219.67 163.42"><defs><style>.a{fill:#7ec2f1;}</style></defs><title>awards-stevie</title><path class="a" d="M114.92,126.43l2.3,5.32h-4.58Zm-45,18a4.5,4.5,0,0,0-4.48,4.71A4.56,4.56,0,0,0,70,153.86a4.5,4.5,0,0,0,4.48-4.71A4.56,4.56,0,0,0,69.93,144.4Zm16.69-16.16a2.46,2.46,0,0,0-2.75-2.49H80.34v5h3.55A2.54,2.54,0,0,0,86.63,128.24Zm83.56-1.13a1.44,1.44,0,0,0-1.52-1.52,1.52,1.52,0,0,0-1.58,1.61,2.82,2.82,0,0,0,1,2C169.46,128.71,170.19,128.1,170.19,127.11ZM116,146.74c0-1.46-1-2-2.75-2h-3.93v4h4C115,148.75,116,148.11,116,146.74Zm42.43,0c0-1.46-1-2-2.75-2h-3.36v4h3.38C157.39,148.75,158.45,148.11,158.45,146.74Zm7.08-13.17a2,2,0,0,0,2.22,2,3.66,3.66,0,0,0,2.51-1.16l-3-3A2.47,2.47,0,0,0,165.53,133.57Zm51.81-15.82v44H1.34v-44Zm-63,16c0,1-.91,1.69-2.36,1.69a6.12,6.12,0,0,1-4.2-1.73l-1.41,1.67a8.19,8.19,0,0,0,5.55,2.13c2.79,0,4.75-1.48,4.75-4,0-2.22-1.46-3.23-4.28-3.91-2.55-.61-3.15-1.06-3.15-2.11,0-.89.8-1.6,2.17-1.6a6,6,0,0,1,3.61,1.37l1.25-1.77a7.37,7.37,0,0,0-4.83-1.67c-2.64,0-4.54,1.56-4.54,3.88,0,2.47,1.6,3.31,4.43,4C153.77,132.22,154.3,132.74,154.3,133.71Zm-20,3h10v-2h-7v-3h6v-2h-6v-4h7v-2h-10Zm-72.47-6.1a7,7,0,1,0,7-6.9A6.76,6.76,0,0,0,61.87,130.65Zm-36.68,23-1.5-1.52a5.21,5.21,0,0,1-3.82,1.73,4.74,4.74,0,0,1,0-9.46A5.29,5.29,0,0,1,23.59,146l1.5-1.73a6.93,6.93,0,0,0-5.21-2.07,6.88,6.88,0,0,0-.1,13.76A6.86,6.86,0,0,0,25.19,153.65Zm13.15-10.9h-3v7.38c0,2.45-.92,3.7-3,3.7s-3-1.33-3-3.8v-7.29h-3v7.38c0,3.86,2.51,5.85,6,5.85s6-2,6-6ZM50.48,152c0-2.22-1.46-3.23-4.28-3.91C43.65,147.46,43,147,43,146c0-.89.8-1.6,2.17-1.6a6,6,0,0,1,3.61,1.37L50.08,144a7.37,7.37,0,0,0-4.83-1.67c-2.64,0-4.54,1.56-4.54,3.88,0,2.47,1.6,3.31,4.43,4,2.47.57,3,1.08,3,2.05s-.91,1.69-2.36,1.69a6.12,6.12,0,0,1-4.2-1.73l-1.41,1.67A8.19,8.19,0,0,0,45.73,156C48.52,156,50.48,154.49,50.48,152Zm-.14-15.23h2v-5h7v-2h-7v-4h8v-2h-10Zm12,6h-11v2h4v11h2v-11h5Zm14.57,6.36a7,7,0,1,0-7,6.9A6.76,6.76,0,0,0,76.9,149.11Zm1.43-12.36h2v-4H83.4l3.27,4h2.75l-3.59-4.82c1.86-.51,3.17-1.65,3.17-3.86,0-2.6-1.88-4.32-4.94-4.32H78.34Zm14,6H89.84l-4,6.29-4-6.29H79.34v13h2v-9.47l4.38,6.47h.08l3.54-6.51v9.51h3Zm13,11h-8v-4h7v-2h-7v-3h8v-2h-10v13h10Zm1.83-20.27c0-2.22-1.46-3.23-4.28-3.91-2.55-.61-3.15-1.06-3.15-2.11,0-.89.8-1.6,2.17-1.6a6,6,0,0,1,3.61,1.37l1.25-1.77a7.37,7.37,0,0,0-4.83-1.67c-2.64,0-4.54,1.56-4.54,3.88,0,2.47,1.6,3.31,4.43,4,2.47.57,3,1.08,3,2.05s-.91,1.69-2.36,1.69a6.12,6.12,0,0,1-4.2-1.73l-1.41,1.67a8.19,8.19,0,0,0,5.55,2.13C105.21,137.47,107.16,136,107.16,133.48Zm11.65,22.27-3.59-4.94a3.91,3.91,0,0,0,3.17-4c0-2.6-1.88-4.07-4.94-4.07h-6.12v13h2v-5h3.46l3.27,5Zm3.07-19-5.85-13h-2.17l-5.85,13h2.39l1.37-3h6.29l1.35,3Zm1.45,0h9v-2h-7v-11h-2ZM135.42,152c0-2.22-1.46-3.23-4.28-3.91C128.6,147.46,128,147,128,146c0-.89.8-1.6,2.17-1.6a6,6,0,0,1,3.61,1.37L135,144a7.37,7.37,0,0,0-4.83-1.67c-2.64,0-4.54,1.56-4.54,3.88,0,2.47,1.6,3.31,4.43,4,2.47.57,3,1.08,3,2.05s-.91,1.69-2.36,1.69a6.12,6.12,0,0,1-4.2-1.73l-1.41,1.67a8.19,8.19,0,0,0,5.55,2.13C133.47,156,135.42,154.49,135.42,152Zm11.91,1.77h-8v-4h7v-2h-7v-3h8v-2h-10v13h10Zm13.91,2-3.59-4.94a3.91,3.91,0,0,0,3.17-4c0-2.6-1.88-4.07-4.94-4.07h-6.55v13h3v-5h2.89l3.27,5Zm13.57-13h-2.53l-4,10.22-4-10.22H161.7l5.53,13h2.05Zm.28-6.44L173,134.18a21,21,0,0,0,1.8-3l-1.77-.93a19.25,19.25,0,0,1-1.42,2.57l-2.28-2.32c1.77-.66,2.93-1.71,2.93-3.48a3.27,3.27,0,0,0-3.53-3.23c-2.37,0-3.82,1.56-3.82,3.36a4.36,4.36,0,0,0,1.1,2.79c-1.82.78-2.83,2-2.83,3.74,0,2.34,1.86,3.82,4.33,3.82a5.85,5.85,0,0,0,4.09-1.73l1.77,1.8Zm3.25,6.44h-2v13h2Zm15.4,10.9-1.5-1.52a5.22,5.22,0,0,1-3.82,1.73,4.74,4.74,0,0,1,0-9.46,5.29,5.29,0,0,1,3.72,1.65l1.5-1.73a6.94,6.94,0,0,0-5.21-2.07,6.88,6.88,0,0,0-.1,13.76A6.86,6.86,0,0,0,193.73,153.65Zm11.6.1h-8v-4h7v-2h-7v-3h8v-2h-10v13h10ZM68.84,135.36a4.5,4.5,0,0,0,4.48-4.71,4.56,4.56,0,0,0-4.52-4.75,4.5,4.5,0,0,0-4.48,4.71A4.56,4.56,0,0,0,68.84,135.36Zm89.58-81.61h-4.08v16h4.08c5.22,0,7.92-2.86,7.92-7.95v-.09C166.34,56.67,163.64,53.75,158.42,53.75Zm-63.65-.5a8.42,8.42,0,0,0-8.43,8.41v.09a8.57,8.57,0,0,0,8.52,8.5,8.43,8.43,0,0,0,8.48-8.41v-.09A8.58,8.58,0,0,0,94.77,53.25Zm122.57-13.5v43H1.34v-43Zm-144,19h-15v7h7v3.57a11.51,11.51,0,0,1-5.25,1.3,8.49,8.49,0,0,1-8.75-8.73V61.8a8.37,8.37,0,0,1,8.18-8.64,11.25,11.25,0,0,1,7.66,3L72.34,50a18.7,18.7,0,0,0-12.9-4.59c-9.76,0-17.1,7.2-17.1,16.38v.09c0,9.54,7.42,16.29,17.23,16.29a20.86,20.86,0,0,0,13.77-4.86Zm38,2.92a16.5,16.5,0,0,0-33,.09v.09a16.5,16.5,0,0,0,33-.09Zm30,8.08h-15v-24h-9v32h24Zm34-8.17c0-9.09-5.81-15.83-17.06-15.83H146.34v32H158.1c11.34,0,17.24-7,17.24-16.08ZM6.55,111.72a7.12,7.12,0,0,0,4.08-1.11,5.53,5.53,0,0,0,2.41-4.7c0-2.56-1.13-4.37-4.21-6.88l-.72-.57C6,96.76,5.39,95.82,5.39,94.57a2.75,2.75,0,0,1,3.05-2.78,3.2,3.2,0,0,1,2.8,1.32,3.37,3.37,0,0,1,.67,1.78c0,.32.08.49.26.49s.28-.22.28-.81c0-2.11.1-2.89.1-3.24,0-.19-.13-.27-.36-.32a11.84,11.84,0,0,0-3.41-.46c-3.57,0-5.93,2.13-5.93,5.1,0,2.19,1,4.08,3.8,6.4l1.18,1c2.13,1.73,2.51,3,2.51,4.32a3.18,3.18,0,0,1-3.44,3.08,3.55,3.55,0,0,1-3.67-2.73A6,6,0,0,1,3,106.32c0-.22,0-.46-.26-.46s-.28.3-.31.7-.13,2.05-.13,3.54c0,.59.08.73.49.92A8.5,8.5,0,0,0,6.55,111.72Zm14.79-8.21c0,2.48,0,4.62-.16,5.75-.08.78-.25,1.38-.76,1.49a4.08,4.08,0,0,1-.93.11c-.31,0-.41.08-.41.22s.18.27.51.27c1,0,2.64-.08,3.23-.08s2.33.08,4,.08c.28,0,.49-.08.49-.27s-.13-.22-.41-.22a10.31,10.31,0,0,1-1.31-.11c-.77-.11-1-.7-1.07-1.46-.13-1.16-.2-3.29-.2-5.78V92.44l3.3.08c2.28.05,3,.81,3.06,1.51l0,.3c0,.41.09.54.29.54s.21-.16.23-.43c0-.7.08-2.56.08-3.13,0-.4,0-.7-.2-.7a20.07,20.07,0,0,1-2.46.14H18.53c-.85,0-1.82.08-2.56,0a8.38,8.38,0,0,1-1.1-.26c-.15,0-.23.19-.31.55S14,93.72,14,94.15s.05.44.23.44.23-.1.28-.32a3.28,3.28,0,0,1,.44-.94c.38-.59,1-.73,2.52-.78l3.86-.11Zm13,0c0,2.48.23,4.62.1,5.75-.1.78-.12,1.38-.63,1.49a3.48,3.48,0,0,1-.87.11c-.31,0-.38.08-.38.22s.19.27.53.27c1,0,2.65-.08,3.24-.08,1.51,0,3.24.16,7.11.16,1,0,1.21,0,1.39-.7a22.16,22.16,0,0,0,.33-3c0-.27,0-.49-.2-.49s-.23.11-.28.41c-.18,1.11-.49,1.67-1.15,2a6.2,6.2,0,0,1-2.41.32c-2.62,0-3.37-.41-3.42-2.27,0-.78-.34-3.27-.34-4.18v-2.13c0-.16.37-.27.5-.27.62,0,3.33,0,3.81.08.95.11,1.39.51,1.52,1.05a8.18,8.18,0,0,1,.15,1,.23.23,0,0,0,.25.24c.23,0,.24-.3.24-.51s.06-1.27.11-1.81c.08-1.38.21-1.81.21-2s-.08-.22-.18-.22-.23.14-.41.35-.61.35-1.23.41-3.88.05-4.44.05c-.15,0-.52-.11-.52-.3V92.63c0-.19.39-.27.52-.27.51,0,3.38.05,3.81.11,1.28.16,1.62.49,1.8,1a3.26,3.26,0,0,1,.2,1c0,.24.07.38.25.38s.24-.16.27-.3c.05-.32.11-1.51.13-1.78A17.48,17.48,0,0,1,44.53,91c0-.13,0-.24-.15-.24a2.3,2.3,0,0,0-.41.11,9.75,9.75,0,0,1-1.1.16c-.49,0-5.59,0-6.41,0s-2.33-.08-3.69-.08c-.38,0-.56.05-.56.24s.15.24.44.24a5.05,5.05,0,0,1,1,.08c.85.19.83.62.88,1.54s-.17,1.62-.17,5.72Zm20,6.56c.49,1.27.64,1.65,1,1.65s.51-.43,1.18-2c.56-1.35,1.77-4.29,3.41-8.23C61.28,98.16,62,96.71,63,94.17c.69-1.73,1.08-2.19,1.41-2.43a2.14,2.14,0,0,1,1.26-.32c.26,0,.41-.05.41-.24s-.21-.24-.54-.24c-.77,0-2,.08-2.41.08s-1.41-.08-2.69-.08c-.49,0-.72.05-.72.27s.21.22.44.22a3.26,3.26,0,0,1,1,.14.52.52,0,0,1,.33.51,4.21,4.21,0,0,1-.23,1.12c-.62,1.78-4,10.57-5.05,13.57h-.1L51.69,94.37a8.59,8.59,0,0,1-.59-2.14.72.72,0,0,1,.26-.6,1.75,1.75,0,0,1,1-.2c.23,0,.38-.06.38-.25s-.28-.25-.59-.25c-1.28,0-2.51.08-3.15.08-.9,0-2.36-.08-3.72-.08-.38,0-.67,0-.67.24s.08.24.31.24a3.75,3.75,0,0,1,1,.11c.92.27,1.36.57,1.95,2.05Zm13-6.56c0,2.62.09,4.75,0,5.89-.08.78-.19,1.24-.7,1.35a3.79,3.79,0,0,1-.9.11c-.31,0-.4.08-.4.22s.19.27.52.27c1,0,2.64-.08,3.24-.08s2.31.08,4,.08c.28,0,.49-.08.49-.27s-.13-.22-.41-.22a10.32,10.32,0,0,1-1.31-.11,1.32,1.32,0,0,1-1.21-1.32c-.1-1.16-.28-3.29-.28-5.91V98.76A49.1,49.1,0,0,1,70.57,93c.05-.94.35-1.4,1-1.54a4.61,4.61,0,0,1,.81-.08c.26,0,.43-.05.43-.27s-.19-.22-.53-.22c-1,0-2.48.08-3.12.08s-2.36-.08-3.33-.08c-.41,0-.61.05-.61.22s.16.27.41.27a3.47,3.47,0,0,1,.92.11c.56.13.73.59.78,1.51s0,1.62,0,5.72Zm10,0c0,2.48.25,4.62.12,5.75-.1.78-.11,1.38-.62,1.49a3.43,3.43,0,0,1-.86.11c-.31,0-.38.08-.38.22s.2.27.53.27c1,0,2.65-.08,3.24-.08,1.51,0,3.24.16,7.11.16,1,0,1.21,0,1.39-.7a22.16,22.16,0,0,0,.33-3c0-.27,0-.49-.2-.49s-.23.11-.28.41c-.18,1.11-.49,1.67-1.15,2a6.2,6.2,0,0,1-2.41.32c-2.62,0-3.39-.41-3.44-2.27,0-.78-.36-3.27-.36-4.18v-2.13c0-.16.39-.27.52-.27.62,0,3.34,0,3.82.08.95.11,1.4.51,1.53,1.05a8.25,8.25,0,0,1,.15,1,.23.23,0,0,0,.25.24c.23,0,.24-.3.24-.51s.06-1.27.11-1.81c.08-1.38.21-1.81.21-2s-.08-.22-.18-.22-.23.14-.41.35-.61.35-1.23.41-3.9.05-4.46.05c-.15,0-.54-.11-.54-.3V92.63c0-.19.41-.27.54-.27.51,0,3.39.05,3.82.11,1.28.16,1.63.49,1.81,1a3.28,3.28,0,0,1,.2,1c0,.24.07.38.25.38s.24-.16.27-.3c.05-.32.11-1.51.13-1.78.08-1.24.21-1.57.21-1.76s0-.24-.15-.24a2.3,2.3,0,0,0-.41.11,9.75,9.75,0,0,1-1.1.16c-.49,0-5.59,0-6.41,0s-2.33-.08-3.69-.08c-.38,0-.56.05-.56.24s.15.24.44.24a5.05,5.05,0,0,1,1,.08c.85.19.8.62.86,1.54s-.19,1.62-.19,5.72Zm15.8-4a4.16,4.16,0,1,0-4.22-4.17A4.15,4.15,0,0,0,93.13,99.47ZM89.74,95.3a3.38,3.38,0,1,1,3.39,3.48A3.36,3.36,0,0,1,89.74,95.3Zm2.59.45h.75l1.26,2h.81L93.8,95.62A1.33,1.33,0,0,0,95,94.21c0-.95-.56-1.46-1.69-1.46h-2v5h1Zm.27-1v-1h.64c.51,0,1-.13,1,.46s-.55.54-1.17.54Zm16.51,15.93c.21.7.33,1,.59,1s.44-.38.92-1.49c1.1-2.48,4.51-12.48,5-13.48h.05L121,110.34c.38,1,.54,1.35.8,1.35s.46-.31.74-1.25c1.26-4,4-12.63,5.13-16,.54-1.54.82-2.62,1.44-2.86a2.69,2.69,0,0,1,.9-.13c.23,0,.36-.08.36-.27s-.18-.22-.46-.22c-.85,0-2,.08-2.13.08s-1.31-.08-2.67-.08c-.38,0-.59.05-.59.24s.18.24.44.24c1,0,1.23.38,1.23.81a5.59,5.59,0,0,1-.26,1.5c-.9,3.16-2.95,10-3.41,12h-.08l-5.33-13.51c-.33-.86-.46-1.24-.74-1.24s-.36.07-.64.83l-5,13.92h-.08c-.46-1-2.85-9.53-3.28-11.31a18.34,18.34,0,0,1-.56-2.4c0-.3.05-.45.28-.55a1.28,1.28,0,0,1,.64-.09c.26,0,.46,0,.46-.23s-.18-.24-.54-.24c-1.49,0-2.62.08-2.85.08s-1.64-.08-3-.08c-.36,0-.56.05-.56.24s.15.24.41.24a2.18,2.18,0,0,1,1,.24,4,4,0,0,1,.95,1.92Zm23.23-7.21c0,2.62.08,4.75,0,5.89-.08.78-.19,1.24-.7,1.35a3.8,3.8,0,0,1-.9.11c-.31,0-.4.08-.4.22s.18.27.52.27c1,0,2.64-.08,3.24-.08s2.31.08,4,.08c.28,0,.49-.08.49-.27s-.13-.22-.41-.22a10.32,10.32,0,0,1-1.31-.11,1.32,1.32,0,0,1-1.2-1.32c-.1-1.16-.28-3.29-.28-5.91V98.76a50.18,50.18,0,0,1,.23-5.72c.05-.94.34-1.4,1-1.54a4.6,4.6,0,0,1,.81-.08c.26,0,.43-.05.43-.27s-.19-.22-.53-.22c-1,0-2.48.08-3.12.08s-2.36-.08-3.33-.08c-.41,0-.61.05-.61.22s.15.27.41.27a3.47,3.47,0,0,1,.92.11c.56.13.74.59.79,1.51s0,1.62,0,5.72Zm11.12-6.76h.08c.46,0,3.31,3.68,6.11,6.59s6,6.21,7.57,7.83a1.42,1.42,0,0,0,.87.54c.23,0,.33-.27.33-.86l.28-17c0-1.51.23-2.09.95-2.3a2.67,2.67,0,0,1,.77-.08c.31,0,.46-.08.46-.24s-.26-.24-.59-.24c-1.26,0-2.23.08-2.51.08-.54,0-1.77-.08-3.1-.08-.38,0-.67,0-.67.24s.1.24.41.24a4,4,0,0,1,1.36.16c.62.27.85.59.87,2.24l.26,11.93h-.13c-.44,0-3.9-4.13-5.64-6-3.75-3.92-7.64-8.22-8-8.57s-.67-.79-.95-.79-.33.4-.33.94l-.23,16c0,2.35-.13,3.14-.79,3.35a4.37,4.37,0,0,1-1.15.14c-.26,0-.41.06-.41.22s.23.27.56.27c1.33,0,2.54-.08,2.77-.08.49,0,1.51.08,3.18.08.36,0,.59-.05.59-.27s-.15-.22-.44-.22a3.88,3.88,0,0,1-1.33-.19c-.51-.19-.85-.68-.9-2.79Zm21.47,0H165c.46,0,3.31,3.68,6.11,6.59s6,6.21,7.57,7.83a1.42,1.42,0,0,0,.87.54c.23,0,.33-.27.33-.86l.28-17c0-1.51.23-2.09.95-2.3a2.67,2.67,0,0,1,.77-.08c.31,0,.46-.08.46-.24s-.26-.24-.59-.24c-1.26,0-2.23.08-2.51.08-.54,0-1.77-.08-3.1-.08-.38,0-.67,0-.67.24s.1.24.41.24a4,4,0,0,1,1.36.16c.62.27.85.59.87,2.24l.26,11.93h-.13c-.44,0-3.9-4.13-5.64-6-3.75-3.92-7.64-8.22-8-8.57s-.67-.79-.95-.79-.33.4-.33.94l-.23,16c0,2.35-.13,3.14-.8,3.35a4.37,4.37,0,0,1-1.15.14c-.26,0-.41.06-.41.22s.23.27.56.27c1.33,0,2.54-.08,2.77-.08.49,0,1.51.08,3.18.08.36,0,.59-.05.59-.27s-.15-.22-.44-.22a3.88,3.88,0,0,1-1.33-.19c-.51-.19-.85-.68-.9-2.79Zm21.41,6.76c0,2.48,0,4.62-.16,5.75-.1.78-.25,1.38-.76,1.49a4.09,4.09,0,0,1-.93.11c-.31,0-.41.08-.41.22s.18.27.51.27c1,0,2.64-.08,3.23-.08,1.51,0,3.23.16,7.1.16,1,0,1.21,0,1.38-.7a22.16,22.16,0,0,0,.33-3c0-.27,0-.49-.21-.49s-.23.11-.28.41c-.18,1.11-.49,1.67-1.15,2a6.2,6.2,0,0,1-2.41.32c-2.62,0-3.11-.41-3.16-2.27,0-.78-.08-3.27-.08-4.18v-2.13a.25.25,0,0,1,.23-.27c.62,0,3.19,0,3.68.08.95.11,1.33.51,1.46,1.05a7.57,7.57,0,0,1,.11,1,.21.21,0,0,0,.24.24c.23,0,.23-.3.23-.51s.05-1.27.1-1.81c.08-1.38.21-1.81.21-2s-.08-.22-.18-.22-.23.14-.41.35-.62.35-1.23.41-3.62.05-4.18.05c-.15,0-.26-.11-.26-.3V92.63a.25.25,0,0,1,.26-.27c.51,0,3.25.05,3.68.11,1.28.16,1.56.49,1.74,1a3.07,3.07,0,0,1,.16,1c0,.24.06.38.24.38s.23-.16.26-.3c.05-.32.1-1.51.13-1.78.08-1.24.21-1.57.21-1.76s0-.24-.15-.24a2.31,2.31,0,0,0-.41.11,9.76,9.76,0,0,1-1.1.16c-.49,0-5.59,0-6.41,0s-2.33-.08-3.69-.08c-.38,0-.56.05-.56.24s.15.24.44.24a5.05,5.05,0,0,1,1,.08c.85.19,1.09.62,1.14,1.54s.09,1.62.09,5.72Zm14,0c0,2.48,0,4.62-.09,5.75-.1.78-.21,1.38-.72,1.49a3.9,3.9,0,0,1-.91.11c-.31,0-.4.08-.4.22s.18.27.52.27c1,0,2.64-.08,3.13-.08s2.28.08,3.77.08c.33,0,.51-.08.51-.27s-.1-.22-.31-.22a11.25,11.25,0,0,1-1.26-.11c-.77-.11-1-.7-1.06-1.49-.13-1.13-.18-3.27-.18-5.78v-.38c0-.16.13-.22.26-.22l2.26.05a.55.55,0,0,1,.48.19c.33.41,1.52,2.24,2.55,3.73,1.44,2.08,2.41,3.55,3.52,4.17a4.77,4.77,0,0,0,2.75.72h2.44a.49.49,0,0,0,.49-.47.31.31,0,0,0-.31-.32,4.54,4.54,0,0,1-.72-.13,5.17,5.17,0,0,1-2.87-1.86c-1.51-1.67-3.28-4.09-5.57-7.11,2.59-2.21,3.39-4.06,3.39-6.06a4.76,4.76,0,0,0-1.74-3.7,7.87,7.87,0,0,0-4.72-1.16c-.79,0-2.74.08-3.62.08-.54,0-2.15-.08-3.51-.08-.38,0-.56.05-.56.24s.15.24.44.24a5.05,5.05,0,0,1,1,.08c.85.19,1,.62,1.06,1.54s0,1.62,0,5.72Zm3-10.83a.36.36,0,0,1,.29-.38A5.63,5.63,0,0,1,205,92.2c1.51,0,3.94,1.11,3.94,4.94,0,2.21-.74,3.46-1.51,4.05a2.46,2.46,0,0,1-1.82.46,6.84,6.84,0,0,1-2-.27.45.45,0,0,1-.29-.49ZM36.41,30.75c4.42,0,5.55,0,6.11-1.06a27.44,27.44,0,0,0,2-5.52c0-.39-.07-.71-.56-.71s-.63.17-.84.64c-.84,1.83-3.16,3.14-8,3.45-2.6.19-10.88.21-12.08.21H18.3c-.35,0-.49-.09-.14-.25,9.06-4,24.15-10.6,24.15-18.16C42.31,4.78,37,1,24.69,1A44.91,44.91,0,0,0,12,2.53c-.77.27-.84.43-.84.78,0,1.13.35,4.37.42,4.72s.28.74.63.74c.7,0,.91-.35.91-.74,0-1,1.26-2.85,2.95-3.74a15.55,15.55,0,0,1,7.44-1.4c3.51,0,9.62,1.25,9.62,7.41,0,8.23-14,14.31-23.8,19.11-.7.35-1.4.6-1.4.91s.49.44,1,.44Zm67.67-15.31C104.08,9.24,100.36,1,86.46,1c-13,0-18.74,7.06-18.74,16.15,0,5.54,3.79,14.43,17.62,14.43C97.41,31.62,104.08,25.11,104.08,15.44ZM95.87,17c0,7.57-3.51,12.91-9.2,12.91-7.72,0-10.74-7.41-10.74-14.16C75.93,6.82,79.72,2.8,85,2.8,92.64,2.8,95.87,10.21,95.87,17Zm42.54,2.26a58,58,0,0,1-.35,8.78c-.21,1.25-.56,1.79-2.81,2.07-1.26.16-4.84.27-5.62.27-.28,0-.56.12-.56.39s.42.35,1.19.35c4.49,0,10.39-.12,12-.12,1.9,0,6.39.12,11.72.12.77,0,1.12-.08,1.12-.35s-.35-.39-.63-.39c-.56,0-3.58-.12-4.63-.23-2.25-.27-2.81-.86-3-2.11a63.58,63.58,0,0,1-.49-8.78V12A80.67,80.67,0,0,1,147,1.87c0-.39-.1-.82-.74-.82a5.52,5.52,0,0,0-1.77.51c-2.46,1-15.91,5.93-16.19,6s-.69.31-.69.55.36.43.57.43a5,5,0,0,0,1-.16c1.54-.35,6.81-1.87,8.14-1.87,1.05,0,1.05.47,1.05,1.4V13Zm57.49,3.53a28.31,28.31,0,0,1-.21,5c-.14,1.21-.63,2.2-3.3,2.35-1.12.08-2.67.18-3.3.18-.35,0-.56.15-.56.42s.35.37,1.12.37c3.86,0,7.65-.11,9.62-.11,1.47,0,6,.12,9.9.12.77,0,1.12-.08,1.12-.35s-.28-.39-.63-.39c-.7,0-2.18,0-3.16-.16-2.32-.27-2.74-1.24-2.95-2.45a28.4,28.4,0,0,1-.21-5h6.18c1.19,0,1.54.11,1.9-.24a6.23,6.23,0,0,0,1.19-2.32.67.67,0,0,0-.63-.65,31.8,31.8,0,0,1-3.23.21h-5.41V7.56c0-2.54.07-5.27.07-5.85,0-.39-.21-.66-.84-.66a3.44,3.44,0,0,0-1.82.7c-.56.39-26.75,19.62-27.24,19.93-.28.2-.91.28-.91.75s.91.32,1.76.32Zm-.56-3H180c2.39-1,14-10,15.65-12h-.35Z"/></svg>