<?xml version="1.0" encoding="UTF-8" standalone="no"?>
<svg width="119px" height="67px" viewBox="0 0 119 67" version="1.1" xmlns="http://www.w3.org/2000/svg" xmlns:xlink="http://www.w3.org/1999/xlink">
    <!-- Generator: Sketch 40.3 (33839) - http://www.bohemiancoding.com/sketch -->
    <title>awards-webby</title>
    <desc>Created with Sketch.</desc>
    <defs></defs>
    <g id="Page-1" stroke="none" stroke-width="1" fill="none" fill-rule="evenodd">
        <g id="Mobile" transform="translate(-1112.000000, -4454.000000)" fill="#C5C7CE">
            <g id="Group-35" transform="translate(159.000000, 3094.785156)">
                <g id="Group-20" transform="translate(2.000000, 1321.679688)">
                    <g id="awards-webby" transform="translate(951.500000, 37.209175)">
                        <g>
                            <path d="M0.1,37.2 L0.1,42.3 C40.5,40 10.5,38.8 0.1,37.2" id="Fill-1"></path>
                            <path d="M0.1,45.8 L0.1,50.8 L0.5,50.9 C31.2,48.2 22.4,47.1 0.1,45.8" id="Fill-2"></path>
                            <path d="M0.1,0.8 L0.1,17.5 C25.5,16.6 25.6,15.2 12.5,13.5 L14.9,10.6 C31.2,13.1 30.1,17.1 18.4,19.2 C22.3,20.5 36.2,23.1 19.4,28.1 C22.2,28.9 37.5,32.6 18.4,36 C21.4,37.3 37.5,39.3 19.1,44.2 C23.9,45 36.1,47.5 20,52.8 C26.1,53.5 26.9,53.7 28.5,56.5 L28.5,67.3 L35.9,67.3 L35.9,0.9 L0.1,0.8" id="Fill-3"></path>
                            <path d="M0.1,29.4 L0.1,34.5 C7.7,33 42.4,32.5 0.1,29.4" id="Fill-4"></path>
                            <path d="M0.1,20.6 L0.1,26.1 C23.9,24.8 31.9,23.2 0.1,20.6" id="Fill-5"></path>
                            <polyline id="Fill-6" points="44.5 18.5 40.4 18.5 40.4 17.7 49.3 17.7 49.3 18.5 45.2 18.5 45.2 29.3 44.3 29.3 44.5 18.5"></polyline>
                            <polyline id="Fill-7" points="51.5 17.7 52.4 17.7 52.4 23 59.8 23 59.8 17.7 60.7 17.7 60.7 29.2 59.8 29.2 59.8 23.8 52.4 23.8 52.4 29.2 51.5 29.2 51.5 17.7"></polyline>
                            <polyline id="Fill-8" points="63.9 17.7 72.2 17.7 72.2 18.5 64.8 18.5 64.8 23.1 71.5 23.1 71.5 23.9 64.8 23.9 64.8 28.6 72.3 28.6 72.3 29.4 63.9 29.4 63.9 17.7"></polyline>
                            <polyline id="Fill-9" points="41 35.8 44.9 35.8 47.2 43.3 49.8 35.7 52.9 35.7 55.5 43.3 57.8 35.8 61.6 35.8 57.2 48.9 54.1 48.9 51.4 41.4 48.7 48.9 45.6 48.9 41 35.8"></polyline>
                            <path d="M61.5,42.3 C61.5,38.3 64.4,35.3 68.4,35.3 C73.1,35.3 75.3,38.7 75.3,42.6 L75.3,43.6 L66.3,43.6 C66.7,45 67.7,45.8 69.2,45.8 C70.3,45.8 71.2,45.4 72.2,44.5 L74.9,46.7 C73.6,48.3 71.8,49.5 69,49.5 C64.5,49.2 61.5,46.4 61.5,42.3 L61.5,42.3 L61.5,42.3 Z M70.8,41.1 C70.6,39.6 69.8,38.6 68.4,38.6 C67.2,38.6 66.3,39.6 66,41.1 L70.8,41.1 L70.8,41.1 Z" id="Fill-10"></path>
                            <path d="M77.8,35.8 L84.6,35.8 C86.2,35.8 87.5,36.2 88.2,36.9 C88.8,37.5 89.1,38.1 89.1,39 C89.1,40.5 88.2,41.4 87.1,41.9 C88.7,42.4 89.8,43.3 89.8,45.1 C89.8,47.4 88,48.7 84.9,48.7 L78,48.7 L77.8,35.8 L77.8,35.8 L77.8,35.8 L77.8,35.8 Z M85.5,39.9 C85.5,39.1 84.9,38.8 83.9,38.8 L81.5,38.8 L81.5,41.1 L83.8,41.1 C84.8,41 85.5,40.7 85.5,39.9 L85.5,39.9 Z M84.1,43.6 L81.3,43.6 L81.3,46 L84.2,46 C85.3,46 85.9,45.5 85.9,44.8 C85.8,44.1 85.3,43.6 84.1,43.6 L84.1,43.6 L84.1,43.6 Z" id="Fill-11"></path>
                            <path d="M92.4,35.8 L99.2,35.8 C100.8,35.8 102.1,36.2 102.8,36.9 C103.4,37.5 103.7,38.1 103.7,39 C103.7,40.5 102.8,41.4 101.7,41.9 C103.3,42.4 104.4,43.3 104.4,45.1 C104.4,47.4 102.6,48.7 99.5,48.7 L92.6,48.7 L92.4,35.8 L92.4,35.8 L92.4,35.8 L92.4,35.8 Z M100,39.9 C100,39.1 99.4,38.8 98.4,38.8 L96,38.8 L96,41.1 L98.3,41.1 C99.4,41 100,40.7 100,39.9 L100,39.9 Z M98.8,43.6 L96,43.6 L96,46 L98.9,46 C100,46 100.6,45.5 100.6,44.8 C100.5,44.1 100,43.6 98.8,43.6 L98.8,43.6 L98.8,43.6 Z" id="Fill-12"></path>
                            <polyline id="Fill-13" points="109.2 44 104.2 35.8 108.4 35.8 111.2 40.6 114 35.8 118.1 35.8 113.1 43.9 113.1 48.8 109.5 48.8 109.2 44"></polyline>
                            <path d="M47,54.5 L47.9,54.5 L53.3,66.1 L52.3,66.1 L50.8,62.9 L43.9,62.9 L42.4,66.1 L41.5,66.1 L47,54.5 L47,54.5 L47,54.5 Z M50.4,62.1 L47.4,55.4 L44.4,62.1 L50.4,62.1 L50.4,62.1 Z" id="Fill-14"></path>
                            <polyline id="Fill-15" points="53.2 54.6 54.2 54.6 57.8 64.9 61.2 54.6 61.9 54.6 65.3 64.9 68.9 54.6 69.8 54.6 65.6 66.2 64.9 66.2 61.5 56.2 58.1 66.2 57.4 66.2 53.2 54.6"></polyline>
                            <path d="M75.4,54.5 L76.3,54.5 L81.7,66.1 L80.7,66.1 L79.2,62.9 L72.3,62.9 L70.8,66.1 L69.9,66.1 L75.4,54.5 L75.4,54.5 L75.4,54.5 Z M79,62.1 L76,55.4 L73,62.1 L79,62.1 L79,62.1 Z" id="Fill-16"></path>
                            <path d="M83.7,54.6 L88.6,54.6 C90,54.6 91.2,55.1 91.8,55.7 C92.4,56.3 92.7,57 92.7,57.8 C92.7,59.7 91.3,60.8 89.3,61.1 L93.1,66 L92,66 L88.3,61.2 L84.5,61.2 L84.5,66 L83.6,66 L83.6,54.5 L83.7,54.6 L83.7,54.6 L83.7,54.6 Z M88.5,60.5 C90.4,60.5 91.9,59.5 91.9,57.8 C91.9,56.3 90.7,55.3 88.6,55.3 L84.6,55.3 L84.6,60.4 L88.5,60.4 L88.5,60.5 L88.5,60.5 Z" id="Fill-17"></path>
                            <path d="M95.3,54.6 L99.2,54.6 C102.8,54.6 105.4,57.1 105.4,60.3 C105.4,63.5 102.8,66.1 99.2,66.1 L95.3,66.1 L95.3,54.6 L95.3,54.6 Z M96.2,55.3 L96.2,65.3 L99.2,65.3 C102.4,65.3 104.5,63.1 104.5,60.4 C104.5,57.6 102.5,55.5 99.2,55.5 L96.2,55.3 L96.2,55.3 L96.2,55.3 Z" id="Fill-18"></path>
                            <path d="M107.1,64.4 L107.7,63.7 C108.9,64.8 110.2,65.4 111.9,65.4 C113.6,65.4 114.9,64.4 114.9,63.1 C114.9,61.9 114.2,61.2 111.6,60.6 C108.8,60 107.7,59.1 107.7,57.4 C107.7,55.7 109.3,54.4 111.4,54.4 C113.1,54.4 114.3,54.9 115.4,55.8 L114.8,56.5 C113.7,55.5 112.6,55.2 111.3,55.2 C109.6,55.2 108.4,56.2 108.4,57.4 C108.4,58.6 109.1,59.4 111.8,59.9 C114.5,60.5 115.6,61.4 115.6,63 C115.6,64.9 114,66.1 111.7,66.1 C109.9,66.3 108.4,65.6 107.1,64.4" id="Fill-19"></path>
                        </g>
                    </g>
                </g>
            </g>
        </g>
    </g>
</svg>