<svg xmlns="http://www.w3.org/2000/svg" viewBox="0 0 216.25 57.72"><defs><style>.a{fill:#7ec2f1;}</style></defs><title>awards-ixda</title><path class="a" d="M67.54,7.26l-5.15,3.37V5.72L68.3,1.58h5V27H67.54Zm45-5.82h2.61V12.88h-2.61Zm4.66,0h3L124.55,9V1.44h2.3V12.88H124.3l-4.82-8.16v8.15h-2.3Zm13.89,2H128v-2h8.79v2H133.7v9.43h-2.61Zm6.83-2h7.46v2H140.5V6.11h3.91V8H140.5v2.85h5.14v2H137.9Zm9,0H151c2.71,0,4.42,1.1,4.42,3.47V5a3,3,0,0,1-2.35,3l3,4.87h-2.75L150.6,8.42h-1.12v4.42H146.9Zm4,5.27c1.3,0,2-.54,2-1.65V5c0-1.17-.7-1.57-2-1.57h-1.46V6.72ZM160,1.44h3.38l3.71,11.44H164.4l-.78-2.54h-4.15l-.78,2.54H156.3Zm0,7.06h3l-1.5-4.95Zm6.93-1.26V7.11a5.55,5.55,0,0,1,5.25-5.83h.43c2.75,0,4.8,1.34,5.07,4.16H175A2.18,2.18,0,0,0,172.8,3.3h-.16c-1.81,0-3,1.41-3,3.78v.13c0,2.37,1.09,3.75,3,3.75a2.4,2.4,0,0,0,2.69-2.07q0-.1,0-.19h2.54c-.29,2.83-2.32,4.29-5.14,4.29-3.73,0-5.73-2.29-5.73-5.78Zm14.16-3.78H178v-2h8.79v2h-3.09v9.43h-2.61Zm6.89-2h2.61V12.88H188Zm4.06,5.79V7.12a5.66,5.66,0,0,1,5.48-5.83h.41a5.56,5.56,0,0,1,5.88,5.22q0,.27,0,.54v.13a5.89,5.89,0,1,1-11.78.06Zm9.08,0V7.12c0-2.22-1.18-3.75-3.19-3.75s-3.18,1.46-3.18,3.76v.13c0,2.34,1.34,3.78,3.22,3.78s3.22-1.54,3.22-3.84Zm4.16-5.81h3L212.65,9V1.44H215V12.88h-2.59l-4.75-8.16v8.15H205.3Zm-90,14.2h3.38l3.71,11.44h-2.71l-.78-2.54h-4.15L114,27.08h-2.43Zm0,7.08h3l-1.44-5Zm6.54-7.06h2.62l1.84,7.88,2-7.91h2.21l2,8,1.86-8h2.4L134,27.07H131.3l-2-7.9-2.1,7.91h-2.5Zm17.78,0H143l3.71,11.44H144l-.7-2.56h-4.15l-.85,2.54h-2.4Zm0,7.06h3l-1.43-5Zm8.16-7.06h4.1c2.71,0,4.42,1.1,4.42,3.47v.06a3,3,0,0,1-2.35,3l3,4.87H154.3l-2.74-4.42h-1.12v4.42h-2.58Zm4,5.27c1.3,0,2-.54,2-1.65v-.06c0-1.17-.7-1.57-2-1.57h-1.46v3.28ZM158,15.66h3.75c4,0,6,2.18,6,5.6v.13c0,3.42-2,5.71-6,5.71H158.1Zm3.65,9.43c2.3,0,3.39-1.3,3.39-3.67v-.13c0-2.35-1-3.62-3.43-3.62h-1v7.41Zm6.61-1.57h2.48c.11,1,.54,1.87,2.24,1.87,1.14,0,1.89-.62,1.89-1.52s-.48-1.23-2.16-1.49c-2.93-.38-4.13-1.26-4.13-3.47,0-2,1.63-3.41,4.16-3.41s4.08,1.15,4.29,3.42h-2.39a1.66,1.66,0,0,0-1.78-1.53h-.12c-1.14,0-1.71.53-1.71,1.3s.37,1.2,2.13,1.46c2.77.35,4.19,1.1,4.19,3.47,0,2-1.66,3.65-4.37,3.65-3.06,0-4.5-1.5-4.64-3.78Zm-56.8,6.34h2.63L116,37.72l2-7.91h2.21l2,8,1.86-8h2.4l-2.79,11.44H121l-2.07-7.91-2.1,7.91H114.3Zm15.86,0h2.61V41.28h-2.61Zm4.5,0h3l4.46,7.52V29.84h2.3V41.28H139l-4.77-8.15v8.15h-2.3Zm11.49,0h3l4.35,7.54V29.84H153V41.28h-2.59l-4.77-8.15v8.15h-2.3Zm11.49,0h7.48v2h-4.88v2.67h3.91v1.89h-3.91v2.85h5.14v2h-7.71Zm8.88,0h4.1c2.71,0,4.42,1.1,4.42,3.47v.06a3,3,0,0,1-2.35,3l3,4.87H170.2l-2.74-4.42H166.3v4.42h-2.58Zm4,5.27c1.3,0,2-.54,2-1.65v-.06c0-1.17-.7-1.57-2-1.57h-1.4v3.28Zm-55.84,14.7v-.11a5.66,5.66,0,0,1,5.48-5.83h.41a5.56,5.56,0,0,1,5.88,5.22q0,.27,0,.54v.07a5.89,5.89,0,0,1-11.78.06Zm9.08,0v-.11c0-2.22-1.18-3.75-3.19-3.75s-3.18,1.46-3.18,3.76v.13c0,2.34,1.34,3.78,3.22,3.78s3.15-1.54,3.15-3.84Zm3.93-5.76h4c2.79,0,4.37,1.23,4.37,3.65h0c0,2.42-1.68,3.57-4.29,3.57h-1.46v4.16h-2.58Zm3.89,5.47c1.26,0,1.94-.61,1.94-1.74v-.08c0-1.22-.7-1.7-1.94-1.7h-1.31v3.5Zm7.73-3.46H133.4v-2h8.79v2H139.1v9.43h-2.61Zm6.73-2h2.61v11.4h-2.61Zm4.5,0h3.43l2.67,7.12,2.64-7.12h3.36v11.4h-2.58v-8l-3.17,8h-.85l-3.18-8v8h-2.32Zm14,0h2.58v11.4h-2.61Zm3.58,11.08L170.76,46h-4.85V44h8.52v.3l-5.35,9.11h5.15v2H165.3ZM175.51,44h2.61V55.48h-2.61Zm4.5,0h3l4.29,7.54V44h2.3V55.48H187l-4.71-8.15v8.15H180Zm10.9,5.79v-.11a5.61,5.61,0,0,1,5.37-5.84h.46c2.54,0,4.82,1.17,5.09,4h-2.58a2.21,2.21,0,0,0-2.39-2h-.09c-2,0-3.15,1.49-3.15,3.83v.13c0,2.21.94,3.79,3.18,3.79a2.41,2.41,0,0,0,2.75-2.42H197V49.35h5.14v1.22c0,3.06-2,5.09-5.38,5.09a5.44,5.44,0,0,1-5.86-5.83Zm-178.08.89H7.07V44.81L32.91,19,15.3,1.49H1.3V15.34L14.88,28.88,1.3,42.45v14h14l9.1-9.08-4.1-4.1ZM7.07,12.95V7.26H13l11.82,11.8L19,24.85ZM56.3,42.52,42.75,29,56.3,15.47v-14h-14l-9.1,9.08,4.1,4.12,7.44-7.42h5.73v5.87L24.67,38.88,42.3,56.46h14ZM32.77,38.86l5.82-5.8L50.53,45v5.76H44.65Zm42.08-20H80c.21,2.41,1.5,4.16,4.51,4.16,2.83,0,4.16-1.36,4.16-3.6s-1.33-3.6-4-3.6h-2V12h1.82c2.64,0,3.85-1.19,3.85-3.28,0-1.78-1.15-3.11-3.46-3.11a3.91,3.91,0,0,0-4.13,3.68v.1h-5c.28-4.58,3.53-7.94,9.23-7.94,5.49,0,8.71,2.87,8.71,6.79,0,2.8-1.64,4.55-4.13,5.42a5.74,5.74,0,0,1,4.86,5.88c0,4.69-3.6,7.66-9.69,7.66-6.39-.06-9.63-3.31-9.84-8.38Z"/></svg>