<?xml version="1.0" encoding="UTF-8" standalone="no"?>
<svg width="188px" height="49px" viewBox="0 0 188 49" version="1.1" xmlns="http://www.w3.org/2000/svg" xmlns:xlink="http://www.w3.org/1999/xlink">
    <!-- Generator: Sketch 40.3 (33839) - http://www.bohemiancoding.com/sketch -->
    <title>awards-ixda</title>
    <desc>Created with Sketch.</desc>
    <defs></defs>
    <g id="Page-1" stroke="none" stroke-width="1" fill="none" fill-rule="evenodd">
        <g id="Mobile" transform="translate(-765.000000, -4463.000000)" fill="#C5C7CE">
            <g id="Group-35" transform="translate(159.000000, 3094.785156)">
                <g id="Group-20" transform="translate(2.000000, 1321.679688)">
                    <g id="awards-ixda" transform="translate(604.726562, 46.209175)">
                        <g>
                            <polyline id="Fill-1" points="57.9 6.2 53.4 9.2 53.4 4.9 58.5 1.3 62.9 1.3 62.9 23.5 57.9 23.5 57.9 6.2"></polyline>
                            <polygon id="Fill-2" points="97.3 1 99.6 1 99.6 11 97.3 11"></polygon>
                            <polyline id="Fill-3" points="101.5 1 104.1 1 107.9 7.6 107.9 1 109.9 1 109.9 11 107.6 11 103.5 3.9 103.5 11 101.5 11 101.5 1"></polyline>
                            <polyline id="Fill-4" points="113.5 2.8 110.8 2.8 110.8 1.1 118.5 1.1 118.5 2.8 115.8 2.8 115.8 11 113.5 11 113.5 2.8"></polyline>
                            <polyline id="Fill-5" points="119.5 1 126 1 126 2.7 121.8 2.7 121.8 5 125.3 5 125.3 6.6 121.8 6.6 121.8 9.1 126.3 9.1 126.3 10.8 119.6 10.8 119.5 1"></polyline>
                            <path d="M127.4,1 L130.9,1 C133.3,1 134.7,2 134.7,4.1 L134.7,4.2 C134.7,5.7 133.8,6.5 132.7,6.9 L135.4,11.1 L133,11.1 L130.6,7.3 L129.6,7.3 L129.6,11.1 L127.4,11.1 L127.4,1 L127.4,1 Z M130.9,5.7 C132.1,5.7 132.6,5.2 132.6,4.3 L132.6,4.2 C132.6,3.1 132,2.9 130.9,2.9 L129.7,2.9 L129.7,5.8 L130.9,5.8 L130.9,5.7 Z" id="Fill-6"></path>
                            <path d="M138.9,1 L141.9,1 L145.2,11 L142.8,11 L142.1,8.8 L138.5,8.8 L137.8,11 L135.7,11 C135.6,11 138.9,1 138.9,1 L138.9,1 Z M139,7.3 L141.7,7.3 L140.4,3 L139,7.3 L139,7.3 Z" id="Fill-7"></path>
                            <path d="M145,6.1 L145,6.1 C145,2.9 147.1,0.9 150,0.9 C152.4,0.9 154.2,2.1 154.4,4.5 L152.1,4.5 C151.9,3.3 151.2,2.7 150,2.7 C148.5,2.7 147.4,3.9 147.4,6 L147.4,6.1 C147.4,8.2 148.4,9.4 150,9.4 C151.2,9.4 152.1,8.7 152.3,7.5 L154.5,7.5 C154.2,10 152.5,11.2 150,11.2 C146.7,11.1 145,9.2 145,6.1" id="Fill-8"></path>
                            <polyline id="Fill-9" points="157.3 2.8 154.6 2.8 154.6 1.1 162.3 1.1 162.3 2.8 159.6 2.8 159.6 11 157.3 11 157.3 2.8"></polyline>
                            <polygon id="Fill-10" points="163.4 1 165.7 1 165.7 11 163.4 11"></polygon>
                            <path d="M166.9,6.1 L166.9,6.1 C166.9,3 169.1,0.9 172.1,0.9 C175.1,0.9 177.3,2.9 177.3,5.9 L177.3,6 C177.3,9 175.3,11.2 172.1,11.2 C168.8,11.1 166.9,9.1 166.9,6.1 L166.9,6.1 L166.9,6.1 Z M174.7,6.1 L174.7,6.1 C174.7,4.1 173.6,2.7 171.9,2.7 C170.2,2.7 169.1,3.9 169.1,6 L169.1,6.1 C169.1,8.1 170.3,9.4 171.9,9.4 C173.8,9.4 174.7,8.1 174.7,6.1 L174.7,6.1 Z" id="Fill-11"></path>
                            <polyline id="Fill-12" points="178.4 1 181 1 184.8 7.6 184.8 1 186.8 1 186.8 11 184.5 11 180.4 3.9 180.4 11 178.4 11 178.4 1"></polyline>
                            <path d="M99.8,13.5 L102.8,13.5 L106.1,23.5 L103.7,23.5 L103,21.3 L99.4,21.3 L98.7,23.5 L96.6,23.5 L99.8,13.5 L99.8,13.5 Z M99.8,19.6 L102.5,19.6 L101.2,15.3 L99.8,19.6 L99.8,19.6 Z" id="Fill-13"></path>
                            <polyline id="Fill-14" points="105.5 13.5 107.8 13.5 109.3 20.4 111 13.5 112.9 13.5 114.7 20.4 116.3 13.5 118.4 13.5 116 23.5 113.7 23.5 111.9 16.6 110.1 23.5 107.9 23.5 105.5 13.5"></polyline>
                            <path d="M121,13.5 L124,13.5 L127.3,23.5 L124.9,23.5 L124.2,21.3 L120.6,21.3 L119.9,23.5 L117.8,23.5 L121,13.5 L121,13.5 Z M121,19.6 L123.7,19.6 L122.4,15.3 L121,19.6 L121,19.6 Z" id="Fill-15"></path>
                            <path d="M128.2,13.5 L131.7,13.5 C134.1,13.5 135.5,14.5 135.5,16.6 L135.5,16.7 C135.5,18.2 134.6,19 133.5,19.4 L136.2,23.6 L133.8,23.6 L131.4,19.8 L130.4,19.8 L130.4,23.6 L128.2,23.6 L128.2,13.5 L128.2,13.5 Z M131.8,18 C133,18 133.5,17.5 133.5,16.6 L133.5,16.5 C133.5,15.4 132.9,15.2 131.8,15.2 L130.5,15.2 L130.5,18.1 C130.4,18 131.8,18 131.8,18 L131.8,18 Z" id="Fill-16"></path>
                            <path d="M137.1,13.5 L140.4,13.5 C143.9,13.5 145.7,15.4 145.7,18.4 L145.7,18.5 C145.7,21.5 144,23.5 140.4,23.5 L137.1,23.5 L137.1,13.5 L137.1,13.5 L137.1,13.5 Z M140.4,21.6 C142.4,21.6 143.4,20.4 143.4,18.4 L143.4,18.3 C143.4,16.3 142.5,15.1 140.4,15.1 L139.5,15.1 L139.5,21.5 L140.4,21.5 L140.4,21.6 L140.4,21.6 Z" id="Fill-17"></path>
                            <path d="M146.1,20.3 L148.3,20.3 C148.4,21.2 148.8,21.9 150.2,21.9 C151.2,21.9 151.8,21.3 151.8,20.6 C151.8,19.8 151.4,19.5 149.9,19.3 C147.3,18.9 146.3,18.1 146.3,16.2 C146.3,14.5 147.7,13.2 149.9,13.2 C152.1,13.2 153.4,14.3 153.6,16.2 L151.5,16.2 C151.4,15.3 150.8,14.9 149.9,14.9 C148.9,14.9 148.4,15.4 148.4,16.1 C148.4,16.8 148.7,17.2 150.2,17.3 C152.6,17.6 153.8,18.3 153.8,20.4 C153.8,22.2 152.4,23.6 150,23.6 C147.5,23.6 146.2,22.2 146.1,20.3" id="Fill-18"></path>
                            <polyline id="Fill-19" points="96.5 25.9 98.8 25.9 100.3 32.8 102 25.9 103.9 25.9 105.7 32.8 107.3 25.9 109.4 25.9 107 35.9 104.7 35.9 102.9 29 101.1 35.9 98.9 35.9 96.5 25.9"></polyline>
                            <polygon id="Fill-20" points="110.4 25.9 112.7 25.9 112.7 35.9 110.4 35.9"></polygon>
                            <polyline id="Fill-21" points="114.3 25.9 116.9 25.9 120.7 32.5 120.7 25.9 122.7 25.9 122.7 35.9 120.4 35.9 116.3 28.8 116.3 35.9 114.3 35.9 114.3 25.9"></polyline>
                            <polyline id="Fill-22" points="124.3 25.9 126.9 25.9 130.7 32.5 130.7 25.9 132.7 25.9 132.7 35.9 130.4 35.9 126.3 28.8 126.3 35.9 124.3 35.9 124.3 25.9"></polyline>
                            <polyline id="Fill-23" points="134.4 25.9 140.9 25.9 140.9 27.6 136.7 27.6 136.7 29.9 140.2 29.9 140.2 31.5 136.7 31.5 136.7 34 141.2 34 141.2 35.7 134.5 35.7 134.4 25.9"></polyline>
                            <path d="M142.1,25.9 L145.6,25.9 C148,25.9 149.4,26.9 149.4,29 L149.4,29.1 C149.4,30.6 148.5,31.4 147.4,31.8 L150.1,36 L147.7,36 L145.3,32.2 L144.3,32.2 L144.3,36 L142.1,36 L142.1,25.9 L142.1,25.9 Z M145.7,30.4 C146.9,30.4 147.4,29.9 147.4,29 C147.4,27.9 146.8,27.7 145.7,27.7 L144.5,27.7 L144.5,30.6 L145.7,30.4 L145.7,30.4 L145.7,30.4 Z" id="Fill-24"></path>
                            <path d="M96.8,43.2 L96.8,43.2 C96.8,40.1 99,38 102,38 C105,38 107.2,40 107.2,43 L107.2,43.1 C107.2,46.1 105.2,48.3 102,48.3 C98.8,48.4 96.8,46.2 96.8,43.2 L96.8,43.2 Z M104.7,43.2 L104.7,43.2 C104.7,41.2 103.6,39.8 101.9,39.8 C100.2,39.8 99.1,41 99.1,43.1 L99.1,43.2 C99.1,45.2 100.3,46.5 101.9,46.5 C103.7,46.6 104.7,45.2 104.7,43.2 L104.7,43.2 Z" id="Fill-25"></path>
                            <path d="M108.2,38.3 L111.7,38.3 C114.1,38.3 115.5,39.4 115.5,41.5 L115.5,41.6 C115.5,43.7 114.1,44.8 111.8,44.8 L110.6,44.8 L110.6,48.4 L108.4,48.4 L108.2,38.3 L108.2,38.3 L108.2,38.3 Z M111.5,42.9 C112.7,42.9 113.2,42.3 113.2,41.4 C113.2,40.3 112.6,40 111.5,40 L110.3,40 L110.3,43.1 L111.5,42.9 L111.5,42.9 L111.5,42.9 Z" id="Fill-26"></path>
                            <polyline id="Fill-27" points="118.2 40 115.5 40 115.5 38.3 123.2 38.3 123.2 40 120.5 40 120.5 48.2 118.2 48.2 118.2 40"></polyline>
                            <polygon id="Fill-28" points="124.2 38.3 126.5 38.3 126.5 48.3 124.2 48.3"></polygon>
                            <polyline id="Fill-29" points="128.1 38.3 131.1 38.3 133.4 44.5 135.7 38.3 138.7 38.3 138.7 48.3 136.5 48.3 136.5 41.3 133.7 48.3 132.9 48.3 130.1 41.3 130.1 48.3 128.1 48.3 128.1 38.3"></polyline>
                            <polygon id="Fill-30" points="140.3 38.3 142.6 38.3 142.6 48.3 140.3 48.3"></polygon>
                            <polyline id="Fill-31" points="143.5 47.9 148.3 39.9 144 39.9 144 38.2 151.5 38.2 151.5 38.5 146.8 46.5 151.3 46.5 151.3 48.3 143.5 48.3 143.5 47.9"></polyline>
                            <polygon id="Fill-32" points="152.4 38.3 154.7 38.3 154.7 48.3 152.4 48.3"></polygon>
                            <polyline id="Fill-33" points="156.3 38.3 158.9 38.3 162.7 44.9 162.7 38.3 164.7 38.3 164.7 48.3 162.4 48.3 158.3 41.2 158.3 48.3 156.3 48.3 156.3 38.3"></polyline>
                            <path d="M165.8,43.2 L165.8,43.2 C165.8,40.1 167.9,38 170.9,38 C173.1,38 175.1,39.1 175.3,41.5 L173.1,41.5 C172.9,40.3 172.1,39.8 170.9,39.8 C169.2,39.8 168.1,41.1 168.1,43.2 L168.1,43.3 C168.1,45.2 169,46.7 170.9,46.7 C172.6,46.7 173.3,45.7 173.3,44.6 L171.1,44.6 L171.1,43 L175.6,43 L175.6,44.1 C175.6,46.8 173.9,48.5 170.9,48.5 C167.6,48.4 165.8,46.2 165.8,43.2" id="Fill-34"></path>
                            <path d="M10.2,44.1 L5.2,44.1 L5.2,39 L27.7,16.5 L12.4,1.2 L0.1,1.2 L0.1,13.3 L12,25 L0.1,36.9 L0.1,49.2 L12.3,49.2 L20.3,41.2 L16.7,37.7 L10.2,44.1 L10.2,44.1 Z M5.1,11.1 L5.1,6.1 L10.3,6.1 L20.7,16.4 L15.6,21.5 L5.1,11.1 L5.1,11.1 Z" id="Fill-35"></path>
                            <path d="M48.1,37 L36.2,25.2 L48,13.4 L48,1.1 L35.8,1.1 L27.8,9.1 L31.4,12.7 L37.9,6.2 L42.9,6.2 L42.9,11.3 L20.4,33.8 L35.7,49.1 L48,49.1 L48.1,37 L48.1,37 L48.1,37 Z M27.6,33.6 L32.7,28.5 L43.2,38.9 L43.2,43.9 L38,43.9 L27.6,33.6 L27.6,33.6 L27.6,33.6 Z" id="Fill-36"></path>
                            <path d="M64.3,16.3 L68.8,16.3 C69,18.4 70.1,19.9 72.7,19.9 C75.2,19.9 76.3,18.7 76.3,16.7 C76.3,14.6 75.1,13.5 72.8,13.5 L71.1,13.5 L71.1,10.2 L72.7,10.2 C75,10.2 76.1,9.1 76.1,7.3 C76.1,5.8 75,4.6 73,4.6 C70.9,4.6 69.6,5.8 69.4,7.9 L65,7.9 C65.3,3.9 68.1,1 73.1,1 C77.9,1 80.7,3.5 80.7,6.9 C80.7,9.3 79.3,10.8 77.1,11.6 C79.6,12.2 81.3,14 81.3,16.8 C81.3,20.9 78.1,23.5 72.9,23.5 C67.3,23.6 64.5,20.7 64.3,16.3" id="Fill-37"></path>
                        </g>
                    </g>
                </g>
            </g>
        </g>
    </g>
</svg>