<?xml version="1.0" encoding="UTF-8" standalone="no"?>
<svg width="91px" height="68px" viewBox="0 0 91 68" version="1.1" xmlns="http://www.w3.org/2000/svg" xmlns:xlink="http://www.w3.org/1999/xlink">
    <!-- Generator: Sketch 40.3 (33839) - http://www.bohemiancoding.com/sketch -->
    <title>awards-stevie</title>
    <desc>Created with Sketch.</desc>
    <defs></defs>
    <g id="Page-1" stroke="none" stroke-width="1" fill="none" fill-rule="evenodd">
        <g id="Mobile" transform="translate(-514.000000, -4454.000000)" fill="#C5C7CE">
            <g id="Group-35" transform="translate(159.000000, 3094.785156)">
                <g id="Group-20" transform="translate(2.000000, 1321.679688)">
                    <g id="awards-stevie" transform="translate(353.500000, 37.209175)">
                        <g>
                            <path d="M28.5,60.4 C27.4,60.4 26.7,61.3 26.7,62.3 C26.7,63.3 27.5,64.3 28.6,64.3 C29.7,64.3 30.4,63.4 30.4,62.4 C30.4,61.3 29.6,60.4 28.5,60.4" id="Fill-1"></path>
                            <path d="M65.2,61.4 C65.2,60.8 64.8,60.4 64.1,60.4 L62.7,60.4 L62.7,62.2 L64.1,62.2 C64.7,62.3 65.2,61.9 65.2,61.4" id="Fill-2"></path>
                            <path d="M35.4,53.7 C35.4,53.1 35,52.7 34.3,52.7 L32.9,52.7 L32.9,54.5 L34.3,54.5 C34.9,54.6 35.4,54.2 35.4,53.7" id="Fill-3"></path>
                            <polyline id="Fill-4" points="46.1 55.2 48 55.2 47 53 46.1 55.2"></polyline>
                            <path d="M70.1,53.1 C70.1,52.7 69.8,52.4 69.4,52.4 C69,52.4 68.7,52.7 68.7,53.1 C68.7,53.4 68.8,53.6 69.1,54 C69.8,53.7 70.1,53.6 70.1,53.1" id="Fill-5"></path>
                            <path d="M28.1,56.6 C29.2,56.6 29.9,55.7 29.9,54.7 C29.9,53.7 29.1,52.7 28,52.7 C26.9,52.7 26.2,53.6 26.2,54.6 C26.2,55.6 26.9,56.6 28.1,56.6" id="Fill-6"></path>
                            <path d="M0.1,67.4 L89.7,67.4 L89.7,49.4 L0.1,49.4 L0.1,67.4 L0.1,67.4 Z M62.2,55.1 C61.1,54.8 60.4,54.4 60.4,53.5 C60.4,52.6 61.2,51.9 62.3,51.9 C63.1,51.9 63.7,52.2 64.3,52.6 L63.8,53.4 C63.3,53 62.8,52.8 62.3,52.8 C61.7,52.8 61.4,53.1 61.4,53.5 C61.4,54 61.7,54.2 62.7,54.4 C63.8,54.7 64.5,55.1 64.5,56 C64.5,57.1 63.7,57.6 62.5,57.6 C61.6,57.6 60.9,57.3 60.2,56.7 L60.8,56 C61.4,56.5 61.9,56.8 62.5,56.8 C63.1,56.8 63.5,56.5 63.5,56.1 C63.5,55.5 63.3,55.4 62.2,55.1 L62.2,55.1 L62.2,55.1 Z M55.4,51.8 L59.5,51.8 L59.5,52.7 L56.3,52.7 L56.3,54.1 L59.1,54.1 L59.1,55 L56.3,55 L56.3,56.5 L59.5,56.5 L59.5,57.4 L55.4,57.4 L55.4,51.8 L55.4,51.8 Z M28.1,51.8 C29.8,51.8 31,53 31,54.7 C31,56.2 29.8,57.6 28.1,57.6 C26.4,57.6 25.2,56.4 25.2,54.7 C25.1,53.1 26.3,51.8 28.1,51.8 L28.1,51.8 Z M7.7,65.2 C6.1,65.2 4.9,64 4.9,62.3 C4.9,60.7 6,59.4 7.8,59.4 C8.9,59.4 9.4,59.8 10,60.3 L9.3,61.1 C8.8,60.7 8.3,60.4 7.8,60.4 C6.7,60.4 6,61.3 6,62.3 C6,63.3 6.8,64.3 7.8,64.3 C8.5,64.3 8.9,64 9.4,63.5 L10.1,64.2 C9.5,64.7 8.7,65.2 7.7,65.2 L7.7,65.2 Z M15.4,62.7 C15.4,64.3 14.4,65.2 13,65.2 C11.6,65.2 10.6,64.3 10.6,62.8 L10.6,59.6 L11.6,59.6 L11.6,62.8 C11.6,63.9 12.2,64.4 13,64.4 C13.9,64.4 14.3,63.9 14.3,62.9 L14.3,59.7 L15.3,59.7 L15.4,62.7 L15.4,62.7 L15.4,62.7 L15.4,62.7 Z M18.5,65.2 C17.6,65.2 16.9,64.9 16.2,64.3 L16.8,63.6 C17.4,64.1 17.9,64.4 18.5,64.4 C19.1,64.4 19.5,64.1 19.5,63.7 C19.5,63.3 19.3,63.1 18.3,62.8 C17.2,62.5 16.5,62.1 16.5,61.2 C16.5,60.3 17.3,59.6 18.4,59.6 C19.2,59.6 19.8,59.9 20.4,60.3 L19.9,61.1 C19.4,60.7 18.9,60.5 18.4,60.5 C17.8,60.5 17.5,60.8 17.5,61.2 C17.5,61.7 17.8,61.9 18.8,62.1 C19.9,62.4 20.6,62.8 20.6,63.7 C20.4,64.5 19.6,65.2 18.5,65.2 L18.5,65.2 L18.5,65.2 Z M20.5,51.8 L24.6,51.8 L24.6,52.7 L21.4,52.7 L21.4,54.2 L24.2,54.2 L24.2,55.1 L21.4,55.1 L21.4,57.4 L20.4,57.4 L20.4,51.8 L20.5,51.8 Z M25.3,60.4 L23.6,60.4 L23.6,65 L22.6,65 L22.6,60.4 L20.9,60.4 L20.9,59.5 L25.4,59.5 L25.3,60.4 L25.3,60.4 L25.3,60.4 Z M28.5,65.2 C26.8,65.2 25.6,64 25.6,62.3 C25.6,60.8 26.8,59.4 28.5,59.4 C30.2,59.4 31.4,60.6 31.4,62.3 C31.4,63.8 30.2,65.2 28.5,65.2 L28.5,65.2 Z M31.9,51.8 L34.4,51.8 C35.6,51.8 36.4,52.5 36.4,53.5 C36.4,54.5 35.8,54.9 35.1,55.2 L36.6,57.3 L35.5,57.3 L34.2,55.4 L33,55.4 L33,57.3 L32,57.3 L31.9,51.8 L31.9,51.8 L31.9,51.8 Z M37.7,65.1 L36.7,65.1 L36.7,61.2 L35,63.8 L33.3,61.2 L33.3,65.1 L32.3,65.1 L32.3,59.5 L33.4,59.5 L35.1,62.1 L36.8,59.5 L37.9,59.5 L37.9,65.1 L37.7,65.1 L37.7,65.1 L37.7,65.1 Z M43.1,65.1 L39,65.1 L39,59.5 L43.1,59.5 L43.1,60.4 L39.9,60.4 L39.9,61.8 L42.7,61.8 L42.7,62.7 L39.9,62.7 L39.9,64.2 L43.1,64.2 L43.1,65.1 L43.1,65.1 Z M41.9,57.5 C41,57.5 40.3,57.2 39.6,56.6 L40.2,55.9 C40.8,56.4 41.3,56.7 41.9,56.7 C42.5,56.7 42.9,56.4 42.9,56 C42.9,55.6 42.7,55.4 41.7,55.1 C40.6,54.8 39.9,54.4 39.9,53.5 C39.9,52.5 40.7,51.9 41.8,51.9 C42.6,51.9 43.2,52.2 43.8,52.6 L43.3,53.4 C42.8,53 42.3,52.8 41.8,52.8 C41.3,52.8 40.9,53.1 40.9,53.5 C40.9,54 41.2,54.2 42.2,54.4 C43.3,54.7 44,55.1 44,56 C43.9,56.9 43.1,57.5 41.9,57.5 L41.9,57.5 L41.9,57.5 Z M47.7,65.1 L46.4,63.2 L45.2,63.2 L45.2,65.1 L44.2,65.1 L44.2,59.5 L46.7,59.5 C47.9,59.5 48.7,60.2 48.7,61.2 C48.7,62.2 48.1,62.6 47.4,62.9 L48.9,65 L47.7,65 L47.7,65.1 L47.7,65.1 Z M49,57.5 L48.4,56.2 L45.8,56.2 L45.2,57.5 L44.2,57.5 L46.6,51.9 L47.5,51.9 L49.9,57.5 L49,57.5 L49,57.5 L49,57.5 Z M50.7,51.8 L51.7,51.8 L51.7,56.5 L54.6,56.5 L54.6,57.4 L50.8,57.4 L50.8,51.8 L50.7,51.8 Z M53.7,65.2 C52.8,65.2 52.1,64.9 51.4,64.3 L52,63.6 C52.6,64.1 53.1,64.4 53.7,64.4 C54.3,64.4 54.7,64.1 54.7,63.7 C54.7,63.3 54.5,63.1 53.5,62.8 C52.4,62.5 51.7,62.1 51.7,61.2 C51.7,60.3 52.5,59.6 53.6,59.6 C54.4,59.6 55,59.9 55.6,60.3 L55.1,61.1 C54.6,60.7 54.1,60.5 53.6,60.5 C53.1,60.5 52.7,60.8 52.7,61.2 C52.7,61.7 53,61.9 54,62.1 C55.1,62.4 55.8,62.8 55.8,63.7 C55.6,64.5 54.9,65.2 53.7,65.2 L53.7,65.2 L53.7,65.2 Z M60.7,65.1 L56.6,65.1 L56.6,59.5 L60.7,59.5 L60.7,60.4 L57.5,60.4 L57.5,61.8 L60.3,61.8 L60.3,62.7 L57.5,62.7 L57.5,64.2 L60.7,64.2 L60.7,65.1 L60.7,65.1 Z M65.2,65.1 L63.9,63.2 L62.7,63.2 L62.7,65.1 L61.7,65.1 L61.7,59.5 L64.2,59.5 C65.4,59.5 66.2,60.2 66.2,61.2 C66.2,62.2 65.6,62.6 64.9,62.9 L66.4,65 L65.2,65 L65.2,65.1 L65.2,65.1 Z M69.7,65.1 L68.8,65.1 L66.5,59.5 L67.6,59.5 L69.2,63.7 L70.8,59.5 L71.9,59.5 L69.7,65.1 L69.7,65.1 L69.7,65.1 Z M71.3,57.6 L70.5,56.8 C70,57.3 69.4,57.6 68.8,57.6 C67.7,57.6 67,57 67,56 C67,55.2 67.4,54.8 68.1,54.5 C67.8,54.1 67.6,53.7 67.6,53.4 C67.6,52.6 68.2,52 69.2,52 C70.1,52 70.6,52.6 70.6,53.3 C70.6,54.1 70.1,54.4 69.4,54.7 L70.4,55.7 C70.6,55.4 70.8,55 71,54.6 L71.8,55 C71.6,55.5 71.3,55.9 71,56.2 L71.9,57.1 L71.3,57.6 L71.3,57.6 L71.3,57.6 Z M72.8,59.5 L73.8,59.5 L73.8,65.1 L72.8,65.1 L72.8,59.5 L72.8,59.5 Z M77.6,65.2 C76,65.2 74.8,64 74.8,62.3 C74.8,60.7 75.9,59.4 77.7,59.4 C78.8,59.4 79.3,59.8 79.9,60.3 L79.2,61.1 C78.7,60.7 78.2,60.4 77.7,60.4 C76.6,60.4 75.9,61.3 75.9,62.3 C75.9,63.3 76.7,64.3 77.7,64.3 C78.4,64.3 78.8,64 79.3,63.5 L79.9,64.2 C79.3,64.7 78.6,65.2 77.6,65.2 L77.6,65.2 L77.6,65.2 Z M84.7,65.1 L80.6,65.1 L80.6,59.5 L84.7,59.5 L84.7,60.4 L81.5,60.4 L81.5,61.8 L84.3,61.8 L84.3,62.7 L81.5,62.7 L81.5,64.2 L84.7,64.2 L84.7,65.1 L84.7,65.1 Z" id="Fill-7"></path>
                            <path d="M47.7,61.4 C47.7,60.8 47.3,60.4 46.6,60.4 L45.2,60.4 L45.2,62.2 L46.6,62.2 C47.1,62.3 47.7,61.9 47.7,61.4" id="Fill-8"></path>
                            <path d="M68.2,55.7 C68.2,56.2 68.6,56.6 69.2,56.6 C69.6,56.6 70,56.4 70.3,56.1 L69.1,54.9 C68.4,55.2 68.2,55.5 68.2,55.7" id="Fill-9"></path>
                            <path d="M0.1,34.9 L89.7,34.9 L89.7,16.9 L0.1,16.9 L0.1,34.9 L0.1,34.9 Z M30,30.6 C28.7,31.7 26.6,32.6 24.4,32.6 C20.4,32.6 17.3,29.8 17.3,25.8 C17.3,22 20.3,19 24.3,19 C26.6,19 28.2,19.7 29.6,20.9 L27.5,23.5 C26.5,22.7 25.7,22.3 24.3,22.3 C22.4,22.3 20.9,23.9 20.9,25.9 C20.9,28 22.3,29.5 24.4,29.5 C25.3,29.5 25.9,29.3 26.5,28.9 L26.5,27.3 L23.9,27.3 L23.9,24.6 L29.9,24.6 L30,30.6 L30,30.6 L30,30.6 Z M46,25.9 C46,29.6 42.9,32.7 38.9,32.7 C34.9,32.7 31.9,29.6 31.9,25.9 C31.9,22.2 35,19.1 39,19.1 C43,19.2 46,22.1 46,25.9 L46,25.9 Z M58.2,32.6 L48.2,32.6 L48.2,19.5 L51.8,19.5 L51.8,29.5 L58.1,29.5 L58.2,32.6 L58.2,32.6 L58.2,32.6 Z M72.6,25.9 C72.6,29.7 69.8,32.5 65.1,32.5 L60.1,32.5 L60.1,19.4 L65.2,19.4 C69.8,19.4 72.6,22 72.6,25.9 L72.6,25.9 Z" id="Fill-10"></path>
                            <path d="M65.2,22.5 L63.8,22.5 L63.8,29.2 L65.2,29.2 C67.4,29.2 68.8,28 68.8,25.8 C68.7,23.9 67.3,22.5 65.2,22.5" id="Fill-11"></path>
                            <path d="M38.9,22.4 C36.9,22.4 35.5,24 35.5,25.9 C35.5,27.8 36.8,29.4 38.9,29.4 C40.9,29.4 42.3,27.8 42.3,25.9 C42.2,23.9 41,22.4 38.9,22.4" id="Fill-12"></path>
                            <path d="M0.8,46.4 C0.6,46.3 0.6,46.3 0.6,46 C0.6,45.4 0.6,44.7 0.7,44.6 C0.7,44.4 0.7,44.3 0.8,44.3 C0.9,44.3 0.9,44.4 0.9,44.5 C0.9,44.7 0.9,44.9 1,45.1 C1.2,46 1.9,46.2 2.5,46.2 C3.5,46.2 3.9,45.5 3.9,45 C3.9,44.5 3.7,43.9 2.8,43.2 L2.3,42.8 C1.2,41.8 0.8,41.1 0.8,40.1 C0.8,38.9 1.8,38 3.3,38 C4,38 4.4,38.1 4.7,38.2 C4.8,38.2 4.9,38.3 4.9,38.3 L4.9,39.6 C4.9,39.9 4.9,40 4.8,40 C4.7,40 4.7,39.9 4.7,39.8 C4.7,39.7 4.6,39.3 4.4,39 C4.2,38.8 3.9,38.4 3.3,38.4 C2.5,38.4 2.1,38.9 2.1,39.5 C2.1,40 2.4,40.5 3.2,41.1 L3.5,41.3 C4.7,42.4 5.2,43.1 5.2,44.2 C5.2,44.9 5,45.6 4.2,46.1 C3.6,46.5 3.1,46.6 2.5,46.6 C1.5,46.7 1.1,46.7 0.8,46.4" id="Fill-13"></path>
                            <path d="M8.4,38.8 L6.8,38.8 C6.2,38.8 5.9,38.9 5.7,39.1 C5.6,39.3 5.5,39.4 5.5,39.5 C5.5,39.6 5.4,39.6 5.4,39.6 C5.3,39.6 5.3,39.5 5.3,39.4 C5.3,39.2 5.5,38.2 5.5,38.1 C5.5,37.9 5.6,37.9 5.6,37.9 C5.7,37.9 5.8,38 6.1,38 C6.4,38 6.8,38.1 7.2,38.1 L11.4,38.1 C12.1,38.1 12.4,38 12.5,38 C12.6,38 12.6,38.1 12.6,38.2 L12.6,39.5 C12.6,39.6 12.6,39.7 12.5,39.7 C12.4,39.7 12.4,39.6 12.4,39.5 L12.4,39.4 C12.4,39.1 12.1,38.8 11.2,38.7 L9.9,38.7 L9.9,43.3 C9.9,44.4 9.9,45.2 10,45.7 C10,46 10.1,46.3 10.4,46.3 L11,46.3 C11.1,46.3 11.2,46.3 11.2,46.4 C11.2,46.5 11.1,46.5 11,46.5 L8,46.5 C7.9,46.5 7.8,46.5 7.8,46.4 C7.8,46.3 7.8,46.3 8,46.3 L8.4,46.3 C8.6,46.3 8.7,46 8.7,45.7 C8.8,45.2 8.8,44.4 8.8,43.3 L8.8,38.8" id="Fill-14"></path>
                            <path d="M13.9,41.3 L13.9,38.9 C13.9,38.5 13.8,38.3 13.4,38.2 L13,38.2 C12.9,38.2 12.8,38.2 12.8,38.1 C12.8,38 12.9,38 13,38 L17.2,38 C17.4,38 17.6,38 17.7,37.9 L17.9,37.9 C18,37.9 18,37.9 18,38 C18,38.1 17.9,38.2 17.9,38.8 C17.9,38.9 17.9,39.4 17.8,39.6 C17.8,39.7 17.8,39.7 17.7,39.7 C17.6,39.7 17.6,39.6 17.6,39.5 C17.6,39.4 17.6,39.2 17.5,39.1 C17.4,38.9 17.3,38.7 16.8,38.7 L15.3,38.7 C15.2,38.7 15.2,38.7 15.2,38.8 L15.2,41.7 C15.2,41.8 15.2,41.8 15.3,41.8 L17,41.8 C17.3,41.8 17.4,41.7 17.5,41.6 C17.6,41.5 17.6,41.4 17.7,41.4 C17.7,41.4 17.8,41.4 17.8,41.5 C17.8,41.6 17.7,41.8 17.7,42.4 L17.7,43.2 C17.7,43.3 17.7,43.4 17.6,43.4 C17.5,43.4 17.5,43.4 17.5,43.3 L17.5,42.9 C17.4,42.7 17.3,42.5 16.9,42.4 L15.4,42.4 C15.3,42.4 15.3,42.4 15.3,42.5 L15.3,45.1 C15.3,45.9 15.5,46.1 16.5,46.1 C16.8,46.1 17.3,46.1 17.5,46 C17.7,45.9 17.9,45.6 18,45.1 C18,45 18,44.9 18.1,44.9 C18.2,44.9 18.2,45 18.2,45.1 C18.2,45.4 18.1,46.2 18.1,46.3 C18,46.6 17.9,46.6 17.5,46.6 C15.9,46.6 15.2,46.5 14.5,46.5 L13.2,46.5 C13.1,46.5 13,46.5 13,46.4 C13,46.3 13,46.3 13.2,46.3 L13.6,46.3 C13.8,46.3 13.9,46 13.9,45.7 C14,45.2 14,44.4 14,43.3 L13.9,41.3" id="Fill-15"></path>
                            <path d="M19.3,39.3 C19,38.7 18.9,38.5 18.5,38.4 L18.1,38.4 C18,38.4 18,38.4 18,38.3 C18,38.2 18.1,38.2 18.3,38.2 L21.2,38.2 C21.3,38.2 21.5,38.2 21.5,38.3 C21.5,38.4 21.4,38.4 21.3,38.4 C21.1,38.4 21,38.4 20.9,38.5 C20.8,38.6 20.8,38.6 20.8,38.7 C20.8,38.9 20.9,39.2 21.1,39.6 L22.9,44.7 C23.4,43.5 24.7,39.8 25,39.1 C25.1,38.9 25.1,38.8 25.1,38.7 C25.1,38.6 25.1,38.5 25,38.5 C24.9,38.5 24.7,38.4 24.6,38.4 C24.5,38.4 24.4,38.4 24.4,38.3 C24.4,38.2 24.5,38.2 24.7,38.2 L26.8,38.2 C26.9,38.2 27,38.2 27,38.3 C27,38.4 26.9,38.4 26.8,38.4 C26.7,38.4 26.5,38.4 26.3,38.5 C26.2,38.6 26,38.8 25.7,39.6 C25.3,40.7 25,41.2 24.5,42.7 C23.8,44.3 23.4,45.6 23.1,46.1 C22.8,46.8 22.7,47 22.6,47 C22.5,47 22.4,46.8 22.2,46.3 L19.3,39.3" id="Fill-16"></path>
                            <path d="M27.6,41.3 L27.6,38.9 C27.6,38.5 27.5,38.3 27.2,38.2 L26.8,38.2 C26.7,38.2 26.6,38.2 26.6,38.1 C26.6,38 26.7,38 26.9,38 L29.6,38 C29.7,38 29.8,38 29.8,38.1 C29.8,38.2 29.7,38.2 29.6,38.2 L29.3,38.2 C29,38.3 28.9,38.5 28.9,38.9 L28.9,45.8 C28.9,46.1 29,46.3 29.3,46.4 L29.9,46.4 C30,46.4 30.1,46.4 30.1,46.5 C30.1,46.6 30,46.6 29.9,46.6 L26.9,46.6 C26.8,46.6 26.7,46.6 26.7,46.5 C26.7,46.4 26.7,46.4 26.9,46.4 L27.3,46.4 C27.5,46.4 27.6,46.2 27.6,45.8 C27.7,45.3 27.7,44.5 27.7,43.3 L27.6,41.3" id="Fill-17"></path>
                            <path d="M31.8,41.3 L31.8,38.9 C31.8,38.5 31.7,38.3 31.3,38.2 L30.9,38.2 C30.8,38.2 30.7,38.2 30.7,38.1 C30.7,38 30.8,38 30.9,38 L35.1,38 C35.3,38 35.5,38 35.6,37.9 L35.8,37.9 C35.9,37.9 35.9,37.9 35.9,38 C35.9,38.1 35.8,38.2 35.8,38.8 C35.8,38.9 35.8,39.4 35.7,39.6 C35.7,39.7 35.7,39.7 35.6,39.7 C35.5,39.7 35.5,39.6 35.5,39.5 C35.5,39.4 35.5,39.2 35.4,39.1 C35.3,38.9 35.2,38.7 34.7,38.7 L33.2,38.7 C33.1,38.7 33.1,38.7 33.1,38.8 L33.1,41.7 C33.1,41.8 33.1,41.8 33.2,41.8 L34.9,41.8 C35.2,41.8 35.3,41.7 35.4,41.6 C35.5,41.5 35.5,41.4 35.6,41.4 C35.6,41.4 35.7,41.4 35.7,41.5 C35.7,41.6 35.6,41.8 35.6,42.4 L35.6,43.2 C35.6,43.3 35.6,43.4 35.5,43.4 C35.4,43.4 35.4,43.4 35.4,43.3 L35.4,42.9 C35.3,42.7 35.2,42.5 34.8,42.4 L33.3,42.4 C33.2,42.4 33.2,42.4 33.2,42.5 L33.2,45.1 C33.2,45.9 33.4,46.1 34.4,46.1 C34.7,46.1 35.2,46.1 35.4,46 C35.7,45.9 35.8,45.6 35.9,45.1 C35.9,45 35.9,44.9 36,44.9 C36.1,44.9 36.1,45 36.1,45.1 C36.1,45.4 36,46.2 36,46.3 C35.9,46.6 35.8,46.6 35.4,46.6 C33.8,46.6 33.1,46.5 32.4,46.5 L31.1,46.5 C31,46.5 30.9,46.5 30.9,46.4 C30.9,46.3 30.9,46.3 31.1,46.3 L31.5,46.3 C31.7,46.3 31.8,46 31.8,45.7 C31.9,45.2 31.9,44.4 31.9,43.3 L31.8,41.3" id="Fill-18"></path>
                            <path d="M36.4,39.8 C36.4,38.8 37.2,38.1 38.1,38.1 C39.1,38.1 39.8,38.9 39.8,39.8 C39.8,40.8 39,41.5 38.1,41.5 C37.1,41.6 36.4,41 36.4,39.8 L36.4,39.8 Z M38.1,41.3 C38.9,41.3 39.5,40.7 39.5,39.9 C39.5,39 38.9,38.5 38.1,38.5 C37.3,38.5 36.7,39.1 36.7,39.9 C36.7,40.7 37.3,41.3 38.1,41.3 L38.1,41.3 Z M37.7,41 L37.4,41 L37.4,39 L38.2,39 C38.7,39 38.9,39.2 38.9,39.6 C38.9,40 38.7,40.1 38.4,40.2 L39,41.1 L38.6,41.1 L38.1,40.2 L37.7,40.2 L37.7,41 L37.7,41 L37.7,41 Z M38.1,39.7 C38.4,39.7 38.6,39.7 38.6,39.4 C38.6,39.1 38.4,39.1 38.1,39.1 L37.7,39.1 L37.7,39.7 L38.1,39.7 L38.1,39.7 Z" id="Fill-19"></path>
                            <path d="M42.5,39.3 C42.4,38.9 42.2,38.6 42.1,38.5 C42,38.4 41.8,38.4 41.7,38.4 C41.6,38.4 41.5,38.4 41.5,38.3 C41.5,38.2 41.6,38.2 41.7,38.2 L44.1,38.2 C44.3,38.2 44.3,38.2 44.3,38.3 C44.3,38.4 44.2,38.4 44.1,38.4 L43.8,38.4 C43.7,38.4 43.7,38.5 43.7,38.7 C43.7,38.9 43.8,39.3 43.9,39.8 C44.1,40.6 45,43.9 45.2,44.6 L47.3,38.8 C47.4,38.5 47.5,38.4 47.6,38.4 C47.7,38.4 47.8,38.6 47.9,39 L50.1,44.6 C50.3,43.8 51.2,40.9 51.5,39.5 C51.6,39.2 51.6,39 51.6,38.8 C51.6,38.6 51.5,38.4 51.1,38.4 C51,38.4 50.9,38.4 50.9,38.3 C50.9,38.2 51,38.2 51.2,38.2 L53.2,38.2 C53.3,38.2 53.4,38.2 53.4,38.3 C53.4,38.4 53.3,38.4 53.2,38.4 C53.1,38.4 52.9,38.4 52.8,38.5 C52.5,38.6 52.4,39.1 52.2,39.6 C51.7,41 50.6,44.6 50.1,46.3 C50,46.7 49.9,46.9 49.8,46.9 C49.7,46.9 49.6,46.8 49.5,46.3 L47.3,40.7 C47.1,41.3 45.7,45.3 45.2,46.3 C45,46.8 44.9,46.9 44.8,46.9 C44.7,46.9 44.6,46.8 44.5,46.5 L42.5,39.3" id="Fill-20"></path>
                            <path d="M54.4,41.3 L54.4,38.9 C54.4,38.5 54.3,38.3 54,38.2 L53.6,38.2 C53.5,38.2 53.4,38.2 53.4,38.1 C53.4,38 53.5,38 53.7,38 L56.4,38 C56.5,38 56.6,38 56.6,38.1 C56.6,38.2 56.5,38.2 56.4,38.2 L56.1,38.2 C55.8,38.3 55.7,38.5 55.7,38.9 L55.7,45.8 C55.7,46.1 55.8,46.3 56.1,46.4 L56.7,46.4 C56.8,46.4 56.9,46.4 56.9,46.5 C56.9,46.6 56.8,46.6 56.7,46.6 L53.7,46.6 C53.6,46.6 53.5,46.6 53.5,46.5 C53.5,46.4 53.5,46.4 53.7,46.4 L54.1,46.4 C54.3,46.4 54.4,46.2 54.4,45.8 C54.5,45.3 54.5,44.5 54.5,43.3 L54.4,41.3" id="Fill-21"></path>
                            <path d="M59.2,45 C59.2,45.9 59.4,46.1 59.6,46.2 C59.8,46.3 60,46.3 60.2,46.3 C60.3,46.3 60.4,46.3 60.4,46.4 C60.4,46.5 60.3,46.5 60.1,46.5 L57.6,46.5 C57.5,46.5 57.4,46.5 57.4,46.4 C57.4,46.3 57.5,46.3 57.6,46.3 C57.7,46.3 57.9,46.3 58.1,46.2 C58.4,46.1 58.4,45.8 58.4,44.8 L58.5,38.2 C58.5,38 58.5,37.8 58.6,37.8 C58.7,37.8 58.8,38 59,38.2 C59.1,38.4 60.7,40.2 62.3,41.8 C63.1,42.6 64.5,44.2 64.6,44.4 L64.7,44.4 L64.6,39.3 C64.6,38.6 64.5,38.4 64.2,38.2 C64,38.1 63.8,38.1 63.6,38.1 C63.5,38.1 63.4,38.1 63.4,38 C63.4,37.9 63.5,37.9 63.7,37.9 L66,37.9 C66.1,37.9 66.3,37.9 66.3,38 C66.3,38.1 66.2,38.1 66.1,38.1 L65.8,38.1 C65.5,38.2 65.4,38.4 65.4,39.1 L65.3,46.2 C65.3,46.5 65.3,46.6 65.2,46.6 C65.1,46.6 64.9,46.5 64.8,46.3 C64.1,45.6 62.8,44.2 61.6,42.9 C60.5,41.7 59.3,40.3 59.1,40 L59.2,45" id="Fill-22"></path>
                            <path d="M68,45 C68,45.9 68.2,46.1 68.4,46.2 C68.6,46.3 68.8,46.3 69,46.3 C69.1,46.3 69.2,46.3 69.2,46.4 C69.2,46.5 69.1,46.5 68.9,46.5 L66.4,46.5 C66.3,46.5 66.2,46.5 66.2,46.4 C66.2,46.3 66.3,46.3 66.4,46.3 C66.5,46.3 66.7,46.3 66.9,46.2 C67.2,46.1 67.2,45.8 67.2,44.8 L67.3,38.2 C67.3,38 67.3,37.8 67.4,37.8 C67.5,37.8 67.6,38 67.8,38.2 C67.9,38.4 69.5,40.2 71.1,41.8 C71.9,42.6 73.3,44.2 73.4,44.4 L73.5,44.4 L73.4,39.3 C73.4,38.6 73.3,38.4 73,38.2 C72.8,38.1 72.6,38.1 72.4,38.1 C72.3,38.1 72.2,38.1 72.2,38 C72.2,37.9 72.3,37.9 72.5,37.9 L74.8,37.9 C74.9,37.9 75.1,37.9 75.1,38 C75.1,38.1 75,38.1 74.9,38.1 L74.6,38.1 C74.3,38.2 74.2,38.4 74.2,39.1 L74.1,46.2 C74.1,46.5 74.1,46.6 74,46.6 C73.9,46.6 73.7,46.5 73.6,46.3 C72.9,45.6 71.6,44.2 70.4,42.9 C69.3,41.7 68.1,40.3 67.9,40 L68,45" id="Fill-23"></path>
                            <path d="M76.7,41.3 L76.7,38.9 C76.7,38.5 76.6,38.3 76.2,38.2 L75.8,38.2 C75.7,38.2 75.6,38.2 75.6,38.1 C75.6,38 75.7,38 75.8,38 L80,38 C80.2,38 80.4,38 80.5,37.9 L80.7,37.9 C80.8,37.9 80.8,37.9 80.8,38 C80.8,38.1 80.7,38.2 80.7,38.8 C80.7,38.9 80.7,39.4 80.6,39.6 C80.6,39.7 80.6,39.7 80.5,39.7 C80.4,39.7 80.4,39.6 80.4,39.5 C80.4,39.4 80.4,39.2 80.3,39.1 C80.2,38.9 80.1,38.7 79.6,38.7 L78.1,38.7 C78,38.7 78,38.7 78,38.8 L78,41.7 C78,41.8 78,41.8 78.1,41.8 L79.8,41.8 C80.1,41.8 80.2,41.7 80.3,41.6 C80.4,41.5 80.4,41.4 80.5,41.4 C80.5,41.4 80.6,41.4 80.6,41.5 C80.6,41.6 80.5,41.8 80.5,42.4 L80.5,43.2 C80.5,43.3 80.5,43.4 80.4,43.4 C80.3,43.4 80.3,43.4 80.3,43.3 L80.3,42.9 C80.2,42.7 80.1,42.5 79.7,42.4 L78.2,42.4 C78.1,42.4 78.1,42.4 78.1,42.5 L78.1,45.1 C78.1,45.9 78.3,46.1 79.3,46.1 C79.6,46.1 80.1,46.1 80.3,46 C80.6,45.9 80.7,45.6 80.8,45.1 C80.8,45 80.8,44.9 80.9,44.9 C81,44.9 81,45 81,45.1 C81,45.4 80.9,46.2 80.9,46.3 C80.8,46.6 80.7,46.6 80.3,46.6 C78.7,46.6 78,46.5 77.3,46.5 L76,46.5 C75.9,46.5 75.8,46.5 75.8,46.4 C75.8,46.3 75.8,46.3 76,46.3 L76.4,46.3 C76.6,46.3 76.7,46 76.7,45.7 C76.8,45.2 76.8,44.4 76.8,43.3 L76.7,41.3" id="Fill-24"></path>
                            <path d="M82.6,41.3 L82.6,38.9 C82.6,38.5 82.5,38.3 82.1,38.2 L81.7,38.2 C81.6,38.2 81.5,38.2 81.5,38.1 C81.5,38 81.6,38 81.7,38 L84.7,38 C85.4,38 86,38.1 86.6,38.5 C86.9,38.7 87.4,39.3 87.4,40 C87.4,40.9 87.1,41.6 86,42.5 C87,43.7 87.7,44.8 88.3,45.5 C88.9,46.2 89.4,46.3 89.4,46.3 L89.7,46.3 C89.8,46.3 89.8,46.3 89.8,46.4 C89.8,46.5 89.7,46.5 89.6,46.5 L88.5,46.5 C87.9,46.5 87.6,46.4 87.4,46.3 C86.9,46 86.5,45.5 86,44.7 C85.6,44.1 85,43.4 84.9,43.2 C84.8,43.1 84.8,43.1 84.7,43.1 L83.7,43.1 C83.6,43.1 83.6,43.1 83.6,43.2 L83.6,43.4 C83.6,44.5 83.6,45.3 83.7,45.8 C83.7,46.1 83.8,46.4 84.1,46.4 L84.6,46.4 C84.7,46.4 84.7,46.4 84.7,46.5 C84.7,46.6 84.6,46.6 84.5,46.6 L81.6,46.6 C81.5,46.6 81.4,46.6 81.4,46.5 C81.4,46.4 81.4,46.4 81.6,46.4 L82,46.4 C82.2,46.4 82.3,46.1 82.3,45.8 C82.4,45.3 82.4,44.5 82.4,43.4 L82.4,41.4 L82.6,41.3 L82.6,41.3 L82.6,41.3 Z M83.9,42.1 C83.9,42.2 83.9,42.3 84,42.3 C84.2,42.4 84.6,42.4 84.8,42.4 C85.2,42.4 85.4,42.4 85.6,42.2 C85.9,41.9 86.3,41.4 86.3,40.5 C86.3,38.9 85.3,38.5 84.7,38.5 L84.1,38.5 C84,38.5 84,38.6 84,38.7 L84,42.1 L83.9,42.1 Z" id="Fill-25"></path>
                            <path d="M3.3,13 C3.1,13 2.9,12.9 2.9,12.8 C2.9,12.7 3.2,12.5 3.5,12.4 C7.6,10.4 13.4,7.9 13.4,4.5 C13.4,1.9 10.9,1.4 9.4,1.4 C8.2,1.4 7.2,1.5 6.3,2 C5.6,2.4 5.1,3.1 5.1,3.5 C5.1,3.7 5,3.8 4.7,3.8 C4.5,3.8 4.5,3.7 4.4,3.5 C4.4,3.3 4.2,2 4.2,1.5 C4.2,1.3 4.2,1.3 4.6,1.2 C5.7,0.9 7.3,0.6 9.9,0.6 C15.1,0.6 17.2,2.1 17.2,4 C17.2,7.2 11,9.9 7.1,11.6 C6.9,11.7 7,11.7 7.2,11.7 L9.2,11.7 C9.7,11.7 13.1,11.7 14.2,11.6 C16.2,11.5 17.2,10.9 17.6,10.2 C17.7,10 17.8,9.9 18,9.9 C18.2,9.9 18.2,10.1 18.2,10.2 C18.2,10.5 17.6,11.9 17.3,12.5 C17.1,13 16.6,13 14.8,13 L3.3,13" id="Fill-26"></path>
                            <path d="M34.9,13.4 C29.2,13.4 27.6,9.7 27.6,7.4 C27.6,3.6 30,0.7 35.4,0.7 C41.1,0.7 42.7,4.1 42.7,6.7 C42.6,10.6 39.8,13.4 34.9,13.4 L34.9,13.4 Z M34.8,1.4 C32.6,1.4 31.1,3 31.1,6.8 C31.1,9.6 32.3,12.7 35.6,12.7 C38,12.7 39.4,10.5 39.4,7.3 C39.3,4.4 37.9,1.4 34.8,1.4 L34.8,1.4 Z" id="Fill-27"></path>
                            <path d="M56.9,5.7 L56.9,3.6 C56.9,3.2 56.9,3 56.4,3 C55.8,3 53.6,3.7 53,3.8 C52.8,3.8 52.7,3.9 52.6,3.9 C52.5,3.9 52.4,3.8 52.4,3.7 C52.4,3.6 52.6,3.5 52.7,3.5 C52.8,3.5 58.4,1.4 59.4,1 C59.7,0.9 59.9,0.8 60.2,0.8 C60.5,0.8 60.6,1 60.6,1.2 C60.6,1.3 60.4,2.9 60.4,5.4 L60.4,8.4 C60.4,9.9 60.4,11.4 60.5,12 C60.6,12.5 60.7,12.8 61.6,12.9 C62.1,13 63.3,13 63.5,13 C63.6,13 63.8,13.1 63.8,13.2 C63.8,13.3 63.6,13.4 63.3,13.4 C61.1,13.4 59.2,13.3 58.4,13.3 C57.7,13.3 55.2,13.4 53.4,13.4 C53.1,13.4 52.9,13.4 52.9,13.2 C52.9,13.1 53,13 53.1,13 C53.4,13 54.9,12.9 55.4,12.9 C56.4,12.8 56.5,12.5 56.5,12 C56.6,11.3 56.7,9.9 56.7,8.4 L56.7,5.7" id="Fill-28"></path>
                            <path d="M71.8,10 C71.4,10 71,9.9 71,9.7 C71,9.5 71.3,9.3 71.4,9.3 C71.6,9.2 82.5,1.2 82.7,1 C82.9,0.8 83.2,0.7 83.5,0.7 C83.8,0.7 83.9,0.8 83.9,1 L83.9,8.7 L86.1,8.7 C86.9,8.7 87.2,8.5 87.4,8.5 C87.6,8.5 87.7,8.6 87.7,8.7 C87.7,8.9 87.4,9.5 87.2,9.8 C87,10 86.9,10 86.4,10 L83.8,10 C83.8,10.5 83.8,11.2 83.9,12 C84,12.5 84.2,12.8 85.1,12.9 C85.5,13 86.2,13 86.4,13 C86.6,13 86.7,13.1 86.7,13.2 C86.7,13.3 86.5,13.4 86.2,13.4 C84.6,13.4 82.8,13.3 82.1,13.3 C81.2,13.3 79.7,13.4 78.1,13.4 C77.8,13.4 77.6,13.4 77.6,13.2 C77.6,13.1 77.7,13 77.8,13 C78.1,13 78.7,13 79.1,12.9 C80.2,12.8 80.4,12.5 80.4,11.9 C80.5,11.2 80.5,10.5 80.5,9.9 L71.6,9.9 L71.8,10 L71.8,10 L71.8,10 Z M80.7,3.6 C79.9,4.2 75.1,7.9 74.1,8.6 L80.7,8.6 L80.7,3.6 L80.7,3.6 Z" id="Fill-29"></path>
                        </g>
                    </g>
                </g>
            </g>
        </g>
    </g>
</svg>