<svg xmlns="http://www.w3.org/2000/svg" viewBox="0 0 389.73 223.15"><defs><style>.a{fill:#7ec2f1;}</style></defs><title>awards-webby</title><path class="a" d="M10.64,121.61v16.31C136.85,130.42,43,126.52,10.64,121.61Zm0,27v16l1.05.26C107.85,156,80.25,152.74,10.64,148.57Zm0-141.89V59.35c79.14-2.68,79.53-7.16,38.49-12.6l7.38-9C107.18,45.56,104,58.29,67.58,64.67,79.77,69,123,76.9,70.74,92.62c8.5,2.31,56.45,14.18-3.16,24.78,9.44,4.26,59.56,10.38,2.11,25.83,14.87,2.44,53.1,10.59,2.64,26.89,19.08,2,21.24,2.66,26.36,11.6V216h23.2V6.68Zm0,90.15v16.34C34.38,108.51,142.75,106.61,10.64,96.83Zm0-27.83V86.29C84.83,82.3,109.89,77.13,10.64,69Zm138.49-6.51H136.47V60h28v2.49H151.83V96.31h-2.7ZM171.33,60H174V76.81h23.24V60H200V96.31h-2.7v-17H174v17h-2.7Zm38.08,0h25.83v2.49H212.11V76.76h20.8v2.49h-20.8V93.82h23.4v2.49h-26.1Zm-71.06,57.18h12L157.57,141l7.94-23.92h9.82L183.26,141l7.17-23.81h11.82L188.5,158.63h-9.94l-8.23-23.69L162,158.63h-9.9Zm63.9,20.24v-.16c0-12.37,8.85-22.15,21.37-22.15,14.56,0,21.29,10.72,21.29,23.17,0,.94,0,2-.08,3.05H216.5c1.17,4.62,4.54,7,9.16,7,3.6,0,6.34-1.33,9.4-4.3l8.22,6.81c-4.07,5.16-9.94,8.61-18.32,8.61C211.65,159.41,202.25,150.49,202.25,137.42Zm28.81-3.68c-.55-4.7-3.36-7.67-7.43-7.67s-6.58,3-7.36,7.67ZM253,117.18h21.11c5.17,0,8.82,1.29,11.23,3.65a9.26,9.26,0,0,1,2.64,6.7v.12c0,4.76-2.71,7.58-6.35,9.17,5,1.64,8.17,4.47,8.17,10.05V147c0,7.06-5.76,11.35-15.58,11.35H253Zm23.75,12.7c0-2.29-1.82-3.53-5.17-3.53h-7.47v7.23h7.17c3.47,0,5.46-1.18,5.46-3.59Zm-3.94,11.7h-8.7v7.58h8.82c3.53,0,5.47-1.35,5.47-3.76v-.12c0-2.23-1.76-3.7-5.58-3.7Zm25.79-24.4h21.1c5.17,0,8.82,1.29,11.23,3.65a9.26,9.26,0,0,1,2.64,6.7v.12c0,4.76-2.7,7.58-6.35,9.17,5,1.64,8.17,4.47,8.17,10.05V147c0,7.06-5.76,11.35-15.58,11.35H298.6Zm23.75,12.7c0-2.29-1.82-3.53-5.17-3.53h-7.47v7.23h7.17c3.46,0,5.46-1.18,5.46-3.59Zm-3.94,11.7h-8.7v7.58h8.82c3.53,0,5.47-1.35,5.47-3.76v-.12C324,143.05,322.23,141.58,318.41,141.58Zm32.68,1.35-15.7-25.75h13l8.46,15,8.52-15h12.76L362.5,142.76v15.58H351.1ZM157,175.92h2.59l16.91,36.57h-3l-4.62-10.17H147.47l-4.62,10.17h-2.8Zm10.79,24-9.54-21-9.6,21Zm8.47-23.74h3l11.41,32.32,10.64-32.42h2.07L214,208.5l11.41-32.32h2.8L215,212.75h-2.18l-10.64-31.54-10.63,31.54h-2.18Zm69.56-.23h2.59l16.91,36.57h-3l-4.62-10.17H236.33l-4.62,10.17h-2.8Zm10.79,24-9.54-21-9.6,21Zm15-23.77h15.25c4.46,0,8,1.4,10.22,3.58a9.58,9.58,0,0,1,2.75,6.74v.1c0,6.07-4.51,9.55-10.64,10.37l12,15.51h-3.42l-11.57-15H274.27v15h-2.7ZM286.51,195c6.07,0,10.58-3.06,10.58-8.3v-.11c0-4.87-3.84-7.94-10.43-7.94h-12.4V195Zm21.31-18.82H319.9c11.41,0,19.3,7.83,19.3,18.05v.1c0,10.22-7.89,18.16-19.3,18.16H307.82Zm2.7,2.49V210h9.39c10.12,0,16.5-6.9,16.5-15.56v-.11c0-8.61-6.38-15.67-16.5-15.67Zm33.66,28.53,1.76-2c4,3.68,7.68,5.39,13,5.39s9.18-3.06,9.18-7.21v-.11c0-3.84-2-6.07-10.27-7.73-8.71-1.76-12.25-4.72-12.25-10.22v-.1c0-5.39,4.93-9.54,11.67-9.54a18.09,18.09,0,0,1,12.45,4.41L368,182.2a15.64,15.64,0,0,0-10.84-4.1c-5.34,0-8.87,3.06-8.87,6.85v.11c0,3.84,2,6.17,10.58,7.94,8.4,1.71,11.94,4.72,11.94,10v.1c0,5.86-5,9.91-12,9.91A20.67,20.67,0,0,1,344.18,207.2Z"/></svg>