<?xml version="1.0" standalone="no"?><!DOCTYPE svg PUBLIC "-//W3C//DTD SVG 1.1//EN" "http://www.w3.org/Graphics/SVG/1.1/DTD/svg11.dtd"><svg xmlns="http://www.w3.org/2000/svg" viewBox="-417 266.2 123.7 29.8"><path fill="#BF9836" d="M-304 287c-5.5 0-9.9-4.5-9.9-9.9v-9.9h19.9v9.9c0 5.5-4.5 9.9-10 9.9zm-8.1-18v8.1c0 4.5 3.6 8.1 8.1 8.1s8.1-3.6 8.1-8.1V269h-16.2z"/><path fill="#BF9836" d="M-299.5 273.2h-9v1.8h1.3l-.7 5h1.8l.7-5h2.9l.6 5h1.8l-.6-5h1.2z"/><path d="M-404.1 269.7c5.4 0 8.3 2.5 8.3 6.1 0 2.9-2.2 5.1-5.1 5.9v.1c4.5 1.1 6.1 3.8 6.1 6.5 0 4-2.9 6.7-8.3 6.7H-415v-.7c2.2 0 2.2 0 2.2-2.4v-19.2c0-2.4 0-2.4-2.2-2.4v-.7h10.9zm-2.2 11.9c3.3 0 4.5-2.2 4.5-5.6 0-3.1-1.3-5.6-3.4-5.6h-1.8v11.2h.7zm-.7.7v11.9h2.5c2.9 0 3.8-2.9 3.8-6.1 0-3.3-1.6-5.8-4.9-5.8h-1.4zm14 3.8c0-6.1 5.1-9.6 9.6-9.6 4.2 0 7.9 1.8 6.8 8h-10.7c0 4.9 2.8 6.7 5.5 6.7 3.3 0 4.7-1.8 5.4-3.1h.4c-.7 3.6-3.3 7.2-7.8 7.2-6 .1-9.2-4.3-9.2-9.2zm5.7-2.3h5.3c.6-2.5 1.1-6.5-1.6-6.5-2.1 0-3.6 1.9-3.7 6.5zm26.1-2.2c0-1.6-1.1-2.2-2.2-2.2s-2.3.5-3.6 1.6v10.8c0 2.4 0 2.4 2.2 2.4v.7H-375v-.7c2.2 0 2.2 0 2.2-2.4v-11.4c0-1.8 0-1.8-1.8-1.8v-.5l7.4-1.6h.3l-.1 3.8h.1c1.4-2.4 4-3.8 6.6-3.8 2.4 0 4.9 1.4 4.9 5.4v9.9c0 2.4 0 2.4 2.2 2.4v.7h-9.4v-.7c1.4 0 1.4 0 1.4-2.4v-10.2zm19.2 9.6c3.3 0 4.7-1.8 5.4-3.1h.4c-.7 3.6-3.3 7.2-7.8 7.2-6 0-9.2-4.3-9.2-9.2 0-6.1 5.1-9.6 9.6-9.6s6.9 2.2 6.9 4.5c0 1.3-.6 2.5-2.7 2.5-1.8 0-2.2-1.1-2.2-1.9.2-2.6 0-4.4-2.2-4.4-2.5 0-3.7 3.4-3.7 7.6 0 4.8 2.8 6.4 5.5 6.4zm19.8-9.6c0-1.6-1.1-2.2-2.2-2.2s-2.4.5-3.6 1.6v10.8c0 2.4 0 2.4 2.2 2.4v.7h-10.1v-.7c2.2 0 2.2 0 2.2-2.4V271c0-1.8 0-1.8-1.8-1.8v-.5l7.3-1.6h.3v13.2h.1c1.4-2.4 4-3.8 6.6-3.8 2.4 0 4.9 1.4 4.9 5.4v9.9c0 2.4 0 2.4 2.2 2.4v.7h-9.4v-.7c1.4 0 1.4 0 1.4-2.4l-.1-10.2z" fill="#2D2E30"/></svg>
