<svg id="Layer_1" data-name="Layer 1" xmlns="http://www.w3.org/2000/svg" viewBox="0 0 77 77"><defs><style>.cls-1{fill:#e4f4fe;}.cls-2,.cls-4,.cls-5,.cls-7{fill:#fff;}.cls-11,.cls-13,.cls-2,.cls-3{stroke:#99ccf0;}.cls-11,.cls-13,.cls-2,.cls-3,.cls-5,.cls-6,.cls-9{stroke-miterlimit:10;}.cls-2,.cls-3{stroke-width:1.43px;}.cls-11,.cls-13,.cls-3,.cls-6{fill:none;}.cls-13,.cls-3,.cls-5,.cls-6,.cls-7{stroke-linecap:round;}.cls-10,.cls-5,.cls-6,.cls-7,.cls-9{stroke:#fbb2cc;}.cls-5,.cls-6,.cls-7{stroke-width:1.49px;}.cls-10,.cls-7{stroke-linejoin:round;}.cls-10,.cls-8,.cls-9{fill:#fbb2cc;}.cls-9{stroke-width:2.97px;}.cls-10{stroke-width:1.48px;}.cls-11,.cls-13{stroke-width:1.49px;}.cls-12{fill:#99ccf0;}</style></defs><title>employee-benefits-2</title><circle class="cls-1" cx="38.5" cy="38.5" r="33.83"/><path class="cls-2" d="M50.1,40.92s-2.39-2.3-6.94-1.13-6.3,4.91-3,11a23.32,23.32,0,0,1,2.7,9.11c.27,2.57,1.41,3.79,2.84,3.65,2-.2,2.44-2.24,2.77-4.39.54-3.51.61-4.32,1.35-4.32s1.22,3.44,1.49,5.6,1.09,3.19,2.7,3c1.42-.14,2.16-1.62,2.63-5.06A22.05,22.05,0,0,1,59.08,51c2.7-5.6,2.63-9.79-2-11.21A8,8,0,0,0,50.1,40.92Z"/><path class="cls-3" d="M49.64,40.55a6.41,6.41,0,0,1,1.82,2.84"/><path class="cls-4" d="M29.43,72.38V60.17a51.87,51.87,0,0,0,2.92-12.09c.43-5.56-12-12.06-12-12.06S19.77,28.78,18.1,29s-1.86,15.6-1.86,15.6-5,5.24-1.21,10.51c4,5.53,3.27,5.65,3.27,9v3.32Z"/><path class="cls-5" d="M20.22,34.93V26.47a2,2,0,0,0-1.95-1.95h-.13a1.86,1.86,0,0,0-1.89,1.89V45.26"/><path class="cls-6" d="M29.31,72.38V59.31a20.57,20.57,0,0,0,3-11.24v-6"/><rect class="cls-5" x="28.32" y="36.23" width="4.03" height="8.77" rx="2.01" ry="2.01" transform="translate(60.66 81.24) rotate(180)"/><rect class="cls-5" x="24.29" y="33.99" width="4.03" height="11.68" rx="1.99" ry="1.99" transform="translate(52.61 79.65) rotate(180)"/><rect class="cls-5" x="20.27" y="33.75" width="4.03" height="11.76" rx="2.01" ry="2.01" transform="translate(44.56 79.27) rotate(180)"/><path class="cls-5" d="M16.06,45.39a5,5,0,0,0-2.55,4c-.46,3.08,1.07,5.41,5,11v8"/><path class="cls-7" d="M13.86,48.06a3.06,3.06,0,0,1,1.36-1.47,5.7,5.7,0,0,1,3.43-.73h6.83a2.25,2.25,0,0,1,2.24,2.24h0a2.25,2.25,0,0,1-2.24,2.24H18.94s5.19,1.22,6.06,6"/><circle class="cls-8" cx="30.29" cy="42.7" r="0.88"/><circle class="cls-8" cx="26.3" cy="43.51" r="0.88"/><circle class="cls-8" cx="22.28" cy="43" r="0.88"/><circle class="cls-8" cx="25.27" cy="46.86" r="1.12"/><line class="cls-9" x1="20.14" y1="29.89" x2="16.24" y2="29.89"/><path class="cls-10" d="M15.52,29.29s-2.44,3.46-3.35,2.13S15.52,29.29,15.52,29.29Z"/><path class="cls-10" d="M15.71,28.6s-4.38.07-3.79-1.6S15.71,28.6,15.71,28.6Z"/><path class="cls-11" d="M49.17,19.89c-2.43-2.17-5.94-5.23-9.85-5.23H39c-3.9,0-7.41,3.06-9.85,5.23-2.15,1.92-3.46,3-3.46,3s1.31,1.06,3.46,3C31.61,28,35.12,31.08,39,31.08h.3c3.9,0,7.41-3.06,9.85-5.23,2.15-1.92,3.46-3,3.46-3S51.32,21.81,49.17,19.89Z"/><circle class="cls-12" cx="39.17" cy="22.88" r="5.1"/><ellipse class="cls-4" cx="38.05" cy="21.86" rx="2.1" ry="1.9" transform="translate(4.59 50.25) rotate(-70.19)"/><path class="cls-13" d="M52.71,19s-1.31-1.06-3.46-3c-2.43-2.17-5.94-5-9.85-5h-.15"/><path class="cls-13" d="M25.8,18.82s1.31-1.06,3.46-3C31.7,13.67,35.21,11,39.11,11h.15"/><path class="cls-4" d="M52.67,33a29.17,29.17,0,0,1,2.4,1.85c.7.58,1.48,1.28,2.3,2s1.66,1.62,2.5,2.47l1.22,1.31c.41.43.77.88,1.15,1.3.74.85,1.4,1.67,1.94,2.39a28.91,28.91,0,0,1,1.74,2.48A28.92,28.92,0,0,1,63.51,45c-.7-.58-1.48-1.27-2.3-2-.4-.39-.84-.78-1.25-1.2L58.71,40.5c-.82-.88-1.63-1.75-2.36-2.61S55,36.22,54.41,35.5A29.17,29.17,0,0,1,52.67,33Z"/><path class="cls-4" d="M57.69,48.67s.09-1.29.44-3.17c.16-.94.39-2,.66-3.18s.6-2.38.94-3.6l.55-1.81c.17-.6.39-1.17.57-1.74.38-1.12.77-2.16,1.14-3,.71-1.77,1.32-2.91,1.32-2.91s-.09,1.29-.43,3.17c-.16.94-.39,2-.66,3.18-.14.58-.27,1.18-.44,1.78l-.5,1.82c-.37,1.21-.73,2.42-1.12,3.55s-.77,2.16-1.14,3C58.29,47.53,57.69,48.67,57.69,48.67Z"/><path class="cls-4" d="M54.65,42.05a12,12,0,0,1,1.67-.94,23.84,23.84,0,0,1,3.86-1.44,23.59,23.59,0,0,1,4-.78,11.92,11.92,0,0,1,1.92-.06,11.93,11.93,0,0,1-1.67.95,23.59,23.59,0,0,1-3.86,1.44,23.84,23.84,0,0,1-4,.78A12,12,0,0,1,54.65,42.05Z"/></svg>