<svg xmlns="http://www.w3.org/2000/svg" viewBox="0 0 77 77"><defs><style>.cls-1{isolation:isolate;}.cls-2{fill:#e4f4fe;}.cls-3{fill:#9acdf1;}.cls-4,.cls-8{fill:#f2cd33;}.cls-5,.cls-6{fill:none;stroke:#f2cd33;stroke-linecap:round;stroke-width:1.96px;}.cls-5{stroke-miterlimit:10;}.cls-6{stroke-linejoin:round;}.cls-7{fill:#f3cd33;}.cls-8{mix-blend-mode:multiply;}</style></defs><title>employee-benefits-2</title><g class="cls-1"><g id="Layer_1" data-name="Layer 1"><circle class="cls-2" cx="38.5" cy="38.5" r="33.83"/><path class="cls-3" d="M44.33,58a1.88,1.88,0,0,1-.78,1.21c-3.37,2.35-5.93,3.28-7.49,2.72a2.57,2.57,0,0,1-1.61-1.72c-.26-.86-.73-2.63-1.2-4.41-.84-3.17-1.36-5.24-2.08-7.34A2.16,2.16,0,0,0,30,47.27a30,30,0,0,0-5.9-1.4l-.55-.08.14.54c.6,2.4,1.65,5.67.64,8.67s-3.25,3.64-7.51,5.24c-.89.33-2.23.83-3,1.2l-.27.13.06.29a31.15,31.15,0,0,0,1.51,4.5,1.89,1.89,0,1,1-3.48,1.46c-.68-1.59-2.21-5.52-1.82-7.46.33-1.65,2.12-2.33,5.69-3.67a12.61,12.61,0,0,0,3.59-1.57,4,4,0,0,0,1.58-1.35c.62-1,.16-2.71,0-3.82l-.1-.46c-.11-.48-.26-1-.44-1.5a28.54,28.54,0,0,1-1.63-7.9c-.21-2.12-.62-6.23-.62-6.23s-1.19-1-1.63-1.31C8.18,26.35,6,19.8,6,19.72a1.87,1.87,0,0,1,1.19-2.38,1.81,1.81,0,0,1,.61-.1,1.94,1.94,0,0,1,.84.19,1.92,1.92,0,0,1,.95,1.13c.36.93,2.45,5.79,8.49,10.62l.61.49v-.78s0-.08,0-.17a4.47,4.47,0,0,0-1.36-2.29,9.46,9.46,0,0,1-2-3,5.21,5.21,0,0,1,0-4.35,3.48,3.48,0,0,1,2.3-1.72,3.71,3.71,0,0,1,3,.5,4.81,4.81,0,0,1,1.82,3.48,7.44,7.44,0,0,1-.61,4.38,4.63,4.63,0,0,0-.5,2.44v.85l.63-.57A27.77,27.77,0,0,0,26.72,23a33.51,33.51,0,0,0,3.82-8.84,1.92,1.92,0,0,1,2.28-1.42,1.89,1.89,0,0,1,1.41,2.27,36.2,36.2,0,0,1-4.28,10,34.27,34.27,0,0,1-6.58,7.28s0,2.44.13,3.61c.13,1.66.44,6.13.48,6.14,5.77.73,9.55,2.18,10.38,4.13a76,76,0,0,1,2.55,8.69l.3,1.13c.17.64.33,1.23.47,1.74l.11.42.4-.18a22,22,0,0,0,3.2-1.84A1.89,1.89,0,0,1,44.33,58Z"/><path class="cls-3" d="M50.12,27.9a.26.26,0,0,0,.26.18L53,27.85c.11,0,.15.06.08.15L51,30.61A.43.43,0,0,0,51,31l1.31,3.93c0,.11,0,.14-.09.06l-2.83-2.49a.2.2,0,0,0-.29,0L46.65,35.4c-.07.09-.11.07-.09,0l1-4.29a.32.32,0,0,0-.13-.32L45,29.2c-.1-.06-.08-.13,0-.16l2.85-.6a.35.35,0,0,0,.25-.25l.82-4c0-.11.07-.11.1,0Z"/><path class="cls-3" d="M38.9,27a.18.18,0,0,0,.19.11l1.83-.32c.08,0,.11,0,.06.1L39.7,28.87a.3.3,0,0,0,0,.26l1.14,2.67c0,.07,0,.1-.06,0l-2.12-1.58a.14.14,0,0,0-.2,0L36.9,32.47c0,.07-.07.05-.06,0l.46-3.06a.22.22,0,0,0-.11-.21l-1.78-.95c-.07,0-.07-.09,0-.11l2-.58a.24.24,0,0,0,.16-.19l.35-2.85c0-.08,0-.08.07,0Z"/><path class="cls-3" d="M44.86,17.68a.14.14,0,0,0,.15.08l1.37-.24c.06,0,.08,0,0,.07l-1,1.46a.23.23,0,0,0,0,.19l.86,2c0,.06,0,.07,0,0l-1.59-1.19a.11.11,0,0,0-.15,0l-1.15,1.63s-.06,0,0,0l.34-2.3a.17.17,0,0,0-.08-.16l-1.34-.71c-.05,0,0-.07,0-.08l1.47-.44a.18.18,0,0,0,.12-.14l.26-2.14c0-.06,0-.06.05,0Z"/><path class="cls-4" d="M48.8,39.76a.38.38,0,0,1,.48,0,3.78,3.78,0,0,0,1.95,1.12c1,.08,2.24-.53,3.55.82S55,46.49,55.89,49c.45,1.31,2.42,3.25,5.33,7s4.1,7.14,1.16,8.64C58.83,66.43,54.72,59.9,51.71,59S48,54.06,48.83,52.2s2-6.82.83-7.87S46.78,41.47,48.8,39.76Z"/><path class="cls-5" d="M59.2,61.24s2.08,3.56,5,3.63c1.55,0,4-1.22,5.5-5.12"/><path class="cls-5" d="M56.71,59.6s-3.14,1.46-1.13,3,3.71,3,2.35,3.11a32,32,0,0,1-3.41.11"/><line class="cls-5" x1="51.33" y1="55.49" x2="50.7" y2="65.58"/><path class="cls-6" d="M52,54.24s-2.31,1.46-4.33.74-5.33-4.3-5.33-4.3"/><path class="cls-7" d="M58,66.67c1.85-.16,4.31-1.32,2.39-4.32s-4.17-2-3.56-.74,2.29,3.79,1.7,4.27S58,66.67,58,66.67Z"/><circle class="cls-8" cx="52.08" cy="42.28" r="0.67"/><path class="cls-8" d="M53.91,43s-2.08,4-1.08,5.5,2.81.46,2.5-1.42A12,12,0,0,0,53.91,43Z"/></g></g></svg>