<svg id="Layer_1" data-name="Layer 1" xmlns="http://www.w3.org/2000/svg" viewBox="0 0 77 77"><defs><style>.cls-1{fill:#e4f4fe;}.cls-2{fill:#fcb3cd;}.cls-12,.cls-13,.cls-14,.cls-3,.cls-8,.cls-9{fill:none;}.cls-3{stroke:#86c620;stroke-width:1.76px;}.cls-13,.cls-3{stroke-linecap:round;}.cls-10,.cls-12,.cls-13,.cls-14,.cls-3,.cls-8,.cls-9{stroke-miterlimit:10;}.cls-4{fill:#86c620;}.cls-15,.cls-5{fill:#fff;}.cls-5{opacity:0.48;}.cls-6{fill:#9acdf1;}.cls-7{fill:#eff8fe;}.cls-10,.cls-14,.cls-8{stroke:#9acdf1;}.cls-8{stroke-width:0.83px;}.cls-9{stroke:#e5f4fe;stroke-width:1.46px;}.cls-10{fill:#e5f4fe;stroke-width:1px;}.cls-11{fill:#68b5eb;}.cls-12{stroke:#f5da66;stroke-width:0.85px;}.cls-13{stroke:#fff;stroke-width:2.49px;}.cls-14{stroke-width:1.06px;}</style></defs><title>employee-benefits-2</title><circle class="cls-1" cx="38.5" cy="38.5" r="33.83"/><path class="cls-2" d="M61.8,33.68c-1.59,7.16-4.1,15.07-9.09,15.46a3.66,3.66,0,0,1-3.5-1.71s-1.24,2-4.34,1.36c-3.56-.77-7-8.28-8.24-15.11-.93-5.25.38-9,3.45-10.17,3.28-1.24,5.75,1,9,1,2.74,0,5.63-2,8-1.51C61,23.81,63,28.1,61.8,33.68Z"/><path class="cls-3" d="M45,17.48s5.6,1,4.43,9.38"/><path class="cls-4" d="M49.64,20.72s.19-4.64,7-4.27C56.69,16.46,54.1,22.58,49.64,20.72Z"/><ellipse class="cls-5" cx="40.94" cy="29.04" rx="2.95" ry="1.92" transform="translate(-2.69 53.86) rotate(-64.98)"/><ellipse class="cls-6" cx="32.9" cy="50.34" rx="17.33" ry="8.07"/><ellipse class="cls-7" cx="32.9" cy="47.49" rx="18.55" ry="8.63"/><ellipse class="cls-8" cx="32.9" cy="47.49" rx="18.55" ry="8.63"/><path class="cls-9" d="M42.93,34.93s2.52-3.55,5-3.52a2.46,2.46,0,0,1,2,3.92,7.79,7.79,0,0,1-3.53,2.28c-3.71,1.25-4.68,3.28-4.68,4.92"/><path class="cls-10" d="M42.79,45.28c-.51,2-2.72,3.3-4.11,3.92-.28,1.13-1.55,2.57-5.58,2.68-4.56.13-6-1.84-6.38-2.79h0a1.2,1.2,0,0,1-.23-.09c-5.21-2.42-3.76-6.56-3.28-7.94s-2-5.78-2-5.78l23.1-.56a48,48,0,0,0-2.22,4.87C41.54,41.31,43.46,42.61,42.79,45.28Z"/><path class="cls-6" d="M44.43,34a2.9,2.9,0,0,1-1.54,2.24c-2,1.37-5.87,2.3-10.28,2.3s-8.25-.93-10.28-2.3A2.9,2.9,0,0,1,20.8,34c0-2.51,5.29-4.55,11.82-4.55S44.43,31.53,44.43,34Z"/><path class="cls-6" d="M44.43,34a2.9,2.9,0,0,1-1.54,2.24c-2,1.37-5.87,2.3-10.28,2.3s-8.25-.93-10.28-2.3A2.9,2.9,0,0,1,20.8,34c0-2.51,5.29-4.55,11.82-4.55S44.43,31.53,44.43,34Z"/><path class="cls-11" d="M42.89,36.29c-2,1.37-5.87,2.3-10.28,2.3s-8.25-.93-10.28-2.3c2-1.38,5.87-2.31,10.28-2.31S40.86,34.91,42.89,36.29Z"/><path class="cls-12" d="M44.73,34a3,3,0,0,1-1.57,2.3c-2.08,1.41-6,2.36-10.54,2.36s-8.46-1-10.54-2.36A3,3,0,0,1,20.5,34c0-2.58,5.42-4.66,12.12-4.66S44.73,31.47,44.73,34Z"/><path class="cls-13" d="M45.49,44.52a3.51,3.51,0,0,1,2.08,3.53c-.22,2.16-3.4,3.14-3.4,3.14"/><path class="cls-13" d="M26,40.14c.51,1.57-1,3.47.07,5.37"/><path class="cls-14" d="M26.84,49.15a17.53,17.53,0,0,0,12,0"/><path class="cls-15" d="M20.33,22a29.17,29.17,0,0,1,2.4,1.85c.7.58,1.48,1.28,2.3,2s1.66,1.62,2.5,2.47l1.22,1.31c.41.43.77.88,1.15,1.3.74.85,1.4,1.67,1.94,2.39a28.91,28.91,0,0,1,1.74,2.48A28.92,28.92,0,0,1,31.17,34c-.7-.58-1.48-1.27-2.3-2-.4-.39-.84-.78-1.25-1.2l-1.25-1.27c-.82-.88-1.63-1.75-2.36-2.61s-1.4-1.67-1.94-2.39A29.17,29.17,0,0,1,20.33,22Z"/><path class="cls-15" d="M25.35,37.61s.09-1.29.44-3.17c.16-.94.39-2,.66-3.18s.6-2.38.94-3.6l.55-1.81c.17-.6.39-1.17.57-1.74.38-1.12.77-2.16,1.14-3,.71-1.77,1.32-2.91,1.32-2.91s-.09,1.29-.43,3.17c-.16.94-.39,2-.66,3.18-.14.58-.27,1.18-.44,1.78l-.5,1.82c-.37,1.21-.73,2.42-1.12,3.55s-.77,2.16-1.14,3C26,36.47,25.35,37.61,25.35,37.61Z"/><path class="cls-15" d="M22.31,31A12,12,0,0,1,24,30.05a23.84,23.84,0,0,1,3.86-1.44,23.59,23.59,0,0,1,4-.78,11.92,11.92,0,0,1,1.92-.06,11.93,11.93,0,0,1-1.67.95,23.59,23.59,0,0,1-3.86,1.44,23.84,23.84,0,0,1-4,.78A12,12,0,0,1,22.31,31Z"/></svg>