<svg id="Layer_1" data-name="Layer 1" xmlns="http://www.w3.org/2000/svg" viewBox="0 0 77 77"><defs><style>.cls-1{fill:#e4f4fe;}.cls-2{fill:#fff;}.cls-3{fill:#9acdf1;}.cls-4{fill:#68b5eb;}.cls-5{fill:#0084cb;opacity:0.23;}.cls-6{fill:#f2cd33;}</style></defs><title>employee-benefits-2</title><circle class="cls-1" cx="38.5" cy="38.5" r="33.83"/><path class="cls-2" d="M39.71,22.39a.15.15,0,0,0,.15.11l1.72-.07c.07,0,.08,0,0,.06l-1.45.9a.17.17,0,0,0-.08.17l.65,2.59c0,.06,0,.07,0,0l-1.37-1.83a.08.08,0,0,0-.14,0l-1.42,1.83c0,.05-.06,0-.05,0l.52-2.74a.19.19,0,0,0-.08-.18L37,22.45c-.06,0,0-.07,0-.06l1.48,0a.16.16,0,0,0,.15-.11l.57-2.14c0-.06,0-.06.05,0Z"/><path class="cls-2" d="M44,11.4a.23.23,0,0,0,.23.17l2.71-.1c.11,0,.12,0,0,.09L44.72,13a.27.27,0,0,0-.12.27l1,4.07c0,.09,0,.11-.07,0l-2.15-2.88a.13.13,0,0,0-.22,0L41,17.34c-.06.08-.1.07-.08,0L41.69,13a.3.3,0,0,0-.13-.28L39.71,11.5c-.09-.06-.07-.1,0-.1l2.33,0a.25.25,0,0,0,.24-.17l.9-3.36c0-.09.06-.09.08,0Z"/><path class="cls-2" d="M34.24,16.14a.08.08,0,0,0,.08.06l1,0s0,0,0,0l-.83.51a.1.1,0,0,0,0,.1l.37,1.48s0,0,0,0l-.78-1a0,0,0,0,0-.08,0l-.81,1s0,0,0,0l.3-1.56a.11.11,0,0,0,0-.1l-.67-.44s0,0,0,0h.84a.09.09,0,0,0,.09-.06l.33-1.22s0,0,0,0Z"/><path class="cls-3" d="M25.84,50.49a1.72,1.72,0,0,1,0-.18v-.09Z"/><path class="cls-3" d="M58.74,51.25c-.69,2.06-3,3.19-5.52,5.71A18.79,18.79,0,0,1,40.8,65.15a34.28,34.28,0,0,1-4.09.55,28.83,28.83,0,0,1-4.33,0,20.07,20.07,0,0,1-8.63-2.81A17.94,17.94,0,0,1,17.33,56a22.7,22.7,0,0,1-1.85-5.52c0-.24-.07-.38-.09-.69l0-.51c0-.36,0-.88,0-1.28a16.59,16.59,0,0,1,.21-2.31,30.93,30.93,0,0,1,2.57-7.84c1-2.3,2.19-4.33,3.18-6.17a5.41,5.41,0,0,0,.79-2.08,3.16,3.16,0,0,0-.19-1.67c0-.13,0-.26-.07-.39a7.61,7.61,0,0,0-.26-.91A10.27,10.27,0,0,0,20.85,25a18.53,18.53,0,0,0-1.4-2.2c-.34-.46-.55-.7-.55-.7a1.56,1.56,0,0,1,0-2.14A1.42,1.42,0,0,1,21,20s.3.29.77.82a18.44,18.44,0,0,1,1.85,2.51,13.82,13.82,0,0,1,1.07,2.06c.17.4,2.11,3.41,1.24,5.24a2.41,2.41,0,0,1-.1.23c-.36.9-.77,1.77-1.19,2.65-.93,1.94-1.92,4-2.83,6.1a26.64,26.64,0,0,0-2,6.74,11.44,11.44,0,0,0-.1,1.69c0,.28,0,.44,0,.77l.06.5s0,.23.06.32A16.58,16.58,0,0,0,24.27,58l0-.22a15.87,15.87,0,0,1-2.47-12.48A31.66,31.66,0,0,1,23,40.94c.46-1.41,1-2.76,1.58-4.07s1.12-2.58,1.67-3.79l.8-1.81c.25-.56.46-1.09.63-1.59.11-.27.15-.49.23-.73s.08-.25.09-.33a1.83,1.83,0,0,1,0-.23l0-.11v-.1l0-.42c0-.26-.06-.42-.08-.62a16.88,16.88,0,0,0-1.61-4.4c-.26-.52-.5-.92-.65-1.19l-.24-.39,0-.07a1.35,1.35,0,0,1,.46-1.86,1.38,1.38,0,0,1,1.82.39l.32.46c.2.3.48.73.81,1.29s.72,1.27,1.11,2.11a16.74,16.74,0,0,1,1.08,3c.06.31.14.7.18,1l0,.42v.31l0,.32c0,.21,0,.42,0,.64s-.08.34-.11.52c-.08.34-.16.71-.26,1-.17.57-.37,1.11-.57,1.65-.26.69-.54,1.37-.81,2.08-.5,1.24-1,2.5-1.49,3.79s-.94,2.58-1.31,3.87a29.72,29.72,0,0,0-.87,3.86c-.09.62-.12,1.24-.18,1.84l0,.87a4.12,4.12,0,0,0,0,.8,5.6,5.6,0,0,1,.09.68v.17a1.72,1.72,0,0,0,0,.18s0,0,0,0a8.59,8.59,0,0,0,.73,2.07l0,0a11.11,11.11,0,0,0,1.56,2.27,7.68,7.68,0,0,0,4.36,2.36,6.48,6.48,0,0,1,5.14-1.89c3.49.47,3.33,1.79,6.61,1.07,3.49-.77,5.53-4.29,8.12-14.41a4.81,4.81,0,0,1,1.14,1.06c.07-.47.11-.88.14-1.2,0,0,0-.07,0-.09,0-.3,0-.53,0-.68s0-.22,0-.22v-.07c0-1.09,2.64-6.57,2.63-5.53v.31c0,.19,0,.47,0,.84S57,39.84,57.91,44c.3,1.37.57,2.4.77,3.24A6.48,6.48,0,0,1,58.74,51.25Z"/><path class="cls-3" d="M26.24,51.72l.34.89a8.59,8.59,0,0,1-.73-2.07L26,51C26.09,51.23,26.17,51.48,26.24,51.72Z"/><polygon class="cls-3" points="28.08 28.31 28.07 28.28 28.07 28.25 28.08 28.31"/><path class="cls-3" d="M61.68,30.19c.1.43-1.09.78-.94,1.44.09.4.13.6.17.79h-.39a1.79,1.79,0,0,1-.29,0l-.28,0-.22-.06-.18-.07-.13,0,0,0a.63.63,0,0,0,.07.19l.12.18a1.46,1.46,0,0,0,.21.2,1.41,1.41,0,0,0,.28.19,2.49,2.49,0,0,0,.35.14.76.76,0,0,0,.19,0,.81.81,0,0,0,.2,0h.25c.06.38.09.53.11.85.07.86.22,1.69-1.09,2.07-1.13.34-3.34-.21-3.51.23s.79,5.67.79,5.67A24.92,24.92,0,0,0,53,42a17.52,17.52,0,0,0,0-5.72,4,4,0,0,0-.22-.68c0-.07-.06-.13-.08-.19-.73-1.51-1.28-1.63-2.84-3.48A8,8,0,0,1,48,27.44a4.59,4.59,0,0,1,0-.6c.07-1.41.79-3,3.3-3.86a5.43,5.43,0,0,1,4.93.4,4.19,4.19,0,0,1,.83.77l.17.23c.05.08.1.16.15.24a24.09,24.09,0,0,1,1.68,3.6,3,3,0,0,0,.92,1C60.73,29.73,61.59,29.79,61.68,30.19Z"/><path class="cls-4" d="M56.89,28.67l.39.23a1.83,1.83,0,0,0,.37.16.47.47,0,0,0,.33,0c.2,0,.32-.28.37-.53s.09-.42.09-.42a1.34,1.34,0,0,1,.17.44,1.09,1.09,0,0,1,0,.51.71.71,0,0,1-.46.45.79.79,0,0,1-.65-.07,1.38,1.38,0,0,1-.39-.35A1.3,1.3,0,0,1,56.89,28.67Z"/><path class="cls-4" d="M57.09,24.14c-4.17.67-1.06,5.64-1.29,6.5-.19,1.15-3.76-2.1-1.63,1.6.86,1.54-.43,3.21-1.15,4a4,4,0,0,0-.22-.68c0-.07-.06-.13-.08-.19-.73-1.51-1.28-1.63-2.84-3.48A8,8,0,0,1,48,27.44a4.59,4.59,0,0,1,0-.6c.07-1.41.79-3,3.3-3.86a5.43,5.43,0,0,1,4.93.4A4.19,4.19,0,0,1,57.09,24.14Z"/><path class="cls-4" d="M50.28,28.57s-3.72-2.23-6.12-.18c-1.27,1.09-1.44,3.78-.22,5.73s4.21,4,.27,4.63c0,0,3,2.23,4.29-.07.91-1.77-.35-2.4-1.5-5S46.67,28.6,50.28,28.57Z"/><path class="cls-5" d="M44.54,56.38a22.91,22.91,0,0,0,3.22,6,19.13,19.13,0,0,1-7,2.75,34.28,34.28,0,0,1-4.09.55,28.83,28.83,0,0,1-4.33,0,20.07,20.07,0,0,1-8.63-2.81A17.94,17.94,0,0,1,17.33,56a22.7,22.7,0,0,1-1.85-5.52c0-.24-.07-.38-.09-.69l0-.51c0-.36,0-.88,0-1.28a16.59,16.59,0,0,1,.21-2.31,30.93,30.93,0,0,1,2.57-7.84c1-2.3,2.19-4.33,3.18-6.17a5.41,5.41,0,0,0,.79-2.08l3.7,1.25c-.36.9-.77,1.77-1.19,2.65-.93,1.94-1.92,4-2.83,6.1a26.64,26.64,0,0,0-2,6.74,11.44,11.44,0,0,0-.1,1.69c0,.28,0,.44,0,.77l.06.5s0,.23.06.32A16.58,16.58,0,0,0,24.27,58l0-.22a15.87,15.87,0,0,1-2.47-12.48A31.66,31.66,0,0,1,23,40.94c.46-1.41,1-2.76,1.58-4.07s1.12-2.58,1.67-3.79l.8-1.81,3.21,1.08c-.26.69-.54,1.37-.81,2.08-.5,1.24-1,2.5-1.49,3.79s-.94,2.58-1.31,3.87a29.72,29.72,0,0,0-.87,3.86c-.09.62-.12,1.24-.18,1.84l0,.87a4.12,4.12,0,0,0,0,.8,5.6,5.6,0,0,1,.09.68v.17a1.72,1.72,0,0,0,0,.18s0,0,0,0a8.59,8.59,0,0,0,.73,2.07l0,0a11.11,11.11,0,0,0,1.56,2.27,7.68,7.68,0,0,0,4.36,2.36,6.48,6.48,0,0,1,5.14-1.89c3.49.47,3.33,1.79,6.61,1.07Z"/><polygon class="cls-3" points="53.95 45.11 24.77 31.32 24.62 27.36 55.38 41.83 53.95 45.11"/><ellipse class="cls-3" cx="22.85" cy="28.22" rx="2.53" ry="2.64"/><path class="cls-6" d="M58.74,51.25c-.69,2.06-3,3.19-5.52,5.71a19,19,0,0,1-4.81,5l-.26.18A21.85,21.85,0,0,1,45,56.24c2.64-.94,4.44-3.8,6.42-10.55.15-.51.46-1.61.46-1.61s2.49,1.23,3.11-.45-1.83-2.85-1.83-2.85A3.48,3.48,0,0,1,55.36,42c1,1.11,1.47,6.06,3.32,5.29A6.48,6.48,0,0,1,58.74,51.25Z"/></svg>