<svg id="Layer_1" data-name="Layer 1" xmlns="http://www.w3.org/2000/svg" viewBox="0 0 77 77"><defs><style>.cls-1{fill:#e4f4fe;}.cls-2{fill:#efc100;}.cls-3{fill:#99ccf0;}.cls-4{fill:#fff;}</style></defs><title>employee-benefits-2</title><circle class="cls-1" cx="38.5" cy="38.5" r="33.83"/><rect class="cls-2" x="31.69" y="20.34" width="0.76" height="20.81"/><path class="cls-2" d="M32.7,41.41H31.44V20.09H32.7Zm-.76-.5h.26V20.59h-.26Z"/><path class="cls-2" d="M52,48.72c-3.12-1.13-4.13-4.61-5.19-8.29-.87-3-1.76-6.08-3.81-8.33a15.67,15.67,0,0,0-10.61-5V26.3h8.41c1.67,0,2.77,0,3.36.58a1.41,1.41,0,0,1,.39,1,1.3,1.3,0,0,1-.47,1,4.44,4.44,0,0,1-2.73.63,16.21,16.21,0,0,1,2.21,2c2.16,2.39,3.08,5.56,4,8.63,1.06,3.65,2,6.79,4.72,7.79Zm-11.87-20c.86.11,2.79.22,3.47-.36a.54.54,0,0,0,.2-.44.65.65,0,0,0-.17-.51c-.37-.37-1.46-.36-2.83-.35H36.55A16.38,16.38,0,0,1,40.12,28.72Z"/><path class="cls-2" d="M52.14,49,51.91,49c-3.24-1.17-4.26-4.71-5.35-8.45-.86-3-1.75-6-3.75-8.23a15.48,15.48,0,0,0-10.42-5h-.25V26.05h8.66c1.73,0,2.87,0,3.54.65a1.65,1.65,0,0,1,.46,1.22,1.54,1.54,0,0,1-.55,1.2,3.72,3.72,0,0,1-2.2.68,16.46,16.46,0,0,1,1.7,1.63c2.2,2.43,3.13,5.63,4,8.73,1,3.58,1.93,6.67,4.57,7.62l.24.08ZM32.63,26.82a16,16,0,0,1,10.54,5.11c2.08,2.3,3,5.42,3.86,8.43,1,3.53,2,6.86,4.8,8l.09-.24c-2.69-1.13-3.6-4.26-4.65-7.86-.88-3-1.79-6.19-3.92-8.53a15.93,15.93,0,0,0-2.17-2l-.6-.46h.75a4.13,4.13,0,0,0,2.57-.57,1.05,1.05,0,0,0,.38-.82,1.17,1.17,0,0,0-.31-.87c-.52-.52-1.58-.51-3.19-.5H32.63Zm8.89,2.24A11.89,11.89,0,0,1,40.09,29l-.1,0a16.13,16.13,0,0,0-3.51-1.63L35,26.81H40.8c1.48,0,2.56,0,3,.43a.92.92,0,0,1,.24.69.79.79,0,0,1-.29.63A3.72,3.72,0,0,1,41.52,29.06Zm-1.32-.58c1.22.15,2.73.12,3.22-.31a.29.29,0,0,0,.12-.25c0-.24-.07-.31-.09-.33-.3-.3-1.43-.29-2.65-.28H37.93A16.44,16.44,0,0,1,40.2,28.48Z"/><path class="cls-2" d="M32.12,27.4c-.18,0-.34-1.22-.37-1.41s-.47-2.89,1.6-3.61a21.83,21.83,0,0,1,2.27-.71.38.38,0,0,1,.14.74s-.45.09-2.16.69a2,2,0,0,0-1.14,2c0,.42,0,1.88,0,1.88a.31.31,0,0,1-.27.39Z"/><path class="cls-2" d="M32.12,27.65c-.3,0-.42-.31-.6-1.51l0-.1c0-.12-.51-3.1,1.77-3.89a21.77,21.77,0,0,1,2.3-.72.63.63,0,0,1,.23,1.23s-.44.09-2.13.68a1.79,1.79,0,0,0-1,1.79c0,.42,0,1.82,0,1.87a.55.55,0,0,1-.48.65Zm3.57-5.74h0a21.92,21.92,0,0,0-2.23.71C31.55,23.27,32,25.84,32,26l0,.11a7.82,7.82,0,0,0,.2,1,.29.29,0,0,0,0,0c0-.08,0-1.71,0-1.93a2.21,2.21,0,0,1,1.31-2.24,21.43,21.43,0,0,1,2.2-.7.13.13,0,0,0,0-.23A.13.13,0,0,0,35.69,21.91Z"/><path class="cls-2" d="M31.94,29.07a.25.25,0,0,1-.25-.25V20.5a.25.25,0,0,1,.5,0v8.32A.25.25,0,0,1,31.94,29.07Z"/><path class="cls-2" d="M31.94,29.32a.5.5,0,0,1-.5-.5V20.5a.5.5,0,0,1,1,0v8.32A.5.5,0,0,1,31.94,29.32Zm0-8.82v8.32h0Z"/><path class="cls-3" d="M30.93,53.61A12.51,12.51,0,1,1,44.47,42.2,12.53,12.53,0,0,1,30.93,53.61ZM33,29.42A11.76,11.76,0,1,0,43.71,42.14,11.77,11.77,0,0,0,33,29.42Z"/><path class="cls-3" d="M32,53.9q-.54,0-1.1,0h0a12.76,12.76,0,1,1,1.1,0ZM31,53.36A12.26,12.26,0,1,0,19.78,40.09,12.27,12.27,0,0,0,31,53.36ZM32,53.15q-.52,0-1,0a12,12,0,1,1,1,0Zm0-23.51a11.51,11.51,0,1,0,1,0Q32.48,29.63,32,29.63Z"/><circle class="cls-2" cx="32" cy="41.14" r="1.62" transform="translate(-11.72 69.51) rotate(-85.11)"/><path class="cls-3" d="M32,43h-.16A1.87,1.87,0,1,1,32,43Zm0-3.24a1.37,1.37,0,1,0,1,.49,1.36,1.36,0,0,0-.93-.48Z"/><rect class="cls-3" x="31.61" y="28.97" width="0.76" height="24.19" transform="matrix(0.94, -0.35, 0.35, 0.94, -12.24, 13.62)"/><path class="cls-3" d="M35.67,52.86,27.12,29.7l1.18-.43,8.55,23.16ZM27.76,30,36,52.22l.24-.09L28,29.91Z"/><rect class="cls-3" x="19.89" y="40.69" width="24.19" height="0.76" transform="translate(-18.7 52.92) rotate(-65.25)"/><path class="cls-3" d="M27.39,52.54,26.25,52,36.58,29.59l1.14.53Zm-.48-.77.23.11,9.91-21.51-.23-.11Z"/><rect class="cls-3" x="19.89" y="40.69" width="24.19" height="0.76" transform="translate(-12.25 13.63) rotate(-20.27)"/><path class="cls-3" d="M20.62,45.93l-.44-1.18L43.35,36.2l.44,1.18Zm.21-.88.09.24,22.22-8.2-.09-.24Z"/><rect class="cls-3" x="31.61" y="28.97" width="0.76" height="24.19" transform="translate(-18.7 52.93) rotate(-65.26)"/><path class="cls-3" d="M42.93,46.8,20.51,36.47,21,35.33,43.46,45.66ZM21.18,36.23l21.51,9.91.11-.23L21.28,36Z"/><path class="cls-3" d="M50.9,53.64A5.1,5.1,0,1,1,56.38,49,5.1,5.1,0,0,1,50.9,53.64Zm.75-9.41a4.34,4.34,0,1,0,4,4.67A4.34,4.34,0,0,0,51.64,44.23Z"/><path class="cls-3" d="M51.3,53.9l-.43,0a5.34,5.34,0,1,1,.43,0Zm-.39-.52a4.85,4.85,0,1,0-4.45-5.21A4.85,4.85,0,0,0,50.92,53.39Zm.39-.24h-.37a4.58,4.58,0,1,1,.37,0Zm0-8.68a4.09,4.09,0,1,0,.33,0H51.3Z"/><rect class="cls-3" x="50.92" y="43.93" width="0.76" height="9.26" transform="translate(-13.81 21.17) rotate(-20.61)"/><path class="cls-3" d="M52.43,53.34,49,44.21l1.18-.44L53.6,52.9ZM49.64,44.5l3.08,8.2.24-.09-3.08-8.2Z"/><rect class="cls-3" x="46.67" y="48.18" width="9.26" height="0.76" transform="translate(-14.11 75.21) rotate(-65.6)"/><path class="cls-3" d="M49.86,53.26l-1.14-.52,4-8.89,1.14.52Zm-.48-.77.23.11,3.61-8L53,44.52Z"/><rect class="cls-3" x="46.67" y="48.18" width="9.26" height="0.76" transform="translate(-13.81 21.18) rotate(-20.62)"/><path class="cls-3" d="M47,50.86l-.44-1.18,9.13-3.43.44,1.18Zm.2-.88.09.24,8.19-3.08-.09-.24Z"/><rect class="cls-3" x="50.92" y="43.93" width="0.76" height="9.26" transform="translate(-14.11 75.23) rotate(-65.61)"/><path class="cls-3" d="M55.48,51.14l-8.89-4L47.12,46,56,50Zm-8.22-4.28,8,3.61.11-.23-8-3.62Z"/><rect class="cls-2" x="39.53" y="24.46" width="0.95" height="2.12"/><path class="cls-2" d="M40.73,26.84H39.28V24.21h1.45Zm-1-.5h.45V24.71h-.45Z"/><path class="cls-3" d="M42,23.51v.68a.48.48,0,0,1-.48.48H38.09c-.37,0-.39-.26-.39-.45a.47.47,0,0,1,.38-.47L41.39,23A.48.48,0,0,1,42,23.51Z"/><path class="cls-3" d="M41.49,24.93H38.09c-.29,0-.64-.12-.64-.7a.72.72,0,0,1,.58-.72l3.31-.71a.73.73,0,0,1,.89.72v.68A.74.74,0,0,1,41.49,24.93Zm0-1.65h-.05L38.14,24a.22.22,0,0,0-.19.23c0,.2,0,.2.14.2h3.41a.23.23,0,0,0,.23-.23v-.68a.24.24,0,0,0-.23-.23Z"/><path class="cls-4" d="M61.25,59.09H15.75a.75.75,0,0,1-.75-.75V21.19a.75.75,0,0,1,.44-.68L38.26,10a.75.75,0,0,1,.63,0L61.57,20.51a.75.75,0,0,1,.43.68V58.34A.75.75,0,0,1,61.25,59.09ZM16.5,57.59h44V21.67L38.57,11.5,16.5,21.67Z"/><path class="cls-3" d="M31.91,20.21c.42,0,.72-.6,1.43-.6a.76.76,0,0,1,.76.7v0a.76.76,0,0,1-.76.7c-.71,0-1-.6-1.43-.6a1.67,1.67,0,0,0-.95.34c-.54.3-.89.51-.89.51V19.35s.35.22.89.51A1.67,1.67,0,0,0,31.91,20.21Z"/><path class="cls-3" d="M29.81,21.73V18.9l.38.24s.35.22.88.51l.22.12a1,1,0,0,0,.61.19.84.84,0,0,0,.38-.2,1.73,1.73,0,0,1,1-.4,1,1,0,1,1,0,1.91,1.73,1.73,0,0,1-1-.4.84.84,0,0,0-.38-.2,1,1,0,0,0-.61.19l-.22.12c-.53.29-.87.5-.88.5Zm.5-1.94v1l.52-.29.21-.12.21-.11-.21-.11-.21-.12Zm2,.52.22.15a1.28,1.28,0,0,0,.76.31.46.46,0,1,0,0-.91,1.28,1.28,0,0,0-.76.31Z"/></svg>