<svg id="Layer_1" data-name="Layer 1" xmlns="http://www.w3.org/2000/svg" viewBox="0 0 77 77"><defs><style>.cls-1{fill:#e4f4fe;}.cls-2,.cls-3,.cls-7{fill:#fff;}.cls-2,.cls-3{stroke:#9acdf1;stroke-linecap:round;stroke-linejoin:round;}.cls-2{stroke-width:1.01px;}.cls-3{stroke-width:1.04px;}.cls-4{fill:#9acdf1;}.cls-5{fill:#f5da66;}.cls-6{fill:none;stroke:#f5da66;stroke-miterlimit:10;stroke-width:4px;}.cls-8{fill:#fcb3cd;}</style></defs><title>employee-benefits-2</title><circle class="cls-1" cx="38.5" cy="38.5" r="33.83"/><path class="cls-2" d="M20.88,4.86S23.19,8.66,27.25,16c1.26,2.26,5.92,10.84,6.63,12,3.27,5.53,4.1,6.75,5.36,5.24C40.85,31.3,35,22.71,35,22.71A6.55,6.55,0,0,1,42,25.48c3.5,5.42,4.6,9.64,6.62,9.05a1.37,1.37,0,0,0,1-1.34,1.72,1.72,0,0,0,2.14.42c1.06-.68.59-2.5.59-2.5s.55.44,1.13-.31-.28-3.8-.28-3.8.62.13,1.08-1S52,19.77,50,17.38s-4.61-3.44-8.85-3.23-6.33-2.93-8.76-5.95a25.29,25.29,0,0,1-3.65-6.35"/><path class="cls-2" d="M49.55,33.19A6.77,6.77,0,0,0,49,30.67c-1-2.92-3.34-7.74-6.33-10.1"/><path class="cls-2" d="M52.31,31.43s-1.76-7.63-6.87-12.28"/><path class="cls-2" d="M53.28,27.61A25.32,25.32,0,0,0,47.82,18"/><path class="cls-3" d="M44,73.24c-.17-1.24-.56-9.64-5.83-13.74C29.85,53,24.88,49,24.78,48.87a1.56,1.56,0,0,1,.52-2.14c.73-.45,1.25-.18,2.14.51,0,0,.93.77,2.92,2.36a36.37,36.37,0,0,1-6.25-9.3,1.56,1.56,0,0,1,.84-2,1.58,1.58,0,0,1,1.11,0c-.41-.92-.63-1.51-.68-1.6a1.56,1.56,0,0,1,2.92-1.11s.09.23.24.6a1.56,1.56,0,0,1,3-.7c.83,2.33,3.6,8.85,6.48,11,.68.5,1.43,1,2.23,1.52s1.34.88,2,1.36a36.38,36.38,0,0,0-4.16-6.77,2.08,2.08,0,0,1,3.16-2.7c.23.27,5.68,6.74,9,19.14a1.13,1.13,0,0,1,.05.27h0c.08.25.16.51.23.77,1.8,6.93,3.14,11.69,3.16,11.77"/><path class="cls-3" d="M28.32,35.5a33.75,33.75,0,0,0,4.88,9.85,27.15,27.15,0,0,0,2.8,3"/><path class="cls-3" d="M26,38a33.29,33.29,0,0,0,4.6,8.09,30.07,30.07,0,0,0,3.85,4"/><path class="cls-3" d="M27.38,46.07s3.21,4.16,5.46,5.72"/><circle class="cls-4" cx="40.63" cy="41.11" r="1.16"/><circle class="cls-4" cx="37.5" cy="31.78" r="1.16"/><circle class="cls-4" cx="48.25" cy="32.11" r="1.16"/><circle class="cls-4" cx="51.13" cy="31.11" r="1.16"/><circle class="cls-4" cx="52.67" cy="28.45" r="1.16"/><circle class="cls-4" cx="53.27" cy="24.39" r="0.97"/><circle class="cls-4" cx="30.25" cy="36.36" r="0.88"/><circle class="cls-4" cx="26.83" cy="36.45" r="0.88"/><circle class="cls-4" cx="25.33" cy="40.2" r="0.88"/><circle class="cls-4" cx="26.33" cy="48.45" r="0.88"/><circle class="cls-5" cx="44.88" cy="67.49" r="4.13"/><line class="cls-6" x1="46.25" y1="66.86" x2="52.75" y2="65.11"/><circle class="cls-7" cx="44.88" cy="67.49" r="2.7"/><polygon class="cls-8" points="24.67 12.62 22.9 9.61 30.9 4.62 32.66 7.62 24.67 12.62"/></svg>