<svg id="Layer_1" data-name="Layer 1" xmlns="http://www.w3.org/2000/svg" viewBox="0 0 77 77"><defs><style>.cls-1{fill:#e4f4fe;}.cls-2{fill:#99ccf0;}.cls-3{fill:#fff;}.cls-4{fill:#fbb2cc;}</style></defs><title>employee-benefits-2</title><circle class="cls-1" cx="38.67" cy="39" r="33.83"/><path class="cls-2" d="M62,39.61a19.81,19.81,0,0,1-19.8,19.8,18.4,18.4,0,0,1-6.27-1,2.92,2.92,0,0,0-2.76.28A26,26,0,0,1,23,61.5a21.39,21.39,0,0,0,4.71-6.09A3.28,3.28,0,0,0,27,52.23,19.8,19.8,0,1,1,62,39.61Z"/><path class="cls-3" d="M58.8,35.58A19.81,19.81,0,0,1,39,55.38a18.4,18.4,0,0,1-6.27-1,2.92,2.92,0,0,0-2.76.28,26,26,0,0,1-10.19,2.81,21.39,21.39,0,0,0,4.71-6.09,3.28,3.28,0,0,0-.76-3.18A19.8,19.8,0,1,1,58.8,35.58Z"/><path class="cls-4" d="M51.77,34.7C50.95,37,49.21,39.35,46.59,42,42,46.71,39.2,50.24,39,50.48h0c-.19-.24-3-3.77-7.59-8.44-2.61-2.69-4.35-5-5.18-7.34-1.52-4.29.22-9,3.63-10.34a6.16,6.16,0,0,1,5.88.5A10.63,10.63,0,0,1,39,28.64a10.63,10.63,0,0,1,3.26-3.77,6.16,6.16,0,0,1,5.88-.5C51.55,25.71,53.3,30.41,51.77,34.7Z"/></svg>