<svg id="Layer_1" data-name="Layer 1" xmlns="http://www.w3.org/2000/svg" viewBox="0 0 185 211" width="234" height="232"><defs><style>.cls-1{fill:#fdd9e6;}.cls-2{fill:#f74183;}.cls-3{fill:#fa8db5;}.cls-4{fill:#f9679c;}.cls-5{fill:#ef1143;}</style></defs><title>img--card</title><path class="cls-1" d="M1,147a1,1,0,0,1-.69-1.67L128.17,17.44a1,1,0,1,1,1.39,1.39L1.67,146.71A1,1,0,0,1,1,147Z"/><path class="cls-1" d="M7.11,153.13a1,1,0,0,1-.69-1.67L134.3,23.57A1,1,0,0,1,135.68,25L7.8,152.84A1,1,0,0,1,7.11,153.13Z"/><path class="cls-1" d="M13.24,159.26a1,1,0,0,1-.69-1.67L140.43,29.7a1,1,0,1,1,1.39,1.39L13.93,159A1,1,0,0,1,13.24,159.26Z"/><path class="cls-1" d="M19.37,165.38a1,1,0,0,1-.69-1.67L146.55,35.83a1,1,0,1,1,1.39,1.39L20.06,165.1A1,1,0,0,1,19.37,165.38Z"/><path class="cls-1" d="M25.49,171.51a1,1,0,0,1-.69-1.67L152.68,42a1,1,0,0,1,1.39,1.39L26.19,171.23A1,1,0,0,1,25.49,171.51Z"/><path class="cls-1" d="M31.62,177.64a1,1,0,0,1-.69-1.67L158.81,48.09a1,1,0,1,1,1.39,1.39L32.32,177.35A1,1,0,0,1,31.62,177.64Z"/><path class="cls-1" d="M37.75,183.77a1,1,0,0,1-.69-1.67L164.94,54.21a1,1,0,0,1,1.39,1.39L38.45,183.48A1,1,0,0,1,37.75,183.77Z"/><path class="cls-1" d="M43.88,189.9a1,1,0,0,1-.69-1.67L171.07,60.34a1,1,0,0,1,1.39,1.39L44.57,189.61A1,1,0,0,1,43.88,189.9Z"/><path class="cls-1" d="M50,196a1,1,0,0,1-.69-1.67L177.2,66.47a1,1,0,1,1,1.39,1.39L50.7,195.74A1,1,0,0,1,50,196Z"/><path class="cls-1" d="M56.14,202.16a1,1,0,0,1-.69-1.67L183.33,72.6A1,1,0,1,1,184.71,74L56.83,201.87A1,1,0,0,1,56.14,202.16Z"/><rect class="cls-2" x="62.36" y="12.42" width="7.71" height="18.51" transform="translate(120.08 -22.52) rotate(122.5)"/><rect class="cls-2" x="69.69" y="18.98" width="7.71" height="21.21" transform="translate(123.64 91.02) rotate(-151.11)"/><path class="cls-2" d="M88,32.92a0.72,0.72,0,0,1-.4-0.12c-0.73-.47-0.24-2,0.53-3.14h0a6.1,6.1,0,0,1,1.28-1.46,1,1,0,1,1,1.66,1.08A6.09,6.09,0,0,1,90.29,31C89.65,32,88.74,32.92,88,32.92Zm0.79-2.83a3.22,3.22,0,0,0-.74,2.07,3.82,3.82,0,0,0,1.55-1.55,3.22,3.22,0,0,0,.74-2.07,3.81,3.81,0,0,0-1.55,1.55h0Z"/><path class="cls-3" d="M83.23,44.2h0c0.75,0.59,2.17.79,4.91,1l0.67,0a6.77,6.77,0,0,1,3.28.62,4.89,4.89,0,0,1,.94.84,18.73,18.73,0,0,0,8.69-1.29,14,14,0,0,0,6.09-4.56l0.06-.09c5.3-7.46,2.57-12.64-3.87-15.39-3.9-1.67-6.74-1.54-9.07-.3a16.54,16.54,0,0,0-5.22,5.12l0,0c-0.45.61-.89,1.25-1.35,1.9-1,1.5-1.93,2.83-2.67,4a8,8,0,0,0,1.76,0c1.12-.09,1.84-0.29,2.12.3,0.44,0.9-1.27,2.23-5,1.45C82.61,41.21,82.16,43,83.23,44.2Z"/><path class="cls-2" d="M119.11,70.75l-1.21-1.65L119,70.75h0.13Z"/><path class="cls-3" d="M88.15,45.17l0.68,0a6.85,6.85,0,0,1,3.28.62,4.79,4.79,0,0,1,.47.37l0.24,0.23L93,46.67h0C94.24,48,95.46,50.42,97,54.34c0.5,1,.94,2.08,1.28,3,0.42,1.18.78,2.26,1.09,3.25,0,0,0,0,0,0,0.11,0.35.21,0.68,0.31,1,0,0,0,0,0,0,0.52,1.75.87,3.2,1.1,4.38l0.75-.83,0,0,0.09-.1v0l1.34-1.46,0.2,0.17,2,1.63c-0.59-1.21-1.16-2.35-.17-3a7,7,0,0,1,1.19-.65l0.07,0a1.54,1.54,0,0,1,.31-0.13l0.18-.06,0.46-.14,0.4-.09h0.05a5.43,5.43,0,0,1,.71-0.09h0l0.14,0h0.27a7,7,0,0,1,5,2.11l-1.45-2.18c-0.31-.47-0.61-0.94-0.9-1.41-0.75-1.16-1.43-2.29-2-3.35-0.4-.71-0.75-1.38-1-2-0.15-.32-0.29-0.64-0.41-0.93a20.89,20.89,0,0,1-1.77-7.13A8.58,8.58,0,0,1,107.69,41l0.09-.13a0,0,0,0,1,0,0l0,0h0l0.05-.09c0.11-.16.2-0.32,0.31-0.49l-9.51.94h0L98,41.25Z"/><path class="cls-3" d="M87,33.51L85.19,36l0.48,0.08a8,8,0,0,0,1.76,0l3.18-7a9.82,9.82,0,0,1-.89,1.05l0,0A5.07,5.07,0,0,1,87,31.88c-1.82.21-3.18-.11-3.29,0.26S87,33.51,87,33.51Z"/><path class="cls-2" d="M89.41,33.78A0.73,0.73,0,0,1,89,33.67c-0.73-.47-0.24-2,0.53-3.14h0c0.77-1.18,1.93-2.24,2.66-1.76a1.15,1.15,0,0,1,.28,1.38,6.76,6.76,0,0,1-2.09,3.22A1.63,1.63,0,0,1,89.41,33.78ZM90.19,31A3.22,3.22,0,0,0,89.45,33,3.81,3.81,0,0,0,91,31.48a3.22,3.22,0,0,0,.74-2.07A3.82,3.82,0,0,0,90.19,31h0Z"/><rect class="cls-2" x="94.31" y="29.47" width="0.79" height="6.82" transform="translate(24.31 104.26) rotate(-64.55)"/><path class="cls-3" d="M152.58,145c0-.17,0-0.31,0-0.48s0-.46,0-0.71c0-.06,0-0.12,0-0.18s0-.17,0-0.25a0.3,0.3,0,0,0,0-.1,1.33,1.33,0,0,0,0-.21,1,1,0,0,0,0-.24c0-.27,0-0.53-0.08-0.8s-0.07-.64-0.12-1a1.83,1.83,0,0,0,0-.25s0,0,0-.06c0-.29-0.08-0.59-0.13-0.89s-0.12-.76-0.19-1.13c0-.19-0.07-0.37-0.1-0.57-0.09-.46-0.2-0.94-0.3-1.44s-0.22-1-.33-1.5-0.29-1.17-.45-1.77-0.34-1.21-.52-1.81c-0.06-.22-0.12-0.42-0.19-0.63,0,0,0-.06,0-0.08s0-.17-0.08-0.25c-0.08-.27-0.17-0.56-0.25-0.83-0.24-.77-0.5-1.55-0.76-2.34,0-.14-0.09-0.25-0.14-0.37-0.14-.43-0.29-0.87-0.45-1.3-0.23-.64-0.46-1.27-0.72-1.92s-0.54-1.39-.81-2.12q-1.93-4.82-4.5-10.28c-0.3-.64-0.61-1.29-0.93-2-0.93-2-1.94-4-3-6l-0.71-1.36c-0.17-.31-0.32-0.61-0.47-0.91-0.66-1.22-1.3-2.43-2-3.65l-1.08-2c-2.29-4.13-4.6-8.08-6.77-11.68-0.34-.55-0.68-1.1-1-1.64-0.68-1.12-1.34-2.2-2-3.24l-1.18-1.88c-1.56-2.48-3-4.68-4.2-6.53-0.37-.58-0.74-1.11-1.06-1.61l0,0c-1.84-2.79-3-4.49-3.19-4.72a7.24,7.24,0,0,0-5.92-3.25h-0.43l-0.14,0h-0.08l-0.29,0h-0.12l-0.09,0a3.5,3.5,0,0,0-.46.11l-0.45.14-0.19.07-0.2.07-0.19.08-0.25.11-0.06,0a0.75,0.75,0,0,0-.18.1l-0.18.09a5.89,5.89,0,0,0-.53.32l-0.14.1-0.19.21a0.88,0.88,0,0,0-.19.41,0.5,0.5,0,0,0,0,.13,4.77,4.77,0,0,0,.7,2.18l-2-1.63-0.2-.18s-0.46.52-1.34,1.46v0l-0.11.12c-0.24.25-.48,0.53-0.75,0.83l-1,1c-0.82.89-1.78,2-2.87,3.16l-1.15,1.26h0c-0.16.16-.29,0.31-0.44,0.47L93.9,73.51l-2,2.24-0.44.48-1,1.12-3.73,4c-0.27.29-.55,0.6-0.84,0.9l-0.72.78Q83.31,85,81.38,87l-1.62,1.66-0.22.23c-1.18,1.21-2.4,2.4-3.63,3.57L74.22,94c-0.48.45-1,.88-1.45,1.32L72,96c-0.21-2-.34-4.16-0.4-6.27,0-.72,0-1.43,0-2.14,0-.22,0-0.42,0-0.63,0-.59,0-1.36,0-2.19V84.75c0-.17,0-0.54,0-0.93l-0.2-.15c0-.29,0-0.57.06-0.86V82.74c0.08-1.53.14-3.08,0.18-4.61,0-.28,0-0.59,0-0.89,0-.06,0-0.12,0-0.18s0-.31,0-0.49c0-1,0-2,.08-3.06,0-.22,0-0.44,0-0.66s0-.44,0-0.67c0-.53,0-1.06,0-1.6,0-1.83.12-3.6,0.23-5.22,0-.89.11-1.69,0.17-2.37,0.25-2.74.51-5.27,0.75-7.61C74.45,40.54,76,33.6,76.29,32.59h0l0-.13-3,3-0.93-6.24v0l-0.66-4.32L71.64,24a8.68,8.68,0,0,0-3.17,2.64,0.09,0.09,0,0,0,0,.06c-0.17.23-.31,0.44-0.45,0.67a9,9,0,0,0-1.17,5.8l0.07,0.54h0l0.6,4.63A20,20,0,0,1,67.68,43c-0.23,1.63-1.31,6.48-3,15.5a1.16,1.16,0,0,1,0,.2c-2.27,11.8-4.92,25.7-5.15,27.6A95.48,95.48,0,0,0,58.67,97a40,40,0,0,0,.26,4.8c0.06,0.47.12,1,.21,1.47a1.1,1.1,0,0,0,0,.18,19.79,19.79,0,0,0,.54,2.25,17.57,17.57,0,0,0,.67,1.74,11,11,0,0,0,2,3,9,9,0,0,0,3.92,2.45h0a8,8,0,0,0,1.18.27L68,113.22l0.27,0h0.09l0.17,0H69.4l0.51,0c0.32,0,.55-0.06.8-0.1l0.09,0A5.42,5.42,0,0,0,71.6,113a12.84,12.84,0,0,0,1.31-.37h0l0.56-.21,0.52-.21a23.85,23.85,0,0,0,3.34-1.73c0.68-.4,1.31-0.82,1.91-1.23s1.27-.89,1.87-1.35c0.41-.31.8-0.61,1.2-0.92,0.22-.17.43-0.32,0.64-0.5,1.51-1.2,2.9-2.42,4.25-3.64,0.47-.46,1-0.91,1.44-1.35l1.73-1.64c0.86-.8,1.69-1.62,2.5-2.43h0l1.27-1.28c1-1.08,2.07-2.15,3-3.2,0.33-.34.65-0.69,1-1,0.48-.51.94-1,1.39-1.51q1.82-2,3.42-3.85l0.26-.29c0.53-.6,1-1.19,1.52-1.76,0.84-1,1.65-1.94,2.38-2.83,0.3,0.69.64,1.41,1,2.15s0.63,1.39.94,2.12c1,2.28,2.12,4.76,3.24,7.36h0c0.19,0.44.38,0.88,0.58,1.33h0c0.54,1.3,1.1,2.61,1.65,3.94v0c0.16,0.38.3,0.76,0.46,1.14,1,2.55,2,5.11,3,7.7,0.25,0.67.5,1.32,0.74,2,0.92,2.49,1.77,5,2.53,7.34,0.24,0.73.46,1.43,0.67,2.13,0.54,1.79,1,3.53,1.43,5.19,0.24,0.91.43,1.78,0.62,2.64h0c0.1,0.46.19,0.9,0.26,1.33,0.14,0.76.25,1.5,0.36,2.21,0.6,4.32.31,7.59-1.29,9.06-2.59,2.39-14.74-1.4-25.84-5.64-2.17-1.16-4.33-2.34-6.48-3.52-3.94-2.16-7.92-4.33-11.86-6.41q-1.16-.63-2.35-1.24l-0.11-.08-0.58-.29h0l-1.15-.61-0.15-.07h0l-1.33-.7c-0.45-.22-0.88-0.44-1.32-0.67s-1-.53-1.53-0.77L70,119l-1.65-.81-0.79-.38c-0.5-.25-1-0.49-1.5-0.72s-0.8-.39-1.21-0.57l-0.94-.44-1.58-.73-0.53-.23c-0.35-.17-0.71-0.31-1-0.46a2.14,2.14,0,0,0-.26-0.11c-0.36-.17-0.74-0.32-1.1-0.47l-0.68-.29h0c-0.31-.13-0.64-0.25-0.94-0.39h0l-2-.79-1.28-.48-0.75-.26-0.42-.17-0.39-.13-0.42-.14-0.59-.2c-0.52-.18-1.06-0.34-1.64-0.51a0.3,0.3,0,0,0-.13,0l-0.25-.08-0.25-.08-0.51-.14-0.53-.14L48,110.15l-0.28-.07c-0.37-.1-0.74-0.19-1.12-0.26l-0.86-.17-1.1-.2-0.5-.08-0.17,0-0.67-.09H43.17a1.4,1.4,0,0,0-.28,0l-0.31,0-0.75-.06a0.29,0.29,0,0,0-.13,0l-0.6,0h0l-0.38,0c-0.42,0-.85,0-1.28,0l-0.33,0H38.71l-0.67,0-0.66.06c-0.44.06-.87,0.12-1.31,0.2l-0.48.1-0.78.19-0.6.17c-0.31.09-.61,0.2-0.91,0.31l-0.44.16c-0.16.06-.29,0.13-0.44,0.2-0.3.13-.59,0.27-0.87,0.42a3.82,3.82,0,0,0-.34.19,10.41,10.41,0,0,0-1,.67l-0.44.31-0.22.16h0a2,2,0,0,1-.22.2l-0.18.14-0.28.25-0.18.18-0.17.16-0.16.16c-0.13.12-.23,0.23-0.32,0.33s-0.47.53-.7,0.8-0.31.39-.45,0.59l0,0c-0.17.24-.33,0.47-0.49,0.73a17.16,17.16,0,0,0-2.74,10.29q0,0.44.06,0.88c0,0.3.06,0.61,0.11,0.9s0.08,0.61.14,0.91,0.1,0.58.16,0.86,0.1,0.45.15,0.67,0.11,0.44.18,0.68,0.1,0.38.16,0.59l0.16,0.55c0,0.07,0,.14.07,0.22,0.08,0.25.18,0.52,0.26,0.77s0.18,0.53.27,0.79,0.18,0.49.28,0.74,0.14,0.37.22,0.56,0.21,0.5.32,0.76,0.19,0.45.29,0.69c0.22,0.46.43,0.93,0.67,1.41l0.32,0.63c0.16,0.32.33,0.65,0.51,1s0.29,0.56.46,0.84a7.45,7.45,0,0,0-.39.64v0a3.71,3.71,0,0,0-.2.33,4.43,4.43,0,0,0-.26.53c-0.08.17-.15,0.35-0.22,0.53a2.93,2.93,0,0,0-.15.41c-0.08.22-.15,0.44-0.21,0.66s-0.11.45-.16,0.68,0,0.27-.07.4,0,0.26-.06.39a9.65,9.65,0,0,0,0,2.12c0,0.08,0,.17,0,0.24a10.12,10.12,0,0,0,.19,1.22c0,0.16.06,0.3,0.1,0.46h0c0,0.19.1,0.38,0.16,0.57s0.17,0.5.26,0.75h0c0.07,0.17.14,0.35,0.23,0.52,0,0,0,0,0,0,0.13,0.28.27,0.57,0.42,0.84a1.12,1.12,0,0,0,.1.19,3.51,3.51,0,0,0,.27.43,1.18,1.18,0,0,0,.13.21,14.58,14.58,0,0,0,2.21,2.65,5.47,5.47,0,0,0,.42.38c0.27,0.26.57,0.51,0.86,0.75l0.45,0.35c0.15,0.12.29,0.24,0.45,0.34a29,29,0,0,0,3.71,2.31l0.9,0.47c0.61,0.3,1.2.58,1.74,0.81L39.75,161c0.69,0.29,1.28.55,1.77,0.74,1.14,0.47,2.36.92,3.67,1.37,5.21,6,11.16,12.38,17.66,19.3,1,1,2.3,2.5,3.74,4.13,1.27,1.44,2.65,3,3.94,4.6a71.39,71.39,0,0,1,4.75,6.32h0c0.09,0.15.18,0.28,0.25,0.43s0.2,0.34.27,0.52a4.16,4.16,0,0,1,.25.45c0.07,0.16.13,0.29,0.18,0.42a1.69,1.69,0,0,1,.07.21,0.62,0.62,0,0,1,.06.18,1.4,1.4,0,0,1,.07.7,0.6,0.6,0,0,0,0,.11,1.85,1.85,0,0,1-.14.24,0.51,0.51,0,0,1-.1.11l-0.08.09a1,1,0,0,1-.19.17l-0.13.1a12.1,12.1,0,0,1-3.47,1.39l-0.09,0-1.23.32q-1,.24-2.06.44l-0.68.14-1,.2c-0.91.16-1.86,0.32-2.8,0.47l-1.68.26-0.63.09-0.52.08-0.9.14-2.6.36-0.73.11L56,205.4l-1.21.2-1.55.29-0.89.19-0.41.09-0.72.2-0.47.13-0.43.13a4.35,4.35,0,0,0-.47.17,3.55,3.55,0,0,0-1.17.64,0.64,0.64,0,0,0-.12.11l-0.09.1s0,0.08-.06.11a0.41,0.41,0,0,0,0,.1c-0.43,1.4,2.54,1.92,6.52,2.21l3.56,0.22h0c8.17-.16,16.17-2.41,22.15-4.27s7.92-.1,8.74,3.21c4.37-.52,7.53-1.21,7.62-2.09a6,6,0,0,0,0-.61,5.73,5.73,0,0,0,0-.7v0a2.83,2.83,0,0,0,0-.28,1.1,1.1,0,0,0,0-.18,2.4,2.4,0,0,0-.06-0.35c0-.12,0-0.23-0.07-0.34v0s0-.1,0-0.15l-0.13-.51-0.22-.69c0-.13-0.08-0.25-0.13-0.37a0.65,0.65,0,0,0,0-.15c-0.06-.13-0.11-0.25-0.16-0.39v0a4.61,4.61,0,0,0-.21-0.51c-0.06-.16-0.12-0.31-0.19-0.46s-0.19-.4-0.29-0.6a0.33,0.33,0,0,0-.06-0.12,5,5,0,0,0-.25-0.51c-0.15-.3-0.3-0.61-0.47-0.93s-0.39-.72-0.61-1.09c-0.5-.86-1.06-1.77-1.68-2.73a5.35,5.35,0,0,1-.3-0.46l-0.25-.37-0.42-.62-0.71-1c-0.38-.55-0.79-1.12-1.23-1.69-0.25-.37-0.53-0.74-0.82-1.11s-0.51-.68-0.78-1c-0.15-.18-0.29-0.36-0.43-0.55a2.11,2.11,0,0,0-.13-0.19c-1.74-2.22-3.72-4.59-5.89-7.11q-3.57-4.12-7.93-8.74c-0.88-1-1.77-1.87-2.63-2.8,15.43,3.09,32,5.38,43.56,6.85,3.23,0.41,6.07.75,8.38,1,1.14,0.14,2.65.32,4,.5s2.26,0.3,2.69.39c0.14,0,.29.07,0.43,0.12l0.18,0.06a3.27,3.27,0,0,1,.43.17l0.41,0.21a0.28,0.28,0,0,1,.11.08h0a4.29,4.29,0,0,1,.38.25,2.23,2.23,0,0,1,.33.28h0l0.25,0.25a5.09,5.09,0,0,1,.55.67,2.69,2.69,0,0,1,.23.35,4.5,4.5,0,0,1,.27.53,2.49,2.49,0,0,1,.12.23,2,2,0,0,1,.14.33c0.07,0.18.14,0.36,0.2,0.57a1.79,1.79,0,0,1,.08.25,1,1,0,0,1,.06.25,4.8,4.8,0,0,1,.13.54c0,0.19.08,0.37,0.11,0.58a13.82,13.82,0,0,1,.16,2.17c0,0.29,0,.59,0,0.9s0,0.58-.06.86c0,0.51-.11,1-0.2,1.57,0,0.32-.12.65-0.19,1s-0.2.9-.3,1.35c-0.06.24-.12,0.47-0.2,0.72-0.13.46-.27,0.93-0.42,1.41-0.25.73-.51,1.48-0.81,2.24-0.1.25-.21,0.5-0.31,0.75-0.24.55-.48,1.08-0.74,1.6s-0.53,1-.79,1.5c-0.54,1-1.09,1.83-1.57,2.64l-0.35.58c-0.24.37-.44,0.73-0.63,1a8.64,8.64,0,0,0-.59,1.26,0.62,0.62,0,0,0-.06.18,1.84,1.84,0,0,0-.1.58,1,1,0,0,0,0,.25,0.23,0.23,0,0,0,0,.08,0.55,0.55,0,0,0,.13.24,1.63,1.63,0,0,0,1.31.55l0.36,0h0l0.34-.07a5.54,5.54,0,0,0,.9-0.31c0.21-.09.43-0.21,0.68-0.33s0.64-.38,1-0.63a2.43,2.43,0,0,1,.25-0.19c0.52-.36,1.1-0.81,1.72-1.34l0.5-.44h0c9.62-9.89,5.69-20.79,6.26-25.1a4.23,4.23,0,0,1,4-3.88c0-4.26-.62-7.5-1.51-8.5a5.94,5.94,0,0,0-1.44-1.18,2.62,2.62,0,0,0-.4-0.22l-0.4-.19a6.49,6.49,0,0,0-.87-0.28,2.57,2.57,0,0,0-.47-0.13l-0.09,0c-0.21,0-.42-0.08-0.64-0.12l-0.28,0-0.28,0-0.63-.07-0.57,0c-1.35-.12-2.89-0.18-4.66-0.33-0.75-.07-1.53-0.15-2.35-0.26l-0.41,0-1-.15-2.33-.28-1.31-.16-0.58-.08h0l-7-.86c-10.54-1.32-25.84-3.41-40.23-6.17a225.49,225.49,0,0,1-23.22-5.52c-2.48-.76-4.5-1.46-6.13-2.12,1.29,0,2.79.07,4.52,0.17,7,0.4,17.94,1.75,34.71,5.06l3.91,0.78,3.84,0.8,2.28,0.49,2.26,0.49,1.29,0.29L102,157l3.43,0.78c1.65,0.36,3.23.74,4.75,1.1l0.58,0.13q0.62,0.13,1.21.29l3.39,0.81,1,0.25,2.87,0.72,0.34,0.08,0.16,0c1.71,0.42,3.17.78,4.33,1.09,0.25,0.06.5,0.12,0.73,0.19l0.4,0.1,0.35,0.1,0.42,0.11,0.44,0.12,0.68,0.18h0c0.31,0.08.62,0.14,0.92,0.19h0l1,0.21h0a34.27,34.27,0,0,0,5.49.71c0.57,0,1.12,0,1.67,0l0.42,0c0.33,0,.66,0,1-0.06l0.35,0h0c0.33,0,.67-0.07,1-0.13a14.5,14.5,0,0,0,1.63-.33l0.23,0,0.43-.13,0.65-.2,0.14,0,0.25-.1,0.76-.3a2.47,2.47,0,0,0,.32-0.15c0.31-.14.63-0.29,0.93-0.46s0.58-.33.85-0.51,0.61-.4.91-0.62a16,16,0,0,0,1.56-1.34c0.23-.22.44-0.43,0.65-0.67s0.41-.48.62-0.72l0,0,0.49-.66h0c0.08-.12.16-0.23,0.23-0.34a2.09,2.09,0,0,0,.13-0.19c0.09-.15.19-0.28,0.27-0.42l0.24-.44a0.33,0.33,0,0,0,.06-0.12c0.12-.21.24-0.42,0.33-0.64,0,0,0,0,0,0q0.15-.28.26-0.56c0.12-.25.23-0.51,0.32-0.78l0-.09a2.06,2.06,0,0,0,.08-0.23c0.1-.26.19-0.52,0.27-0.79,0,0,0-.1,0-0.16,0.09-.3.17-0.62,0.25-0.93,0,0,0-.06,0-0.09,0.08-.31.15-0.66,0.21-1l0-.19c0-.17.06-0.33,0.09-0.52v-0.09a5.67,5.67,0,0,0,.09-0.61c0-.28.07-0.58,0.09-0.87l0-.37a0.3,0.3,0,0,0,0-.1c0-.25,0-0.49,0-0.75a5.26,5.26,0,0,0,0-.56C152.61,146.22,152.6,145.64,152.58,145ZM72.82,100.72a1.9,1.9,0,0,1,.26.47C73.09,101.29,73,101.06,72.82,100.72ZM45.63,133.09s-5.79-4-1.33-6.67S59,132.19,59,132.19Z"/><path class="cls-2" d="M57.79,8.19a0.58,0.58,0,0,1-.47-0.24l-5.13-7A0.58,0.58,0,1,1,53.12.24l5.13,7A0.58,0.58,0,0,1,57.79,8.19Z"/><path class="cls-2" d="M49.73,20.88H49.62l-8.54-1.65a0.58,0.58,0,0,1,.22-1.14l8.54,1.65A0.58,0.58,0,0,1,49.73,20.88Z"/><path class="cls-2" d="M52.54,13.76a0.57,0.57,0,0,1-.31-0.09L44.66,8.86a0.58,0.58,0,0,1,.62-1l7.57,4.81A0.58,0.58,0,0,1,52.54,13.76Z"/><rect class="cls-2" x="77.6" y="17.83" width="1.83" height="6.59" rx="0.92" ry="0.92" transform="translate(135.95 78.67) rotate(-150)"/><path class="cls-2" d="M96.62,26.35c5.06,0.36.1,9,.1,9a10.43,10.43,0,0,0,1.49-.51c1.44-.6,2.27-1,3.18-0.22,1.16,1-.68,5.45-4.34,4.19,0,0,5.06,8.24,9.33,7.38,2.63-1.08.12-3.57,1.45-5.42,5.37-7.5,3.24-13.69-3.42-15.91-4.19-1.4-7.91-.34-11.09-2.75A3.38,3.38,0,0,0,96.62,26.35Z"/><path class="cls-2" d="M54.9,210c1,0.07,2.21.15,3.56,0.21h0c8.17-.15,16.18-2.4,22.16-4.26s7.92-.1,8.74,3.2c4.37-.52,7.53-1.21,7.61-2.08,0.37-3.68-2.95-10-9.65-18.57a22,22,0,0,0-12.08,8.93c0.83,1.33,1.29,2.37,1.16,2.9-0.2.83-1.82,1.56-4.13,2.2h0a130.76,130.76,0,0,1-14.2,2.52c-8,1.11-9.48,2-9.7,2.75C48,209.23,50.92,209.75,54.9,210Z"/><path class="cls-2" d="M131.4,197.16c-2.09,5-5.68,8.68-4.65,9.92,0.86,1,3,.89,7.07-2.8h0c9.61-9.89,5.68-20.78,6.26-25.11a4.22,4.22,0,0,1,4-3.88c0-4.25-.62-7.51-1.52-8.5-2.69-3-6.49-2-13.08-2.92-1-.15-2.74-0.35-5.1-0.65l-0.58-.07a22.85,22.85,0,0,0,2.8,14.92c1.21,0.16,2.25.31,2.69,0.4C134.29,179.52,135.59,187.19,131.4,197.16Z"/><path class="cls-4" d="M58.68,97a40.3,40.3,0,0,0,.26,4.81c0.06,0.46.12,1,.2,1.46,0,0.06,0,.12,0,0.18a19.58,19.58,0,0,0,.54,2.25,15.68,15.68,0,0,0,.67,1.74,10.86,10.86,0,0,0,2,3,9.09,9.09,0,0,0,3.92,2.44h0a8.63,8.63,0,0,0,1.18.28L68,113.22l0.28,0h0.09l0.16,0H69.4l0.51,0,0.8-.1,0.09,0A6.18,6.18,0,0,0,71.6,113a12.47,12.47,0,0,0,1.32-.37h0l0.57-.21,0.52-.2a24.22,24.22,0,0,0,3.34-1.72c0.68-.41,1.3-0.83,1.9-1.23s1.28-.9,1.88-1.35l1.2-.92,0.64-.5c1.51-1.19,2.9-2.42,4.24-3.64l1.45-1.34,1.73-1.63q1.28-1.23,2.5-2.44h0c0.44-.43.85-0.85,1.27-1.28q1.58-1.63,3-3.2l1-1,1.4-1.52c1.21-1.33,2.35-2.62,3.43-3.85l0.26-.29c0.53-.6,1-1.19,1.52-1.75,0.85-1,1.64-1.94,2.38-2.84l1,2.15c0.31,0.68.63,1.39,1,2.12,1,2.28,2.11,4.76,3.23,7.36h0l0.57,1.34h0c0.54,1.3,1.1,2.62,1.65,4h0L115,99.72h0c1,2.54,2,5.11,3,7.69,0.25,0.67.49,1.33,0.74,2,0.91,2.49,1.76,5,2.52,7.35,0.24,0.72.46,1.43,0.67,2.13,0.54,1.79,1,3.53,1.44,5.19,0.23,0.9.43,1.78,0.61,2.63h0c0.1,0.46.19,0.9,0.27,1.34,0.13,0.75.26,1.49,0.35,2.2l24.3-2.67h0c0-.13-0.09-0.24-0.13-0.37-0.14-.43-0.3-0.87-0.46-1.31Q148,125,147.58,124c-0.26-.69-0.53-1.4-0.82-2.11q-1.92-4.84-4.49-10.28c-0.3-.64-0.61-1.3-0.94-2-0.94-1.95-1.94-4-3-6l-0.71-1.37-0.47-.9q-1-1.84-2-3.65l-1.08-2c-2.29-4.13-4.6-8.08-6.77-11.68l-1-1.63q-1-1.67-2-3.23l-1.18-1.89c-1.56-2.47-3-4.67-4.2-6.52-0.38-.59-0.75-1.14-1.08-1.65-1.85-2.79-3-4.49-3.17-4.71a7.79,7.79,0,0,0-.94-1.13,7,7,0,0,0-5-2.11h-0.42l-0.2,0h0l-0.28,0-0.13,0-0.09,0-0.46.1-0.46.14-0.18.06-0.2.07-0.19.08-0.25.12-0.06,0-0.35.18c-0.18.1-.36,0.21-0.53,0.33-0.47.31-1.12,0.8-1.83,1.38-0.42.35-.86,0.72-1.28,1.12h0c-0.16.15-.31,0.3-0.46,0.46h0c-0.23.22-.44,0.44-0.65,0.68s-0.6.66-.94,1l-2.88,3.17-1.15,1.27-3.89,4.28-0.44.48-1,1.12-3.72,4-0.84.91-0.72.78Q83.31,85,81.39,87l-1.61,1.66-0.22.23c-1.18,1.21-2.4,2.41-3.64,3.58-0.57.54-1.13,1.07-1.71,1.59s-1,.88-1.45,1.31L72,96c-0.2-2-.34-4.15-0.4-6.26,0-.72,0-1.43,0-2.14h0c0-.21,0-0.42,0-0.63,0-.58,0-1.35,0-2.18V84.75c0-.35,0-1.41-0.05-2,0-.26,0-0.44,0-0.44,0-.31.2-13.9,0.68-19.28,0.24-2.74.5-5.27,0.75-7.61l-8.22,3.11-1.08.41C61.28,70.71,59.66,84.4,59.44,86.3A94.34,94.34,0,0,0,58.68,97Z"/><path class="cls-2" d="M148.75,127.21c0,0.13.09,0.24,0.13,0.37h0C148.85,127.45,148.8,127.34,148.75,127.21Z"/><path class="cls-2" d="M28.78,140.15a3.69,3.69,0,0,1,.53-0.78,9.3,9.3,0,0,1,2-1.75A21.78,21.78,0,0,1,35,135.71l2.42-.86c0.86-.27,1.79-0.46,2.75-0.71a26.85,26.85,0,0,1,3-.6c1.05-.16,2.14-0.38,3.27-0.51L50,132.7c0.59-.05,1.19-0.12,1.8-0.16l1.84,0c2.47-.07,5-0.17,7.61-0.06s5.22,0.09,7.85.31L73,133.05c1.31,0.09,2.61.2,3.89,0.37l7.54,0.89c2.45,0.28,4.79.73,7,1.08l6.27,1c3.87,0.75,7.07,1.45,9.32,1.9l3.53,0.76-3.57-.5c-2.27-.35-5.52-0.79-9.4-1.42l-6.29-.82c-2.23-.27-4.58-0.62-7-0.89l-7.52-.8c-1.28-.15-2.57-0.25-3.87-0.33L69,134.08c-2.61-.25-5.22-0.31-7.79-0.4s-5.1-.07-7.54,0l-1.82,0-1.78.11-3.44.21c-1.12.08-2.19,0.27-3.24,0.39a26.28,26.28,0,0,0-3,.48c-1,.21-1.88.37-2.74,0.59l-2.42.71a21.42,21.42,0,0,0-3.74,1.66,10,10,0,0,0-2.11,1.58A3.69,3.69,0,0,0,28.78,140.15Z"/><path class="cls-2" d="M148.88,127.58l-24.3,2.67c0.6,4.32.32,7.58-1.27,9.06-2.6,2.39-14.75-1.4-25.86-5.64q-3.24-1.74-6.46-3.52c-12.23-6.68-24.88-13.58-35.28-17.52-5.45-2.07-22-8.35-29.39,3.19-4.49,7.05-3.27,15.15,2,24.71a10.28,10.28,0,0,0-1.71,4.59c-1.19,10.12,10.88,15,14.86,16.62,1.14,0.46,2.36.93,3.67,1.37,5.2,6,11.16,12.38,17.66,19.31,1,1,2.3,2.49,3.74,4.11l14.73-5.29q-3.57-4.12-7.92-8.74l-2.65-2.8c15.44,3.1,32,5.39,43.57,6.85l2.59-14.26c-10.54-1.32-25.83-3.42-40.23-6.17a222.3,222.3,0,0,1-23.22-5.52c-2.48-.76-4.5-1.46-6.13-2.11,1.29,0,2.79,0,4.52.16,7,0.41,17.94,1.75,34.72,5.06,21,4.15,40.41,9.31,40.6,9.35a8.38,8.38,0,0,0,.91.19h0l1,0.21h0c1.77,0.25,3.63.49,5.5,0.71,4.48,0.19,8.34-.75,11.51-3.13,7.6-5.71,8.58-16.54,2.77-33.48m-103.24,5.5s-5.79-4-1.33-6.67S59,132.19,59,132.19l-13.34.89"/><path class="cls-2" d="M55.09,132.45l-1.48,0-1.84,0c-0.61,0-1.2.1-1.8,0.16l-3.05.3,8.17-.55"/><path class="cls-5" d="M58.77,132.38c-1.24,0-2.47,0-3.68.07l-8.17.55-0.42,0c-1.13.12-2.21,0.35-3.27,0.51a26.84,26.84,0,0,0-3,.6c-1,.25-1.89.44-2.75,0.71l-2.42.86a21.78,21.78,0,0,0-3.71,1.91,9.3,9.3,0,0,0-2,1.75,3.7,3.7,0,0,0-.53.78,3.69,3.69,0,0,1,.58-0.73,10,10,0,0,1,2.11-1.58,21.42,21.42,0,0,1,3.74-1.66l2.42-.71c0.86-.21,1.79-0.38,2.74-0.59a26.28,26.28,0,0,1,3-.48c1-.12,2.12-0.3,3.24-0.39l3.44-.21,1.78-.11,1.82,0c1.38,0,2.78-.06,4.21-0.06,1.1,0,2.22,0,3.34.08,2.57,0.09,5.18.14,7.79,0.4l3.91,0.26c1.3,0.08,2.59.17,3.87,0.33l7.52,0.8c2.44,0.28,4.79.63,7,.89l6.29,0.82c3.88,0.63,7.13,1.07,9.4,1.42l3.57,0.5-3.53-.76c-2.25-.45-5.46-1.16-9.32-1.9l-6.27-1c-2.23-.35-4.57-0.8-7-1.08l-7.54-.89c-1.28-.17-2.58-0.28-3.89-0.37l-3.93-.31c-2.62-.22-5.26-0.25-7.85-0.31-0.82,0-1.64,0-2.45,0"/><path class="cls-2" d="M147.31,124.87a1.15,1.15,0,0,0,1,1Q148,125,147.58,124A1.14,1.14,0,0,0,147.31,124.87Z"/><circle class="cls-2" cx="143.77" cy="125.24" r="1.16" transform="translate(-12.15 15.5) rotate(-5.92)"/><circle class="cls-2" cx="139.08" cy="125.72" r="1.16" transform="translate(-12.23 15.02) rotate(-5.92)"/><circle class="cls-2" cx="134.39" cy="126.21" r="1.16" transform="translate(-12.3 14.54) rotate(-5.92)"/><circle class="cls-2" cx="129.7" cy="126.7" r="1.16" transform="translate(-12.38 14.06) rotate(-5.92)"/><path class="cls-2" d="M124,126.7h0c0.1,0.46.19,0.9,0.27,1.34a1.2,1.2,0,0,0,.9.28A1.16,1.16,0,1,0,124,126.7Z"/><circle class="cls-2" cx="144.55" cy="120.26" r="1.16" transform="translate(-11.63 15.55) rotate(-5.92)"/><circle class="cls-2" cx="139.87" cy="120.75" r="1.16" transform="translate(-11.71 15.07) rotate(-5.92)"/><circle class="cls-2" cx="135.18" cy="121.23" r="1.16" transform="translate(-11.78 14.59) rotate(-5.92)"/><circle class="cls-2" cx="130.49" cy="121.72" r="1.16" transform="translate(-11.86 14.11) rotate(-5.92)"/><circle class="cls-2" cx="125.8" cy="122.21" r="1.16" transform="translate(-11.94 13.63) rotate(-5.92)"/><circle class="cls-2" cx="140.65" cy="115.77" r="1.16" transform="translate(-11.19 15.13) rotate(-5.92)"/><circle class="cls-2" cx="135.96" cy="116.26" r="1.16" transform="translate(-11.27 14.65) rotate(-5.92)"/><circle class="cls-2" cx="131.27" cy="116.74" r="1.16" transform="translate(-11.34 14.16) rotate(-5.92)"/><circle class="cls-2" cx="126.58" cy="117.23" r="1.16" transform="translate(-11.42 13.68) rotate(-5.92)"/><path class="cls-2" d="M121.24,116.75c0.24,0.72.46,1.43,0.67,2.13H122a1.17,1.17,0,0,0,1-1.28A1.17,1.17,0,0,0,121.24,116.75Z"/><path class="cls-2" d="M140.28,110.91a1.17,1.17,0,0,0,1.27,1,1.13,1.13,0,0,0,.72-0.35c-0.3-.64-0.61-1.3-0.94-2h0A1.16,1.16,0,0,0,140.28,110.91Z"/><circle class="cls-2" cx="136.75" cy="111.28" r="1.16" transform="translate(-10.75 14.7) rotate(-5.92)"/><circle class="cls-2" cx="132.06" cy="111.77" r="1.16" transform="translate(-10.82 14.22) rotate(-5.92)"/><circle class="cls-2" cx="127.37" cy="112.25" r="1.16" transform="translate(-10.9 13.74) rotate(-5.92)"/><circle class="cls-2" cx="122.68" cy="112.74" r="1.16" transform="translate(-10.98 13.26) rotate(-5.92)"/><circle class="cls-2" cx="137.53" cy="106.3" r="1.16" transform="translate(-10.23 14.75) rotate(-5.92)"/><circle class="cls-2" cx="132.84" cy="106.79" r="1.16" transform="translate(-10.31 14.27) rotate(-5.92)"/><circle class="cls-2" cx="128.15" cy="107.28" r="1.16" transform="translate(-10.38 13.79) rotate(-5.92)"/><circle class="cls-2" cx="123.46" cy="107.76" r="1.16" transform="translate(-10.46 13.31) rotate(-5.92)"/><path class="cls-2" d="M118,107.41c0.25,0.67.49,1.33,0.74,2h0.17a1.17,1.17,0,0,0,1-1.27,1.15,1.15,0,0,0-1.27-1A1.18,1.18,0,0,0,118,107.41Z"/><path class="cls-2" d="M70.72,113.14l0.09,0A6.18,6.18,0,0,0,71.6,113a12.47,12.47,0,0,0,1.32-.37h0a1.16,1.16,0,0,0-1.16-.64A1.17,1.17,0,0,0,70.72,113.14Z"/><path class="cls-2" d="M66.3,112.86a8.63,8.63,0,0,0,1.18.28L68,113.22l0.28,0a1.15,1.15,0,0,0-1.23-.8A1.12,1.12,0,0,0,66.3,112.86Z"/><path class="cls-2" d="M137.15,101.35s0,0.06,0,.09a1.14,1.14,0,0,0,.46.81Z"/><circle class="cls-2" cx="133.63" cy="101.81" r="1.16" transform="translate(-9.79 14.33) rotate(-5.92)"/><circle class="cls-2" cx="128.94" cy="102.3" r="1.16" transform="translate(-9.86 13.85) rotate(-5.92)"/><circle class="cls-2" cx="124.25" cy="102.79" r="1.16" transform="translate(-9.94 13.37) rotate(-5.92)"/><circle class="cls-2" cx="119.56" cy="103.27" r="1.16" transform="translate(-10.02 12.88) rotate(-5.92)"/><path class="cls-2" d="M80.89,107.28a1.16,1.16,0,0,0,.24.59l1.2-.92,0.64-.5a1.16,1.16,0,0,0-1-.44A1.15,1.15,0,0,0,80.89,107.28Z"/><circle class="cls-2" cx="77.35" cy="107.65" r="1.16" transform="translate(-10.69 8.55) rotate(-5.92)"/><circle class="cls-2" cx="72.66" cy="108.14" r="1.16" transform="translate(-10.77 8.07) rotate(-5.92)"/><circle class="cls-2" cx="67.97" cy="108.62" r="1.16" transform="translate(-10.84 7.59) rotate(-5.92)"/><circle class="cls-2" cx="63.29" cy="109.11" r="1.16" transform="translate(-10.92 7.11) rotate(-5.92)"/><path class="cls-2" d="M133.26,97a1.15,1.15,0,0,0,1.27,1,1.08,1.08,0,0,0,.65-0.29l-1.08-2A1.15,1.15,0,0,0,133.26,97Z"/><circle class="cls-2" cx="129.73" cy="97.32" r="1.16" transform="translate(-9.35 13.9) rotate(-5.92)"/><circle class="cls-2" cx="125.04" cy="97.81" r="1.16" transform="translate(-9.42 13.42) rotate(-5.92)"/><circle class="cls-2" cx="120.35" cy="98.29" r="1.16" transform="translate(-9.5 12.94) rotate(-5.92)"/><circle class="cls-2" cx="115.66" cy="98.78" r="1.16" transform="translate(-9.57 12.46) rotate(-5.92)"/><path class="cls-2" d="M86.37,101.82a1.13,1.13,0,0,0,.83,1l1.45-1.34A1.15,1.15,0,0,0,86.37,101.82Z"/><circle class="cls-2" cx="82.83" cy="102.19" r="1.16" transform="translate(-10.1 9.09) rotate(-5.92)"/><circle class="cls-2" cx="78.14" cy="102.67" r="1.16" transform="translate(-10.17 8.61) rotate(-5.92)"/><circle class="cls-2" cx="73.45" cy="103.16" r="1.16" transform="translate(-10.25 8.13) rotate(-5.92)"/><circle class="cls-2" cx="68.76" cy="103.64" r="1.16" transform="translate(-10.32 7.65) rotate(-5.92)"/><circle class="cls-2" cx="64.07" cy="104.13" r="1.16" transform="translate(-10.4 7.16) rotate(-5.92)"/><path class="cls-2" d="M59.17,103.48a19.58,19.58,0,0,0,.54,2.25,1.16,1.16,0,0,0-.46-2.26Z"/><circle class="cls-2" cx="130.51" cy="92.35" r="1.16" transform="translate(-8.83 13.96) rotate(-5.92)"/><circle class="cls-2" cx="125.82" cy="92.83" r="1.16" transform="translate(-8.91 13.47) rotate(-5.92)"/><circle class="cls-2" cx="121.13" cy="93.32" r="1.16" transform="translate(-8.98 12.99) rotate(-5.92)"/><circle class="cls-2" cx="116.44" cy="93.8" r="1.16" transform="translate(-9.06 12.51) rotate(-5.92)"/><path class="cls-2" d="M112.29,93.27l0.57,1.34a1.17,1.17,0,0,0,0-.44A1.09,1.09,0,0,0,112.29,93.27Z"/><path class="cls-2" d="M91.84,96.35a1.14,1.14,0,0,0,1,1c0.44-.43.85-0.85,1.27-1.28A1.16,1.16,0,0,0,91.84,96.35Z"/><circle class="cls-2" cx="88.3" cy="96.72" r="1.16" transform="translate(-9.51 9.63) rotate(-5.92)"/><circle class="cls-2" cx="83.62" cy="97.21" r="1.16" transform="translate(-9.58 9.14) rotate(-5.92)"/><circle class="cls-2" cx="78.93" cy="97.7" r="1.16" transform="matrix(0.99, -0.1, 0.1, 0.99, -9.66, 8.66)"/><circle class="cls-2" cx="74.24" cy="98.18" r="1.16" transform="translate(-9.73 8.18) rotate(-5.92)"/><circle class="cls-2" cx="69.55" cy="98.67" r="1.16" transform="translate(-9.81 7.7) rotate(-5.92)"/><circle class="cls-2" cx="64.86" cy="99.15" r="1.16" transform="translate(-9.88 7.22) rotate(-5.92)"/><circle class="cls-2" cx="60.17" cy="99.64" r="1.16" transform="translate(-9.96 6.74) rotate(-5.92)"/><circle class="cls-2" cx="126.61" cy="87.86" r="1.16" transform="translate(-8.39 13.53) rotate(-5.92)"/><circle class="cls-2" cx="121.92" cy="88.34" r="1.16" transform="translate(-8.46 13.05) rotate(-5.92)"/><circle class="cls-2" cx="117.23" cy="88.83" r="1.16" transform="translate(-8.54 12.57) rotate(-5.92)"/><circle class="cls-2" cx="112.54" cy="89.31" r="1.16" transform="translate(-8.61 12.09) rotate(-5.92)"/><path class="cls-2" d="M97.31,90.89a1.14,1.14,0,0,0,.83,1l1.4-1.52a1.15,1.15,0,0,0-1.19-.75A1.16,1.16,0,0,0,97.31,90.89Z"/><circle class="cls-2" cx="93.78" cy="91.26" r="1.16" transform="translate(-8.91 10.16) rotate(-5.92)"/><circle class="cls-2" cx="89.09" cy="91.75" r="1.16" transform="translate(-8.99 9.68) rotate(-5.92)"/><circle class="cls-2" cx="84.4" cy="92.23" r="1.16" transform="translate(-9.06 9.2) rotate(-5.92)"/><circle class="cls-2" cx="79.71" cy="92.72" r="1.16" transform="translate(-9.14 8.72) rotate(-5.92)"/><path class="cls-2" d="M74.21,94a1.17,1.17,0,0,0,1.71-1.59C75.35,93,74.79,93.52,74.21,94Z"/><circle class="cls-2" cx="70.33" cy="93.69" r="1.16" transform="translate(-9.29 7.76) rotate(-5.92)"/><circle class="cls-2" cx="65.64" cy="94.18" r="1.16" transform="matrix(0.99, -0.1, 0.1, 0.99, -9.36, 7.27)"/><circle class="cls-2" cx="60.95" cy="94.66" r="1.16" transform="translate(-9.44 6.79) rotate(-5.92)"/><path class="cls-2" d="M126.24,83a1.14,1.14,0,0,0,1.1,1l-1-1.63A1.11,1.11,0,0,0,126.24,83Z"/><circle class="cls-2" cx="122.7" cy="83.36" r="1.16" transform="translate(-7.95 13.1) rotate(-5.92)"/><circle class="cls-2" cx="118.01" cy="83.85" r="1.16" transform="translate(-8.02 12.62) rotate(-5.92)"/><circle class="cls-2" cx="113.32" cy="84.34" r="1.16" transform="translate(-8.1 12.14) rotate(-5.92)"/><path class="cls-2" d="M108.11,83.78c0.31,0.68.63,1.39,1,2.12a1.16,1.16,0,0,0-.55-2.23A1.38,1.38,0,0,0,108.11,83.78Z"/><path class="cls-2" d="M102.79,85.43a1.14,1.14,0,0,0,.44.79c0.53-.6,1-1.19,1.52-1.75a1.14,1.14,0,0,0-.92-0.31A1.15,1.15,0,0,0,102.79,85.43Z"/><circle class="cls-2" cx="99.26" cy="85.8" r="1.16" transform="translate(-8.32 10.7) rotate(-5.92)"/><circle class="cls-2" cx="94.57" cy="86.28" r="1.16" transform="translate(-8.4 10.22) rotate(-5.92)"/><circle class="cls-2" cx="89.88" cy="86.77" r="1.16" transform="translate(-8.47 9.73) rotate(-5.92)"/><circle class="cls-2" cx="85.19" cy="87.26" r="1.16" transform="translate(-8.55 9.25) rotate(-5.92)"/><path class="cls-2" d="M79.78,88.65a1.16,1.16,0,0,0,1.88-1A1.11,1.11,0,0,0,81.39,87Z"/><path class="cls-2" d="M70,88.83a1.17,1.17,0,0,0,1.27,1,0.91,0.91,0,0,0,.35-0.09c0-.72,0-1.43,0-2.14h0A1.24,1.24,0,0,0,71,87.56,1.16,1.16,0,0,0,70,88.83Z"/><circle class="cls-2" cx="66.43" cy="89.2" r="1.16" transform="translate(-8.85 7.33) rotate(-5.92)"/><circle class="cls-2" cx="61.74" cy="89.69" r="1.16" transform="translate(-8.92 6.85) rotate(-5.92)"/><path class="cls-2" d="M122.33,78.51a1.17,1.17,0,0,0,1.27,1,1.18,1.18,0,0,0,.75-0.38l-1.18-1.89A1.15,1.15,0,0,0,122.33,78.51Z"/><circle class="cls-2" cx="118.8" cy="78.87" r="1.16" transform="translate(-7.5 12.68) rotate(-5.92)"/><circle class="cls-2" cx="114.11" cy="79.36" r="1.16" transform="translate(-7.58 12.19) rotate(-5.92)"/><circle class="cls-2" cx="109.42" cy="79.85" r="1.16" transform="translate(-7.65 11.71) rotate(-5.92)"/><circle class="cls-2" cx="104.73" cy="80.33" r="1.16" transform="translate(-7.73 11.23) rotate(-5.92)"/><circle class="cls-2" cx="100.04" cy="80.82" r="1.16" transform="translate(-7.8 10.75) rotate(-5.92)"/><circle class="cls-2" cx="95.35" cy="81.31" r="1.16" transform="translate(-7.88 10.27) rotate(-5.92)"/><circle class="cls-2" cx="90.66" cy="81.79" r="1.16" transform="translate(-7.95 9.79) rotate(-5.92)"/><path class="cls-2" d="M85.13,83.06a1.14,1.14,0,0,0,1,.37,1.16,1.16,0,0,0,1-1.27,1.11,1.11,0,0,0-.44-0.79l-0.84.91Z"/><path class="cls-2" d="M70.87,83.84a1.16,1.16,0,0,0,.62.91c0-.35,0-1.41-0.05-2A1.15,1.15,0,0,0,70.87,83.84Z"/><circle class="cls-2" cx="67.21" cy="84.22" r="1.16" transform="translate(-8.33 7.38) rotate(-5.92)"/><circle class="cls-2" cx="62.52" cy="84.71" r="1.16" transform="translate(-8.4 6.9) rotate(-5.92)"/><circle class="cls-2" cx="119.59" cy="73.9" r="1.16" transform="translate(-6.99 12.73) rotate(-5.92)"/><circle class="cls-2" cx="114.9" cy="74.38" r="1.16" transform="translate(-7.06 12.25) rotate(-5.92)"/><circle class="cls-2" cx="110.21" cy="74.87" r="1.16" transform="translate(-7.14 11.77) rotate(-5.92)"/><circle class="cls-2" cx="105.52" cy="75.36" r="1.16" transform="translate(-7.21 11.29) rotate(-5.92)"/><circle class="cls-2" cx="100.83" cy="75.84" r="1.16" transform="translate(-7.29 10.81) rotate(-5.92)"/><circle class="cls-2" cx="96.14" cy="76.33" r="1.16" transform="translate(-7.36 10.32) rotate(-5.92)"/><path class="cls-2" d="M90.41,77.34a1.16,1.16,0,0,0,2.18-.64,1.13,1.13,0,0,0-.72-1l-0.44.48Z"/><circle class="cls-2" cx="68" cy="79.25" r="1.16" transform="translate(-7.81 7.44) rotate(-5.92)"/><circle class="cls-2" cx="63.31" cy="79.73" r="1.16" transform="translate(-7.89 6.96) rotate(-5.92)"/><circle class="cls-2" cx="115.68" cy="69.41" r="1.16" transform="translate(-6.54 12.3) rotate(-5.92)"/><circle class="cls-2" cx="110.99" cy="69.89" r="1.16" transform="matrix(0.99, -0.1, 0.1, 0.99, -6.62, 11.82)"/><circle class="cls-2" cx="106.3" cy="70.38" r="1.16" transform="translate(-6.69 11.34) rotate(-5.92)"/><circle class="cls-2" cx="101.61" cy="70.87" r="1.16" transform="translate(-6.77 10.86) rotate(-5.92)"/><path class="cls-2" d="M95.77,71.46v0a1.16,1.16,0,1,0,1.15-1.28Z"/><circle class="cls-2" cx="68.79" cy="74.27" r="1.16" transform="translate(-7.29 7.49) rotate(-5.92)"/><circle class="cls-2" cx="64.1" cy="74.76" r="1.16" transform="translate(-7.37 7.01) rotate(-5.92)"/><circle class="cls-2" cx="111.78" cy="64.92" r="1.16" transform="translate(-6.1 11.88) rotate(-5.92)"/><circle class="cls-2" cx="107.09" cy="65.4" r="1.16" transform="translate(-6.18 11.4) rotate(-5.92)"/><circle class="cls-2" cx="102.4" cy="65.89" r="1.16" transform="matrix(0.99, -0.1, 0.1, 0.99, -6.25, 10.91)"/><circle class="cls-2" cx="69.57" cy="69.29" r="1.16" transform="translate(-6.78 7.55) rotate(-5.92)"/><circle class="cls-2" cx="64.88" cy="69.78" r="1.16" transform="translate(-6.85 7.07) rotate(-5.92)"/><circle class="cls-2" cx="70.36" cy="64.32" r="1.16" transform="translate(-6.26 7.6) rotate(-5.92)"/><circle class="cls-2" cx="65.67" cy="64.8" r="1.16" transform="translate(-6.33 7.12) rotate(-5.92)"/><circle class="cls-2" cx="71.14" cy="59.34" r="1.16" transform="translate(-5.74 7.66) rotate(-5.92)"/><circle class="cls-2" cx="66.45" cy="59.83" r="1.16" transform="translate(-5.82 7.17) rotate(-5.92)"/></svg>