<?xml version="1.0" encoding="UTF-8" standalone="no"?>
<svg xmlns="http://www.w3.org/2000/svg" height="10px" width="232px" version="1.1" xmlns:xlink="http://www.w3.org/1999/xlink" viewBox="0 0 232 10"><!-- Generator: Sketch 42 (36781) - http://www.bohemiancoding.com/sketch -->
 <title>Page 1</title>
 <desc>Created with Sketch.</desc>
 <defs>
  <polygon id="path-1" points="231.44 4.828 231.44 0 0 0 0 4.828 0 9.6561 231.44 9.6561"/>
 </defs>
 <g id="Home" fill-rule="evenodd" fill="none">
  <g id="Desktop-Home-1440" transform="translate(-853 -242)">
   <g id="Header" transform="translate(345 213)">
    <g id="Page-1" transform="translate(508 29)">
     <mask id="mask-2" fill="white">
      <use xlink:href="#path-1"/>
     </mask>
     <path id="Fill-1" fill="#E7A900" mask="url(#mask-2)" d="m0 9.1856s0.89429-0.1476 2.571-0.4247c1.6795-0.2796 4.1442-0.6367 7.2852-1.0891 1.5718-0.2124 3.3128-0.4471 5.2068-0.7028 1.896-0.2524 3.951-0.4781 6.145-0.7453 1.097-0.1305 2.229-0.2652 3.394-0.4043 1.168-0.1243 2.368-0.2519 3.6-0.3828 2.466-0.2576 5.058-0.5286 7.763-0.811 5.417-0.4762 11.282-1.079 17.499-1.5152 3.108-0.2362 6.3-0.4914 9.566-0.7005 3.267-0.1905 6.605-0.3848 9.999-0.5824 1.698-0.0981 3.409-0.1966 5.133-0.2957 1.725-0.0743 3.463-0.1486 5.211-0.2238 3.497-0.15 7.036-0.3019 10.603-0.45524 3.568-0.1419 7.164-0.20762 10.774-0.31571 3.62-0.09 7.24-0.21572 10.87-0.27667 7.25-0.08238 14.51-0.21143 21.66-0.26048 7.14 0.0042905 14.17 0.0052429 20.97 0.1462 6.8 0.24333 13.38 0.51523 19.6 0.8643 6.23 0.3314 12.11 0.8457 17.53 1.2743 5.43 0.4357 10.4 0.8576 14.79 1.3795 2.2 0.2519 4.25 0.4881 6.15 0.7062 1.9 0.2324 3.65 0.4462 5.23 0.639 3.15 0.3924 5.62 0.7181 7.3 0.9548 1.69 0.2367 2.59 0.3628 2.59 0.3628l-0.04 0.4748s-0.91-0.0019-2.61-0.0052c-1.7-0.0034-4.2-0.0291-7.37-0.0843-1.58-0.031-3.34-0.0657-5.25-0.1029-1.91-0.0519-3.97-0.1076-6.18-0.1671-2.21-0.0419-4.55-0.1772-7.03-0.1938-2.47-0.041-5.07-0.0824-7.79-0.16-2.71-0.0691-5.53-0.1415-8.46-0.2162-2.92-0.0872-5.94-0.2343-9.05-0.26-6.22-0.0867-12.77-0.2753-19.54-0.5072-6.78-0.1819-13.78-0.3752-20.89-0.6442-3.56-0.1424-7.15-0.1539-10.75-0.2224-3.6-0.0562-7.22-0.1124-10.84-0.1686-3.61-0.0286-7.23 0.0081-10.83 0.0086-3.6 0.0195-7.195-0.0038-10.755 0.05-3.56 0.0647-7.092 0.1295-10.581 0.1933-1.745 0.0319-3.479 0.0633-5.202 0.0948-1.721 0.0566-3.429 0.1128-5.124 0.1685-3.39 0.1139-6.723 0.2258-9.986 0.3353-3.261 0.1481-6.452 0.2933-9.557 0.4347-6.216 0.2396-12.08 0.6562-17.501 0.9605-2.707 0.1972-5.301 0.3857-7.768 0.5653-1.234 0.0919-2.436 0.1814-3.605 0.2685-1.167 0.1019-2.3 0.201-3.399 0.2967-4.396 0.3657-8.222 0.7519-11.374 1.0619-3.148 0.3362-5.6242 0.6019-7.3047 0.8186-1.6828 0.2147-2.5804 0.3295-2.5804 0.3295l-0.0729-0.4705z"/>
    </g>
   </g>
  </g>
 </g>
</svg>
