<svg id="Layer_1" data-name="Layer 1" xmlns="http://www.w3.org/2000/svg" viewBox="0 0 167 217" width="234" height="232"><defs><style>.cls-1{fill:#fff;}.cls-2{fill:#fa8db5;}.cls-3{fill:#efc100;}.cls-4{fill:#6fc57c;}.cls-5{fill:#1c6bb4;}.cls-6{fill:#9acdf1;}.cls-7{fill:#2672b9;}.cls-8,.cls-9{fill:#0d83dd;}.cls-9{opacity:0.53;}.cls-10{fill:#359ce4;}.cls-11{fill:#b9dffc;}</style></defs><title>img--card</title><circle class="cls-1" cx="84.04" cy="100.52" r="82.43"/><path class="cls-2" d="M6.19,52.13a0.46,0.46,0,0,1-.41-0.68l5-9.42a0.46,0.46,0,0,1,.38-0.24,0.47,0.47,0,0,1,.41.19l1,1.42,4.27-6.36a0.62,0.62,0,0,1,.39-0.2,0.46,0.46,0,0,1,.38.21l3.83,6,5.13-10.77a0.46,0.46,0,1,1,.84.4L22,44.17a0.46,0.46,0,0,1-.81.05l-3.9-6.06L13,44.48a0.46,0.46,0,0,1-.38.2,0.5,0.5,0,0,1-.38-0.2l-1-1.36L6.6,51.89A0.46,0.46,0,0,1,6.19,52.13Z"/><path class="cls-3" d="M4,41.34a0.46,0.46,0,0,1-.34-0.15L0.21,37.52a0.46,0.46,0,1,1,.68-0.63l3,3.21L8.78,31.2A0.46,0.46,0,0,1,9.17,31a0.46,0.46,0,0,1,.41.22l3.18,5.07,5.45-7.15a0.45,0.45,0,0,1,.4-0.18,0.46,0.46,0,0,1,.37.23l3.92,6.67,3.35-7.14a0.46,0.46,0,0,1,.84.39L23.36,37a0.46,0.46,0,0,1-.82,0l-4-6.83-5.44,7.13a0.45,0.45,0,0,1-.39.18,0.46,0.46,0,0,1-.37-0.22l-3.12-5L4.37,41.1a0.46,0.46,0,0,1-.35.24H4Z"/><path class="cls-4" d="M3.8,46.16A0.46,0.46,0,0,1,3.46,46L0.12,42.34a0.46,0.46,0,1,1,.69-0.62l2.9,3.2,9.45-17.12a0.46,0.46,0,0,1,.78,0L24.16,42l3.2-7a0.46,0.46,0,0,1,.84.39l-3.53,7.68a0.46,0.46,0,0,1-.38.27,0.47,0.47,0,0,1-.42-0.19L13.61,28.88l-9.41,17a0.46,0.46,0,0,1-.35.24H3.8Z"/><path class="cls-5" d="M83,3.78c-3.33,4.78-6,10-3.14,14.33s6,4.63,8.47,4.63,7.47-.9,8.47-6.57-2-10.6-3.3-13.14C92.36,1,89-1.5,85.41,1.16A11,11,0,0,0,83,3.78Z"/><path class="cls-1" d="M86.27,198.34s0,0,0,0a0,0,0,0,1,0,0h0v0h0Z"/><path class="cls-1" d="M86.3,198.23l0,0.12,0-.08A0.12,0.12,0,0,1,86.3,198.23Z"/><ellipse class="cls-6" cx="87.94" cy="11.67" rx="7.37" ry="9.95"/><path class="cls-6" d="M89.78,14L90,18.44c0.11,2.65.22,6.17,0.32,9.69,0.2,7,.32,14.09.32,14.09l-6-.09s0.35-7,.62-14c0.14-3.51.26-7,.33-9.64l0.1-4.36Z"/><path class="cls-6" d="M82.32,18c2.09,3,3.09,4.38,3,9.65l2.94-8.06Z"/><path class="cls-6" d="M92.82,19.11a14.12,14.12,0,0,0-2.59,9s-1.69-4.78-.8-7.76S92.82,19.11,92.82,19.11Z"/><path class="cls-6" d="M35.16,36.47h0a0.82,0.82,0,0,1-.78-0.86c0-.09.4-8.56-0.25-11.29-0.39-1.66-4.79-1.91-6.85-1.77a0.82,0.82,0,0,1-.11-1.64c0.79-.05,7.74-0.43,8.56,3,0.7,3,.31,11.4.3,11.75A0.82,0.82,0,0,1,35.16,36.47Z"/><path class="cls-6" d="M35.16,38.94a1,1,0,0,1-.9-0.7,67.31,67.31,0,0,0-7.11-11.68,1.1,1.1,0,0,1,1.76-1.32A72.4,72.4,0,0,1,36.16,37.4,1.1,1.1,0,0,1,35.16,38.94Z"/><path class="cls-6" d="M36.94,38.12a1.1,1.1,0,0,1-1-.58c-1.89-3.57-1.1-7.8-.58-10.6a11.57,11.57,0,0,0,.32-2.52C35.57,23.29,33.3,23,33.27,23a1.1,1.1,0,0,1,.19-2.19c1.5,0.13,4.11,1,4.42,3.28a11.51,11.51,0,0,1-.34,3.22c-0.49,2.65-1.17,6.28.36,9.17A1.1,1.1,0,0,1,36.94,38.12Z"/><path class="cls-6" d="M34.38,25.5c0.18,2.74-1.55,6.59-1.55,6.59l1.74,4.57,1.55-2.1L35.93,26Z"/><path class="cls-6" d="M36.37,33.37h0l-0.16-7.62-0.28-.08-0.3-.08-1.41-.42-0.15,0,0,0.41a10.22,10.22,0,0,1-.29,2.73v0a20.93,20.93,0,0,1-.92,2.94c-0.18.46-.3,0.75-0.31,0.76l-0.05.11,0.9,2.35h0l0,0.12,1,2.69,0.57-.78,0.29-.4,0.11-.15L36,35.19l0.4-.54Zm-0.54,1.1-0.65.88,0,0-0.51.69-0.29-.77-0.37-1L33.5,33.07l-0.37-1,0.11-.28c0.11-.25.25-0.61,0.4-1v0a20.89,20.89,0,0,0,.78-2.67h0a10.54,10.54,0,0,0,.25-2.2l0.86,0.25,0.12,0,0.15,7.37Z"/><path class="cls-5" d="M85.85,1.84s1.49,7.91,9.85,7.61c0,0-2.69-7.61-4.93-8.21A8.71,8.71,0,0,0,85.85,1.84Z"/><path class="cls-7" d="M87.34,0.79a14.13,14.13,0,0,0-6.17,8.76,11.3,11.3,0,0,0-.25,5.62S77,6.69,87.34.79Z"/><path class="cls-8" d="M83.86,8.76s0.29,0.22.63,0.5a5.53,5.53,0,0,0,.55.4,2.08,2.08,0,0,0,.26.14,0.83,0.83,0,0,0,.21,0,0.15,0.15,0,0,0,.1,0,0.64,0.64,0,0,0,.11,0A1.8,1.8,0,0,0,86,9.74a3.35,3.35,0,0,0,.31-0.14l0.3-.16c0.1,0,.19-0.11.27-0.16l0.23-.12,0.22-.1a2,2,0,0,1,0,.24,2.39,2.39,0,0,1-.06.26,1.29,1.29,0,0,1-.12.33,4,4,0,0,1-.21.37,2,2,0,0,1-.34.37,1.72,1.72,0,0,1-.5.31,1.32,1.32,0,0,1-.33.08,1,1,0,0,1-.35,0,1.58,1.58,0,0,1-.65-0.21,1.79,1.79,0,0,1-.44-0.38,2,2,0,0,1-.42-0.82A1.87,1.87,0,0,1,83.86,8.76Z"/><path class="cls-8" d="M89.14,9.25s0.29,0.22.63,0.5a5.53,5.53,0,0,0,.55.4,2.08,2.08,0,0,0,.26.14,0.83,0.83,0,0,0,.21,0,0.15,0.15,0,0,0,.1,0,0.64,0.64,0,0,0,.11,0,1.8,1.8,0,0,0,.28-0.09,3.35,3.35,0,0,0,.31-0.14l0.3-.16c0.1,0,.19-0.11.27-0.16l0.23-.12,0.22-.1a2,2,0,0,1,0,.24,2.39,2.39,0,0,1-.06.26,1.29,1.29,0,0,1-.12.33,4,4,0,0,1-.21.37,2,2,0,0,1-.34.37,1.72,1.72,0,0,1-.5.31,1.32,1.32,0,0,1-.33.08,1,1,0,0,1-.35,0A1.58,1.58,0,0,1,90,11.32a1.79,1.79,0,0,1-.44-0.38,2,2,0,0,1-.42-0.82A1.87,1.87,0,0,1,89.14,9.25Z"/><path class="cls-8" d="M86.35,14.73s0.31,0.21.66,0.47a6.25,6.25,0,0,0,.59.38,2.89,2.89,0,0,0,.29.13,1.15,1.15,0,0,0,.25,0,1.38,1.38,0,0,0,.24,0c0.09,0,.19,0,0.29-0.08s0.21-.08.31-0.13l0.31-.16c0.2-.1.37-0.21,0.51-0.27L90,15a2,2,0,0,1,0,.24,2.14,2.14,0,0,1-.2.6,4.06,4.06,0,0,1-.22.37,2.68,2.68,0,0,1-.36.36,2.18,2.18,0,0,1-.52.29,1.76,1.76,0,0,1-.67.07,1.73,1.73,0,0,1-.63-0.19,2,2,0,0,1-.46-0.36,2.08,2.08,0,0,1-.47-0.8A1.9,1.9,0,0,1,86.35,14.73Z"/><path class="cls-8" d="M88,10.69A2.28,2.28,0,0,1,87.9,12a2.45,2.45,0,0,1-.42.65,1,1,0,0,0-.32.44,0.19,0.19,0,0,0,0,.09,0.37,0.37,0,0,0,.05.1,1.33,1.33,0,0,0,.19.18,3.27,3.27,0,0,0,.36.24l0.15,0.09a1.61,1.61,0,0,1-.64-0.1,1,1,0,0,1-.3-0.16,0.74,0.74,0,0,1-.14-0.16,0.59,0.59,0,0,1-.09-0.23,0.67,0.67,0,0,1,.13-0.47,3.85,3.85,0,0,1,.24-0.3,3.46,3.46,0,0,0,.68-1.06c0.06-.16.13-0.3,0.16-0.41S88,10.69,88,10.69Z"/><path class="cls-9" d="M87.94,13.29a0.49,0.49,0,0,1,.12-0.16A0.51,0.51,0,0,1,88.42,13a0.48,0.48,0,0,1,.36.19,0.35,0.35,0,0,1,.06.2l-0.18,0a1,1,0,0,1-.27,0,0.91,0.91,0,0,1-.28-0.07Z"/><path class="cls-6" d="M37.89,36.28c-0.15-.28-0.29-0.56-0.42-0.8a0,0,0,0,0,0,0h0c-0.3-.56-0.53-1-0.71-1.36a0.07,0.07,0,0,1,0,0h0l-0.35-.67h0l0,0-0.24.11,0,0-0.25.1-0.93.41-0.35.15-0.14.06L34,34.33l-0.26.11-0.26.12,0,0-0.57.25s0.11,0.31.34,0.87L33.31,36c0.21,0.52.49,1.22,0.85,2,0.08,0.18.16,0.37,0.24,0.57,0.71,1.63,1.86,4.13,3.07,6.55l3.14-4C39.63,39.48,38.52,37.47,37.89,36.28ZM92.57,195.71a0.36,0.36,0,0,0,0-.11,1,1,0,0,0-.15-0.48c0-1-.14-2-0.23-3,0-.2,0-0.41-0.07-0.6s0-.3,0-0.45a14.36,14.36,0,0,1-4.19.65,12.71,12.71,0,0,1-2.09-.17c0,0.15.06,0.31,0.08,0.46s0.09,0.61.14,0.91a31.06,31.06,0,0,1,.35,4.57,6.68,6.68,0,0,1-.06.75,0.55,0.55,0,0,0,0,.12v0.07l-0.06.3,0,0.15a0.07,0.07,0,0,0,0,.06,1.21,1.21,0,0,0-.07.22l-0.14.38c-0.12.27-.21,0.53-0.35,0.8a29.58,29.58,0,0,1-1.85,3.25c-1.11,1.71-2.22,3.26-3.22,4.6-0.22.32-.45,0.61-0.67,0.9l-2.71,3.58-0.94,1.26-0.15.21a1.63,1.63,0,0,0,2.31,2.27s0.47-.37,1.3-1.05,2.06-1.71,3.52-3.11a55.75,55.75,0,0,0,5-5.4,29.1,29.1,0,0,0,2.55-3.74c0,0.43,0,.88,0,1.33,0.16,4.31.14,8.65,0.14,8.65a0.34,0.34,0,0,0,.31.34,0.33,0.33,0,0,0,.37-0.3s0.45-4.32.72-8.67c0.14-2.17.23-4.35,0.27-6v-0.2c0-.73,0-1.36,0-1.79v-0.75Zm33.62,15.6s-0.12-.59-0.34-1.68-0.6-2.65-1.13-4.6q-0.51-1.87-1.24-4.2c-0.27-.86-0.56-1.76-0.88-2.69-0.73-2.13-1.59-4.48-2.58-6.95l0.15,0.2q-0.88-2.26-1.65-4.28c-0.07-.18-0.14-0.37-0.2-0.55a14.62,14.62,0,0,1-6,2.59l0.27,0.58c0.32,0.7.64,1.4,0.94,2.08,1.31,3,2.42,5.77,3.34,8.26v0c0.35,1,.67,1.85,1,2.71,0.47,1.39.88,2.65,1.22,3.77,0.54,1.82.91,3.25,1.15,4.24s0.34,1.52.34,1.52l0,0.15A2.86,2.86,0,0,0,126.19,211.31ZM95.94,40.46l-1.28-1-0.24-.17a17.25,17.25,0,0,1-1.79-2.1,12.16,12.16,0,0,1-1.8-3.73,12.31,12.31,0,0,1-.45-2.59,0.09,0.09,0,0,1,0,0V30.76c0-.38,0-0.76,0-1.15,0,0-2.62,5-1.46,9.37l-3.65-9.55h0l0-.06a9.74,9.74,0,0,1-2.52,7.2A16.59,16.59,0,0,1,80,39c0,3.14.44,6.95,2.37,9.26A5.92,5.92,0,0,0,87.1,50.3c5,0,7.62-4.94,9-9.74Z"/><path class="cls-10" d="M50.17,27.2H50.08L8.63,22.76a0.85,0.85,0,1,1,.18-1.69l41.45,4.44A0.85,0.85,0,0,1,50.17,27.2Z"/><path class="cls-5" d="M96.5,46.51s-0.23.81-.57,2.11c0,0.11-.06.23-0.09,0.35l-0.14.54a0.18,0.18,0,0,1,0,.05l-0.24.94c-0.41,1.61-.89,3.57-1.35,5.61,0,0.18-.08.36-0.13,0.55-0.22,1-.43,2-0.63,2.94-0.06.29-.11,0.58-0.17,0.87l-0.09.5c-0.05.25-.1,0.5-0.14,0.75v0l-0.07.42c0,0.27-.1.55-0.14,0.81s-0.08.53-.12,0.79c-0.08.51-.14,1-0.19,1.48l-0.05.5c0,0.26,0,.51-0.05.74s0,0.29,0,.43,0,0.17,0,.25a8.8,8.8,0,0,0,0,1.24,35.61,35.61,0,0,0,1.52,5.46c-4,1-9.72,1.72-14.83-.25a13.61,13.61,0,0,0,1-3C81,64,78.28,59.94,77.49,55a14.79,14.79,0,0,1,0-3.65c-0.22.24-.44,0.5-0.66,0.77l-0.91,1.09L75,54.37c-0.27.37-.54,0.75-0.82,1.15l-0.27.39-0.54.82L72.26,46c0.25-.32.51-0.64,0.76-0.95s0.57-.65.86-1l0.53-.57,0.68-.7c0.32-.32.64-0.62,1-0.91s0.67-.6,1-0.88a24.11,24.11,0,0,1,3.85-2.56l0.44-.21C81.57,43.4,82.74,49,86.85,49c2.77,0,5.28-3.47,7.81-9.5,0.59,0.44,1.24.92,1.93,1.46A22.73,22.73,0,0,1,96.5,46.51Z"/><path class="cls-10" d="M75.63,53.54L75,54.37c-0.36.49-.72,1-1.09,1.53h0l-0.54.82c-0.65,1-1.31,2-2,3.11s-1.28,2-2,3.08a28.85,28.85,0,0,1-2.55,3.27A13.35,13.35,0,0,1,65,67.82a9.14,9.14,0,0,1-2.57,1.37,7.78,7.78,0,0,1-3.15.37,9.12,9.12,0,0,1-2.77-.7,16.06,16.06,0,0,1-3.93-2.48C52,65.92,51.51,65.46,51,65l-0.36-.35-0.39-.38-0.63-.67a56.9,56.9,0,0,1-4.79-5.94,94.36,94.36,0,0,1-6.75-11.26l-0.63-1.22,3.15-4C41.14,42.07,41.71,43,42.31,44a104.43,104.43,0,0,0,7.08,10.22,51.22,51.22,0,0,0,4.55,5l0.67,0.63,0.6,0.53c0.42,0.36.85,0.71,1.27,1a9.82,9.82,0,0,0,2.42,1.41,3,3,0,0,0,.85.18,1.2,1.2,0,0,0,.52-0.1,4.48,4.48,0,0,0,1.55-1.29,21.17,21.17,0,0,0,1.85-2.54c0.61-.94,1.21-1.94,1.8-2.94,1.19-2,2.39-4,3.67-5.88,1-1.53,2.06-3,3.12-4.29,0.25-.32.51-0.64,0.76-0.95l0.33-.37c0.7-.8,1.42-1.55,2.13-2.23Z"/><path class="cls-1" d="M111.43,72.21h0v0A0,0,0,0,1,111.43,72.21Z"/><path class="cls-1" d="M111.51,71.89h0l0,0.1V71.89Z"/><path class="cls-1" d="M111.43,72.21h0v0A0,0,0,0,1,111.43,72.21Z"/><path class="cls-1" d="M111.51,71.89h0l0,0.1V71.89Z"/><path class="cls-1" d="M111.43,72.21h0v0.05h0a0,0,0,0,1,0,0A0,0,0,0,1,111.43,72.21Z"/><path class="cls-1" d="M111.51,71.89h0l0,0.1V71.89Z"/><path class="cls-8" d="M118.53,187.11a16.24,16.24,0,0,1-5.91,2.61,59,59,0,0,0-3.68-6.56c-2.46-4.11-5.37-9.2-9-16-2.73-5.13-5.11-9.83-5.9-11.8-7.79-19.5-8.38-44.62-8.48-58.5-1.19,9.53-.7,44.54.9,53.1,1.15,6.18,1.89,10.82,2.69,16.39,0.6,4.2,1.21,11.35,2,18.28,0.1,0.59.2,1.18,0.29,1.76,0.27,1.76.52,3.48,0.7,5.17a11.19,11.19,0,0,1-6.25.48c-0.21-1.44-.48-3-0.78-4.5-0.62-3.27-1.36-6.74-2.16-10.32l0-.08C80.18,166,76.1,150.81,72,130.89c-3.53-17.22-2.25-30.07.22-39.54,2.14-8.21,5.17-13.87,6.75-17.67,3.73,1.19,8.06,1.64,14.77-.07,0,0.08.05,0.17,0.08,0.26,0.29,0.87.6,1.8,0.94,2.79l0.2,0.6c0.2,0.6.41,1.22,0.62,1.86L95.91,79c0.5,1.61,1,3.21,1.42,4.6l-0.24,0L97.2,84c0.12,0.37.23,0.74,0.35,1.12,0.38,1.24.75,2.51,1.1,3.8L98.93,90c0.11,0.41.22,0.83,0.32,1.24a66.45,66.45,0,0,1,2.22,14.12c0.53,18.93-3.85,40.12,2.39,49.79C112,167.8,113.57,174.05,118.53,187.11Z"/><path class="cls-7" d="M95.6,79.12l-2.11.5c-1.19.27-2.32,0.51-3.37,0.72Z"/><path class="cls-10" d="M82,55.46C84.06,67,80.33,88,77.79,90.7c-1.1,1.16-4.3.9-6.49,0.45a168.06,168.06,0,0,1,5.82-17.32,24,24,0,0,0,1-4.7A49.07,49.07,0,0,0,77.49,55a14.79,14.79,0,0,1,0-3.65c-0.22.24-.44,0.5-0.66,0.77l-0.91,1.09L75,54.37c-0.36.49-.72,1-1.09,1.53,0-4-.28-8-0.57-11.22,0.35-.4.7-0.79,1.06-1.16l0.68-.7q1-1,2-1.79c0.66-.53,1.3-1,1.92-1.42l0.07,0a18.58,18.58,0,0,0,3.63-3A52.42,52.42,0,0,0,82,55.46Z"/><path class="cls-10" d="M100,91.37c-2.85.31-6.72,0.13-7.76-1.42-2.09-3.14-3.14-23.29-1.49-31.05,0.7-3.33,2.13-15.23,1.86-21.68a16.4,16.4,0,0,0,1.78,2.1l0.24,0.18c0.59,0.44,1.24.92,1.93,1.46l0.19,0.14,0.87,0.7c-0.2.81-3.23,14.46-3,24.41a61.73,61.73,0,0,0,1.77,13c0.48,1.45,1,3,1.49,4.57L98,84.13c0.12,0.37.23,0.74,0.35,1.12,0.38,1.24.75,2.51,1.1,3.8l0.29,1.08C99.82,90.54,99.93,91,100,91.37Z"/><path class="cls-5" d="M92.56,198.25v0.2c0,1.65-.13,3.83-0.27,6-0.27,4.34-.72,8.67-0.72,8.67a0.33,0.33,0,0,1-.37.3,0.34,0.34,0,0,1-.3-0.34s0-4.33-.13-8.65c0-.45,0-0.89-0.05-1.33a29.08,29.08,0,0,1-2.54,3.75,54.21,54.21,0,0,1-5,5.4c-1.46,1.4-2.69,2.41-3.52,3.11s-1.3,1.05-1.3,1.05A1.63,1.63,0,0,1,76,214.15l0.16-.21,0.94-1.27,2.71-3.58,0.66-.89a1,1,0,0,0,.22,1.4c1,0.54,5.23-4.08,7.77-7C90.24,200.55,91.07,199.21,92.56,198.25Z"/><path class="cls-5" d="M123.95,214.66a2.85,2.85,0,0,1-3.34-2.17l0-.16-0.34-1.51c-0.24-1-.6-2.42-1.15-4.24-0.33-1.12-.74-2.38-1.22-3.77,0.88,2,1.91,3.88,4,3.45,1.48-.31,2-2.55,1.65-5.43,0.49,1.55.91,3,1.25,4.2,0.53,1.95.9,3.52,1.13,4.6s0.33,1.68.33,1.68A2.86,2.86,0,0,1,123.95,214.66Z"/><path class="cls-11" d="M101.6,77.36L92.51,93.19a0.46,0.46,0,0,1-.63.17L63,76.78a0.46,0.46,0,0,1-.17-0.63l9.09-15.82a0.46,0.46,0,0,1,.63-0.17L77,62.71a1.5,1.5,0,0,1,2-.59L83,64.29a1.52,1.52,0,0,1,.6,2.06l-0.06.11,17.88,10.28A0.46,0.46,0,0,1,101.6,77.36Z"/><path class="cls-6" d="M80.5,81.33a0.73,0.73,0,0,1-.57.85c-1.52.28-3.18,0.56-4.68,0.72L74.1,83l-2.35-1.36a6.6,6.6,0,0,0,1.36,0,63.21,63.21,0,0,0,6.56-.92A0.72,0.72,0,0,1,80.5,81.33Z"/><path class="cls-10" d="M117.41,72.84l-0.05.29,0,0.19v0l0,0.05,0,0.11,0,0.11,0,0.06,0,0.11c0,0.16-.11.32-0.16,0.47a7.91,7.91,0,0,1-.74,1.41,9.63,9.63,0,0,1-1.79,1.95,17.1,17.1,0,0,1-3.7,2.3,30.38,30.38,0,0,1-3.61,1.42c-0.69.22-1.37,0.43-2,.62l-1,.27c-1.28.34-2.54,0.62-3.76,0.87l-1.59.3-1.55.27-0.14,0c-1,.16-1.9.29-2.79,0.41s-1.79.23-2.63,0.32c-1,.11-2,0.2-2.84.28l-0.3-1.08-0.77-2.79,2.36-.47c1.05-.21,2.18-0.45,3.37-0.72l2.11-.5L96.28,79,97,78.78c0.72-.18,1.46-0.38,2.21-0.59l1.16-.34,1.19-.36c1.25-.38,2.51-0.81,3.76-1.3a31.3,31.3,0,0,0,2.93-1.34,11.77,11.77,0,0,0,2.41-1.61,3.69,3.69,0,0,0,.66-0.79,1.25,1.25,0,0,0,.08-0.16,0.12,0.12,0,0,1,0,0h0V72.2h0l0-.11V72h0V71.86a8.39,8.39,0,0,0-.08-2.75,17.92,17.92,0,0,0-2.35-5.8,39.57,39.57,0,0,0-3.88-5.38,84.94,84.94,0,0,0-8.59-8.7l-0.68-.6c0,0.11-.06.23-0.09,0.35l-0.14.54a0.18,0.18,0,0,1,0,.05l-0.24.94c-0.11.42-.21,0.85-0.33,1.31C93.33,49.87,93.21,49,93.21,49l2.72-8.54L96.59,41l0.19,0.14,0.51,0.4c1.09,0.86,2.29,1.83,3.54,2.92a80.29,80.29,0,0,1,9.32,9.4,46.34,46.34,0,0,1,4.41,6.35,23.29,23.29,0,0,1,2.9,8A14.47,14.47,0,0,1,117.41,72.84Z"/><path class="cls-6" d="M87.83,80.84a12.92,12.92,0,0,1-3,.51c-1.92,0-3.37-.95-6.26-1.63l-0.75-.2a6.11,6.11,0,0,1-1.26-.41,6.24,6.24,0,0,1-1.87-1.39,0.75,0.75,0,0,0-1.16.93,7.58,7.58,0,0,0,2.36,1.79,6.46,6.46,0,0,0,1.37.47c-1.75.28-3.47,0.5-4.66,0.58a6.8,6.8,0,0,1-1.4,0h0l-0.1,0a0.05,0.05,0,0,1,0,0l-1.49-.86a2,2,0,0,0,.52,2,1.2,1.2,0,0,0-.25,1.21,1.11,1.11,0,0,0,.8.61,1.08,1.08,0,0,0-.12,1,1.17,1.17,0,0,0,.9.63,1,1,0,0,0,.06.8c0.19,0.36.58,0.67,1.72,0.67a17.09,17.09,0,0,0,3.68-.56v0c1.86-.43,3.83-1.28,6.11-1.74,4.21-.84,5.82-0.56,5.82-0.56Z"/></svg>