<svg xmlns="http://www.w3.org/2000/svg" viewBox="0 0 176 230" width="237" height="235"><defs><style>.cls-1{isolation:isolate;}.cls-2{fill:#cbecd1;}.cls-3{fill:#6fc57c;}.cls-4{fill:#49ad57;}.cls-5{fill:#6fb07c;}.cls-6{fill:#94d79f;}.cls-13,.cls-7{opacity:0.58;}.cls-7{mix-blend-mode:multiply;}.cls-8{opacity:0.51;}.cls-17,.cls-9{fill:none;}.cls-10{fill:#6fb27c;}.cls-11{fill:#d29200;}.cls-12{fill:#b9e6c1;}.cls-14{opacity:0.37;}.cls-15{fill:#499857;}.cls-16{fill:#49a957;}.cls-17{stroke:#94d79f;stroke-linecap:round;stroke-miterlimit:10;stroke-width:2.71px;}</style></defs><title>img--card</title><g class="cls-1"><g id="Layer_1" data-name="Layer 1"><path class="cls-2" d="M175.07,52.47a0.93,0.93,0,0,1,.66,1.59L54.07,175.73a0.93,0.93,0,0,1-1.32-1.32L174.41,52.75A0.93,0.93,0,0,1,175.07,52.47Z"/><path class="cls-2" d="M169.24,46.64a0.93,0.93,0,0,1,.66,1.59L48.24,169.9a0.93,0.93,0,0,1-1.32-1.32L168.58,46.92A0.93,0.93,0,0,1,169.24,46.64Z"/><path class="cls-2" d="M163.41,40.81a0.93,0.93,0,0,1,.66,1.59L42.41,164.07a0.93,0.93,0,1,1-1.32-1.32L162.75,41.09A0.93,0.93,0,0,1,163.41,40.81Z"/><path class="cls-2" d="M157.58,35a0.93,0.93,0,0,1,.66,1.59L36.57,158.24a0.93,0.93,0,0,1-1.32-1.32L156.92,35.26A0.93,0.93,0,0,1,157.58,35Z"/><path class="cls-2" d="M151.75,29.15a0.93,0.93,0,0,1,.66,1.59L30.74,152.41a0.93,0.93,0,0,1-1.32-1.32L151.09,29.43A0.93,0.93,0,0,1,151.75,29.15Z"/><path class="cls-2" d="M145.92,23.32a0.93,0.93,0,0,1,.66,1.59L24.91,146.57a0.93,0.93,0,0,1-1.32-1.32L145.26,23.59A0.93,0.93,0,0,1,145.92,23.32Z"/><path class="cls-2" d="M140.08,17.49a0.93,0.93,0,0,1,.66,1.59L19.08,140.74a0.93,0.93,0,0,1-1.32-1.32L139.43,17.76A0.93,0.93,0,0,1,140.08,17.49Z"/><path class="cls-2" d="M134.25,11.66a0.93,0.93,0,0,1,.66,1.59L13.25,134.91a0.93,0.93,0,0,1-1.32-1.32L133.59,11.93A0.93,0.93,0,0,1,134.25,11.66Z"/><path class="cls-2" d="M128.42,5.83a0.93,0.93,0,0,1,.66,1.59L7.42,129.08a0.93,0.93,0,0,1-1.32-1.32L127.76,6.1A0.93,0.93,0,0,1,128.42,5.83Z"/><path class="cls-2" d="M122.59,0a0.93,0.93,0,0,1,.66,1.59L1.59,123.25a0.93,0.93,0,1,1-1.32-1.32L121.93,0.27A0.93,0.93,0,0,1,122.59,0Z"/><polygon class="cls-3" points="107.18 48.43 111.22 45.75 111.73 51 107.18 48.43"/><path class="cls-4" d="M133,19.69c4.45,4.73,6.85,11.75-2.24,17.7-6.59,4.31-10.81,3.78-13,.83-7-9.65,0-17.44,5.75-20.08C130,15.13,133,19.69,133,19.69Z"/><path class="cls-4" d="M110.83,45l-5.77,5.46a33.56,33.56,0,0,1-4.86-1l-0.62-11,2.65-2.54S106.46,36.35,110.83,45Z"/><path class="cls-5" d="M87.77,82.61l0.46,0.62-1.7,1.92-1,1.13-0.2.22-1.14,1.28,0,0L83.36,87l-0.54-.51c-0.38-.36-0.84-0.79-1.35-1.29l-0.06-.06-0.32-.32-1-1c-0.39-.39-0.81-0.81-1.24-1.26l-1.23-1.29-0.06-.06-0.18-.19L76,79.61l-0.82-.9c-0.39-.43-0.79-0.89-1.2-1.35l-0.69-.8h0C72.89,76,72.44,75.52,72,75l-0.14-.16c-0.37-.44-0.74-0.89-1.12-1.35l-0.3-.36c0.53-.77,1-1.48,1.56-2.16v0l1-1.35,0.32-.41c0.56-.72,1.09-1.42,1.62-2.13q0.49-.65,1-1.32L76,65.93c0.24,0.37.48,0.74,0.72,1.1l0.58,0.87,0,0.07,1.06,1.59,0.87,1.29,0,0.07L80.11,72l1,1.48,0.32,0.45,0.64,0.9L82.91,76l1,1.39,0.24,0.34,0.74,1,0.62,0.85,0.22,0.3,1,1.39Z"/><path class="cls-6" d="M110,49.71l-3.3,2.82-8.09.86,3.76-8.82,0.8-1.77c0.59,1.77,1.05,5.27,3,6a2.83,2.83,0,0,0,2.23-.18Z"/><path class="cls-3" d="M121.15,99c-0.32-1.21-.61-2.43-0.88-3.68-0.06-.24-0.1-0.48-0.16-0.72-0.18-.79-0.34-1.58-0.49-2.37-0.06-.32-0.12-0.63-0.18-1s-0.09-.48-0.14-0.72c-0.14-.76-0.27-1.5-0.39-2.26-0.07-.36-0.12-0.71-0.18-1.07s-0.07-.48-0.11-0.72c-0.18-1.12-.34-2.22-0.49-3.33,0-.24-0.07-0.48-0.08-0.72s-0.1-.77-0.15-1.17h0c-0.1-.67-0.18-1.4-0.23-2.16l-0.06-.72c-0.07-1-.11-2.16-0.14-3.33,0-.23,0-0.47,0-0.71,0-1.08-.06-2.2-0.08-3.34,0-.23,0-0.48,0-0.72,0-1.1-.07-2.22-0.13-3.34,0-.23,0-0.47,0-0.71-0.07-1.12-.14-2.24-0.26-3.33,0-.24,0-0.49-0.08-0.72a30.83,30.83,0,0,0-1.25-6c-0.15-.47-0.32-0.92-0.5-1.35-0.07-.17-0.14-0.34-0.21-0.5s-0.07-.14-0.1-0.21a10.27,10.27,0,0,0-3.23-4l-0.63-.3h0l-2.6-1.22h0a4.49,4.49,0,0,0-.45.28l-0.13.07-0.22.15-0.72.46c-0.52.32-1,.65-1.57,1h0c-0.08,0-.15.11-0.23,0.16l-0.2.13-1.33.89-0.72.49c-0.31.2-.62,0.41-0.91,0.63,0.32-.48.63-1,0.92-1.53,0.2-.35.38-0.7,0.55-1.06,0.06-.11.11-0.22,0.16-0.35a17.54,17.54,0,0,0,.71-1.77c0-.09.07-0.2,0.09-0.29s0.07-.24.09-0.35,0.09-.34.13-0.49a2.1,2.1,0,0,0,0-.21h0c-0.06-.23-0.1-0.47-0.16-0.71-0.23-1.09-.49-2.21-0.76-3.34,0-.22-0.09-0.46-0.15-0.69a0,0,0,0,0,0,0v0a0.08,0.08,0,0,1,0,0c-0.24-1.09-.49-2.21-0.7-3.31,0-.07,0-0.12,0-0.19s-0.07-.32-0.09-0.48c-0.12-.66-0.24-1.33-0.35-2L102.1,36l0,0v0l0,0h0c-0.68.6-1.37,1.19-2.05,1.81l-0.53.47-0.07,0-0.72-.22L98,37.88c-0.82-.24-1.72-0.49-2.65-0.72L94.6,37c-1.05-.26-2.17-0.5-3.33-0.73l-0.72-.13c-1.08-.21-2.19-0.39-3.33-0.56l-0.72-.11c-1.1-.15-2.22-0.28-3.34-0.4L82.45,35c-1.11-.1-2.23-0.18-3.34-0.23l-0.72,0c-1.13,0-2.24-.07-3.33,0-0.24,0-.49,0-0.72,0-1.14,0-2.26.08-3.33,0.19L70.3,35c-1.16.13-2.28,0.31-3.34,0.53l-0.72.18a18.74,18.74,0,0,0-3.32,1.11c-0.24.1-.49,0.22-0.72,0.34a10.94,10.94,0,0,0-1.29.77,10.63,10.63,0,0,0-.93.71,9,9,0,0,0-1.12,1.2,0.16,0.16,0,0,0,0,.06l0,0a7,7,0,0,0-1.18,2.48,20,20,0,0,0,1.22,12.33,0.57,0.57,0,0,0,0,.11c0.44,1.12,1,2.23,1.51,3.33l0.38,0.72c0.44,0.83.9,1.64,1.4,2.45,0.18,0.29.35,0.6,0.54,0.89a2.71,2.71,0,0,0,.18.27,5.23,5.23,0,0,0,.28.45c0.73,1.13,1.47,2.24,2.25,3.33l0.49,0.71,0.3,0.42,0.72,1,1.4,1.92c0.18,0.24.35,0.49,0.54,0.72l1.4,1.94,0.12,0.17-0.12.19-0.2.28-0.49.76h0l-0.33.48c0,0.08-.1.16-0.15,0.23h0c-0.63,1-1.7,2.95-1.9,3.33l0,0.07h0a7.34,7.34,0,0,0,.35.64,20.54,20.54,0,0,0,2.75,3.65L71,83.49a29.72,29.72,0,0,0,3.56,3c0.35,0.24.69,0.49,1.05,0.72l0.19,0.12a21.69,21.69,0,0,0,2.57,1.42c0.24,0.12.49,0.22,0.72,0.32,4.1,1.74,7.24,1.58,7.36,1.35a4.72,4.72,0,0,0,.3-0.65c0.15-.42.3-0.82,0.45-1.21s0.35-.91.53-1.34L88,86.48c0.26-.63.52-1.21,0.78-1.76,0.13-.3.26-0.6,0.4-0.87h0l0.35-.69c0.12-.25.25-0.49,0.37-0.72s0.4-.73.61-1.06,0.49-.78.72-1.13,0.56-.79.83-1.15,0.41-.49.61-0.72a13.52,13.52,0,0,1,1.89-1.75c0.23-.19.48-0.36,0.72-0.53,0.51-.36,1-0.69,1.56-1,0.36-.22.73-0.47,1.1-0.71s0.46-.31.68-0.48,0.48-.35.72-0.54a20.14,20.14,0,0,0,2.18-1.92l0.38-.4a9,9,0,0,0,.59-0.72,1.68,1.68,0,0,0,.17-0.21,11.81,11.81,0,0,0,.72-1.06,18.56,18.56,0,0,0,1.14-2.06l0.35-.71c0.55-1.25,1-2.43,1.26-3.33l0.22-.72c0.19-.67.29-1.07,0.29-1.07l0.08,0.56c0,0.14,0,.31.08,0.51s0.06,0.45.1,0.72c0.13,0.85.31,2,.51,3.33a0.33,0.33,0,0,1,0,.09c0,0.21.07,0.41,0.1,0.62,0.16,1,.35,2.14.55,3.34,0,0.23.07,0.48,0.11,0.72,0.18,1.06.36,2.17,0.57,3.34,0,0.24.08,0.48,0.12,0.71,0.2,1.09.39,2.2,0.61,3.33,0,0.24.08,0.48,0.13,0.72,0.21,1.1.42,2.21,0.63,3.34,0,0.23.1,0.48,0.14,0.72L110.8,85c0.1,0.5.21,1,.32,1.51,0,0.24.09,0.49,0.15,0.72l0.25,1.2L112,90.53c0.06,0.24.11,0.48,0.16,0.72,0.27,1.14.53,2.26,0.8,3.33,0.07,0.24.12,0.49,0.19,0.72,0.43,1.66.88,3.22,1.31,4.61l0,0.07h0l0.33,0,0.72-.09,3.34-.46,0.71-.08,1.56-.21ZM88.66,46.7l-1.44,1.81-0.72.9c-0.15.21-.32,0.41-0.49,0.63l-0.56.72c-0.71.9-1.48,1.9-2.29,3l-0.27.36c-0.15.19-.29,0.38-0.44,0.58l-0.11.14c-0.82,1.08-1.67,2.21-2.49,3.33h0c-0.18.23-.35,0.48-0.51,0.71l-0.21.29-0.72,1c-0.5.7-1,1.38-1.45,2.05l-0.49.72c-0.48.69-.91,1.35-1.32,2a0.25,0.25,0,0,0-.07-0.07c-0.23-.26-0.48-0.54-0.72-0.84L73.49,62.9c-0.17-.23-0.35-0.48-0.54-0.72-0.65-.89-1.3-1.85-1.93-2.85a5.31,5.31,0,0,1-.31-0.49c-0.15-.22-0.28-0.45-0.41-0.67l0,0C69.62,57,69,55.91,68.48,54.79l-0.34-.72A24.85,24.85,0,0,1,67,50.89a0.5,0.5,0,0,1,0-.14c-0.07-.24-0.14-0.49-0.19-0.72a8.69,8.69,0,0,1-.21-3.33A3.53,3.53,0,0,1,66.71,46a2.8,2.8,0,0,1,.23-0.57l0,0c0.52-.92,1.74-1.44,3.34-1.65L71,43.65a24.77,24.77,0,0,1,3.33,0l0.72,0.06c1.09,0.09,2.21.23,3.33,0.4l0.72,0.1c3.34,0.54,6.51,1.32,8.3,1.77,0.94,0.24,1.49.4,1.49,0.4Z"/><path class="cls-3" d="M67.33,228.23a2,2,0,0,1-1.1,1.42c-2.12.93-5-2.59-7.75-6.95a41.65,41.65,0,0,1-3.83-8.41c-0.16-.44-0.31-1-0.47-1.45-0.07-.24-0.15-0.49-0.23-0.74s-0.11-.41-0.17-0.63l-0.16-.64,0-.16,0-.09-0.05-.25-0.09-.51a19,19,0,0,1-.22-1.94c0-.57,0-1.14,0-1.69a39.25,39.25,0,0,1,.44-5.33,106.7,106.7,0,0,1,2.92-13.05A18.48,18.48,0,0,0,66,191l-0.54,1.59h0c-0.06.16-.11,0.34-0.16,0.51-0.23.68-.45,1.35-0.66,2l-0.34,1.09c-0.15.49-.3,1-0.44,1.47l-0.31,1.05c-0.16.56-.31,1.12-0.45,1.67-0.11.39-.2,0.78-0.29,1.17s-0.2.82-.29,1.22l-0.06.3c-0.08.36-.14,0.7-0.21,1-0.12.67-.21,1.32-0.28,1.91,0,0.37-.08.71-0.09,1,0,0.16,0,.31,0,0.45s0,0.46,0,.65a1.27,1.27,0,0,0,0,.18v0.18h0v0.15L62,209.33v0c0,0.21.07,0.44,0.1,0.65s0.07,0.34.1,0.52a0.31,0.31,0,0,1,0,.08c0.06,0.3.11,0.59,0.19,0.91,0,0.11.05,0.23,0.09,0.34,0.06,0.28.13,0.54,0.2,0.81s0.21,0.78.32,1.15c0.06,0.22.12,0.43,0.19,0.64,0.12,0.42.26,0.84,0.39,1.24,0.41,1.21.82,2.33,1.22,3.33,0.82,2.08,1.64,3.66,2.06,4.78A7.73,7.73,0,0,1,67.33,228.23Z"/><path class="cls-3" d="M100.22,224.49a3.27,3.27,0,0,1-.25.5c-0.94,1.5-3.72.05-5-.54a72.65,72.65,0,0,1-9.22-6.77c-1.32-1.19-4-3.6-4.83-5.58a4.06,4.06,0,0,1-.13-1.15c-0.09-2.84.35-9.72,0.39-11.62,0.05-2.66.17-5.4,0.34-8.22a20.36,20.36,0,0,0,8.28.72c-0.14,1.07-.27,2.12-0.39,3.14,0,0.47-.11.94-0.16,1.39a1.17,1.17,0,0,1,0,.16l-0.13,1.19c-0.06.71-.13,1.39-0.19,2.07,0,0.26,0,.52-0.06.77,0,0.46-.06.9-0.07,1.34,0,0.08,0,.15,0,0.23,0,0.42,0,.84,0,1.25,0,0.68,0,1.34,0,2v0.32c0,0.49,0,.94,0,1.34s0,0.61.06,0.89a8.93,8.93,0,0,0,.23,1.36,5.56,5.56,0,0,0,.73,1.64c0.19,0.29.39,0.58,0.64,0.89l0,0,0.82,1.06c0.08,0.1.25,0.29,0.49,0.53l0.92,0.94,0.52,0.52,0.24,0.24,1.36,1.33c2,1.94,4.06,3.93,4.06,3.93C100.05,221.68,100.76,223.11,100.22,224.49Z"/><path class="cls-2" d="M135.57,28.87a12.59,12.59,0,0,1-2.1,4.45c-1.71,2.35-2.56,3.69-4.35,5.16-3.57,2.94-6.81,6.92-9.7,4.86-4.16-3-3.51-12.7-.47-18.59,0.13-.24.25-0.48,0.38-0.7,3.31-5.7,8-8.52,12.35-5.44A9.65,9.65,0,0,1,135.57,28.87Z"/><path class="cls-2" d="M117.54,28.5c-0.1.39,3.74,4,.84,9.89-1.27,2.58-8.77,9.29-10.27,10.23a5.2,5.2,0,0,1-1.22.57,3.09,3.09,0,0,1-1.3-.19,2.74,2.74,0,0,1-1.48-1,3.24,3.24,0,0,0,.21-2.07c-0.35-1.45-.64-2.82-1-4.59-0.22-1-.46-2.13-0.63-3C107.79,37,115.18,31.89,117.54,28.5Z"/><path class="cls-2" d="M142,133.19h0a1.34,1.34,0,0,1,0,.26,0.55,0.55,0,0,1-.18.35l-0.11.08a1.79,1.79,0,0,1-1,.12l-0.35-.05a9.41,9.41,0,0,1-1.44-.37l-0.48-.16-0.5-.18-0.52-.2-0.53-.21-0.61-.26-0.49-.21-1-.46-1-.48c-1.19-.56-2.35-1.15-3.35-1.67-1.63-.85-2.87-1.53-3.19-1.71h0l0.05,0.05,0.07,0.07,0.34,0.33,0.14,0.14,0.17,0.16L128,129l0.38,0.38,0.34,0.37c0.43,0.46.88,1,1.27,1.46,0.05,0.07.1,0.13,0.14,0.19l0.14,0.19,0.13,0.19,0.12,0.18,0.1,0.18a4.86,4.86,0,0,1,.23.47,0.16,0.16,0,0,0,0,.07,0.87,0.87,0,0,1,.05.18,0.74,0.74,0,0,1,0,.18,0.47,0.47,0,0,1-.18.39,0.88,0.88,0,0,1-.63.13l-0.13,0-0.19,0a1.41,1.41,0,0,1-.26-0.08l-0.28-.11a6.29,6.29,0,0,1-1.31-.81c-0.13-.09-0.24-0.19-0.37-0.3s-0.25-.22-0.38-0.34l-0.46-.45a14.27,14.27,0,0,1-1-1.08c-0.17-.2-0.33-0.42-0.5-0.63a23.4,23.4,0,0,1-1.33-2c-0.15-.25-0.3-0.5-0.45-0.77s-0.39-.72-0.59-1.1c-0.12-.23-0.23-0.45-0.34-0.69s-0.23-.48-0.34-0.72-0.23-.52-0.35-0.79l-0.35-.83c-0.43-1.07-.86-2.23-1.27-3.49-0.25-.77-0.49-1.52-0.73-2.27-0.77-2.41-1.5-4.7-2.14-6.77-1.79-5.74-3-9.83-2.93-10.28,0-.06,0-0.06.07,0l0.26,0,0.72-.11,3.34-.49,0.72-.11,1.5-.23h0.1c0.47,1.88,1.68,10.27,3.73,17h0c1.19,3.95,2.67,7.33,4.43,8.56a1.71,1.71,0,0,0,.2.13l0.34,0.21h0l1.64,1h0l0.52,0.31,2.22,1.27,0.64,0.37,1.46,0.84,1,0.57c0.62,0.38,1.18.73,1.69,1.06l0.4,0.28c0.17,0.11.33,0.23,0.48,0.34l0.27,0.2a8.59,8.59,0,0,1,.88.75,4.36,4.36,0,0,1,.33.36,2.26,2.26,0,0,1,.44.73,0.61,0.61,0,0,1,0,.12A1,1,0,0,1,142,133.19Z"/><path class="cls-4" d="M94.66,148.78v1.29l0,1.18c0,0.78-.06,1.53-0.09,2.29-0.34,6-1,11.63-1.74,17.07s-1.53,10.61-2.22,15.51c-0.28,1.95-.54,3.86-0.77,5.71a20.39,20.39,0,0,1-8.27-.72c0.1-2,.22-4,0.35-6.08,0.33-5,.67-10.21,1-15.64,0-.59.08-1.18,0.12-1.78,0.08-6.73,0-13.72-.34-18.5-0.84-10.67-5.39-24.5-7.8-31.88a50,50,0,0,1-1.44-5.48,28,28,0,0,0,.38,5.47c0.61,4.21,1.94,10.69,2.78,17.95,0.71,6.18,1.75,13.1,1,20.49-0.63,5.77-2.89,11.89-5.57,18.78a0.33,0.33,0,0,1,0,.08c-0.59,1.61-1.16,3.21-1.73,4.79C68.81,183.22,66.36,190,66,191a18.47,18.47,0,0,1-9.14-3c1.17-4.12,2.47-8.37,3.83-12.69q1.11-3.48,2.22-7.07c0.35-1.19.71-2.39,1.08-3.58,0.18-.62.35-1.22,0.54-1.84s0.29-1,.4-1.58a25.76,25.76,0,0,0,.73-6.18c0-1-.08-2.14-0.2-3.26s-0.24-2.29-.44-3.49c-0.74-4.79-1.89-10.06-2.78-15.24S60.53,122.65,60,117.63l-0.1-.92-0.06-.51,0-.51c0-.69-0.11-1.36-0.17-2s-0.07-1.36-.1-2-0.06-1.35,0-2a69.23,69.23,0,0,1,.39-7.83q0.36-2.87.9-5.56c0-.22.08-0.44,0.14-0.66l0.17-.76c0-.11,0-0.21.07-0.33l0.08-.35c0.48-1.93,1-3.81,1.6-5.57,0.07-.21.14-0.43,0.21-0.64l0,0s0-.07,0-0.1l0.22-.63q0.8-2.22,1.71-4.23a0.39,0.39,0,0,1,0-.09l0-.09,0.18-.38,0-.08,0-.09a0.15,0.15,0,0,1,0-.07c0-.07.07-0.16,0.11-0.23a1.7,1.7,0,0,1,.13-0.26,0.69,0.69,0,0,1,.09-0.21,0.72,0.72,0,0,1,.07-0.15c0.06-.13.12-0.26,0.2-0.4,0.5-1.05,1-2.06,1.56-3,3.26,4.06,9.75,10.69,18.39,12.4-0.18.55-.33,1.11-0.48,1.67a5.17,5.17,0,0,0-.13.51c0,0.08,0,.18-0.07.27s0,0.19-.07.29l-0.1.43a0.33,0.33,0,0,0,0,.09l0,0.09-0.08.37a0.33,0.33,0,0,0,0,.09,0.27,0.27,0,0,0,0,.08c-0.15.71-.28,1.41-0.37,2.09a2.19,2.19,0,0,0,0,.24c0,0.15,0,.3-0.06.44a20.15,20.15,0,0,0-.14,2V99.7l0,0.43,0,1c0,0.55.07,1.06,0.14,1.66a84,84,0,0,0,3.11,15c1.5,5.23,3.34,10.67,4.89,16.59a71.13,71.13,0,0,1,1.84,9.38A41.9,41.9,0,0,1,94.66,148.78Z"/><g class="cls-7"><g class="cls-8"><path class="cls-4" d="M84.31,99.6a0.36,0.36,0,0,1,0-.09V99.6Z"/><line class="cls-9" x1="75.82" y1="87.69" x2="74.64" y2="90.62"/><line class="cls-9" x1="81.97" y1="89.94" x2="81.07" y2="92.88"/></g></g><circle class="cls-10" cx="126.29" cy="146.6" r="0.83"/><circle class="cls-10" cx="130.71" cy="149.37" r="0.83"/><circle class="cls-10" cx="126.85" cy="152.13" r="0.83"/><circle class="cls-10" cx="132.37" cy="154.34" r="0.83"/><circle class="cls-10" cx="137.62" cy="154.89" r="0.83"/><circle class="cls-10" cx="128.23" cy="157.66" r="0.83"/><circle class="cls-10" cx="134.03" cy="160.14" r="0.83"/><path class="cls-11" d="M108.92,101a0.88,0.88,0,0,0,.86.89,0.89,0.89,0,0,0,.81-1,0.88,0.88,0,0,0-.86-0.89A0.89,0.89,0,0,0,108.92,101Z"/><polygon class="cls-6" points="156.09 125.25 155.53 127.48 153.7 134.84 136.48 203.99 132.22 201.38 151.48 124.11 156.09 125.25"/><polygon class="cls-4" points="168.24 129.66 168.33 130.84 164.17 130.38 164.07 129.17 168.24 129.66"/><polygon class="cls-6" points="169.71 214.38 164.45 211.16 153.7 134.84 152.72 127.88 155.53 127.48 157.43 127.21 169.71 214.38"/><polygon class="cls-6" points="110.85 225.02 105.63 221.82 95.1 143.53 93.9 134.58 94.05 134.56 94.06 134.56 98.62 133.95 110.85 225.02"/><polygon class="cls-6" points="97.15 135.33 95.1 143.53 77.48 214.28 73.23 211.68 92.54 134.18 94.06 134.56 97.15 135.33"/><polygon class="cls-4" points="168.33 130.84 103.38 139.24 84.73 131.81 149.69 123.4 168.33 130.84"/><polygon class="cls-4" points="84.64 130.64 84.73 131.81 88.61 132.24 88.52 131.06 84.64 130.64"/><polygon class="cls-6" points="168.24 129.66 103.28 138.07 84.64 130.64 149.6 122.23 168.24 129.66"/><path class="cls-4" d="M141.95,133.45c-0.35,2.72-14.42-5.17-14.88-5.43,0.26,0.24,4.85,4.5,3.74,5.36s-6.62-2.15-10.47-14.09c-0.25-.77-0.49-1.52-0.73-2.27a41.91,41.91,0,0,0,7.46-1.63c0.39,4.23.67,8.2,2.53,9.31C136.39,128.76,142.21,131.46,141.95,133.45Z"/><polygon class="cls-12" points="145.52 152.84 143.02 155.45 142.85 155.62 142.89 153.81 141.27 153.84 141.3 152.19 139.68 152.23 139.72 150.58 138.1 150.62 138.14 148.97 136.51 149 136.56 147.36 134.94 147.39 134.98 145.75 133.35 145.78 133.39 144.14 131.77 144.17 131.81 142.52 130.19 142.56 130.23 140.91 128.61 140.94 128.65 139.29 127.02 139.32 127.06 137.68 125.45 137.71 125.48 136.5 125.49 136.07 123.86 136.1 123.88 135.53 123.9 134.46 122.28 134.5 122.32 132.84 120.7 132.88 120.74 131.23 119.11 131.27 119.16 129.62 117.53 129.66 117.57 128.01 115.95 128.05 115.95 127.89 115.99 126.7 116 126.4 114.37 126.43 114.41 124.79 112.78 124.82 112.83 123.17 111.21 123.2 111.25 121.56 109.62 121.59 109.67 119.95 108.04 119.98 108.08 118.34 106.46 118.37 106.5 116.73 104.88 116.76 104.92 115.11 103.29 115.14 103.33 113.49 101.72 113.53 101.76 111.88 100.13 111.92 100.17 110.27 98.55 110.31 98.59 108.66 96.96 108.7 97 107.05 94.83 107.09 97.16 105.32 97.17 105.32 104.29 99.92 109.13 100.34 110.46 100.46 111.03 100.51 112.58 102.85 117.46 110.25 121.72 116.71 127.33 125.24 128.05 126.32 130.32 129.77 133.31 134.31 134.03 135.4 145.52 152.84"/><path class="cls-3" d="M108.44,96c-2.14-1.88-4.7-1.16-6.22-4.75S98,84.5,96.45,85.19a1,1,0,0,0-.39,1.24c0,0.16.07,0.31,0.11,0.47a7.51,7.51,0,0,1,.25,1.57,0,0,0,0,1,0,0,2.69,2.69,0,0,1-.22,1.15,3,3,0,0,1-1,1.25c-2.4,1.82-3.19,1.5-5.14,3l-0.38.3-0.7.63c-2.74,2.56-2,5.07-.35,6.18s0,2.38,1.27,3.3c2.68,2,5.33-.35,7.27,1h0c1.94,1.32,3.57,2.61,5.06.67s3.3-5.25,5.7-2.08l4.65-1.06,0.29-.07A17.19,17.19,0,0,0,108.44,96Zm-14.81,5a1.79,1.79,0,0,1-2.7-.22,2.28,2.28,0,0,1,.18-3,12.08,12.08,0,0,1,1.06-.92,0.49,0.49,0,0,1,.13-0.11,23.79,23.79,0,0,1,7.37-3.74h0l0.44-.13a1.92,1.92,0,0,1,2.3,1.58A2.14,2.14,0,0,1,101,97.08,19.18,19.18,0,0,0,93.63,101Z"/><g class="cls-13"><path class="cls-4" d="M59.89,195.56a0.54,0.54,0,0,1-.23-1l5-2.32a0.54,0.54,0,0,1,.45,1l-5,2.32A0.53,0.53,0,0,1,59.89,195.56Z"/><path class="cls-4" d="M64.59,195.12l-0.34,1.09a0.77,0.77,0,0,1-.16-0.1l-1.79-1.61-0.86-.78L60,192.43a0.54,0.54,0,0,1,0-.76,0.55,0.55,0,0,1,.76,0l1.79,1.61L63.35,194Z"/><path class="cls-4" d="M63.81,197.67l-0.31,1.05-1.52.71-1.06.49-2.18,1a0.51,0.51,0,0,1-.23.05,0.53,0.53,0,0,1-.22-1l1.76-.81,1.06-.49,2.19-1A0.55,0.55,0,0,1,63.81,197.67Z"/><path class="cls-4" d="M63.06,200.39c-0.11.39-.2,0.78-0.29,1.17l0,0-1.79-1.61-0.87-.77-1.44-1.29a0.54,0.54,0,0,1,.71-0.8l1.79,1.6L62,199.43Z"/><path class="cls-4" d="M62.41,203.08c-0.08.36-.14,0.7-0.21,1l-1.59.74-1.06.49-2.19,1a0.62,0.62,0,0,1-.22.05,0.54,0.54,0,0,1-.23-1l1.77-.82,1.06-.49,2.18-1A0.53,0.53,0,0,1,62.41,203.08Z"/><path class="cls-4" d="M61.93,206c0,0.37-.08.71-0.09,1H61.71a0.52,0.52,0,0,1-.36-0.14l-1.79-1.6-0.87-.78-1.45-1.29a0.54,0.54,0,1,1,.71-0.8l1.79,1.61,0.87,0.77Z"/><path class="cls-4" d="M62,209.33l-0.92.62-1,.65-2,1.33a0.53,0.53,0,0,1-.72-0.14,0.53,0.53,0,0,1,.14-0.72l1.55-1,1-.65,1.79-1.2a1.27,1.27,0,0,0,0,.18v0.18h0v0.15Z"/><path class="cls-4" d="M62.45,211.84h0a0.53,0.53,0,0,1-.26-0.06l-2.08-1.19-1-.58-1.64-.94a0.52,0.52,0,1,1,.52-0.9L60,209.37l1,0.58,1.14,0.65c0.06,0.3.11,0.59,0.19,0.91C62.39,211.62,62.41,211.73,62.45,211.84Z"/><path class="cls-4" d="M63,213.81l-0.44.43-0.83.81L60,216.72a0.54,0.54,0,0,1-.37.15,0.52,0.52,0,0,1-.36-0.89l1.34-1.32,0.82-.81,1.22-1.19C62.75,213,62.86,213.44,63,213.81Z"/><path class="cls-4" d="M63.55,215.69L61.71,215l-1.09-.38-1.78-.61a0.52,0.52,0,0,1,.34-1l2.26,0.79,1.1,0.39,0.63,0.21C63.29,214.87,63.42,215.29,63.55,215.69Z"/></g><g class="cls-13"><path class="cls-4" d="M89.41,195c0,0.47-.11.94-0.16,1.39l-0.14.09-1,.65-2,1.34a0.54,0.54,0,0,1-.29.09,0.53,0.53,0,0,1-.3-1l1.62-1.09,1-.65Z"/><path class="cls-4" d="M89.23,196.52l-0.13,1.19-1-.61-1-.64-1.64-1.05a0.53,0.53,0,0,1-.16-0.74,0.54,0.54,0,0,1,.74-0.16l2,1.3,1,0.64Z"/><path class="cls-4" d="M88.86,200.56c0,0.46-.06.9-0.07,1.34l-0.18.12-1,.65-2,1.34a0.58,0.58,0,0,1-.3.09,0.52,0.52,0,0,1-.44-0.24,0.53,0.53,0,0,1,.14-0.74L86.66,202l1-.64Z"/><path class="cls-4" d="M88.78,202.13c0,0.42,0,.84,0,1.25l-1.1-.71-1-.64L85,201a0.53,0.53,0,0,1-.16-0.74,0.54,0.54,0,0,1,.74-0.16l2,1.31,1,0.63Z"/><path class="cls-4" d="M88.75,207l-0.65.5-0.92.71-1.91,1.47a0.54,0.54,0,0,1-.32.11,0.55,0.55,0,0,1-.43-0.21,0.54,0.54,0,0,1,.1-0.75l1.54-1.19,0.93-.71,1.64-1.27C88.72,206.18,88.73,206.62,88.75,207Z"/><path class="cls-4" d="M89,209.28l-1.87-1-1-.56-1.69-.94a0.53,0.53,0,0,1-.21-0.73,0.54,0.54,0,0,1,.73-0.21l2.1,1.17,1,0.57,0.71,0.39A8.93,8.93,0,0,0,89,209.28Z"/><path class="cls-4" d="M90.41,211.81h0l-0.79.86L88,214.47a0.55,0.55,0,0,1-.4.17,0.5,0.5,0,0,1-.36-0.14,0.52,0.52,0,0,1,0-.75l1.31-1.44,0.79-.86,0.48-.52C90,211.21,90.16,211.5,90.41,211.81Z"/><path class="cls-4" d="M91.74,213.42l-2.12-.74-1.11-.38-1.84-.64a0.54,0.54,0,0,1,.35-1l2.27,0.79,1.11,0.39h0l0.82,1.06C91.33,213,91.5,213.18,91.74,213.42Z"/><path class="cls-4" d="M93.42,215.13l-0.62.76-1.52,1.87a0.54,0.54,0,0,1-.84-0.68l1.22-1.51,0.74-.91,0.25-.3,0.52,0.52Z"/><path class="cls-4" d="M94.78,216.46l-2-.56-1.13-.32L89.81,215a0.54,0.54,0,0,1,.29-1l2.31,0.65,0.77,0.22,0.24,0.24Z"/></g><path class="cls-4" d="M67.33,228.23a2,2,0,0,1-1.1,1.42c-2.12.93-5-2.59-7.75-6.95a41.65,41.65,0,0,1-3.83-8.41c-0.16-.44-0.31-1-0.47-1.45-0.07-.24-0.15-0.49-0.23-0.74s-0.11-.41-0.17-0.63l-0.16-.64,0-.16,0-.09-0.05-.25-0.09-.51a19,19,0,0,1-.22-1.94c0-.57,0-1.14,0-1.69,1.36,6,7.07,21.93,12.8,22.38A2.13,2.13,0,0,0,67.33,228.23Z"/><path class="cls-4" d="M100.22,224.49a3.27,3.27,0,0,1-.25.5c-0.94,1.5-3.72.05-5-.54a72.65,72.65,0,0,1-9.22-6.77c-1.32-1.19-4-3.6-4.83-5.58a4.06,4.06,0,0,1-.13-1.15A45.07,45.07,0,0,0,92,221.3C97,224.43,98.91,225.15,100.22,224.49Z"/><g class="cls-14"><path class="cls-15" d="M58.86,39.78V54.6c0-.06-0.05-0.14-0.08-0.21s-0.08-.21-0.11-0.31l0-.08c-0.17-.47-0.34-1-0.49-1.47V41.29c0.1-.27.23-0.55,0.35-0.81S58.72,40,58.86,39.78Z"/><path class="cls-15" d="M62.92,36.77V62.45a2.71,2.71,0,0,1-.18-0.27c-0.19-.29-0.36-0.6-0.54-0.89V37.11C62.44,37,62.68,36.87,62.92,36.77Z"/><path class="cls-15" d="M66.52,46.7A8.69,8.69,0,0,0,66.74,50c0,0.23.11,0.48,0.19,0.72h0V68.36l-0.72-1V35.66L67,35.48v9.9l0,0a2.8,2.8,0,0,0-.23.57A3.53,3.53,0,0,0,66.52,46.7Z"/><path class="cls-15" d="M71,34.88v8.77l-0.72.08V35Z"/><path class="cls-15" d="M71,59.33V81.68L70.3,81V73.29l0.12-.19-0.12-.17V58.17c0.13,0.22.26,0.45,0.41,0.67A5.31,5.31,0,0,0,71,59.33Z"/><path class="cls-15" d="M75.07,34.68v9l-0.72-.05v-9C74.59,34.68,74.83,34.68,75.07,34.68Z"/><path class="cls-15" d="M75.07,64.81V85.16c-0.24-.18-0.49-0.35-0.72-0.54V64C74.59,64.27,74.83,64.55,75.07,64.81Z"/><path class="cls-15" d="M79.11,34.76v9.47l-0.72-.08V34.72Z"/><path class="cls-15" d="M79.12,59.13V87.74l-0.72-.4V60.13Z"/><path class="cls-15" d="M83.17,35.06v9.82l-0.72-.13V35Z"/><path class="cls-15" d="M83.16,53.71V89.48a6.34,6.34,0,0,1-.71-0.24V54.66c0.15-.2.29-0.39,0.44-0.58Z"/><path class="cls-15" d="M87.22,48.5V89.36l-0.39.26-0.06.13-0.27.15V49.41Z"/><path class="cls-15" d="M87.22,35.57V45.73l-0.72-.16V35.46Z"/><path class="cls-15" d="M91.27,36.26v44c-0.23.35-.48,0.73-0.72,1.13V36.13Z"/><path class="cls-15" d="M95.32,37.16V76.09c-0.24.17-.48,0.34-0.72,0.53V37Z"/><path class="cls-15" d="M98.68,37.88h0Z"/><path class="cls-15" d="M99.38,38.32v35c-0.24.2-.49,0.37-0.72,0.54V38.1Z"/><path class="cls-15" d="M103.42,41.9v7.91c0,0.12-.1.23-0.16,0.35-0.17.36-.35,0.72-0.55,1.06V38.54c0.21,1.1.46,2.22,0.7,3.31A0.08,0.08,0,0,0,103.42,41.9Z"/><path class="cls-15" d="M103.42,51.61V69c-0.23.37-.46,0.72-0.72,1.06v-18Z"/><path class="cls-15" d="M107.47,49V66.33a0.33,0.33,0,0,0,0-.09c-0.21-1.34-.38-2.48-0.51-3.33,0-.27-0.07-0.51-0.1-0.72s-0.07-.37-0.08-0.51V49.47Z"/><path class="cls-15" d="M111.53,50V88.41c-0.08-.4-0.17-0.8-0.26-1.2l-0.15-.72c-0.1-.5-0.21-1-0.31-1.52V50h0.72Z"/><path class="cls-15" d="M115.57,55.19V99.84l-0.72.09V54.08h0.27c0.11,0.23.22,0.47,0.31,0.72S115.53,55.06,115.57,55.19Z"/><path class="cls-15" d="M119.62,92.21V99.3l-0.71.09V88.28c0.12,0.76.25,1.5,0.39,2.26,0,0.24.08,0.49,0.14,0.72S119.56,91.89,119.62,92.21Z"/><path class="cls-15" d="M102.72,38.59H60a10.63,10.63,0,0,1,.93-0.71H98l0.69,0.21,0.72,0.22v0a0.22,0.22,0,0,0,.07.06l0.53-.47h2.59c0,0.16.07,0.32,0.09,0.48s0,0.12,0,.19S102.72,38.57,102.72,38.59Z"/><path class="cls-15" d="M103.57,42.64H57.7l0-.15,0.06-.17a3.85,3.85,0,0,1,.13-0.39h45.5a0,0,0,0,1,0,0C103.48,42.18,103.54,42.42,103.57,42.64Z"/><path class="cls-15" d="M66.7,46a3.92,3.92,0,0,0-.18.72H57.16c0-.16,0-0.32,0-0.48a2.13,2.13,0,0,1,0-.23H66.7Z"/><path class="cls-15" d="M88.66,46.7l0.25-.32s-0.55-.16-1.49-0.4h16.91a3.27,3.27,0,0,1,.08.72H88.66Z"/><path class="cls-15" d="M66.92,50.75H57.67c-0.05-.21-0.09-0.43-0.13-0.64,0,0,0-.05,0-0.08h9.22C66.79,50.26,66.85,50.51,66.92,50.75Z"/><path class="cls-15" d="M103.26,50s0,0.05,0,.08l0,0c-0.1.22-.2,0.42-0.3,0.61H85.46L86,50h17.24Z"/><polygon class="cls-15" points="111.53 50.03 111.53 50.75 104.75 50.75 105.88 50.03 111.53 50.03"/><path class="cls-15" d="M68.48,54.79H58.86V54.6c0-.07-0.05-0.14-0.08-0.21s-0.08-.21-0.12-0.32h9.48Z"/><path class="cls-15" d="M115.43,54.79H82.34l0.11-.14,0.44-.58h32.23C115.23,54.3,115.34,54.54,115.43,54.79Z"/><path class="cls-15" d="M70.71,58.85H60.78c-0.12-.24-0.24-0.48-0.37-0.72H70.3v0Z"/><path class="cls-15" d="M116.08,58.84H79.33c0.17-.23.34-0.48,0.51-0.71H116C116,58.36,116.06,58.6,116.08,58.84Z"/><path class="cls-15" d="M73.49,62.9H63.2a5.23,5.23,0,0,1-.28-0.45,2.71,2.71,0,0,1-.18-0.27H72.95C73.14,62.43,73.32,62.67,73.49,62.9Z"/><path class="cls-15" d="M106.38,62.18l-0.22.72H76.46L77,62.18h29.43Z"/><path class="cls-15" d="M116.91,62.9h-10c0-.27-0.07-0.51-0.1-0.72h10C116.86,62.42,116.88,62.66,116.91,62.9Z"/><path class="cls-15" d="M104.9,66.23l-0.35.71H65.94l-0.49-.71H104.9Z"/><path class="cls-15" d="M117.2,66.94h-9.63c0-.21-0.07-0.41-0.1-0.62a0.33,0.33,0,0,0,0-.09h9.71C117.19,66.47,117.19,66.71,117.2,66.94Z"/><path class="cls-15" d="M102.53,70.28a9,9,0,0,1-.59.72h-33c-0.19-.23-0.36-0.48-0.54-0.72h34.17Z"/><path class="cls-15" d="M117.35,71h-9.11c0-.24-0.08-0.49-0.11-0.72h9.21C117.34,70.52,117.34,70.77,117.35,71Z"/><path class="cls-15" d="M98,74.33l-1.1.72H69.12l0.15-.23,0.33-.48H98Z"/><path class="cls-15" d="M117.46,75h-8.53c0-.23-0.08-0.47-0.12-0.71h8.63C117.44,74.58,117.45,74.81,117.46,75Z"/><path class="cls-15" d="M92.71,78.38c-0.2.22-.41,0.46-0.61,0.72H68.6c-0.21-.24-0.42-0.49-0.61-0.72H92.71Z"/><path class="cls-15" d="M117.65,79.1h-8c0-.24-0.09-0.48-0.13-0.72h8.06Z"/><path class="cls-15" d="M89.95,82.44c-0.12.23-.25,0.47-0.37,0.72h-17c-0.27-.23-0.53-0.48-0.79-0.72H89.95Z"/><path class="cls-15" d="M118.13,83.15h-7.69c0-.24-0.09-0.49-0.14-0.72H118C118.06,82.68,118.1,82.91,118.13,83.15Z"/><path class="cls-15" d="M88,86.48l-0.29.72H78.14c-0.4-.23-0.79-0.47-1.18-0.72H88Z"/><path class="cls-15" d="M118.73,87.2h-7.46c-0.06-.23-0.1-0.48-0.15-0.72h7.5C118.66,86.73,118.69,87,118.73,87.2Z"/><path class="cls-15" d="M119.44,91.25h-7.29c0-.24-0.1-0.48-0.16-0.72h7.3C119.35,90.78,119.39,91,119.44,91.25Z"/><path class="cls-15" d="M120.27,95.3h-7.13c-0.07-.23-0.12-0.48-0.19-0.72h7.16C120.17,94.82,120.22,95.06,120.27,95.3Z"/></g><path class="cls-2" d="M81.84,85.48L81.4,85c-0.56-.62-8.57-9.35-9.14-10l-0.47-.49a2.44,2.44,0,0,0-.21-0.22L71.23,74a7.13,7.13,0,0,1,1.61-3c0.14-.17.29-0.34,0.46-0.51l0.2-.21,0.61-.58,0.24-.21,0.72-.57A12.9,12.9,0,0,1,77,67.72l0.76,1.15,0.66,1c0.08,0.14,7.09,10.33,7.44,10.82l0.06,0.08,0.23,0.33A27.6,27.6,0,0,0,81.84,85.48Z"/><path class="cls-6" d="M71.76,76a1.36,1.36,0,0,1-1.29-1.76,11,11,0,0,1,7.36-6.82A1.35,1.35,0,0,1,78.56,70a8.29,8.29,0,0,0-5.51,5A1.36,1.36,0,0,1,71.76,76Z"/><path class="cls-4" d="M99.87,93.92c0,1-1,1.83-2.19,2.51l-0.28.16-0.28.14a5.52,5.52,0,0,1-3.67.89l-0.1,0a3.75,3.75,0,0,1-1.18-.68,22.9,22.9,0,0,1-2.49-2.69A19.68,19.68,0,0,0,86,91.15l-0.29-.2c-0.83-.56-1.68-1.1-2.54-1.63l-0.72-.45c-0.9-.57-1.77-1.12-2.54-1.66l-0.05,0a7.52,7.52,0,0,1,.42-0.68c0.28-.43.64-0.9,1.06-1.41l0,0L81.4,85c0.32-.38.68-0.79,1.05-1.19,0.2-.22.41-0.44,0.63-0.66l0.09-.09c0.21-.22.42-0.43,0.63-0.63a22.14,22.14,0,0,1,2-1.74l0,0,0.33-.24,0.34-.23a7.71,7.71,0,0,1,.72-0.45l0.33-.18c0.28,0.68.69,1.76,1.13,2.86l0,0.1,0.24,0.62,0.28,0.69h0a17,17,0,0,0,1.2,2.64l0,0,0,0h0l0.12,0c1.23,0.23,2.38-1.6,5.18-.31a2.42,2.42,0,0,1,.22.14c0,0.16.07,0.31,0.11,0.47a5.11,5.11,0,0,1,.25,1.57,0,0,0,0,1,0,0,3.81,3.81,0,0,1-.09.64c-0.19,0-1.11-.33-1.16-0.33s0.38,0.35,1,.83L96.7,90a7.92,7.92,0,0,1,3,3.09h0A3.27,3.27,0,0,1,99.87,93.92Z"/><path class="cls-3" d="M134.41,37.8a0.58,0.58,0,0,0-.07-0.77L118.84,22.87l-0.39.29,3.63,6.27s-1.92,4.14.2,5.83,5.63,0.5,5.63.5-1.4,3.21.12,4.58C130.66,42.72,133.4,39.14,134.41,37.8Z"/><path class="cls-4" d="M120,24.51l14.12,12.95c-0.65.85-2.61,3.22-4.37,3.22a1.9,1.9,0,0,1-1.38-.63,2.63,2.63,0,0,1-.11-3.65,0.68,0.68,0,0,0-.71-1.09,8.39,8.39,0,0,1-2.2.3,4.31,4.31,0,0,1-2.74-.8c-1.4-1.11-.53-4.07-0.08-5.12a0.68,0.68,0,0,0,0-.59L120,24.51m-1.06-1.89-0.45.54,3.42,6.26s-1.84,4.23.28,5.92a5,5,0,0,0,3.16,1,9,9,0,0,0,2.4-.33,3.35,3.35,0,0,0,.14,4.57,2.56,2.56,0,0,0,1.86.83c2.08,0,4.19-2.53,5-3.56A0.58,0.58,0,0,0,134.6,37L118.9,22.63h0Z"/><path class="cls-2" d="M127.68,36s-0.68,4.47-1.23,4.7S125.21,37,125.21,37Z"/><path class="cls-4" d="M123.6,27.41L122,29.21l0.23,0.25-0.12.32,0.11,0c0.17,0,.43-0.29,1.91-1.94l-0.5-.45h0Z"/><path class="cls-6" d="M114.25,101.28a1.35,1.35,0,0,1-.18-2.7l7-1a1.35,1.35,0,1,1,.37,2.68l-7,1h-0.19Z"/><path class="cls-2" d="M119.78,26.2s0.39-3.62-1.38-4-2.33,5.5-.53,7.09a19.12,19.12,0,0,0,1.21-1.65A3.43,3.43,0,0,0,119.78,26.2Z"/><path class="cls-4" d="M135.73,28.84c-4.5,1.12-14.47-2.78-15.91-3.37a6.66,6.66,0,0,0-.45-2.59c3.29-5.4,8.29-7.4,12.51-4.4A10.6,10.6,0,0,1,135.73,28.84Z"/><path class="cls-16" d="M122,38.67l0.28,0.71a4.5,4.5,0,0,0,.68,1.26,1.54,1.54,0,0,0,.52.39,1.94,1.94,0,0,0,.31.11,2,2,0,0,0,.32.07,3.43,3.43,0,0,0,.53.07l0.22,0-0.18.13a1.86,1.86,0,0,1-.53.25,1.28,1.28,0,0,1-.4.08,1.44,1.44,0,0,1-.48,0,1.4,1.4,0,0,1-.5-0.2,2,2,0,0,1-.43-0.35A2.51,2.51,0,0,1,122,38.67Z"/><path class="cls-4" d="M115.42,26.81s-5.14,3.58-5.57,16.92c-0.28,8.78,3.78,12.87-1.21,21.64,0,0,11.64,2.67,7.93-16.12C114.34,37.93,114.37,33.76,115.42,26.81Z"/><path class="cls-6" d="M65.89,192a15.53,15.53,0,0,1-9.93-3.4,1.35,1.35,0,0,1,1.81-2,13.14,13.14,0,0,0,8.54,2.7,1.35,1.35,0,0,1,.08,2.71H65.89Z"/><path class="cls-17" d="M81.52,191.1a16,16,0,0,0,8.28.72"/><path class="cls-16" d="M124.94,38.4s0.07,0.09.17,0.24l0.42,0.62c0.08,0.13.17,0.26,0.27,0.39a1.5,1.5,0,0,0,.32.3c0,0.07.11,0,.21-0.16a3.46,3.46,0,0,0,.26-0.52c0.32-.74.56-1.55,0.75-2.14l0.31-1s0,0.42-.14,1c0,0.31-.12.67-0.21,1.05a9.94,9.94,0,0,1-.34,1.19,3.83,3.83,0,0,1-.28.6,1.05,1.05,0,0,1-.25.29l-0.14.07-0.09,0a0.54,0.54,0,0,1-.27,0,1.12,1.12,0,0,1-.49-0.46,3.31,3.31,0,0,1-.26-0.46A3.37,3.37,0,0,1,124.94,38.4Z"/><path class="cls-4" d="M132.54,19s3.73,3.18,4.26,7.58c0.44,3.67-.76,1.87-0.76,1.87l-4.55-2.74Z"/></g></g></svg>