<?xml version="1.0" encoding="UTF-8" standalone="no"?>
<svg width="301px" height="79px" viewBox="0 0 301 79" version="1.1" xmlns="http://www.w3.org/2000/svg" xmlns:xlink="http://www.w3.org/1999/xlink">
    <!-- Generator: Sketch 47.1 (45422) - http://www.bohemiancoding.com/sketch -->
    <title>Page 1</title>
    <desc>Created with Sketch.</desc>
    <defs></defs>
    <g id="Symbols" stroke="none" stroke-width="1" fill="none" fill-rule="evenodd">
        <g id="Running-Footer" transform="translate(-592.000000, -232.000000)">
            <g id="Group-15">
                <g id="Page-1" transform="translate(592.000000, 232.000000)">
                    <polygon id="Fill-1" fill="#64B3EC" points="212.979497 64 170 17.8880338 172.020503 16 215 62.1119662"></polygon>
                    <g id="Group-35">
                        <path d="M241.530712,59.2808745 C240.506666,61.0317724 240.320256,62.9374459 240.683393,64.2893133 C240.864961,64.9648439 241.356406,66.1313031 242.60479,66.354599 C244.623023,66.716548 245.635771,65.4702827 245.894808,64.2933439 C246.284575,62.5222929 245.214532,60.2272622 241.947109,59.3776092 C241.813151,59.3429459 241.674353,59.310701 241.530712,59.2808745 M243.273768,68.593201 C242.931613,68.593201 242.578966,68.5617622 242.219865,68.4980786 C240.443723,68.1788541 239.116256,66.8511704 238.579621,64.853599 C238.139015,63.2155582 238.255218,61.09465 239.182428,59.0632214 C235.888374,59.0841806 231.625149,60.3514051 228.722476,64.2014459 L226.982647,62.8914969 C230.590613,58.105548 236.14257,56.5199051 240.515543,56.9278031 C240.904503,56.4513847 241.351564,55.9943133 241.859149,55.56465 C244.521345,53.3139561 250.825398,50.3764459 263.138154,55.9959255 L262.232733,57.9749561 C251.014229,52.8568847 245.534092,55.3083031 243.267312,57.2252622 C243.188229,57.2921704 243.111567,57.3590786 243.037326,57.427599 C247.087511,58.7190071 248.622369,62.0337827 248.02279,64.7600888 C247.503908,67.1228337 245.620438,68.593201 243.273768,68.593201" id="Fill-2" fill="#97CBF2"></path>
                        <path d="M272.426062,59.3738204 L266.066327,56.4572694 L266.715132,55.0449429 L273.075673,57.9614939 L272.426062,59.3738204 Z M270.575679,63.2577184 L264.215137,60.3411673 L264.864748,58.9288408 L271.22529,61.8453918 L270.575679,63.2577184 Z" id="Fill-4" fill="#EFC100"></path>
                        <polygon id="Fill-6" fill="#F9E693" points="282.82307 75.1212612 276.012239 69.0971082 278.103099 69.5969041 274.508853 65.2575469 281.321298 71.1833531 279.420882 71.0293837"></polygon>
                        <polygon id="Fill-8" fill="#F9E693" points="278.916364 63.9065663 290.539968 66.7739439 287.796268 67.4664031 294.640992 70.3313622 283.07549 67.5808724 285.38504 66.6006276"></polygon>
                        <g id="Group-12" transform="translate(284.860590, 66.908163)" fill="#F9E693">
                            <polygon id="Fill-10" points="0.307536461 0.0428857143 11.9311397 2.91026327 9.18743995 3.60272245 16.0321638 6.46768163 4.46666247 3.71719184 6.77621206 2.73694694"></polygon>
                        </g>
                        <polygon id="Fill-13" fill="#F9E693" points="292.859039 57.2823357 281.266101 60.6164582 283.300474 58.6575806 275.871503 59.614448 287.35308 56.2101929 285.844045 58.1980908"></polygon>
                        <path d="M262.301891,51.939598 L258.842408,59.201149 C258.488148,59.9460061 258.81255,60.8311286 259.567068,61.1769551 L264.706663,63.5340571 C265.462794,63.8798837 266.362566,63.5574347 266.716826,62.8125776 L270.176309,55.5510265 C270.531376,54.8061694 270.206167,53.9210469 269.451649,53.5752204 L264.311247,51.2173122 C263.55673,50.8714857 262.656958,51.1947408 262.301891,51.939598" id="Fill-15" fill="#97CBF2"></path>
                        <polygon id="Fill-17" fill="#64B3EC" points="137.060713 67.1965133 20.1613512 17.2128908 63.1196193 62.2090337 61.1110697 64.1219622 8.82018767 9.3483602 136.053614 63.751952 171.45541 11.8537888 257.635019 16.6905235 216.603796 57.6778194 214.642051 55.7181357 251.289003 19.1105031 172.865188 14.7082684"></polygon>
                        <polygon id="Fill-19" fill="#64B3EC" points="138.340488 64.1349408 95.0360292 19.9747469 64.5753134 57.1152265 62.4295788 55.3578796 94.851233 15.8256347 140.322407 62.1954102"></polygon>
                        <path d="M35.8393357,18.4112724 C35.8393357,28.1500378 27.8164349,36.0443949 17.9197485,36.0443949 C8.0230622,36.0443949 0.000161394102,28.1500378 0.000161394102,18.4112724 C0.000161394102,8.67250714 8.0230622,0.77815 17.9197485,0.77815 C27.8164349,0.77815 35.8393357,8.67250714 35.8393357,18.4112724" id="Fill-21" fill="#FB8AB4"></path>
                        <path d="M112.593125,18.4112724 C112.593125,28.1500378 104.570224,36.0443949 94.6735381,36.0443949 C84.7768517,36.0443949 76.7539509,28.1500378 76.7539509,18.4112724 C76.7539509,8.67250714 84.7768517,0.77815 94.6735381,0.77815 C104.570224,0.77815 112.593125,8.67250714 112.593125,18.4112724" id="Fill-23" fill="#44AD53"></path>
                        <path d="M189.346834,18.4112724 C189.346834,28.1500378 181.323933,36.0443949 171.427247,36.0443949 C161.530561,36.0443949 153.50766,28.1500378 153.50766,18.4112724 C153.50766,8.67250714 161.530561,0.77815 171.427247,0.77815 C181.323933,0.77815 189.346834,8.67250714 189.346834,18.4112724" id="Fill-25" fill="#FB8AB4"></path>
                        <path d="M266.100624,18.4112724 C266.100624,28.1500378 258.077723,36.0443949 248.181036,36.0443949 C238.28435,36.0443949 230.261449,28.1500378 230.261449,18.4112724 C230.261449,8.67250714 238.28435,0.77815 248.181036,0.77815 C258.077723,0.77815 266.100624,8.67250714 266.100624,18.4112724" id="Fill-27" fill="#44AD53"></path>
                        <path d="M77.4527874,61.3667163 C77.4527874,71.1054816 69.4298866,78.9998388 59.5332003,78.9998388 C49.6365139,78.9998388 41.6136131,71.1054816 41.6136131,61.3667163 C41.6136131,51.627951 49.6365139,43.7335939 59.5332003,43.7335939 C69.4298866,43.7335939 77.4527874,51.627951 77.4527874,61.3667163" id="Fill-29" fill="#F5DA5C"></path>
                        <path d="M154.206577,61.3667163 C154.206577,71.1054816 146.183676,78.9998388 136.28699,78.9998388 C126.390303,78.9998388 118.367403,71.1054816 118.367403,61.3667163 C118.367403,51.627951 126.390303,43.7335939 136.28699,43.7335939 C146.183676,43.7335939 154.206577,51.627951 154.206577,61.3667163" id="Fill-31" fill="#B7DEFC"></path>
                        <path d="M230.960366,61.3667163 C230.960366,71.1054816 222.937466,78.9998388 213.040779,78.9998388 C203.144093,78.9998388 195.121192,71.1054816 195.121192,61.3667163 C195.121192,51.627951 203.144093,43.7335939 213.040779,43.7335939 C222.937466,43.7335939 230.960366,51.627951 230.960366,61.3667163" id="Fill-33" fill="#F5DA5C"></path>
                    </g>
                </g>
            </g>
        </g>
    </g>
</svg>