<?xml version="1.0" encoding="UTF-8" standalone="no"?>
<svg xmlns="http://www.w3.org/2000/svg" height="28px" width="29px" version="1.1" xmlns:xlink="http://www.w3.org/1999/xlink" viewBox="0 0 29 28"><!-- Generator: Sketch 42 (36781) - http://www.bohemiancoding.com/sketch -->
 <title>Page 1</title>
 <desc>Created with Sketch.</desc>
 <defs>
  <polygon id="path-1" points="13.633 27.247 0 27.247 0 0 13.633 0 27.266 0 27.266 27.247"/>
 </defs>
 <g id="Symbols" fill-rule="evenodd" fill="none">
  <g id="1440-Footer" transform="translate(-1101 -193)">
   <g id="Group-19">
    <g transform="translate(1064.7 128)">
     <g id="Group-7" transform="translate(0 65)">
      <g id="Group-17" transform="translate(.030513)">
       <g id="Page-1" transform="translate(37.026)">
        <mask id="mask-2" fill="white">
         <use xlink:href="#path-1"/>
        </mask>
        <path id="Fill-1" fill="#fff" mask="url(#mask-2)" d="m19.188 11.126c0.008 0.109 0.008 0.218 0.008 0.327 0 3.323-2.53 7.149-7.154 7.149-1.426 0-2.7487-0.412-3.8625-1.128 0.2032 0.024 0.3974 0.032 0.6074 0.032 1.1758 0 2.2581-0.397 3.1221-1.074-1.106-0.023-2.0315-0.746-2.3512-1.742 0.1561 0.023 0.3115 0.039 0.4752 0.039 0.226 0 0.452-0.032 0.662-0.086-1.1522-0.234-2.0172-1.245-2.0172-2.466v-0.032c0.3347 0.187 0.7246 0.304 1.137 0.319-0.6776-0.451-1.1213-1.221-1.1213-2.092 0-0.4669 0.1247-0.8947 0.3429-1.268 1.2376 1.524 3.0976 2.52 5.1856 2.629-0.04-0.186-0.063-0.381-0.063-0.575 0-1.3851 1.121-2.5131 2.515-2.5131 0.724 0 1.378 0.3031 1.837 0.7936 0.568-0.109 1.114-0.3195 1.596-0.607-0.187 0.5831-0.584 1.0736-1.106 1.3845 0.507-0.054 0.997-0.194 1.448-0.3886-0.342 0.4976-0.77 0.9416-1.261 1.2986m-5.555-11.126c-7.5291 0-13.633 6.0993-13.633 13.624-0.00034083 7.524 6.1039 13.623 13.633 13.623 7.529 0 13.633-6.099 13.633-13.623 0-7.5247-6.104-13.624-13.633-13.624"/>
       </g>
      </g>
     </g>
    </g>
   </g>
  </g>
 </g>
</svg>
