<?xml version="1.0" encoding="UTF-8" standalone="no"?>
<svg xmlns="http://www.w3.org/2000/svg" height="28px" width="29px" version="1.1" xmlns:xlink="http://www.w3.org/1999/xlink" viewBox="0 0 29 28"><!-- Generator: Sketch 42 (36781) - http://www.bohemiancoding.com/sketch -->
 <title>Fill 1</title>
 <desc>Created with Sketch.</desc>
 <g id="Symbols" fill-rule="evenodd" fill="none">
  <g id="1440-Footer" fill="#fff" transform="translate(-1064 -193)">
   <g id="Group-19">
    <g transform="translate(1064.7 128)">
     <g id="Group-7" transform="translate(0 65)">
      <g id="Group-17" transform="translate(.030513)">
       <path id="Fill-1" d="m18.255 8.3867h-1.543c-1.209 0-1.435 0.5957-1.435 1.4539v1.9074h2.88l-0.384 2.989h-2.496v7.663h-3.007v-7.663h-2.5052v-2.989h2.5052v-2.2007c0-2.5543 1.523-3.9473 3.744-3.9473 1.061 0 1.975 0.0805 2.241 0.1211v2.6656zm-4.245-8.3867c-7.7379 0-14.01 6.2678-14.01 14 0 7.732 6.2721 14 14.01 14 7.737 0 14.009-6.268 14.009-14 0-7.7322-6.272-14-14.009-14z"/>
      </g>
     </g>
    </g>
   </g>
  </g>
 </g>
</svg>
