<?xml version="1.0" encoding="UTF-8" standalone="no"?>
<svg xmlns="http://www.w3.org/2000/svg" height="28px" width="29px" version="1.1" xmlns:xlink="http://www.w3.org/1999/xlink" viewBox="0 0 29 28"><!-- Generator: Sketch 42 (36781) - http://www.bohemiancoding.com/sketch -->
 <title>Group 16</title>
 <desc>Created with Sketch.</desc>
 <g id="Symbols" fill-rule="evenodd" fill="none">
  <g id="1440-Footer" transform="translate(-1138 -193)">
   <g id="Group-19">
    <g transform="translate(1064.7 128)">
     <g id="Group-7" transform="translate(0 65)">
      <g id="Group-17" transform="translate(.030513)">
       <g id="Group-16" transform="translate(74.051)">
        <path id="Fill-1" fill="#fff" d="m27.266 13.624c0 7.524-6.103 13.623-13.633 13.623-7.5294 0-13.633-6.099-13.633-13.623 0-7.5246 6.1036-13.624 13.633-13.624 7.53 0 13.633 6.0994 13.633 13.624"/>
        <path id="Fill-3" fill="#13344C" d="m10.771 12.909v1.716h2.841c-0.115 0.736-0.859 2.158-2.841 2.158-1.7095 0-3.1049-1.415-3.1049-3.159 0-1.745 1.3954-3.16 3.1049-3.16 0.973 0 1.624 0.414 1.996 0.771l1.36-1.3074c-0.873-0.8151-2.004-1.3087-3.356-1.3087-2.7688 0-5.0079 2.2371-5.0079 5.0051 0 2.767 2.2391 5.004 5.0079 5.004 2.89 0 4.808-2.03 4.808-4.89 0-0.329-0.035-0.579-0.079-0.829h-4.729z"/>
        <polyline id="Fill-7" points="21.503 12.909 20.072 12.909 20.072 11.479 18.641 11.479 18.641 12.909 17.21 12.909 17.21 14.338 18.641 14.338 18.641 15.769 20.072 15.769 20.072 14.338 21.503 14.338" fill="#13344C"/>
       </g>
      </g>
     </g>
    </g>
   </g>
  </g>
 </g>
</svg>
