<?xml version="1.0" encoding="UTF-8" standalone="no"?>
<svg xmlns="http://www.w3.org/2000/svg" height="28px" width="28px" version="1.1" xmlns:xlink="http://www.w3.org/1999/xlink" viewBox="0 0 28 28"><!-- Generator: Sketch 42 (36781) - http://www.bohemiancoding.com/sketch -->
 <title>Group 14</title>
 <desc>Created with Sketch.</desc>
 <defs>
  <polygon id="path-1" points="0.16076 27.567 27.747 27.567 27.747 0.00020675 0.16076 0.00020675"/>
  <polygon id="path-3" points="12.457 4.4458 12.457 0.00022815 0 0.00022815 0 4.4458 0 8.8914 12.457 8.8914"/>
 </defs>
 <g id="Symbols" fill-rule="evenodd" fill="none">
  <g id="1440-Footer" transform="translate(-1212 -193)">
   <g id="Group-19">
    <g transform="translate(1064.7 128)">
     <g id="Group-7" transform="translate(0 65)">
      <g id="Group-14" transform="translate(147.11)">
       <g id="Group-13-Copy">
        <mask id="mask-2" fill="white">
         <use xlink:href="#path-1"/>
        </mask>
        <path id="Fill-11" fill="#fff" mask="url(#mask-2)" d="m0.16076 13.784c0 7.612 6.1752 13.783 13.793 13.783 7.618 0 13.793-6.171 13.793-13.783 0-7.6129-6.175-13.784-13.793-13.784-7.618 0.00020675-13.793 6.1711-13.793 13.784z"/>
       </g>
       <g id="Page-1" transform="translate(7.2643 9.3333)">
        <mask id="mask-4" fill="white">
         <use xlink:href="#path-3"/>
        </mask>
        <path id="Fill-1" fill="#062942" mask="url(#mask-4)" d="m8.6891 4.0712l-3.5595-2.2234c-0.138-0.0902-0.3113-0.0902-0.4514-0.0135-0.1391 0.0757-0.2293 0.2282-0.2293 0.3889v4.4458c0 0.1597 0.0902 0.3132 0.2293 0.3889 0.0695 0.0342 0.1401 0.056 0.2159 0.056 0.083 0 0.167-0.0218 0.2355-0.0705l3.5595-2.2224c0.1329-0.0767 0.2086-0.2219 0.2086-0.3754 0-0.1525-0.0757-0.2987-0.2086-0.3744m3.5449 3.3901c-0.146 0.6803-0.688 1.1801-1.341 1.2569-1.5428 0.1732-3.1078 0.1732-4.6644 0.1732s-3.1216 0-4.6647-0.1732c-0.65275-0.0768-1.1955-0.5766-1.348-1.2569-0.2159-0.9655-0.2159-2.0222-0.2159-3.0157s0-2.0492 0.22312-3.0147c0.15151-0.68027 0.68803-1.1812 1.3408-1.2579 1.5431-0.17319 3.1081-0.17319 4.6647-0.17319 1.5566 0.00000333 3.1216 0.00000333 4.6644 0.17319 0.653 0.07674 1.195 0.57763 1.348 1.2579 0.216 0.9655 0.216 2.0212 0.216 3.0147s0 2.0502-0.223 3.0157"/>
       </g>
      </g>
     </g>
    </g>
   </g>
  </g>
 </g>
</svg>
