<?xml version="1.0" encoding="UTF-8" standalone="no"?>
<svg xmlns="http://www.w3.org/2000/svg" height="37px" width="123px" version="1.1" xmlns:xlink="http://www.w3.org/1999/xlink" viewBox="0 0 123 37"><!-- Generator: Sketch 42 (36781) - http://www.bohemiancoding.com/sketch -->
 <title>Group 18</title>
 <desc>Created with Sketch.</desc>
 <g id="Symbols" fill-rule="evenodd" fill="none">
  <g id="1440-Footer" transform="translate(-1064 -128)">
   <g id="Group-19">
    <g transform="translate(1064.7 128)">
     <g id="Group-18">
      <g id="Page-1">
       <g id="Group-29">
        <path id="Fill-3" fill="#231F20" d="m117.15 36.021h-112.64c-2.4823 0-4.5099-2.026-4.5099-4.503l-0.000009885-27.015c0-2.4769 2.0276-4.5031 4.5058-4.5031l112.64 0.000009947c2.48 0 4.51 2.0262 4.51 4.5027v27.015c0 2.477-2.03 4.503-4.51 4.503"/>
        <path id="Fill-5" fill="#8495A2" d="m117.15 0.000090053h-112.64c-2.4823 0-4.5099 2.0262-4.5099 4.5026l-0.000009885 27.016c0 2.476 2.0276 4.502 4.5058 4.502h112.64c2.48 0 4.51-2.026 4.51-4.502v-27.016c0-2.4767-2.03-4.5029-4.51-4.5029m0 0.72041c2.09 0 3.78 1.6966 3.78 3.7822v27.016c0 2.085-1.69 3.782-3.78 3.782h-112.64c-2.0912 0-3.789-1.697-3.789-3.782l0.00001-27.016c0-2.0859 1.6978-3.7825 3.7849-3.7825l112.64 0.00001"/>
        <path id="Fill-7" fill="#fff" d="m42.731 9.2243c0 0.7546-0.223 1.3557-0.671 1.8037-0.509 0.533-1.172 0.8-1.986 0.8-0.781 0-1.445-0.27-1.99-0.812-0.547-0.54-0.819-1.2109-0.819-2.0105 0-0.8006 0.272-1.4706 0.819-2.0118 0.545-0.5403 1.209-0.8114 1.99-0.8114 0.386 0 0.758 0.0757 1.109 0.2269 0.353 0.1513 0.635 0.3522 0.846 0.6034l-0.475 0.4755c-0.358-0.4269-0.851-0.6412-1.48-0.6412-0.57 0-1.062 0.1999-1.477 0.5998-0.416 0.4007-0.623 0.9194-0.623 1.5588 0 0.6384 0.207 1.1585 0.623 1.5575 0.415 0.401 0.907 0.6 1.477 0.6 0.604 0 1.106-0.201 1.51-0.603 0.262-0.262 0.412-0.6261 0.453-1.0944h-1.963v-0.6492h2.62c0.025 0.1413 0.037 0.2773 0.037 0.4079"/>
        <path id="Stroke-9" stroke="#fff" stroke-width=".2" d="m42.731 9.2243c0 0.7546-0.223 1.3557-0.671 1.8037-0.509 0.533-1.172 0.8-1.986 0.8-0.781 0-1.445-0.27-1.99-0.812-0.547-0.54-0.819-1.2109-0.819-2.0105 0-0.8006 0.272-1.4706 0.819-2.0118 0.545-0.5403 1.209-0.8114 1.99-0.8114 0.386 0 0.758 0.0757 1.109 0.2269 0.353 0.1513 0.635 0.3522 0.846 0.6034l-0.475 0.4755c-0.358-0.4269-0.851-0.6412-1.48-0.6412-0.57 0-1.062 0.1999-1.477 0.5998-0.416 0.4007-0.623 0.9194-0.623 1.5588 0 0.6384 0.207 1.1585 0.623 1.5575 0.415 0.401 0.907 0.6 1.477 0.6 0.604 0 1.106-0.201 1.51-0.603 0.262-0.262 0.412-0.6261 0.453-1.0944h-1.963v-0.6492h2.62c0.025 0.1413 0.037 0.2773 0.037 0.4079z"/>
        <polygon id="Fill-11" points="46.885 6.9677 44.423 6.9677 44.423 8.6805 46.644 8.6805 46.644 9.3298 44.423 9.3298 44.423 11.043 46.885 11.043 46.885 11.707 43.728 11.707 43.728 6.304 46.885 6.304" fill="#fff"/>
        <polygon id="Stroke-13" stroke="#fff" stroke-width=".2" points="46.885 6.9677 44.423 6.9677 44.423 8.6805 46.644 8.6805 46.644 9.3298 44.423 9.3298 44.423 11.043 46.885 11.043 46.885 11.707 43.728 11.707 43.728 6.304 46.885 6.304"/>
        <polygon id="Fill-15" points="49.815 11.707 49.12 11.707 49.12 6.9674 47.61 6.9674 47.61 6.3037 51.325 6.3037 51.325 6.9674 49.815 6.9674" fill="#fff"/>
        <polygon id="Stroke-17" stroke="#fff" stroke-width=".2" points="49.815 11.707 49.12 11.707 49.12 6.9674 47.61 6.9674 47.61 6.3037 51.325 6.3037 51.325 6.9674 49.815 6.9674"/>
        <polygon id="Fill-19" points="54.013 11.707 54.708 11.707 54.708 6.3037 54.013 6.3037" fill="#fff"/>
        <polygon id="Stroke-21" stroke="#fff" stroke-width=".2" points="54.013 11.707 54.708 11.707 54.708 6.3037 54.013 6.3037"/>
        <polygon id="Fill-22" points="57.79 11.707 57.095 11.707 57.095 6.9674 55.584 6.9674 55.584 6.3037 59.3 6.3037 59.3 6.9674 57.79 6.9674" fill="#fff"/>
        <polygon id="Stroke-23" stroke="#fff" stroke-width=".2" points="57.79 11.707 57.095 11.707 57.095 6.9674 55.584 6.9674 55.584 6.3037 59.3 6.3037 59.3 6.9674 57.79 6.9674"/>
        <path id="Fill-24" fill="#fff" d="m62.882 10.556c0.4 0.405 0.889 0.607 1.469 0.607 0.579 0 1.069-0.202 1.469-0.607s0.601-0.922 0.601-1.5505c0-0.6286-0.201-1.1464-0.601-1.5507-0.4-0.4053-0.89-0.6079-1.469-0.6079-0.58 0-1.069 0.2026-1.469 0.6079-0.399 0.4043-0.6 0.9221-0.6 1.5507 0 0.6285 0.201 1.1455 0.6 1.5505m3.451 0.452c-0.531 0.547-1.192 0.82-1.982 0.82-0.791 0-1.451-0.273-1.982-0.82-0.532-0.545-0.797-1.2128-0.797-2.0025 0-0.7898 0.265-1.458 0.797-2.0037 0.531-0.5457 1.191-0.8195 1.982-0.8195 0.786 0 1.444 0.2747 1.979 0.8231 0.533 0.5484 0.8 1.2148 0.8 2.0001 0 0.7897-0.266 1.4575-0.797 2.0025"/>
        <path id="Stroke-25" stroke="#fff" stroke-width=".2" d="m62.882 10.556c0.4 0.405 0.889 0.607 1.469 0.607 0.579 0 1.069-0.202 1.469-0.607s0.601-0.922 0.601-1.5505c0-0.6286-0.201-1.1464-0.601-1.5507-0.4-0.4053-0.89-0.6079-1.469-0.6079-0.58 0-1.069 0.2026-1.469 0.6079-0.399 0.4043-0.6 0.9221-0.6 1.5507 0 0.6285 0.201 1.1455 0.6 1.5505zm3.451 0.452c-0.531 0.547-1.192 0.82-1.982 0.82-0.791 0-1.451-0.273-1.982-0.82-0.532-0.545-0.797-1.2128-0.797-2.0025 0-0.7898 0.265-1.458 0.797-2.0037 0.531-0.5457 1.191-0.8195 1.982-0.8195 0.786 0 1.444 0.2747 1.979 0.8231 0.533 0.5484 0.8 1.2148 0.8 2.0001 0 0.7897-0.266 1.4575-0.797 2.0025z"/>
        <polygon id="Fill-26" points="68.105 11.707 68.105 6.3037 68.95 6.3037 71.578 10.506 71.609 10.506 71.578 9.4655 71.578 6.3037 72.274 6.3037 72.274 11.707 71.548 11.707 68.799 7.2997 68.769 7.2997 68.799 8.3416 68.799 11.707" fill="#fff"/>
        <polygon id="Stroke-27" stroke="#fff" stroke-width=".2" points="68.105 11.707 68.105 6.3037 68.95 6.3037 71.578 10.506 71.609 10.506 71.578 9.4655 71.578 6.3037 72.274 6.3037 72.274 11.707 71.548 11.707 68.799 7.2997 68.769 7.2997 68.799 8.3416 68.799 11.707"/>
        <path id="Fill-28" fill="#fff" d="m96.366 27.016h1.681v-11.258h-1.681v11.258zm15.144-7.203l-1.93 4.881h-0.05l-2-4.881h-1.82l3 6.822-1.71 3.795h1.76l4.62-10.617h-1.87zm-9.53 5.924c-0.56 0-1.32-0.275-1.32-0.956 0-0.868 0.95-1.202 1.78-1.202 0.74 0 1.09 0.16 1.54 0.377-0.14 1.043-1.03 1.781-2 1.781zm0.2-6.169c-1.22 0-2.481 0.535-3.002 1.723l1.492 0.622c0.32-0.622 0.91-0.825 1.54-0.825 0.87 0 1.75 0.521 1.77 1.449v0.115c-0.31-0.174-0.96-0.434-1.76-0.434-1.61 0-3.245 0.883-3.245 2.534 0 1.507 1.315 2.477 2.795 2.477 1.13 0 1.76-0.507 2.15-1.101h0.06v0.869h1.62v-4.316c0-1.999-1.49-3.113-3.42-3.113zm-10.394 1.616h-2.392v-3.859h2.392c1.257 0 1.971 1.04 1.971 1.929 0 0.873-0.714 1.93-1.971 1.93zm-0.043-5.426h-4.029v11.258h1.68v-4.265h2.349c1.863 0 3.695-1.349 3.695-3.497s-1.832-3.496-3.695-3.496zm-21.971 9.981c-1.162 0-2.134-0.972-2.134-2.306 0-1.349 0.972-2.336 2.134-2.336 1.147 0 2.046 0.987 2.046 2.336 0 1.334-0.899 2.306-2.046 2.306zm1.931-5.295h-0.059c-0.377-0.45-1.103-0.856-2.017-0.856-1.917 0-3.673 1.682-3.673 3.845 0 2.147 1.756 3.815 3.673 3.815 0.914 0 1.64-0.406 2.017-0.871h0.059v0.552c0 1.466-0.784 2.249-2.047 2.249-1.031 0-1.67-0.74-1.932-1.364l-1.466 0.609c0.421 1.016 1.539 2.263 3.398 2.263 1.974 0 3.644-1.16 3.644-3.989v-6.877h-1.597v0.624zm2.758 6.572h1.685v-11.259h-1.685v11.259zm4.166-3.714c-0.043-1.479 1.148-2.234 2.004-2.234 0.668 0 1.234 0.333 1.423 0.812l-3.427 1.422zm5.227-1.277c-0.319-0.855-1.292-2.437-3.281-2.437-1.974 0-3.614 1.552-3.614 3.83 0 2.147 1.625 3.83 3.802 3.83 1.758 0 2.774-1.073 3.195-1.697l-1.307-0.871c-0.435 0.638-1.031 1.059-1.888 1.059-0.856 0-1.466-0.392-1.858-1.16l5.125-2.119-0.174-0.435zm-40.829-1.262v1.625h3.89c-0.116 0.914-0.421 1.581-0.885 2.045-0.567 0.567-1.453 1.191-3.005 1.191-2.396 0-4.269-1.93-4.269-4.324s1.873-4.323 4.269-4.323c1.292 0 2.235 0.508 2.932 1.161l1.147-1.147c-0.973-0.928-2.264-1.64-4.079-1.64-3.281 0-6.04 2.67-6.04 5.949s2.759 5.948 6.04 5.948c1.77 0 3.106-0.581 4.151-1.668 1.075-1.074 1.409-2.582 1.409-3.802 0-0.377-0.029-0.725-0.088-1.015h-5.472zm9.984 4.976c-1.162 0-2.164-0.957-2.164-2.321 0-1.378 1.002-2.321 2.164-2.321 1.16 0 2.162 0.943 2.162 2.321 0 1.364-1.002 2.321-2.162 2.321zm0-6.151c-2.121 0-3.848 1.61-3.848 3.83 0 2.206 1.727 3.83 3.848 3.83 2.119 0 3.847-1.624 3.847-3.83 0-2.22-1.728-3.83-3.847-3.83zm8.392 6.151c-1.162 0-2.164-0.957-2.164-2.321 0-1.378 1.002-2.321 2.164-2.321s2.163 0.943 2.163 2.321c0 1.364-1.001 2.321-2.163 2.321zm0-6.151c-2.12 0-3.847 1.61-3.847 3.83 0 2.206 1.727 3.83 3.847 3.83s3.847-1.624 3.847-3.83c0-2.22-1.727-3.83-3.847-3.83z"/>
       </g>
       <path id="Fill-30" fill="#9BA9B3" d="m9.4035 6.7882c-0.2613 0.2774-0.4163 0.7078-0.4163 1.2652v19.917c0 0.558 0.155 0.987 0.4163 1.265l0.0667 0.065 11.166-11.157v-0.132-0.132l-11.166-11.157-0.0665 0.0662z"/>
       <path id="Fill-32" fill="#D18306" d="m20.636 17.879v0.132 0.132l3.72 3.721 0.085-0.048 4.409-2.503c1.259-0.716 1.259-1.887 0-2.601l-4.409-2.504-0.084-0.048-3.721 3.719z"/>
       <path id="Fill-34" fill="#9BA9B3" d="m9.4035 29.235c0.4155 0.438 1.1015 0.493 1.8735 0.056l13.164-7.476-3.805-3.804-11.232 11.224z"/>
       <path id="Fill-36" fill="#0B9450" d="m9.4035 6.7882l11.232 11.223 3.805-3.803-13.164-7.4747c-0.362-0.2063-0.706-0.3035-1.01-0.3035-0.3462 0-0.6427 0.1252-0.8635 0.3584"/>
       <g id="Group-46" fill="#231F20" transform="translate(8.1104 6.3037)">
        <path id="Fill-38" d="m16.247 15.428l-13.08 7.426c-0.7323 0.416-1.3865 0.389-1.8064 0.01l-0.0667 0.068 0.0667 0.065v-0.001c0.4199 0.378 1.0741 0.406 1.8059-0.01l13.164-7.474-0.083-0.084z"/>
        <path id="Fill-40" d="m1.2935 22.8c-0.2622-0.277-0.41722-0.708-0.41722-1.265v0.131c0 0.558 0.15502 0.988 0.41722 1.265l0.0676-0.066-0.0676-0.065z"/>
        <path id="Fill-42" d="m20.74 12.876l-4.493 2.552 0.083 0.083 4.41-2.503c0.63-0.358 0.944-0.829 0.944-1.3-0.053 0.426-0.373 0.844-0.944 1.168"/>
       </g>
      </g>
     </g>
    </g>
   </g>
  </g>
 </g>
</svg>
