<?xml version="1.0" encoding="UTF-8" standalone="no"?>
<svg xmlns="http://www.w3.org/2000/svg" height="36px" width="122px" version="1.1" xmlns:xlink="http://www.w3.org/1999/xlink" viewBox="0 0 122 36"><!-- Generator: Sketch 42 (36781) - http://www.bohemiancoding.com/sketch -->
 <title>Download_on_the_App_Store_Badge_US-UK_135x40</title>
 <desc>Created with Sketch.</desc>
 <g id="Symbols" fill-rule="evenodd" fill="none">
  <g id="1440-Footer" transform="translate(-1199 -128)">
   <g id="Group-19">
    <g transform="translate(1064.7 128)">
     <g id="Download_on_the_App_Store_Badge_US-UK_135x40" transform="translate(135.09)">
      <g id="Group">
       <path id="Shape" fill="#8495A2" d="m116.78 35.852h-112.54c-2.3367 0-4.24-1.907-4.24-4.242v-27.374c0-2.3359 1.9033-4.236 4.2415-4.236h112.54c2.33 0 4.3 1.9001 4.3 4.2359v27.374c0 2.335-1.97 4.242-4.3 4.242z"/>
       <path id="Shape" fill="#231F20" d="m120.22 31.611c0 1.896-1.54 3.432-3.44 3.432h-112.54c-1.899 0-3.4417-1.536-3.4417-3.432l-0.00004-27.376c0-1.8957 1.5427-3.4373 3.4432-3.4373h112.54c1.9 0 3.43 1.5416 3.43 3.4373l0.01 27.376z"/>
       <g id="Shape" fill="#fff" transform="translate(10.763 5.3778)">
        <path d="m16.259 12.355c-0.026-2.8892 2.367-4.2946 2.477-4.36-1.356-1.9746-3.456-2.2444-4.194-2.2659-1.765-0.1855-3.476 1.055-4.375 1.055-0.9162 0-2.3001-1.037-3.7917-1.0066-1.9194 0.0296-3.715 1.1401-4.6999 2.8646-2.0324 3.5159-0.5166 8.6829 1.4306 11.526 0.9741 1.392 2.1123 2.946 3.602 2.891 1.4575-0.06 2.002-0.929 3.761-0.929 1.743 0 2.254 0.929 3.773 0.894 1.564-0.025 2.549-1.398 3.489-2.803 1.126-1.595 1.578-3.166 1.596-3.247-0.037-0.012-3.038-1.157-3.068-4.619z"/>
        <path d="m13.389 3.8595c0.784-0.9797 1.32-2.3125 1.172-3.665-1.135 0.05019-2.554 0.78426-3.371 1.7424-0.723 0.8443-1.3687 2.2282-1.2019 3.5296 1.2749 0.095 2.5829-0.6426 3.4009-1.607z"/>
       </g>
       <g id="Shape" fill="#fff" transform="translate(37.671 16.133)">
        <path d="m10.445 12.104h-2.0373l-1.1158-3.504h-3.8782l-1.0629 3.504h-1.9831l3.8424-11.928 2.3733-0.00033 3.8616 11.928zm-3.4894-4.974l-1.009-3.1146c-0.1068-0.3182-0.3068-1.0675-0.6019-2.247h-0.0358c-0.1175 0.5073-0.3068 1.2566-0.5669 2.247l-0.9911 3.1146h3.2047z"/>
        <path d="m20.326 7.6974c0 1.4627-0.396 2.6186-1.187 3.4676-0.708 0.756-1.588 1.133-2.638 1.133-1.134 0-1.949-0.407-2.445-1.221h-0.035v4.531h-1.913v-9.2739c0-0.9196-0.024-1.8634-0.07-2.8314h1.681l0.107 1.3633h0.036c0.638-1.0272 1.605-1.5398 2.904-1.5398 1.015 0 1.863 0.4006 2.541 1.2028 0.68 0.8031 1.019 1.8589 1.019 3.1684zm-1.948 0.0699c0-0.8371-0.189-1.5273-0.567-2.0704-0.413-0.5665-0.969-0.8497-1.665-0.8497-0.471 0-0.9 0.1577-1.283 0.4687-0.384 0.3137-0.635 0.7233-0.753 1.2306-0.059 0.2367-0.088 0.4303-0.088 0.5826v1.4341c0 0.6256 0.191 1.1535 0.575 1.5848 0.384 0.431 0.883 0.646 1.496 0.646 0.721 0 1.281-0.278 1.682-0.8317 0.402-0.5548 0.603-1.2862 0.603-2.195z"/>
        <path d="m30.225 7.6974c0 1.4627-0.395 2.6186-1.187 3.4676-0.708 0.756-1.588 1.133-2.638 1.133-1.134 0-1.948-0.407-2.443-1.221h-0.036v4.531h-1.912v-9.2739c0-0.9196-0.025-1.8634-0.071-2.8314h1.681l0.107 1.3633h0.036c0.637-1.0272 1.605-1.5398 2.904-1.5398 1.015 0 1.862 0.4006 2.542 1.2028 0.677 0.8031 1.017 1.8589 1.017 3.1684zm-1.948 0.0699c0-0.8371-0.189-1.5273-0.568-2.0704-0.413-0.5665-0.966-0.8497-1.663-0.8497-0.473 0-0.901 0.1577-1.285 0.4687-0.384 0.3137-0.634 0.7233-0.751 1.2306-0.059 0.2367-0.089 0.4303-0.089 0.5826v1.4341c0 0.6256 0.192 1.1535 0.574 1.5848 0.384 0.43 0.882 0.646 1.498 0.646 0.72 0 1.28-0.278 1.681-0.8317 0.402-0.5548 0.603-1.2862 0.603-2.195z"/>
        <path d="m41.293 8.7586c0 1.0146-0.352 1.8404-1.06 2.4774-0.778 0.696-1.86 1.044-3.251 1.044-1.285 0-2.314-0.247-3.094-0.743l0.443-1.5926c0.84 0.5076 1.761 0.7616 2.765 0.7616 0.72 0 1.28-0.163 1.683-0.487 0.401-0.3248 0.601-0.7604 0.601-1.3035 0-0.484-0.165-0.8919-0.496-1.2226-0.329-0.3307-0.879-0.6382-1.647-0.9223-2.089-0.7789-3.133-1.9198-3.133-3.4202 0-0.9806 0.365-1.7846 1.098-2.4102 0.73-0.6265 1.704-0.9393 2.922-0.9393 1.087-0.0000037 1.989 0.18911 2.709 0.56646l-0.478 1.5577c-0.673-0.3657-1.433-0.5485-2.284-0.5485-0.673 0-1.199 0.1658-1.575 0.4956-0.319 0.2949-0.478 0.6543-0.478 1.0801 0 0.4714 0.182 0.8613 0.548 1.1678 0.318 0.2833 0.896 0.5898 1.736 0.9205 1.027 0.4132 1.781 0.8963 2.266 1.4503 0.484 0.5521 0.725 1.2431 0.725 2.0677z"/>
        <path d="m47.616 4.9368h-2.108v4.1758c0 1.0624 0.371 1.5924 1.116 1.5924 0.341 0 0.625-0.029 0.849-0.088l0.053 1.451c-0.377 0.14-0.873 0.211-1.487 0.211-0.755 0-1.346-0.23-1.772-0.69-0.424-0.461-0.637-1.233-0.637-2.3186v-4.3354h-1.256v-1.4341h1.256v-1.5748l1.878-0.5664v2.1412h2.108v1.4359z"/>
        <path d="m57.126 7.7323c0 1.3221-0.379 2.4077-1.134 3.2567-0.792 0.873-1.843 1.309-3.154 1.309-1.263 0-2.268-0.418-3.018-1.256-0.75-0.837-1.125-1.8935-1.125-3.1671 0-1.3328 0.386-2.4245 1.16-3.2733 0.772-0.8497 1.815-1.2745 3.125-1.2745 1.263 0 2.279 0.4185 3.046 1.2566 0.734 0.8129 1.1 1.8625 1.1 3.1486zm-1.984 0.0619c0-0.7932-0.17-1.4735-0.513-2.0409-0.401-0.6865-0.974-1.0289-1.717-1.0289-0.769 0-1.353 0.3433-1.754 1.0289-0.343 0.5683-0.513 1.2593-0.513 2.0767 0 0.7933 0.17 1.4736 0.513 2.04 0.414 0.687 0.991 1.029 1.737 1.029 0.73 0 1.303-0.35 1.717-1.0469 0.352-0.5781 0.53-1.2656 0.53-2.0579z"/>
        <path d="m63.341 5.1833c-0.189-0.035-0.391-0.0529-0.602-0.0529-0.673 0-1.193 0.2537-1.559 0.7619-0.319 0.4481-0.478 1.0146-0.478 1.6984v4.5133h-1.912l0.018-5.8927c0-0.9913-0.024-1.8938-0.072-2.7077h1.666l0.07 1.6456h0.053c0.202-0.5655 0.52-1.0209 0.956-1.3623 0.426-0.3075 0.886-0.4607 1.382-0.4607 0.177 0 0.337 0.0125 0.478 0.0349v1.8222z"/>
        <path d="m71.893 7.3962c0 0.3424-0.022 0.631-0.07 0.8668h-5.736c0.022 0.8496 0.299 1.4995 0.832 1.948 0.483 0.4 1.109 0.601 1.876 0.601 0.85 0 1.625-0.135 2.322-0.407l0.299 1.327c-0.814 0.355-1.776 0.531-2.885 0.531-1.335 0-2.382-0.392-3.145-1.177-0.76-0.784-1.142-1.8371-1.142-3.1583 0-1.2969 0.355-2.3769 1.064-3.2383 0.743-0.9196 1.746-1.3794 3.009-1.3794 1.241 0 2.18 0.4598 2.818 1.3794 0.505 0.7305 0.758 1.634 0.758 2.7068zm-1.823-0.4956c0.012-0.5665-0.112-1.0559-0.371-1.469-0.331-0.5315-0.84-0.7969-1.524-0.7969-0.625 0-1.134 0.2591-1.522 0.7789-0.319 0.4132-0.508 0.9089-0.566 1.4861h3.983v0.0009z"/>
       </g>
       <g id="Shape" fill="#fff" transform="translate(38.567 5.3778)">
        <path d="m5.4264 3.5933c0 1.0549-0.3167 1.849-0.949 2.3823-0.5857 0.4921-1.418 0.7386-2.4961 0.7386-0.5346 0-0.992-0.0233-1.375-0.07l0.00002-5.764c0.49958-0.0807 1.0378-0.12193 1.619-0.12193 1.0269 0 1.801 0.22317 2.323 0.66953 0.5848 0.5046 0.8781 1.2261 0.8781 2.1655zm-0.9911 0.0259c0-0.6838-0.1812-1.2082-0.5436-1.5739-0.3623-0.3647-0.8915-0.5476-1.5884-0.5476-0.296 0-0.548 0.0197-0.757 0.061v4.382c0.1157 0.0179 0.3274 0.0259 0.635 0.0259 0.7193 0 1.2745-0.1998 1.6656-0.5996 0.391-0.3997 0.5884-0.9823 0.5884-1.7478z"/>
        <path d="m10.681 4.5146c0 0.6499-0.185 1.1823-0.557 1.5999-0.3889 0.4294-0.9046 0.6436-1.5486 0.6436-0.6206 0-1.1148-0.2053-1.4835-0.6176-0.3677-0.4114-0.5516-0.9303-0.5516-1.5559 0-0.6543 0.1893-1.1912 0.5696-1.608s0.8915-0.6256 1.5355-0.6256c0.6207 0 1.1193 0.2052 1.4966 0.6166 0.359 0.3998 0.539 0.9161 0.539 1.547zm-0.9746 0.0305c0-0.3899-0.0843-0.7242-0.252-1.0029-0.1973-0.337-0.478-0.5055-0.8431-0.5055-0.3776 0-0.6646 0.1685-0.8619 0.5055-0.1687 0.2787-0.2521 0.6184-0.2521 1.0199 0 0.3899 0.0843 0.7243 0.2521 1.003 0.2036 0.337 0.487 0.5055 0.8529 0.5055 0.3588 0 0.6404-0.1712 0.8431-0.5145 0.174-0.2841 0.261-0.6211 0.261-1.011z"/>
        <path d="m17.728 2.437l-1.323 4.2252h-0.861l-0.548-1.8347c-0.139-0.4581-0.252-0.9134-0.34-1.3651h-0.017c-0.082 0.4643-0.195 0.9187-0.34 1.3651l-0.582 1.8347h-0.871l-1.244-4.2252h0.966l0.478 2.0086c0.115 0.4751 0.21 0.9277 0.287 1.3561h0.017c0.07-0.3531 0.185-0.8031 0.349-1.3471l0.6-2.0167h0.766l0.575 1.9737c0.139 0.4813 0.252 0.9447 0.339 1.391h0.026c0.063-0.4347 0.159-0.8981 0.287-1.391l0.513-1.9737h0.923v-0.0009z"/>
        <path d="m22.601 6.6622h-0.94v-2.42c0-0.7457-0.284-1.1186-0.853-1.1186-0.278 0-0.504 0.1022-0.678 0.3074-0.174 0.2053-0.261 0.4473-0.261 0.7242v2.5061h-0.94v-3.017c0-0.371-0.012-0.7735-0.035-1.2091h0.827l0.043 0.6606h0.026c0.11-0.2052 0.273-0.3746 0.488-0.51 0.254-0.1577 0.539-0.2375 0.852-0.2375 0.394 0 0.723 0.1273 0.984 0.3827 0.324 0.3128 0.487 0.7798 0.487 1.4v2.5312z"/>
        <polygon points="25.193 6.6622 24.254 6.6622 24.254 0.49834 25.193 0.49834"/>
        <path d="m30.727 4.5146c0 0.6499-0.186 1.1823-0.557 1.5999-0.39 0.4294-0.906 0.6436-1.549 0.6436-0.622 0-1.116-0.2053-1.484-0.6176-0.368-0.4114-0.551-0.9303-0.551-1.5559 0-0.6543 0.189-1.1912 0.569-1.608s0.892-0.6256 1.535-0.6256c0.621 0 1.119 0.2052 1.498 0.6166 0.358 0.3998 0.539 0.9161 0.539 1.547zm-0.976 0.0305c0-0.3899-0.085-0.7242-0.252-1.0029-0.197-0.337-0.478-0.5055-0.842-0.5055-0.379 0-0.666 0.1685-0.862 0.5055-0.169 0.2787-0.252 0.6184-0.252 1.0199 0 0.3899 0.084 0.7243 0.252 1.003 0.203 0.337 0.487 0.5055 0.853 0.5055 0.358 0 0.639-0.1712 0.842-0.5145 0.175-0.2841 0.261-0.6211 0.261-1.011z"/>
        <path d="m35.276 6.6622h-0.844l-0.07-0.4867h-0.026c-0.289 0.3881-0.701 0.5826-1.235 0.5826-0.399 0-0.722-0.1282-0.965-0.3827-0.221-0.2313-0.331-0.519-0.331-0.8605 0-0.5163 0.215-0.9097 0.648-1.1822 0.432-0.2725 1.041-0.406 1.824-0.3998v-0.0788c0-0.5566-0.293-0.8345-0.878-0.8345-0.418 0-0.785 0.1049-1.103 0.3128l-0.191-0.6166c0.393-0.2429 0.878-0.3648 1.45-0.3648 1.105 0 1.66 0.5826 1.66 1.7478v1.5559c0 0.4222 0.02 0.7583 0.061 1.0075zm-0.976-1.452v-0.6516c-1.037-0.018-1.555 0.2662-1.555 0.8514 0 0.2205 0.059 0.3855 0.18 0.4957s0.275 0.1649 0.459 0.1649c0.206 0 0.399-0.0654 0.575-0.1954 0.177-0.1308 0.285-0.2967 0.326-0.5001 0.01-0.0457 0.015-0.1013 0.015-0.1649z"/>
        <path d="m40.617 6.6622h-0.834l-0.044-0.6785h-0.026c-0.267 0.5162-0.72 0.7744-1.358 0.7744-0.51 0-0.934-0.1999-1.27-0.5996-0.336-0.3998-0.504-0.9188-0.504-1.556 0-0.6839 0.182-1.2378 0.548-1.6609 0.354-0.3943 0.788-0.5915 1.305-0.5915 0.568 0 0.965 0.1909 1.191 0.5736h0.018v-2.4254l0.941 0.00004v5.0256c0 0.4114 0.011 0.7905 0.033 1.1383zm-0.974-1.7819v-0.7045c0-0.1219-0.009-0.2204-0.026-0.2957-0.053-0.2259-0.167-0.4159-0.34-0.5692-0.175-0.1532-0.386-0.2303-0.629-0.2303-0.351 0-0.625 0.1389-0.827 0.4176-0.2 0.2788-0.301 0.6346-0.301 1.0693 0 0.4177 0.096 0.7565 0.289 1.0173 0.203 0.2779 0.478 0.4168 0.821 0.4168 0.309 0 0.555-0.1156 0.743-0.3478 0.181-0.2142 0.27-0.4723 0.27-0.7735z"/>
        <path d="m48.656 4.5146c0 0.6499-0.186 1.1823-0.557 1.5999-0.389 0.4294-0.904 0.6436-1.549 0.6436-0.62 0-1.114-0.2053-1.483-0.6176-0.368-0.4114-0.552-0.9303-0.552-1.5559 0-0.6543 0.189-1.1912 0.569-1.608 0.381-0.4168 0.892-0.6256 1.537-0.6256 0.62 0 1.119 0.2052 1.496 0.6166 0.359 0.3998 0.539 0.9161 0.539 1.547zm-0.974 0.0305c0-0.3899-0.084-0.7242-0.252-1.0029-0.198-0.337-0.478-0.5055-0.844-0.5055-0.377 0-0.664 0.1685-0.862 0.5055-0.169 0.2787-0.252 0.6184-0.252 1.0199 0 0.3899 0.084 0.7243 0.252 1.003 0.204 0.337 0.487 0.5055 0.853 0.5055 0.359 0 0.641-0.1712 0.844-0.5145 0.173-0.2841 0.261-0.6211 0.261-1.011z"/>
        <path d="m53.71 6.6622h-0.939v-2.42c0-0.7457-0.283-1.1186-0.853-1.1186-0.279 0-0.504 0.1022-0.678 0.3074-0.174 0.2053-0.261 0.4473-0.261 0.7242v2.5061h-0.941v-3.017c0-0.371-0.011-0.7735-0.033-1.2091h0.825l0.044 0.6606h0.026c0.11-0.2052 0.274-0.3746 0.487-0.51 0.256-0.1577 0.54-0.2375 0.853-0.2375 0.394 0 0.722 0.1273 0.983 0.3827 0.326 0.3128 0.487 0.7798 0.487 1.4v2.5312z"/>
        <path d="m60.036 3.1406h-1.035v2.0525c0 0.5217 0.184 0.7825 0.548 0.7825 0.169 0 0.309-0.0143 0.419-0.0439l0.024 0.7125c-0.186 0.07-0.429 0.1049-0.73 0.1049-0.371 0-0.66-0.1129-0.869-0.3388-0.21-0.2259-0.314-0.6059-0.314-1.1392v-2.1305h-0.618v-0.7036h0.618v-0.7744l0.921-0.2778v1.0513h1.035v0.7045h0.001z"/>
        <path d="m65.012 6.6622h-0.941v-2.4021c0-0.7574-0.283-1.1365-0.851-1.1365-0.436 0-0.734 0.2196-0.897 0.6588-0.028 0.0923-0.044 0.2052-0.044 0.3379v2.541h-0.939v-6.163l0.939 0.00004v2.5464h0.018c0.296-0.4634 0.72-0.6946 1.27-0.6946 0.39 0 0.712 0.1273 0.967 0.3827 0.319 0.3182 0.478 0.7914 0.478 1.4171v2.5123z"/>
        <path d="m70.145 4.3497c0 0.1685-0.012 0.3101-0.035 0.4258h-2.819c0.013 0.4176 0.147 0.7358 0.408 0.9563 0.239 0.1972 0.547 0.2958 0.923 0.2958 0.417 0 0.798-0.0663 1.14-0.1999l0.147 0.6525c-0.401 0.1739-0.872 0.2608-1.419 0.2608-0.654 0-1.17-0.1927-1.543-0.5781-0.375-0.3854-0.561-0.9025-0.561-1.5515 0-0.6372 0.173-1.1678 0.522-1.5909 0.364-0.4517 0.857-0.6776 1.478-0.6776 0.609 0 1.07 0.2259 1.383 0.6776 0.252 0.3585 0.376 0.8022 0.376 1.3292zm-0.897-0.2429c0.008-0.2787-0.054-0.5189-0.182-0.7215-0.163-0.2608-0.411-0.3917-0.748-0.3917-0.307 0-0.557 0.1273-0.748 0.3827-0.156 0.2035-0.248 0.4464-0.279 0.7305h1.957z"/>
       </g>
      </g>
     </g>
    </g>
   </g>
  </g>
 </g>
</svg>
