<?xml version="1.0" encoding="UTF-8"?>
<svg width="409px" height="196px" viewBox="0 0 409 196" version="1.1" xmlns="http://www.w3.org/2000/svg" xmlns:xlink="http://www.w3.org/1999/xlink">
    <!-- Generator: Sketch 52.2 (67145) - http://www.bohemiancoding.com/sketch -->
    <title>Group 108</title>
    <desc>Created with Sketch.</desc>
    <defs>
        <polygon id="path-1" points="0.00744990893 0.299782389 220.203663 0.299782389 220.203663 91.8615692 0.00744990893 91.8615692"></polygon>
        <path d="M9.67743169,1.53027931 C9.78843534,1.68786298 9.90316393,1.84021875 10.0178925,1.98435926 C10.8284426,2.99931758 11.700827,3.61770277 11.782031,3.67222224 L11.7872459,3.67595645 C12.5478816,4.18082166 12.758714,5.20772945 12.2565902,5.97249568 C11.939224,6.457943 11.4102805,6.72083139 10.8709071,6.72083139 C10.5587559,6.72083139 10.2428798,6.63270403 9.96276321,6.44748721 C9.89645902,6.40342353 9.23714208,5.96502726 8.41020219,5.14798209 C7.70767577,4.44968479 6.87626594,3.47281542 6.21620401,2.20617135 C2.63354281,3.06877389 0.447739526,4.21667008 0.447739526,5.47659258 C0.447739526,8.15775545 10.3427086,10.3310657 22.5493843,10.3310657 C34.7560601,10.3310657 44.6510291,8.15775545 44.6510291,5.47659258 C44.6510291,2.7954297 34.7560601,0.622119408 22.5493843,0.622119408 C17.747173,0.622119408 13.3025574,0.95819832 9.67743169,1.53027931 Z" id="path-3"></path>
    </defs>
    <g id="Page-1" stroke="none" stroke-width="1" fill="none" fill-rule="evenodd">
        <g id="V1-LP" transform="translate(-843.000000, -1045.000000)">
            <g id="Group-18" transform="translate(300.000000, 1002.000000)">
                <g id="Group-108" transform="translate(543.000000, 43.000000)">
                    <g id="Group-102" transform="translate(0.000000, 0.380889)">
                        <g id="Group-3" transform="translate(58.854281, 103.811042)">
                            <mask id="mask-2" fill="white">
                                <use xlink:href="#path-1"></use>
                            </mask>
                            <g id="Clip-2"></g>
                            <path d="M9.50906375,0.299782389 L0.00744990893,3.6889515 C0.00744990893,3.6889515 21.3670838,16.4980391 52.4056393,39.9585877 C83.4434499,63.4183894 114.784472,91.861868 114.784472,91.861868 C114.784472,91.861868 140.732505,76.4433143 167.182661,64.9718208 C193.632073,53.5003273 220.203663,44.9609356 220.203663,44.9609356 L211.301022,39.1355678 L176.934592,54.4249177 L115.530953,81.744399 L115.529463,81.7436522 L78.0005464,52.9133095 L9.50906375,0.299782389" id="Fill-1" fill="#AFD6F3" mask="url(#mask-2)"></path>
                        </g>
                        <polygon id="Fill-4" fill="#FFFFFF" points="59.6067958 97.3819267 161.283898 61.1122906 279.803009 138.654658 174.383073 185.554843"></polygon>
                        <polygon id="Fill-6" fill="#EFF8FE" points="279.802487 138.653687 174.385531 185.555366 59.6055293 97.3831964 161.281141 61.1090792 254.048152 121.804184 268.895076 131.51313"></polygon>
                        <path d="M360.201905,0.366101961 C360.201905,0.366101961 358.733528,3.2421906 355.782619,8.06679009 C355.560611,8.42826163 355.330409,8.81139159 355.086052,9.19974945 C354.262092,10.525394 353.337558,11.9727739 352.310961,13.5426358 C352.071074,13.9205379 351.821502,14.2954526 351.56746,14.6808231 C350.644416,16.0609871 349.662518,17.5098607 348.596436,19.0311779 C348.33271,19.4120673 348.068983,19.7937036 347.805256,20.174593 C346.807713,21.5734281 345.763981,23.0342511 344.652455,24.5271884 C344.379043,24.9043436 344.090732,25.2889672 343.803165,25.672844 C342.741553,27.0925907 341.630027,28.55192 340.464861,30.036642 L339.572362,31.1770698 C338.434761,32.6154875 337.25693,34.0725763 336.02397,35.5550577 C335.717034,35.9322129 335.395198,36.314596 335.064422,36.6939918 C333.856047,38.1406248 332.606697,39.6059289 331.296258,41.0831824 C330.965482,41.4618313 330.630981,41.8516828 330.289775,42.2273444 C328.996471,43.6874205 327.665917,45.1579525 326.278744,46.6292313 C325.941263,46.9951839 325.589628,47.3671112 325.237992,47.7390385 L325.199997,47.7816085 L321.644901,47.9130527 L321.32381,47.9205211 L313.154985,48.3185879 L322.992589,50.1020467 C322.255793,50.8444077 321.530172,51.5912497 320.779966,52.3410791 C320.405236,52.7152469 320.016351,53.0961364 319.627466,53.4777727 C318.204533,54.8907978 316.744351,56.312785 315.239469,57.7302912 C314.828234,58.114168 314.415509,58.4972979 314.002784,58.8811747 C312.365294,60.3860614 310.689065,61.900657 308.973351,63.399569 C308.537531,63.7856863 308.092027,64.1688163 307.645777,64.5511994 C305.906223,66.0538455 304.127185,67.540808 302.297487,69.0098463 C301.814733,69.4019383 301.334214,69.7835746 300.85146,70.1756667 C299.015803,71.6305149 297.139915,73.0711732 295.214114,74.4931604 C294.73136,74.8516446 294.235196,75.2161035 293.743502,75.5701066 L293.619089,75.6612214 L284.88109,75.9995408 L277.833477,76.3415944 L289.649777,78.4857779 C288.787078,79.0795173 287.913203,79.6702694 287.039329,80.2602746 C286.455256,80.6493793 285.867458,81.0481929 285.272956,81.4335634 C282.949329,82.9489058 280.579513,84.4366152 278.144138,85.8877292 C277.501956,86.2783276 276.840404,86.6622044 276.188537,87.0490686 C273.486455,88.6077279 270.727753,90.1350198 267.890083,91.5988302 C267.119762,91.9991375 266.325602,92.4024322 265.535912,92.7952711 C262.313081,94.4136778 258.990422,95.9618813 255.589538,97.4122485 C254.633715,97.8245053 253.657032,98.2292937 252.684819,98.6243731 C246.133369,101.310017 239.269768,103.665557 232.10817,105.627511 L232.097741,105.623777 C231.142662,105.876956 230.198014,106.13387 229.232506,106.384062 C229.232506,106.384062 229.875433,105.151772 231.158307,102.970247 L231.162032,102.959791 C233.094538,99.6512809 236.482757,94.1567641 241.303593,87.3433243 C241.887666,86.5217981 242.487384,85.6830945 243.109451,84.8189983 C245.114221,82.0601638 247.346959,79.1116315 249.784569,76.0338955 C250.338098,75.3258893 250.914721,74.6156425 251.495068,73.8956868 C253.477489,71.4467918 255.599968,68.9247063 257.842391,66.3548229 C258.371334,65.7416656 258.926353,65.1247741 259.479881,64.5086294 C261.375883,62.3584712 263.379908,60.1911356 265.469608,58.0103569 C265.987376,57.4599343 266.515575,56.9139928 267.043773,56.3680513 C268.98969,54.3612868 271.01681,52.3500412 273.101294,50.3380488 C273.607888,49.8518546 274.110012,49.3761162 274.626291,48.8936563 C276.429169,47.1871223 278.299096,45.4828288 280.208507,43.7927253 C280.630917,43.4133295 281.052582,43.0667948 281.484677,42.6903864 L281.492127,42.6702217 L281.679119,42.4999417 L278.424254,55.1327746 L285.004014,39.6671699 C285.7572,39.033101 286.534225,38.3960448 287.311251,37.7589885 C287.795495,37.3668965 288.274524,36.9852602 288.758023,36.5931681 C290.583996,35.1345856 292.449453,33.6901932 294.35514,32.2607375 C294.823739,31.9089749 295.306493,31.5504908 295.784777,31.2032092 C297.463242,29.9627046 299.190875,28.7408711 300.938624,27.5265059 C301.393068,27.2150728 301.860178,26.8969181 302.325052,26.5892192 C302.400296,26.5369402 302.47256,26.4951171 302.538119,26.4398508 L299.65575,37.7410643 L305.226047,24.670582 L305.237221,24.6407083 C306.085766,24.0872984 306.941016,23.5473316 307.79999,22.996909 C308.255925,22.7093749 308.713349,22.4210938 309.166303,22.1432686 C310.883507,21.0767782 312.612631,20.0379209 314.37826,19.0237095 C314.78279,18.7854669 315.18434,18.5561864 315.585145,18.3276527 L315.643254,18.2925511 L312.571657,30.3316446 L318.334161,16.7973734 C319.155886,16.3477745 319.988041,15.9011629 320.830626,15.4590325 C321.265701,15.2312457 321.703755,14.9937499 322.14926,14.7704441 C323.80314,13.9078416 325.479369,13.0773532 327.181673,12.2670296 C327.618983,12.0631418 328.046608,11.8555197 328.483917,11.6516318 C330.114702,10.8838782 331.757407,10.1430109 333.441087,9.41708048 C333.862007,9.22962313 334.291866,9.04589999 334.728431,8.87636685 C336.343571,8.18180377 337.966906,7.52532962 339.617806,6.88976706 C340.040961,6.72620866 340.464116,6.56190341 340.886526,6.39834501 C342.478571,5.79863086 344.087007,5.21609408 345.712577,4.64998782 C346.127537,4.50659415 346.543242,4.36320049 346.968631,4.22354103 C348.545777,3.6970174 350.137823,3.18841798 351.747003,2.69699592 C352.155258,2.57302015 352.563513,2.44979121 352.982198,2.32954965 C355.363189,1.62079657 357.756099,0.972537687 360.201905,0.366101961" id="Fill-8" fill="#F93EA0"></path>
                        <path d="M356.998518,3.17482545 C356.998518,3.17482545 356.320577,3.75960276 355.048132,4.85596685 C353.773453,5.94859674 351.903526,7.55057288 349.524025,9.59019846 C344.730753,13.6276265 337.940161,19.4649437 329.690877,26.3441056 C325.562883,29.7803258 321.090702,33.5025865 316.360755,37.4391908 C311.613673,41.3548835 306.606589,45.4834262 301.428158,49.7538689 C296.231101,54.0026532 290.860462,58.3925907 285.402658,62.8527312 C279.928465,67.2919602 274.367108,71.8013924 268.805751,76.3108246 C263.222045,80.7926236 257.638338,85.2736757 252.14105,89.6852716 C246.628117,94.075209 241.200859,98.3956901 235.950163,102.576512 C225.432382,110.920978 215.576152,118.657514 207.091451,125.243914 C198.623139,131.851226 197.723935,130.730962 205.973964,123.852547 C214.207604,116.953221 223.855981,108.956036 234.237429,100.442784 C239.434485,96.1947467 244.80587,91.8055561 250.262928,87.3454155 C255.737866,82.9069333 261.299968,78.398248 266.86207,73.8888159 C272.445777,69.4077637 278.030229,64.9267115 283.526771,60.5151157 C289.041194,56.1259251 294.467708,51.8061908 299.719893,47.626116 C304.989214,43.4676996 310.083462,39.4489427 314.914728,35.637061 C319.763128,31.8483314 324.347057,28.2657302 328.578606,24.9587137 C337.047662,18.3521491 344.1884,12.9509876 349.147804,9.12118167 C351.644269,7.22719029 353.60583,5.73948097 354.943088,4.7252695 C356.283327,3.7140454 356.998518,3.17482545 356.998518,3.17482545" id="Fill-10" fill="#F93EA0"></path>
                        <path d="M352.981825,2.32984838 C352.56314,2.45008995 352.15563,2.57331889 351.747375,2.69654782 L350.290918,8.25081197 L350.288683,8.25603986 C350.816882,7.85498569 351.317516,7.47558995 351.78686,7.11859946 L351.717576,7.16863787 L352.981825,2.32984838 M356.764889,3.35078143 L356.764144,3.35152828 C356.457953,3.57259352 355.89176,4.00426821 355.08866,4.61593183 C355.90517,3.99978716 356.471363,3.57259352 356.764889,3.35078143" id="Fill-12" fill="#F30F64"></path>
                        <path d="M346.968855,4.22324229 C346.543465,4.36290175 346.12776,4.50629542 345.712055,4.65043593 L343.377254,13.5460713 C343.024873,13.8141876 342.671002,14.0882786 342.308192,14.3675975 C343.174616,13.7051487 344.008261,13.0665987 344.808381,12.4541883 L346.968855,4.22324229 M354.897793,4.75947486 C354.365124,5.15604798 353.749762,5.62879898 353.034571,6.17175314 L352.962307,6.22776629 C353.705062,5.6646474 354.35246,5.17322535 354.897793,4.75947486" id="Fill-14" fill="#F30F64"></path>
                        <path d="M340.886675,6.39849438 C340.464265,6.56205278 340.040365,6.72561118 339.617955,6.88991643 L336.477819,18.8356546 C336.171627,19.0738972 335.863201,19.3128867 335.55105,19.5548635 C336.935988,18.4876263 338.268032,17.4637058 339.544201,16.4853428 C339.010043,16.8946122 338.466199,17.3113501 337.911926,17.7340626 L340.886675,6.39849438 M352.540567,6.54786278 C352.447443,6.61806593 352.352085,6.69050961 352.254491,6.76444697 C352.35134,6.69125645 352.446698,6.61881277 352.540567,6.54786278 M352.139017,7.34922427 C351.353052,8.02287578 350.479177,8.77121149 349.524099,9.5904972 C349.44513,9.65696614 349.366161,9.72343508 349.285702,9.79065086 C349.367651,9.72268823 349.448855,9.65472561 349.530804,9.58825667 C349.710347,9.43739458 349.87946,9.28354512 350.056023,9.14313882 L350.037398,9.19317724 L350.399463,9.29176038 L350.403188,9.37241932 L350.69001,9.36420406 L351.105715,9.47100247 L351.139984,9.34702669 L355.086201,9.19915197 C355.330558,8.81079412 355.560015,8.428411 355.782768,8.06619262 L351.434256,8.22601681 L351.52887,7.87350738 C351.737467,7.69426529 351.94085,7.51950426 352.139017,7.34922427 M350.125307,8.37911943 C349.806451,8.61586835 349.48238,8.86008569 349.146389,9.11699935 C348.528791,9.59647193 347.880649,10.0983498 347.187063,10.6301013 C346.556055,11.1110676 345.901953,11.6151859 345.217307,12.1402159 C346.644709,11.047586 347.958873,10.0393493 349.147879,9.1214804 C349.48387,8.86680727 349.810176,8.61960256 350.125307,8.37911943" id="Fill-16" fill="#F30F64"></path>
                        <path d="M334.728133,8.87606811 C334.291568,9.04634809 333.861709,9.23007123 333.440789,9.41752858 L329.566091,24.189317 C330.44369,23.5059566 331.30639,22.8360393 332.153444,22.1795651 C331.769774,22.4753146 331.384614,22.7733045 330.994239,23.073535 L334.728133,8.87606811 M349.072188,9.97093852 C348.711612,10.2756501 348.339862,10.5893237 347.957681,10.9134532 C348.098485,10.796199 348.240033,10.6804384 348.379346,10.5661716 C348.616253,10.3615369 348.846455,10.1628769 349.072188,9.97093852 M347.204495,11.5512563 C347.080082,11.656561 346.954923,11.7626125 346.828275,11.8701578 C346.937789,11.7782962 347.045067,11.6864347 347.153091,11.5960668 C347.170226,11.5811299 347.188106,11.5661931 347.204495,11.5512563" id="Fill-18" fill="#F30F64"></path>
                        <path d="M328.483768,11.6519306 C328.046459,11.8558184 327.618834,12.0634405 327.181524,12.2673284 L322.63112,29.6075065 C323.513189,28.9174245 324.384083,28.2370514 325.241568,27.5663873 C324.849703,27.8718457 324.456348,28.1795446 324.060757,28.4872435 L328.483768,11.6519306 M352.310812,13.5421877 L344.513737,13.8356966 C341.933834,16.027678 339.012725,18.5109277 335.794364,21.2242048 C336.047661,21.0121017 336.300213,20.8014922 336.55202,20.5931233 L337.139817,20.5692243 L337.169617,20.580427 L337.173342,20.5699712 L347.805852,20.1748918 C348.068834,19.7940023 348.333306,19.412366 348.596287,19.0314766 L337.917588,19.4317839 C339.853074,17.7969467 341.678302,16.2465027 343.354532,14.8237686 L343.4782,14.8573765 L343.4782,14.982846 L343.913275,14.9716434 L344.130812,15.0284034 L344.156142,14.9582002 L351.567311,14.680375 C351.821353,14.2957513 352.070925,13.9208366 352.310812,13.5421877 M341.791541,14.7640213 C341.147868,15.2554433 340.487062,15.7618022 339.81061,16.2808574 C340.487062,15.7625491 341.148613,15.2561902 341.791541,14.7640213" id="Fill-20" fill="#F30F64"></path>
                        <path d="M322.149111,14.7702201 C321.703606,14.9935258 321.265552,15.2317684 320.830477,15.4588084 L315.69451,35.0275632 C316.173539,34.6533953 316.650333,34.2807212 317.124147,33.9102875 L322.149111,14.7702201" id="Fill-22" fill="#F30F64"></path>
                        <path d="M315.585368,18.3278767 C315.184563,18.5564104 314.783013,18.7849441 314.378483,19.0239335 L308.736667,40.5105786 C307.829268,41.2245596 306.918144,41.9489963 305.997336,42.6696989 C305.189766,43.3082488 304.38145,43.9467988 303.57388,44.5853487 C305.811833,42.8198142 308.012536,41.0834064 310.16854,39.3813535 L315.585368,18.3278767" id="Fill-24" fill="#F30F64"></path>
                        <path d="M309.166378,22.143418 C308.713423,22.4212432 308.255999,22.7087774 307.800065,22.9970584 L301.777558,45.9938181 C301.479562,46.2365417 301.172626,46.4755312 300.871649,46.7167612 C301.65985,46.0953886 302.444325,45.4770034 303.222841,44.8616056 L309.166378,22.143418 M333.784602,22.9163995 C333.271303,23.3473273 332.750555,23.7842299 332.224591,24.2256135 C332.75428,23.7857236 333.275028,23.3503147 333.784602,22.9163995 M344.652529,24.5273377 L331.256848,25.0351903 C330.801658,25.4168266 330.341254,25.8014502 329.87638,26.1890612 L343.80324,25.6729934 C344.090806,25.2883697 344.379117,24.9044929 344.652529,24.5273377" id="Fill-26" fill="#F30F64"></path>
                        <path d="M302.32468,26.5894432 C301.86055,26.8971422 301.392696,27.2152969 300.938997,27.52673 L294.797292,51.5377011 C294.309323,51.9290463 293.819864,52.3203916 293.328915,52.7132305 C294.301128,51.9387553 295.268871,51.1680143 296.232144,50.4017544 L302.32468,26.5894432 M340.464488,30.0361192 L324.540308,30.6313523 C324.079159,31.0144822 323.614284,31.4013464 323.147175,31.7904511 L339.571989,31.1772938 L340.464488,30.0361192 M321.300343,30.647036 C319.972769,31.6799185 318.62061,32.7352063 317.248337,33.8128993 C318.62359,32.7389405 319.974259,31.6829059 321.300343,30.647036" id="Fill-28" fill="#F30F64"></path>
                        <path d="M295.784926,31.2029105 C295.305897,31.5509389 294.823888,31.9086762 294.355289,32.2611856 L287.853753,57.0712777 C288.334272,56.6888946 288.814046,56.3072584 289.29233,55.9263689 L295.784926,31.2029105 M315.432571,35.2328701 C315.298472,35.3344406 315.167354,35.4367579 315.034001,35.5435563 C315.167354,35.4397453 315.299962,35.3359343 315.432571,35.2328701 M336.024119,35.5555058 L317.809837,36.2328915 C317.347197,36.618262 316.882323,37.005873 316.414469,37.3949777 L316.420429,37.3964714 L335.064571,36.6944399 C335.395347,36.3150442 335.717183,35.9319142 336.024119,35.5555058" id="Fill-30" fill="#F30F64"></path>
                        <path d="M288.75765,36.5934669 C288.274896,36.9848121 287.795122,37.3671952 287.311623,37.7592873 L280.860747,62.6470509 C279.01466,64.1332666 277.184962,65.601558 275.32472,67.0930015 L278.406002,55.1831117 L278.424627,55.1323265 L281.678747,42.5002404 L281.491754,42.6705204 L281.484304,42.6906852 C281.05221,43.0663467 280.63129,43.4128814 280.208135,43.793024 L273.877947,68.2588219 C276.781922,65.927928 279.675466,63.6059961 282.546661,61.3019885 C282.465457,61.3662169 282.384253,61.4296984 282.303794,61.4916863 L288.75765,36.5934669 M313.424299,36.8130384 C312.569794,37.4859431 311.70784,38.1648225 310.842905,38.8496766 C311.71082,38.1648225 312.571284,37.4859431 313.424299,36.8130384 M316.368503,37.4336641 C316.365523,37.4359047 316.363288,37.4373984 316.361053,37.4396389 C315.509528,38.1416704 314.649809,38.8504235 313.781895,39.566645 C314.649809,38.8519171 315.509528,38.1439109 316.358818,37.4426262 L316.368503,37.4336641 M331.29663,41.0827343 L311.046288,41.8340574 L311.035858,41.8303231 C307.917326,44.4024471 304.70716,47.0500021 301.428456,49.754317 C300.358649,50.6281222 299.282137,51.5079021 298.19892,52.3936568 C299.284372,51.5116363 300.357904,50.6281222 301.427711,49.7573044 C301.897055,49.3719339 302.352989,48.9925382 302.823079,48.6071677 L321.324182,47.9208199 L321.645273,47.9126046 L325.199625,47.7811604 L325.238364,47.7385904 C325.589255,47.3666631 325.940891,46.9947358 326.278372,46.62953 L304.231856,47.4510562 C306.051869,45.9446759 307.851767,44.464435 309.623355,42.9968904 L309.63304,43.0006246 L330.289403,42.2268963 C330.630609,41.8519816 330.965109,41.46213 331.29663,41.0827343" id="Fill-32" fill="#F30F64"></path>
                        <path d="M274.626142,48.893731 C274.110608,49.3761909 273.607739,49.8519293 273.101145,50.3381235 L266.902821,73.850951 L266.883451,73.8718625 C267.37589,73.4767831 267.867584,73.0817037 268.360023,72.6866243 L274.626142,48.893731 M320.779817,52.3411538 L297.381144,53.0626032 C296.910309,53.4472268 296.43873,53.8325973 295.966406,54.2187146 L319.627317,53.4778473 C320.016202,53.0962111 320.405087,52.7153216 320.779817,52.3411538" id="Fill-34" fill="#F30F64"></path>
                        <path d="M267.043848,56.3679766 C266.515649,56.9139181 265.987451,57.4598597 265.469682,58.0102822 L259.890445,79.5402442 C260.373944,79.1488989 260.857444,78.7568069 261.341688,78.3647148 L267.043848,56.3679766 M315.239544,57.7302165 L290.534901,58.6577943 C288.834832,60.0476673 287.123587,61.4465024 285.403403,62.8528059 C284.993658,63.1851506 284.582423,63.5182422 284.171934,63.8513337 C284.583168,63.518989 284.997383,63.1851506 285.404893,62.8557933 C286.651263,61.8326197 287.881243,60.8266235 289.123888,59.8146526 L314.002859,58.8811 C314.415584,58.4979701 314.828309,58.1140933 315.239544,57.7302165 M284.894575,59.4262947 C284.43864,59.7892599 283.981216,60.1522252 283.522301,60.5159372 C283.330094,60.6690398 283.137886,60.8266235 282.942699,60.9842072 C283.137886,60.8281172 283.332329,60.6712804 283.526771,60.5151904 C283.983451,60.1514783 284.439385,59.7892599 284.894575,59.4262947 M308.973425,63.3994943 L283.65193,64.2725526 C283.139376,64.6885436 282.626077,65.1045346 282.112779,65.5212725 C282.152263,65.4891583 282.191748,65.4570441 282.231977,65.4249299 L307.645852,64.5518715 C308.092101,64.1687416 308.537606,63.7863585 308.973425,63.3994943" id="Fill-36" fill="#F30F64"></path>
                        <path d="M259.479657,64.5088534 C258.926129,65.1249981 258.371856,65.7418896 257.842167,66.3550469 L252.899153,85.2075802 C252.521442,85.5122917 252.144477,85.818497 251.769002,86.1247022 C253.97045,84.3390029 256.186053,82.5435947 258.40836,80.7422117 C257.052477,81.8370821 255.702554,82.9229904 254.35263,84.0223419 L259.479657,64.5088534 M273.638954,68.4506856 C273.074996,68.9025251 272.511783,69.3543645 271.949315,69.8062039 C272.512528,69.3543645 273.075741,68.9017782 273.638954,68.4506856 M277.858583,68.9704877 C277.598581,69.1810971 277.339324,69.3917066 277.079322,69.6023161 C277.098692,69.5866324 277.119552,69.5716955 277.139666,69.5560118 C277.378809,69.3610861 277.618696,69.1654135 277.858583,68.9704877 M302.298009,69.0100703 L276.749291,69.8793944 L276.740351,69.8764071 C276.264302,70.2632712 275.787508,70.6501354 275.310714,71.0362527 L275.316674,71.0384933 L300.851237,70.1751439 C301.334736,69.7830518 301.81451,69.4014155 302.298009,69.0100703" id="Fill-38" fill="#F30F64"></path>
                        <path d="M251.495068,73.8953881 C250.914721,74.6153438 250.338098,75.3263374 249.784569,76.0335968 L245.875602,90.9301078 C245.558236,91.1900089 245.241615,91.4491631 244.924994,91.7083172 C245.945631,90.8740947 246.969994,90.0368848 247.998081,89.1966875 C247.776819,89.3766764 247.555557,89.5551717 247.333549,89.7344138 L251.495068,73.8953881 M295.214114,74.4936085 L269.841214,75.4727184 C270.16007,75.2135642 270.478181,74.9544101 270.797783,74.6952559 C270.133996,75.233729 269.470209,75.7722021 268.805677,76.3106752 C268.670089,76.4197141 268.53301,76.5294999 268.396677,76.6392857 L268.404127,76.642273 L284.88109,75.9992421 L293.619089,75.6616695 L293.743502,75.5705547 C294.235196,75.2158048 294.73136,74.8513459 295.214114,74.4936085 M265.24611,75.1993742 C264.609888,75.7139484 263.975156,76.2292694 263.339679,76.7438436 C263.975156,76.2292694 264.609888,75.7139484 265.24611,75.1993742 M267.956387,76.992542 C263.140021,80.8581963 258.32738,84.7208632 253.572848,88.5364792 C253.85371,88.3116797 254.134571,88.0883739 254.415433,87.8680555 L276.188537,87.0487698 C276.840404,86.6619057 277.501956,86.2787757 278.144138,85.8881773 L278.141158,85.8642784 L255.86146,86.7022351 C257.704568,85.2272221 259.53799,83.7484749 261.398232,82.2562846 L261.407917,82.2600188 L285.272956,81.4332646 C285.867458,81.0478942 286.455256,80.6490805 287.039329,80.2599758 L262.840535,81.1009199 C264.542094,79.7327053 266.251103,78.368225 267.956387,76.992542" id="Fill-40" fill="#F30F64"></path>
                        <path d="M243.109526,84.819073 C242.487458,85.6831692 241.886995,86.5218728 241.303668,87.343399 L238.859352,96.6654812 C240.160852,95.6019781 241.470546,94.5317535 242.787689,93.4548073 C241.961495,94.1292057 241.137535,94.8013635 240.316555,95.4697871 L243.109526,84.819073 M250.561669,87.1036627 C250.460351,87.1850685 250.359032,87.2657274 250.258458,87.3463864 C250.104245,87.4740964 249.950032,87.6010595 249.795819,87.7280227 C249.951522,87.6003127 250.10797,87.4726027 250.263673,87.3456395 C250.362012,87.2649806 250.462586,87.1843217 250.561669,87.1036627 M253.157218,88.8691973 C252.818247,89.1417946 252.479276,89.4136451 252.14105,89.6854956 C251.594227,90.1209045 251.047403,90.5563134 250.50207,90.9909755 C251.046658,90.5570603 251.593482,90.123145 252.140305,89.6862425 C252.477786,89.4166325 252.817502,89.1432883 253.157218,88.8691973 M249.923957,91.4502833 C249.076158,92.1261754 248.229848,92.7998269 247.386518,93.4712378 L265.535986,92.7953458 C266.325677,92.4025069 267.119837,91.9992122 267.890158,91.5989049 L248.844465,92.3136327 C249.204296,92.0253517 249.563382,91.7378175 249.923957,91.4502833 M244.469134,95.7931697 C243.079726,96.8999896 241.697768,98.0000879 240.326985,99.0919709 L240.334434,99.0949583 L252.684893,98.6244478 C253.657107,98.2293684 254.63379,97.82458 255.589613,97.4123232 L241.790147,97.9336189 C242.678176,97.2226253 243.572165,96.5093912 244.469134,95.7931697 M238.68577,96.8073812 C237.227077,97.9963537 235.768385,99.1853262 234.335023,100.363096 C235.77211,99.1883136 237.223352,98.0023284 238.68577,96.8073812" id="Fill-42" fill="#F30F64"></path>
                        <path d="M233.684348,100.896267 C232.836548,101.590083 231.999178,102.274937 231.161809,102.959791 L231.158084,102.970247 C231.995453,102.282405 232.836548,101.591577 233.684348,100.896267 M237.132166,101.634893 C236.73732,101.949314 236.342475,102.263734 235.949865,102.576661 C234.657306,103.602075 233.372942,104.619274 232.101987,105.626017 L232.107947,105.627511 C233.381136,104.626743 234.661776,103.604316 235.95508,102.576661 C236.3462,102.263734 236.73881,101.949314 237.132166,101.634893" id="Fill-44" fill="#F30F64"></path>
                        <path d="M356.866878,3.28640365 L356.764815,3.35063207 C356.471288,3.57244415 355.905095,3.99963779 355.088585,4.61578246 C355.042396,4.65088403 354.995461,4.68673245 354.947782,4.72258087 L354.897122,4.75992297 C354.352534,5.17367345 353.705137,5.66434866 352.962381,6.22746755 C352.824558,6.33351912 352.685244,6.43882384 352.539971,6.54786278 C352.446102,6.61881277 352.350744,6.69125645 352.25464,6.76444697 C352.231545,6.78162433 352.209195,6.79954854 352.186101,6.81747275 C352.061687,6.91829643 351.929079,7.01687957 351.78753,7.11845009 C351.317441,7.47544058 350.816807,7.85483633 350.288609,8.25589049 L350.287119,8.26037155 C350.233479,8.29995417 350.179095,8.3395368 350.125456,8.37911943 C349.80958,8.61960256 349.484019,8.86680727 349.148028,9.1214804 C347.959022,10.0393493 346.644858,11.047586 345.217456,12.1402159 C345.082612,12.2447738 344.945534,12.3493316 344.807711,12.4546364 C344.008336,13.0670468 343.174691,13.7048499 342.308266,14.3680456 C342.233767,14.4255525 342.159268,14.4830593 342.084024,14.5405661 C341.98643,14.6145035 341.889581,14.6891877 341.791988,14.7638719 C341.148315,15.2560408 340.487509,15.7623997 339.810312,16.2807081 C339.722403,16.3486707 339.633749,16.4173802 339.54435,16.4853428 C338.268181,17.4637058 336.936137,18.4876263 335.551199,19.5548635 C334.451592,20.4070103 333.318461,21.2815623 332.153295,22.1800132 C331.306241,22.8357405 330.443541,23.5064047 329.565942,24.1890183 L329.562962,24.1987272 C329.231441,24.4534004 328.914075,24.7013519 328.583299,24.9552782 C327.496357,25.8089186 326.376636,26.681977 325.242015,27.5662379 C324.383785,28.2369021 323.512891,28.9172751 322.630822,29.6073572 L322.629332,29.6125851 C322.189042,29.9546387 321.745773,30.2996797 321.300268,30.6469613 C319.974184,31.6828312 318.623516,32.7388658 317.248263,33.8135715 C317.207288,33.8456857 317.165569,33.8785467 317.123849,33.9106609 L317.123849,33.9099141 C316.65078,34.2803477 316.173986,34.6530219 315.694212,35.0271898 L315.691977,35.0361519 C315.604068,35.101874 315.518394,35.1675961 315.43272,35.2325713 C315.300111,35.3363824 315.166758,35.4394466 315.03415,35.5432576 C314.994665,35.5753718 314.955181,35.6067392 314.915696,35.6396002 C314.421767,36.0287049 313.924113,36.4193033 313.424224,36.812889 C312.57121,37.4857937 311.710745,38.1646731 310.842831,38.8502741 C310.617844,39.0280225 310.392856,39.2065177 310.167869,39.385013 L310.168614,39.3812788 C308.012611,41.0833318 305.811907,42.8197395 303.573955,44.585274 C303.456991,44.6771356 303.339283,44.769744 303.223064,44.8623524 C302.443804,45.4770034 301.660073,46.0953886 300.871873,46.7167612 C300.831643,46.7488754 300.792159,46.7809896 300.752674,46.8131038 C300.414448,47.0871948 300.069518,47.3485895 299.717137,47.6286553 C298.564636,48.5487646 297.398725,49.4763424 296.23207,50.4024266 L296.23207,50.4016797 C295.268796,51.1679396 294.301798,51.9386806 293.32884,52.7131558 C291.993816,53.7796462 290.646873,54.8521114 289.291734,55.9275639 L289.292479,55.9260702 C288.81345,56.3069596 288.334421,56.6885959 287.853902,57.070979 L287.853157,57.0732195 C286.868279,57.8566568 285.884146,58.6408409 284.894798,59.4265188 C284.438864,59.7887371 283.983674,60.1517024 283.526995,60.5154144 C283.332552,60.6715044 283.137365,60.8275944 282.942177,60.9844312 C282.811059,61.0904828 282.679195,61.1972812 282.546587,61.3025859 C279.675392,63.6065936 276.781847,65.9277786 273.877873,68.2586726 C273.798159,68.322901 273.718445,68.3863825 273.638731,68.450611 C273.075518,68.9017035 272.512305,69.3542898 271.949836,69.8061292 C270.753381,70.7665681 269.558416,71.7285006 268.35898,72.6889395 L268.359725,72.6866989 C267.867286,73.0817784 267.375592,73.4768578 266.883898,73.8719372 L266.863784,73.8935956 C266.32441,74.3275109 265.784292,74.7629198 265.246408,75.1990755 C264.610186,75.7143965 263.975454,76.2289707 263.339977,76.7442917 C262.672465,77.2857521 262.006443,77.8272126 261.340421,78.3671794 L261.341166,78.364192 C260.857667,78.7570309 260.374168,79.149123 259.890669,79.5404682 L259.889924,79.5419619 C259.39525,79.9445097 258.901321,80.3440702 258.408137,80.742137 C256.185829,82.54352 253.970971,84.3389282 251.769523,86.1246275 C251.366483,86.4524912 250.964188,86.7803548 250.561893,87.1037374 C250.462809,87.1843963 250.362235,87.2650553 250.263152,87.3457142 C250.107448,87.4726774 249.951,87.6003874 249.795297,87.7273505 C249.19707,88.2202662 248.598842,88.7094478 247.997634,89.1971356 C246.969547,90.0373329 245.945184,90.8745428 244.924547,91.7087653 C244.211591,92.292049 243.498634,92.8745857 242.787913,93.454882 C241.470769,94.5318282 240.161075,95.6020528 238.859576,96.6655559 C238.801467,96.7133538 238.743357,96.7604048 238.685248,96.8074559 C237.222831,98.0024031 235.772334,99.1883882 234.334501,100.363171 C234.300977,100.390804 234.268942,100.41769 234.235417,100.444577 C234.051405,100.595439 233.866647,100.746301 233.684124,100.896416 C232.83707,101.591726 231.995975,102.282555 231.158605,102.970396 C229.874986,105.151922 229.232804,106.384211 229.232804,106.384211 C230.198312,106.134019 231.142215,105.877105 232.097294,105.623926 L232.101764,105.62542 C233.372718,104.619423 234.657082,103.601478 235.949642,102.576064 C236.342997,102.263137 236.737097,101.949463 237.131942,101.635043 C238.189084,100.790364 239.252931,99.9426987 240.324228,99.0912988 L240.326463,99.0920456 C241.697991,98.0001626 243.079949,96.9000643 244.469357,95.7932444 C245.436356,95.0225034 246.406334,94.2480282 247.378547,93.4713125 L247.386742,93.4713125 C248.230071,92.7991547 249.076381,92.12625 249.924181,91.450358 C250.116388,91.2972554 250.309341,91.1441528 250.502294,90.9910502 C251.047627,90.5563881 251.593705,90.1209792 252.141274,89.6855703 C252.479499,89.4137198 252.81847,89.1418693 253.157441,88.869272 C253.296754,88.7579925 253.434578,88.646713 253.573146,88.5361804 C258.326933,84.7213113 263.139574,80.8586444 267.95594,76.9922432 C268.102703,76.874989 268.248722,76.756988 268.39474,76.6382401 L268.39623,76.6389869 C268.533308,76.529948 268.669642,76.4201622 268.805975,76.3103764 C269.469762,75.7726502 270.133549,75.2334302 270.798081,74.695704 C272.299982,73.4746173 273.802629,72.2580116 275.30602,71.0346844 L275.31049,71.0361781 C275.787285,70.6500607 276.264824,70.2631966 276.740128,69.8770792 L276.738638,69.8763324 C276.851877,69.7807366 276.960645,69.6926093 277.079099,69.6022414 C277.339101,69.3916319 277.599102,69.1810225 277.858359,68.970413 C279.274587,67.8165421 280.69156,66.6641648 282.112257,65.5214965 C282.626301,65.1040118 283.1396,64.6880208 283.652153,64.2727767 L283.651408,64.2727767 C283.823501,64.1323704 283.997084,63.9919641 284.172157,63.8515578 C284.582647,63.5177194 284.993137,63.1853747 285.402882,62.85303 C287.123811,61.4467264 288.835055,60.0471445 290.535124,58.6580183 L290.532889,58.6580183 C292.359607,57.1650811 294.172915,55.6788655 295.964618,54.2187893 L295.966108,54.2187893 C296.439177,53.832672 296.910756,53.4473015 297.380846,53.061931 L297.374141,53.0626779 C297.649787,52.8401189 297.924689,52.6168132 298.198846,52.3935074 C299.282062,51.5077528 300.358574,50.6279729 301.428381,49.7541677 C304.707086,47.0498527 307.917252,44.4022977 311.035784,41.8301738 C311.958082,41.0683949 312.873676,40.3140845 313.78182,39.5664956 C314.649734,38.8510209 315.509454,38.141521 316.360979,37.4394895 C316.363213,37.4379958 316.365448,37.4357553 316.368428,37.4335148 L316.410148,37.3931853 L316.414618,37.394679 C316.882472,37.0055743 317.347346,36.6179633 317.809986,36.2333396 L317.809241,36.2333396 C319.620314,34.7232251 321.409037,33.23925 323.140396,31.7911233 L323.147101,31.7911233 C323.61421,31.4020186 324.079084,31.0144076 324.540234,30.6312776 L324.538744,30.6312776 C326.301392,29.1607456 328.028281,27.7223279 329.690356,26.3399233 L329.869898,26.1898081 L329.876603,26.1890612 C330.341478,25.8014502 330.801882,25.4168266 331.257071,25.0351903 L331.255581,25.0359371 C331.338275,24.9634935 331.417989,24.9015056 331.500683,24.8298087 L331.698106,24.663263 C331.873924,24.5161351 332.049742,24.3705009 332.224815,24.2256135 C332.750778,23.7842299 333.271527,23.3473273 333.784826,22.9163995 C333.912964,22.8066137 334.041102,22.6968279 334.168496,22.5870421 C334.720534,22.1262406 335.260652,21.6714138 335.794066,21.2248023 C339.012427,18.5107784 341.933536,16.0275286 344.513439,13.8355473 L344.508969,13.8355473 C345.309835,13.1574147 346.087605,12.4964595 346.828126,11.8706059 C346.954774,11.7630606 347.079933,11.6570091 347.204346,11.5509575 C347.457643,11.331386 347.708705,11.1200297 347.957532,10.9131544 C348.339713,10.5897718 348.711463,10.2753513 349.072039,9.97138663 C349.144303,9.91014558 349.215077,9.85039822 349.285851,9.79065086 C349.36631,9.72343508 349.445279,9.65696614 349.524248,9.5904972 C350.479326,8.77121149 351.353201,8.02287578 352.138421,7.34922427 C353.305822,6.34621543 354.285485,5.50527131 355.049101,4.85029085 C356.006414,4.02951147 356.618051,3.50298784 356.866878,3.28640365" id="Fill-46" fill="#F30F64"></path>
                        <path d="M346.031731,107.928158 C345.949782,107.936373 345.867833,107.936373 345.770984,107.936373 C345.219691,107.936373 344.653498,107.936373 344.102204,107.943841 C341.97898,107.966247 339.863206,108.003589 337.777232,108.070058 C337.188689,108.084995 336.592696,108.1074 336.004153,108.130552 C333.628377,108.220173 331.273461,108.339668 328.94909,108.473352 C328.330747,108.518163 327.719855,108.555505 327.101512,108.593594 C326.103224,108.660063 325.104937,108.727279 324.121549,108.810178 L310.08592,115.359236 L319.793152,109.167915 C319.703753,109.175384 319.621804,109.183599 319.539855,109.190321 L319.524955,109.205258 C318.958762,109.250815 318.414918,109.28741 317.848725,109.347158 C315.323206,109.593615 312.827487,109.862479 310.383917,110.153747 C309.683625,110.2359 309.005683,110.318052 308.312842,110.407673 C305.466977,110.774373 302.665811,111.154515 299.939144,111.572747 C299.194153,111.684773 298.449162,111.804268 297.719071,111.924509 C294.768907,112.387551 291.900693,112.872252 289.136776,113.395041 C288.332186,113.545157 287.527596,113.68631 286.752805,113.843147 C283.459946,114.471241 280.301929,115.128462 277.290676,115.785683 C276.412332,115.986583 275.540693,116.173294 274.683208,116.375688 C270.951549,117.233809 267.464991,118.092678 264.26898,118.936609 C263.270693,119.198004 262.309654,119.459399 261.363516,119.713325 C258.697193,120.437762 256.246173,121.147262 254.04845,121.804483 L255.942217,123.043493 L268.895374,131.513429 L268.902824,131.513429 C272.121184,131.932407 275.324645,132.282676 278.490856,132.566476 C279.362496,132.649376 280.249035,132.723313 281.113224,132.790529 C284.279436,133.05267 287.423297,133.239381 290.529909,133.388002 C291.290545,133.417876 292.049691,133.455965 292.802132,133.477623 C295.633842,133.58965 298.427558,133.649397 301.198179,133.672549 C301.906665,133.679271 302.613662,133.672549 303.313953,133.679271 C304.37184,133.672549 305.422277,133.672549 306.472714,133.664334 L297.83827,127.697813 L303.887596,130.296076 L311.337505,133.567244 L311.493953,133.559776 C312.097396,133.545586 312.709033,133.523181 313.311731,133.507497 C315.703152,133.426091 318.057323,133.320787 320.389144,133.186355 C321.007487,133.142291 321.617634,133.104202 322.236722,133.06686 C324.575993,132.925707 326.878015,132.745718 329.158432,132.552286 C329.73878,132.49926 330.319873,132.446981 330.900966,132.395449 C333.158288,132.185587 335.385811,131.954066 337.583534,131.715823 C338.142277,131.648607 338.69357,131.58886 339.252314,131.520897 C341.286139,131.282655 343.290164,131.013045 345.25694,130.744928 C345.793334,130.669497 346.322277,130.602282 346.843771,130.528344 C347.886758,130.378976 348.900691,130.228861 349.927288,130.079492 L342.731421,125.11374 L349.749235,128.122766 L350.018177,128.242261 L353.049545,129.579108 L353.101694,129.57164 C353.600838,129.489487 354.099982,129.408081 354.583481,129.325182 C356.551002,129.004786 358.473079,128.661239 360.357161,128.309477 C360.8496,128.219856 361.341294,128.122766 361.825538,128.033145 C363.740909,127.674661 365.587742,127.30124 367.39062,126.927819 C367.882314,126.831476 368.359108,126.734387 368.821002,126.629082 C370.66858,126.241471 372.456558,125.844898 374.199836,125.449072 C374.654281,125.337792 375.116175,125.232487 375.57062,125.121208 C377.366048,124.710445 379.101877,124.283998 380.770656,123.865767 C381.216906,123.747019 381.672095,123.634245 382.11164,123.522219 C383.862368,123.081582 385.538598,122.626756 387.140328,122.193587 C387.572423,122.073346 388.004518,121.953851 388.436612,121.826888 C390.164991,121.349656 391.781621,120.886614 393.316303,120.430293 C393.740948,120.30333 394.158887,120.183835 394.567887,120.049404 C396.288816,119.526614 397.860747,119.041167 399.27623,118.578872 C399.700875,118.443693 400.10317,118.309262 400.49131,118.182299 C405.615357,116.495183 408.432168,115.37492 408.432168,115.37492 C406.063097,114.761762 403.708926,114.194909 401.339855,113.671373 C400.92266,113.57503 400.512915,113.492131 400.11062,113.40251 C398.501439,113.051494 396.893004,112.722883 395.290529,112.40921 C394.858434,112.319589 394.433789,112.238183 394.009144,112.162752 C392.340365,111.849078 390.686485,111.55781 389.025155,111.281478 C388.585611,111.207541 388.139361,111.140325 387.699071,111.064894 C385.978142,110.788563 384.257213,110.534636 382.536285,110.303862 C382.07439,110.228431 381.620691,110.168684 381.165501,110.117152 C379.362623,109.877415 377.58284,109.660831 375.801567,109.467399 C375.324773,109.414373 374.855428,109.37031 374.378634,109.317284 C372.516157,109.123852 370.66113,108.943863 368.806102,108.801963 C368.314408,108.757152 367.815264,108.727279 367.33102,108.690683 C366.384882,108.615252 365.446193,108.548037 364.514955,108.488289 L352.222605,114.224783 L361.445592,108.309794 L361.379288,108.301579 C360.915904,108.27992 360.462204,108.256768 359.99286,108.234363 C357.959035,108.137273 355.94756,108.063336 353.929379,108.017779 C353.399691,108.003589 352.855847,107.987905 352.319454,107.980437 C351.298816,107.966247 350.285629,107.943841 349.273186,107.936373 L349.250091,107.950563 L337.374937,113.484662 L346.031731,107.928158" id="Fill-48" fill="#AFD6F3"></path>
                        <polygon id="Fill-50" fill="#AFD6F3" points="254.048674 121.804557 254.047929 121.804557 255.942441 123.043568"></polygon>
                        <path d="M254.047929,121.804557 C249.83873,123.059999 246.538421,124.15711 244.281098,124.941294 L244.266198,124.948762 C238.343521,125.359525 232.621991,125.771035 227.168657,126.166115 C221.730224,126.569409 216.559987,126.957767 211.754051,127.324467 C203.195595,127.96451 201.584925,128.750188 206.807311,128.750188 C208.093911,128.750188 209.796215,128.70239 211.910499,128.593351 C221.305579,128.122841 232.063248,127.547772 243.580807,126.89802 L243.588257,126.89802 C250.628421,128.578414 257.63804,129.90854 264.57465,130.91603 C265.602738,131.072867 266.63753,131.215514 267.658912,131.356667 C268.068657,131.408946 268.485852,131.468693 268.895597,131.513504 L254.047929,121.804557" id="Fill-52" fill="#F1F1F1"></path>
                        <polygon id="Fill-54" fill="#FFFFFF" points="258.116324 102.674721 257.718499 106.208778 255.043982 107.268547 257.161246 108.057212 257.556836 112.217122 259.200286 108.795092 262.395552 110.999023 260.758807 107.574005 262.803807 105.639684 259.783614 105.791293"></polygon>
                        <polygon id="Fill-56" fill="#FFFFFF" points="274.565052 96.4578591 272.289105 101.645424 267.720821 101.987477 270.568176 104.192902 269.205588 110.709099 273.322408 106.283313 277.141231 111.154216 276.269592 105.166037 280.294032 103.195121 275.629644 101.990465"></polygon>
                        <polygon id="Fill-58" fill="#FFFFFF" points="232.980853 84.688525 232.717126 87.0298747 230.946283 87.7319062 232.347611 88.2539488 232.610592 91.0097959 233.699024 88.7431303 235.815543 90.2032065 234.731581 87.9343004 236.085975 86.6527195 234.084929 86.7527963"></polygon>
                        <polygon id="Fill-60" fill="#FFFFFF" points="229.73463 72.8819981 229.374799 76.0777352 226.956558 77.0351866 228.871185 77.7484208 229.228781 81.5095172 230.714293 78.4153507 233.602622 80.4079252 232.12307 77.3115182 233.971393 75.5624142 231.241746 75.6990862"></polygon>
                        <polygon id="Fill-62" fill="#FFFFFF" points="220.771421 77.7003988 218.714501 82.3905668 214.584271 82.6997593 217.158215 84.6930807 215.926 90.5841706 219.647974 86.5833379 223.100262 90.9867185 222.312807 85.5728606 225.951342 83.7908955 221.733949 82.7019999"></polygon>
                        <path d="M56.4732896,119.411601 C57.5930109,121.764153 56.6401676,124.797079 54.4089199,126.12347 C46.0665118,131.082501 37.7248488,136.040785 29.3839308,140.999816 C27.1511931,142.327701 24.4520911,141.465099 23.3316248,139.111053 C17.0021821,125.795606 9.48149909,113.079874 0.862699454,101.12368 C-0.660061931,99.0093702 -0.119943534,96.2206621 2.11204918,94.8942706 C10.4537122,89.9352396 18.7946302,84.9777022 27.1348033,80.0186712 C29.366796,78.6930266 32.477878,79.3091712 34.0013843,81.423481 C42.620929,93.3811687 50.142357,106.095407 56.4732896,119.411601" id="Fill-64" fill="#0D82DC"></path>
                        <path d="M0.772853552,96.120884 C7.03077705,103.649052 17.1552033,117.958545 27.7199191,141.588627 C25.9460958,141.827616 24.1812124,140.894063 23.3311778,139.109111 C16.9987552,125.792171 9.48179709,113.081666 0.862252459,101.124726 C-0.276838616,99.533952 -0.262683789,97.5622891 0.772853552,96.120884" id="Fill-66" fill="#0064BE"></path>
                        <path d="M34.9624226,91.1602846 C35.2805337,91.6793398 35.1166357,92.3649407 34.598867,92.6838423 L14.476663,105.061255 C13.9588944,105.380904 13.2749927,105.215851 12.9576266,104.696796 L9.97244809,99.8214115 C9.65433698,99.3023563 9.81823497,98.6167553 10.3360036,98.2978538 L30.4582077,85.9204409 C30.9767213,85.6015394 31.659878,85.7658446 31.9772441,86.2848998 L34.9624226,91.1602846 Z" id="Fill-68" fill="#FFFFFF"></path>
                        <path d="M24.1491033,112.235644 C24.4642344,112.755446 24.2966115,113.4403 23.7773528,113.756214 L20.7869594,115.574774 C20.2677007,115.890689 19.5845441,115.722649 19.2694129,115.202847 L17.4553601,112.20353 C17.140229,111.683727 17.3071069,110.998873 17.8271106,110.682959 L20.817504,108.865146 C21.3375077,108.549232 22.0199193,108.717271 22.3343055,109.237073 L24.1491033,112.235644 Z" id="Fill-70" fill="#CFE6F8"></path>
                        <path d="M32.189045,107.216343 C32.5041761,107.736145 32.3365532,108.420999 31.8172945,108.736913 L28.8261561,110.555473 C28.3068974,110.871387 27.6244858,110.703348 27.3093546,110.183546 L25.4945568,107.184975 C25.1794257,106.665173 25.3463036,105.981066 25.8663073,105.665152 L28.8567007,103.845844 C29.3767044,103.52993 30.059861,103.69797 30.3742472,104.217772 L32.189045,107.216343 Z" id="Fill-72" fill="#CFE6F8"></path>
                        <path d="M40.2283162,102.197041 C40.5434474,102.716843 40.3758244,103.401698 39.8565658,103.716865 L36.8654273,105.537666 C36.3469137,105.85358 35.663757,105.68554 35.3486259,105.164245 L33.534573,102.166421 C33.2194419,101.645872 33.3863199,100.961018 33.9063235,100.645104 L36.8967169,98.8265433 C37.4159756,98.5106291 38.0991322,98.6786686 38.4135184,99.1984706 L40.2283162,102.197041 Z" id="Fill-74" fill="#CFE6F8"></path>
                        <path d="M29.0272291,120.713421 C29.3423603,121.233223 29.1747373,121.91733 28.6554787,122.233245 L25.6643403,124.052552 C25.1450816,124.368466 24.4626699,124.200426 24.1475388,123.680624 L22.333486,120.681307 C22.0183548,120.161505 22.1852328,119.477397 22.7052364,119.161483 L25.6948849,117.342176 C26.2148885,117.027009 26.8973002,117.194301 27.2116863,117.714103 L29.0272291,120.713421 Z" id="Fill-76" fill="#CFE6F8"></path>
                        <path d="M37.0664259,115.69412 C37.381557,116.213922 37.2139341,116.898029 36.6946754,117.213943 L33.703537,119.033997 C33.1842783,119.349912 32.5018667,119.181872 32.1867355,118.661323 L30.3726827,115.663499 C30.0575515,115.142204 30.2244295,114.458096 30.7444332,114.142182 L33.7348266,112.324369 C34.2548302,112.008454 34.9372419,112.176494 35.2516281,112.696296 L37.0664259,115.69412 Z" id="Fill-78" fill="#CFE6F8"></path>
                        <path d="M45.1056226,110.675565 C45.4207537,111.195367 45.2531308,111.879475 44.7346171,112.195389 L41.7427337,114.014696 C41.22422,114.33061 40.5410634,114.162571 40.2259322,113.641275 L38.4126244,110.644198 C38.0974933,110.122902 38.2636262,109.438795 38.7836299,109.122881 L41.7740233,107.305067 C42.294027,106.989153 42.9771836,107.157193 43.2915698,107.676995 L45.1056226,110.675565 Z" id="Fill-80" fill="#CFE6F8"></path>
                        <path d="M33.9620488,128.635548 C34.276435,129.15535 34.109557,129.840204 33.5902984,130.156118 L30.5991599,131.975425 C30.0799013,132.290593 29.3967446,132.1233 29.0816135,131.602751 L27.2683056,128.60418 C26.9531745,128.084378 27.1200525,127.400271 27.6393111,127.084357 L30.6304495,125.26505 C31.1497082,124.949136 31.8328648,125.117175 32.147251,125.636977 L33.9620488,128.635548 Z" id="Fill-82" fill="#CFE6F8"></path>
                        <path d="M42.0012455,123.616247 C42.3163767,124.136049 42.1487537,124.820903 41.6294951,125.136817 L38.6383566,126.956871 C38.119098,127.272785 37.4366863,127.104746 37.1215552,126.58345 L35.3075024,123.586373 C34.9923712,123.065077 35.1592492,122.38097 35.6792528,122.065056 L38.6696463,120.247242 C39.1896499,119.931328 39.8720616,120.098621 40.1864477,120.61917 L42.0012455,123.616247 Z" id="Fill-84" fill="#CFE6F8"></path>
                        <path d="M50.0405168,118.598364 C50.3556479,119.118166 50.188025,119.802274 49.6687663,120.118188 L46.6783729,121.937495 C46.1591142,122.253409 45.4767026,122.08537 45.1615714,121.565568 L43.3467736,118.565503 C43.0316424,118.045701 43.1985204,117.361594 43.718524,117.04568 L46.7089175,115.227866 C47.2289211,114.911952 47.9120778,115.079245 48.2257189,115.599047 L50.0405168,118.598364 Z" id="Fill-86" fill="#CFE6F8"></path>
                        <path d="M10.95971,113.800801 C10.8874459,113.843371 8.4662255,115.14885 5.97497596,117.446137 C4.72935118,118.597767 3.46137668,119.999589 2.47575373,121.659819 C1.49385574,123.316315 0.791329326,125.258851 0.790584335,127.405275 C0.790584335,127.875785 0.824853916,128.355258 0.895628051,128.839958 C1.36348233,132.002088 2.7402255,134.535376 3.98063534,136.283733 C5.22626011,138.035077 6.34970638,139.017175 6.41973552,139.079163 L8.589149,136.56828 L7.99911621,137.250893 L8.59287395,136.571267 L8.589149,136.56828 L7.99911621,137.250893 L8.59287395,136.571267 C8.59287395,136.571267 8.53699964,136.522722 8.43270091,136.422646 C8.06840036,136.072377 7.14312168,135.117166 6.24689763,133.71609 C5.34843862,132.315014 4.48499417,130.47853 4.17433297,128.354511 C4.12665355,128.032622 4.10430383,127.716708 4.10430383,127.405275 C4.10430383,125.996731 4.56321821,124.6442 5.3253439,123.356644 C6.45996503,121.429792 8.27774281,119.725498 9.81391403,118.546235 C10.5812546,117.954736 11.2748412,117.491694 11.7695151,117.180261 C12.0168521,117.024171 12.2150197,116.906917 12.3468831,116.829992 L12.4958812,116.744852 L12.5286608,116.726928 L12.5353658,116.723193 L12.3342182,116.353507 L12.5338758,116.72394 L12.5353658,116.723193 L12.3342182,116.353507 L12.5338758,116.72394 L10.95971,113.800801 Z" id="Fill-88" fill="#0D82DC"></path>
                        <path d="M10.7262299,138.24016 C10.7262299,139.845124 9.42845574,141.146869 7.82672532,141.146869 C6.22573989,141.146869 4.92796576,139.845124 4.92796576,138.24016 C4.92796576,136.63445 6.22573989,135.332704 7.82672532,135.332704 C9.42845574,135.332704 10.7262299,136.63445 10.7262299,138.24016" id="Fill-90" fill="#0D82DC"></path>
                        <path d="M51.8687989,72.2205201 C51.8687989,73.8262305 50.5710248,75.1272293 48.9692944,75.1272293 C47.3683089,75.1272293 46.0705348,73.8262305 46.0705348,72.2205201 C46.0705348,70.6148098 47.3683089,69.313811 48.9692944,69.313811 C50.5710248,69.313811 51.8687989,70.6148098 51.8687989,72.2205201" id="Fill-92" fill="#0D82DC"></path>
                        <path d="M27.3109936,137.906098 L27.3579281,137.888921 L27.3109936,137.906098 L27.3579281,137.888921 L27.3109936,137.906098 C27.3571831,138.027086 28.7965055,141.976387 28.7950155,147.98249 C28.7950155,149.79657 28.6646421,151.798853 28.3271612,153.94229 C28.2481922,154.442674 28.2109426,154.932602 28.2109426,155.408341 C28.2109426,156.793733 28.5268188,158.044693 28.9879681,159.111184 C29.6815546,160.71316 30.6813324,161.913335 31.5052923,162.731127 C32.3314872,163.548919 32.9908042,163.987315 33.0571084,164.031379 C33.821469,164.535497 34.8488115,164.322647 35.3516803,163.556387 C35.8545492,162.789381 35.6422268,161.759485 34.8771211,161.256114 L34.5977495,161.681814 L34.8823361,161.259848 L34.8771211,161.256114 L34.5977495,161.681814 L34.8823361,161.259848 C34.8510464,161.24043 33.9481175,160.614577 33.1129827,159.568251 C32.6942978,159.045461 32.2920027,158.421848 32.0007113,157.725045 C31.7086749,157.027494 31.5254071,156.261981 31.5246621,155.408341 C31.5246621,155.104376 31.5477568,154.789209 31.5999062,154.459851 C31.9664417,152.131945 32.10799,149.956394 32.10799,147.98249 C32.1065,141.234026 30.4563452,136.856785 30.4071758,136.724594 C30.0823597,135.867219 29.1250464,135.436291 28.2697969,135.763408 C27.4145474,136.089031 26.9854326,137.04947 27.3109936,137.906098" id="Fill-94" fill="#0D82DC"></path>
                        <path d="M50.0171985,128.872521 L49.9955938,127.835157 L50.0060237,128.872521 L50.0171985,128.872521 L49.9955938,127.835157 L50.0060237,128.872521 L50.0075137,128.872521 C50.0499781,128.871774 50.471643,128.876255 51.0564608,128.982307 C51.94002,129.13989 53.1558452,129.535716 54.0922987,130.37218 C54.564623,130.791905 54.9840528,131.316935 55.3118488,132.033903 C55.6388998,132.750125 55.8758069,133.66874 55.9197614,134.883105 C55.9287013,135.122095 55.9316812,135.355856 55.9316812,135.582896 C55.9287013,138.875723 55.0876066,140.942235 54.311326,142.204398 C53.9209508,142.833986 53.5410055,143.260432 53.2772787,143.518093 C53.1446703,143.647297 53.0418616,143.73393 52.9807723,143.783222 L52.922663,143.826539 L52.9196831,143.828779 L53.3540128,144.447911 L52.9405428,143.815336 L52.9196831,143.828779 L53.3540128,144.447911 L52.9405428,143.815336 C52.3296503,144.217137 52.0517687,144.977422 52.2611111,145.679454 C52.4697086,146.380738 53.1178506,146.865439 53.8486867,146.865439 L59.5083825,146.865439 C60.4239763,146.865439 61.1652423,146.122331 61.1652423,145.204462 C61.1652423,144.28734 60.4239763,143.544232 59.5083825,143.544232 L53.8486867,143.544232 L53.8486867,145.204462 L54.7560856,146.594335 C54.9080638,146.494258 56.033745,145.719036 57.1259016,143.956489 C58.2202933,142.198423 59.2506157,139.454525 59.2461457,135.582896 C59.2461457,135.315527 59.2409308,135.04293 59.2312459,134.765104 C59.1589818,132.644073 58.6002386,130.909906 57.7390291,129.576793 C57.096102,128.576771 56.2967268,127.813499 55.4757468,127.25038 C54.2420419,126.404208 52.9718324,125.992698 51.9713097,125.778354 C50.9685519,125.565504 50.225051,125.551314 50.0075137,125.550567 L49.9471694,125.551314 C49.0330656,125.570732 48.3066995,126.329524 48.3253242,127.246646 C48.345439,128.163768 49.1016047,128.891192 50.0171985,128.872521" id="Fill-96" fill="#0D82DC"></path>
                        <path d="M42.9019395,98.3019614 C42.9943184,98.2272772 45.1391472,96.5424016 47.2981308,93.3556267 C49.4548794,90.1755733 51.6302528,85.4517975 51.6302528,79.4240355 C51.6302528,77.2215984 51.3389614,74.8518687 50.6610197,72.3387452 C50.4226226,71.4529906 49.5129887,70.9294543 48.6294295,71.1684438 C47.7466153,71.4081801 47.2243767,72.3193273 47.4627738,73.205082 C48.0662164,75.4433675 48.3165333,77.5143605 48.3165333,79.4240355 C48.3157883,84.6347524 46.4466062,88.6953325 44.5573093,91.4900153 C43.6134058,92.8836225 42.6687574,93.9516066 41.9684659,94.6603597 C41.6190652,95.0151097 41.3314987,95.2802386 41.1363111,95.4520123 C41.0387173,95.5371523 40.9642182,95.599887 40.9180288,95.6387228 L40.8688594,95.6790522 L40.8606645,95.6857738 L41.2078302,96.1256638 L40.8636444,95.6835333 L40.8606645,95.6857738 L41.2078302,96.1256638 L40.8636444,95.6835333 C40.1417483,96.2481459 40.0136098,97.2914842 40.576823,98.0144273 C41.1400361,98.7373703 42.1807883,98.866574 42.9019395,98.3019614" id="Fill-98" fill="#0D82DC"></path>
                        <path d="M136.52055,94.1097878 C136.408056,94.1553451 132.674907,95.493686 128.806914,98.27866 C126.873662,99.6767482 124.895712,101.441536 123.349856,103.667125 C121.808469,105.884499 120.707373,108.618688 120.711843,111.733766 C120.710353,113.473161 121.052304,115.309646 121.785375,117.195422 C122.512486,119.072982 123.690316,120.690642 125.144539,122.020021 C127.331832,124.01633 130.121078,125.397241 133.19789,126.306148 C136.277683,127.212067 139.660686,127.641501 143.101799,127.642248 C146.7083,127.641501 150.37738,127.168003 153.819983,126.225489 C157.261841,125.28148 160.480947,123.872189 163.168874,121.934881 C170.479469,116.665164 173.627056,109.699368 173.624076,103.759734 C173.621096,100.669301 172.782236,97.8275674 171.137296,95.6505229 C170.314081,94.5668551 169.280779,93.654961 168.068679,93.0201453 C166.858069,92.3838359 165.472386,92.0365543 164.024123,92.038048 C162.075972,92.038048 160.042147,92.6497116 158.024712,93.8468994 C156.003551,95.0455808 153.977921,96.8282927 151.950801,99.2644914 C147.07707,105.133176 144.499402,112.089263 144.494187,118.710764 C144.494187,121.613739 144.994821,124.453979 146.034083,127.088091 C147.585899,131.038139 150.378125,134.510954 154.347437,136.928482 C158.315258,139.351984 163.410996,140.721692 169.563131,140.720199 C177.41757,140.716464 187.018267,138.51328 198.532846,133.365298 C199.660018,132.86118 200.166611,131.537029 199.662998,130.40631 C199.160129,129.276338 197.83926,128.769233 196.711344,129.273351 C185.610234,134.242091 176.573495,136.242881 169.563131,136.239146 C165.897775,136.239146 162.785948,135.696939 160.191145,134.768615 C156.298568,133.369033 153.554021,131.13 151.716874,128.373406 C149.885686,125.616065 148.965622,122.295606 148.964132,118.710764 C148.958917,113.267779 151.124606,107.252714 155.384464,102.133112 C157.155307,100.000878 158.830047,98.5729157 160.299169,97.7043384 C161.772761,96.8327738 163.016896,96.5191001 164.024123,96.5191001 C164.778054,96.5213407 165.414276,96.6886333 165.997604,96.9918512 C166.866264,97.4466779 167.641054,98.2457989 168.221402,99.4048977 C168.798025,100.558769 169.155621,102.058427 169.154131,103.759734 C169.151151,108.122785 166.841679,113.755467 160.556936,118.298507 C158.421047,119.842977 155.669795,121.076013 152.642152,121.902767 C149.614509,122.733255 146.314945,123.161943 143.101799,123.161196 C139.014034,123.16493 135.066327,122.459911 132.008885,121.123811 C130.479418,120.459121 129.174939,119.642076 128.158027,118.710764 C127.140369,117.776465 126.406553,116.741342 125.950619,115.57104 C125.402305,114.153534 125.182533,112.890624 125.181788,111.733766 C125.185513,109.676963 125.876865,107.886036 127.021916,106.223565 C127.878655,104.984555 128.993162,103.848608 130.196322,102.856802 C131.99771,101.369092 133.99056,100.212981 135.515557,99.4482146 C136.278428,99.0658315 136.92359,98.7790441 137.371329,98.5908399 C137.594081,98.4974847 137.768409,98.4280284 137.882393,98.3839647 L138.007551,98.3361668 L138.033626,98.3264579 L138.034371,98.3264579 C139.196557,97.9067326 139.798509,96.623658 139.38057,95.4593313 C138.96263,94.2950046 137.682735,93.6908094 136.521295,94.1097878 L136.52055,94.1097878 Z" id="Fill-100" fill="#CFE6F8"></path>
                    </g>
                    <g id="Group-105" transform="translate(23.094718, 157.964557)">
                        <mask id="mask-4" fill="white">
                            <use xlink:href="#path-3"></use>
                        </mask>
                        <g id="Clip-104"></g>
                        <polygon id="Fill-103" fill="#E0EFFA" mask="url(#mask-4)" points="0.447739526 10.3310657 44.6510291 10.3310657 44.6510291 0.622119408 0.447739526 0.622119408"></polygon>
                    </g>
                    <path d="M32.7725219,159.494687 C31.5134872,159.693347 30.3527914,159.91964 29.3112942,160.170579 C29.9706111,161.43797 30.8020209,162.414092 31.5052923,163.11239 C32.3314872,163.929435 32.9908042,164.367831 33.0571084,164.412642 C33.3379699,164.597112 33.6538461,164.685239 33.9659973,164.685239 C34.5046257,164.685239 35.0335692,164.422351 35.3516803,163.936903 C35.8530592,163.172137 35.6429718,162.145229 34.8823361,161.640364 L34.8771211,161.63663 C34.7951721,161.58211 33.9227878,160.963725 33.1129827,159.948767 C32.9975091,159.804626 32.8827805,159.653017 32.7725219,159.494687" id="Fill-106" fill="#0D82DC"></path>
                </g>
            </g>
        </g>
    </g>
</svg>