<svg xmlns="http://www.w3.org/2000/svg" viewBox="0 0 150 120" width="150px" height="120px"><defs><style>.a{fill:#b9e6c1;}.b{fill:#a8e0b2;}.c{fill:#d3e3f5;}.d{fill:#d4f0d9;}.e{fill:#f5da66;}.f{fill:none;stroke:#b9e6c1;stroke-miterlimit:10;stroke-width:2.1px;}</style></defs><title>cash-flow</title><path class="a" d="M59.82,84.34A1.54,1.54,0,0,0,58.5,86l1,12.73a2.71,2.71,0,0,0,1.43,2l14.76,6.74a5.2,5.2,0,0,0,2.73.31l48.15-9.89a2,2,0,0,0,1.48-1.74l.47-10.2a1.85,1.85,0,0,0-1.34-1.8l-20.75-5.21a9.19,9.19,0,0,0-2.84-.17Z"/><path class="b" d="M60.93,86.66q2.13.79,4.25,1.62L69.4,90l4.2,1.72,4.19,1.76-.44-.06c2-.4,4-.74,6-1.11s4-.71,6-1.06,4-.69,6-1,4-.65,6-1l6-.89c2-.27,4-.57,6-.82l3-.38,3-.36q3-.36,6-.63c-2,.48-3.94.94-5.92,1.36l-3,.64-3,.61c-2,.41-4,.78-6,1.17l-6,1.1q-3,.54-6,1c-2,.31-4,.67-6,1s-4,.65-6,.94-4,.61-6,.88h0a.69.69,0,0,1-.4-.06l-4.09-2-4.07-2-4-2.06Q62.93,87.74,60.93,86.66Z"/><path class="b" d="M77.58,96.91s.07.15.17.41a10.1,10.1,0,0,1,.37,1.08,14.76,14.76,0,0,1,.36,3.28,14.6,14.6,0,0,1-.36,3.33,10,10,0,0,1-.32,1.08,4.37,4.37,0,0,1-.17.41,4.37,4.37,0,0,1-.17-.41,10,10,0,0,1-.34-1.08,14.61,14.61,0,0,1-.35-3.28,14.76,14.76,0,0,1,.35-3.33,10.11,10.11,0,0,1,.32-1.08Q77.5,97.11,77.58,96.91Z"/><path class="c" d="M80.84,87.35l1.93-.61A1.77,1.77,0,0,1,82,85.17l1.53-.2a1.6,1.6,0,0,0,.7,1.49,3.54,3.54,0,0,0,3.13.42c1.05-.34,1.29-.87,1.08-1.69-.31-1.11-.1-1.93,1.56-2.46a6.23,6.23,0,0,1,4.67.31l1.93-.61.66.53-1.85.59a1.64,1.64,0,0,1,.72,1.3L94.59,85a1.48,1.48,0,0,0-.68-1.28,3.09,3.09,0,0,0-2.79-.35c-1,.32-1.1.79-.87,1.75.29,1.13-.16,1.89-1.86,2.44a6.66,6.66,0,0,1-4.92-.31l-2,.63Z"/><path class="b" d="M81.63,97.53l1.67-.38c1.07-.22,2.58-.57,4.42-.94s4-.8,6.26-1.23,4.74-.87,7.2-1.3l3.66-.62,3.55-.57c2.31-.36,4.46-.69,6.31-.94l4.48-.59,1.7-.2-1.67.38c-1.07.22-2.58.57-4.42.94s-4,.8-6.26,1.23L105,94l-3.66.65c-2.45.41-4.91.83-7.21,1.19s-4.46.68-6.31.94-3.4.45-4.48.59Z"/><path class="b" d="M82.86,100.14l1.67-.38c1.07-.22,2.58-.57,4.42-.94s4-.8,6.26-1.23,4.74-.87,7.2-1.3l3.66-.62,3.55-.57c2.3-.36,4.46-.68,6.31-.94s3.4-.45,4.48-.59l1.7-.2-1.67.38c-1.07.22-2.58.57-4.42.94s-4,.8-6.26,1.23l-3.54.65-3.66.65c-2.45.41-4.91.83-7.21,1.19s-4.46.68-6.31.94-3.4.45-4.48.59Z"/><path class="b" d="M84.12,102.45l1.67-.38c1.07-.22,2.59-.57,4.42-.94s4-.8,6.26-1.23,4.74-.87,7.2-1.3L107.3,98l3.55-.57c2.31-.36,4.46-.68,6.31-.94s3.4-.45,4.48-.59l1.7-.2-1.67.38c-1.07.22-2.58.57-4.42.94s-4,.8-6.26,1.23l-3.54.65-3.66.65c-2.45.41-4.91.83-7.21,1.19s-4.46.68-6.31.94-3.4.45-4.48.59Z"/><path class="b" d="M61.12,90s.88.23,2.16.69c.64.23,1.37.51,2.16.83s1.6.68,2.43,1.05l1.21.57c.4.18.79.39,1.17.58.75.38,1.45.76,2,1.09,1.18.66,1.93,1.18,1.93,1.18s-.88-.23-2.16-.69c-.64-.23-1.38-.51-2.16-.83-.39-.16-.8-.32-1.2-.51l-1.23-.55c-.81-.38-1.63-.77-2.38-1.15s-1.45-.76-2-1.09C61.91,90.5,61.12,90,61.12,90Z"/><path class="b" d="M61.47,93.37s.88.23,2.16.69c.64.23,1.37.51,2.16.83s1.6.68,2.43,1l1.21.57c.4.18.79.39,1.16.58.75.38,1.45.76,2,1.09,1.18.66,1.93,1.18,1.93,1.18s-.88-.23-2.16-.69c-.64-.23-1.37-.51-2.16-.83-.39-.16-.8-.32-1.2-.51l-1.23-.55c-.81-.38-1.63-.77-2.38-1.15s-1.45-.76-2-1.09A18.6,18.6,0,0,1,61.47,93.37Z"/><path class="b" d="M61.78,96.91s.88.23,2.16.69c.64.23,1.37.51,2.16.83s1.6.68,2.43,1.05l1.21.57c.4.18.79.39,1.16.58.75.38,1.45.76,2,1.09,1.18.66,1.93,1.18,1.93,1.18s-.88-.23-2.16-.69c-.64-.23-1.37-.51-2.16-.83-.39-.16-.8-.32-1.2-.51l-1.19-.53c-.81-.38-1.63-.77-2.38-1.15s-1.45-.76-2-1.09C62.53,97.43,61.78,96.91,61.78,96.91Z"/><path class="d" d="M65.71,66.34A1.54,1.54,0,0,0,64.39,68l1,12.73a2.71,2.71,0,0,0,1.43,2l14.76,6.74a5.2,5.2,0,0,0,2.73.31l48.15-9.89a2,2,0,0,0,1.48-1.74l.47-10.2a1.85,1.85,0,0,0-1.34-1.8l-20.74-5.22a9.18,9.18,0,0,0-2.84-.17Z"/><path class="b" d="M66.82,68.65q2.13.79,4.25,1.62l4.22,1.68,4.2,1.72,4.19,1.76-.44-.06c2-.4,4-.74,6-1.11s4-.71,6-1.06,4-.69,6-1,4-.65,6-1l6-.89c2-.27,4-.57,6-.82l3-.38,3-.36q3-.36,6-.63c-2,.48-3.94.94-5.92,1.36l-3,.64-3,.61c-2,.41-4,.78-6,1.17l-6,1.1q-3,.54-6,1c-2,.31-4,.67-6,1s-4,.65-6,.94-4,.61-6,.88h0a.69.69,0,0,1-.4-.06l-4.09-2-4.07-2-4-2.06Q68.82,69.73,66.82,68.65Z"/><path class="b" d="M83.47,78.91s.07.15.17.41A10.11,10.11,0,0,1,84,80.4a14.76,14.76,0,0,1,.36,3.28A14.61,14.61,0,0,1,84,87a10,10,0,0,1-.33,1,4.36,4.36,0,0,1-.17.41A4.36,4.36,0,0,1,83.3,88,10,10,0,0,1,83,86.93a14.61,14.61,0,0,1-.35-3.28A14.76,14.76,0,0,1,83,80.37a10.07,10.07,0,0,1,.32-1.08A1.59,1.59,0,0,1,83.47,78.91Z"/><path class="c" d="M86.73,69.34l1.93-.62a1.77,1.77,0,0,1-.78-1.57l1.53-.2a1.6,1.6,0,0,0,.7,1.49,3.54,3.54,0,0,0,3.13.42c1.05-.33,1.29-.87,1.08-1.69-.31-1.11-.1-1.93,1.56-2.46a6.22,6.22,0,0,1,4.67.31l1.93-.62.66.53-1.85.59a1.64,1.64,0,0,1,.71,1.32l-1.53.17a1.48,1.48,0,0,0-.68-1.28A3.09,3.09,0,0,0,97,65.35c-1,.32-1.1.79-.87,1.75.29,1.13-.16,1.89-1.86,2.44a6.67,6.67,0,0,1-4.92-.31l-2,.63Z"/><path class="b" d="M87.52,79.52l1.67-.38c1.07-.22,2.59-.57,4.42-.94s4-.8,6.26-1.23,4.74-.87,7.2-1.3l3.65-.66,3.55-.57c2.31-.36,4.46-.69,6.31-.94l4.48-.59,1.7-.2-1.67.38c-1.07.22-2.58.57-4.42.94s-4,.8-6.26,1.23l-3.54.65-3.66.65c-2.45.41-4.91.83-7.22,1.19s-4.46.68-6.31.94-3.4.45-4.48.59Z"/><path class="b" d="M88.75,82.14l1.67-.38c1.07-.22,2.58-.57,4.42-.94s4-.8,6.26-1.23,4.74-.87,7.2-1.3l3.66-.62,3.55-.57c2.31-.36,4.46-.68,6.31-.94s3.4-.45,4.48-.59l1.7-.2-1.67.38c-1.07.22-2.58.57-4.42.94s-4,.8-6.26,1.23l-3.54.65-3.66.65c-2.45.41-4.91.83-7.21,1.19s-4.46.68-6.31.94-3.4.45-4.48.59Z"/><path class="b" d="M90,84.45l1.67-.38c1.07-.22,2.58-.57,4.42-.94s4-.8,6.26-1.23,4.74-.87,7.2-1.3l3.66-.62,3.55-.57c2.31-.36,4.46-.68,6.31-.94s3.4-.45,4.48-.59l1.7-.2-1.67.38c-1.07.22-2.58.57-4.42.94s-4,.8-6.26,1.23l-3.54.65-3.66.65c-2.45.41-4.91.83-7.21,1.19s-4.46.68-6.31.94-3.4.45-4.48.59Z"/><path class="b" d="M67.05,72s.88.23,2.16.69c.64.23,1.37.51,2.16.83s1.6.68,2.43,1.05l1.21.57c.4.18.79.39,1.17.58.75.38,1.45.76,2,1.09A16.88,16.88,0,0,1,80.12,78s-.88-.23-2.16-.69c-.64-.23-1.37-.51-2.16-.83-.39-.16-.8-.32-1.2-.51l-1.23-.55c-.81-.38-1.63-.77-2.38-1.15s-1.45-.76-2-1.09C67.8,72.5,67.05,72,67.05,72Z"/><path class="b" d="M67.35,75.37s.88.23,2.16.69c.64.23,1.37.51,2.16.83s1.6.68,2.43,1.05l1.21.57c.4.18.79.39,1.17.58.75.38,1.45.76,2,1.09,1.18.66,1.93,1.18,1.93,1.18s-.88-.23-2.16-.69c-.64-.23-1.38-.51-2.16-.83-.39-.16-.8-.32-1.2-.51l-1.23-.55c-.77-.37-1.54-.77-2.34-1.14a20.35,20.35,0,0,1-2-1.09C68.12,75.88,67.35,75.37,67.35,75.37Z"/><path class="b" d="M67.66,78.91s.88.23,2.16.69c.64.23,1.37.51,2.16.83s1.6.68,2.43,1.05l1.21.57c.4.18.79.39,1.16.58.75.38,1.45.76,2,1.09,1.18.66,1.93,1.18,1.93,1.18s-.88-.23-2.16-.69c-.64-.23-1.37-.51-2.16-.83-.39-.17-.8-.32-1.2-.51L74,82.32c-.81-.38-1.63-.77-2.38-1.15s-1.45-.76-2-1.09C68.41,79.42,67.66,78.91,67.66,78.91Z"/><path class="a" d="M47.71,53.18a1.54,1.54,0,0,0-1.32,1.63l1,12.73a2.71,2.71,0,0,0,1.43,2l14.76,6.74a5.2,5.2,0,0,0,2.73.31l48.15-9.89A2,2,0,0,0,115.92,65l.47-10.2a1.85,1.85,0,0,0-1.34-1.8L94.31,47.79a9.19,9.19,0,0,0-2.84-.17Z"/><path class="b" d="M48.81,55.5q2.13.79,4.25,1.62l4.22,1.68,4.2,1.72,4.19,1.76-.44-.06c2-.4,4-.74,6-1.11s4-.71,6-1.06,4-.69,6-1,4-.65,6-1l6-.89c2-.27,4-.57,6-.82l2.89-.33,3-.36q3-.36,6-.63c-2,.48-3.94.94-5.92,1.36l-3,.64-3,.61c-2,.41-4,.78-6,1.17l-6,1.1q-3,.54-6,1c-2,.31-4,.67-6,1s-4,.65-6,.94-4,.61-6,.88h0a.69.69,0,0,1-.4-.06l-4.09-2-4.07-2-4-2.06Q50.81,56.58,48.81,55.5Z"/><path class="b" d="M65.47,65.75s.07.15.17.41A10.12,10.12,0,0,1,66,67.24a14.76,14.76,0,0,1,.36,3.28A14.61,14.61,0,0,1,66,73.8a10,10,0,0,1-.32,1.08,4.38,4.38,0,0,1-.17.41,4.38,4.38,0,0,1-.17-.41A10,10,0,0,1,65,73.8a14.61,14.61,0,0,1-.35-3.28A14.76,14.76,0,0,1,65,67.24a10.12,10.12,0,0,1,.32-1.08Q65.39,66,65.47,65.75Z"/><path class="c" d="M68.72,56.19l1.93-.62A1.77,1.77,0,0,1,69.88,54l1.53-.2a1.6,1.6,0,0,0,.7,1.49,3.54,3.54,0,0,0,3.13.42c1.05-.33,1.29-.87,1.08-1.69-.31-1.11-.1-1.93,1.56-2.46a6.22,6.22,0,0,1,4.67.31l1.93-.62.66.53-1.85.59A1.64,1.64,0,0,1,84,53.7l-1.53.19a1.48,1.48,0,0,0-.68-1.28A3.09,3.09,0,0,0,79,52.23c-1,.32-1.1.79-.87,1.75.29,1.13-.16,1.9-1.86,2.44a6.66,6.66,0,0,1-4.92-.31l-2,.63Z"/><path class="b" d="M69.51,66.36,71.18,66c1.07-.22,2.58-.57,4.42-.94s4-.8,6.26-1.23,4.74-.87,7.2-1.3l3.66-.62,3.55-.57c2.31-.36,4.46-.69,6.31-.94l4.48-.59,1.7-.2-1.64.39c-1.07.22-2.58.57-4.42.94s-4,.8-6.26,1.23l-3.54.65-3.66.65c-2.45.41-4.91.83-7.21,1.19s-4.46.68-6.31.94-3.4.45-4.48.59Z"/><path class="b" d="M70.74,69l1.67-.38c1.07-.22,2.58-.57,4.42-.94s4-.8,6.26-1.23,4.74-.87,7.2-1.3L94,64.54,97.5,64c2.31-.36,4.46-.69,6.31-.94l4.48-.59,1.7-.2-1.67.38c-1.07.22-2.58.57-4.42.94s-4,.8-6.26,1.23l-3.52.62-3.68.6c-2.45.41-4.91.83-7.21,1.19s-4.46.68-6.31.94-3.4.45-4.48.59Z"/><path class="b" d="M72,71.29l1.67-.38c1.07-.22,2.58-.57,4.42-.94s4-.8,6.26-1.23,4.74-.87,7.2-1.3l3.66-.62,3.55-.57c2.31-.36,4.46-.68,6.31-.94s3.4-.45,4.48-.59l1.7-.2-1.67.38c-1.07.22-2.58.57-4.42.94s-4,.8-6.26,1.23l-3.54.65-3.66.65c-2.45.41-4.91.83-7.21,1.19s-4.46.68-6.31.94-3.4.45-4.48.59Z"/><path class="b" d="M49,58.82s.88.23,2.16.69c.64.23,1.37.51,2.16.83s1.6.68,2.43,1L57,62c.4.18.79.39,1.17.58.75.38,1.45.76,2,1.09,1.18.66,1.93,1.18,1.93,1.18s-.88-.23-2.16-.69c-.64-.23-1.37-.51-2.16-.83-.39-.16-.8-.32-1.2-.51l-1.23-.55c-.81-.38-1.63-.77-2.38-1.15s-1.45-.76-2-1.09C49.79,59.34,49,58.82,49,58.82Z"/><path class="b" d="M49.35,62.21s.88.23,2.16.69c.64.23,1.37.51,2.16.83s1.6.68,2.43,1l1.21.57c.4.18.79.39,1.17.58.75.38,1.45.76,2,1.09,1.18.66,1.93,1.18,1.93,1.18s-.88-.23-2.16-.69c-.64-.23-1.38-.51-2.16-.83-.39-.17-.8-.32-1.2-.51l-1.23-.55c-.81-.38-1.63-.77-2.38-1.15s-1.45-.76-2-1.09C50.12,62.73,49.35,62.21,49.35,62.21Z"/><path class="b" d="M49.66,65.75s.88.23,2.16.69c.64.23,1.37.51,2.16.83s1.6.68,2.43,1.05l1.21.57c.4.18.79.39,1.16.58.75.38,1.45.76,2,1.09,1.18.66,1.93,1.18,1.93,1.18s-.88-.23-2.16-.69c-.64-.23-1.37-.51-2.15-.83-.39-.16-.8-.32-1.2-.51L56,69.16c-.81-.38-1.63-.77-2.38-1.15s-1.45-.76-2-1.09C50.41,66.27,49.66,65.75,49.66,65.75Z"/><path class="d" d="M55,35.17a1.54,1.54,0,0,0-1.32,1.63l1,12.73a2.71,2.71,0,0,0,1.43,2l14.73,6.79a5.2,5.2,0,0,0,2.73.31l48.15-9.89A2,2,0,0,0,123.19,47l.47-10.2a1.85,1.85,0,0,0-1.34-1.8l-20.74-5.23a9.19,9.19,0,0,0-2.84-.17Z"/><path class="b" d="M56.12,37.49q2.13.79,4.25,1.62l4.22,1.68,4.2,1.72L73,44.27l-.44-.06c2-.4,4-.74,6-1.11s4-.71,6-1.06,4-.69,6-1,4-.65,6-1l6-.89c2-.27,4-.57,6-.82l3-.38,3-.36q3-.36,6-.63c-2,.48-3.94.94-5.92,1.36l-3,.64-3,.61c-2,.41-4,.78-6,1.17l-6,1.1q-3,.54-6,1c-2,.31-4,.67-6,1s-4,.65-6,.94-4,.61-6,.88h0a.69.69,0,0,1-.4-.06l-4.09-2-4.07-2-3.94-2Q58.12,38.57,56.12,37.49Z"/><path class="b" d="M72.74,47.74s.07.15.17.41a10.08,10.08,0,0,1,.32,1.08,14.75,14.75,0,0,1,.36,3.28,14.6,14.6,0,0,1-.35,3.28,10,10,0,0,1-.32,1.08,4.37,4.37,0,0,1-.17.41,4.37,4.37,0,0,1-.17-.41,10,10,0,0,1-.32-1.08,14.6,14.6,0,0,1-.35-3.28,14.75,14.75,0,0,1,.36-3.28,10.12,10.12,0,0,1,.32-1.08Q72.66,47.94,72.74,47.74Z"/><path class="b" d="M94.06,36c.53.47.51,1-.6,1.3-2.41.77-4.44.89-5.25.47-1-.6.19-1,1.24-1.32s1.32-.48-.79-.72-5.28-.41-3.79.79,2.32,2.73.65,3a12.59,12.59,0,0,1-6.79-1.18l-2.61.44a1.82,1.82,0,0,1-1.32-.22.24.24,0,0,1-.11-.19c-.13-.3.28-.61.94-.7l1.54-.24c-.76-.67-.74-1.22-.6-1.63a1.79,1.79,0,0,1,2.18-.62c1.1.38,0,1.26,1.24,2.14s4.4,1.14,3.06.19-3-3-.58-3.41a22.53,22.53,0,0,1,8.29.54,15.46,15.46,0,0,1,1.52.45l3.25-.48c.62-.12,1.34,0,1.46.36s-.26.61-.88.73Z"/><path class="b" d="M76.78,48.36,78.45,48c1.07-.22,2.58-.57,4.42-.94s4-.8,6.26-1.23,4.74-.87,7.2-1.3l3.66-.62,3.55-.57c2.31-.36,4.46-.68,6.31-.94s3.4-.45,4.48-.59l1.7-.2-1.67.38c-1.07.22-2.58.57-4.42.94s-4,.8-6.26,1.23l-3.56.62-3.66.65c-2.45.41-4.91.83-7.21,1.19s-4.46.68-6.31.94-3.4.45-4.48.59Z"/><path class="b" d="M78,51l1.67-.38c1.07-.22,2.59-.57,4.42-.94s4-.8,6.26-1.23,4.74-.87,7.2-1.3l3.66-.62,3.55-.57c2.31-.36,4.46-.69,6.31-.94l4.48-.59,1.7-.2-1.67.38c-1.07.22-2.58.57-4.42.94s-4,.8-6.26,1.23l-3.54.65L97.72,48c-2.45.41-4.91.83-7.21,1.19s-4.46.68-6.31.94-3.4.45-4.48.59Z"/><path class="b" d="M79.24,53.28l1.67-.38c1.07-.22,2.59-.57,4.42-.94s4-.8,6.26-1.23,4.74-.87,7.2-1.3l3.66-.62,3.55-.57c2.31-.36,4.46-.69,6.31-.94l4.48-.59,1.7-.2-1.67.38c-1.07.22-2.58.57-4.42.94s-4,.8-6.26,1.23l-3.54.65-3.66.65c-2.45.41-4.91.83-7.22,1.19s-4.46.68-6.31.94-3.4.45-4.48.59Z"/><path class="b" d="M56.31,40.82s.88.23,2.16.69c.64.23,1.37.51,2.16.83s1.6.68,2.43,1l1.21.57c.4.18.79.39,1.17.58.75.38,1.45.76,2,1.09,1.18.66,1.93,1.18,1.93,1.18s-.88-.23-2.16-.69c-.64-.23-1.38-.51-2.16-.83-.39-.16-.8-.32-1.2-.51l-1.23-.55c-.81-.38-1.63-.77-2.38-1.15s-1.45-.76-2-1.09C57.06,41.34,56.31,40.82,56.31,40.82Z"/><path class="b" d="M56.62,44.2s.88.23,2.16.69c.64.23,1.37.51,2.16.83s1.6.68,2.43,1l1.21.57c.4.18.79.39,1.17.58.75.38,1.45.76,2,1.09,1.18.66,1.93,1.18,1.93,1.18s-.88-.23-2.16-.69c-.64-.23-1.38-.51-2.16-.83-.39-.16-.8-.32-1.2-.51l-1.23-.55c-.81-.38-1.63-.77-2.38-1.15s-1.45-.76-2-1.09C57.37,44.72,56.62,44.2,56.62,44.2Z"/><path class="b" d="M56.93,47.74s.88.23,2.16.69c.64.23,1.37.51,2.16.83s1.6.68,2.43,1l1.21.57c.4.18.79.39,1.17.58.75.38,1.45.76,2,1.09,1.18.66,1.93,1.18,1.93,1.18A19.62,19.62,0,0,1,67.85,53c-.64-.23-1.37-.51-2.16-.83-.39-.16-.8-.32-1.2-.51l-1.23-.55c-.81-.38-1.63-.77-2.38-1.15s-1.45-.76-2-1.09A19.33,19.33,0,0,1,56.93,47.74Z"/><polygon class="e" points="73.45 24.11 75.95 21.69 74.42 24.82 77.5 26.45 74.06 25.96 73.45 29.4 72.86 25.96 69.41 26.45 72.48 24.82 70.95 21.69 73.45 24.11"/><polygon class="e" points="85.78 18.12 89.78 14.25 87.33 19.25 92.23 21.85 86.73 21.07 85.78 26.55 84.81 21.07 79.31 21.85 84.22 19.25 81.78 14.25 85.78 18.12"/><polygon class="e" points="75.97 14.03 77.91 12.15 76.72 14.57 79.11 15.84 76.44 15.46 75.97 18.12 75.5 15.46 72.83 15.84 75.22 14.57 74.03 12.15 75.97 14.03"/><line class="f" x1="29.61" y1="54.64" x2="41.73" y2="54.64"/><line class="f" x1="15.58" y1="68.21" x2="41.73" y2="68.21"/><line class="f" x1="29.61" y1="81.77" x2="41.73" y2="81.77"/></svg>
