<svg xmlns="http://www.w3.org/2000/svg" viewBox="0 0 64 64" width="64px" height="64px"><defs><style>.a{fill:#fff;}</style></defs><title>checkmark-circle</title><path class="a" d="M31.85,63.1A30.1,30.1,0,0,1,19.7,60.62a31.85,31.85,0,0,1-9.91-6.7A31.41,31.41,0,0,1,3.12,44,30.44,30.44,0,0,1,.68,31.86,30.44,30.44,0,0,1,3.12,19.7,31.13,31.13,0,0,1,19.7,3.13,30.44,30.44,0,0,1,31.85.68,30.44,30.44,0,0,1,44,3.13a31.41,31.41,0,0,1,9.91,6.67,31.85,31.85,0,0,1,6.7,9.91A30.1,30.1,0,0,1,63.1,31.86,30.1,30.1,0,0,1,60.62,44,31.53,31.53,0,0,1,44,60.62,30.1,30.1,0,0,1,31.85,63.1Zm0-58.54A26.47,26.47,0,0,0,21.22,6.71,27.34,27.34,0,0,0,6.71,21.22,26.47,26.47,0,0,0,4.55,31.86,26.47,26.47,0,0,0,6.71,42.49a28.07,28.07,0,0,0,5.84,8.7,27.09,27.09,0,0,0,19.3,8A26.81,26.81,0,0,0,42.49,57,27.17,27.17,0,0,0,57,42.49a26.81,26.81,0,0,0,2.13-10.64A26.25,26.25,0,0,0,57,21.25a28.17,28.17,0,0,0-5.84-8.67,27.41,27.41,0,0,0-8.67-5.87A26.47,26.47,0,0,0,31.85,4.55ZM29.63,44a1.91,1.91,0,0,1-.92-.22,2.47,2.47,0,0,1-.73-.6l-4.57-6.67A1.86,1.86,0,0,1,23,35.41a1.83,1.83,0,0,1,.57-1.33,2,2,0,0,1,2.32-.35,1.83,1.83,0,0,1,.67.6l3,4.32L40.55,22.91a1.83,1.83,0,0,1,.67-.6,1.91,1.91,0,0,1,.92-.22,2,2,0,0,1,1.3.44,1.87,1.87,0,0,1,.67,1.14V24a1.86,1.86,0,0,1-.38,1.14L31.22,43.22a1.77,1.77,0,0,1-.7.6A2,2,0,0,1,29.63,44Z"/></svg>
