<svg xmlns="http://www.w3.org/2000/svg" viewBox="0 0 210 143" width="210px" height="143px"><defs><style>.cls-1{isolation:isolate;}.cls-2{fill:#9acdf1;}.cls-3{fill:#f1f1f1;}.cls-4{fill:#e5e5e5;}.cls-14,.cls-5,.cls-7,.cls-8{mix-blend-mode:multiply;}.cls-6,.cls-7,.cls-8{fill:#efc100;}.cls-7{opacity:0.29;}.cls-8{opacity:0.45;}.cls-14,.cls-9{fill:#a8e0b2;}.cls-10{fill:#f93ea0;}.cls-11{fill:#f4d75d;}.cls-12{fill:#0d82dc;}.cls-13{fill:#f478c5;}.cls-14{opacity:0.47;}.cls-15,.cls-18{fill:#fff;}.cls-16{fill:#638e0e;}.cls-17{fill:#86c620;}.cls-18{opacity:0.49;}</style></defs><title>education stuff</title><g class="cls-1"><g id="Layer_1" data-name="Layer 1"><path class="cls-2" d="M178.19,67.59v21a4.73,4.73,0,0,1-1.34,3.3l-29.75,30.51a2.44,2.44,0,0,1-2.14.71L30.47,104.46a.71.71,0,0,1-.18-1.34L85.52,78.66l82.42,10.57V69.64Z"/><polygon class="cls-3" points="145.8 89.8 145.8 118.66 34.65 101.5 32.7 76.81 144.98 90.37 145.8 89.8"/><polygon class="cls-4" points="175.42 69.26 175.42 90.44 146.07 118.7 145.8 118.66 145.8 89.8 175.42 69.26"/><path class="cls-2" d="M178.19,67.58l-30.34,24.6L81.39,84,30.77,77.75a.71.71,0,0,1-.18-1.36l7.49-3.11L75.55,57.72a2.88,2.88,0,0,1,1.37-.21Z"/><g class="cls-5"><path class="cls-3" d="M36.33,80.12l4.46.53c2.83.37,6.89.84,11.74,1.5S63,83.53,69.1,84.39l19,2.7L107,90c6.05.91,11.69,1.85,16.52,2.62s8.85,1.48,11.67,1.94l4.42.77-4.46-.53c-2.83-.37-6.89-.84-11.74-1.49S112.94,91.89,106.88,91l-19-2.71-19-2.87c-6.05-.91-11.69-1.85-16.52-2.62s-8.85-1.48-11.67-1.94Z"/></g><g class="cls-5"><path class="cls-3" d="M36.33,83.4l4.46.53c2.83.37,6.89.84,11.74,1.5S63,86.81,69.1,87.67l19,2.7,19,2.87c6.05.91,11.69,1.85,16.52,2.62s8.85,1.48,11.67,1.94l4.42.77L135.2,98c-2.83-.37-6.89-.84-11.74-1.49s-10.52-1.38-16.58-2.24l-19-2.71-19-2.87c-6.05-.91-11.69-1.85-16.52-2.62s-8.85-1.48-11.67-1.94Z"/></g><g class="cls-5"><path class="cls-3" d="M36.33,86.68l4.46.53c2.83.37,6.89.84,11.74,1.5S63,90.09,69.1,91l19,2.7,19,2.87c6.05.91,11.69,1.85,16.52,2.62s8.85,1.48,11.67,1.94l4.42.77-4.46-.53c-2.83-.37-6.89-.84-11.74-1.49s-10.52-1.38-16.58-2.24l-19-2.71L68.94,92c-6.05-.91-11.69-1.85-16.52-2.62s-8.85-1.48-11.67-1.94Z"/></g><g class="cls-5"><path class="cls-3" d="M36.33,90l4.46.53c2.83.37,6.89.84,11.74,1.5S63,93.37,69.1,94.23l19,2.7,19,2.87c6.05.91,11.69,1.85,16.52,2.62s8.85,1.48,11.67,1.94l4.42.77-4.46-.53c-2.83-.37-6.89-.84-11.74-1.49s-10.52-1.38-16.58-2.24l-19-2.71-19-2.87c-6.05-.91-11.69-1.85-16.52-2.62s-8.85-1.48-11.67-1.94Z"/></g><g class="cls-5"><path class="cls-3" d="M36.33,93.24l4.46.53c2.83.37,6.89.84,11.74,1.5S63,96.65,69.1,97.51l19,2.7,19,2.87c6.05.91,11.69,1.85,16.52,2.62s8.85,1.48,11.67,1.94l4.42.77-4.46-.53c-2.83-.37-6.89-.84-11.74-1.49s-10.52-1.38-16.58-2.24l-19-2.71-19-2.87c-6.05-.91-11.69-1.85-16.52-2.62S43.57,94.47,40.75,94Z"/></g><g class="cls-5"><path class="cls-3" d="M36.33,96.52l4.46.53c2.83.37,6.89.84,11.74,1.5S63,99.93,69.1,100.79l19,2.7,19,2.87c6.05.91,11.69,1.85,16.52,2.62s8.85,1.48,11.67,1.94l4.42.77-4.46-.53c-2.83-.37-6.89-.84-11.74-1.49s-10.52-1.38-16.58-2.24l-19-2.71-19-2.87c-6.05-.91-11.69-1.85-16.52-2.62s-8.85-1.48-11.67-1.94Z"/></g><g class="cls-5"><path class="cls-3" d="M36.33,99.8l4.46.53c2.83.37,6.89.84,11.74,1.5S63,103.21,69.1,104.07l19,2.7,19,2.87c6.05.91,11.69,1.85,16.52,2.62s8.85,1.48,11.67,1.94l4.42.77-4.46-.53c-2.83-.37-6.89-.84-11.74-1.49s-10.52-1.38-16.58-2.24L87.9,108l-19-2.87c-6.05-.91-11.69-1.85-16.52-2.62s-8.85-1.48-11.67-1.94Z"/></g><polygon class="cls-6" points="25.19 71.78 137.6 87.3 174.5 60.23 72.41 49.16 25.19 71.78"/><polygon class="cls-3" points="168.49 47.52 168.49 60.92 136.78 83.88 62.98 67.2 72 45.34 168.49 47.52"/><polygon class="cls-6" points="174.5 46.29 139.99 71.6 139.84 71.71 137.6 73.35 24.44 57.77 72.41 35.22 74.01 35.39 97.38 37.93 174.5 46.29"/><path class="cls-6" d="M137.88,62.56V87.3L25.18,71.82a.86.86,0,0,1-.75-.86V57.77L79.65,54.9Z"/><path class="cls-7" d="M137.88,72.9V87.3L25.2,71.82a.88.88,0,0,1-.76-.88V57.81Z"/><polygon class="cls-8" points="174.5 46.29 139.99 71.6 139.84 71.71 49.6 50.52 74.01 35.39 97.38 37.93 174.5 46.29"/><path class="cls-9" d="M185.44,26.34v9.29L147.22,63.89l-1.15.85L49.6,50.52a1.6,1.6,0,0,1-.54-3l41.52-22L161.11,33v-4l24-2.7Z"/><polygon class="cls-3" points="145.12 43.97 145.12 61.94 144.91 62.1 53.14 49.45 53.14 38.64 60.97 35.04 145.12 43.97"/><path class="cls-9" d="M49.6,41.22l98.87,13.2,37-28.09L91.1,16.28a1.7,1.7,0,0,0-1,.19L49.07,38.22A1.6,1.6,0,0,0,49.6,41.22Z"/><rect class="cls-10" x="28.54" y="122.04" width="5.17" height="7.12" rx="0.94" ry="0.94" transform="translate(154.4 86.26) rotate(86.22)"/><polygon class="cls-6" points="41.2 124.44 41.05 122.11 92.69 118.71 93.54 119.03 93.67 120.98 41.2 124.44"/><polygon class="cls-6" points="41.42 127.7 41.27 125.37 93.73 121.91 93.84 123.68 93.03 124.28 41.42 127.7"/><rect class="cls-11" x="41.18" y="122.01" width="52.58" height="2.33" transform="translate(-7.96 4.71) rotate(-3.77)"/><polygon class="cls-6" points="93.67 120.98 93.66 120.98 93.62 120.28 93.67 120.98"/><polygon class="cls-6" points="93.67 120.98 93.66 120.98 93.62 120.28 93.67 120.98"/><path class="cls-3" d="M41.65,127.71l-8,.53a.27.27,0,0,1-.28-.25,6.56,6.56,0,0,0,.39-2.51,6.75,6.75,0,0,0-.73-2.6.27.27,0,0,1,.25-.28l8-.53a6.58,6.58,0,0,1,.82,2.8A9,9,0,0,1,41.65,127.71Z"/><path class="cls-3" d="M98.4,122.18l-1.19.47L93,124.28a12.41,12.41,0,0,0,.31-3,8.57,8.57,0,0,0-.68-2.59L97,119.77l1.25.3Z"/><path class="cls-12" d="M98.4,122.18,98.32,121l-.06-1,2.81.69a.2.2,0,0,1,0,.37Z"/><ellipse class="cls-13" cx="27.89" cy="125.79" rx="0.52" ry="2.36" transform="translate(-6.52 1.63) rotate(-2.99)"/><g class="cls-5"><path class="cls-3" d="M34.7,127.82s.05-.33.11-.82c0-.24,0-.53.06-.82a5.83,5.83,0,0,0,0-.93,5.49,5.49,0,0,0-.11-.93c-.06-.29-.11-.57-.17-.81l-.21-.8a3.58,3.58,0,0,1,.45.71,4.89,4.89,0,0,1,.32.81,5.8,5.8,0,0,1,.18,1,6.25,6.25,0,0,1-.05,1,4.9,4.9,0,0,1-.21.84A3.4,3.4,0,0,1,34.7,127.82Z"/></g><g class="cls-5"><path class="cls-3" d="M36,127.76s.05-.33.11-.82c0-.24,0-.53.06-.82a5.83,5.83,0,0,0,0-.93,5.49,5.49,0,0,0-.11-.93c-.06-.29-.11-.57-.17-.81l-.21-.8a3.58,3.58,0,0,1,.45.71,4.89,4.89,0,0,1,.32.81,5.8,5.8,0,0,1,.18,1,6.25,6.25,0,0,1-.05,1,4.9,4.9,0,0,1-.21.84A3.4,3.4,0,0,1,36,127.76Z"/></g><g class="cls-5"><path class="cls-3" d="M39.43,127.75s.05-.33.11-.82c0-.24,0-.53.06-.82a5.83,5.83,0,0,0,0-.93,5.49,5.49,0,0,0-.11-.93c-.06-.29-.11-.57-.17-.81l-.21-.8a3.58,3.58,0,0,1,.45.71,4.89,4.89,0,0,1,.32.81,5.8,5.8,0,0,1,.18,1,6.25,6.25,0,0,1-.05,1,4.9,4.9,0,0,1-.21.84A3.4,3.4,0,0,1,39.43,127.75Z"/></g><g class="cls-5"><path class="cls-3" d="M40.68,127.47s.05-.33.11-.82c0-.24,0-.53.06-.82a5.83,5.83,0,0,0,0-.93,5.49,5.49,0,0,0-.11-.93c-.06-.29-.11-.57-.17-.81l-.21-.8a3.58,3.58,0,0,1,.45.71,4.89,4.89,0,0,1,.32.81,5.8,5.8,0,0,1,.18,1,6.25,6.25,0,0,1-.05,1,4.9,4.9,0,0,1-.21.84A3.4,3.4,0,0,1,40.68,127.47Z"/></g><polygon class="cls-14" points="185.44 26.34 185.44 35.63 147.22 63.89 146.9 52.44 185.15 26.37 185.44 26.34"/><path class="cls-15" d="M24.38,60c0-2.1.26-2.36,2.51-3.43,0,0-3.18-1.69-4.41-.26S24.38,60,24.38,60Z"/><path class="cls-16" d="M60.5,86s-.42-1.82-.79-4.59a52.37,52.37,0,0,1-.42-10.31,27.83,27.83,0,0,1,.9-5.55,17.69,17.69,0,0,1,.88-2.5,10.54,10.54,0,0,1,.55-1.13,9.51,9.51,0,0,1,.61-1,8,8,0,0,1,.65-.9,6.48,6.48,0,0,1,.66-.76,10.31,10.31,0,0,1,1.23-1.12,10,10,0,0,1,.89-.61l.32-.21a1.38,1.38,0,1,1,1.49,2.31l-.09.06-.13.07-.25.13a7.36,7.36,0,0,0-.7.39,7.74,7.74,0,0,0-1,.77,4.56,4.56,0,0,0-.57.55,6,6,0,0,0-.59.67,7.47,7.47,0,0,0-.58.8A8.61,8.61,0,0,0,63,64a15.69,15.69,0,0,0-1,2.16,26.21,26.21,0,0,0-1.32,5.13,51.51,51.51,0,0,0-.52,10.12C60.25,84.16,60.5,86,60.5,86Z"/><path class="cls-10" d="M81.29,96C73.14,123.71,61.87,114.69,60,113.3,58.21,114.69,47,123.71,38.86,96c-4.79-16.29.65-24.69,9.09-25.87C53.78,69.31,58.73,73.37,60,74c1.31-.62,6.16-4.07,12.13-3.87C80.14,70.39,86.08,79.7,81.29,96Z"/><path class="cls-17" d="M60.91,63.6s.41-7.33-7.74-9.17C53.17,54.44,53.37,63.2,60.91,63.6Z"/><ellipse class="cls-18" cx="45.12" cy="81.22" rx="4.94" ry="2.73" transform="translate(-46.18 98.48) rotate(-71.65)"/></g></g></svg>
