<svg xmlns="http://www.w3.org/2000/svg" viewBox="0 0 50 50"><defs><style>.a{fill:#0d83dd;}</style></defs><title>credit-card</title><path class="a" d="M8.22,41.78a4.67,4.67,0,0,1-3.42-1.4A4.62,4.62,0,0,1,3.39,37V13A4.62,4.62,0,0,1,4.8,9.62a4.67,4.67,0,0,1,3.42-1.4H41.78a4.67,4.67,0,0,1,3.42,1.4A4.62,4.62,0,0,1,46.61,13V37a4.62,4.62,0,0,1-1.41,3.38,4.67,4.67,0,0,1-3.42,1.4ZM7,16.61H43V13a1.2,1.2,0,0,0-1.22-1.22H8.22A1.2,1.2,0,0,0,7,13ZM7,37a1.2,1.2,0,0,0,1.22,1.22H41.78A1.2,1.2,0,0,0,43,37V22.61H7Zm4-9.26a1.22,1.22,0,0,0-.35.87v4.78a1.22,1.22,0,0,0,.35.87,1.15,1.15,0,0,0,.82.35h4.83a1.14,1.14,0,0,0,.82-.35,1.22,1.22,0,0,0,.35-.87V28.61a1.22,1.22,0,0,0-.35-.87,1.14,1.14,0,0,0-.82-.35H11.78A1.15,1.15,0,0,0,11,27.74Zm16.43,5.65a2.39,2.39,0,1,1,0-4.78H37a2.39,2.39,0,1,1,0,4.78Z"/></svg>