<svg width="29px" height="53px" viewBox="0 0 29 53" version="1.1" xmlns="http://www.w3.org/2000/svg" xmlns:xlink="http://www.w3.org/1999/xlink">
    <g id="V1" stroke="none" stroke-width="1" fill="none" fill-rule="evenodd">
        <g id="V1-LP" transform="translate(-320.000000, -427.000000)">
            <g id="Group-2" transform="translate(241.000000, 141.000000)">
                <g id="arrow-left" transform="translate(91.462138, 318.047492) rotate(-127.000000) translate(-91.462138, -318.047492) translate(64.962138, 302.047492)">
                    <path d="M15.750594,3.75989721 C15.2489985,4.24547022 14.8371948,4.70211547 14.3923643,5.21454996 C13.9557904,5.71768624 13.5305696,6.23425327 13.1136055,6.7570191 C12.2807093,7.80461703 11.48084,8.88010957 10.719158,9.97213227 C9.95644392,11.0631218 9.23707759,12.1809729 8.59615005,13.3091553 C8.27620233,13.8722133 7.97173595,14.440437 7.71990613,15.0014288 C7.57747779,15.2845076 7.48149347,15.5582881 7.37312408,15.8320686 C7.25236962,16.1099817 7.21934276,16.3507019 7.13264725,16.6038197 L6.71671521,14.8051334 C6.95099951,15.0520524 7.14503232,15.3020708 7.41440766,15.5541555 C7.66830166,15.8052071 7.92013148,16.058325 8.19879562,16.305244 C8.73651422,16.8052809 9.31035594,17.2939533 9.88935811,17.7753938 C11.0483945,18.740341 12.2559392,19.673261 13.4851577,20.575187 C14.7143762,21.4771131 15.9663007,22.3563101 17.2419632,23.1879831 C17.8808265,23.6022698 18.5258824,24.0051921 19.1781629,24.3853854 C19.5043032,24.5641176 19.8325076,24.767645 20.1607121,24.9236483 C20.4930449,25.1034136 20.8150568,25.2397873 21.1370687,25.3709953 L21.1938336,25.3937243 C21.4910754,25.5156341 21.6335037,25.854502 21.5127492,26.1520447 C21.4023157,26.4237589 21.1092023,26.5663314 20.8326023,26.4960783 C20.4207986,26.3917318 20.0151875,26.2749876 19.6446674,26.1334482 C19.2555697,26.0053396 18.9025951,25.8441707 18.5300108,25.6995319 C17.8013557,25.3926911 17.0881819,25.0651876 16.3812006,24.7263197 C14.9693023,24.0465175 13.5852703,23.3212574 12.2146556,22.5650032 C10.8440408,21.8087491 9.49200368,21.0194347 8.15544787,20.1722648 C7.48665392,19.7486798 6.82198833,19.3157966 6.16041901,18.8457206 C5.8291183,18.6204974 5.49988177,18.3673796 5.16961316,18.1152949 C4.84037663,17.8797403 4.50494757,17.5656675 4.17261477,17.2887876 L4.14681253,17.2670918 C3.61631857,16.8249104 3.47389023,16.0872527 3.75771482,15.4901012 C3.93420211,15.1202392 4.09624015,14.7059525 4.29336923,14.3856809 C4.48636996,14.0519786 4.67524232,13.7100113 4.88372439,13.4124687 C5.28830344,12.7884557 5.71662055,12.2160994 6.15525856,11.6571739 C7.03356666,10.5413891 7.95315834,9.49792374 8.90577688,8.4926843 C9.85839542,7.48744487 10.8368162,6.51526573 11.8451676,5.57614688 C12.3498593,5.10710402 12.8617757,4.6452931 13.3891734,4.19691292 C13.904186,3.75369841 14.4831881,3.28568868 15.0219388,2.90239595 L15.0312276,2.89516401 C15.2851216,2.71436555 15.6370641,2.77325419 15.8176798,3.0284383 C15.981782,3.2588272 15.947723,3.56876741 15.750594,3.75989721" id="Fill-3" fill="#0D83DD" transform="translate(12.585123, 14.652146) rotate(-19.000000) translate(-12.585123, -14.652146) "></path>
                    <path d="M52.4671368,31.7623419 C50.8832873,23.6238407 47.4450078,17.9462513 43.0153667,14.6082773 C38.5857255,11.2703032 30.4542213,9.77276531 24.4127429,10.6218397 C18.3712644,11.4709142 10.8462419,14.288718 7.75785755,17.3631084" id="Path-2" stroke="#0D83DD" stroke-width="2.5" stroke-linecap="round"></path>
                </g>
            </g>
        </g>
    </g>
</svg>