<svg xmlns="http://www.w3.org/2000/svg" viewBox="0 0 50 50"><defs><style>.a{fill:#0d83dd;}</style></defs><title>dashboard</title><path class="a" d="M6,28.82l-.17,0a.38.38,0,0,0-.16,0L2.5,28.21h0a1.87,1.87,0,0,1-1-.63,1.77,1.77,0,0,1,.12-2.42,1.81,1.81,0,0,1,1.29-.51h.28l3.19.61a1.75,1.75,0,0,1,1.08.58A1.72,1.72,0,0,1,7.8,27,1.84,1.84,0,0,1,6,28.82Zm37.5,10A1.64,1.64,0,0,1,43,38.8a.92.92,0,0,1-.35-.14l.19.1a34.67,34.67,0,0,0-3.19-1.53c-1.09-.45-2.28-.88-3.56-1.28h0l.24,0a37.27,37.27,0,0,0-5.51-1.36A36.06,36.06,0,0,0,25,34.16a33.47,33.47,0,0,0-4.68.33,32.56,32.56,0,0,0-4.48.87,39.7,39.7,0,0,0-4.2,1.38,37.45,37.45,0,0,0-3.93,1.88,1.09,1.09,0,0,1-.43.18,1.8,1.8,0,0,1-.46.05,1.8,1.8,0,0,1-1.29-.51,1.8,1.8,0,0,1,.4-2.86l-.19.09c.84-.47,1.72-.91,2.62-1.34s1.88-.83,2.91-1.24v.1c-.06-.44-.12-.88-.17-1.32S11,30.88,11,30.41a14.06,14.06,0,0,1,1.08-5.48,14.53,14.53,0,0,1,3-4.43,14.22,14.22,0,0,1,4.47-3,14.24,14.24,0,0,1,10.88,0,14.22,14.22,0,0,1,4.47,3,14.53,14.53,0,0,1,3,4.43A14.06,14.06,0,0,1,39,30.41c0,.47,0,.93-.07,1.39s-.11.86-.17,1.24l.28.09c.94.35,1.86.72,2.77,1.13s1.73.81,2.48,1.22a1.71,1.71,0,0,1,.73.65,1.8,1.8,0,0,1,.26.94,1.7,1.7,0,0,1-.54,1.27A1.81,1.81,0,0,1,43.47,38.85ZM12.62,17.43h0a1.61,1.61,0,0,1-.75-.19,1.81,1.81,0,0,1-.61-.47L8,12.93a2.35,2.35,0,0,1-.3-.54,1.68,1.68,0,0,1-.12-.63,1.76,1.76,0,0,1,.54-1.29,1.72,1.72,0,0,1,2-.35,1.81,1.81,0,0,1,.61.47L14,14.48v-.05a2.05,2.05,0,0,1,.31.54,1.68,1.68,0,0,1,.12.63,1.76,1.76,0,0,1-.54,1.29A1.72,1.72,0,0,1,12.62,17.43Zm26.3,27.09v0a1.79,1.79,0,0,1-.63.8,1.65,1.65,0,0,1-1,.33,1.34,1.34,0,0,1-.35-.05l-.31-.1.19.1a31.55,31.55,0,0,0-5.69-1.74,31.26,31.26,0,0,0-12.19,0,29.68,29.68,0,0,0-5.51,1.66,1.87,1.87,0,0,1-.33.1,1.57,1.57,0,0,1-.37.05,1.7,1.7,0,0,1-1.27-.54,1.81,1.81,0,0,1-.51-1.29,1.76,1.76,0,0,1,.3-1,1.64,1.64,0,0,1,.78-.63l-.24.09a34.68,34.68,0,0,1,6.38-1.94A33.62,33.62,0,0,1,25,39.7a34.46,34.46,0,0,1,6.77.65,30.82,30.82,0,0,1,6.17,1.88,1.65,1.65,0,0,1,.82.63,1.76,1.76,0,0,1,.3,1c0,.12,0,.24,0,.35A.79.79,0,0,1,38.92,44.52ZM35.31,32v0c0-.28.06-.55.07-.82s0-.53,0-.82a10.55,10.55,0,0,0-.8-4.07A11.15,11.15,0,0,0,32.36,23a10.31,10.31,0,0,0-3.28-2.23,10.93,10.93,0,0,0-8.16,0A10.31,10.31,0,0,0,17.64,23a11.15,11.15,0,0,0-2.25,3.31,10.55,10.55,0,0,0-.8,4.07c0,.26,0,.51,0,.78a7,7,0,0,0,.07.72l-.28.05a41.61,41.61,0,0,1,5.11-1,40.52,40.52,0,0,1,5.29-.35A39.43,39.43,0,0,1,30.3,31,37.86,37.86,0,0,1,35.31,32ZM26.78,11.1a1.81,1.81,0,0,1-.51,1.29,1.76,1.76,0,0,1-2.54,0,1.81,1.81,0,0,1-.51-1.29v-5a1.73,1.73,0,0,1,.51-1.27,1.81,1.81,0,0,1,2.54,0,1.73,1.73,0,0,1,.51,1.27Zm15-.75a2.87,2.87,0,0,1,.47.63,1.61,1.61,0,0,1,.19.78,1.68,1.68,0,0,1-.12.63,1.46,1.46,0,0,1-.3.49l-3.24,3.89a1.81,1.81,0,0,1-.61.47,1.75,1.75,0,0,1-2.06-.35,1.82,1.82,0,0,1-.52-1.29,1.54,1.54,0,0,1,.12-.61,1.88,1.88,0,0,1,.31-.51l3.23-3.89a1.83,1.83,0,0,1,.59-.47,1.54,1.54,0,0,1,.77-.19,1.68,1.68,0,0,1,.63.12A1.88,1.88,0,0,1,41.78,10.35Zm5.11,14.3h.33a1.78,1.78,0,0,1,1.36,2.93,1.86,1.86,0,0,1-1.08.63l-3.14.56a.38.38,0,0,0-.16,0l-.17,0A1.84,1.84,0,0,1,42.2,27a1.72,1.72,0,0,1,.42-1.15,1.75,1.75,0,0,1,1.08-.58Z"/></svg>