<svg xmlns="http://www.w3.org/2000/svg" viewBox="0 0 50 50"><defs><style>.a{fill:#0d83dd;}</style></defs><title>estimates</title><path class="a" d="M9.16,31.38H9.11a9.16,9.16,0,0,1-3-3.24A9,9,0,0,1,5,23.69a8.75,8.75,0,0,1,1.55-5.07,9.32,9.32,0,0,1,4-3.32v0c0-.25-.07-.5-.1-.75a6.28,6.28,0,0,1,0-.75,6.92,6.92,0,0,1,2.1-5.06,6.91,6.91,0,0,1,5.07-2.11A6.78,6.78,0,0,1,19.68,7a7.72,7.72,0,0,1,1.85.89v0A11.21,11.21,0,0,1,25.4,4.19a10.35,10.35,0,0,1,5.32-1.41,10.2,10.2,0,0,1,4.22.89A10.78,10.78,0,0,1,38.36,6,11.41,11.41,0,0,1,40.7,9.39a10.68,10.68,0,0,1,.85,4.22,9.27,9.27,0,0,1-.12,1.52,11.33,11.33,0,0,1-.31,1.39l.05,0A7.07,7.07,0,0,1,44,19.14a7.2,7.2,0,0,1,.24,7.1A7.18,7.18,0,0,1,42,28.75a6.79,6.79,0,0,1-1.9,1,6.68,6.68,0,0,1-2.18.35l-.66,0L36.62,30l0,.05a10.09,10.09,0,0,1-3.7,4.59,9.92,9.92,0,0,1-5.77,1.78h-.38A9.68,9.68,0,0,1,22,35.08a10.07,10.07,0,0,1-3.5-3.33l.05-.05a8.11,8.11,0,0,1-2.11.85,9.79,9.79,0,0,1-2.3.28,9.06,9.06,0,0,1-2.64-.38A9.23,9.23,0,0,1,9.16,31.38Zm-.33-9.33V22a7.85,7.85,0,0,0-.17.82,6.64,6.64,0,0,0-.07.87,5.38,5.38,0,0,0,1.62,3.93A5.47,5.47,0,0,0,15.88,29a4.9,4.9,0,0,0,1.48-.79,2.19,2.19,0,0,1,.7-.35,2.63,2.63,0,0,1,.8-.12l.3,0,.31,0a2.43,2.43,0,0,1,.94.49,3.24,3.24,0,0,1,.7.82v.05A6.59,6.59,0,0,0,23.5,31.8a6.47,6.47,0,0,0,3.56,1,6.4,6.4,0,0,0,4.06-1.38A6.72,6.72,0,0,0,33.48,28l.05,0A2.41,2.41,0,0,1,34,27a2.06,2.06,0,0,1,.77-.63h0a2.19,2.19,0,0,1,.59-.21,2.59,2.59,0,0,1,.63-.08,1.9,1.9,0,0,1,.4.05l.4.1a2.49,2.49,0,0,0,.54.14,4.26,4.26,0,0,0,.63,0A3.53,3.53,0,0,0,39,26.29a3.13,3.13,0,0,0,.94-.49A3.33,3.33,0,0,0,41,24.55a3.63,3.63,0,0,0,.4-1.66,5.12,5.12,0,0,0,0-.7,1.81,1.81,0,0,0-.19-.61v0a3.42,3.42,0,0,0-.84-1.22A4,4,0,0,0,39,19.52H39a3.24,3.24,0,0,1-.85-.52,2.55,2.55,0,0,1-.6-.8,3.39,3.39,0,0,1-.17-.51,2.22,2.22,0,0,1-.07-.57,2.4,2.4,0,0,1,0-.46c0-.16.06-.3.09-.43v.05A8.1,8.1,0,0,0,37.8,15a7,7,0,0,0,.14-1.38,7.23,7.23,0,0,0-.26-1.92A6,6,0,0,0,37,10l0-.05a7.17,7.17,0,0,0-6.24-3.51,8.45,8.45,0,0,0-1.22.09,6.11,6.11,0,0,0-1.12.28h0a6.84,6.84,0,0,0-2.44,1.48,7.22,7.22,0,0,0-1.68,2.32,3,3,0,0,1-.78,1,2.2,2.2,0,0,1-1.1.49l-.21,0-.21,0a2.37,2.37,0,0,1-1-.21,2.56,2.56,0,0,1-.8-.54,3.77,3.77,0,0,0-.49-.42,3.92,3.92,0,0,0-.54-.33h0l-.75-.24a3.35,3.35,0,0,0-.79-.09,3.5,3.5,0,0,0-1.5.33,3.73,3.73,0,0,0-1.22.89,4,4,0,0,0-.61,1.08A3.4,3.4,0,0,0,14,13.84a4.89,4.89,0,0,0,0,.66,1.33,1.33,0,0,0,.19.56q0,.24.09.45a2.12,2.12,0,0,1,0,.44,2.37,2.37,0,0,1-.07.61,2.18,2.18,0,0,1-.21.52v0a2.61,2.61,0,0,1-.61.75,2.71,2.71,0,0,1-.89.52h-.05a5.42,5.42,0,0,0-3.7,3.66Zm10.5,14a2.93,2.93,0,0,0-2.11-.87,3,3,0,0,0-3,3,2.93,2.93,0,0,0,.87,2.11,2.86,2.86,0,0,0,2.13.89,3,3,0,0,0,3-3A2.86,2.86,0,0,0,19.33,36.09Zm6.19,7a2.4,2.4,0,0,0-1.74-.7,2.33,2.33,0,0,0-1.69.7,2.36,2.36,0,0,0-.7,1.74,2.39,2.39,0,0,0,2.39,2.39,2.4,2.4,0,0,0,1.74-.7,2.35,2.35,0,0,0,.7-1.69A2.4,2.4,0,0,0,25.52,43.09Z"/></svg>