<svg xmlns="http://www.w3.org/2000/svg" viewBox="0 0 50 50"><defs><style>.a{fill:#0d83dd;}</style></defs><title>expenses</title><path class="a" d="M7.09,18.77l0-.05a6.11,6.11,0,0,1-3.52-5.53A6,6,0,0,1,4.42,10,6.21,6.21,0,0,1,6.77,7.75l-.19.09a36.39,36.39,0,0,1,4.22-2,35.2,35.2,0,0,1,4.52-1.5,38.9,38.9,0,0,1,4.76-.94,36.84,36.84,0,0,1,9.84,0,42.25,42.25,0,0,1,4.74.91,35.17,35.17,0,0,1,4.45,1.48,30.6,30.6,0,0,1,4.12,2h.05A6.37,6.37,0,0,1,45.58,10a6.16,6.16,0,0,1-.1,6.54,6.14,6.14,0,0,1-2.57,2.25L31,43.23a6.9,6.9,0,0,1-2.41,2.68,6.6,6.6,0,0,1-7.08,0,6.9,6.9,0,0,1-2.41-2.68ZM8.5,10.89H8.45a2.7,2.7,0,0,0-.93.94,2.45,2.45,0,0,0-.38,1.36A2.5,2.5,0,0,0,7.89,15a2.44,2.44,0,0,0,1.83.78,2.19,2.19,0,0,0,.63-.1,4.24,4.24,0,0,0,.59-.23l-.19.09a30.76,30.76,0,0,1,6.8-2.6,31.2,31.2,0,0,1,14.88,0,27.86,27.86,0,0,1,6.63,2.53,4.24,4.24,0,0,0,.59.23,2.19,2.19,0,0,0,.63.1A2.44,2.44,0,0,0,42.11,15a2.5,2.5,0,0,0,.75-1.8,2.63,2.63,0,0,0-1.36-2.3l.19.09a31.65,31.65,0,0,0-3.85-1.82A33.93,33.93,0,0,0,29.45,7a35.5,35.5,0,0,0-8.9,0,35,35,0,0,0-4.29.82A33.26,33.26,0,0,0,12.2,9.11,36,36,0,0,0,8.5,10.89Zm30.23,8.25h0a5,5,0,0,1-.68-.21,2.77,2.77,0,0,1-.59-.31l.14.1a27.1,27.1,0,0,0-6-2.32A26,26,0,0,0,25,15.58a25.69,25.69,0,0,0-6.56.82,28.65,28.65,0,0,0-5.86,2.22h0a6.37,6.37,0,0,1-.63.29,5.5,5.5,0,0,1-.72.23l6.61,13.5a5.24,5.24,0,0,1,1.59-1,5.13,5.13,0,0,1,1.87-.35,5.29,5.29,0,0,1,5.3,5.3,5.31,5.31,0,0,1-.44,2.13A5.49,5.49,0,0,1,25,40.52a6.11,6.11,0,0,1-1.15.82,4.82,4.82,0,0,1-1.38.49,2.94,2.94,0,0,0,1.08,1.08,2.88,2.88,0,0,0,1.5.42,3,3,0,0,0,1.62-.47,3.07,3.07,0,0,0,1.1-1.22l4-8.16h0a5.18,5.18,0,0,1-2.79-1.87,5,5,0,0,1-1.1-3.19s0,0,0,0a5.28,5.28,0,0,1,1.55-3.83,5.33,5.33,0,0,1,5.51-1.28,4.85,4.85,0,0,1,1.47.79Zm-17.2-1.5a5.25,5.25,0,0,1,3.73,9,5.23,5.23,0,0,1-7.43,0,5.24,5.24,0,0,1,3.7-8.95Zm-.89,20.63a3.78,3.78,0,0,1,.45,0l.35,0h0a1.41,1.41,0,0,0,.57-.11,2.92,2.92,0,0,0,.47-.31A1.8,1.8,0,0,0,23,36.63a1.69,1.69,0,0,0-.49-1.22,1.58,1.58,0,0,0-1.2-.52,1.55,1.55,0,0,0-.86.26,1.9,1.9,0,0,0-.64.68,1.85,1.85,0,0,1-.09.23l-.09.19Zm.89-13.74a1.63,1.63,0,0,0,1.2-.49,1.61,1.61,0,0,0,.49-1.15,1.57,1.57,0,0,0-.49-1.17,1.69,1.69,0,0,0-1.2-.47,1.63,1.63,0,0,0-1.15.47,1.53,1.53,0,0,0-.49,1.17,1.67,1.67,0,0,0,1.64,1.64Zm13.13,2.95a.21.21,0,0,0,0-.11,1,1,0,0,0-.19-.21,2,2,0,0,0-.54-.4,1.4,1.4,0,0,0-.68-.17h0a1.76,1.76,0,0,0-1.78,1.79v0a1.64,1.64,0,0,0,1.4,1.64h-.05l.22,0,.21,0h.11a.17.17,0,0,0,.12-.05Z"/></svg>