<?xml version="1.0" encoding="UTF-8" standalone="no"?>
<svg xmlns="http://www.w3.org/2000/svg" height="24px" width="24px" version="1.1" xmlns:xlink="http://www.w3.org/1999/xlink" viewBox="0 0 24 24"><!-- Generator: Sketch 42 (36781) - http://www.bohemiancoding.com/sketch -->
 <title>Fill 1</title>
 <desc>Created with Sketch.</desc>
 <g id="Articles" opacity=".95" fill-rule="evenodd" fill="none">
  <g id="Article-1440" fill="#062942" transform="translate(-865 -2967)">
   <g id="Group-5" transform="translate(865 2967)">
    <g id="Group-Copy-10">
     <path id="Fill-1" d="m15.813 6.9309h-1.262c-0.99 0-1.175 0.4862-1.175 1.1868v1.5572h2.356l-0.314 2.4401h-2.042v6.255h-2.46v-6.255h-2.0495v-2.4401h2.0495v-1.7966c0-2.0852 1.246-3.2223 3.064-3.2223 0.867 0 1.615 0.0657 1.833 0.0989v2.176zm-4.139-6.9309c-6.4475 0-11.674 5.2112-11.674 11.64 0 6.429 5.2265 11.64 11.674 11.64 6.447 0 11.674-5.211 11.674-11.64 0-6.4288-5.227-11.64-11.674-11.64z"/>
    </g>
   </g>
  </g>
 </g>
</svg>
