<?xml version="1.0" encoding="UTF-8" standalone="no"?>
<svg xmlns="http://www.w3.org/2000/svg" height="50px" width="140px" version="1.1" xmlns:xlink="http://www.w3.org/1999/xlink" viewBox="0 0 140 50"><!-- Generator: Sketch 42 (36781) - http://www.bohemiancoding.com/sketch -->
 <title>Logo Knockout</title>
 <desc>Created with Sketch.</desc>
 <defs>
  <polygon id="path-1" points="41.635 0.1642 41.635 35.034 0.1485 35.034 0.1485 0.1642"/>
  <polygon id="path-3" points="0 49.602 139.81 49.602 139.81 0 0 0"/>
 </defs>
 <g id="Symbols" fill-rule="evenodd" fill="none">
  <g id="Logo-Knockout">
   <g transform="translate(0 .17163)">
    <g id="Group-3" transform="translate(98.172 3.6836)">
     <mask id="mask-2" fill="white">
      <use xlink:href="#path-1"/>
     </mask>
     <path id="Fill-1" fill="#fff" mask="url(#mask-2)" d="m0.1485 32.949s10.158 1.086 20.47 1.086c9.489 0 21.017-3.44 21.017-16.169 0-8.3844-5.728-15.702-21.009-15.702-17.667 0.0002-18.985 14.319-16.342 21.508 2.3635 6.426-4.1355 9.277-4.1355 9.277"/>
    </g>
    <path id="Fill-4" fill="#082941" d="m112.38 24.829c0.9 0 1.47-0.511 1.47-1.325 0-0.785-0.58-1.323-1.45-1.323h-2.15v2.648h2.13zm-0.12-3.958c0.81 0 1.34-0.524 1.34-1.323 0-0.745-0.54-1.228-1.37-1.228h-1.98v2.551h2.01zm-3.58-3.861h3.58c1.02 0 1.52 0.111 2.03 0.47 0.59 0.413 0.95 1.116 0.95 1.916 0 1.062-0.6 1.779-1.67 2.041 0.54 0.11 0.79 0.207 1.09 0.441 0.56 0.413 0.87 1.061 0.87 1.833 0 0.704-0.28 1.38-0.75 1.82-0.49 0.47-1.13 0.676-2.09 0.676h-4.01v-9.197z"/>
    <mask id="mask-4" fill="white">
     <use xlink:href="#path-3"/>
    </mask>
    <polygon id="Fill-6" points="116.74 26.207 118.28 26.207 118.28 17.01 116.74 17.01" mask="url(#mask-4)" fill="#082941"/>
    <path id="Fill-8" fill="#082941" mask="url(#mask-4)" d="m121.03 22.802c0 1.462 0.55 2.289 1.53 2.289 1 0 1.55-0.827 1.55-2.317 0-1.461-0.54-2.248-1.52-2.248-0.99 0-1.56 0.814-1.56 2.276m4.14-2.138c0.4 0.649 0.57 1.269 0.57 2.152 0 2.081-1.33 3.529-3.23 3.529-1.05 0-1.88-0.427-2.43-1.254-0.45-0.663-0.67-1.434-0.67-2.303 0-2.068 1.31-3.516 3.18-3.516 1.15 0 1.97 0.441 2.58 1.392"/>
    <path id="Fill-9" fill="#082941" mask="url(#mask-4)" d="m128.36 21.367c0 0.676 0.49 1.118 1.25 1.118 0.77 0 1.26-0.414 1.26-1.076 0-0.744-0.44-1.172-1.23-1.172-0.77 0-1.28 0.455-1.28 1.13zm0.67 4.634c-0.38 0-0.6-0.028-1.1-0.166-0.25 0.234-0.33 0.372-0.33 0.593 0 0.717 0.88 1.172 2.3 1.172 1.17 0 1.78-0.318 1.78-0.91 0-0.414-0.4-0.689-1.02-0.689h-1.63zm4.07-6.715h-0.47c-0.55 0-0.74 0.11-0.99 0.551 0.58 0.496 0.8 0.897 0.8 1.475 0 1.214-1.13 2.083-2.74 2.083-0.4 0-0.69-0.042-1.29-0.18-0.34 0.18-0.47 0.345-0.47 0.648 0 0.414 0.36 0.69 0.93 0.69h2.02c1.33 0 2.23 0.758 2.23 1.861 0 1.379-1.36 2.234-3.55 2.234s-3.29-0.621-3.29-1.848c0-0.648 0.24-0.993 0.99-1.378-0.48-0.428-0.64-0.69-0.64-1.118 0-0.62 0.31-1.02 1.09-1.42-0.69-0.454-0.95-0.882-0.95-1.558 0-0.51 0.21-1.006 0.59-1.351 0.5-0.482 1.22-0.703 2.24-0.703 0.45 0 0.73 0.027 1.29 0.138 0.25-0.91 0.74-1.296 1.63-1.296h0.58v1.172z"/>
    <path id="Fill-10" fill="#fff" mask="url(#mask-4)" d="m28.619 43.597c-0.08-0.696-0.196-1.286-0.855-1.286-0.808 0-1.005 0.83-1.005 2.259 0 0.529 0 1.971 1.004 1.972 0.729 0 0.81-0.782 0.856-1.286l1.131 0.11c-0.092 0.731-0.288 2.186-2.079 2.186-1.848 0-2.148-1.839-2.148-3.091 0-1.379 0.37-3.123 2.23-3.123 1.698 0 1.917 1.503 1.997 2.14l-1.131 0.119z"/>
    <polygon id="Fill-11" points="31.761 39.392 31.76 47.406 30.581 47.406 30.582 39.392" mask="url(#mask-4)" fill="#fff"/>
    <path id="Fill-12" fill="#fff" mask="url(#mask-4)" d="m33.727 44.452c0 1.55 0.335 2.173 0.994 2.173 0.658 0 0.993-0.6 0.993-2.185 0-1.525-0.323-2.176-0.992-2.176-0.718 0-0.995 0.745-0.995 2.188m3.234-0.073c0 1.382-0.311 3.174-2.252 3.174-1.767 0-2.229-1.575-2.229-3.113 0-1.431 0.381-3.102 2.252-3.101 1.78 0 2.229 1.598 2.229 3.04"/>
    <path id="Fill-13" fill="#fff" mask="url(#mask-4)" d="m38.86 41.483l-0.001 3.761c0 0.832 0 1.322 0.659 1.322 0.947 0.001 0.947-1.14 0.947-2.234l0.001-2.849 1.178 0.001v5.924h-1.087v-0.89c-0.206 0.435-0.497 1.036-1.444 1.036-1.432 0-1.432-1.3-1.432-2.285l0.001-3.786h1.178z"/>
    <path id="Fill-14" fill="#fff" mask="url(#mask-4)" d="m45.666 43.924c0-0.384 0-0.768-0.243-1.153-0.126-0.193-0.381-0.493-0.784-0.493-0.867 0-0.983 1.141-0.983 2.09 0 1.011 0.103 2.223 0.993 2.224 0.335 0 0.6-0.191 0.774-0.468 0.15-0.24 0.243-0.53 0.243-1.178v-1.022zm1.167-4.53l-0.001 8.014h-1.085v-0.9c-0.151 0.348-0.44 1.009-1.433 1.009-1.606 0-1.906-1.898-1.906-3.041 0-2.03 0.821-3.1 1.953-3.1 0.889 0.001 1.167 0.528 1.305 0.793v-2.775h1.167z"/>
    <path id="Fill-15" fill="#fff" mask="url(#mask-4)" d="m52.45 44.515c-0.184-0.013-0.265-0.013-0.347-0.013-1.363 0-1.535 0.709-1.535 1.261 0 0.71 0.369 0.89 0.762 0.89 0.497 0 1.12-0.528 1.12-1.839v-0.299zm-2.9-1.503c0.266-1.527 1.619-1.671 2.151-1.671 0.819 0 1.303 0.313 1.57 0.638 0.358 0.409 0.358 1.141 0.358 1.777l-0.001 2.007c0 0.504 0 1.239 0.093 1.646h-1.098c-0.056-0.287-0.08-0.43-0.08-0.985-0.219 0.421-0.59 1.131-1.606 1.131-0.924 0-1.595-0.613-1.595-1.707 0-0.949 0.498-1.611 1.179-1.851 0.486-0.168 1.11-0.265 1.929-0.241v-0.24c0-0.431 0-1.274-0.843-1.274-0.75-0.001-0.878 0.675-0.923 0.928l-1.134-0.158z"/>
    <path id="Fill-16" fill="#fff" mask="url(#mask-4)" d="m57.486 43.601c-0.081-0.696-0.197-1.286-0.855-1.286-0.81 0-1.005 0.83-1.005 2.259 0 0.528 0 1.971 1.005 1.971 0.727 0 0.809-0.781 0.855-1.285l1.132 0.109c-0.093 0.732-0.288 2.187-2.079 2.187-1.85 0-2.149-1.839-2.149-3.091 0-1.379 0.369-3.124 2.23-3.123 1.699 0 1.918 1.502 1.998 2.14l-1.132 0.119z"/>
    <path id="Fill-17" fill="#fff" mask="url(#mask-4)" d="m62.369 43.601c-0.083-0.696-0.197-1.285-0.856-1.285-0.808 0-1.005 0.83-1.005 2.259 0 0.528 0 1.971 1.004 1.971 0.728 0 0.809-0.782 0.857-1.285l1.129 0.109c-0.089 0.731-0.288 2.187-2.078 2.186-1.849 0-2.149-1.839-2.148-3.091 0-1.379 0.369-3.123 2.229-3.123 1.699 0 1.919 1.503 1.997 2.141l-1.129 0.118z"/>
    <path id="Fill-18" fill="#fff" mask="url(#mask-4)" d="m65.441 44.456c0 1.55 0.335 2.173 0.992 2.173 0.66 0 0.994-0.6 0.995-2.185 0-1.525-0.323-2.176-0.994-2.176-0.716 0-0.993 0.746-0.993 2.188m3.235-0.073c0 1.382-0.312 3.174-2.255 3.174-1.766 0-2.228-1.575-2.228-3.113 0-1.43 0.382-3.101 2.252-3.101 1.781 0 2.231 1.598 2.231 3.04"/>
    <path id="Fill-19" fill="#fff" mask="url(#mask-4)" d="m70.602 41.488l-0.001 3.76c0 0.832 0 1.322 0.658 1.322 0.947 0.001 0.947-1.14 0.947-2.234l0.001-2.848h1.179l-0.001 5.924h-1.087v-0.89c-0.208 0.435-0.497 1.036-1.445 1.036-1.431-0.001-1.43-1.3-1.43-2.285l0.001-3.785h1.178z"/>
    <path id="Fill-20" fill="#fff" mask="url(#mask-4)" d="m74.291 41.488h1.088v0.914c0.137-0.323 0.426-1.058 1.407-1.058 0.369 0 0.959 0.096 1.272 0.735 0.185 0.372 0.195 0.924 0.195 1.513v3.82h-1.177v-3.747c0-0.769 0.001-1.334-0.683-1.334-0.924-0.001-0.924 1.153-0.924 1.766l-0.001 3.315h-1.178l0.001-5.924z"/>
    <path id="Fill-21" fill="#fff" mask="url(#mask-4)" d="m81.752 42.476h-1.088l-0.001 2.618c0 1.034 0 1.429 0.786 1.429 0.209 0 0.348-0.022 0.486-0.036v0.965c-0.231 0.046-0.497 0.107-0.878 0.107-1.55-0.001-1.55-1.082-1.549-2.381v-2.702h-0.739v-0.988l0.774 0.001 0.059-1.551 1.062-0.095v1.646h1.088v0.987z"/>
    <path id="Fill-22" fill="#fff" mask="url(#mask-4)" d="m83.994 41.489l-0.001 5.924h-1.18l0.001-5.924h1.18zm-1.214-0.805v-1.298h1.236v1.298h-1.236z"/>
    <path id="Fill-23" fill="#fff" mask="url(#mask-4)" d="m84.991 41.489h1.087v0.914c0.137-0.323 0.428-1.057 1.41-1.057 0.368 0 0.958 0.095 1.271 0.735 0.183 0.371 0.195 0.923 0.195 1.512v3.821h-1.179l0.001-3.748c0-0.769 0-1.334-0.682-1.334-0.923 0-0.923 1.153-0.923 1.767l-0.001 3.314h-1.179v-5.924z"/>
    <path id="Fill-24" fill="#fff" mask="url(#mask-4)" d="m91.216 43.318c0 0.18 0 1.141 0.808 1.141 0.809 0 0.809-0.999 0.809-1.141 0-0.277-0.047-1.165-0.776-1.165-0.727 0-0.841 0.66-0.841 1.165zm-0.464 4.602c0 0.638 0.509 0.829 1.375 0.829 0.497 0 1.352-0.082 1.352-0.817 0-0.54-0.416-0.662-0.682-0.684-0.219-0.025-1.305-0.074-1.547-0.085-0.162 0.085-0.498 0.275-0.498 0.757zm3.744-6.478c-0.104-0.024-0.173-0.036-0.265-0.036-0.335 0-0.532 0.157-0.625 0.649 0.29 0.372 0.44 0.794 0.44 1.275 0 0.925-0.624 1.898-1.976 1.897-0.324 0-0.531-0.048-0.729-0.107-0.172 0.085-0.427 0.193-0.427 0.529 0 0.444 0.289 0.456 1.444 0.517 1.109 0.072 2.218 0.133 2.218 1.599 0 1.573-1.537 1.838-2.588 1.837-0.809 0-2.299-0.155-2.299-1.49 0-0.828 0.578-1.046 0.832-1.142-0.219-0.144-0.623-0.386-0.623-0.984 0-0.735 0.589-1.046 0.844-1.179-0.278-0.204-0.74-0.541-0.74-1.515 0-1.177 0.832-1.946 1.999-1.945 0.542 0 0.843 0.144 1.087 0.253 0.079-0.458 0.184-1.094 1.051-1.094 0.149 0 0.253 0.023 0.369 0.036l-0.012 0.9z"/>
    <polygon id="Fill-25" points="0.0023251 18.18 8.3004 18.181 8.2999 22.017 4.079 22.017 4.0785 25.325 7.8209 25.326 7.8204 29.068 4.078 29.067 4.0775 36.165 -0.00025835 36.165" mask="url(#mask-4)" fill="#fff"/>
    <path id="Fill-26" fill="#fff" mask="url(#mask-4)" d="m12.041 24.057v3.561c1.506-0.029 2.26-0.557 2.26-1.583 0-0.697-0.174-1.197-0.521-1.497-0.348-0.3-0.929-0.459-1.739-0.481zm-3.4027-2.903h3.9657c1.606 0.001 2.871 0.415 3.8 1.239 0.928 0.824 1.393 1.944 1.393 3.361 0 0.727-0.176 1.43-0.526 2.11-0.354 0.678-0.868 1.187-1.543 1.532l2.721 6.766h-3.598l-2.753-6.836h-0.057l-0.001 6.835h-3.4038l0.0021-15.007z"/>
    <polygon id="Fill-27" points="18.723 21.155 25.616 21.156 25.615 24.349 22.129 24.348 22.129 27.113 25.153 27.114 25.152 30.229 22.129 30.228 22.128 32.959 25.637 32.96 25.636 36.163 18.721 36.162" mask="url(#mask-4)" fill="#fff"/>
    <polygon id="Fill-28" points="32.957 21.157 36.363 21.158 36.362 26.722 39.386 26.722 39.387 21.158 42.794 21.158 42.791 36.165 39.385 36.165 39.385 29.926 36.362 29.926 36.361 36.165 32.955 36.164" mask="url(#mask-4)" fill="#fff"/>
    <path id="Fill-29" fill="#fff" mask="url(#mask-4)" d="m47.594 28.787l-0.001 3.931c1.056-0.018 1.845-0.175 2.375-0.482 0.528-0.303 0.791-0.806 0.791-1.505 0-1.297-0.94-1.943-2.821-1.944h-0.344zm0.001-7.147l-0.001 3.885c1.92-0.045 2.878-0.68 2.878-1.903 0-0.73-0.229-1.236-0.688-1.524-0.457-0.286-1.185-0.44-2.189-0.458zm-4.078-3.454h4.181c2.431 0.001 4.185 0.475 5.251 1.421 1.067 0.951 1.601 2.161 1.6 3.624 0 1.584-0.773 2.856-2.321 3.818 1.739 0.691 2.608 2.005 2.608 3.943-0.001 1.554-0.548 2.803-1.638 3.754-1.093 0.952-2.533 1.425-4.319 1.425l-5.364-0.001 0.002-17.984z"/>
    <path id="Fill-30" fill="#fff" mask="url(#mask-4)" d="m60.511 24.159c-1.229 0-1.842 1.444-1.842 4.327-0.001 1.86 0.154 3.099 0.465 3.723 0.311 0.621 0.762 0.931 1.355 0.931 0.636 0 1.125-0.31 1.468-0.931 0.339-0.624 0.511-1.841 0.511-3.653 0.001-2.934-0.652-4.397-1.957-4.397m0.121 12.391c-1.811-0.001-3.191-0.697-4.144-2.088-0.954-1.391-1.429-3.398-1.428-6.02 0-2.419 0.478-4.307 1.433-5.659 0.954-1.355 2.289-2.03 3.998-2.03 1.822 0.001 3.213 0.679 4.175 2.036 0.96 1.357 1.446 3.294 1.446 5.814 0 2.516-0.476 4.469-1.425 5.86-0.948 1.391-2.299 2.087-4.055 2.087"/>
    <path id="Fill-31" fill="#fff" mask="url(#mask-4)" d="m71.757 24.16c-1.23 0-1.845 1.444-1.845 4.327-0.001 1.86 0.154 3.099 0.464 3.723 0.313 0.621 0.765 0.932 1.357 0.932 0.636 0 1.126-0.31 1.466-0.932 0.344-0.623 0.512-1.841 0.512-3.652 0-2.934-0.651-4.398-1.954-4.398m0.121 12.391c-1.813 0-3.197-0.697-4.149-2.087-0.951-1.392-1.426-3.398-1.426-6.021 0.001-2.419 0.478-4.306 1.433-5.658 0.957-1.355 2.288-2.03 3.998-2.03 1.821 0 3.213 0.679 4.175 2.036 0.965 1.356 1.446 3.293 1.446 5.814 0 2.515-0.475 4.468-1.425 5.86-0.947 1.39-2.297 2.086-4.052 2.086"/>
    <polygon id="Fill-32" points="77.629 21.163 81.036 21.164 81.035 28.222 81.09 28.222 84.307 21.164 87.882 21.165 84.396 28.83 87.734 36.171 83.993 36.17 81.09 29.931 81.035 29.931 81.034 36.17 77.627 36.17" mask="url(#mask-4)" fill="#fff"/>
    <path id="Fill-33" fill="#fff" mask="url(#mask-4)" d="m88.003 35.9l0.001-3.496c1.077 0.628 1.983 0.944 2.721 0.944 0.427 0 0.763-0.118 1.011-0.354 0.244-0.235 0.369-0.55 0.369-0.939 0-0.299-0.098-0.579-0.297-0.843-0.199-0.262-0.54-0.58-1.028-0.954-1.175-0.901-2.03-1.738-2.558-2.514-0.528-0.775-0.791-1.64-0.791-2.592 0-1.296 0.409-2.353 1.227-3.17 0.816-0.816 1.873-1.224 3.168-1.224 0.96 0 1.913 0.205 2.858 0.62l-0.001 3.359c-1.013-0.553-1.835-0.833-2.462-0.833-0.419 0-0.752 0.106-0.998 0.31-0.244 0.206-0.364 0.49-0.364 0.848-0.001 0.631 0.565 1.338 1.695 2.124 0.677 0.467 1.361 1.119 2.054 1.964 0.694 0.845 1.04 1.82 1.04 2.93-0.001 1.295-0.455 2.367-1.362 3.219-0.906 0.851-2.056 1.275-3.449 1.275-0.954 0-1.896-0.225-2.834-0.674"/>
    <path id="Fill-34" fill="#fff" mask="url(#mask-4)" d="m33.249 32.271l-3.428-4.906c-3.426-4.905 3.914-8.079 3.914-8.079l-0.539-0.541s-11.937 2.459-6.944 9.61l3.396 5.121c1.277 1.921-0.633 3.026-1.812 3.026-1.18 0-2.155-0.001-2.155-0.001v0.922h1.675c2.837 0.001 8.945-0.62 5.893-5.152"/>
    <path id="Fill-35" fill="#6D8D23" mask="url(#mask-4)" d="m73.36 14.118s-1.588 0.933-4.509 5.202c-0.456 0.668-0.766 0.606-0.766 0.606s0.135 1.021 1.637 0.715c0 0 2.124-5.036 4.342-6.038l-0.704-0.485z"/>
    <path id="Fill-36" fill="#88C432" mask="url(#mask-4)" d="m71.279 16.712c24.469 2.856 24.373-16.712 24.373-16.712 0 0.000051669-2.974 3.5947-12.222 3.2986-11.16-0.357-12.151 13.413-12.151 13.413z"/>
    <path id="Fill-37" fill="#6D8D23" mask="url(#mask-4)" d="m72.624 15.38s4.615-6.9755 10.071-7.518c5.549-0.5544 8.938-3.2893 8.938-3.2893s-3.376 4.1248-9.276 4.7169c-5.089 0.5074-9.733 6.0904-9.733 6.0904z"/>
   </g>
  </g>
 </g>
</svg>
