<?xml version="1.0" encoding="UTF-8" standalone="no"?>
<svg xmlns="http://www.w3.org/2000/svg" height="62px" width="172px" version="1.1" xmlns:xlink="http://www.w3.org/1999/xlink" viewBox="0 0 172 62"><!-- Generator: Sketch 42 (36781) - http://www.bohemiancoding.com/sketch -->
 <title>Logo</title>
 <desc>Created with Sketch.</desc>
 <defs>
  <polygon id="path-1" points="51.125 0.20163 51.125 45.202 0.18235 45.202 0.18235 0.20163"/>
  <polygon id="path-3" points="0 60.909 171.67 60.909 171.67 0 0 0"/>
 </defs>
 <g id="Symbols" fill-rule="evenodd" fill="none">
  <g id="1140-Full-Nav" transform="translate(-120 -17)">
   <g id="Logo" transform="translate(120 17.476)">
    <g id="Group-3" transform="translate(120.55 2.9792)">
     <mask id="mask-2" fill="white">
      <use xlink:href="#path-1"/>
     </mask>
     <path id="Fill-1" fill="#0D83DD" mask="url(#mask-2)" d="m0.18235 42.003s12.473 1.334 25.137 1.334c11.65 0 25.807-4.224 25.807-19.854 0-10.296-7.034-19.281-25.799-19.281-21.694-0.0004-23.312 17.582-20.066 26.409 2.9017 7.891-5.0786 11.392-5.0786 11.392"/>
    </g>
    <path id="Fill-4" fill="#fff" d="m138 30.488c1.1 0 1.8-0.627 1.8-1.626 0-0.964-0.72-1.625-1.78-1.625h-2.64v3.251h2.62zm-0.15-4.859c1 0 1.64-0.644 1.64-1.626 0-0.914-0.66-1.507-1.68-1.507h-2.43v3.133h2.47zm-4.4-4.742h4.4c1.25 0 1.86 0.136 2.49 0.577 0.72 0.507 1.17 1.371 1.17 2.353 0 1.304-0.73 2.184-2.05 2.506 0.66 0.136 0.96 0.254 1.33 0.542 0.7 0.507 1.07 1.303 1.07 2.251 0 0.864-0.34 1.694-0.91 2.235-0.61 0.576-1.39 0.83-2.58 0.83h-4.92v-11.294z"/>
    <mask id="mask-4" fill="white">
     <use xlink:href="#path-3"/>
    </mask>
    <polygon id="Fill-6" points="143.36 32.181 145.23 32.181 145.23 20.887 143.36 20.887" mask="url(#mask-4)" fill="#fff"/>
    <path id="Fill-8" fill="#fff" mask="url(#mask-4)" d="m148.62 27.999c0 1.795 0.68 2.811 1.88 2.811 1.22 0 1.9-1.016 1.9-2.845 0-1.794-0.66-2.76-1.86-2.76-1.22 0-1.92 1-1.92 2.794m5.08-2.624c0.49 0.796 0.7 1.558 0.7 2.642 0 2.555-1.63 4.334-3.97 4.334-1.28 0-2.3-0.526-2.98-1.541-0.56-0.813-0.83-1.761-0.83-2.828 0-2.539 1.61-4.317 3.92-4.317 1.4 0 2.42 0.542 3.16 1.71"/>
    <path id="Fill-9" fill="#fff" mask="url(#mask-4)" d="m157.62 26.238c0 0.83 0.61 1.372 1.54 1.372 0.95 0 1.54-0.508 1.54-1.321 0-0.914-0.54-1.439-1.51-1.439-0.95 0-1.57 0.559-1.57 1.388zm0.83 5.69c-0.48 0-0.75-0.035-1.36-0.205-0.3 0.288-0.41 0.458-0.41 0.729 0 0.88 1.09 1.439 2.83 1.439 1.44 0 2.19-0.39 2.19-1.118 0-0.507-0.49-0.845-1.26-0.845h-1.99zm4.99-8.246h-0.58c-0.67 0-0.91 0.135-1.21 0.677 0.71 0.609 0.98 1.101 0.98 1.812 0 1.49-1.39 2.556-3.37 2.556-0.49 0-0.85-0.05-1.58-0.22-0.42 0.22-0.57 0.423-0.57 0.796 0 0.508 0.44 0.847 1.13 0.847h2.49c1.63 0 2.73 0.931 2.73 2.285 0 1.694-1.66 2.743-4.35 2.743-2.7 0-4.05-0.762-4.05-2.269 0-0.796 0.3-1.219 1.22-1.693-0.59-0.525-0.78-0.847-0.78-1.372 0-0.761 0.37-1.252 1.34-1.743-0.85-0.559-1.17-1.084-1.17-1.913 0-0.627 0.25-1.236 0.73-1.66 0.61-0.592 1.49-0.863 2.74-0.863 0.56 0 0.9 0.033 1.59 0.169 0.31-1.118 0.9-1.591 2-1.591h0.71v1.439z"/>
    <path id="Fill-10" fill="#231F1F" mask="url(#mask-4)" d="m35.142 53.535c-0.098-0.855-0.24-1.579-1.05-1.579-0.992 0-1.233 1.019-1.233 2.774 0 0.648-0.001 2.42 1.233 2.42 0.894 0 0.994-0.959 1.05-1.578l1.39 0.134c-0.113 0.898-0.354 2.685-2.553 2.685-2.27 0-2.638-2.258-2.638-3.796 0-1.693 0.455-3.835 2.738-3.834 2.085 0 2.354 1.845 2.453 2.628l-1.39 0.146z"/>
    <polygon id="Fill-11" points="39.001 48.371 38.999 58.212 37.552 58.212 37.553 48.371" mask="url(#mask-4)" fill="#231F1F"/>
    <path id="Fill-12" fill="#231F1F" mask="url(#mask-4)" d="m41.415 54.584c0 1.903 0.411 2.669 1.22 2.669s1.219-0.737 1.219-2.683c0.001-1.873-0.396-2.672-1.218-2.672-0.881 0-1.221 0.915-1.221 2.686m3.972-0.089c-0.001 1.697-0.383 3.898-2.767 3.897-2.17 0-2.737-1.933-2.737-3.823 0.001-1.756 0.469-3.808 2.766-3.807 2.186 0 2.738 1.962 2.738 3.733"/>
    <path id="Fill-13" fill="#231F1F" mask="url(#mask-4)" d="m47.717 50.939v4.618c0 1.021 0 1.624 0.809 1.624 1.163 0 1.163-1.4 1.163-2.744l0.001-3.498 1.447 0.001-0.001 7.274h-1.334v-1.092c-0.254 0.533-0.61 1.271-1.774 1.271-1.758 0-1.758-1.596-1.758-2.805l0.001-4.649h1.446z"/>
    <path id="Fill-14" fill="#231F1F" mask="url(#mask-4)" d="m56.075 53.936c0-0.471 0-0.943-0.298-1.415-0.155-0.237-0.468-0.606-0.963-0.606-1.065 0-1.207 1.401-1.207 2.567 0 1.241 0.127 2.729 1.22 2.73 0.41 0 0.736-0.234 0.95-0.575 0.184-0.294 0.298-0.65 0.298-1.446v-1.255zm1.433-5.563l-0.001 9.842h-1.333v-1.106c-0.185 0.427-0.54 1.239-1.76 1.239-1.971 0-2.339-2.331-2.339-3.734 0-2.493 1.008-3.806 2.397-3.806 1.092 0 1.433 0.648 1.603 0.973v-3.408h1.433z"/>
    <path id="Fill-15" fill="#231F1F" mask="url(#mask-4)" d="m64.405 54.661c-0.225-0.015-0.325-0.015-0.425-0.015-1.674 0-1.886 0.87-1.886 1.548 0 0.872 0.453 1.093 0.936 1.093 0.611 0 1.375-0.649 1.375-2.258v-0.368zm-3.56-1.845c0.327-1.875 1.988-2.052 2.641-2.052 1.006 0 1.6 0.384 1.928 0.783 0.439 0.503 0.439 1.402 0.439 2.183v2.465c0 0.618 0 1.521 0.113 2.021h-1.348c-0.069-0.353-0.098-0.529-0.098-1.21-0.269 0.517-0.724 1.389-1.973 1.389-1.134 0-1.958-0.754-1.958-2.096 0-1.166 0.611-1.978 1.448-2.273 0.596-0.207 1.363-0.325 2.368-0.297v-0.294c0-0.529 0.001-1.565-1.034-1.565-0.922 0-1.079 0.83-1.133 1.14l-1.393-0.194z"/>
    <path id="Fill-16" fill="#231F1F" mask="url(#mask-4)" d="m70.589 53.539c-0.099-0.854-0.242-1.578-1.049-1.578-0.994 0-1.234 1.019-1.235 2.774 0 0.648 0 2.419 1.234 2.42 0.893 0 0.994-0.96 1.05-1.578l1.39 0.134c-0.113 0.898-0.354 2.685-2.553 2.684-2.271 0-2.639-2.258-2.638-3.795 0-1.693 0.453-3.835 2.738-3.835 2.086 0 2.355 1.845 2.453 2.628l-1.39 0.146z"/>
    <path id="Fill-17" fill="#231F1F" mask="url(#mask-4)" d="m76.585 53.54c-0.101-0.855-0.241-1.579-1.051-1.579-0.992 0-1.233 1.019-1.234 2.774 0 0.649 0 2.42 1.233 2.421 0.894 0 0.994-0.96 1.052-1.579l1.387 0.135c-0.109 0.898-0.354 2.685-2.551 2.684-2.272 0-2.639-2.258-2.639-3.795 0-1.694 0.454-3.836 2.738-3.835 2.086 0 2.356 1.845 2.452 2.628l-1.387 0.146z"/>
    <path id="Fill-18" fill="#231F1F" mask="url(#mask-4)" d="m80.358 54.589c0 1.903 0.411 2.669 1.218 2.669 0.81 0 1.221-0.737 1.222-2.683 0-1.873-0.396-2.672-1.221-2.672-0.88 0-1.219 0.915-1.219 2.686m3.972-0.089c0 1.697-0.383 3.898-2.768 3.897-2.169 0-2.737-1.933-2.736-3.823 0-1.756 0.468-3.808 2.764-3.807 2.187 0 2.74 1.962 2.74 3.733"/>
    <path id="Fill-19" fill="#231F1F" mask="url(#mask-4)" d="m86.695 50.944l-0.001 4.618c0 1.022 0 1.624 0.808 1.624 1.163 0 1.163-1.4 1.163-2.744l0.001-3.498 1.448 0.001-0.001 7.274h-1.335v-1.092c-0.256 0.533-0.61 1.271-1.775 1.271-1.756-0.001-1.756-1.596-1.756-2.805l0.001-4.649h1.447z"/>
    <path id="Fill-20" fill="#231F1F" mask="url(#mask-4)" d="m91.225 50.945h1.335v1.122c0.169-0.397 0.525-1.298 1.729-1.298 0.453 0 1.177 0.117 1.561 0.902 0.227 0.456 0.241 1.134 0.241 1.857l-0.001 4.692h-1.445v-4.602c0-0.945 0.001-1.638-0.838-1.638-1.135-0.001-1.135 1.416-1.135 2.169l-0.001 4.07h-1.447l0.001-7.274z"/>
    <path id="Fill-21" fill="#231F1F" mask="url(#mask-4)" d="m100.39 52.158h-1.339l-0.001 3.215c0 1.27 0 1.755 0.96 1.755 0.26 0 0.43-0.028 0.6-0.044v1.184c-0.28 0.057-0.61 0.132-1.076 0.132-1.904-0.001-1.904-1.329-1.903-2.924v-3.318h-0.907v-1.213l0.951 0.001 0.072-1.905 1.304-0.116v2.021h1.339v1.212z"/>
    <path id="Fill-22" fill="#231F1F" mask="url(#mask-4)" d="m103.14 50.946v7.275h-1.45v-7.275h1.45zm-1.49-0.988v-1.594h1.52v1.594h-1.52z"/>
    <path id="Fill-23" fill="#231F1F" mask="url(#mask-4)" d="m104.36 50.947h1.34v1.122c0.17-0.397 0.52-1.299 1.73-1.299 0.45 0 1.18 0.118 1.56 0.902 0.23 0.457 0.24 1.135 0.24 1.858v4.691h-1.45v-4.601c0-0.945 0-1.639-0.83-1.639-1.14 0-1.14 1.417-1.14 2.17v4.07h-1.45v-7.274z"/>
    <path id="Fill-24" fill="#231F1F" mask="url(#mask-4)" d="m112.01 53.192c0 0.22 0 1.401 0.99 1.401s0.99-1.226 0.99-1.401c0-0.34-0.05-1.431-0.95-1.431-0.89 0-1.03 0.811-1.03 1.431zm-0.57 5.651c0 0.783 0.62 1.018 1.69 1.018 0.61 0 1.66-0.101 1.66-1.003 0-0.663-0.51-0.813-0.84-0.84-0.27-0.031-1.6-0.091-1.9-0.104-0.2 0.104-0.61 0.338-0.61 0.929zm4.6-7.954c-0.13-0.03-0.22-0.044-0.33-0.044-0.41 0-0.65 0.192-0.77 0.797 0.36 0.456 0.54 0.974 0.54 1.564 0 1.136-0.76 2.331-2.42 2.331-0.4 0-0.66-0.059-0.9-0.132-0.21 0.104-0.52 0.236-0.52 0.649 0 0.545 0.35 0.56 1.77 0.635 1.36 0.089 2.72 0.163 2.72 1.964 0 1.932-1.88 2.256-3.17 2.256-1 0-2.83-0.191-2.83-1.83 0-1.016 0.71-1.285 1.02-1.402-0.26-0.177-0.76-0.474-0.76-1.209 0-0.903 0.72-1.285 1.04-1.447-0.34-0.251-0.91-0.664-0.91-1.86 0-1.446 1.02-2.39 2.45-2.39 0.67 0 1.04 0.177 1.34 0.311 0.09-0.561 0.22-1.343 1.29-1.343 0.18 0 0.31 0.028 0.45 0.044l-0.01 1.106z"/>
    <polygon id="Fill-25" points="0.0028551 22.324 10.192 22.325 10.192 27.036 5.0088 27.035 5.0082 31.098 9.6036 31.098 9.603 35.694 5.0075 35.693 5.0069 44.409 -0.00031723 44.408" mask="url(#mask-4)" fill="#0D83DD"/>
    <path id="Fill-26" fill="#0D83DD" mask="url(#mask-4)" d="m14.786 29.54l-0.001 4.373c1.85-0.035 2.776-0.683 2.776-1.944 0-0.855-0.214-1.469-0.64-1.838-0.428-0.369-1.14-0.563-2.135-0.591zm-4.179-3.564h4.87c1.972 0.001 3.525 0.51 4.666 1.521 1.14 1.012 1.71 2.388 1.71 4.128 0 0.892-0.215 1.755-0.646 2.59-0.434 0.833-1.066 1.458-1.894 1.881l3.342 8.309h-4.418l-3.382-8.394h-0.07l-0.001 8.393-4.179-0.001 0.002-18.427z"/>
    <polygon id="Fill-27" points="22.991 25.978 31.454 25.979 31.454 29.899 27.174 29.898 27.174 33.294 30.886 33.294 30.885 37.119 27.173 37.118 27.172 40.472 31.48 40.473 31.48 44.406 22.988 44.405" mask="url(#mask-4)" fill="#0D83DD"/>
    <polygon id="Fill-28" points="40.469 25.98 44.651 25.981 44.651 32.813 48.364 32.813 48.365 25.981 52.548 25.981 52.545 44.409 48.362 44.408 48.363 36.748 44.65 36.747 44.649 44.408 40.466 44.407" mask="url(#mask-4)" fill="#0D83DD"/>
    <path id="Fill-29" fill="#231F1F" mask="url(#mask-4)" d="m58.442 35.349v4.827c1.296-0.022 2.265-0.215 2.916-0.592 0.649-0.373 0.972-0.989 0.972-1.848 0-1.592-1.155-2.386-3.465-2.387h-0.423zm0.001-8.776v4.77c2.357-0.056 3.534-0.835 3.534-2.336 0-0.896-0.281-1.519-0.845-1.872-0.562-0.351-1.456-0.541-2.689-0.562zm-5.006-4.242l5.133 0.001c2.986 0.001 5.14 0.582 6.448 1.744 1.311 1.168 1.966 2.653 1.965 4.451 0 1.944-0.949 3.507-2.85 4.687 2.135 0.849 3.202 2.463 3.202 4.843-0.001 1.908-0.672 3.442-2.011 4.609-1.342 1.169-3.111 1.75-5.303 1.75l-6.587-0.001 0.003-22.084z"/>
    <path id="Fill-30" fill="#231F1F" mask="url(#mask-4)" d="m74.304 29.666c-1.509 0-2.262 1.773-2.262 5.313-0.001 2.284 0.189 3.805 0.571 4.571 0.382 0.763 0.936 1.144 1.665 1.144 0.78 0 1.38-0.38 1.802-1.144 0.416-0.765 0.628-2.26 0.628-4.485 0-3.602-0.801-5.399-2.404-5.399m0.149 15.215c-2.225-0.001-3.918-0.856-5.089-2.563-1.171-1.709-1.755-4.173-1.754-7.393 0.001-2.971 0.587-5.288 1.76-6.949 1.172-1.663 2.811-2.492 4.909-2.492 2.238 0.001 3.946 0.834 5.127 2.5 1.179 1.665 1.776 4.044 1.775 7.139 0 3.089-0.584 5.487-1.75 7.196-1.163 1.707-2.822 2.562-4.978 2.562"/>
    <path id="Fill-31" fill="#231F1F" mask="url(#mask-4)" d="m88.114 29.668c-1.511 0-2.266 1.772-2.266 5.313-0.001 2.284 0.189 3.805 0.569 4.571 0.385 0.763 0.94 1.144 1.666 1.144 0.781 0 1.384-0.381 1.801-1.144 0.423-0.765 0.629-2.261 0.629-4.485 0-3.602-0.8-5.399-2.399-5.399m0.148 15.215c-2.226-0.001-3.925-0.856-5.094-2.563-1.168-1.709-1.752-4.173-1.752-7.393 0.001-2.971 0.587-5.288 1.76-6.949 1.175-1.663 2.809-2.492 4.909-2.492 2.236 0.001 3.945 0.834 5.127 2.5 1.184 1.665 1.776 4.044 1.775 7.139 0 3.089-0.582 5.487-1.749 7.196-1.164 1.707-2.82 2.562-4.976 2.562"/>
    <polygon id="Fill-32" points="95.323 25.987 99.507 25.988 99.507 34.655 99.574 34.655 103.52 25.988 107.91 25.989 103.63 35.402 107.73 44.416 103.14 44.415 99.574 36.754 99.506 36.754 99.505 44.415 95.321 44.415" mask="url(#mask-4)" fill="#231F1F"/>
    <path id="Fill-33" fill="#231F1F" mask="url(#mask-4)" d="m108.06 44.084v-4.294c1.33 0.771 2.44 1.159 3.34 1.16 0.53 0 0.94-0.145 1.25-0.435 0.3-0.288 0.45-0.675 0.45-1.153 0-0.367-0.12-0.711-0.36-1.035-0.25-0.322-0.67-0.712-1.27-1.172-1.44-1.106-2.49-2.134-3.14-3.087-0.65-0.952-0.97-2.014-0.97-3.183 0-1.591 0.5-2.89 1.51-3.892 1-1.003 2.3-1.504 3.89-1.504 1.18 0.001 2.35 0.253 3.51 0.762v4.124c-1.25-0.678-2.26-1.022-3.03-1.022-0.51 0-0.92 0.13-1.22 0.381-0.3 0.253-0.45 0.601-0.45 1.041 0 0.775 0.69 1.643 2.08 2.608 0.83 0.574 1.67 1.375 2.52 2.412 0.86 1.037 1.28 2.234 1.28 3.597 0 1.591-0.56 2.907-1.67 3.953s-2.53 1.566-4.24 1.565c-1.17 0-2.33-0.275-3.48-0.826"/>
    <path id="Fill-34" fill="#0D83DD" mask="url(#mask-4)" d="m40.827 39.627l-4.208-6.024c-4.207-6.023 4.805-9.921 4.805-9.921l-0.661-0.664s-14.658 3.019-8.528 11.8l4.171 6.288c1.568 2.359-0.777 3.716-2.225 3.716h-2.647v1.131h2.058c3.483 0.001 10.983-0.761 7.235-6.326"/>
    <path id="Fill-35" fill="#6D8D23" mask="url(#mask-4)" d="m90.082 17.336s-1.95 1.146-5.537 6.388c-0.56 0.82-0.941 0.744-0.941 0.744s0.166 1.253 2.01 0.878c0 0 2.609-6.184 5.332-7.415l-0.864-0.595z"/>
    <path id="Fill-36" fill="#86C61F" mask="url(#mask-4)" d="m102.45 4.0505c-13.707-0.4384-14.924 16.47-14.924 16.47 30.044 3.508 29.934-20.52 29.934-20.52 0 0.000063447-3.66 4.4141-15.01 4.0505"/>
    <path id="Fill-37" fill="#6D8D23" mask="url(#mask-4)" d="m101.13 11.407c-6.249 0.623-11.952 7.479-11.952 7.479s5.668-8.566 12.362-9.2319c6.82-0.6808 10.98-4.0391 10.98-4.0391s-4.15 5.065-11.39 5.792"/>
   </g>
  </g>
 </g>
</svg>
