<svg xmlns="http://www.w3.org/2000/svg" viewBox="0 0 240 50" width="240px" height="50px"><defs><style>.a{fill:#062942;}.b{fill:#0d83dd;}.c{fill:#040505;}.d{fill:#648c0f;}.e{fill:#86c61f;}.f{fill:#d1d7db;}</style></defs><title>fb-payments</title><path class="a" d="M146.06,36.83a3,3,0,0,0,3.25-3.18,3,3,0,0,0-3.1-3.2h-3.94v6.38Zm-5.85,8.44V28.71h5.85a5.53,5.53,0,0,1,3.54,1,5.08,5.08,0,0,1,1.81,3.9,4.82,4.82,0,0,1-5.13,4.89h-4v6.73Z"/><path class="a" d="M159.69,39.09c-3.17,0-4.91,1-4.91,2.85,0,1.31,1,2.18,2.6,2.18a4,4,0,0,0,3.94-4.19c0-.22,0-.47,0-.79l-1.61,0Zm1.83,6.18a14.59,14.59,0,0,1-.22-2.21A4.31,4.31,0,0,1,157,45.59c-2.53,0-4.26-1.51-4.26-3.7a3.79,3.79,0,0,1,2.06-3.35,10.76,10.76,0,0,1,4.91-.89c.45,0,.82,0,1.59,0v-.4c0-2.31-.87-3.15-3.2-3.15-1.83,0-3,.77-3.27,2.23l-1.76-.3a3.16,3.16,0,0,1,.92-1.91,6.13,6.13,0,0,1,4.54-1.49c1.83,0,3.08.47,3.79,1.44a5.62,5.62,0,0,1,.82,3.57v5.19a9,9,0,0,0,.27,2.38Z"/><path class="a" d="M169.89,46.71a4.77,4.77,0,0,1-1.69,2.45,3.12,3.12,0,0,1-1.91.47,5.5,5.5,0,0,1-1.44-.2V47.92a5.76,5.76,0,0,0,1.26.17,2.09,2.09,0,0,0,1.93-1,8.77,8.77,0,0,0,.82-2l-4.24-12h1.93l3.27,9.21L173.19,33h1.61Z"/><path class="a" d="M191.23,45.27V37.67a3.64,3.64,0,0,0-.4-2.23,2.33,2.33,0,0,0-2-1.09,3.06,3.06,0,0,0-2.18,1.07,4,4,0,0,0-.94,3v6.9h-1.83v-8a3,3,0,0,0-.57-2.06,2.38,2.38,0,0,0-1.83-.89c-1.68,0-3,1.61-3,3.67v7.32h-1.81V33h1.64v2.36a4.15,4.15,0,0,1,3.77-2.68,3.46,3.46,0,0,1,3.42,2.93c.82-1.91,2.18-2.93,3.87-2.93a3.65,3.65,0,0,1,3.12,1.74c.45.72.57,1.47.57,3.23v7.59Z"/><path class="a" d="M204.83,37.9a3.84,3.84,0,0,0-.69-2.43,2.9,2.9,0,0,0-2.53-1.29A3.28,3.28,0,0,0,199,35.44a4.15,4.15,0,0,0-.87,2.46Zm1.86,4.1a5.24,5.24,0,0,1-5.18,3.6c-3.35,0-5.6-2.56-5.6-6.38s2.33-6.5,5.68-6.5a5,5,0,0,1,4.61,2.83,8.52,8.52,0,0,1,.72,3.77H198a5.79,5.79,0,0,0,.5,2.86A3.51,3.51,0,0,0,201.64,44a3.35,3.35,0,0,0,2.55-1.12,4.2,4.2,0,0,0,.74-1.29Z"/><path class="a" d="M217.62,45.27V37.4c0-2-.89-3.05-2.53-3.05-2,0-3.42,1.79-3.42,4.19v6.73h-1.91V33h1.76v2.26c1.26-1.94,2.23-2.58,3.92-2.58A3.86,3.86,0,0,1,219,34.84a7.59,7.59,0,0,1,.45,3.35v7.07Z"/><path class="a" d="M228.72,45.47a10.69,10.69,0,0,1-1.81.15c-2.3,0-3.5-1.27-3.5-3.72V34.52h-2.16V33h2.16l.07-3.08,1.78-.15V33H228v1.49h-2.75v7.67a1.73,1.73,0,0,0,2,1.91,7.07,7.07,0,0,0,1.46-.15Z"/><path class="a" d="M231.17,41.72a2.45,2.45,0,0,0,.79,1.39,5,5,0,0,0,3,.92c1.71,0,2.88-.79,2.88-2,0-1-.72-1.61-2.11-1.89l-2.58-.47c-2.08-.4-3.3-1.64-3.3-3.38,0-2.16,1.83-3.6,4.61-3.6,2.55,0,4.21,1.07,4.81,3.1l-1.73.37a3,3,0,0,0-3.12-1.91c-1.59,0-2.63.72-2.63,1.81,0,.92.62,1.47,1.91,1.71l2.4.42c2.5.45,3.72,1.64,3.72,3.62,0,2.23-2,3.75-5,3.75a6.06,6.06,0,0,1-4.16-1.37,3.72,3.72,0,0,1-1.26-2.13Z"/><polygon class="b" points="0 22.75 10.15 22.75 10.15 27.45 4.99 27.45 4.99 31.5 9.57 31.5 9.57 36.09 4.99 36.09 4.99 44.78 0 44.78 0 22.75"/><path class="b" d="M14.73,29.95v4.36q2.76-.05,2.77-1.94a2.32,2.32,0,0,0-.64-1.83,3.41,3.41,0,0,0-2.13-.59Zm-4.16-3.55h4.85a6.74,6.74,0,0,1,4.65,1.52A5.23,5.23,0,0,1,21.77,32a5.58,5.58,0,0,1-.64,2.58,4.27,4.27,0,0,1-1.89,1.88l3.33,8.29h-4.4L14.8,36.4h-.07v8.37H10.56Z"/><polygon class="b" points="22.9 26.39 31.33 26.39 31.33 30.3 27.07 30.3 27.07 33.69 30.77 33.69 30.77 37.51 27.07 37.51 27.07 40.85 31.36 40.85 31.36 44.77 22.9 44.77 22.9 26.39"/><polygon class="b" points="40.31 26.39 44.48 26.39 44.48 33.21 48.18 33.21 48.18 26.39 52.35 26.39 52.35 44.77 48.18 44.77 48.18 37.13 44.48 37.13 44.48 44.77 40.31 44.77 40.31 26.39"/><path class="c" d="M58.22,35.74v4.81a6.15,6.15,0,0,0,2.9-.59,2,2,0,0,0,1-1.84q0-2.38-3.45-2.38Zm0-8.75v4.76q3.52-.08,3.52-2.33a2,2,0,0,0-.84-1.87A5.39,5.39,0,0,0,58.22,27Zm-5-4.23h5.12c3,0,5.12.58,6.42,1.74a5.69,5.69,0,0,1,2,4.44,5.32,5.32,0,0,1-2.84,4.68,4.76,4.76,0,0,1,3.19,4.83,5.81,5.81,0,0,1-2,4.6,7.75,7.75,0,0,1-5.28,1.75H53.23Z"/><path class="c" d="M74,30.07q-2.25,0-2.25,5.3a11.85,11.85,0,0,0,.57,4.56A1.79,1.79,0,0,0,74,41.07a2,2,0,0,0,1.8-1.14,10.64,10.64,0,0,0,.62-4.47q0-5.39-2.4-5.39m.15,15.18a5.77,5.77,0,0,1-5.07-2.56q-1.75-2.56-1.75-7.37a11.89,11.89,0,0,1,1.75-6.93A5.64,5.64,0,0,1,74,25.89a5.87,5.87,0,0,1,5.11,2.49q1.76,2.49,1.77,7.12a12.66,12.66,0,0,1-1.74,7.18,5.64,5.64,0,0,1-5,2.56"/><path class="c" d="M87.78,30.07q-2.26,0-2.26,5.3a11.91,11.91,0,0,0,.57,4.56,1.8,1.8,0,0,0,1.66,1.14,2,2,0,0,0,1.79-1.14,10.56,10.56,0,0,0,.63-4.47q0-5.39-2.39-5.39m.15,15.18a5.77,5.77,0,0,1-5.08-2.56q-1.75-2.56-1.75-7.37a11.89,11.89,0,0,1,1.75-6.93,5.64,5.64,0,0,1,4.89-2.49,5.88,5.88,0,0,1,5.11,2.49q1.77,2.49,1.77,7.12a12.65,12.65,0,0,1-1.74,7.18,5.64,5.64,0,0,1-5,2.56"/><polygon class="c" points="94.96 26.39 99.13 26.39 99.13 35.04 99.2 35.04 103.13 26.39 107.5 26.39 103.24 35.78 107.32 44.77 102.75 44.77 99.2 37.13 99.13 37.13 99.13 44.77 94.96 44.77 94.96 26.39"/><path class="c" d="M107.65,44.44V40.16A7,7,0,0,0,111,41.32a1.72,1.72,0,0,0,1.24-.43,1.53,1.53,0,0,0,.45-1.15,1.69,1.69,0,0,0-.36-1,6.89,6.89,0,0,0-1.26-1.17,14.33,14.33,0,0,1-3.13-3.08,5.52,5.52,0,0,1-1-3.18,5.14,5.14,0,0,1,5.38-5.38,8.61,8.61,0,0,1,3.5.76v4.11a6.82,6.82,0,0,0-3-1,1.85,1.85,0,0,0-1.22.38,1.29,1.29,0,0,0-.45,1q0,1.16,2.07,2.6a12.59,12.59,0,0,1,2.51,2.41A5.48,5.48,0,0,1,117,39.76a5.19,5.19,0,0,1-1.66,3.94,5.91,5.91,0,0,1-4.22,1.56,7.94,7.94,0,0,1-3.47-.82"/><path class="b" d="M40.67,40l-4.19-6c-4.19-6,4.79-9.9,4.79-9.9l-.66-.66s-14.6,3-8.49,11.77l4.16,6.27c1.56,2.35-.78,3.71-2.22,3.71H31.42v1.13h2c3.47,0,10.94-.76,7.21-6.31"/><path class="d" d="M89.74,17.76s-1.94,1.14-5.51,6.37c-.56.82-.94.74-.94.74s.17,1.25,2,.88c0,0,2.6-6.17,5.31-7.4Z"/><path class="e" d="M87.19,20.94S88.4,4.07,102.06,4.51c11.31.36,14.95-4,14.95-4s.12,24-29.81,20.47"/><path class="d" d="M88.84,19.31s5.64-8.55,12.32-9.21a22.16,22.16,0,0,0,10.93-4,18,18,0,0,1-11.35,5.78c-6.22.62-11.9,7.46-11.9,7.46"/><polygon class="f" points="128.35 45.17 129.73 45.17 129.73 24.74 128.35 24.74 128.35 45.17"/></svg>
