<svg xmlns="http://www.w3.org/2000/svg" viewBox="0 0 52 13.62"><defs><style>.a{fill:#33629a;}</style></defs><title>forbes</title><path class="a" d="M4.95,1.27H6.12a3.84,3.84,0,0,1,2.05.26A3.63,3.63,0,0,1,9.81,3.72C10,4.2,10,4.2,10.39,4.07L10.71,4V0.23H0V0.9H0.42a1.28,1.28,0,0,1,1,.47C1.83,2,1.9,2.77,1.9,6.62c0,4.09-.09,5.09-0.48,5.6a1.08,1.08,0,0,1-.83.44C0,12.77,0,12.76,0,13.07a0.4,0.4,0,0,0,0,.28H6.75a0.63,0.63,0,0,0,0-.57,3.45,3.45,0,0,0-.5-0.1,3.34,3.34,0,0,1-.54-0.11,1.8,1.8,0,0,1-.76-1.67C4.88,10.24,4.83,9,4.83,8.08V7.24h0.4a5.4,5.4,0,0,1,1.48.16,1.85,1.85,0,0,1,.86,1.32L7.66,9.07H8.27V4.6H7.71L7.62,5a1.78,1.78,0,0,1-.91,1.32A1.67,1.67,0,0,1,6,6.4H4.83V5.32c0-1.12.06-3.48,0.1-3.85ZM51.78,9.2a3.63,3.63,0,0,0-2.07-1.57,5,5,0,0,1-1.79-1,1,1,0,0,1-.29-0.89,1.19,1.19,0,0,1,.31-0.84,1.21,1.21,0,0,1,1.2-.33,2.52,2.52,0,0,1,1.77,1.88c0.16,0.45.18,0.45,0.47,0.33l0.18-.07V4.22l-0.13-.06a7.73,7.73,0,0,0-3.07-.42,3.6,3.6,0,0,0-2.4,1,2.76,2.76,0,0,0-.87,2.16,2.37,2.37,0,0,0,.68,1.64,4.06,4.06,0,0,0,1.7,1c1.55,0.61,2,1,2,1.71a1.32,1.32,0,0,1-1,1.31,2.47,2.47,0,0,1-1.06,0,3.08,3.08,0,0,1-1.87-2.11l-0.13-.32H45.27a0.8,0.8,0,0,0-.25.06h-0.1V13l0.17,0.07a10.31,10.31,0,0,0,2.08.46h1a3.92,3.92,0,0,0,1.29-.12,3.11,3.11,0,0,0,2.36-2A2.32,2.32,0,0,0,52,10.51,2.49,2.49,0,0,0,51.78,9.2ZM42.36,4.08a4.61,4.61,0,0,0-3.77.09A4.39,4.39,0,0,0,36.3,6.9a5.34,5.34,0,0,0-.27,2A5.47,5.47,0,0,0,36.12,10a4.44,4.44,0,0,0,3.59,3.58,7,7,0,0,0,1.75,0,4.8,4.8,0,0,0,1.7-.65,3,3,0,0,0,1.06-1A0.5,0.5,0,0,0,44,11.57a1.29,1.29,0,0,0-.32.17,2.86,2.86,0,0,1-1.68.47,2.67,2.67,0,0,1-2.13-.84,2.39,2.39,0,0,1-.51-0.68,4.65,4.65,0,0,1-.49-2V8.3h5.54V8.1a4.91,4.91,0,0,0,0-.6A4,4,0,0,0,42.36,4.08ZM39.57,7.49h-0.7V7.35q0-.23,0-0.45c0.23-1.51.8-2.41,1.5-2.41s1,0.89,1.13,2.52V7.47H40.9ZM25.19,3.7a2.1,2.1,0,0,0-1,.21,3.35,3.35,0,0,0-1.55,1.55l-0.13.24v-2H22.46c-0.12,0-3.82.74-3.94,0.79s-0.08.06-.08,0.24,0,0.21.08,0.22l0.39,0.09a0.72,0.72,0,0,1,.56.29c0.25,0.33.3,0.91,0.3,3.38a19.31,19.31,0,0,1-.14,3.33,0.82,0.82,0,0,1-.69.65l-0.34.07H18.47V13a0.4,0.4,0,0,0,0,.29h5.59V13.08a0.73,0.73,0,0,0,0-.29,5.59,5.59,0,0,1-1-.13,1,1,0,0,1-.53-1C22.45,11,22.41,9.33,22.43,8s0-1.38.11-1.47a1.8,1.8,0,0,1,1.17-.37,2.61,2.61,0,0,1,1.14.29,1.5,1.5,0,0,0,.39.15s1-2.42,1-2.53A1.18,1.18,0,0,0,25.19,3.7ZM18.45,7.9a4.49,4.49,0,0,0-2.06-3.56,5.2,5.2,0,0,0-4.68-.13,4.52,4.52,0,0,0-2.19,2.6,6.68,6.68,0,0,0,0,3.84,4.19,4.19,0,0,0,1.07,1.81,4.06,4.06,0,0,0,2.31,1.12,10.08,10.08,0,0,0,1.68,0,5.29,5.29,0,0,0,.61-0.13A4.45,4.45,0,0,0,18.38,9.9,8.74,8.74,0,0,0,18.45,7.9Zm-4.16,5c-1,.3-1.75-0.67-2-2.71a18.74,18.74,0,0,1,0-3.21c0.2-1.64.71-2.47,1.5-2.47a1,1,0,0,1,.84.37c0.67,0.67,1,2,1,4a7.41,7.41,0,0,1-.52,3.32,1.52,1.52,0,0,1-.82.65V12.9Zm18-9a3.33,3.33,0,0,0-.85,0,3.78,3.78,0,0,0-1.57.34l-0.31.13V2.2A14.91,14.91,0,0,0,29.6,0c-0.12,0-3.94.73-4,.76a0.31,0.31,0,0,0,0,.23c0,0.21,0,.2.45,0.3a1.29,1.29,0,0,1,.36.14,1.23,1.23,0,0,1,.37.69,11.45,11.45,0,0,1,.11,2.3v8.78l0.27,0.06c0.4,0.09,1.53.28,1.9,0.32a14,14,0,0,0,2.22,0A4.53,4.53,0,0,0,35,10.77a6.89,6.89,0,0,0,.38-1.52,9,9,0,0,0-.07-2.11A3.85,3.85,0,0,0,32.33,3.9Zm-2.62,8.83c0-.13-0.1-4.51-0.08-6.26V5.1L29.88,5A2.08,2.08,0,0,1,30.47,5a1,1,0,0,1,.62.14,3,3,0,0,1,1.29,2.31,11,11,0,0,1,0,2.19,4.81,4.81,0,0,1-1.16,2.87,1.39,1.39,0,0,1-.71.36,1.78,1.78,0,0,1-.61,0C29.71,12.83,29.71,12.81,29.71,12.73Z" transform="translate(0.02 -0.03)"/></svg>
