<svg width="117px" height="21px" viewBox="0 0 117 21" version="1.1" xmlns="http://www.w3.org/2000/svg" xmlns:xlink="http://www.w3.org/1999/xlink">
    <defs>
        <polygon id="path-1" points="1 -3.27272727e-05 18.9463273 -3.27272727e-05 18.9463273 17.1137057 1 17.1137057"></polygon>
        <polygon id="path-3" points="1 -3.27272727e-05 18.9463273 -3.27272727e-05 18.9463273 17.1137057 1 17.1137057"></polygon>
        <polygon id="path-5" points="1 -3.27272727e-05 18.9463273 -3.27272727e-05 18.9463273 17.1137057 1 17.1137057"></polygon>
        <polygon id="path-7" points="1 -3.27272727e-05 18.9463273 -3.27272727e-05 18.9463273 17.1137057 1 17.1137057"></polygon>
        <polygon id="path-9" points="1 -3.27272727e-05 18.9463273 -3.27272727e-05 18.9463273 17.1137057 1 17.1137057"></polygon>
        <polygon id="path-11" points="1 -3.27272728e-05 18.9463273 -3.27272728e-05 18.9463273 17.1137057 1 17.1137057"></polygon>
    </defs>
    <g id="Page-1" stroke="none" stroke-width="1" fill="none" fill-rule="evenodd">
        <g id="4" transform="translate(-588.000000, -676.000000)">
            <g id="Group-2" transform="translate(493.000000, 676.000000)">
                <g id="Group" transform="translate(95.000000, 0.000000)">
                    <g id="Group-3">
                        <rect id="Rectangle-2" fill="#85C525" x="0" y="0" width="21" height="21"></rect>
                        <mask id="mask-2" fill="white">
                            <use xlink:href="#path-1"></use>
                        </mask>
                        <g id="Clip-2"></g>
                        <path d="M10.0156983,3.40477011 C10.2821258,2.86507663 10.7178742,2.86507663 10.9843017,3.40477011 L12.4975224,6.47114816 C12.7639499,7.01084164 13.4688612,7.52318117 14.0646303,7.60961966 L17.4483142,8.10117018 C18.0438097,8.18760867 18.1786647,8.60229459 17.7475664,9.0224513 L15.2988406,11.4090836 C14.8680159,11.8292403 14.598853,12.6580651 14.7006097,13.2510988 L15.2783252,16.6211057 C15.3800819,17.2144129 15.0274894,17.4707195 14.494908,17.1903415 L11.4684667,15.5994356 C10.9356117,15.3196047 10.0643883,15.3196047 9.53153332,15.5994356 L6.50509203,17.1903415 C5.97251058,17.4707195 5.61991814,17.2144129 5.72167484,16.6211057 L6.29939031,13.2510988 C6.40114701,12.6580651 6.13198412,11.8292403 5.70115937,11.4090836 L3.25243356,9.0224513 C2.82133527,8.60229459 2.95619026,8.18760867 3.5516858,8.10117018 L6.9353697,7.60961966 C7.53113879,7.52318117 8.23605014,7.01084164 8.50247763,6.47114816 L10.0156983,3.40477011 Z" id="Fill-1" fill="#FFFFFF" mask="url(#mask-2)"></path>
                    </g>
                    <g id="Group-3-Copy" transform="translate(24.000000, 0.000000)">
                        <rect id="Rectangle-2" fill="#85C525" x="0" y="0" width="21" height="21"></rect>
                        <mask id="mask-4" fill="white">
                            <use xlink:href="#path-3"></use>
                        </mask>
                        <g id="Clip-2"></g>
                        <path d="M10.0156983,3.40477011 C10.2821258,2.86507663 10.7178742,2.86507663 10.9843017,3.40477011 L12.4975224,6.47114816 C12.7639499,7.01084164 13.4688612,7.52318117 14.0646303,7.60961966 L17.4483142,8.10117018 C18.0438097,8.18760867 18.1786647,8.60229459 17.7475664,9.0224513 L15.2988406,11.4090836 C14.8680159,11.8292403 14.598853,12.6580651 14.7006097,13.2510988 L15.2783252,16.6211057 C15.3800819,17.2144129 15.0274894,17.4707195 14.494908,17.1903415 L11.4684667,15.5994356 C10.9356117,15.3196047 10.0643883,15.3196047 9.53153332,15.5994356 L6.50509203,17.1903415 C5.97251058,17.4707195 5.61991814,17.2144129 5.72167484,16.6211057 L6.29939031,13.2510988 C6.40114701,12.6580651 6.13198412,11.8292403 5.70115937,11.4090836 L3.25243356,9.0224513 C2.82133527,8.60229459 2.95619026,8.18760867 3.5516858,8.10117018 L6.9353697,7.60961966 C7.53113879,7.52318117 8.23605014,7.01084164 8.50247763,6.47114816 L10.0156983,3.40477011 Z" id="Fill-1" fill="#FFFFFF" mask="url(#mask-4)"></path>
                    </g>
                    <g id="Group-3-Copy-2" transform="translate(48.000000, 0.000000)">
                        <rect id="Rectangle-2" fill="#85C525" x="0" y="0" width="21" height="21"></rect>
                        <mask id="mask-6" fill="white">
                            <use xlink:href="#path-5"></use>
                        </mask>
                        <g id="Clip-2"></g>
                        <path d="M10.0156983,3.40477011 C10.2821258,2.86507663 10.7178742,2.86507663 10.9843017,3.40477011 L12.4975224,6.47114816 C12.7639499,7.01084164 13.4688612,7.52318117 14.0646303,7.60961966 L17.4483142,8.10117018 C18.0438097,8.18760867 18.1786647,8.60229459 17.7475664,9.0224513 L15.2988406,11.4090836 C14.8680159,11.8292403 14.598853,12.6580651 14.7006097,13.2510988 L15.2783252,16.6211057 C15.3800819,17.2144129 15.0274894,17.4707195 14.494908,17.1903415 L11.4684667,15.5994356 C10.9356117,15.3196047 10.0643883,15.3196047 9.53153332,15.5994356 L6.50509203,17.1903415 C5.97251058,17.4707195 5.61991814,17.2144129 5.72167484,16.6211057 L6.29939031,13.2510988 C6.40114701,12.6580651 6.13198412,11.8292403 5.70115937,11.4090836 L3.25243356,9.0224513 C2.82133527,8.60229459 2.95619026,8.18760867 3.5516858,8.10117018 L6.9353697,7.60961966 C7.53113879,7.52318117 8.23605014,7.01084164 8.50247763,6.47114816 L10.0156983,3.40477011 Z" id="Fill-1" fill="#FFFFFF" mask="url(#mask-6)"></path>
                    </g>
                    <g id="Group-3-Copy-3" transform="translate(72.000000, 0.000000)">
                        <rect id="Rectangle-2" fill="#85C525" x="0" y="0" width="21" height="21"></rect>
                        <mask id="mask-8" fill="white">
                            <use xlink:href="#path-7"></use>
                        </mask>
                        <g id="Clip-2"></g>
                        <path d="M10.0156983,3.40477011 C10.2821258,2.86507663 10.7178742,2.86507663 10.9843017,3.40477011 L12.4975224,6.47114816 C12.7639499,7.01084164 13.4688612,7.52318117 14.0646303,7.60961966 L17.4483142,8.10117018 C18.0438097,8.18760867 18.1786647,8.60229459 17.7475664,9.0224513 L15.2988406,11.4090836 C14.8680159,11.8292403 14.598853,12.6580651 14.7006097,13.2510988 L15.2783252,16.6211057 C15.3800819,17.2144129 15.0274894,17.4707195 14.494908,17.1903415 L11.4684667,15.5994356 C10.9356117,15.3196047 10.0643883,15.3196047 9.53153332,15.5994356 L6.50509203,17.1903415 C5.97251058,17.4707195 5.61991814,17.2144129 5.72167484,16.6211057 L6.29939031,13.2510988 C6.40114701,12.6580651 6.13198412,11.8292403 5.70115937,11.4090836 L3.25243356,9.0224513 C2.82133527,8.60229459 2.95619026,8.18760867 3.5516858,8.10117018 L6.9353697,7.60961966 C7.53113879,7.52318117 8.23605014,7.01084164 8.50247763,6.47114816 L10.0156983,3.40477011 Z" id="Fill-1" fill="#FFFFFF" mask="url(#mask-8)"></path>
                    </g>
                    <g id="Group-3-Copy-5" transform="translate(96.000000, 0.000000)">
                        <rect id="Rectangle-2" fill="#85C525" x="0" y="0" width="21" height="21"></rect>
                        <rect id="Rectangle-2" fill="#CDD4D9" x="11" y="0" width="10" height="21"></rect>
                        <mask id="mask-10" fill="white">
                            <use xlink:href="#path-9"></use>
                        </mask>
                        <g id="Clip-2"></g>
                        <path d="M10.0156983,3.40477011 C10.2821258,2.86507663 10.7178742,2.86507663 10.9843017,3.40477011 L12.4975224,6.47114816 C12.7639499,7.01084164 13.4688612,7.52318117 14.0646303,7.60961966 L17.4483142,8.10117018 C18.0438097,8.18760867 18.1786647,8.60229459 17.7475664,9.0224513 L15.2988406,11.4090836 C14.8680159,11.8292403 14.598853,12.6580651 14.7006097,13.2510988 L15.2783252,16.6211057 C15.3800819,17.2144129 15.0274894,17.4707195 14.494908,17.1903415 L11.4684667,15.5994356 C10.9356117,15.3196047 10.0643883,15.3196047 9.53153332,15.5994356 L6.50509203,17.1903415 C5.97251058,17.4707195 5.61991814,17.2144129 5.72167484,16.6211057 L6.29939031,13.2510988 C6.40114701,12.6580651 6.13198412,11.8292403 5.70115937,11.4090836 L3.25243356,9.0224513 C2.82133527,8.60229459 2.95619026,8.18760867 3.5516858,8.10117018 L6.9353697,7.60961966 C7.53113879,7.52318117 8.23605014,7.01084164 8.50247763,6.47114816 L10.0156983,3.40477011 Z" id="Fill-1" fill="#FFFFFF" mask="url(#mask-10)"></path>
                        <mask id="mask-12" fill="white">
                            <use xlink:href="#path-11"></use>
                        </mask>
                        <g id="Clip-2"></g>
                        <path d="M10.0156983,3.40477011 C10.2821258,2.86507663 10.7178742,2.86507663 10.9843017,3.40477011 L12.4975224,6.47114816 C12.7639499,7.01084164 13.4688612,7.52318117 14.0646303,7.60961966 L17.4483142,8.10117018 C18.0438097,8.18760867 18.1786647,8.60229459 17.7475664,9.0224513 L15.2988406,11.4090836 C14.8680159,11.8292403 14.598853,12.6580651 14.7006097,13.2510988 L15.2783252,16.6211057 C15.3800819,17.2144129 15.0274894,17.4707195 14.494908,17.1903415 L11.4684667,15.5994356 C10.9356117,15.3196047 10.0643883,15.3196047 9.53153332,15.5994356 L6.50509203,17.1903415 C5.97251058,17.4707195 5.61991814,17.2144129 5.72167484,16.6211057 L6.29939031,13.2510988 C6.40114701,12.6580651 6.13198412,11.8292403 5.70115937,11.4090836 L3.25243356,9.0224513 C2.82133527,8.60229459 2.95619026,8.18760867 3.5516858,8.10117018 L6.9353697,7.60961966 C7.53113879,7.52318117 8.23605014,7.01084164 8.50247763,6.47114816 L10.0156983,3.40477011 Z" id="Fill-1" fill="#FFFFFF" mask="url(#mask-12)"></path>
                    </g>
                </g>
            </g>
        </g>
    </g>
</svg>
