<?xml version="1.0" standalone="no"?>
<!DOCTYPE svg PUBLIC "-//W3C//DTD SVG 1.1//EN" "http://www.w3.org/Graphics/SVG/1.1/DTD/svg11.dtd" >
<svg xmlns="http://www.w3.org/2000/svg" xmlns:xlink="http://www.w3.org/1999/xlink" version="1.1">
<metadata>
Created by FontForge 20170910 at Sun Jan 30 04:51:57 1994
 By Jimmy Wärting
URW Software, Copyright 1994 by URW
</metadata>
<defs>
<font id="FranklinGotItcTEE-BookCond" horiz-adv-x="1047" >
  <font-face 
    font-family="FranklinGotItcTEEBooCon"
    font-weight="400"
    font-stretch="normal"
    units-per-em="2048"
    panose-1="0 0 0 0 0 0 0 0 0 0"
    ascent="1649"
    descent="-399"
    x-height="1010"
    cap-height="1365"
    bbox="-84 -512 1925 1829"
    underline-thickness="126"
    underline-position="-264"
    unicode-range="U+0020-2122"
  />
<missing-glyph horiz-adv-x="382" 
d="M38 0v1365h306v-1365h-306zM306 38v1289h-230v-1289h230z" />
    <glyph glyph-name=".notdef" horiz-adv-x="382" 
d="M38 0v1365h306v-1365h-306zM306 38v1289h-230v-1289h230z" />
    <glyph glyph-name="glyph1" horiz-adv-x="0" 
 />
    <glyph glyph-name="glyph2" horiz-adv-x="382" 
 />
    <glyph glyph-name="space" unicode=" " horiz-adv-x="382" 
 />
    <glyph glyph-name="exclam" unicode="!" horiz-adv-x="698" 
d="M244 1365h209l-55 -1030h-99zM256 209h186v-209h-186v209z" />
    <glyph glyph-name="quotedbl" unicode="&#x22;" 
d="M301 1365h167l-28 -528h-111zM580 1365h167l-28 -528h-111z" />
    <glyph glyph-name="numbersign" unicode="#" 
d="M397 1365h123l-72 -397h247l72 397h123l-72 -397h209l-21 -116h-209l-55 -303h210l-21 -116h-210l-78 -433h-123l78 433h-246l-79 -433h-123l78 433h-209l21 116h209l55 303h-209l21 116h209zM427 852l-54 -303h246l55 303h-247z" />
    <glyph glyph-name="dollar" unicode="$" 
d="M479 1477h112v-135q139 -17 211.5 -75t116.5 -187l-120 -50q-41 100 -82.5 137.5t-125.5 52.5v-442q140 -33 218 -88q129 -90 129 -273q0 -164 -89 -260.5t-258 -116.5v-177h-112v177q-156 24 -238 93.5t-131 217.5l131 60q64 -217 238 -242v474q-112 32 -177 78
q-65 45 -101 117.5t-36 157.5q0 133 81 229q79 95 233 117v135zM479 1218q-85 -15 -129.5 -68t-44.5 -138q0 -84 40.5 -133t133.5 -77v416zM591 168q81 8 131 49q76 63 76 177q0 95 -48 147t-159 77v-450z" />
    <glyph glyph-name="percent" unicode="%" horiz-adv-x="1395" 
d="M369 1381q119 0 192 -97.5t73 -257.5q0 -172 -83 -271q-70 -83 -185 -83q-127 0 -198 101q-69 98 -69 254q0 173 83 271q71 83 187 83zM368 1276q-73 0 -106 -58.5t-33 -189.5q0 -132 32.5 -191.5t104.5 -59.5t105 59.5t33 190.5q0 130 -32 188.5t-104 60.5zM982 1365
h119l-683 -1365h-120zM1032 693q119 0 192 -97.5t73 -257.5q0 -173 -83 -271q-70 -83 -184 -83q-122 0 -195 97t-73 258q0 172 83 271q70 83 187 83zM1032 588q-74 0 -107 -59t-33 -190t32.5 -190.5t105.5 -59.5q72 0 104.5 59t32.5 190t-32 189.5t-103 60.5z" />
    <glyph glyph-name="ampersand" unicode="&#x26;" horiz-adv-x="1256" 
d="M1019 746l125 -34q-31 -171 -70.5 -276.5t-112.5 -211.5q50 -66 79 -86t76 -20q31 0 69 13v-131q-69 -22 -115 -22q-61 0 -102.5 28t-103.5 111q-84 -78 -160.5 -111.5t-172.5 -33.5q-171 0 -281 113t-110 289q0 265 287 411q-113 201 -113 323q0 121 84.5 203t208.5 82
q121 0 193 -70q77 -75 77 -200q0 -221 -260 -377l268 -406q94 138 134 406zM550 842q187 114 187 271q0 72 -38.5 117t-100.5 45q-61 0 -101.5 -46t-40.5 -116q0 -109 94 -271zM494 683q-105 -67 -149.5 -137t-44.5 -167q0 -138 81 -217q67 -65 166 -65q143 0 249 128z" />
    <glyph glyph-name="quotesingle" unicode="'" horiz-adv-x="698" 
d="M266 1365h167l-28 -528h-111z" />
    <glyph glyph-name="parenleft" unicode="(" horiz-adv-x="628" 
d="M409 1365h121q-127 -196 -191 -411t-64 -443q0 -227 64 -441.5t191 -411.5h-121q-299 417 -299 853q0 225 72.5 431.5t226.5 422.5z" />
    <glyph glyph-name="parenright" unicode=")" horiz-adv-x="628" 
d="M218 -342h-120q255 396 255 853q0 229 -64 443t-191 411h120q121 -168 187 -318q113 -260 113 -535q0 -438 -300 -854z" />
    <glyph glyph-name="asterisk" unicode="*" 
d="M456 1365h134l-20 -285l237 156l61 -123l-247 -110l247 -111l-61 -123l-237 157l20 -286h-134l21 286l-238 -157l-60 123l246 111l-246 110l60 123l238 -156z" />
    <glyph glyph-name="plus" unicode="+" 
d="M590 745h352v-126h-352v-355h-133v355h-352v126h352v356h133v-356z" />
    <glyph glyph-name="comma" unicode="," horiz-adv-x="489" 
d="M170 221h186v-221l-132 -261h-91l120 261h-83v221z" />
    <glyph glyph-name="hyphen" unicode="-" horiz-adv-x="593" 
d="M71 570h451v-123h-451v123z" />
    <glyph glyph-name="period" unicode="." horiz-adv-x="488" 
d="M151 221h186v-221h-186v221z" />
    <glyph glyph-name="slash" unicode="/" horiz-adv-x="907" 
d="M675 1365h128l-690 -1707h-128z" />
    <glyph glyph-name="zero" unicode="0" horiz-adv-x="1046" 
d="M527 1393q75 0 146 -29.5t120 -81.5q90 -95 124 -231q42 -173 42 -369q0 -139 -21 -265t-56 -203q-76 -161 -219 -216q-67 -26 -140 -26q-166 0 -270 111q-90 96 -124 231q-42 170 -42 369q0 138 21 265t56 203q113 242 363 242zM526 1267q-123 0 -197 -133
q-77 -140 -77 -449q0 -338 91 -477q73 -110 180 -110q133 0 202 149.5t69 435.5q0 336 -91 474q-70 107 -177 110z" />
    <glyph glyph-name="one" unicode="1" 
d="M552 1382h113v-1259h219v-123h-616v123h232v1031q-77 -108 -244 -202v164q85 49 160 116t136 150z" />
    <glyph glyph-name="two" unicode="2" 
d="M221 963l-145 32q23 108 52 168.5t85 114.5q117 115 290 115q140 0 241 -68q158 -108 158 -338q0 -133 -60.5 -249.5t-209.5 -268.5q-142 -145 -369 -327h639v-142h-826v137q373 325 517 508t144 332q0 125 -69 201t-183 76q-112 0 -176.5 -71t-87.5 -220z" />
    <glyph glyph-name="three" unicode="3" 
d="M220 1038l-131 40q22 78 45.5 122t65.5 85q111 108 297 108q147 0 247 -71q140 -101 140 -299q0 -112 -49.5 -179.5t-172.5 -122.5q268 -70 268 -343q0 -175 -113 -287q-121 -119 -333 -119q-232 0 -353 144q-56 69 -84 191l136 48q34 -116 88 -171q85 -86 212 -86
q121 0 194 77.5t73 206.5q0 144 -97 216q-67 50 -232 50h-89v123h89q96 0 139 10.5t80 42.5q76 67 76 190q0 112 -58 180q-63 74 -173 74q-109 0 -178 -67q-53 -50 -87 -163z" />
    <glyph glyph-name="four" unicode="4" 
d="M586 1393h206v-940h184v-123h-184v-330h-156v330h-565v111zM636 453v811l-413 -811h413z" />
    <glyph glyph-name="five" unicode="5" 
d="M187 1365h693l-14 -142h-549l-22 -436q63 77 120.5 105.5t147.5 28.5q144 0 237 -78q147 -124 147 -379q0 -270 -164 -401q-113 -91 -275 -91q-174 0 -288 104q-47 43 -73 90.5t-48 128.5l143 53q34 -104 76 -155q66 -82 198 -82q125 0 192 79q78 93 78 270
q0 322 -256 322q-95 0 -157 -43t-107 -141l-117 27z" />
    <glyph glyph-name="six" unicode="6" 
d="M964 1088l-144 -48q-37 117 -90.5 165t-146.5 48q-155 0 -229.5 -140.5t-87.5 -457.5q42 99 92 149q93 91 234 91q156 0 263 -110q123 -128 123 -344q0 -227 -134 -361q-109 -108 -278 -108q-179 0 -291 125q-90 102 -123 233q-37 146 -37 312q0 428 191 634
q109 117 281 117q157 0 260 -96q69 -66 117 -209zM573 755q-116 0 -187 -80q-85 -96 -85 -239q0 -146 89 -245q71 -79 184 -79q117 0 180.5 83t63.5 235q0 154 -63.5 238t-181.5 87z" />
    <glyph glyph-name="seven" unicode="7" 
d="M181 1365h770v-101q-114 -153 -184 -301q-106 -224 -165 -467t-59 -454q0 -10 1 -42h-169q-1 32 -1 42q0 311 132 667q47 127 109.5 239.5t176.5 274.5h-625z" />
    <glyph glyph-name="eight" unicode="8" 
d="M681 732q289 -129 289 -373q0 -140 -89 -242q-127 -145 -363 -145q-205 0 -324 98q-55 46 -86.5 118t-31.5 154q0 127 66.5 215t212.5 154q-87 50 -133 94q-94 92 -94 230q0 158 110 259q110 99 297 99q180 0 287 -99q103 -95 103 -247q0 -106 -58 -181t-186 -134z
M519 788q119 44 178 91q81 65 81 171q0 98 -74 161q-68 57 -174 57q-105 0 -171 -60t-66 -155q0 -119 90 -193q42 -34 93 -55q41 -17 43 -17zM508 638q-130 -47 -196 -105q-82 -72 -82 -184q0 -111 76 -178q82 -73 214 -73q128 0 206.5 66t78.5 173q0 124 -101 202
q-62 48 -139 78q-56 22 -57 21z" />
    <glyph glyph-name="nine" unicode="9" 
d="M91 243l140 64q39 -109 89.5 -152t141.5 -43q146 0 218.5 138.5t86.5 443.5q-48 -104 -99 -149q-86 -78 -211 -78q-141 0 -248 100q-136 128 -136 356q0 238 148 370q113 100 276 100q182 0 290 -120q73 -83 101 -192q39 -155 39 -342q0 -463 -192 -657
q-110 -110 -289 -110q-133 0 -214.5 62.5t-140.5 208.5zM493 1253q-115 0 -184 -79q-76 -89 -76 -251q0 -155 80 -241q70 -75 175 -75q104 0 170 78q83 98 83 247q0 78 -25.5 148t-68.5 113q-60 58 -154 60z" />
    <glyph glyph-name="colon" unicode=":" horiz-adv-x="488" 
d="M151 221h186v-221h-186v221zM151 1010h186v-221h-186v221z" />
    <glyph glyph-name="semicolon" unicode=";" horiz-adv-x="489" 
d="M170 221h186v-221l-132 -261h-91l120 261h-83v221zM170 1010h186v-221h-186v221z" />
    <glyph glyph-name="less" unicode="&#x3c;" 
d="M967 1154v-137l-740 -335l740 -335v-136l-887 412v120z" />
    <glyph glyph-name="equal" unicode="=" 
d="M942 738h-837v126h837v-126zM942 502h-837v125h837v-125z" />
    <glyph glyph-name="greater" unicode="&#x3e;" 
d="M80 211v137l740 335l-740 335v136l887 -412v-119z" />
    <glyph glyph-name="question" unicode="?" horiz-adv-x="1012" 
d="M223 955l-143 39q49 399 409 399q152 0 254 -78q129 -99 129 -288q0 -113 -45.5 -192.5t-163.5 -170.5q-92 -73 -119 -119t-27 -133q0 -18 2 -70h-147q1 30 1 39q0 105 8 151t34 91q22 38 44 59t106 85q77 60 109.5 119t32.5 143q0 114 -58 176t-166 62q-233 0 -260 -312
zM353 209h186v-209h-186v209z" />
    <glyph glyph-name="at" unicode="@" horiz-adv-x="1186" 
d="M794 1036h105l-60 -426q-15 -109 -15 -148q0 -68 57 -68q67 0 115 69q71 103 71 296q0 290 -148 429q-117 110 -285 110q-87 0 -170 -33t-143 -93q-90 -88 -136 -214q-51 -140 -51 -291q0 -239 113 -393q150 -204 411 -204q185 0 373 103l38 -90q-123 -62 -215.5 -86.5
t-203.5 -24.5q-203 0 -356 96q-138 87 -205 223q-81 166 -81 373q0 266 121 457q105 165 283 232q105 40 228 40q204 0 342 -114q199 -165 199 -503q0 -240 -103 -382q-81 -114 -211 -114q-66 0 -100 28t-47 91q-35 -69 -75 -97.5t-102 -28.5q-90 0 -146 56q-87 87 -87 274
q0 231 116 365q72 84 179 84q67 0 107 -33.5t64 -110.5zM612 931q-67 0 -109 -71q-58 -97 -58 -252q0 -101 34 -161q30 -53 76 -53q64 0 105 73q61 108 61 264q0 94 -28.5 146t-80.5 54z" />
    <glyph glyph-name="A" unicode="A" horiz-adv-x="1012" 
d="M416 1365h196l364 -1365h-166l-102 391h-410l-99 -391h-166zM673 523l-169 681l-172 -681h341z" />
    <glyph glyph-name="B" unicode="B" horiz-adv-x="1082" 
d="M144 1365h369q114 0 169.5 -9t103.5 -36q67 -38 106.5 -117t39.5 -176q0 -114 -50.5 -187t-159.5 -115q106 -30 159 -83q97 -97 97 -262q0 -214 -160 -314q-60 -37 -125 -51.5t-169 -14.5h-380v1365zM309 786h182q131 0 190 40q79 54 79 184q0 113 -59 165.5t-188 52.5
h-204v-442zM309 137h211q108 0 184 44q102 60 102 206q0 141 -96 210q-42 30 -89 41t-135 11h-177v-512z" />
    <glyph glyph-name="C" unicode="C" 
d="M838 428l151 -38q-37 -194 -111 -287q-105 -131 -311 -131q-210 0 -322 137q-155 190 -155 573q0 416 185 597q116 114 297 114q176 0 277.5 -100t147.5 -317l-159 -37q-31 154 -68 211q-68 103 -193 103q-153 0 -231.5 -146t-78.5 -427q0 -290 93 -442q77 -126 219 -126
q110 0 165.5 67.5t93.5 248.5z" />
    <glyph glyph-name="D" unicode="D" horiz-adv-x="1152" 
d="M144 1365h294q226 0 377 -108q131 -94 196 -268q51 -135 51 -296q0 -265 -127 -450q-167 -243 -497 -243h-294v1365zM309 1228v-1091h129q182 0 294 106q153 145 153 437q0 322 -183 466q-103 82 -264 82h-129z" />
    <glyph glyph-name="E" unicode="E" horiz-adv-x="942" 
d="M144 1365h742v-137h-577v-451h456v-137h-456v-503h593v-137h-758v1365z" />
    <glyph glyph-name="F" unicode="F" horiz-adv-x="838" 
d="M144 1365h717v-137h-552v-451h454v-137h-454v-640h-165v1365z" />
    <glyph glyph-name="G" unicode="G" horiz-adv-x="1151" 
d="M585 677h440v-696h-114l-23 189q-48 -89 -106 -132q-90 -66 -223 -66q-164 0 -275 103q-94 87 -135 214q-60 186 -60 389q0 433 203 613q115 102 298 102q174 0 272 -86.5t152 -287.5l-151 -56q-40 141 -80 196q-69 95 -198 95q-319 0 -319 -571q0 -335 114 -474
q79 -97 206 -97q122 0 190 81q88 105 88 303q0 15 -1 44h-278v137z" />
    <glyph glyph-name="H" unicode="H" horiz-adv-x="1117" 
d="M144 1365h165v-579h498v579h165v-1365h-165v649h-498v-649h-165v1365z" />
    <glyph glyph-name="I" unicode="I" horiz-adv-x="454" 
d="M144 1365h165v-1365h-165v1365z" />
    <glyph glyph-name="J" unicode="J" horiz-adv-x="628" 
d="M320 1365h165v-802q0 -270 -25 -362q-33 -117 -112 -173t-212 -56q-67 0 -172 28v136q71 -25 142 -25q131 0 173 78q26 47 33.5 115.5t7.5 258.5v802z" />
    <glyph glyph-name="K" unicode="K" horiz-adv-x="1012" 
d="M144 1365h165v-718l478 718h186l-359 -500l444 -865h-190l-359 715l-200 -280v-435h-165v1365z" />
    <glyph glyph-name="L" unicode="L" horiz-adv-x="803" 
d="M144 1365h165v-1228h519v-137h-684v1365z" />
    <glyph glyph-name="M" unicode="M" horiz-adv-x="1396" 
d="M135 1365h240l320 -1099l321 1099h235v-1365h-156v1183l-352 -1183h-119l-345 1185v-1185h-144v1365z" />
    <glyph glyph-name="N" unicode="N" horiz-adv-x="1151" 
d="M137 1365h211l522 -1080v1080h144v-1365h-164l-569 1162v-1162h-144v1365z" />
    <glyph glyph-name="O" unicode="O" horiz-adv-x="1151" 
d="M585 1393q114 0 211 -51q147 -78 213 -278q53 -158 53 -382q0 -396 -165 -581q-115 -129 -317 -129q-121 0 -221 51q-140 73 -209 262q-60 167 -60 393q0 277 81 454q120 261 414 261zM580 1256q-99 0 -162 -48q-75 -57 -115.5 -193t-40.5 -331q0 -294 84 -440
q41 -71 95.5 -103t134.5 -32q87 0 145.5 39t99.5 125q69 145 69 410q0 292 -84 439q-40 69 -93 100.5t-133 33.5z" />
    <glyph glyph-name="P" unicode="P" horiz-adv-x="977" 
d="M144 1365h292q234 0 340 -76q74 -52 115.5 -140.5t41.5 -193.5q0 -128 -61 -227q-75 -122 -238 -158q-63 -14 -198 -14h-127v-556h-165v1365zM309 1228v-535h127q175 0 239 47q86 62 86 216q0 161 -99 233q-45 33 -116 38q-10 1 -110 1h-127z" />
    <glyph glyph-name="Q" unicode="Q" horiz-adv-x="1151" 
d="M968 -178v-136q-71 -28 -139 -28q-140 0 -213.5 75.5t-73.5 219.5v21q-126 11 -217 70q-115 73 -175 241q-60 167 -60 398q0 272 81 448q120 262 409 262q202 0 317 -129q165 -184 165 -581q0 -393 -166 -582q-67 -77 -196 -114q-1 -19 -1 -25q0 -88 37.5 -124.5
t127.5 -36.5q45 0 104 21zM580 1256q-98 0 -161 -48q-75 -57 -115 -192.5t-40 -331.5q0 -575 310 -575q89 0 147 39t99 125q68 145 68 410q0 292 -84 439q-39 69 -92 100.5t-132 33.5z" />
    <glyph glyph-name="R" unicode="R" 
d="M144 1365h396q189 0 288 -85q118 -101 118 -288q0 -247 -224 -358l256 -634h-178l-229 596h-262v-596h-165v1365zM309 1228v-495h207q126 0 191 63q74 71 74 200q0 112 -65.5 172t-186.5 60h-220z" />
    <glyph glyph-name="S" unicode="S" 
d="M927 1053l-147 -44q-34 101 -73 155q-67 90 -202 90q-103 0 -163 -57q-64 -61 -64 -155q0 -81 51 -132q32 -32 79.5 -56.5t171.5 -71.5q195 -75 276 -148q52 -48 82 -118.5t30 -145.5q0 -83 -35 -162.5t-94 -131.5q-117 -104 -307 -104q-99 0 -188.5 31t-148.5 85
q-54 49 -83.5 109t-51.5 162l153 42q31 -134 90 -198q84 -92 233 -92q116 0 184 60q76 66 76 174q0 92 -58.5 151.5t-209.5 117.5q-145 56 -195 81.5t-97 66.5q-55 48 -87.5 121.5t-32.5 149.5q0 162 123 267q109 93 280 93q160 0 258 -82t150 -258z" />
    <glyph glyph-name="T" unicode="T" horiz-adv-x="733" 
d="M-43 1365h819v-140h-328v-1225h-165v1225h-326v140z" />
    <glyph glyph-name="U" unicode="U" horiz-adv-x="1116" 
d="M143 1365h165v-902q0 -125 10.5 -181t40.5 -93q63 -77 202 -77q85 0 137.5 26t83.5 83q35 64 35 250v894h156v-885q0 -148 -16.5 -229t-57.5 -138q-103 -141 -345 -141q-240 0 -340 141q-71 100 -71 350v902z" />
    <glyph glyph-name="V" unicode="V" horiz-adv-x="942" 
d="M14 1365h171l299 -1128l294 1128h157l-380 -1365h-169z" />
    <glyph glyph-name="W" unicode="W" horiz-adv-x="1431" 
d="M36 1365h162l219 -1085l242 1085h131l248 -1085l216 1085h144l-282 -1365h-155l-244 1044l-233 -1044h-156z" />
    <glyph glyph-name="X" unicode="X" horiz-adv-x="872" 
d="M32 1365h184l223 -501l256 501h148l-312 -622l356 -743h-192l-260 586l-293 -586h-156l356 713z" />
    <glyph glyph-name="Y" unicode="Y" horiz-adv-x="802" 
d="M-60 1365h175l298 -628l295 628h153l-378 -788v-577h-165v577z" />
    <glyph glyph-name="Z" unicode="Z" horiz-adv-x="837" 
d="M45 1365h772v-113l-632 -1106h646v-146h-819v146l619 1082h-586v137z" />
    <glyph glyph-name="bracketleft" unicode="[" horiz-adv-x="628" 
d="M168 1365h300v-105h-151v-1497h151v-105h-300v1707z" />
    <glyph glyph-name="backslash" unicode="\" horiz-adv-x="907" 
d="M233 1365l690 -1707h-128l-690 1707h128z" />
    <glyph glyph-name="bracketright" unicode="]" horiz-adv-x="628" 
d="M459 -342h-300v105h151v1497h-151v105h300v-1707z" />
    <glyph glyph-name="asciicircum" unicode="^" horiz-adv-x="1024" 
d="M205 754h-149l366 615h180l366 -615h-151l-307 506z" />
    <glyph glyph-name="underscore" unicode="_" horiz-adv-x="1024" 
d="M0 -138h1024v-126h-1024v126z" />
    <glyph glyph-name="grave" unicode="`" horiz-adv-x="1024" 
d="M610 1224l-69 -73l-340 215l105 111z" />
    <glyph glyph-name="a" unicode="a" horiz-adv-x="942" 
d="M268 753l-148 25q23 109 93 169q107 91 266 91q189 0 274 -116q32 -44 43 -105.5t11 -195.5v-297q0 -159 3 -212.5t15 -111.5h-143q-12 82 -12 180q-43 -83 -80 -123q-81 -85 -211 -85q-148 0 -230 97q-68 80 -68 206q0 134 76 224q110 129 367 129q56 0 134 -7v43
q0 118 -39 178q-46 70 -151 70q-157 0 -200 -159zM658 501q-66 13 -117 13q-302 0 -302 -243q0 -83 44 -128t125 -45q112 0 182.5 92t70.5 239q0 71 -3 72z" />
    <glyph glyph-name="b" unicode="b" horiz-adv-x="977" 
d="M135 1365h149v-488q54 83 113.5 118.5t144.5 35.5q130 0 216 -85q135 -134 135 -431q0 -259 -99 -397.5t-285 -138.5q-100 0 -154.5 35t-102.5 128q-13 -45 -39 -142h-78v1365zM284 586v-153q0 -328 225 -328q114 0 166.5 98.5t52.5 312.5q0 201 -45 289
q-50 100 -170 100q-113 0 -181 -116q-48 -84 -48 -203z" />
    <glyph glyph-name="c" unicode="c" horiz-adv-x="838" 
d="M795 696l-152 -30q-20 128 -46 173q-43 73 -141 73q-113 0 -160 -101t-47 -340q0 -214 62 -299q54 -74 150 -74q108 0 151 99q20 46 31 146l152 -18q-28 -172 -86 -246q-82 -107 -260 -107q-172 0 -260 119q-105 141 -105 406q0 541 376 541q157 0 237 -95
q37 -44 57.5 -95.5t40.5 -151.5z" />
    <glyph glyph-name="d" unicode="d" horiz-adv-x="977" 
d="M693 1365h149v-1365h-135v141q-90 -162 -270 -162q-116 0 -196 64q-158 126 -158 450q0 292 138 445q83 93 219 93q91 0 151.5 -37.5t101.5 -119.5v491zM693 431v169q0 83 -13.5 130t-51.5 96q-61 80 -161 80q-219 0 -219 -392q0 -409 226 -409q108 0 171 88
q27 37 37.5 89t10.5 149z" />
    <glyph glyph-name="e" unicode="e" horiz-adv-x="907" 
d="M837 486h-596q0 -389 235 -389q79 0 125.5 46t80.5 156l140 -32q-77 -295 -353 -295q-152 0 -246 91q-140 136 -140 428q0 270 124 423q101 124 269 124q113 0 200 -65q123 -93 152 -326q6 -48 9 -161zM668 609q-1 147 -54 224q-56 79 -154 79q-91 0 -144.5 -76.5
t-66.5 -226.5h419z" />
    <glyph glyph-name="f" unicode="f" horiz-adv-x="488" 
d="M312 1010h185v-123h-185v-887h-149v887h-146v123h146q2 124 10 178.5t31 95.5q33 58 86 83.5t142 25.5q58 0 114 -13v-123q-37 10 -76 10q-99 0 -128 -47.5t-30 -209.5z" />
    <glyph glyph-name="g" unicode="g" horiz-adv-x="872" 
d="M861 1168v-129q-27 5 -41 5q-48 0 -72.5 -29.5t-34.5 -97.5q78 -106 78 -228q0 -146 -95 -246q-94 -98 -246 -98q-53 0 -123 17q-47 -15 -66 -36t-19 -57q0 -50 35.5 -72.5t121.5 -25.5q250 -11 329 -30q166 -41 166 -233q0 -105 -57 -169q-111 -125 -371 -125
q-182 0 -293 66q-110 64 -110 200q0 151 134 200q-53 36 -74 70.5t-21 86.5q0 129 131 186q-64 63 -90 123t-26 144q0 146 96 245q100 103 243 103q81 0 166 -44q19 95 61 135t123 40q8 0 31 -1h24zM453 912q-84 0 -132.5 -61t-48.5 -167q0 -112 56 -171q50 -52 124 -52
q82 0 133.5 62.5t51.5 161.5q0 103 -49.5 164t-134.5 63zM301 42q-85 -51 -85 -136q0 -89 62 -130t197 -41q265 0 265 165q0 116 -129 131q-37 4 -310 11z" />
    <glyph glyph-name="h" unicode="h" horiz-adv-x="942" 
d="M135 1365h149v-511q69 184 253 184q83 0 146 -36t93 -102q31 -67 31 -273v-627h-149v627q0 163 -28 213q-41 73 -135 73q-102 0 -156.5 -99.5t-54.5 -286.5v-527h-149v1365z" />
    <glyph glyph-name="i" unicode="i" horiz-adv-x="419" 
d="M135 1010h149v-1010h-149v1010zM291 1189h-163v174h163v-174z" />
    <glyph glyph-name="j" unicode="j" horiz-adv-x="419" 
d="M135 1010h149v-972q0 -140 -8 -196.5t-34 -97.5q-63 -102 -210 -102q-52 0 -116 16v126q55 -16 101 -16q89 0 110 74q7 26 8 196v972zM291 1189h-163v174h163v-174z" />
    <glyph glyph-name="k" unicode="k" horiz-adv-x="838" 
d="M135 1365h149v-857l360 502h165l-265 -358l298 -652h-160l-237 536l-161 -219v-317h-149v1365z" />
    <glyph glyph-name="l" unicode="l" horiz-adv-x="419" 
d="M135 1365h149v-1365h-149v1365z" />
    <glyph glyph-name="m" unicode="m" horiz-adv-x="1430" 
d="M135 1010h140v-154q45 101 99.5 141.5t146.5 40.5q104 0 161.5 -48.5t81.5 -156.5q34 87 77 130q74 75 189 75q76 0 136 -32t91 -89q39 -71 39 -295v-622h-149v614q0 163 -23 217q-35 81 -130 81q-98 0 -151 -82t-53 -234v-596h-149v596q-3 175 -13 211q-31 105 -144 105
q-120 0 -173 -123q-17 -41 -22 -78.5t-5 -124.5v-586h-149v1010z" />
    <glyph glyph-name="n" unicode="n" horiz-adv-x="942" 
d="M135 1010h140v-158q42 99 103 142.5t157 43.5q89 0 154 -39t93 -109q25 -62 25 -247v-643h-149v622q0 106 -5 148t-21 74q-35 68 -132 68q-117 0 -175 -115q-41 -82 -41 -253v-544h-149v1010z" />
    <glyph glyph-name="o" unicode="o" horiz-adv-x="942" 
d="M474 1038q146 0 241 -89q143 -132 143 -445q0 -310 -143 -444q-94 -88 -247 -88q-160 0 -253 99q-131 141 -131 430q0 298 131 438q95 99 259 99zM474 912q-111 0 -168 -102.5t-57 -303.5t56 -304.5t166 -103.5q222 0 222 407q0 401 -219 407z" />
    <glyph glyph-name="p" unicode="p" horiz-adv-x="977" 
d="M135 1010h135v-177q42 98 98 142q72 56 172 56q136 0 223 -96q131 -147 131 -417q0 -226 -81 -370q-50 -88 -115 -128.5t-158 -40.5q-92 0 -146.5 32.5t-109.5 118.5v-472h-149v1352zM284 580v-151q0 -110 13 -151q25 -81 81.5 -127t128.5 -46q112 0 169 112
q53 103 53 294q0 188 -58.5 291t-164.5 103q-116 0 -179 -120q-26 -49 -34.5 -90t-8.5 -115z" />
    <glyph glyph-name="q" unicode="q" horiz-adv-x="977" 
d="M762 1023h80v-1365h-149v492q-50 -87 -101 -122q-68 -49 -161 -49q-129 0 -215 87q-133 135 -133 420q0 323 160 465q88 79 210 79q93 0 150.5 -42t103.5 -143q32 80 55 178zM693 464v117q0 167 -78 253q-65 71 -144 71q-108 0 -165.5 -105t-57.5 -300q0 -216 72 -315
q59 -80 148 -80q102 0 172 111q53 83 53 248z" />
    <glyph glyph-name="r" unicode="r" horiz-adv-x="523" 
d="M135 1010h132v-211q34 84 67.5 129.5t84.5 77.5q53 32 107 32q6 0 33 -1v-169q-25 3 -39 3q-108 0 -173 -92q-63 -88 -63 -256v-523h-149v1010z" />
    <glyph glyph-name="s" unicode="s" horiz-adv-x="802" 
d="M722 781l-132 -33q-57 164 -197 164q-76 0 -125 -43.5t-49 -111.5q0 -71 57 -108q24 -16 46.5 -24.5t131.5 -41.5q136 -42 206 -91q104 -74 104 -210q0 -138 -106 -227q-99 -83 -261 -83q-171 0 -267 93q-68 65 -95 195l139 32q16 -82 51 -122q63 -72 182 -72
q89 0 143 44q59 48 59 122q0 63 -42.5 100.5t-154.5 71.5q-117 36 -168.5 58.5t-86.5 51.5q-85 74 -85 190q0 57 25.5 115t68.5 100q92 87 235 87q127 0 204.5 -62.5t116.5 -194.5z" />
    <glyph glyph-name="t" unicode="t" horiz-adv-x="523" 
d="M152 1246l149 15v-251h198v-123h-198v-508q0 -170 20 -214q29 -62 135 -62q38 0 92 10v-126q-81 -15 -139 -15q-174 0 -227 114q-30 67 -30 293v508h-146v123h146v236z" />
    <glyph glyph-name="u" unicode="u" horiz-adv-x="942" 
d="M135 1010h149v-637q0 -148 15 -190q30 -86 140 -86q114 0 173 118q27 55 36.5 122.5t9.5 211.5v461h149v-1010h-140v151q-46 -97 -106.5 -138t-156.5 -41q-179 0 -240 145q-29 70 -29 256v637z" />
    <glyph glyph-name="v" unicode="v" horiz-adv-x="767" 
d="M14 1010h151l230 -829l221 829h137l-292 -1010h-154z" />
    <glyph glyph-name="w" unicode="w" horiz-adv-x="1151" 
d="M25 1010h149l175 -759l171 759h109l186 -767l180 767h126l-248 -1010h-128l-173 711l-160 -711h-135z" />
    <glyph glyph-name="x" unicode="x" horiz-adv-x="698" 
d="M0 1010h171l179 -342l175 342h152l-250 -465l296 -545h-173l-211 401l-207 -401h-158l288 531z" />
    <glyph glyph-name="y" unicode="y" horiz-adv-x="768" 
d="M39 1010h150l207 -755l223 755h143l-348 -1113q-47 -149 -104 -205.5t-160 -56.5q-42 0 -99 11v122q41 -7 70 -7q82 0 116.5 48t85.5 236z" />
    <glyph glyph-name="z" unicode="z" horiz-adv-x="663" 
d="M54 1010h600v-82l-465 -805h465v-123h-637v123l446 764h-409v123z" />
    <glyph glyph-name="braceleft" unicode="{" horiz-adv-x="628" 
d="M222 522q83 -27 105.5 -81.5t22.5 -225.5v-234q0 -142 23 -180.5t109 -38.5v-106q-39 -3 -56 -3q-168 0 -207 124q-18 55 -18 204v234q0 121 -5 155.5t-27 58.5q-29 31 -75 31h-9v124q40 -1 66 16q34 22 42 59.5t8 169.5v210q0 149 18 204q39 124 207 124q20 0 56 -2
v-106q-86 -1 -109 -39t-23 -181v-210q0 -171 -22.5 -225.5t-105.5 -81.5z" />
    <glyph glyph-name="bar" unicode="|" horiz-adv-x="1024" 
d="M444 1365h137v-1706h-137v1706z" />
    <glyph glyph-name="braceright" unicode="}" horiz-adv-x="628" 
d="M405 522q-83 27 -105.5 81.5t-22.5 225.5v210q0 143 -23 181t-109 39v106q36 2 56 2q169 0 208 -124q17 -56 17 -204v-210q0 -133 8 -169.5t43 -59.5q26 -17 66 -16v-124h-11q-52 0 -81 -40q-17 -24 -21 -56t-4 -149v-234q0 -148 -17 -204q-39 -124 -208 -124
q-17 0 -56 3v106q86 0 109 38.5t23 180.5v234q0 171 22.5 225.5t105.5 81.5z" />
    <glyph glyph-name="asciitilde" unicode="~" horiz-adv-x="1365" 
d="M273 1197l-82 53q43 84 75 127q81 104 202 104q78 0 232 -73q89 -42 126 -54.5t74 -12.5q59 0 100.5 31t89.5 113l84 -50q-52 -105 -108 -154q-81 -71 -182 -71q-44 0 -96 18t-189 83q-87 40 -141 40t-97 -35.5t-88 -118.5z" />
    <glyph glyph-name="Adieresis" unicode="&#xc4;" horiz-adv-x="1012" 
d="M416 1365h196l364 -1365h-166l-102 391h-410l-99 -391h-166zM673 523l-169 681l-172 -681h341zM354 1719q44 0 74.5 -30.5t30.5 -74.5t-31 -74.5t-75 -30.5q-42 0 -73 31t-31 73q0 45 30 75t75 31zM666 1719q44 0 74.5 -30.5t30.5 -74.5t-31 -74.5t-75 -30.5
q-43 0 -73.5 31t-30.5 74q0 44 30 74t75 31z" />
    <glyph glyph-name="Amacron" horiz-adv-x="1012" 
d="M416 1365h196l364 -1365h-166l-102 391h-410l-99 -391h-166zM673 523l-169 681l-172 -681h341zM231 1672h563v-122h-563v122z" />
    <glyph glyph-name="amacron" horiz-adv-x="942" 
d="M268 753l-148 25q23 109 93 169q107 91 266 91q189 0 274 -116q32 -44 43 -105.5t11 -195.5v-297q0 -159 3 -212.5t15 -111.5h-143q-12 82 -12 180q-43 -83 -80 -123q-81 -85 -211 -85q-148 0 -230 97q-68 80 -68 206q0 134 76 224q110 129 367 129q56 0 134 -7v43
q0 118 -39 178q-46 70 -151 70q-157 0 -200 -159zM658 501q-66 13 -117 13q-302 0 -302 -243q0 -83 44 -128t125 -45q112 0 182.5 92t70.5 239q0 71 -3 72zM218 1333h547v-119h-547v119z" />
    <glyph glyph-name="Eacute" unicode="&#xc9;" horiz-adv-x="942" 
d="M144 1365h742v-137h-577v-451h456v-137h-456v-503h593v-137h-758v1365zM359 1593l370 171l75 -139l-395 -123z" />
    <glyph glyph-name="Aogonek" unicode="&#xa5;" horiz-adv-x="1012" 
d="M416 1365h196l364 -1365q-49 -48 -67.5 -81.5t-18.5 -74.5q0 -96 121 -96q38 0 80 7l19 -70q-70 -29 -146 -29q-103 0 -159 52q-49 46 -49 112q0 57 31.5 98t106.5 82h-84l-102 391h-410l-99 -391h-166zM673 523l-169 681l-172 -681h341z" />
    <glyph glyph-name="Odieresis" unicode="&#xd6;" horiz-adv-x="1151" 
d="M585 1393q114 0 211 -51q147 -78 213 -278q53 -158 53 -382q0 -396 -165 -581q-115 -129 -317 -129q-121 0 -221 51q-140 73 -209 262q-60 167 -60 393q0 277 81 454q120 261 414 261zM580 1256q-99 0 -162 -48q-75 -57 -115.5 -193t-40.5 -331q0 -294 84 -440
q41 -71 95.5 -103t134.5 -32q87 0 145.5 39t99.5 125q69 145 69 410q0 292 -84 439q-40 69 -93 100.5t-133 33.5zM418 1719q44 0 74.5 -30.5t30.5 -74.5t-31 -74.5t-75 -30.5q-42 0 -73 31t-31 73q0 45 30 75t75 31zM730 1719q44 0 74.5 -30.5t30.5 -74.5t-31 -74.5
t-75 -30.5q-43 0 -73.5 31t-30.5 74q0 44 30 74t75 31z" />
    <glyph glyph-name="Udieresis" unicode="&#xdc;" horiz-adv-x="1116" 
d="M143 1365h165v-902q0 -125 10.5 -181t40.5 -93q63 -77 202 -77q85 0 137.5 26t83.5 83q35 64 35 250v894h156v-885q0 -148 -16.5 -229t-57.5 -138q-103 -141 -345 -141q-240 0 -340 141q-71 100 -71 350v902zM400 1719q44 0 74.5 -30.5t30.5 -74.5t-31 -74.5t-75 -30.5
q-42 0 -73 31t-31 73q0 45 30 75t75 31zM712 1719q44 0 74.5 -30.5t30.5 -74.5t-31 -74.5t-75 -30.5q-43 0 -73.5 31t-30.5 74q0 44 30 74t75 31z" />
    <glyph glyph-name="aacute" unicode="&#xe1;" horiz-adv-x="942" 
d="M268 753l-148 25q23 109 93 169q107 91 266 91q189 0 274 -116q32 -44 43 -105.5t11 -195.5v-297q0 -159 3 -212.5t15 -111.5h-143q-12 82 -12 180q-43 -83 -80 -123q-81 -85 -211 -85q-148 0 -230 97q-68 80 -68 206q0 134 76 224q110 129 367 129q56 0 134 -7v43
q0 118 -39 178q-46 70 -151 70q-157 0 -200 -159zM658 501q-66 13 -117 13q-302 0 -302 -243q0 -83 44 -128t125 -45q112 0 182.5 92t70.5 239q0 71 -3 72zM352 1224l304 253l105 -111l-339 -215z" />
    <glyph glyph-name="aogonek" unicode="&#xb9;" horiz-adv-x="942" 
d="M268 753l-148 25q23 109 93 169q107 91 266 91q189 0 274 -116q32 -44 43 -105.5t11 -195.5v-297q0 -159 3 -212.5t15 -111.5q-83 -80 -83 -151q0 -93 127 -93q25 0 68 6l18 -67q-67 -28 -141 -28q-99 0 -154 50q-48 45 -48 109q0 55 30 94t104 80h-64q-11 69 -12 180
q-43 -83 -80 -123q-81 -85 -211 -85q-148 0 -230 97q-68 80 -68 206q0 134 76 224q110 129 367 129q56 0 134 -7v43q0 118 -39 178q-46 70 -151 70q-157 0 -200 -159zM658 501q-66 13 -117 13q-302 0 -302 -243q0 -90 48 -132q46 -41 121 -41q113 0 181 94q72 97 72 243
q0 65 -3 66z" />
    <glyph glyph-name="Ccaron" unicode="&#xc8;" 
d="M838 428l151 -38q-37 -194 -111 -287q-105 -131 -311 -131q-210 0 -322 137q-155 190 -155 573q0 416 185 597q116 114 297 114q176 0 277.5 -100t147.5 -317l-159 -37q-31 154 -68 211q-68 103 -193 103q-153 0 -231.5 -146t-78.5 -427q0 -290 93 -442q77 -126 219 -126
q110 0 165.5 67.5t93.5 248.5zM233 1714l150 26l181 -105l182 105l150 -26l-332 -227z" />
    <glyph glyph-name="adieresis" unicode="&#xe4;" horiz-adv-x="942" 
d="M268 753l-148 25q23 109 93 169q107 91 266 91q189 0 274 -116q32 -44 43 -105.5t11 -195.5v-297q0 -159 3 -212.5t15 -111.5h-143q-12 82 -12 180q-43 -83 -80 -123q-81 -85 -211 -85q-148 0 -230 97q-68 80 -68 206q0 134 76 224q110 129 367 129q56 0 134 -7v43
q0 118 -39 178q-46 70 -151 70q-157 0 -200 -159zM658 501q-66 13 -117 13q-302 0 -302 -243q0 -83 44 -128t125 -45q112 0 182.5 92t70.5 239q0 71 -3 72zM336 1377q43 0 72.5 -29.5t29.5 -72.5q0 -42 -30 -71.5t-73 -29.5q-41 0 -70.5 29.5t-29.5 71.5q0 43 29 72t72 30z
M639 1377q42 0 71.5 -29.5t29.5 -72.5q0 -42 -30 -71.5t-73 -29.5q-41 0 -70.5 30t-29.5 71q0 43 29 72t73 30z" />
    <glyph glyph-name="ccaron" unicode="&#xe8;" horiz-adv-x="838" 
d="M795 696l-152 -30q-20 128 -46 173q-43 73 -141 73q-113 0 -160 -101t-47 -340q0 -214 62 -299q54 -74 150 -74q108 0 151 99q20 46 31 146l152 -18q-28 -172 -86 -246q-82 -107 -260 -107q-172 0 -260 119q-105 141 -105 406q0 541 376 541q157 0 237 -95
q37 -44 57.5 -95.5t40.5 -151.5zM132 1397l145 25l177 -125l176 125l145 -25l-321 -243z" />
    <glyph glyph-name="Cacute" unicode="&#xc6;" 
d="M838 428l151 -38q-37 -194 -111 -287q-105 -131 -311 -131q-210 0 -322 137q-155 190 -155 573q0 416 185 597q116 114 297 114q176 0 277.5 -100t147.5 -317l-159 -37q-31 154 -68 211q-68 103 -193 103q-153 0 -231.5 -146t-78.5 -427q0 -290 93 -442q77 -126 219 -126
q110 0 165.5 67.5t93.5 248.5zM416 1593l370 171l75 -139l-395 -123z" />
    <glyph glyph-name="cacute" unicode="&#xe6;" horiz-adv-x="838" 
d="M795 696l-152 -30q-20 128 -46 173q-43 73 -141 73q-113 0 -160 -101t-47 -340q0 -214 62 -299q54 -74 150 -74q108 0 151 99q20 46 31 146l152 -18q-28 -172 -86 -246q-82 -107 -260 -107q-172 0 -260 119q-105 141 -105 406q0 541 376 541q157 0 237 -95
q37 -44 57.5 -95.5t40.5 -151.5zM314 1224l304 253l105 -111l-339 -215z" />
    <glyph glyph-name="eacute" unicode="&#xe9;" horiz-adv-x="907" 
d="M837 486h-596q0 -389 235 -389q79 0 125.5 46t80.5 156l140 -32q-77 -295 -353 -295q-152 0 -246 91q-140 136 -140 428q0 270 124 423q101 124 269 124q113 0 200 -65q123 -93 152 -326q6 -48 9 -161zM668 609q-1 147 -54 224q-56 79 -154 79q-91 0 -144.5 -76.5
t-66.5 -226.5h419zM342 1224l304 253l105 -111l-339 -215z" />
    <glyph glyph-name="Zacute" horiz-adv-x="837" 
d="M45 1365h772v-113l-632 -1106h646v-146h-819v146l619 1082h-586v137zM284 1593l370 171l75 -139l-395 -123z" />
    <glyph glyph-name="zacute" unicode="&#x178;" horiz-adv-x="663" 
d="M54 1010h600v-82l-465 -805h465v-123h-637v123l446 764h-409v123zM226 1224l304 253l105 -111l-339 -215z" />
    <glyph glyph-name="Dcaron" unicode="&#xcf;" horiz-adv-x="1152" 
d="M144 1365h294q226 0 377 -108q131 -94 196 -268q51 -135 51 -296q0 -265 -127 -450q-167 -243 -497 -243h-294v1365zM309 1228v-1091h129q182 0 294 106q153 145 153 437q0 322 -183 466q-103 82 -264 82h-129zM176 1714l150 26l181 -105l182 105l150 -26l-332 -227z" />
    <glyph glyph-name="iacute" unicode="&#xed;" horiz-adv-x="419" 
d="M135 1010h149v-1010h-149v1010zM81 1224l277 253l98 -107l-305 -219z" />
    <glyph glyph-name="dcaron" unicode="&#xef;" horiz-adv-x="1096" 
d="M693 1365h149v-1365h-135v141q-90 -162 -270 -162q-116 0 -196 64q-158 126 -158 450q0 292 138 445q83 93 219 93q91 0 151.5 -37.5t101.5 -119.5v491zM693 431v169q0 83 -13.5 130t-51.5 96q-61 80 -161 80q-219 0 -219 -392q0 -409 226 -409q108 0 171 88
q27 37 37.5 89t10.5 149zM967 1365h164l-140 -368h-80z" />
    <glyph glyph-name="Emacron" horiz-adv-x="942" 
d="M144 1365h742v-137h-577v-451h456v-137h-456v-503h593v-137h-758v1365zM233 1672h563v-122h-563v122z" />
    <glyph glyph-name="emacron" horiz-adv-x="907" 
d="M837 486h-596q0 -389 235 -389q79 0 125.5 46t80.5 156l140 -32q-77 -295 -353 -295q-152 0 -246 91q-140 136 -140 428q0 270 124 423q101 124 269 124q113 0 200 -65q123 -93 152 -326q6 -48 9 -161zM668 609q-1 147 -54 224q-56 79 -154 79q-91 0 -144.5 -76.5
t-66.5 -226.5h419zM201 1333h547v-119h-547v119z" />
    <glyph glyph-name="Edotaccent" horiz-adv-x="942" 
d="M144 1365h742v-137h-577v-451h456v-137h-456v-503h593v-137h-758v1365zM514 1729q49 0 83.5 -34.5t34.5 -82.5q0 -49 -34.5 -83.5t-84.5 -34.5q-47 0 -81.5 34.5t-34.5 82.5q0 49 34 83t83 35z" />
    <glyph glyph-name="oacute" unicode="&#xf3;" horiz-adv-x="942" 
d="M474 1038q146 0 241 -89q143 -132 143 -445q0 -310 -143 -444q-94 -88 -247 -88q-160 0 -253 99q-131 141 -131 430q0 298 131 438q95 99 259 99zM474 912q-111 0 -168 -102.5t-57 -303.5t56 -304.5t166 -103.5q222 0 222 407q0 401 -219 407zM346 1224l304 253l105 -111
l-339 -215z" />
    <glyph glyph-name="edotaccent" horiz-adv-x="907" 
d="M837 486h-596q0 -389 235 -389q79 0 125.5 46t80.5 156l140 -32q-77 -295 -353 -295q-152 0 -246 91q-140 136 -140 428q0 270 124 423q101 124 269 124q113 0 200 -65q123 -93 152 -326q6 -48 9 -161zM668 609q-1 147 -54 224q-56 79 -154 79q-91 0 -144.5 -76.5
t-66.5 -226.5h419zM473 1388q47 0 80.5 -33.5t33.5 -81.5q0 -47 -33.5 -80t-81.5 -33q-46 0 -79.5 33.5t-33.5 79.5q0 48 33 81t81 34z" />
    <glyph glyph-name="ocircumflex" unicode="&#xf4;" horiz-adv-x="942" 
d="M474 1038q146 0 241 -89q143 -132 143 -445q0 -310 -143 -444q-94 -88 -247 -88q-160 0 -253 99q-131 141 -131 430q0 298 131 438q95 99 259 99zM474 912q-111 0 -168 -102.5t-57 -303.5t56 -304.5t166 -103.5q222 0 222 407q0 401 -219 407zM150 1191l322 243l321 -243
l-145 -26l-176 126l-177 -126z" />
    <glyph glyph-name="odieresis" unicode="&#xf6;" horiz-adv-x="942" 
d="M474 1038q146 0 241 -89q143 -132 143 -445q0 -310 -143 -444q-94 -88 -247 -88q-160 0 -253 99q-131 141 -131 430q0 298 131 438q95 99 259 99zM474 912q-111 0 -168 -102.5t-57 -303.5t56 -304.5t166 -103.5q222 0 222 407q0 401 -219 407zM316 1377q43 0 72.5 -29.5
t29.5 -72.5q0 -42 -30 -71.5t-73 -29.5q-41 0 -70.5 29.5t-29.5 71.5q0 43 29 72t72 30zM619 1377q42 0 71.5 -29.5t29.5 -72.5q0 -42 -30 -71.5t-73 -29.5q-41 0 -70.5 30t-29.5 71q0 43 29 72t73 30z" />
    <glyph glyph-name="otilde" horiz-adv-x="942" 
d="M474 1038q146 0 241 -89q143 -132 143 -445q0 -310 -143 -444q-94 -88 -247 -88q-160 0 -253 99q-131 141 -131 430q0 298 131 438q95 99 259 99zM474 912q-111 0 -168 -102.5t-57 -303.5t56 -304.5t166 -103.5q222 0 222 407q0 401 -219 407zM695 1377l83 -48
q-33 -61 -57 -91q-53 -64 -129 -64q-54 0 -132 55q-60 42 -90 42q-52 0 -94 -84l-83 49q74 160 187 160q54 0 128 -52q63 -44 101 -44q48 0 86 77z" />
    <glyph glyph-name="uacute" unicode="&#xfa;" horiz-adv-x="942" 
d="M135 1010h149v-637q0 -148 15 -190q30 -86 140 -86q114 0 173 118q27 55 36.5 122.5t9.5 211.5v461h149v-1010h-140v151q-46 -97 -106.5 -138t-156.5 -41q-179 0 -240 145q-29 70 -29 256v637zM346 1224l304 253l105 -111l-339 -215z" />
    <glyph glyph-name="Ecaron" unicode="&#xcc;" horiz-adv-x="942" 
d="M144 1365h742v-137h-577v-451h456v-137h-456v-503h593v-137h-758v1365zM184 1714l150 26l181 -105l182 105l150 -26l-332 -227z" />
    <glyph glyph-name="ecaron" unicode="&#xec;" horiz-adv-x="907" 
d="M837 486h-596q0 -389 235 -389q79 0 125.5 46t80.5 156l140 -32q-77 -295 -353 -295q-152 0 -246 91q-140 136 -140 428q0 270 124 423q101 124 269 124q113 0 200 -65q123 -93 152 -326q6 -48 9 -161zM668 609q-1 147 -54 224q-56 79 -154 79q-91 0 -144.5 -76.5
t-66.5 -226.5h419zM153 1397l145 25l177 -125l176 125l145 -25l-321 -243z" />
    <glyph glyph-name="udieresis" unicode="&#xfc;" horiz-adv-x="942" 
d="M135 1010h149v-637q0 -148 15 -190q30 -86 140 -86q114 0 173 118q27 55 36.5 122.5t9.5 211.5v461h149v-1010h-140v151q-46 -97 -106.5 -138t-156.5 -41q-179 0 -240 145q-29 70 -29 256v637zM316 1377q43 0 72.5 -29.5t29.5 -72.5q0 -42 -30 -71.5t-73 -29.5
q-41 0 -70.5 29.5t-29.5 71.5q0 43 29 72t72 30zM619 1377q42 0 71.5 -29.5t29.5 -72.5q0 -42 -30 -71.5t-73 -29.5q-41 0 -70.5 30t-29.5 71q0 43 29 72t73 30z" />
    <glyph glyph-name="dagger" unicode="&#x2020;" 
d="M453 1365h140v-401h315v-130h-315v-1176h-140v1176h-315v130h315v401z" />
    <glyph glyph-name="degree" unicode="&#xb0;" 
d="M527 1393q125 0 218 -92q92 -91 92 -222t-92 -222q-92 -92 -222 -92t-222 92t-92 221q0 134 92 223q94 92 226 92zM525 1279q-74 0 -125 -58t-51 -143q0 -82 51 -141q51 -58 123 -58t123 58.5t51 141.5t-49.5 140.5t-122.5 59.5z" />
    <glyph glyph-name="Eogonek" unicode="&#xca;" horiz-adv-x="942" 
d="M144 1365h742v-137h-577v-451h456v-137h-456v-503h593v-137q-50 -50 -68 -82.5t-18 -72.5q0 -97 129 -97q30 0 72 7l19 -70q-69 -29 -146 -29q-103 0 -159 52q-49 46 -49 112q0 57 31 97.5t107 82.5h-676v1365z" />
    <glyph glyph-name="sterling" 
d="M537 770h285v-123h-270q14 -76 14 -142q0 -131 -41 -215t-141 -158h155q187 0 260 31t134 136l112 -88q-59 -115 -152 -165q-54 -28 -123 -37t-231 -9h-480v137h42q115 0 192 58q119 90 119 254q0 77 -22 198h-231v123h212q-31 170 -31 255q0 87 29.5 162.5t82.5 122.5
q93 83 247 83q198 0 309 -186l-115 -95q-32 62 -61 91q-54 55 -138 55q-91 0 -142 -65t-51 -182q0 -68 36 -241z" />
    <glyph glyph-name="section" unicode="&#xa7;" horiz-adv-x="1046" 
d="M891 1119l-144 -21q-29 95 -80 138t-137 43q-94 0 -139 -58q-39 -51 -39 -125q0 -93 67 -145q48 -38 190 -89q89 -31 128 -50.5t77 -50.5q90 -74 90 -201q0 -84 -34 -147t-119 -134q74 -50 107 -94q59 -80 59 -189q0 -157 -114 -256q-111 -98 -287 -98q-160 0 -258.5 78
t-128.5 227l146 27q25 -107 85 -157t164 -50q113 0 175 55q64 57 64 151q0 109 -84 165q-30 20 -56 30.5t-155 54.5q-154 53 -220 111q-80 71 -80 191q0 88 39 156t131 139q-133 105 -133 268q0 141 103 228q91 77 226 77q80 0 152 -25.5t117 -69.5q58 -58 88 -179zM429 774
q-68 -59 -94.5 -104t-26.5 -102q0 -63 29.5 -102.5t99.5 -71.5q34 -16 210 -75q66 59 91.5 102t25.5 98q0 117 -145 181q-17 8 -111 43q-32 12 -79 31z" />
    <glyph glyph-name="bullet" unicode="&#x2022;" horiz-adv-x="1365" 
d="M689 979q113 0 196 -83q84 -83 84 -201t-83 -201t-201 -83q-116 0 -199 82q-85 84 -85 202q0 121 84 202q86 82 204 82z" />
    <glyph glyph-name="paragraph" unicode="&#xb6;" 
d="M891 1365v-1707h-119v1591h-104v-1591h-119v950h-81q-114 0 -165 13q-137 34 -199 150q-51 94 -51 214q0 123 55 220q50 87 132 123.5t228 36.5h423z" />
    <glyph glyph-name="germandbls" unicode="&#xdf;" horiz-adv-x="977" 
d="M9 793v123h126q0 127 5 172.5t25 104.5q48 140 180 195q79 33 164 33q141 0 235 -87q87 -79 87 -197q0 -231 -347 -305q12 -31 39 -51t115 -63q162 -77 233 -163q76 -92 76 -216q0 -75 -28 -149.5t-74 -120.5q-96 -97 -256 -97q-74 0 -179 35l38 120q79 -29 149 -29
q87 0 141.5 64t54.5 166q0 96 -57 158q-25 27 -52 44.5t-113 64.5q-115 61 -159.5 110t-44.5 114q0 37 18 87q130 29 185 59q112 62 112 164q0 82 -52 130q-51 48 -132 48q-122 0 -177 -111q-22 -42 -29.5 -101t-7.5 -179v-991h-149v868h-126z" />
    <glyph glyph-name="registered" unicode="&#xae;" horiz-adv-x="1606" 
d="M803 1392q316 0 530 -235q184 -202 184 -480q0 -184 -96 -349q-95 -165 -261 -260t-368 -95q-180 0 -346 95q-166 96 -261 260q-96 165 -96 354q0 313 237 527q196 178 477 183zM803 1286q-266 0 -446 -200q-154 -171 -154 -404q0 -161 80 -301q81 -140 220 -221t290 -81
q277 0 456 200q84 94 124 215q30 94 30 184q0 270 -199 453q-164 151 -401 155zM552 1092h262q123 0 189 -51q80 -63 80 -177q0 -150 -139 -215l164 -376h-138l-145 348h-144v-348h-129v819zM681 990v-267h118q156 0 156 143q0 124 -148 124h-126z" />
    <glyph glyph-name="copyright" unicode="&#xa9;" horiz-adv-x="1606" 
d="M803 1392q316 0 530 -235q184 -202 184 -480q0 -184 -96 -349q-95 -165 -261 -260t-368 -95q-180 0 -346 95q-166 96 -261 260q-96 165 -96 354q0 313 237 527q196 178 477 183zM803 1286q-266 0 -446 -200q-154 -171 -154 -404q0 -161 80 -301q81 -140 220 -221t290 -81
q277 0 456 200q84 94 124 215q30 94 30 184q0 270 -199 453q-164 151 -401 155zM971 548l118 -27q-28 -143 -92 -203.5t-187 -60.5q-138 0 -212 83q-101 114 -101 342q0 250 121 358q77 69 195 69t185 -62.5t97 -199.5l-124 -28q-21 98 -43 131q-39 56 -112 56
q-183 0 -183 -325q0 -156 47.5 -238.5t136.5 -82.5q66 0 97.5 38.5t56.5 149.5z" />
    <glyph glyph-name="trademark" unicode="&#x2122;" horiz-adv-x="1465" 
d="M48 1324h491v-100h-182v-678h-129v678h-180v100zM598 1324h186l172 -626l172 626h182v-778h-119v658l-186 -658h-114l-181 660v-660h-112v778z" />
    <glyph glyph-name="eogonek" unicode="&#xea;" horiz-adv-x="907" 
d="M790 -231l18 -67q-67 -29 -141 -29q-100 0 -154 50q-48 45 -48 109q0 88 93 149q-45 -9 -87 -9q-154 0 -248 91q-140 136 -140 428q0 270 124 423q101 124 269 124q113 0 200 -65q123 -93 152 -326q6 -48 9 -161h-596q0 -389 235 -389q79 0 125.5 46t80.5 156l140 -32
q-22 -83 -45.5 -123t-89.5 -107q-93 -93 -93 -178q0 -97 119 -97q33 0 77 7zM668 609q0 147 -54 224q-56 79 -154 79q-91 0 -144.5 -76.5t-66.5 -226.5h419z" />
    <glyph glyph-name="dieresis" unicode="&#xa8;" horiz-adv-x="1024" 
d="M357 1377q43 0 72.5 -29.5t29.5 -72.5q0 -42 -30 -71.5t-73 -29.5q-41 0 -70.5 29.5t-29.5 71.5q0 43 29 72t72 30zM660 1377q42 0 71.5 -29.5t29.5 -72.5q0 -42 -30 -71.5t-73 -29.5q-41 0 -70.5 30t-29.5 71q0 43 29 72t73 30z" />
    <glyph glyph-name="Dslash" unicode="&#xd0;" horiz-adv-x="1152" 
d="M145 1365h294q226 0 376 -108q132 -94 197 -267q51 -136 51 -297q0 -266 -127 -450q-167 -243 -497 -243h-294v648h-131v121h131v596zM310 1228v-459h279v-121h-279v-511h129q182 0 294 106q153 146 153 438q0 321 -183 465q-103 82 -264 82h-129z" />
    <glyph glyph-name="gcommaaccent" horiz-adv-x="872" 
d="M861 1168v-129q-27 5 -41 5q-48 0 -72.5 -29.5t-34.5 -97.5q78 -106 78 -228q0 -146 -95 -246q-94 -98 -246 -98q-53 0 -123 17q-47 -15 -66 -36t-19 -57q0 -50 35.5 -72.5t121.5 -25.5q250 -11 329 -30q166 -41 166 -233q0 -105 -57 -169q-111 -125 -371 -125
q-182 0 -293 66q-110 64 -110 200q0 151 134 200q-53 36 -74 70.5t-21 86.5q0 129 131 186q-64 63 -90 123t-26 144q0 146 96 245q100 103 243 103q81 0 166 -44q19 95 61 135t123 40q8 0 31 -1h24zM453 912q-84 0 -132.5 -61t-48.5 -167q0 -112 56 -171q50 -52 124 -52
q82 0 133.5 62.5t51.5 161.5q0 103 -49.5 164t-134.5 63zM301 42q-85 -51 -85 -136q0 -89 62 -130t197 -41q265 0 265 165q0 116 -129 131q-37 4 -310 11zM528 1161h-164l139 359h81z" />
    <glyph glyph-name="Iogonek" horiz-adv-x="454" 
d="M309 0q-73 -72 -73 -152q0 -100 113 -100q27 0 56 7l19 -70q-71 -29 -126 -29q-85 0 -140 46.5t-55 118.5q0 107 124 179h-83v1365h165v-1365z" />
    <glyph glyph-name="iogonek" horiz-adv-x="419" 
d="M284 0q-65 -60 -65 -147q0 -98 97 -98q21 0 59 7l18 -67q-68 -29 -134 -29q-77 0 -121.5 42t-44.5 116q0 111 112 176h-70v1010h149v-1010zM291 1189h-163v174h163v-174z" />
    <glyph glyph-name="Imacron" horiz-adv-x="454" 
d="M145 1365h165v-1365h-165v1365zM0 1672h454v-122h-454v122z" />
    <glyph glyph-name="lessequal" 
d="M967 1234v-131l-740 -327l740 -326v-131l-887 396v120zM967 258v-127h-887v127h887z" />
    <glyph glyph-name="greaterequal" 
d="M80 319v131l740 327l-740 326v131l887 -400v-119zM80 131v127h887v-127h-887z" />
    <glyph glyph-name="imacron" horiz-adv-x="419" 
d="M135 1010h149v-1010h-149v1010zM4 1333h410v-119h-410v119z" />
    <glyph glyph-name="Kcommaaccent" horiz-adv-x="1012" 
d="M144 1365h165v-718l478 718h186l-359 -500l444 -865h-190l-359 715l-200 -280v-435h-165v1365zM490 -116h169l-140 -376h-85z" />
    <glyph glyph-name="dmacron" unicode="&#xf0;" horiz-adv-x="977" 
d="M698 1365h144v-123h122v-100h-122v-1142h-135v141q-90 -162 -270 -162q-116 0 -196 64q-158 126 -158 450q0 292 138 445q83 93 220 93q92 0 152 -38.5t105 -127.5v277h-218v100h218v123zM693 431v169q0 83 -13.5 130t-51.5 96q-61 80 -161 80q-219 0 -219 -392
q0 -409 226 -409q108 0 171 88q27 38 37.5 89.5t10.5 148.5z" />
    <glyph glyph-name="summation" horiz-adv-x="1365" 
d="M1220 1536v-463h-125l-12 334h-871l517 -854l-517 -938h891l6 332h130v-459h-1180v143l510 922l-510 842v141h1161z" />
    <glyph glyph-name="lslash" unicode="&#xb3;" horiz-adv-x="418" 
d="M135 1365h149v-547l124 124v-141l-124 -125v-676h-149v578l-124 -124v142l124 124v645z" />
    <glyph glyph-name="Lcommaaccent" horiz-adv-x="803" 
d="M144 1365h165v-1228h519v-137h-684v1365zM416 -116h169l-140 -376h-85z" />
    <glyph glyph-name="lcommaaccent" horiz-adv-x="419" 
d="M135 1365h149v-1365h-149v1365zM128 -116h164l-140 -359h-80z" />
    <glyph glyph-name="Lcaron" unicode="&#xbc;" horiz-adv-x="803" 
d="M144 1365h165v-1228h519v-137h-684v1365zM531 1365h169l-140 -375h-85z" />
    <glyph glyph-name="lcaron" unicode="&#xbe;" horiz-adv-x="538" 
d="M135 1365h149v-1365h-149v1365zM408 1365h164l-140 -368h-80z" />
    <glyph glyph-name="Lacute" unicode="&#xc5;" horiz-adv-x="803" 
d="M144 1365h165v-1228h519v-137h-684v1365zM116 1593l370 171l75 -139l-395 -123z" />
    <glyph glyph-name="lacute" unicode="&#xe5;" horiz-adv-x="419" 
d="M135 1365h149v-1365h-149v1365zM92 1593l336 171l63 -126l-357 -136z" />
    <glyph glyph-name="Ncommaaccent" horiz-adv-x="1151" 
d="M137 1365h211l522 -1080v1080h144v-1365h-164l-569 1162v-1162h-144v1365zM505 -116h169l-140 -376h-85z" />
    <glyph glyph-name="ncommaaccent" horiz-adv-x="942" 
d="M135 1010h140v-158q42 99 103 142.5t157 43.5q89 0 154 -39t93 -109q25 -62 25 -247v-643h-149v622q0 106 -5 148t-21 74q-35 68 -132 68q-117 0 -175 -115q-41 -82 -41 -253v-544h-149v1010zM394 -116h164l-140 -359h-80z" />
    <glyph glyph-name="Nacute" unicode="&#xd1;" horiz-adv-x="1151" 
d="M137 1365h211l522 -1080v1080h144v-1365h-164l-569 1162v-1162h-144v1365zM454 1593l370 171l75 -139l-395 -123z" />
    <glyph glyph-name="logicalnot" unicode="&#xac;" horiz-adv-x="1024" 
d="M818 0v419h-750v127h887v-546h-137z" />
    <glyph glyph-name="radical" horiz-adv-x="1365" 
d="M1365 1697v-127h-406l-452 -1570h-166l-173 619h-168v127h279l80 -273q8 -28 55 -249l6 -33h10q8 39 42 179l52 215l93 319l226 793h522z" />
    <glyph glyph-name="nacute" unicode="&#xf1;" horiz-adv-x="942" 
d="M135 1010h140v-158q42 99 103 142.5t157 43.5q89 0 154 -39t93 -109q25 -62 25 -247v-643h-149v622q0 106 -5 148t-21 74q-35 68 -132 68q-117 0 -175 -115q-41 -82 -41 -253v-544h-149v1010zM332 1224l304 253l105 -111l-339 -215z" />
    <glyph glyph-name="Ncaron" unicode="&#xd2;" horiz-adv-x="1151" 
d="M137 1365h211l522 -1080v1080h144v-1365h-164l-569 1162v-1162h-144v1365zM244 1714l150 26l181 -105l182 105l150 -26l-332 -227z" />
    <glyph glyph-name="Delta" horiz-adv-x="1365" 
d="M59 0l549 1365h146l553 -1365h-1248zM255 128h854l-427 1071z" />
    <glyph glyph-name="guillemotleft" unicode="&#xab;" horiz-adv-x="733" 
d="M641 223h-92l-178 303l178 303h92l-94 -303zM362 237h-92l-178 288l178 289h92l-95 -289z" />
    <glyph glyph-name="guillemotright" unicode="&#xbb;" horiz-adv-x="733" 
d="M92 829h92l178 -303l-178 -303h-92l94 303zM371 829h92l178 -303l-178 -303h-92l94 303z" />
    <glyph glyph-name="ellipsis" unicode="&#x2026;" horiz-adv-x="1465" 
d="M151 221h186v-221h-186v221zM639 221h186v-221h-186v221zM1128 221h186v-221h-186v221z" />
    <glyph glyph-name="glyph172" horiz-adv-x="1046" 
 />
    <glyph glyph-name="ncaron" unicode="&#xf2;" horiz-adv-x="942" 
d="M135 1010h140v-158q42 99 103 142.5t157 43.5q89 0 154 -39t93 -109q25 -62 25 -247v-643h-149v622q0 106 -5 148t-21 74q-35 68 -132 68q-117 0 -175 -115q-41 -82 -41 -253v-544h-149v1010zM147 1397l145 25l177 -125l176 125l145 -25l-321 -243z" />
    <glyph glyph-name="Ohungarumlaut" unicode="&#xd5;" horiz-adv-x="1151" 
d="M585 1393q114 0 211 -51q147 -78 213 -278q53 -158 53 -382q0 -396 -165 -581q-115 -129 -317 -129q-121 0 -221 51q-140 73 -209 262q-60 167 -60 393q0 277 81 454q120 261 414 261zM580 1256q-99 0 -162 -48q-75 -57 -115.5 -193t-40.5 -331q0 -294 84 -440
q41 -71 95.5 -103t134.5 -32q87 0 145.5 39t99.5 125q69 145 69 410q0 292 -84 439q-40 69 -93 100.5t-133 33.5zM611 1769l89 -130l-310 -157l-42 73zM945 1769l88 -130l-309 -157l-42 73z" />
    <glyph glyph-name="Otilde" horiz-adv-x="1151" 
d="M585 1393q114 0 211 -51q147 -78 213 -278q53 -158 53 -382q0 -396 -165 -581q-115 -129 -317 -129q-121 0 -221 51q-140 73 -209 262q-60 167 -60 393q0 277 81 454q120 261 414 261zM580 1256q-99 0 -162 -48q-75 -57 -115.5 -193t-40.5 -331q0 -294 84 -440
q41 -71 95.5 -103t134.5 -32q87 0 145.5 39t99.5 125q69 145 69 410q0 292 -84 439q-40 69 -93 100.5t-133 33.5zM815 1706l88 -50q-47 -80 -93 -114t-109 -34q-53 0 -137 43q-65 33 -98 33q-56 0 -101 -74l-88 50q77 153 202 153q56 0 136 -41q68 -34 106 -34q30 0 50 14.5
t44 53.5z" />
    <glyph glyph-name="ohungarumlaut" unicode="&#xf5;" horiz-adv-x="942" 
d="M474 1038q146 0 241 -89q143 -132 143 -445q0 -310 -143 -444q-94 -88 -247 -88q-160 0 -253 99q-131 141 -131 430q0 298 131 438q95 99 259 99zM474 912q-111 0 -168 -102.5t-57 -303.5t56 -304.5t166 -103.5q222 0 222 407q0 401 -219 407zM483 1463l106 -109
l-269 -203l-53 63zM743 1463l106 -109l-269 -203l-53 63z" />
    <glyph glyph-name="Omacron" horiz-adv-x="1151" 
d="M585 1393q114 0 211 -51q147 -78 213 -278q53 -158 53 -382q0 -396 -165 -581q-115 -129 -317 -129q-121 0 -221 51q-140 73 -209 262q-60 167 -60 393q0 277 81 454q120 261 414 261zM580 1256q-99 0 -162 -48q-75 -57 -115.5 -193t-40.5 -331q0 -294 84 -440
q41 -71 95.5 -103t134.5 -32q87 0 145.5 39t99.5 125q69 145 69 410q0 292 -84 439q-40 69 -93 100.5t-133 33.5zM295 1672h563v-122h-563v122z" />
    <glyph glyph-name="endash" unicode="&#x2013;" horiz-adv-x="803" 
d="M64 570h675v-123h-675v123z" />
    <glyph glyph-name="emdash" unicode="&#x2014;" horiz-adv-x="1256" 
d="M64 570h1128v-123h-1128v123z" />
    <glyph glyph-name="quotedblleft" unicode="&#x201c;" horiz-adv-x="698" 
d="M563 940h-186v203l132 246h91l-120 -235h83v-214zM284 940h-186v203l132 246h91l-120 -235h83v-214z" />
    <glyph glyph-name="quotedblright" unicode="&#x201d;" horiz-adv-x="698" 
d="M135 1365h186v-202l-132 -247h-91l120 235h-83v214zM414 1365h186v-202l-132 -247h-91l120 235h-83v214z" />
    <glyph glyph-name="quoteleft" unicode="&#x2018;" horiz-adv-x="419" 
d="M284 940h-186v203l132 246h91l-120 -235h83v-214z" />
    <glyph glyph-name="quoteright" unicode="&#x2019;" horiz-adv-x="419" 
d="M135 1365h186v-202l-132 -247h-91l120 235h-83v214z" />
    <glyph glyph-name="divide" unicode="&#xf7;" 
d="M942 619h-837v126h837v-126zM609 855h-171v191h171v-191zM609 319h-171v191h171v-191z" />
    <glyph glyph-name="lozenge" horiz-adv-x="1365" 
d="M683 1419l531 -736l-531 -736l-532 736zM683 1238l-404 -555l404 -554l403 554z" />
    <glyph glyph-name="omacron" horiz-adv-x="942" 
d="M474 1038q146 0 241 -89q143 -132 143 -445q0 -310 -143 -444q-94 -88 -247 -88q-160 0 -253 99q-131 141 -131 430q0 298 131 438q95 99 259 99zM474 912q-111 0 -168 -102.5t-57 -303.5t56 -304.5t166 -103.5q222 0 222 407q0 401 -219 407zM198 1333h547v-119h-547
v119z" />
    <glyph glyph-name="Racute" unicode="&#xc0;" 
d="M144 1365h396q189 0 288 -85q118 -101 118 -288q0 -247 -224 -358l256 -634h-178l-229 596h-262v-596h-165v1365zM309 1228v-495h207q126 0 191 63q74 71 74 200q0 112 -65.5 172t-186.5 60h-220zM347 1593l370 171l75 -139l-395 -123z" />
    <glyph glyph-name="racute" unicode="&#xe0;" horiz-adv-x="523" 
d="M135 1010h132v-211q34 84 67.5 129.5t84.5 77.5q53 32 107 32q6 0 33 -1v-169q-25 3 -39 3q-108 0 -173 -92q-63 -88 -63 -256v-523h-149v1010zM191 1224l304 253l105 -111l-339 -215z" />
    <glyph glyph-name="Rcaron" unicode="&#xd8;" 
d="M144 1365h396q189 0 288 -85q118 -101 118 -288q0 -247 -224 -358l256 -634h-178l-229 596h-262v-596h-165v1365zM309 1228v-495h207q126 0 191 63q74 71 74 200q0 112 -65.5 172t-186.5 60h-220zM164 1714l150 26l181 -105l182 105l150 -26l-332 -227z" />
    <glyph glyph-name="guilsinglleft" unicode="&#x2039;" horiz-adv-x="454" 
d="M362 223h-92l-178 303l178 303h92l-95 -303z" />
    <glyph glyph-name="guilsinglright" unicode="&#x203a;" horiz-adv-x="454" 
d="M92 829h92l178 -303l-178 -303h-92l94 303z" />
    <glyph glyph-name="rcaron" unicode="&#xf8;" horiz-adv-x="523" 
d="M135 1010h132v-211q34 84 67.5 129.5t84.5 77.5q53 32 107 32q6 0 33 -1v-169q-25 3 -39 3q-108 0 -173 -92q-63 -88 -63 -256v-523h-149v1010zM8 1397l145 25l177 -125l176 125l145 -25l-321 -243z" />
    <glyph glyph-name="Rcommaaccent" 
d="M144 1365h396q189 0 288 -85q118 -101 118 -288q0 -247 -224 -358l256 -634h-178l-229 596h-262v-596h-165v1365zM309 1228v-495h207q126 0 191 63q74 71 74 200q0 112 -65.5 172t-186.5 60h-220zM463 -116h169l-140 -376h-85z" />
    <glyph glyph-name="rcommaaccent" horiz-adv-x="523" 
d="M135 1010h132v-211q34 84 67.5 129.5t84.5 77.5q53 32 107 32q6 0 33 -1v-169q-25 3 -39 3q-108 0 -173 -92q-63 -88 -63 -256v-523h-149v1010zM129 -116h164l-140 -359h-80z" />
    <glyph glyph-name="Scaron" unicode="&#x160;" 
d="M927 1053l-147 -44q-34 101 -73 155q-67 90 -202 90q-103 0 -163 -57q-64 -61 -64 -155q0 -81 51 -132q32 -32 79.5 -56.5t171.5 -71.5q195 -75 276 -148q52 -48 82 -118.5t30 -145.5q0 -83 -35 -162.5t-94 -131.5q-117 -104 -307 -104q-99 0 -188.5 31t-148.5 85
q-54 49 -83.5 109t-51.5 162l153 42q31 -134 90 -198q84 -92 233 -92q116 0 184 60q76 66 76 174q0 92 -58.5 151.5t-209.5 117.5q-145 56 -195 81.5t-97 66.5q-55 48 -87.5 121.5t-32.5 149.5q0 162 123 267q109 93 280 93q160 0 258 -82t150 -258zM192 1714l150 26
l181 -105l182 105l150 -26l-332 -227z" />
    <glyph glyph-name="quotesinglbase" unicode="&#x201a;" horiz-adv-x="419" 
d="M135 214h186v-202l-132 -247h-91l120 235h-83v214z" />
    <glyph glyph-name="quotedblbase" unicode="&#x201e;" horiz-adv-x="698" 
d="M135 214h186v-202l-132 -247h-91l120 235h-83v214zM414 214h186v-202l-132 -247h-91l120 235h-83v214z" />
    <glyph glyph-name="scaron" unicode="&#x161;" horiz-adv-x="802" 
d="M722 781l-132 -33q-57 164 -197 164q-76 0 -125 -43.5t-49 -111.5q0 -71 57 -108q24 -16 46.5 -24.5t131.5 -41.5q136 -42 206 -91q104 -74 104 -210q0 -138 -106 -227q-99 -83 -261 -83q-171 0 -267 93q-68 65 -95 195l139 32q16 -82 51 -122q63 -72 182 -72
q89 0 143 44q59 48 59 122q0 63 -42.5 100.5t-154.5 71.5q-117 36 -168.5 58.5t-86.5 51.5q-85 74 -85 190q0 57 25.5 115t68.5 100q92 87 235 87q127 0 204.5 -62.5t116.5 -194.5zM80 1397l145 25l177 -125l176 125l145 -25l-321 -243z" />
    <glyph glyph-name="Sacute" unicode="&#x152;" 
d="M927 1053l-147 -44q-34 101 -73 155q-67 90 -202 90q-103 0 -163 -57q-64 -61 -64 -155q0 -81 51 -132q32 -32 79.5 -56.5t171.5 -71.5q195 -75 276 -148q52 -48 82 -118.5t30 -145.5q0 -83 -35 -162.5t-94 -131.5q-117 -104 -307 -104q-99 0 -188.5 31t-148.5 85
q-54 49 -83.5 109t-51.5 162l153 42q31 -134 90 -198q84 -92 233 -92q116 0 184 60q76 66 76 174q0 92 -58.5 151.5t-209.5 117.5q-145 56 -195 81.5t-97 66.5q-55 48 -87.5 121.5t-32.5 149.5q0 162 123 267q109 93 280 93q160 0 258 -82t150 -258zM374 1593l370 171
l75 -139l-395 -123z" />
    <glyph glyph-name="sacute" unicode="&#x153;" horiz-adv-x="802" 
d="M722 781l-132 -33q-57 164 -197 164q-76 0 -125 -43.5t-49 -111.5q0 -71 57 -108q24 -16 46.5 -24.5t131.5 -41.5q136 -42 206 -91q104 -74 104 -210q0 -138 -106 -227q-99 -83 -261 -83q-171 0 -267 93q-68 65 -95 195l139 32q16 -82 51 -122q63 -72 182 -72
q89 0 143 44q59 48 59 122q0 63 -42.5 100.5t-154.5 71.5q-117 36 -168.5 58.5t-86.5 51.5q-85 74 -85 190q0 57 25.5 115t68.5 100q92 87 235 87q127 0 204.5 -62.5t116.5 -194.5zM269 1224l304 253l105 -111l-339 -215z" />
    <glyph glyph-name="Aacute" unicode="&#xc1;" horiz-adv-x="1012" 
d="M416 1365h196l364 -1365h-166l-102 391h-410l-99 -391h-166zM673 523l-169 681l-172 -681h341zM358 1593l370 171l75 -139l-395 -123z" />
    <glyph glyph-name="Tcaron" horiz-adv-x="733" 
d="M-43 1365h819v-140h-328v-1225h-165v1225h-326v140zM35 1714l150 26l181 -105l182 105l150 -26l-332 -227z" />
    <glyph glyph-name="tcaron" horiz-adv-x="569" 
d="M152 1246l149 15v-251h198v-123h-198v-508q0 -170 20 -214q29 -62 135 -62q38 0 92 10v-126q-81 -15 -139 -15q-174 0 -227 114q-30 67 -30 293v508h-146v123h146v236zM440 1474h164l-140 -368h-80z" />
    <glyph glyph-name="Iacute" unicode="&#xcd;" horiz-adv-x="454" 
d="M247 1365h165v-1365h-165v1365zM208 1593l336 171l67 -135l-357 -127z" />
    <glyph glyph-name="Zcaron" horiz-adv-x="837" 
d="M45 1365h772v-113l-632 -1106h646v-146h-819v146l619 1082h-586v137zM99 1714l150 26l181 -105l182 105l150 -26l-332 -227z" />
    <glyph glyph-name="zcaron" horiz-adv-x="663" 
d="M54 1010h600v-82l-465 -805h465v-123h-637v123l446 764h-409v123zM33 1397l145 25l177 -125l176 125l145 -25l-321 -243z" />
    <glyph glyph-name="Umacron" horiz-adv-x="1116" 
d="M143 1365h165v-902q0 -125 10.5 -181t40.5 -93q63 -77 202 -77q85 0 137.5 26t83.5 83q35 64 35 250v894h156v-885q0 -148 -16.5 -229t-57.5 -138q-103 -141 -345 -141q-240 0 -340 141q-71 100 -71 350v902zM277 1672h563v-122h-563v122z" />
    <glyph glyph-name="Oacute" unicode="&#xd3;" horiz-adv-x="1151" 
d="M585 1393q114 0 211 -51q147 -78 213 -278q53 -158 53 -382q0 -396 -165 -581q-115 -129 -317 -129q-121 0 -221 51q-140 73 -209 262q-60 167 -60 393q0 277 81 454q120 261 414 261zM580 1256q-99 0 -162 -48q-75 -57 -115.5 -193t-40.5 -331q0 -294 84 -440
q41 -71 95.5 -103t134.5 -32q87 0 145.5 39t99.5 125q69 145 69 410q0 292 -84 439q-40 69 -93 100.5t-133 33.5zM441 1593l370 171l75 -139l-395 -123z" />
    <glyph glyph-name="Ocircumflex" unicode="&#xd4;" horiz-adv-x="1151" 
d="M585 1393q114 0 211 -51q147 -78 213 -278q53 -158 53 -382q0 -396 -165 -581q-115 -129 -317 -129q-121 0 -221 51q-140 73 -209 262q-60 167 -60 393q0 277 81 454q120 261 414 261zM580 1256q-99 0 -162 -48q-75 -57 -115.5 -193t-40.5 -331q0 -294 84 -440
q41 -71 95.5 -103t134.5 -32q87 0 145.5 39t99.5 125q69 145 69 410q0 292 -84 439q-40 69 -93 100.5t-133 33.5zM245 1513l331 227l332 -227l-150 -26l-182 106l-181 -106z" />
    <glyph glyph-name="umacron" horiz-adv-x="942" 
d="M135 1010h149v-637q0 -148 15 -190q30 -86 140 -86q114 0 173 118q27 55 36.5 122.5t9.5 211.5v461h149v-1010h-140v151q-46 -97 -106.5 -138t-156.5 -41q-179 0 -240 145q-29 70 -29 256v637zM198 1333h547v-119h-547v119z" />
    <glyph glyph-name="Uring" unicode="&#xd9;" horiz-adv-x="1116" 
d="M143 1365h165v-902q0 -125 10.5 -181t40.5 -93q63 -77 202 -77q85 0 137.5 26t83.5 83q35 64 35 250v894h156v-885q0 -148 -16.5 -229t-57.5 -138q-103 -141 -345 -141q-240 0 -340 141q-71 100 -71 350v902zM563 1829q77 0 132 -56t55 -134t-55.5 -133.5t-133.5 -55.5
t-133.5 55.5t-55.5 133.5q0 79 55.5 134.5t135.5 55.5zM562 1736q-41 0 -69 -28t-28 -69q0 -39 28.5 -67t67.5 -28t67.5 28t28.5 67q0 40 -27.5 68t-67.5 29z" />
    <glyph glyph-name="Uacute" unicode="&#xda;" horiz-adv-x="1116" 
d="M143 1365h165v-902q0 -125 10.5 -181t40.5 -93q63 -77 202 -77q85 0 137.5 26t83.5 83q35 64 35 250v894h156v-885q0 -148 -16.5 -229t-57.5 -138q-103 -141 -345 -141q-240 0 -340 141q-71 100 -71 350v902zM423 1593l370 171l75 -139l-395 -123z" />
    <glyph glyph-name="uring" unicode="&#xf9;" horiz-adv-x="942" 
d="M135 1010h149v-637q0 -148 15 -190q30 -86 140 -86q114 0 173 118q27 55 36.5 122.5t9.5 211.5v461h149v-1010h-140v151q-46 -97 -106.5 -138t-156.5 -41q-179 0 -240 145q-29 70 -29 256v637zM474 1486q77 0 130.5 -54t53.5 -130q0 -77 -54 -129q-56 -54 -132 -54
q-74 0 -128 54t-54 128q0 77 53 130.5t131 54.5zM474 1395q-39 0 -66 -27t-27 -66q0 -38 27 -65t65 -27q39 0 66.5 27t27.5 65q0 39 -27 65.5t-66 27.5z" />
    <glyph glyph-name="Uhungarumlaut" unicode="&#xdb;" horiz-adv-x="1116" 
d="M143 1365h165v-902q0 -125 10.5 -181t40.5 -93q63 -77 202 -77q85 0 137.5 26t83.5 83q35 64 35 250v894h156v-885q0 -148 -16.5 -229t-57.5 -138q-103 -141 -345 -141q-240 0 -340 141q-71 100 -71 350v902zM573 1769l89 -130l-310 -157l-42 73zM907 1769l88 -130
l-309 -157l-42 73z" />
    <glyph glyph-name="uhungarumlaut" unicode="&#xfb;" horiz-adv-x="942" 
d="M135 1010h149v-637q0 -148 15 -190q30 -86 140 -86q114 0 173 118q27 55 36.5 122.5t9.5 211.5v461h149v-1010h-140v151q-46 -97 -106.5 -138t-156.5 -41q-179 0 -240 145q-29 70 -29 256v637zM476 1463l106 -109l-269 -203l-53 63zM736 1463l106 -109l-269 -203l-53 63z
" />
    <glyph glyph-name="Uogonek" horiz-adv-x="1116" 
d="M973 1365v-885q0 -180 -28 -274q-16 -49 -36 -78.5t-76 -84.5q-107 -106 -107 -194q0 -94 131 -94q31 0 71 7l19 -70q-70 -29 -146 -29q-103 0 -159 52q-49 46 -49 112q0 101 106 161q-78 -16 -148 -16q-237 0 -337 141q-71 100 -71 350v902h165v-902q0 -125 10.5 -181
t40.5 -93q63 -77 202 -77q86 0 138 25.5t83 83.5q35 64 35 250v894h156z" />
    <glyph glyph-name="uogonek" horiz-adv-x="942" 
d="M807 0q-84 -81 -84 -151q0 -93 118 -93q33 0 77 6l19 -67q-68 -28 -141 -28q-100 0 -154 50q-48 44 -48 109q0 92 87 148q12 7 46 26h-60v151q-47 -97 -107 -138t-156 -41q-179 0 -240 145q-29 70 -29 256v637h149v-637q0 -148 15 -190q30 -86 140 -86q113 0 173 118
q27 55 36.5 122.5t9.5 211.5v461h149v-1010z" />
    <glyph glyph-name="Yacute" unicode="&#xdd;" horiz-adv-x="802" 
d="M-60 1365h175l298 -628l295 628h153l-378 -788v-577h-165v577zM266 1593l370 171l75 -139l-395 -123z" />
    <glyph glyph-name="yacute" unicode="&#xfd;" horiz-adv-x="768" 
d="M39 1010h150l207 -755l223 755h143l-348 -1113q-47 -149 -104 -205.5t-160 -56.5q-42 0 -99 11v122q41 -7 70 -7q82 0 116.5 48t85.5 236zM282 1224l304 253l105 -111l-339 -215z" />
    <glyph glyph-name="kcommaaccent" horiz-adv-x="838" 
d="M135 1365h149v-857l360 502h165l-265 -358l298 -652h-160l-237 536l-161 -219v-317h-149v1365zM397 -116h164l-140 -359h-80z" />
    <glyph glyph-name="Zdotaccent" unicode="&#xaf;" horiz-adv-x="837" 
d="M45 1365h772v-113l-632 -1106h646v-146h-819v146l619 1082h-586v137zM430 1729q49 0 83.5 -34.5t34.5 -82.5q0 -49 -34.5 -83.5t-84.5 -34.5q-47 0 -81.5 34.5t-34.5 82.5q0 49 34 83t83 35z" />
    <glyph glyph-name="Lslash" unicode="&#xa3;" horiz-adv-x="803" 
d="M145 1365h165v-595l246 244v-158l-246 -244v-475h519v-137h-684v498l-135 -138v158l135 138v709z" />
    <glyph glyph-name="zdotaccent" unicode="&#xbf;" horiz-adv-x="663" 
d="M54 1010h600v-82l-465 -805h465v-123h-637v123l446 764h-409v123zM355 1388q47 0 80.5 -33.5t33.5 -81.5q0 -47 -33.5 -80t-81.5 -33q-46 0 -79.5 33.5t-33.5 79.5q0 48 33 81t81 34z" />
    <glyph glyph-name="Gcommaaccent" horiz-adv-x="1151" 
d="M585 677h440v-696h-114l-23 189q-48 -89 -106 -132q-90 -66 -223 -66q-164 0 -275 103q-94 87 -135 214q-60 186 -60 389q0 433 203 613q115 102 298 102q174 0 272 -86.5t152 -287.5l-151 -56q-40 141 -80 196q-69 95 -198 95q-319 0 -319 -571q0 -335 114 -474
q79 -97 206 -97q122 0 190 81q88 105 88 303q0 15 -1 44h-278v137zM487 -116h169l-140 -376h-85z" />
    <glyph glyph-name="caron" unicode="&#xa1;" horiz-adv-x="1024" 
d="M190 1397l145 25l177 -125l176 125l145 -25l-321 -243z" />
    <glyph glyph-name="glyph226" horiz-adv-x="382" 
 />
    <glyph glyph-name="glyph227" horiz-adv-x="382" 
 />
    <glyph glyph-name="glyph228" horiz-adv-x="382" 
 />
    <glyph glyph-name="glyph229" horiz-adv-x="382" 
 />
    <glyph glyph-name="glyph230" horiz-adv-x="382" 
 />
    <glyph glyph-name="glyph231" horiz-adv-x="382" 
 />
    <glyph glyph-name="glyph232" horiz-adv-x="382" 
 />
    <glyph glyph-name="glyph233" horiz-adv-x="382" 
 />
    <glyph glyph-name="glyph234" horiz-adv-x="382" 
 />
    <glyph glyph-name="glyph235" horiz-adv-x="382" 
 />
    <glyph glyph-name="glyph236" horiz-adv-x="382" 
 />
    <glyph glyph-name="glyph237" horiz-adv-x="382" 
 />
    <glyph glyph-name="glyph238" horiz-adv-x="382" 
 />
    <glyph glyph-name="glyph239" horiz-adv-x="382" 
 />
    <glyph glyph-name="glyph240" horiz-adv-x="382" 
 />
    <glyph glyph-name="glyph241" horiz-adv-x="382" 
 />
    <glyph glyph-name="glyph242" horiz-adv-x="382" 
 />
    <glyph glyph-name="glyph243" horiz-adv-x="382" 
 />
    <glyph glyph-name="glyph244" horiz-adv-x="382" 
 />
    <glyph glyph-name="glyph245" horiz-adv-x="382" 
 />
    <glyph glyph-name="glyph246" horiz-adv-x="382" 
 />
    <glyph glyph-name="glyph247" horiz-adv-x="382" 
 />
    <glyph glyph-name="glyph248" horiz-adv-x="382" 
 />
    <glyph glyph-name="glyph249" horiz-adv-x="382" 
 />
    <glyph glyph-name="glyph250" horiz-adv-x="382" 
 />
    <glyph glyph-name="glyph251" horiz-adv-x="382" 
 />
    <glyph glyph-name="glyph252" horiz-adv-x="382" 
 />
    <glyph glyph-name="glyph253" horiz-adv-x="382" 
 />
    <glyph glyph-name="glyph254" horiz-adv-x="382" 
 />
    <glyph glyph-name="glyph255" horiz-adv-x="382" 
 />
    <glyph glyph-name="glyph256" horiz-adv-x="382" 
 />
    <glyph glyph-name="glyph257" horiz-adv-x="382" 
 />
    <glyph glyph-name="nbspace" unicode="&#xa0;" horiz-adv-x="382" 
 />
    <glyph glyph-name="breve" unicode="&#xa2;" horiz-adv-x="1024" 
d="M226 1389h123q15 -65 52 -92t111 -27t111 27t52 92h123q-14 -84 -48 -132q-74 -106 -238 -106q-126 0 -195 57.5t-91 180.5z" />
    <glyph glyph-name="currency" unicode="&#xa4;" 
d="M705 966l152 152l84 -84l-152 -153q54 -84 54 -177q0 -94 -55 -180l151 -150l-85 -85l-150 151q-88 -56 -180 -56q-91 0 -179 54l-151 -151l-84 84l151 150q-57 88 -57 183q0 94 56 180l-152 152l84 84l152 -152q86 55 179 55q96 0 182 -57zM523 894q-84 0 -141 -63
q-49 -55 -49 -128q0 -84 63 -141q54 -49 124 -49q88 0 145 63q49 54 49 126q0 86 -63 143q-52 48 -128 49z" />
    <glyph glyph-name="brokenbar" unicode="&#xa6;" horiz-adv-x="1024" 
d="M444 1365h137v-678h-137v678zM444 314h137v-655h-137v655z" />
    <glyph glyph-name="Scedilla" unicode="&#xaa;" 
d="M927 1053l-147 -44q-34 101 -73 155q-67 90 -202 90q-103 0 -163 -57q-64 -61 -64 -155q0 -81 51 -132q32 -32 79.5 -56.5t171.5 -71.5q195 -75 276 -148q52 -48 82 -118.5t30 -145.5q0 -132 -81 -241q-111 -150 -346 -156l-22 -75q17 1 24 1q76 0 123 -31
q62 -40 62 -111t-60.5 -119.5t-149.5 -48.5t-183 57l23 66q88 -27 145 -27q94 0 94 66q0 54 -67 67q-15 2 -124 6l50 153q-335 46 -396 382l153 42q31 -134 90 -198q84 -92 233 -92q116 0 184 60q76 67 76 174q0 92 -58.5 151.5t-209.5 117.5q-145 56 -195 81.5t-97 66.5
q-55 48 -87.5 121.5t-32.5 149.5q0 162 123 267q109 93 280 93q160 0 258 -82t150 -258z" />
    <glyph glyph-name="sfthyphen" unicode="&#xad;" horiz-adv-x="593" 
d="M71 570h451v-123h-451v123z" />
    <glyph glyph-name="plusminus" unicode="&#xb1;" 
d="M590 745h352v-126h-352v-355h-133v355h-352v126h352v356h133v-356zM942 38h-837v126h837v-126z" />
    <glyph glyph-name="ogonek" unicode="&#xb2;" horiz-adv-x="1024" 
d="M675 0q-84 -80 -84 -151q0 -93 118 -93q34 0 78 6l18 -67q-68 -28 -141 -28q-100 0 -154 50q-48 44 -48 109q0 55 31 95.5t103 78.5h79z" />
    <glyph glyph-name="acute" unicode="&#xb4;" horiz-adv-x="1024" 
d="M414 1224l304 253l105 -111l-339 -215z" />
    <glyph glyph-name="mu" unicode="&#xb5;" horiz-adv-x="942" 
d="M658 1010h149v-1010h-140v151q-33 -99 -76.5 -139t-119.5 -40t-119.5 39.5t-76.5 139.5v-493h-140v1352h149v-461q0 -168 8.5 -238.5t34.5 -120.5q48 -92 145 -92q109 0 155 117q31 80 31 334v461z" />
    <glyph glyph-name="periodcentered" unicode="&#xb7;" horiz-adv-x="488" 
d="M151 636h186v-221h-186v221z" />
    <glyph glyph-name="cedilla" unicode="&#xb8;" horiz-adv-x="1024" 
d="M491 0h83l-27 -90h23q74 0 120 -30q59 -39 59 -107q0 -70 -58.5 -117t-145.5 -47q-86 0 -177 56l23 64q83 -26 140 -26q90 0 90 64q0 54 -65 66q-10 2 -118 7z" />
    <glyph glyph-name="scedilla" unicode="&#xba;" horiz-adv-x="802" 
d="M413 -27l-18 -63q15 1 23 1q75 0 120 -29q60 -40 60 -108q0 -70 -59 -117t-145 -47t-178 55l23 65q83 -26 140 -26q91 0 91 64q0 54 -65 66q-11 2 -118 7l43 136q-252 34 -295 284l139 31q16 -82 51 -122q63 -72 182 -72q89 0 143 44q59 48 59 122q0 63 -42.5 100.5
t-154.5 71.5q-117 36 -168.5 58.5t-86.5 51.5q-85 74 -85 190q0 57 25.5 115t68.5 100q92 87 235 87q127 0 205 -62.5t116 -194.5l-132 -33q-57 164 -197 164q-76 0 -125 -43.5t-49 -111.5q0 -71 57 -108q24 -16 46.5 -24.5t131.5 -41.5q136 -41 206 -91q104 -74 104 -210
q0 -90 -49 -163t-135 -111q-72 -31 -167 -35z" />
    <glyph glyph-name="hungarumlaut" unicode="&#xbd;" horiz-adv-x="1024" 
d="M565 1463l106 -109l-269 -203l-53 63zM825 1463l106 -109l-269 -203l-53 63z" />
    <glyph glyph-name="Acircumflex" unicode="&#xc2;" horiz-adv-x="1012" 
d="M416 1365h196l364 -1365h-166l-102 391h-410l-99 -391h-166zM673 523l-169 681l-172 -681h341zM181 1513l331 227l332 -227l-150 -26l-182 106l-181 -106z" />
    <glyph glyph-name="Abreve" unicode="&#xc3;" horiz-adv-x="1012" 
d="M416 1365h196l364 -1365h-166l-102 391h-410l-99 -391h-166zM673 523l-169 681l-172 -681h341zM218 1718h127q15 -54 53.5 -76.5t114.5 -22.5q75 0 113.5 22.5t53.5 76.5h128q-42 -221 -295 -221t-295 221z" />
    <glyph glyph-name="Ccedilla" unicode="&#xc7;" 
d="M997 976l-159 -37q-31 154 -68 211q-68 103 -193 103q-153 0 -231.5 -146t-78.5 -427q0 -290 93 -442q77 -126 219 -126q110 0 165.5 67.5t93.5 248.5l151 -38q-42 -219 -134 -313.5t-274 -104.5l-22 -74q17 1 25 1q76 0 123 -31q61 -40 61 -111t-60 -119.5t-149 -48.5
t-184 57l24 66q87 -27 144 -27q94 0 94 66q0 54 -67 67q-14 2 -123 6l49 152q-112 16 -188 72q-112 84 -168 261q-50 156 -50 372q0 417 185 598q116 114 297 114q176 0 277.5 -100t147.5 -317z" />
    <glyph glyph-name="Edieresis" unicode="&#xcb;" horiz-adv-x="942" 
d="M144 1365h742v-137h-577v-451h456v-137h-456v-503h593v-137h-758v1365zM356 1719q44 0 74.5 -30.5t30.5 -74.5t-31 -74.5t-75 -30.5q-42 0 -73 31t-31 73q0 45 30 75t75 31zM668 1719q44 0 74.5 -30.5t30.5 -74.5t-31 -74.5t-75 -30.5q-43 0 -73.5 31t-30.5 74
q0 44 30 74t75 31z" />
    <glyph glyph-name="Icircumflex" unicode="&#xce;" horiz-adv-x="453" 
d="M144 1365h165v-1365h-165v1365zM-50 1513l277 227l276 -227l-135 -26l-141 107l-141 -107z" />
    <glyph glyph-name="multiply" unicode="&#xd7;" 
d="M524 777l262 262l94 -94l-262 -262l262 -262l-94 -94l-262 262l-262 -262l-94 94l262 262l-262 262l94 94z" />
    <glyph glyph-name="Tcommaaccent" unicode="&#xde;" horiz-adv-x="733" 
d="M-43 1365h819v-140h-328v-1225h-165v1225h-326v140zM282 -116h169l-140 -376h-85z" />
    <glyph glyph-name="acircumflex" unicode="&#xe2;" horiz-adv-x="942" 
d="M268 753l-148 25q23 109 93 169q107 91 266 91q189 0 274 -116q32 -44 43 -105.5t11 -195.5v-297q0 -159 3 -212.5t15 -111.5h-143q-12 82 -12 180q-43 -83 -80 -123q-81 -85 -211 -85q-148 0 -230 97q-68 80 -68 206q0 134 76 224q110 129 367 129q56 0 134 -7v43
q0 118 -39 178q-46 70 -151 70q-157 0 -200 -159zM658 501q-66 13 -117 13q-302 0 -302 -243q0 -83 44 -128t125 -45q112 0 182.5 92t70.5 239q0 71 -3 72zM169 1191l322 243l321 -243l-145 -26l-176 126l-177 -126z" />
    <glyph glyph-name="abreve" unicode="&#xe3;" horiz-adv-x="942" 
d="M268 753l-148 25q23 109 93 169q107 91 266 91q189 0 274 -116q32 -44 43 -105.5t11 -195.5v-297q0 -159 3 -212.5t15 -111.5h-143q-12 82 -12 180q-43 -83 -80 -123q-81 -85 -211 -85q-148 0 -230 97q-68 80 -68 206q0 134 76 224q110 129 367 129q56 0 134 -7v43
q0 118 -39 178q-46 70 -151 70q-157 0 -200 -159zM658 501q-66 13 -117 13q-302 0 -302 -243q0 -83 44 -128t125 -45q112 0 182.5 92t70.5 239q0 71 -3 72zM205 1389h123q15 -65 52 -92t111 -27t111 27t52 92h123q-14 -84 -48 -132q-74 -106 -238 -106q-126 0 -195 57.5
t-91 180.5z" />
    <glyph glyph-name="ccedilla" unicode="&#xe7;" horiz-adv-x="838" 
d="M795 697l-152 -31q-20 128 -46 173q-43 73 -141 73q-113 0 -160 -100.5t-47 -340.5q0 -214 62 -299q54 -74 150 -74q108 0 151 99q20 46 31 146l152 -18q-21 -129 -54 -196t-93 -105q-70 -42 -176 -51l-18 -63q16 1 23 1q82 0 131 -37.5t49 -99.5q0 -70 -58.5 -117
t-145.5 -47q-86 0 -178 55l23 65q83 -26 140 -26q91 0 91 64q0 54 -65 66q-10 2 -118 7l45 135q-102 16 -167 76q-140 129 -140 444q0 542 376 542q157 0 237 -95q37 -44 57.5 -95.5t40.5 -150.5z" />
    <glyph glyph-name="edieresis" unicode="&#xeb;" horiz-adv-x="907" 
d="M837 486h-596q0 -389 235 -389q79 0 125.5 46t80.5 156l140 -32q-77 -295 -353 -295q-152 0 -246 91q-140 136 -140 428q0 270 124 423q101 124 269 124q113 0 200 -65q123 -93 152 -326q6 -48 9 -161zM668 609q-1 147 -54 224q-56 79 -154 79q-91 0 -144.5 -76.5
t-66.5 -226.5h419zM319 1377q43 0 72.5 -29.5t29.5 -72.5q0 -42 -30 -71.5t-73 -29.5q-41 0 -70.5 29.5t-29.5 71.5q0 43 29 72t72 30zM622 1377q42 0 71.5 -29.5t29.5 -72.5q0 -42 -30 -71.5t-73 -29.5q-41 0 -70.5 30t-29.5 71q0 43 29 72t73 30z" />
    <glyph glyph-name="icircumflex" unicode="&#xee;" horiz-adv-x="419" 
d="M141 1010h149v-1010h-149v1010zM-51 1191l267 243l267 -243l-138 -26l-129 120l-129 -120z" />
    <glyph glyph-name="tcommaaccent" unicode="&#xfe;" horiz-adv-x="523" 
d="M152 1246l149 15v-251h198v-123h-198v-508q0 -170 20 -214q29 -62 135 -62q38 0 92 10v-126q-81 -15 -139 -15q-174 0 -227 114q-30 67 -30 293v508h-146v123h146v236zM271 -116h164l-140 -359h-80z" />
    <glyph glyph-name="dotaccent" unicode="&#xff;" horiz-adv-x="1024" 
d="M511 1388q47 0 80.5 -33.5t33.5 -81.5q0 -47 -33.5 -80t-81.5 -33q-46 0 -79.5 33.5t-33.5 79.5q0 48 33 81t81 34z" />
    <glyph glyph-name="daggerdbl" unicode="&#x2021;" 
d="M453 1365h140v-401h315v-130h-315v-645h315v-130h-315v-401h-140v401h-315v130h315v645h-315v130h315v401z" />
    <glyph glyph-name="perthousand" unicode="&#x2030;" horiz-adv-x="2023" 
d="M369 1381q119 0 192 -97.5t73 -257.5q0 -172 -83 -271q-70 -83 -185 -83q-127 0 -198 101q-69 98 -69 254q0 173 83 271q71 83 187 83zM368 1276q-73 0 -106 -58.5t-33 -189.5q0 -132 32.5 -191.5t104.5 -59.5t105 59.5t33 190.5q0 130 -32 188.5t-104 60.5zM982 1365
h119l-683 -1365h-120zM1032 693q119 0 192 -97.5t73 -257.5q0 -173 -83 -271q-70 -83 -184 -83q-122 0 -195 97t-73 258q0 172 83 271q70 83 187 83zM1032 588q-74 0 -107 -59t-33 -190t32.5 -190.5t105.5 -59.5q72 0 104.5 59t32.5 190t-32 189.5t-103 60.5zM1660 693
q119 0 192 -97.5t73 -257.5q0 -172 -83 -271q-70 -83 -184 -83q-128 0 -199 102q-69 98 -69 253q0 172 83 271q70 83 187 83zM1660 588q-74 0 -107 -59t-33 -190t32.5 -190.5t105.5 -59.5q72 0 104.5 59.5t32.5 189.5t-32 189t-103 61z" />
    <glyph glyph-name="glyph288" horiz-adv-x="1024" 
d="M217 1718h127q15 -54 53.5 -76.5t114.5 -22.5q75 0 113.5 22.5t53.5 76.5h128q-42 -221 -295 -221t-295 221z" />
    <glyph glyph-name="glyph289" horiz-adv-x="1024" 
d="M511 1729q49 0 83.5 -34.5t34.5 -82.5q0 -49 -34.5 -83.5t-84.5 -34.5q-47 0 -81.5 34.5t-34.5 82.5q0 49 34 83t83 35z" />
    <glyph glyph-name="glyph290" horiz-adv-x="1024" 
d="M181 1513l331 227l332 -227l-150 -26l-182 106l-181 -106z" />
    <glyph glyph-name="glyph291" horiz-adv-x="1024" 
d="M722 1377l83 -48q-33 -61 -57 -91q-53 -64 -129 -64q-54 0 -132 55q-60 42 -90 42q-52 0 -94 -84l-83 49q74 160 187 160q54 0 128 -52q63 -44 101 -44q48 0 86 77z" />
    <glyph glyph-name="glyph292" horiz-adv-x="1024" 
d="M435 -116h169l-140 -376h-85z" />
    <glyph glyph-name="glyph293" horiz-adv-x="1024" 
d="M391 1593l370 171l75 -139l-395 -123z" />
    <glyph glyph-name="glyph294" horiz-adv-x="1024" 
d="M181 1714l150 26l181 -105l182 105l150 -26l-332 -227z" />
    <glyph glyph-name="glyph295" horiz-adv-x="1024" 
d="M514 1829q77 0 132 -56t55 -134t-55.5 -133.5t-133.5 -55.5t-133.5 55.5t-55.5 133.5q0 79 55.5 134.5t135.5 55.5zM513 1736q-41 0 -69 -28t-28 -69q0 -39 28.5 -67t67.5 -28t67.5 28t28.5 67q0 40 -27.5 68t-67.5 29z" />
    <glyph glyph-name="glyph296" horiz-adv-x="1024" 
d="M353 1719q44 0 74.5 -30.5t30.5 -74.5t-31 -74.5t-75 -30.5q-42 0 -73 31t-31 73q0 45 30 75t75 31zM665 1719q44 0 74.5 -30.5t30.5 -74.5t-31 -74.5t-75 -30.5q-43 0 -73.5 31t-30.5 74q0 44 30 74t75 31z" />
    <glyph glyph-name="glyph297" horiz-adv-x="1024" 
d="M440 -116h164l-140 -359h-80z" />
    <glyph glyph-name="glyph298" horiz-adv-x="1024" 
d="M190 1191l322 243l321 -243l-145 -26l-176 126l-177 -126z" />
    <glyph glyph-name="glyph299" horiz-adv-x="1024" 
d="M239 1333h547v-119h-547v119z" />
    <glyph glyph-name="glyph300" horiz-adv-x="1024" 
d="M568 1769l89 -130l-310 -157l-42 73zM902 1769l88 -130l-309 -157l-42 73z" />
    <glyph glyph-name="glyph301" horiz-adv-x="1024" 
d="M737 1706l88 -50q-47 -80 -93 -114t-109 -34q-53 0 -137 43q-65 33 -98 33q-56 0 -101 -74l-88 50q77 153 202 153q56 0 136 -41q68 -34 106 -34q30 0 50 14.5t44 53.5z" />
    <glyph glyph-name="glyph302" horiz-adv-x="1024" 
d="M230 1672h563v-122h-563v122z" />
    <glyph glyph-name="glyph303" horiz-adv-x="1024" 
d="M535 1486q77 0 130.5 -54t53.5 -130q0 -77 -54 -129q-56 -54 -132 -54q-74 0 -128 54t-54 128q0 77 53 130.5t131 54.5zM535 1395q-39 0 -66 -27t-27 -66q0 -38 27 -65t65 -27q39 0 66.5 27t27.5 65q0 39 -27 65.5t-66 27.5z" />
    <glyph glyph-name="glyph304" horiz-adv-x="1024" 
d="M708 1365h164l-140 -368h-80z" />
    <glyph glyph-name="glyph305" horiz-adv-x="1024" 
d="M573 1161h-164l139 359h81z" />
    <glyph glyph-name="glyph306" horiz-adv-x="1024" 
d="M650 1365h169l-140 -375h-85z" />
    <glyph glyph-name="glyph307" horiz-adv-x="382" 
 />
    </font>
</defs>
</svg>
