<?xml version="1.0" encoding="UTF-8"?>
<svg xmlns="http://www.w3.org/2000/svg" xmlns:xlink="http://www.w3.org/1999/xlink" version="1.2" >
<font id="FranklinGothicURWLig">
<font-face  font-family="FranklinGothicURWLig" units-per-em="2048" ascent="1811" descent="-400" font-style="normal" font-weight="400" font-stretch="normal" cap-height="1365" x-height="1010" underline-position="-201" underline-thickness="102" />
<missing-glyph  horiz-adv-x="512" d="M51 0 L51 1365 L461 1365 L461 0 L51 0 Z M410 51 L410 1314 L102 1314 L102 51 L410 51 Z " />
<glyph glyph-name="space" unicode="&#x20;" horiz-adv-x="512" d="" />
<glyph glyph-name="exclam" unicode="&#x21;" horiz-adv-x="543" d="M365 0 L177 0 L177 193 L365 193 L365 0 Z M303 303 L230 303 L167 1365 L371 1365 L303 303 Z " />
<glyph glyph-name="quotedbl" unicode="&#x22;" horiz-adv-x="583" d="M205 847 L133 847 L105 1365 L233 1365 L205 847 Z M450 847 L378 847 L350 1365 L478 1365 L450 847 Z " />
<glyph glyph-name="numbersign" unicode="&#x23;" horiz-adv-x="1201" d="M1130 951 L1115 863 L900 863 L842 538 L1057 538 L1042 450 L826 450 L747 0 L644 0 L724 450 L398 450 L318 0 L217 0 L297 449 L72 449 L88 538 L312 538 L369 863 L144 863 L160 951 L385 951 L458 1365 L560 1365 L487 951 L811 951 L885 1365 L987 1365 L913 951 L1130 951 Z M795 863 L471 863 L414 538 L739 538 L795 863 Z " />
<glyph glyph-name="dollar" unicode="&#x24;" horiz-adv-x="1201" d="M526 162 L526 668 Q409 696 331 739 Q179 823 179 998 Q179 1126 258 1214 Q348 1316 526 1333 L526 1511 L641 1511 L641 1336 Q787 1327 880 1272 Q971 1218 1025 1093 L923 1048 Q891 1142 820 1186 Q752 1227 641 1233 L641 760 L740 735 Q898 695 963 617 Q1040 527 1040 403 Q1040 271 948 181 Q835 69 641 58 L641 -138 L526 -138 L526 60 Q392 70 294 130 Q182 198 121 350 L216 403 Q303 186 526 162 Z M641 161 Q721 169 775 194 Q912 255 912 401 Q912 570 689 626 L641 638 L641 161 Z M526 1229 Q475 1224 435 1205 Q307 1149 307 1008 Q307 888 415 830 Q452 809 526 789 L526 1229 Z " />
<glyph glyph-name="percent" unicode="&#x25;" horiz-adv-x="1447" d="M380 0 L281 0 L1079 1365 L1175 1365 L380 0 Z M344 1379 Q484 1379 557 1264 Q612 1175 612 1032 Q612 875 546 785 Q473 685 347 685 Q268 685 204 730 Q82 815 82 1032 Q82 1189 148 1279 Q183 1328 240 1355 Q291 1379 344 1379 Z M349 1300 Q260 1300 213 1223 Q168 1150 168 1032 Q168 903 221 830 Q268 764 347 764 Q434 764 481 842 Q526 914 526 1032 Q526 1162 474 1234 Q426 1300 349 1300 Z M1111 677 Q1251 677 1324 562 Q1379 473 1379 330 Q1379 173 1313 83 Q1240 -17 1114 -17 Q1035 -17 971 28 Q849 113 849 330 Q849 487 915 577 Q951 626 1007 653 Q1057 677 1111 677 Z M1116 598 Q1028 598 980 520 Q935 448 935 330 Q935 200 988 128 Q1035 62 1114 62 Q1200 62 1248 140 Q1293 212 1293 330 Q1293 460 1240 532 Q1192 598 1116 598 Z " />
<glyph glyph-name="ampersand" unicode="&#x26;" horiz-adv-x="1241" d="M1200 125 L1200 16 Q1119 -13 1057 -13 Q980 -13 921 25 Q894 42 851 86 Q784 38 737 15 Q651 -28 521 -28 Q318 -28 205 80 Q152 130 120 201 Q82 282 82 365 Q82 503 169 602 Q214 653 282 695 Q337 730 412 770 Q262 957 262 1113 Q262 1224 333 1300 Q421 1396 582 1396 Q687 1396 748 1358 Q815 1316 850 1244 Q879 1184 879 1114 Q879 965 749 855 Q688 803 568 738 L877 265 Q957 360 1005 490 Q1046 599 1057 703 L1169 678 Q1147 560 1112 457 Q1065 319 1001 235 Q987 216 944 171 Q975 134 995 120 Q1028 98 1079 98 Q1122 98 1200 125 Z M788 179 L469 678 Q339 611 289 563 Q210 487 210 370 Q210 245 291 158 Q370 73 521 73 Q633 73 711 119 Q743 137 788 179 Z M511 824 Q625 884 675 937 Q751 1016 751 1116 Q751 1204 697 1252 Q648 1295 574 1295 Q483 1295 434 1234 Q390 1179 390 1098 Q390 1022 441 931 Q456 905 487 858 Q510 823 511 824 Z " />
<glyph glyph-name="quotesingle" unicode="&#x27;" horiz-adv-x="338" d="M205 847 L133 847 L105 1365 L233 1365 L205 847 Z " />
<glyph glyph-name="parenleft" unicode="&#x28;" horiz-adv-x="601" d="M488 -341 L399 -341 Q317 -224 270 -124 Q228 -34 195 72 Q128 293 128 501 Q128 739 214 995 Q257 1124 350 1286 Q361 1304 397 1365 L486 1365 Q406 1239 358 1108 Q251 820 251 508 Q251 212 364 -88 Q400 -182 488 -341 Z " />
<glyph glyph-name="parenright" unicode="&#x29;" horiz-adv-x="601" d="M113 1365 L202 1365 Q290 1239 345 1112 Q473 822 473 526 Q473 284 387 28 Q343 -101 251 -261 Q240 -280 204 -341 L115 -341 Q229 -161 292 71 Q350 281 350 508 Q350 812 237 1112 Q201 1208 113 1365 Z " />
<glyph glyph-name="asterisk" unicode="&#x2a;" horiz-adv-x="1201" d="M566 979 L532 1359 L669 1359 L640 978 L1002 1140 L1046 1014 L655 921 L907 636 L797 558 L602 885 L405 558 L295 636 L551 920 L155 1014 L200 1140 L566 979 Z " />
<glyph glyph-name="plus" unicode="&#x2b;" horiz-adv-x="1201" d="M137 737 L536 737 L536 1155 L666 1155 L666 737 L1065 737 L1065 625 L666 625 L666 207 L536 207 L536 625 L137 625 L137 737 Z " />
<glyph glyph-name="comma" unicode="&#x2c;" horiz-adv-x="522" d="M363 214 L363 21 L219 -239 L136 -239 L253 0 L160 0 L160 214 L363 214 Z " />
<glyph glyph-name="hyphen" unicode="&#x2d;" horiz-adv-x="522" d="M475 553 L475 462 L48 462 L48 553 L475 553 Z " />
<glyph glyph-name="period" unicode="&#x2e;" horiz-adv-x="522" d="M366 205 L366 0 L156 0 L156 205 L366 205 Z " />
<glyph glyph-name="slash" unicode="&#x2f;" horiz-adv-x="888" d="M30 -341 L-86 -341 L705 1365 L819 1365 L30 -341 Z " />
<glyph glyph-name="zero" unicode="0" horiz-adv-x="1201" d="M595 1396 Q752 1396 877 1302 Q1007 1206 1066 1016 Q1112 867 1112 683 Q1112 359 985 175 Q915 73 808 19 Q709 -31 600 -31 Q448 -31 324 62 Q194 159 135 349 Q89 498 89 683 Q89 1005 216 1190 Q286 1292 393 1346 Q492 1396 595 1396 Z M605 1294 Q415 1294 312 1117 Q217 952 217 683 Q217 514 260 373 Q310 211 409 136 Q495 71 600 71 Q706 71 792 136 Q891 211 941 373 Q984 513 984 683 Q984 851 941 992 Q891 1154 792 1229 Q706 1294 605 1294 Z " />
<glyph glyph-name="one" unicode="1" horiz-adv-x="1201" d="M1123 106 L1123 0 L212 0 L212 106 L619 106 L619 1242 Q464 1067 244 926 L244 1059 Q369 1133 487 1237 Q584 1322 640 1393 L745 1393 L745 106 L1123 106 Z " />
<glyph glyph-name="two" unicode="2" horiz-adv-x="1201" d="M1083 106 L1083 0 L132 0 L132 100 Q524 412 672 547 Q817 679 876 775 Q946 887 946 1000 Q946 1097 892 1175 Q808 1293 615 1293 Q439 1293 338 1183 Q276 1116 260 1030 Q256 1007 252 973 L132 1015 Q153 1109 183 1163 Q311 1395 616 1395 Q830 1395 953 1281 Q1002 1236 1033 1177 Q1075 1095 1075 1012 Q1075 835 911 635 Q765 457 302 106 L1083 106 Z " />
<glyph glyph-name="three" unicode="3" horiz-adv-x="1201" d="M381 662 L381 768 L552 768 Q699 768 783 815 Q837 845 870 899 Q907 959 907 1031 Q907 1138 830 1211 Q744 1293 590 1293 Q423 1293 325 1195 Q276 1147 240 1056 L121 1101 Q254 1395 596 1395 Q788 1395 906 1303 Q1035 1202 1035 1039 Q1035 928 970 844 Q901 754 768 722 Q883 703 953 652 Q1094 552 1094 382 Q1094 184 939 70 Q804 -30 575 -30 Q403 -30 300 23 Q150 99 66 289 L188 340 Q244 207 318 149 Q415 72 569 72 Q750 72 862 162 Q966 246 966 374 Q966 528 829 601 Q714 662 531 662 L381 662 Z " />
<glyph glyph-name="four" unicode="4" horiz-adv-x="1201" d="M1120 328 L893 328 L893 0 L767 0 L767 328 L61 328 L61 417 L695 1395 L893 1395 L893 434 L1120 434 L1120 328 Z M767 434 L767 1304 L209 434 L767 434 Z " />
<glyph glyph-name="five" unicode="5" horiz-adv-x="1201" d="M968 1365 L958 1251 L279 1251 L255 783 Q320 853 382 883 Q474 929 593 929 Q796 929 927 803 Q1063 671 1063 457 Q1063 247 930 113 Q787 -31 552 -31 Q344 -31 209 93 Q134 162 92 267 L194 325 Q239 218 299 162 Q396 71 553 71 Q730 71 834 180 Q935 287 935 459 Q935 621 845 720 Q747 827 587 827 Q435 827 327 720 Q290 684 244 613 L152 635 L180 1365 L968 1365 Z " />
<glyph glyph-name="six" unicode="6" horiz-adv-x="1201" d="M1101 1101 L975 1059 Q938 1151 887 1202 Q798 1291 678 1291 Q527 1291 411 1172 Q284 1042 253 762 Q249 723 244 634 Q299 753 378 814 Q497 903 661 903 Q869 903 999 757 Q1112 629 1112 451 Q1112 263 990 126 Q851 -31 630 -31 Q488 -31 372 37 Q252 108 187 260 Q116 428 116 653 Q116 993 275 1195 Q432 1396 689 1396 Q988 1396 1101 1101 Z M649 801 Q492 801 389 693 Q343 645 314 577 Q281 500 281 423 Q281 274 386 171 Q484 76 628 76 Q781 76 882 185 Q983 293 983 444 Q983 594 886 698 Q789 801 649 801 Z " />
<glyph glyph-name="seven" unicode="7" horiz-adv-x="1201" d="M533 0 L409 0 Q409 16 409 48 Q409 433 609 817 Q707 1005 888 1251 L160 1251 L175 1365 L1044 1365 L1044 1306 Q799 980 687 730 Q532 387 532 66 Q532 38 533 0 Z " />
<glyph glyph-name="eight" unicode="8" horiz-adv-x="1201" d="M769 728 Q923 664 1000 602 Q1119 506 1119 346 Q1119 158 951 54 Q815 -31 604 -31 Q394 -31 271 35 Q82 137 82 339 Q82 527 276 640 Q326 669 434 713 Q330 760 273 807 Q157 905 157 1056 Q157 1215 292 1310 Q413 1396 613 1396 Q822 1396 947 1298 Q1058 1212 1058 1064 Q1058 916 938 823 Q878 775 769 728 Z M617 785 Q750 831 823 883 Q930 961 930 1073 Q930 1180 836 1237 Q742 1294 608 1294 Q470 1294 377 1233 Q285 1173 285 1071 Q285 954 415 876 Q482 835 562 805 Q616 784 617 785 Z M574 656 Q397 586 329 538 Q210 454 210 331 Q210 242 272 176 Q326 120 429 92 Q509 71 602 71 Q757 71 869 133 Q991 201 991 325 Q991 441 887 514 Q823 559 744 591 Q579 658 574 656 Z " />
<glyph glyph-name="nine" unicode="9" horiz-adv-x="1201" d="M106 264 L232 305 Q270 214 321 163 Q410 74 529 74 Q681 74 796 193 Q923 323 955 603 Q959 642 963 730 Q909 612 829 551 Q711 462 547 462 Q339 462 209 608 Q96 736 96 914 Q96 1102 218 1239 Q357 1396 578 1396 Q720 1396 836 1328 Q956 1257 1021 1105 Q1092 937 1092 712 Q1092 372 933 170 Q775 -31 519 -31 Q220 -31 106 264 Z M580 1289 Q428 1289 326 1180 Q225 1073 225 921 Q225 772 322 667 Q417 564 559 564 Q716 564 819 672 Q865 721 894 788 Q927 865 927 942 Q927 1047 868 1138 Q823 1208 748 1248 Q672 1289 580 1289 Z " />
<glyph glyph-name="colon" unicode="&#x3a;" horiz-adv-x="522" d="M366 213 L366 0 L156 0 L156 213 L366 213 Z M366 1044 L366 833 L156 833 L156 1044 L366 1044 Z " />
<glyph glyph-name="semicolon" unicode="&#x3b;" horiz-adv-x="522" d="M362 1044 L362 837 L159 837 L159 1044 L362 1044 Z M362 214 L362 22 L216 -237 L136 -237 L252 0 L159 0 L159 214 L362 214 Z " />
<glyph glyph-name="less" unicode="&#x3c;" horiz-adv-x="1201" d="M1024 1129 L1024 1015 L260 674 L1024 332 L1024 219 L137 624 L137 724 L1024 1129 Z " />
<glyph glyph-name="equal" unicode="&#x3d;" horiz-adv-x="1201" d="M137 934 L1065 934 L1065 823 L137 823 L137 934 Z M137 596 L1065 596 L1065 485 L137 485 L137 596 Z " />
<glyph glyph-name="greater" unicode="&#x3e;" horiz-adv-x="1201" d="M177 219 L177 333 L941 674 L177 1015 L177 1129 L1064 724 L1064 623 L177 219 Z " />
<glyph glyph-name="question" unicode="&#x3f;" horiz-adv-x="1039" d="M536 170 L536 0 L350 0 L350 170 L536 170 Z M386 314 L386 418 Q386 541 409 599 Q426 642 451 667 Q483 699 545 730 L670 793 Q817 868 817 1027 Q817 1131 744 1204 Q656 1292 502 1292 Q339 1292 249 1196 Q187 1130 158 990 L44 1019 Q79 1173 149 1255 Q268 1396 502 1396 Q721 1396 844 1274 Q948 1171 948 1016 Q948 914 898 833 Q850 756 733 695 L644 650 Q555 604 528 555 Q504 514 504 418 L504 314 L386 314 Z " />
<glyph glyph-name="at" unicode="&#x40;" horiz-adv-x="1554" d="M1120 1043 L1064 575 Q1058 523 1058 486 Q1058 417 1131 417 Q1191 417 1241 478 Q1282 529 1308 616 Q1330 691 1330 772 Q1330 1007 1175 1150 Q1025 1288 807 1288 Q562 1288 394 1111 Q228 937 228 684 Q228 444 377 272 Q461 175 567 128 Q686 77 849 77 Q1056 77 1268 177 L1288 187 L1324 89 Q1086 -25 835 -25 Q488 -25 288 204 Q110 407 110 685 Q110 881 203 1044 Q295 1204 455 1297 Q617 1390 809 1390 Q994 1390 1145 1303 Q1287 1221 1366 1083 Q1444 946 1444 782 Q1444 620 1370 478 Q1313 370 1230 324 Q1173 292 1116 292 Q1058 292 1013 331 Q982 358 961 422 Q910 358 872 331 Q809 288 728 288 Q593 288 501 391 Q410 493 410 656 Q410 780 469 884 Q516 966 599 1015 Q677 1060 767 1060 Q865 1060 931 1001 Q957 979 992 928 L1005 1043 L1120 1043 Z M783 959 Q689 959 618 879 Q540 792 540 653 Q540 561 580 486 Q606 438 654 410 Q690 389 733 389 Q815 389 881 466 Q923 514 947 588 Q968 653 968 711 Q968 846 897 913 Q847 959 783 959 Z " />
<glyph glyph-name="A" unicode="A" horiz-adv-x="1032" d="M1025 0 L885 0 L749 428 L258 428 L123 0 L7 0 L445 1365 L587 1365 L1025 0 Z M714 538 L504 1201 L293 538 L714 538 Z " />
<glyph glyph-name="B" unicode="B" horiz-adv-x="1236" d="M181 0 L181 1365 L704 1365 Q862 1365 950 1319 Q1107 1235 1107 1045 Q1107 901 1014 812 Q958 759 868 735 Q983 701 1043 646 Q1149 547 1149 381 Q1149 150 967 53 Q868 0 676 0 L181 0 Z M314 114 L704 114 Q859 114 940 194 Q1014 267 1014 390 Q1014 536 910 611 Q826 670 666 670 L314 670 L314 114 Z M314 781 L610 781 Q743 781 801 798 Q895 825 937 898 Q972 959 972 1030 Q972 1251 678 1251 L314 1251 L314 781 Z " />
<glyph glyph-name="C" unicode="C" horiz-adv-x="1186" d="M1146 979 L1018 944 Q986 1064 926 1146 Q874 1217 790 1255 Q723 1286 644 1286 Q495 1286 390 1187 Q301 1103 258 952 Q223 830 223 680 Q223 433 318 271 Q432 79 641 79 Q838 79 952 260 Q999 333 1027 451 L1146 412 Q1109 266 1039 167 Q899 -31 642 -31 Q392 -31 244 156 Q88 354 88 684 Q88 973 206 1157 Q282 1275 399 1337 Q510 1396 645 1396 Q866 1396 1007 1244 Q1103 1139 1146 979 Z " />
<glyph glyph-name="D" unicode="D" horiz-adv-x="1316" d="M181 1365 L612 1365 Q749 1365 833 1340 Q1061 1272 1164 1030 Q1228 881 1228 683 Q1228 312 1019 128 Q901 24 729 4 Q690 0 612 0 L181 0 L181 1365 Z M314 1251 L314 114 L612 114 Q845 114 963 247 Q1093 392 1093 683 Q1093 1004 935 1146 Q820 1251 612 1251 L314 1251 Z " />
<glyph glyph-name="E" unicode="E" horiz-adv-x="1124" d="M1062 114 L1062 0 L181 0 L181 1365 L1038 1365 L1038 1251 L314 1251 L314 775 L886 775 L886 665 L314 665 L314 114 L1062 114 Z " />
<glyph glyph-name="F" unicode="F" horiz-adv-x="1040" d="M314 0 L181 0 L181 1365 L1003 1365 L1003 1251 L314 1251 L314 787 L898 787 L898 677 L314 677 L314 0 Z " />
<glyph glyph-name="G" unicode="G" horiz-adv-x="1330" d="M1180 682 L1180 -27 L1077 -27 L1040 164 Q905 -31 657 -31 Q368 -31 215 201 Q89 393 89 682 Q89 952 196 1131 Q352 1395 669 1395 Q1050 1395 1168 1011 L1033 970 Q998 1089 943 1157 Q840 1285 655 1285 Q432 1285 323 1103 Q224 936 224 689 Q224 426 332 257 Q387 171 478 123 Q560 79 659 79 Q827 79 928 198 Q1035 322 1033 568 L667 568 L667 682 L1180 682 Z " />
<glyph glyph-name="H" unicode="H" horiz-adv-x="1318" d="M1137 0 L1004 0 L1004 681 L314 681 L314 0 L181 0 L181 1365 L314 1365 L314 795 L1004 795 L1004 1365 L1137 1365 L1137 0 Z " />
<glyph glyph-name="I" unicode="I" horiz-adv-x="495" d="M314 0 L181 0 L181 1365 L314 1365 L314 0 Z " />
<glyph glyph-name="J" unicode="J" horiz-adv-x="767" d="M599 1365 L599 413 Q599 287 582 221 Q550 94 442 27 Q348 -31 202 -31 Q127 -31 44 -11 L0 0 L0 110 Q103 79 196 79 Q383 79 438 199 Q466 260 466 413 L466 1365 L599 1365 Z " />
<glyph glyph-name="K" unicode="K" horiz-adv-x="1227" d="M623 753 L314 373 L314 0 L181 0 L181 1365 L314 1365 L314 535 L980 1365 L1120 1365 L708 858 L1220 0 L1073 0 L623 753 Z " />
<glyph glyph-name="L" unicode="L" horiz-adv-x="976" d="M969 114 L969 0 L181 0 L181 1365 L314 1365 L314 114 L969 114 Z " />
<glyph glyph-name="M" unicode="M" horiz-adv-x="1668" d="M1488 0 L1359 0 L1359 1190 L889 0 L779 0 L300 1190 L300 0 L181 0 L181 1365 L372 1365 L843 167 L1300 1365 L1488 1365 L1488 0 Z " />
<glyph glyph-name="N" unicode="N" horiz-adv-x="1354" d="M997 0 L307 1182 L307 0 L181 0 L181 1365 L358 1365 L1047 183 L1047 1365 L1173 1365 L1173 0 L997 0 Z " />
<glyph glyph-name="O" unicode="O" horiz-adv-x="1279" d="M639 1396 Q899 1396 1047 1192 Q1191 994 1191 673 Q1191 372 1047 173 Q899 -31 640 -31 Q381 -31 233 173 Q89 372 89 683 Q89 998 233 1192 Q384 1396 639 1396 Z M640 1286 Q450 1286 336 1123 Q224 963 224 683 Q224 403 336 242 Q449 79 639 79 Q831 79 944 242 Q1056 403 1056 691 Q1056 967 944 1123 Q827 1286 640 1286 Z " />
<glyph glyph-name="P" unicode="P" horiz-adv-x="1098" d="M181 1365 L627 1365 Q816 1365 927 1271 Q1057 1161 1057 970 Q1057 755 905 638 Q800 557 641 557 L314 557 L314 0 L181 0 L181 1365 Z M314 670 L628 670 Q750 670 824 728 Q922 805 922 956 Q922 1099 840 1178 Q765 1251 631 1251 L314 1251 L314 670 Z " />
<glyph glyph-name="Q" unicode="Q" horiz-adv-x="1279" d="M657 -31 Q636 -31 635 -31 Q381 -31 233 173 Q89 372 89 682 Q89 993 233 1192 Q381 1396 640 1396 Q899 1396 1047 1192 Q1191 993 1191 682 Q1191 421 1091 243 Q977 38 779 -14 L779 -21 Q779 -84 792 -119 Q829 -216 986 -216 Q1052 -216 1132 -198 L1132 -311 Q1047 -326 978 -326 Q668 -326 657 -31 Z M639 1286 Q450 1286 336 1123 Q224 963 224 683 Q224 403 336 242 Q449 79 640 79 Q831 79 944 242 Q1056 403 1056 674 Q1056 967 944 1123 Q827 1286 639 1286 Z " />
<glyph glyph-name="R" unicode="R" horiz-adv-x="1215" d="M704 604 L314 604 L314 0 L181 0 L181 1365 L691 1365 Q891 1365 994 1272 Q1098 1178 1098 999 Q1098 773 926 667 Q883 641 838 626 L1122 0 L974 0 L704 604 Z M314 717 L680 717 Q809 717 876 776 Q963 851 963 996 Q963 1139 871 1205 Q807 1251 701 1251 L314 1251 L314 717 Z " />
<glyph glyph-name="S" unicode="S" horiz-adv-x="1133" d="M55 344 L186 372 Q219 263 293 193 Q410 82 592 82 Q772 82 874 187 Q944 259 944 362 Q944 468 872 530 Q820 574 722 601 L455 674 Q354 701 312 721 Q118 814 118 1026 Q118 1194 250 1298 Q370 1393 560 1393 Q806 1393 939 1242 Q998 1175 1028 1075 L907 1041 Q880 1132 823 1188 Q724 1283 562 1283 Q433 1283 349 1223 Q253 1155 253 1038 Q253 928 338 867 Q384 835 483 807 L762 731 Q920 687 996 606 Q1079 517 1079 377 Q1079 215 971 105 Q840 -28 586 -28 Q313 -28 172 130 Q99 213 55 344 Z " />
<glyph glyph-name="T" unicode="T" horiz-adv-x="976" d="M955 1365 L955 1251 L554 1251 L554 0 L421 0 L421 1251 L20 1251 L20 1365 L955 1365 Z " />
<glyph glyph-name="U" unicode="U" horiz-adv-x="1250" d="M157 1365 L290 1365 L290 467 Q290 340 303 284 Q328 176 420 125 Q502 79 624 79 Q854 79 931 211 Q974 285 974 467 L974 1365 L1093 1365 L1093 467 Q1093 350 1081 287 Q1022 -31 622 -31 Q306 -31 204 168 Q169 236 161 347 Q157 398 157 476 L157 1365 Z " />
<glyph glyph-name="V" unicode="V" horiz-adv-x="1093" d="M1086 1365 L608 0 L487 0 L7 1365 L144 1365 L559 199 L965 1365 L1086 1365 Z " />
<glyph glyph-name="W" unicode="W" horiz-adv-x="1592" d="M1551 1365 L1240 0 L1113 0 L802 1086 L510 0 L374 0 L41 1365 L175 1365 L454 204 L766 1365 L848 1365 L1181 204 L1435 1365 L1551 1365 Z " />
<glyph glyph-name="X" unicode="X" horiz-adv-x="1017" d="M580 751 L1015 0 L865 0 L503 624 L126 0 L2 0 L442 729 L74 1365 L224 1365 L519 856 L827 1365 L951 1365 L580 751 Z " />
<glyph glyph-name="Y" unicode="Y" horiz-adv-x="1003" d="M563 580 L563 0 L430 0 L430 580 L-20 1365 L126 1365 L513 689 L907 1365 L1024 1365 L563 580 Z " />
<glyph glyph-name="Z" unicode="Z" horiz-adv-x="1021" d="M795 1253 L77 1253 L77 1365 L967 1365 L967 1293 L183 113 L980 113 L980 0 L41 0 L41 122 L795 1253 Z " />
<glyph glyph-name="bracketleft" unicode="&#x5b;" horiz-adv-x="601" d="M291 1283 L291 -259 L533 -259 L533 -341 L175 -341 L175 1365 L533 1365 L533 1283 L291 1283 Z " />
<glyph glyph-name="backslash" unicode="&#x5c;" horiz-adv-x="905" d="M861 -341 L72 1365 L174 1365 L965 -341 L861 -341 Z " />
<glyph glyph-name="bracketright" unicode="&#x5d;" horiz-adv-x="601" d="M309 1283 L67 1283 L67 1365 L427 1365 L427 -341 L67 -341 L67 -259 L309 -259 L309 1283 Z " />
<glyph glyph-name="asciicircum" unicode="&#x5e;" horiz-adv-x="1024" d="M960 766 L833 766 L511 1278 L191 766 L65 766 L438 1368 L587 1368 L960 766 Z " />
<glyph glyph-name="underscore" unicode="&#x5f;" horiz-adv-x="1024" d="M0 -150 L1024 -150 L1024 -252 L0 -252 L0 -150 Z " />
<glyph glyph-name="grave" unicode="&#x60;" horiz-adv-x="1024" d="M589 1171 L175 1366 L234 1470 L632 1238 L589 1171 Z " />
<glyph glyph-name="a" unicode="a" horiz-adv-x="1081" d="M938 0 L814 0 Q802 84 799 171 Q747 91 696 51 Q595 -28 439 -28 Q291 -28 199 40 Q82 126 82 281 Q82 427 194 518 Q324 624 589 624 Q640 624 799 618 Q800 656 800 669 Q800 804 752 862 Q690 937 522 937 Q373 937 294 871 Q245 830 229 744 L108 767 Q124 845 153 887 Q257 1038 524 1038 Q762 1038 857 916 Q920 835 920 656 L920 192 Q920 79 938 0 Z M799 513 Q641 523 576 523 Q408 523 312 464 Q210 400 210 279 Q210 191 272 133 Q335 73 440 73 Q621 73 728 223 Q799 323 799 476 L799 513 Z " />
<glyph glyph-name="b" unicode="b" horiz-adv-x="1088" d="M220 0 L157 0 L157 1365 L279 1365 L279 834 Q328 918 377 959 Q471 1038 603 1038 Q798 1038 908 879 Q1007 735 1007 513 Q1007 273 890 119 Q779 -28 590 -28 Q444 -28 344 58 Q307 90 267 150 L220 0 Z M279 530 L279 456 Q279 306 332 216 Q373 147 437 110 Q499 73 572 73 Q668 73 745 137 Q807 189 842 282 Q879 381 879 505 Q879 725 786 840 Q707 937 584 937 Q479 937 400 865 Q331 801 299 682 Q279 609 279 530 Z " />
<glyph glyph-name="c" unicode="c" horiz-adv-x="955" d="M887 689 L771 662 Q761 754 725 816 Q655 937 512 937 Q376 937 295 827 Q210 712 210 517 Q210 327 283 203 Q360 73 508 73 Q642 73 716 191 Q757 257 771 348 L887 321 Q868 226 844 178 Q743 -28 512 -28 Q308 -28 194 126 Q82 279 82 506 Q82 742 206 894 Q323 1038 516 1038 Q737 1038 838 845 Q869 785 887 689 Z " />
<glyph glyph-name="d" unicode="d" horiz-adv-x="1088" d="M809 859 L809 1365 L931 1365 L931 0 L823 0 L823 178 Q770 90 718 49 Q622 -28 488 -28 Q304 -28 193 118 Q81 265 81 496 Q81 736 196 887 Q310 1038 497 1038 Q691 1038 809 859 Z M809 456 L809 553 Q809 704 756 793 Q715 862 651 900 Q589 937 517 937 Q420 937 343 873 Q281 821 246 728 Q209 629 209 505 Q209 305 299 183 Q330 141 377 112 Q442 73 517 73 Q615 73 690 138 Q809 239 809 456 Z " />
<glyph glyph-name="e" unicode="e" horiz-adv-x="1062" d="M980 501 L210 501 Q211 343 267 244 Q363 73 553 73 Q685 73 773 164 Q822 214 847 293 L960 263 Q937 184 886 123 Q760 -28 548 -28 Q332 -28 203 123 Q82 264 82 494 Q82 754 225 902 Q357 1038 555 1038 Q715 1038 825 939 Q929 845 963 689 Q977 624 980 501 Z M847 597 Q837 721 797 795 Q719 937 552 937 Q390 937 292 808 Q236 733 215 597 L847 597 Z " />
<glyph glyph-name="f" unicode="f" horiz-adv-x="588" d="M551 1010 L551 914 L309 914 L309 0 L187 0 L187 914 L14 914 L14 1010 L186 1010 L188 1074 Q191 1234 246 1304 Q319 1395 469 1395 Q514 1395 609 1383 L609 1286 Q540 1296 495 1296 Q373 1296 334 1223 Q320 1198 313 1150 Q307 1107 309 1083 Q309 1080 309 1078 L309 1010 L551 1010 Z " />
<glyph glyph-name="g" unicode="g" horiz-adv-x="988" d="M948 1151 L951 1054 Q930 1055 921 1055 Q844 1055 809 1017 Q779 984 769 920 Q854 810 854 674 Q854 504 740 400 Q644 312 490 312 Q432 312 347 337 Q244 312 244 231 Q244 173 289 150 Q324 132 398 131 L682 126 Q814 124 885 88 Q1009 25 1009 -108 Q1009 -194 949 -260 Q884 -331 741 -366 Q639 -391 512 -391 Q312 -391 189 -328 Q61 -263 61 -127 Q61 22 218 72 Q116 118 116 227 Q116 353 246 396 Q120 518 120 680 Q120 839 226 939 Q330 1038 497 1038 Q608 1038 702 984 Q724 1083 767 1121 Q808 1156 897 1156 Q922 1156 948 1151 Z M485 937 Q368 937 302 852 Q248 783 248 677 Q248 554 316 482 Q381 413 486 413 Q595 413 660 487 Q726 563 726 673 Q726 797 656 868 Q590 937 485 937 Z M332 34 Q271 10 240 -14 Q189 -55 189 -120 Q189 -290 516 -290 Q880 -290 880 -111 Q880 -23 794 7 Q747 23 634 24 L405 28 Q397 28 371 30 Q358 32 332 34 Z " />
<glyph glyph-name="h" unicode="h" horiz-adv-x="1070" d="M926 0 L804 0 L804 641 Q804 789 761 855 Q708 937 595 937 Q436 937 344 797 Q279 698 279 555 L279 0 L157 0 L157 1365 L279 1365 L279 819 Q390 1038 607 1038 Q787 1038 872 899 Q926 812 926 639 L926 0 Z " />
<glyph glyph-name="i" unicode="i" horiz-adv-x="454" d="M289 1010 L289 0 L167 0 L167 1010 L289 1010 Z M297 1365 L297 1222 L157 1222 L157 1365 L297 1365 Z " />
<glyph glyph-name="j" unicode="j" horiz-adv-x="453" d="M302 1365 L302 1222 L148 1222 L148 1365 L302 1365 Z M169 1010 L290 1010 L290 -1 Q290 -157 232 -230 Q159 -321 9 -321 Q-33 -321 -132 -309 L-132 -213 Q-63 -222 -17 -222 Q105 -222 144 -149 Q169 -101 169 -5 L169 1010 Z " />
<glyph glyph-name="k" unicode="k" horiz-adv-x="948" d="M934 0 L809 0 L487 565 L279 334 L279 0 L157 0 L157 1365 L279 1365 L279 478 L760 1010 L889 1010 L562 648 L934 0 Z " />
<glyph glyph-name="l" unicode="l" horiz-adv-x="436" d="M279 0 L157 0 L157 1365 L279 1365 L279 0 Z " />
<glyph glyph-name="m" unicode="m" horiz-adv-x="1579" d="M858 0 L736 0 L736 641 Q736 788 699 854 Q652 937 554 937 Q416 937 336 797 Q279 698 279 555 L279 0 L157 0 L157 1010 L265 1010 L265 819 Q305 902 347 945 Q438 1038 568 1038 Q733 1038 809 899 Q831 860 843 805 Q880 883 904 914 Q999 1038 1147 1038 Q1311 1038 1388 899 Q1436 812 1436 639 L1436 0 L1314 0 L1314 641 Q1314 788 1277 854 Q1230 937 1133 937 Q994 937 915 797 Q858 698 858 560 L858 0 Z " />
<glyph glyph-name="n" unicode="n" horiz-adv-x="1070" d="M926 0 L804 0 L804 641 Q804 789 761 855 Q708 937 595 937 Q436 937 344 797 Q279 698 279 555 L279 0 L157 0 L157 1010 L279 1010 L279 819 Q390 1038 607 1038 Q787 1038 872 899 Q926 812 926 639 L926 0 Z " />
<glyph glyph-name="o" unicode="o" horiz-adv-x="1038" d="M519 1038 Q654 1038 758 964 Q873 883 924 723 Q956 622 956 505 Q956 285 848 134 Q786 48 685 4 Q610 -28 525 -28 Q306 -28 190 134 Q82 285 82 507 Q82 728 190 876 Q308 1038 519 1038 Z M519 937 Q417 937 340 873 Q210 765 210 505 Q210 320 282 203 Q321 140 389 104 Q448 73 514 73 Q675 73 756 203 Q828 320 828 507 Q828 693 756 807 Q673 937 519 937 Z " />
<glyph glyph-name="p" unicode="p" horiz-adv-x="1088" d="M279 -341 L157 -341 L157 1010 L265 1010 L265 820 Q317 910 368 953 Q466 1038 603 1038 Q798 1038 908 879 Q1007 735 1007 512 Q1007 273 892 119 Q783 -28 593 -28 Q397 -28 279 137 L279 -341 Z M279 530 L279 456 Q279 306 332 216 Q373 147 437 110 Q499 73 572 73 Q668 73 745 137 Q807 189 842 282 Q879 381 879 505 Q879 725 786 840 Q707 937 584 937 Q479 937 400 865 Q331 801 299 682 Q279 609 279 530 Z " />
<glyph glyph-name="q" unicode="q" horiz-adv-x="1088" d="M868 1030 L931 1030 L931 -341 L809 -341 L809 176 Q760 92 711 51 Q617 -28 485 -28 Q290 -28 180 131 Q81 274 81 497 Q81 737 198 891 Q309 1038 496 1038 Q639 1038 735 952 Q769 921 809 859 L868 1030 Z M809 480 L809 553 Q809 704 756 793 Q715 862 651 900 Q589 937 517 937 Q420 937 343 873 Q281 821 246 728 Q209 629 209 505 Q209 285 302 170 Q381 73 504 73 Q609 73 688 145 Q757 209 789 328 Q809 401 809 480 Z " />
<glyph glyph-name="r" unicode="r" horiz-adv-x="662" d="M645 1031 L645 931 Q602 938 574 938 Q438 938 358 818 Q279 701 279 552 L279 0 L157 0 L157 1010 L265 1010 L265 776 Q322 927 398 984 Q469 1038 574 1038 Q609 1038 645 1031 Z " />
<glyph glyph-name="s" unicode="s" horiz-adv-x="958" d="M41 276 L160 303 Q182 195 258 138 Q347 70 493 70 Q628 70 709 131 Q775 181 775 266 Q775 348 713 392 Q665 426 566 444 L360 482 Q83 534 83 749 Q83 903 214 982 Q312 1041 459 1041 Q787 1041 861 773 L748 747 Q725 825 671 872 Q590 940 452 940 Q350 940 283 895 Q211 847 211 759 Q211 633 381 603 L568 569 Q696 546 749 521 Q904 450 904 285 Q904 138 787 51 Q677 -31 482 -31 Q285 -31 169 62 Q104 114 70 188 Q57 218 41 276 Z " />
<glyph glyph-name="t" unicode="t" horiz-adv-x="612" d="M305 914 L305 285 Q305 178 337 129 Q378 68 492 68 Q538 68 606 77 L606 -19 Q509 -31 466 -31 Q300 -31 230 77 Q184 148 184 289 L184 914 L-20 914 L-20 1010 L177 1010 L177 1259 L305 1271 L305 1010 L543 1010 L543 914 L305 914 Z " />
<glyph glyph-name="u" unicode="u" horiz-adv-x="1070" d="M143 1010 L265 1010 L265 369 Q265 221 308 155 Q361 73 474 73 Q633 73 725 213 Q790 312 790 455 L790 1010 L912 1010 L912 0 L790 0 L790 191 Q678 -28 462 -28 Q282 -28 197 111 Q143 198 143 371 L143 1010 Z " />
<glyph glyph-name="v" unicode="v" horiz-adv-x="895" d="M882 1010 L527 0 L380 0 L14 1010 L137 1010 L460 121 L768 1010 L882 1010 Z " />
<glyph glyph-name="w" unicode="w" horiz-adv-x="1327" d="M1280 1010 L990 0 L903 0 L662 771 L440 0 L347 0 L48 1010 L170 1010 L402 216 L627 1010 L706 1010 L946 216 L1165 1010 L1280 1010 Z " />
<glyph glyph-name="x" unicode="x" horiz-adv-x="843" d="M423 633 L671 1010 L783 1010 L479 548 L836 0 L693 0 L407 438 L119 0 L7 0 L351 524 L34 1010 L178 1010 L423 633 Z " />
<glyph glyph-name="y" unicode="y" horiz-adv-x="839" d="M839 1010 L427 -107 Q386 -220 329 -280 Q256 -358 129 -358 Q76 -358 7 -339 L7 -239 Q77 -257 125 -257 Q212 -257 262 -194 Q299 -148 327 -74 L361 18 L19 1010 L146 1010 L422 182 L726 1010 L839 1010 Z " />
<glyph glyph-name="z" unicode="z" horiz-adv-x="817" d="M602 914 L79 914 L79 1010 L776 1010 L776 963 L182 96 L776 96 L776 0 L41 0 L41 96 L602 914 Z " />
<glyph glyph-name="braceleft" unicode="&#x7b;" horiz-adv-x="601" d="M261 510 Q316 485 341 455 Q387 399 387 285 L387 -65 Q387 -176 428 -219 Q464 -256 571 -259 L571 -341 Q553 -341 547 -341 Q402 -341 344 -285 Q275 -217 275 -47 L275 286 Q275 392 233 435 Q207 461 157 475 L157 551 Q205 565 232 592 Q275 635 275 735 L275 1100 Q275 1236 334 1297 Q399 1365 542 1365 Q551 1365 571 1365 L571 1283 Q458 1280 420 1232 Q387 1191 387 1097 L387 730 Q387 615 342 563 Q317 535 261 510 Z " />
<glyph glyph-name="bar" unicode="&#x7c;" horiz-adv-x="1024" d="M455 1365 L568 1365 L568 -341 L455 -341 L455 1365 Z " />
<glyph glyph-name="braceright" unicode="&#x7d;" horiz-adv-x="601" d="M340 514 Q284 539 260 569 Q213 625 213 739 L213 1089 Q213 1199 172 1243 Q136 1281 30 1283 L30 1365 Q44 1365 47 1365 Q199 1365 256 1309 Q326 1241 326 1071 L326 739 Q326 631 368 589 Q394 564 444 549 L444 473 Q396 459 368 432 Q326 389 326 289 L326 -76 Q326 -212 267 -273 Q201 -341 57 -341 Q47 -341 30 -341 L30 -259 Q143 -255 180 -208 Q213 -166 213 -73 L213 294 Q213 409 259 461 Q283 489 340 514 Z " />
<glyph glyph-name="asciitilde" unicode="&#x7e;" horiz-adv-x="1201" d="M181 544 L110 589 Q162 693 220 748 Q286 810 382 810 Q467 810 616 735 Q753 665 822 665 Q909 665 976 750 Q996 775 1019 814 L1091 771 Q968 554 828 554 Q752 554 670 593 Q638 608 594 631 Q461 700 368 700 Q322 700 288 676 Q241 643 181 544 Z " />
<glyph glyph-name="Adieresis" unicode="&#xc4;" horiz-adv-x="1032" d="M1025 0 L885 0 L749 428 L258 428 L123 0 L7 0 L445 1365 L587 1365 L1025 0 Z M714 538 L504 1201 L293 538 L714 538 Z M672 1728 Q715 1728 745 1693 Q770 1664 770 1628 Q770 1585 737 1555 Q707 1527 670 1527 Q626 1527 594 1563 Q569 1591 569 1629 Q569 1669 597 1697 Q628 1728 672 1728 Z M359 1724 Q401 1724 431 1690 Q456 1662 456 1627 Q456 1585 423 1554 Q394 1527 357 1527 Q314 1527 284 1561 Q259 1589 259 1626 Q259 1667 286 1694 Q316 1724 359 1724 Z " />
<glyph glyph-name="Aring" unicode="&#xc5;" horiz-adv-x="1032" d="M1025 0 L885 0 L749 428 L258 428 L123 0 L7 0 L445 1365 L587 1365 L1025 0 Z M714 538 L504 1201 L293 538 L714 538 Z M519 1811 Q593 1811 643 1754 Q691 1700 691 1631 Q691 1554 633 1501 Q582 1456 515 1456 Q436 1456 381 1516 Q335 1567 335 1634 Q335 1709 389 1759 Q444 1811 519 1811 Z M515 1727 Q472 1727 443 1694 Q417 1666 417 1632 Q417 1591 450 1562 Q479 1536 515 1536 Q556 1536 585 1568 Q609 1594 609 1631 Q609 1673 577 1702 Q550 1727 515 1727 Z " />
<glyph glyph-name="Ccedilla" unicode="&#xc7;" horiz-adv-x="1186" d="M652 -31 L627 -110 Q660 -107 679 -107 Q752 -107 798 -149 Q839 -187 839 -243 Q839 -326 764 -368 Q707 -400 616 -400 Q516 -400 438 -356 L461 -289 Q534 -323 604 -323 Q671 -323 706 -298 Q736 -276 736 -243 Q736 -171 614 -171 Q574 -171 525 -178 L576 -27 Q409 -8 296 99 Q88 295 88 684 Q88 973 206 1157 Q282 1275 399 1337 Q510 1396 645 1396 Q866 1396 1007 1244 Q1103 1139 1146 979 L1018 944 Q986 1064 926 1146 Q873 1217 790 1255 Q723 1286 644 1286 Q495 1286 390 1187 Q301 1103 258 952 Q223 830 223 680 Q223 433 318 271 Q432 79 641 79 Q838 79 952 260 Q999 333 1027 451 L1146 412 Q1097 216 989 107 Q856 -27 652 -31 Z " />
<glyph glyph-name="Eacute" unicode="&#xc9;" horiz-adv-x="1124" d="M1062 114 L1062 0 L181 0 L181 1365 L1038 1365 L1038 1251 L314 1251 L314 775 L886 775 L886 665 L314 665 L314 114 L1062 114 Z M852 1789 L911 1685 L497 1490 L454 1557 L852 1789 Z " />
<glyph glyph-name="Ntilde" unicode="&#xd1;" horiz-adv-x="1354" d="M997 0 L307 1182 L307 0 L181 0 L181 1365 L358 1365 L1047 183 L1047 1365 L1173 1365 L1173 0 L997 0 Z M417 1534 L333 1584 Q370 1627 399 1652 Q466 1707 553 1707 Q607 1707 679 1678 L738 1654 Q793 1631 828 1631 Q878 1631 944 1684 L1015 1626 Q915 1530 827 1530 Q776 1530 721 1553 L652 1581 Q590 1606 549 1606 Q480 1606 417 1534 Z " />
<glyph glyph-name="Odieresis" unicode="&#xd6;" horiz-adv-x="1279" d="M639 1396 Q899 1396 1047 1192 Q1191 994 1191 673 Q1191 372 1047 173 Q899 -31 640 -31 Q381 -31 233 173 Q89 372 89 683 Q89 998 233 1192 Q384 1396 639 1396 Z M640 1286 Q450 1286 336 1123 Q224 963 224 683 Q224 403 336 242 Q449 79 639 79 Q831 79 944 242 Q1056 403 1056 691 Q1056 967 944 1123 Q827 1286 640 1286 Z M795 1728 Q838 1728 868 1693 Q893 1664 893 1628 Q893 1585 860 1555 Q830 1527 793 1527 Q749 1527 717 1563 Q692 1591 692 1629 Q692 1669 720 1697 Q751 1728 795 1728 Z M482 1724 Q524 1724 554 1690 Q579 1662 579 1627 Q579 1585 546 1554 Q517 1527 480 1527 Q437 1527 407 1561 Q382 1589 382 1626 Q382 1667 409 1694 Q439 1724 482 1724 Z " />
<glyph glyph-name="Udieresis" unicode="&#xdc;" horiz-adv-x="1250" d="M157 1365 L290 1365 L290 467 Q290 340 303 284 Q328 176 420 125 Q502 79 624 79 Q854 79 931 211 Q974 285 974 467 L974 1365 L1093 1365 L1093 467 Q1093 350 1081 287 Q1022 -31 622 -31 Q306 -31 204 168 Q169 236 161 347 Q157 398 157 476 L157 1365 Z M781 1728 Q824 1728 854 1693 Q879 1665 879 1628 Q879 1585 846 1555 Q816 1527 779 1527 Q735 1527 703 1563 Q678 1591 678 1629 Q678 1669 706 1697 Q737 1728 781 1728 Z M468 1724 Q510 1724 540 1690 Q565 1662 565 1627 Q565 1585 532 1554 Q503 1527 466 1527 Q423 1527 393 1561 Q368 1589 368 1626 Q368 1667 395 1694 Q425 1724 468 1724 Z " />
<glyph glyph-name="aacute" unicode="&#xe1;" horiz-adv-x="1081" d="M938 0 L814 0 Q802 84 799 171 Q747 91 696 51 Q595 -28 439 -28 Q291 -28 199 40 Q82 126 82 281 Q82 427 194 518 Q324 624 589 624 Q640 624 799 618 Q800 656 800 669 Q800 804 752 862 Q690 937 522 937 Q373 937 294 871 Q245 830 229 744 L108 767 Q124 845 153 887 Q257 1038 524 1038 Q762 1038 857 916 Q920 835 920 656 L920 192 Q920 79 938 0 Z M799 513 Q641 523 576 523 Q408 523 312 464 Q210 400 210 279 Q210 191 272 133 Q335 73 440 73 Q621 73 728 223 Q799 323 799 476 L799 513 Z M766 1470 L825 1366 L411 1171 L368 1238 L766 1470 Z " />
<glyph glyph-name="agrave" unicode="&#xe0;" horiz-adv-x="1081" d="M938 0 L814 0 Q802 84 799 171 Q747 91 696 51 Q595 -28 439 -28 Q291 -28 199 40 Q82 126 82 281 Q82 427 194 518 Q324 624 589 624 Q640 624 799 618 Q800 656 800 669 Q800 804 752 862 Q690 937 522 937 Q373 937 294 871 Q245 830 229 744 L108 767 Q124 845 153 887 Q257 1038 524 1038 Q762 1038 857 916 Q920 835 920 656 L920 192 Q920 79 938 0 Z M799 513 Q641 523 576 523 Q408 523 312 464 Q210 400 210 279 Q210 191 272 133 Q335 73 440 73 Q621 73 728 223 Q799 323 799 476 L799 513 Z M666 1171 L253 1366 L312 1470 L709 1238 L666 1171 Z " />
<glyph glyph-name="acircumflex" unicode="&#xe2;" horiz-adv-x="1081" d="M938 0 L814 0 Q802 84 799 171 Q747 91 696 51 Q595 -28 439 -28 Q291 -28 199 40 Q82 126 82 281 Q82 427 194 518 Q324 624 589 624 Q640 624 799 618 Q800 656 800 669 Q800 804 752 862 Q690 937 522 937 Q373 937 294 871 Q245 830 229 744 L108 767 Q124 845 153 887 Q257 1038 524 1038 Q762 1038 857 916 Q920 835 920 656 L920 192 Q920 79 938 0 Z M799 513 Q641 523 576 523 Q408 523 312 464 Q210 400 210 279 Q210 191 272 133 Q335 73 440 73 Q621 73 728 223 Q799 323 799 476 L799 513 Z M834 1198 L712 1178 L510 1312 L317 1178 L187 1198 L514 1443 L834 1198 Z " />
<glyph glyph-name="adieresis" unicode="&#xe4;" horiz-adv-x="1081" d="M938 0 L814 0 Q802 84 799 171 Q747 91 696 51 Q595 -28 439 -28 Q291 -28 199 40 Q82 126 82 281 Q82 427 194 518 Q324 624 589 624 Q640 624 799 618 Q800 656 800 669 Q800 804 752 862 Q690 937 522 937 Q373 937 294 871 Q245 830 229 744 L108 767 Q124 845 153 887 Q257 1038 524 1038 Q762 1038 857 916 Q920 835 920 656 L920 192 Q920 79 938 0 Z M799 513 Q641 523 576 523 Q408 523 312 464 Q210 400 210 279 Q210 191 272 133 Q335 73 440 73 Q621 73 728 223 Q799 323 799 476 L799 513 Z M672 1409 Q714 1409 745 1374 Q770 1346 770 1309 Q770 1266 737 1236 Q708 1208 670 1208 Q625 1208 594 1244 Q569 1272 569 1310 Q569 1350 597 1378 Q628 1409 672 1409 Z M359 1405 Q401 1405 431 1371 Q456 1343 456 1308 Q456 1266 423 1235 Q394 1208 357 1208 Q314 1208 284 1242 Q259 1270 259 1307 Q259 1347 286 1375 Q316 1405 359 1405 Z " />
<glyph glyph-name="atilde" unicode="&#xe3;" horiz-adv-x="1081" d="M938 0 L814 0 Q802 84 799 171 Q747 91 696 51 Q595 -28 439 -28 Q291 -28 199 40 Q82 126 82 281 Q82 427 194 518 Q324 624 589 624 Q640 624 799 618 Q800 656 800 669 Q800 804 752 862 Q690 937 522 937 Q373 937 294 871 Q245 830 229 744 L108 767 Q124 845 153 887 Q257 1038 524 1038 Q762 1038 857 916 Q920 835 920 656 L920 192 Q920 79 938 0 Z M799 513 Q641 523 576 523 Q408 523 312 464 Q210 400 210 279 Q210 191 272 133 Q335 73 440 73 Q621 73 728 223 Q799 323 799 476 L799 513 Z M285 1214 L202 1265 Q239 1308 268 1332 Q334 1387 422 1387 Q477 1387 547 1358 L607 1334 Q663 1311 697 1311 Q746 1311 812 1365 L883 1307 Q784 1210 696 1210 Q646 1210 589 1233 L521 1261 Q460 1286 417 1286 Q349 1286 285 1214 Z " />
<glyph glyph-name="aring" unicode="&#xe5;" horiz-adv-x="1081" d="M938 0 L814 0 Q802 84 799 171 Q747 91 696 51 Q595 -28 439 -28 Q291 -28 199 40 Q82 126 82 281 Q82 427 194 518 Q324 624 589 624 Q640 624 799 618 Q800 656 800 669 Q800 804 752 862 Q690 937 522 937 Q373 937 294 871 Q245 830 229 744 L108 767 Q124 845 153 887 Q257 1038 524 1038 Q762 1038 857 916 Q920 835 920 656 L920 192 Q920 79 938 0 Z M799 513 Q641 523 576 523 Q408 523 312 464 Q210 400 210 279 Q210 191 272 133 Q335 73 440 73 Q621 73 728 223 Q799 323 799 476 L799 513 Z M529 1499 Q599 1499 646 1445 Q691 1394 691 1329 Q691 1256 636 1206 Q589 1164 526 1164 Q451 1164 399 1221 Q356 1269 356 1332 Q356 1403 407 1450 Q459 1499 529 1499 Z M525 1427 Q486 1427 457 1398 Q428 1369 428 1331 Q428 1291 461 1262 Q490 1236 526 1236 Q566 1236 595 1268 Q619 1294 619 1331 Q619 1373 587 1402 Q560 1427 525 1427 Z " />
<glyph glyph-name="ccedilla" unicode="&#xe7;" horiz-adv-x="955" d="M500 -28 L481 -93 Q671 -94 671 -217 Q671 -292 605 -326 Q558 -350 486 -350 Q404 -350 316 -312 L336 -254 Q405 -283 469 -283 Q525 -283 555 -262 Q584 -243 584 -213 Q584 -150 478 -150 Q448 -150 398 -156 L442 -23 Q315 -3 232 82 Q82 235 82 506 Q82 742 206 894 Q323 1038 516 1038 Q737 1038 838 845 Q869 785 887 689 L771 662 Q761 754 725 816 Q655 937 512 937 Q376 937 295 827 Q210 712 210 517 Q210 327 283 203 Q360 73 508 73 Q642 73 716 191 Q757 257 771 348 L887 321 Q867 226 844 178 Q791 70 695 16 Q617 -28 514 -28 Q509 -28 500 -28 Z " />
<glyph glyph-name="eacute" unicode="&#xe9;" horiz-adv-x="1062" d="M980 501 L210 501 Q211 343 267 244 Q363 73 553 73 Q685 73 773 164 Q822 214 847 293 L960 263 Q937 184 886 123 Q760 -28 548 -28 Q332 -28 203 123 Q82 264 82 494 Q82 754 225 902 Q357 1038 555 1038 Q715 1038 825 939 Q929 845 963 689 Q977 624 980 501 Z M847 597 Q837 721 797 795 Q719 937 552 937 Q390 937 292 808 Q236 733 215 597 L847 597 Z M790 1470 L849 1366 L435 1171 L392 1238 L790 1470 Z " />
<glyph glyph-name="egrave" unicode="&#xe8;" horiz-adv-x="1062" d="M980 501 L210 501 Q211 343 267 244 Q363 73 553 73 Q685 73 773 164 Q822 214 847 293 L960 263 Q937 184 886 123 Q760 -28 548 -28 Q332 -28 203 123 Q82 264 82 494 Q82 754 225 902 Q357 1038 555 1038 Q715 1038 825 939 Q929 845 963 689 Q977 624 980 501 Z M847 597 Q837 721 797 795 Q719 937 552 937 Q390 937 292 808 Q236 733 215 597 L847 597 Z M687 1171 L274 1366 L333 1470 L730 1238 L687 1171 Z " />
<glyph glyph-name="ecircumflex" unicode="&#xea;" horiz-adv-x="1062" d="M980 501 L210 501 Q211 343 267 244 Q363 73 553 73 Q685 73 773 164 Q822 214 847 293 L960 263 Q937 184 886 123 Q760 -28 548 -28 Q332 -28 203 123 Q82 264 82 494 Q82 754 225 902 Q357 1038 555 1038 Q715 1038 825 939 Q929 845 963 689 Q977 624 980 501 Z M847 597 Q837 721 797 795 Q719 937 552 937 Q390 937 292 808 Q236 733 215 597 L847 597 Z M870 1198 L749 1178 L546 1312 L354 1178 L223 1198 L551 1443 L870 1198 Z " />
<glyph glyph-name="edieresis" unicode="&#xeb;" horiz-adv-x="1062" d="M980 501 L210 501 Q211 343 267 244 Q363 73 553 73 Q685 73 773 164 Q822 214 847 293 L960 263 Q937 184 886 123 Q760 -28 548 -28 Q332 -28 203 123 Q82 264 82 494 Q82 754 225 902 Q357 1038 555 1038 Q715 1038 825 939 Q929 845 963 689 Q977 624 980 501 Z M847 597 Q837 721 797 795 Q719 937 552 937 Q390 937 292 808 Q236 733 215 597 L847 597 Z M712 1409 Q754 1409 785 1374 Q810 1346 810 1309 Q810 1266 777 1236 Q748 1208 710 1208 Q665 1208 634 1244 Q609 1272 609 1310 Q609 1350 637 1378 Q668 1409 712 1409 Z M399 1405 Q441 1405 471 1371 Q496 1343 496 1308 Q496 1266 463 1235 Q434 1208 397 1208 Q354 1208 324 1242 Q299 1270 299 1307 Q299 1347 326 1375 Q356 1405 399 1405 Z " />
<glyph glyph-name="iacute" unicode="&#xed;" horiz-adv-x="436" d="M279 1010 L279 0 L157 0 L157 1010 L279 1010 Z M427 1470 L487 1379 L167 1171 L118 1238 L427 1470 Z " />
<glyph glyph-name="igrave" unicode="&#xec;" horiz-adv-x="436" d="M279 1010 L279 0 L157 0 L157 1010 L279 1010 Z M299 1171 L-20 1379 L40 1470 L349 1238 L299 1171 Z " />
<glyph glyph-name="icircumflex" unicode="&#xee;" horiz-adv-x="436" d="M279 1010 L279 0 L157 0 L157 1010 L279 1010 Z M481 1198 L373 1178 L226 1312 L87 1178 L-29 1198 L230 1443 L481 1198 Z " />
<glyph glyph-name="idieresis" unicode="&#xef;" horiz-adv-x="436" d="M279 1010 L279 0 L157 0 L157 1010 L279 1010 Z M353 1409 Q395 1409 426 1374 Q451 1346 451 1309 Q451 1266 418 1236 Q389 1208 351 1208 Q306 1208 275 1244 Q250 1272 250 1310 Q250 1350 278 1378 Q309 1409 353 1409 Z M81 1405 Q123 1405 153 1371 Q178 1343 178 1308 Q178 1266 145 1235 Q116 1208 79 1208 Q36 1208 6 1242 Q-19 1270 -19 1307 Q-19 1348 8 1375 Q38 1405 81 1405 Z " />
<glyph glyph-name="ntilde" unicode="&#xf1;" horiz-adv-x="1070" d="M926 0 L804 0 L804 641 Q804 789 761 855 Q708 937 595 937 Q436 937 344 797 Q279 698 279 555 L279 0 L157 0 L157 1010 L279 1010 L279 819 Q390 1038 607 1038 Q787 1038 872 899 Q926 812 926 639 L926 0 Z M310 1214 L227 1265 Q264 1308 293 1332 Q359 1387 447 1387 Q502 1387 572 1358 L632 1334 Q688 1311 722 1311 Q772 1311 837 1365 L908 1307 Q809 1210 721 1210 Q671 1210 614 1233 L546 1261 Q485 1286 442 1286 Q374 1286 310 1214 Z " />
<glyph glyph-name="oacute" unicode="&#xf3;" horiz-adv-x="1038" d="M519 1038 Q654 1038 758 964 Q873 883 924 723 Q956 622 956 505 Q956 285 848 134 Q786 48 685 4 Q610 -28 525 -28 Q306 -28 190 134 Q82 285 82 507 Q82 728 190 876 Q308 1038 519 1038 Z M519 937 Q417 937 340 873 Q210 765 210 505 Q210 320 282 203 Q321 140 389 104 Q448 73 514 73 Q675 73 756 203 Q828 320 828 507 Q828 693 756 807 Q673 937 519 937 Z M771 1470 L830 1366 L417 1171 L374 1238 L771 1470 Z " />
<glyph glyph-name="ograve" unicode="&#xf2;" horiz-adv-x="1038" d="M519 1038 Q654 1038 758 964 Q873 883 924 723 Q956 622 956 505 Q956 285 848 134 Q786 48 685 4 Q610 -28 525 -28 Q306 -28 190 134 Q82 285 82 507 Q82 728 190 876 Q308 1038 519 1038 Z M519 937 Q417 937 340 873 Q210 765 210 505 Q210 320 282 203 Q321 140 389 104 Q448 73 514 73 Q675 73 756 203 Q828 320 828 507 Q828 693 756 807 Q673 937 519 937 Z M679 1171 L265 1366 L324 1470 L721 1238 L679 1171 Z " />
<glyph glyph-name="ocircumflex" unicode="&#xf4;" horiz-adv-x="1038" d="M519 1038 Q654 1038 758 964 Q873 883 924 723 Q956 622 956 505 Q956 285 848 134 Q786 48 685 4 Q610 -28 525 -28 Q306 -28 190 134 Q82 285 82 507 Q82 728 190 876 Q308 1038 519 1038 Z M519 937 Q417 937 340 873 Q210 765 210 505 Q210 320 282 203 Q321 140 389 104 Q448 73 514 73 Q675 73 756 203 Q828 320 828 507 Q828 693 756 807 Q673 937 519 937 Z M862 1198 L740 1178 L538 1312 L345 1178 L215 1198 L542 1443 L862 1198 Z " />
<glyph glyph-name="odieresis" unicode="&#xf6;" horiz-adv-x="1038" d="M519 1038 Q654 1038 758 964 Q873 883 924 723 Q956 622 956 505 Q956 285 848 134 Q786 48 685 4 Q610 -28 525 -28 Q306 -28 190 134 Q82 285 82 507 Q82 728 190 876 Q308 1038 519 1038 Z M519 937 Q417 937 340 873 Q210 765 210 505 Q210 320 282 203 Q321 140 389 104 Q448 73 514 73 Q675 73 756 203 Q828 320 828 507 Q828 693 756 807 Q673 937 519 937 Z M674 1409 Q716 1409 747 1374 Q772 1346 772 1309 Q772 1266 739 1236 Q710 1208 672 1208 Q627 1208 596 1244 Q571 1272 571 1310 Q571 1350 599 1378 Q630 1409 674 1409 Z M362 1405 Q404 1405 434 1371 Q459 1343 459 1308 Q459 1266 426 1235 Q397 1208 360 1208 Q317 1208 287 1242 Q262 1270 262 1307 Q262 1347 289 1375 Q319 1405 362 1405 Z " />
<glyph glyph-name="otilde" unicode="&#xf5;" horiz-adv-x="1038" d="M519 1038 Q654 1038 758 964 Q873 883 924 723 Q956 622 956 505 Q956 285 848 134 Q786 48 685 4 Q610 -28 525 -28 Q306 -28 190 134 Q82 285 82 507 Q82 728 190 876 Q308 1038 519 1038 Z M519 937 Q417 937 340 873 Q210 765 210 505 Q210 320 282 203 Q321 140 389 104 Q448 73 514 73 Q675 73 756 203 Q828 320 828 507 Q828 693 756 807 Q673 937 519 937 Z M271 1214 L188 1265 Q225 1308 254 1332 Q320 1387 408 1387 Q463 1387 534 1358 L593 1334 Q649 1311 683 1311 Q733 1311 798 1365 L870 1307 Q770 1210 682 1210 Q633 1210 576 1233 L507 1261 Q446 1286 403 1286 Q335 1286 271 1214 Z " />
<glyph glyph-name="uacute" unicode="&#xfa;" horiz-adv-x="1070" d="M143 1010 L265 1010 L265 369 Q265 221 308 155 Q361 73 474 73 Q633 73 725 213 Q790 312 790 455 L790 1010 L912 1010 L912 0 L790 0 L790 191 Q678 -28 462 -28 Q282 -28 197 111 Q143 198 143 371 L143 1010 Z M809 1470 L868 1366 L454 1171 L411 1238 L809 1470 Z " />
<glyph glyph-name="ugrave" unicode="&#xf9;" horiz-adv-x="1070" d="M143 1010 L265 1010 L265 369 Q265 221 308 155 Q361 73 474 73 Q633 73 725 213 Q790 312 790 455 L790 1010 L912 1010 L912 0 L790 0 L790 191 Q678 -28 462 -28 Q282 -28 197 111 Q143 198 143 371 L143 1010 Z M649 1171 L235 1366 L294 1470 L692 1238 L649 1171 Z " />
<glyph glyph-name="ucircumflex" unicode="&#xfb;" horiz-adv-x="1070" d="M143 1010 L265 1010 L265 369 Q265 221 308 155 Q361 73 474 73 Q633 73 725 213 Q790 312 790 455 L790 1010 L912 1010 L912 0 L790 0 L790 191 Q678 -28 462 -28 Q282 -28 197 111 Q143 198 143 371 L143 1010 Z M867 1198 L745 1178 L543 1312 L350 1178 L220 1198 L547 1443 L867 1198 Z " />
<glyph glyph-name="udieresis" unicode="&#xfc;" horiz-adv-x="1070" d="M143 1010 L265 1010 L265 369 Q265 221 308 155 Q361 73 474 73 Q633 73 725 213 Q790 312 790 455 L790 1010 L912 1010 L912 0 L790 0 L790 191 Q678 -28 462 -28 Q282 -28 197 111 Q143 198 143 371 L143 1010 Z M683 1409 Q725 1409 756 1374 Q781 1346 781 1309 Q781 1266 748 1236 Q719 1208 681 1208 Q636 1208 605 1244 Q580 1272 580 1310 Q580 1350 608 1378 Q639 1409 683 1409 Z M370 1405 Q412 1405 442 1371 Q467 1343 467 1308 Q467 1266 434 1235 Q405 1208 368 1208 Q325 1208 295 1242 Q270 1270 270 1307 Q270 1347 297 1375 Q327 1405 370 1405 Z " />
<glyph glyph-name="dagger" unicode="&#x2020;" horiz-adv-x="1201" d="M664 -341 L539 -341 L539 847 L159 847 L159 956 L539 956 L539 1365 L664 1365 L664 956 L1044 956 L1044 847 L664 847 L664 -341 Z " />
<glyph glyph-name="degree" unicode="&#xb0;" horiz-adv-x="1201" d="M601 1392 Q720 1392 802 1303 Q871 1226 871 1124 Q871 1010 790 932 Q710 854 595 854 Q480 854 400 943 Q331 1019 331 1122 Q331 1241 420 1322 Q497 1392 601 1392 Z M600 1288 Q528 1288 478 1233 Q436 1186 436 1125 Q436 1049 490 1001 Q536 959 597 959 Q672 959 723 1015 Q765 1061 765 1123 Q765 1195 710 1245 Q664 1288 600 1288 Z " />
<glyph glyph-name="cent" unicode="&#xa2;" horiz-adv-x="1201" d="M552 234 Q429 250 350 326 Q208 461 208 700 Q208 867 284 987 Q381 1140 552 1164 L552 1409 L656 1409 L656 1166 Q792 1153 876 1059 Q941 986 964 861 L856 837 Q831 1044 656 1076 L656 323 Q726 336 775 387 Q838 452 856 561 L964 537 Q943 438 909 385 Q821 248 656 232 L656 -52 L552 -52 L552 234 Z M552 325 L552 1073 Q488 1058 440 1015 Q329 918 329 709 Q329 577 373 479 Q431 351 552 325 Z " />
<glyph glyph-name="sterling" unicode="&#xa3;" horiz-adv-x="1201" d="M1079 243 L1166 170 Q1058 0 817 0 L5 0 L5 104 Q112 106 145 109 Q262 117 341 187 Q434 269 434 420 Q434 495 408 655 L162 655 L162 742 L408 742 Q384 897 384 966 Q384 1164 471 1272 Q571 1397 728 1397 Q911 1397 1034 1242 L962 1157 Q919 1208 889 1231 Q819 1285 740 1285 Q617 1285 562 1174 Q527 1102 527 981 Q527 934 544 742 L859 742 L859 655 L564 655 Q575 534 575 462 Q575 347 534 256 Q497 175 450 134 Q441 125 412 106 L738 106 Q861 106 933 134 Q1004 161 1079 243 Z " />
<glyph glyph-name="section" unicode="&#xa7;" horiz-adv-x="1062" d="M82 -62 L201 -36 Q222 -137 297 -191 Q385 -255 528 -255 Q685 -255 776 -176 Q852 -110 852 -13 Q852 70 786 122 Q747 154 665 178 L420 250 Q261 297 193 357 Q118 423 118 535 Q118 658 219 748 Q254 780 329 827 Q245 869 206 914 Q144 986 144 1089 Q144 1254 289 1332 Q398 1391 556 1391 Q888 1391 962 1129 L848 1104 Q793 1290 549 1290 Q435 1290 356 1242 Q273 1190 273 1094 Q273 955 463 895 L735 809 Q870 766 925 685 Q974 613 974 537 Q974 450 910 369 Q879 328 798 266 Q879 224 918 178 Q980 104 980 -1 Q980 -157 851 -260 Q731 -356 517 -356 Q322 -356 208 -267 Q144 -218 111 -146 Q98 -118 82 -62 Z M452 774 Q246 684 246 548 Q246 477 298 434 Q342 398 433 372 L663 307 Q737 347 780 392 Q846 462 846 529 Q846 650 675 704 L452 774 Z " />
<glyph glyph-name="bullet" unicode="&#x2022;" horiz-adv-x="1365" d="M690 978 Q810 978 895 886 Q969 805 969 694 Q969 566 874 482 Q793 410 685 410 Q560 410 476 503 Q401 584 401 696 Q401 820 497 907 Q576 978 690 978 Z " />
<glyph glyph-name="paragraph" unicode="&#xb6;" horiz-adv-x="1201" d="M1051 1365 L1051 1279 L921 1279 L921 -345 L829 -345 L829 1279 L738 1279 L738 -345 L647 -345 L647 736 L487 736 Q287 736 202 784 Q76 854 76 1036 Q76 1204 172 1289 Q216 1328 273 1344 Q346 1365 490 1365 L1051 1365 Z M647 822 L647 1279 L533 1279 Q426 1279 382 1270 Q223 1235 223 1053 Q223 908 321 854 Q380 822 499 822 L647 822 Z " />
<glyph glyph-name="germandbls" unicode="&#xdf;" horiz-adv-x="1103" d="M175 0 L175 816 L67 816 L67 912 L174 912 L175 921 Q180 1051 194 1098 Q233 1238 340 1317 Q445 1394 593 1394 Q736 1394 825 1322 Q931 1236 931 1105 Q931 925 740 858 Q675 834 578 832 Q526 831 526 796 Q526 768 552 745 Q589 713 676 675 L838 605 Q1063 508 1063 318 Q1063 163 945 62 Q839 -28 677 -28 Q592 -28 475 1 L501 95 Q605 67 662 67 Q772 67 849 128 Q935 198 935 299 Q935 362 897 412 Q857 464 795 492 L546 605 Q398 672 398 758 Q398 779 413 826 Q428 874 443 880 Q455 885 488 887 Q590 895 669 931 Q803 991 803 1116 Q803 1206 732 1255 Q676 1293 591 1293 Q457 1293 377 1204 Q297 1116 297 939 L297 0 L175 0 Z " />
<glyph glyph-name="registered" unicode="&#xae;" horiz-adv-x="1584" d="M1112 273 L1003 273 L834 631 L595 631 L595 273 L500 273 L500 1092 L829 1092 Q963 1092 1036 1009 Q1094 943 1094 865 Q1094 805 1058 747 Q1018 683 934 658 L1112 273 Z M595 710 L822 710 Q914 710 953 757 Q992 804 992 867 Q992 932 949 969 Q907 1004 835 1004 L595 1004 L595 710 Z M803 1389 Q985 1389 1146 1294 Q1311 1197 1405 1035 Q1500 872 1500 681 Q1500 491 1405 327 Q1310 163 1146 68 Q982 -27 792 -27 Q603 -27 438 68 Q273 163 179 327 Q84 492 84 687 Q84 992 319 1207 Q518 1389 803 1389 Z M802 1299 Q519 1299 333 1094 Q174 918 174 686 Q174 516 257 372 Q340 229 483 146 Q627 63 792 63 Q957 63 1101 146 Q1245 229 1327 372 Q1410 516 1410 681 Q1410 952 1205 1140 Q1109 1227 987 1267 Q888 1299 802 1299 Z " />
<glyph glyph-name="copyright" unicode="&#xa9;" horiz-adv-x="1584" d="M1100 830 L1002 809 Q993 883 963 932 Q903 1029 782 1029 Q667 1029 598 941 Q526 849 526 691 Q526 539 588 439 Q653 335 779 335 Q892 335 955 430 Q989 483 1002 556 L1100 535 Q1075 417 1018 353 Q929 254 782 254 Q609 254 512 378 Q417 500 417 683 Q417 873 522 995 Q623 1110 785 1110 Q972 1110 1058 956 Q1084 908 1100 830 Z M803 1389 Q985 1389 1146 1294 Q1311 1197 1405 1035 Q1500 872 1500 681 Q1500 491 1405 327 Q1310 163 1146 68 Q982 -27 792 -27 Q603 -27 438 68 Q273 163 179 327 Q84 492 84 687 Q84 992 319 1207 Q518 1389 803 1389 Z M802 1299 Q519 1299 333 1094 Q174 918 174 686 Q174 516 257 372 Q340 229 483 146 Q627 63 792 63 Q957 63 1101 146 Q1245 229 1327 372 Q1410 516 1410 681 Q1410 952 1205 1140 Q1109 1227 987 1267 Q888 1299 802 1299 Z " />
<glyph glyph-name="trademark" unicode="&#x2122;" horiz-adv-x="1592" d="M339 587 L243 587 L243 1284 L1 1284 L1 1365 L584 1365 L584 1284 L339 1284 L339 587 Z M1495 587 L1400 587 L1400 1209 L1133 587 L1051 587 L781 1210 L781 587 L689 587 L689 1365 L821 1365 L1097 713 L1367 1365 L1495 1365 L1495 587 Z " />
<glyph glyph-name="acute" unicode="&#xb4;" horiz-adv-x="1024" d="M793 1470 L853 1366 L439 1171 L396 1238 L793 1470 Z " />
<glyph glyph-name="dieresis" unicode="&#xa8;" horiz-adv-x="1024" d="M668 1409 Q710 1409 741 1374 Q766 1346 766 1309 Q766 1266 733 1236 Q704 1208 666 1208 Q621 1208 590 1244 Q565 1272 565 1310 Q565 1350 593 1378 Q624 1409 668 1409 Z M355 1405 Q397 1405 427 1371 Q452 1343 452 1308 Q452 1266 419 1235 Q390 1208 353 1208 Q310 1208 280 1242 Q255 1270 255 1307 Q255 1348 282 1375 Q312 1405 355 1405 Z " />
<glyph glyph-name="notequal" unicode="&#x2260;" horiz-adv-x="1201" d="M653 890 L764 1124 L847 1096 L749 890 L1044 890 L1044 787 L702 787 L606 583 L1044 583 L1044 480 L558 480 L442 236 L359 264 L462 480 L158 480 L158 583 L509 583 L606 787 L158 787 L158 890 L653 890 Z " />
<glyph glyph-name="AE" unicode="&#xc6;" horiz-adv-x="1908" d="M1847 114 L1847 0 L872 0 L872 428 L373 428 L107 0 L-24 0 L833 1365 L1816 1365 L1816 1251 L1005 1251 L1005 775 L1666 775 L1666 665 L1005 665 L1005 114 L1847 114 Z M872 538 L872 1225 L442 538 L872 538 Z " />
<glyph glyph-name="Oslash" unicode="&#xd8;" horiz-adv-x="1279" d="M224 184 Q88 388 88 681 Q88 993 232 1192 Q380 1396 638 1396 Q843 1396 974 1273 L1074 1418 L1197 1418 L1043 1195 Q1190 1000 1190 682 Q1190 372 1046 173 Q898 -31 640 -31 Q422 -31 290 105 L187 -45 L66 -45 L224 184 Z M302 297 L904 1171 Q796 1286 639 1286 Q448 1286 335 1123 Q223 962 223 679 Q223 447 302 297 Z M967 1085 L362 208 Q470 79 640 79 Q830 79 943 242 Q1055 403 1055 685 Q1055 934 967 1085 Z " />
<glyph glyph-name="infinity" unicode="&#x221e;" horiz-adv-x="1365" d="M685 618 Q628 534 573 483 Q468 388 338 388 Q202 388 117 481 Q39 566 39 699 Q39 845 136 928 Q225 1005 339 1005 Q534 1005 681 775 Q733 855 788 906 Q895 1005 1030 1005 Q1166 1005 1250 913 Q1327 827 1327 694 Q1327 545 1230 461 Q1145 388 1028 388 Q878 388 758 521 Q723 560 685 618 Z M741 697 Q794 615 843 567 Q924 490 1017 490 Q1103 490 1159 552 Q1211 609 1211 698 Q1211 796 1147 853 Q1090 903 1013 903 Q959 903 912.5 877.5 Q866 852 813 793 Q782 759 750 711 L741 697 Z M626 696 Q572 778 522 825 Q443 902 348 902 Q261 902 206 841 Q154 783 154 694 Q154 597 219 539 Q276 489 352 489 Q407 489 453 514 Q499 539 553 599 Q584 634 616 681 L626 696 Z " />
<glyph glyph-name="plusminus" unicode="&#xb1;" horiz-adv-x="1201" d="M137 737 L536 737 L536 1155 L666 1155 L666 737 L1065 737 L1065 625 L666 625 L666 207 L536 207 L536 625 L137 625 L137 737 Z M137 96 L1065 96 L1065 -16 L137 -16 L137 96 Z " />
<glyph glyph-name="lessequal" unicode="&#x2264;" horiz-adv-x="1201" d="M1024 1201 L1024 1092 L260 755 L1023 418 L1024 309 L137 705 L137 806 L1024 1201 Z M1024 248 L1024 145 L137 145 L137 248 L1024 248 Z " />
<glyph glyph-name="greaterequal" unicode="&#x2265;" horiz-adv-x="1201" d="M177 309 L177 418 L941 755 L177 1092 L177 1201 L1064 805 L1064 704 L177 309 Z M177 145 L177 248 L1064 248 L1064 145 L177 145 Z " />
<glyph glyph-name="yen" unicode="&#xa5;" horiz-adv-x="1202" d="M741 726 L656 580 L656 578 L1096 578 L1096 472 L656 472 L656 0 L523 0 L523 472 L105 472 L105 578 L523 578 L523 580 L439 726 L105 726 L105 832 L378 832 L73 1365 L219 1365 L606 689 L1000 1365 L1117 1365 L804 832 L1096 832 L1096 726 L741 726 Z " />
<glyph glyph-name="mu" unicode="&#xb5;" horiz-adv-x="1083" d="M157 1010 L279 1010 L279 487 Q279 281 330 189 Q393 73 524 73 Q667 73 747 214 Q804 313 804 455 L804 1010 L926 1010 L926 0 L804 0 L804 191 Q707 -28 518 -28 Q365 -28 279 111 L279 -341 L157 -341 L157 1010 Z " />
<glyph glyph-name="partialdiff" unicode="&#x2202;" horiz-adv-x="1000" d="M813 1365 L813 1269 L355 1269 L557 1108 Q756 950 821 861 Q919 726 919 499 Q919 265 817 125 Q704 -31 506 -31 Q267 -31 153 169 Q82 293 82 476 Q82 811 296 933 Q383 982 512 986 L184 1263 L184 1365 L813 1365 Z M501 901 Q411 901 339 840 Q219 739 219 505 Q219 313 281 203 Q318 139 381 103 Q438 70 502 70 Q594 70 665 134 Q782 239 782 492 Q782 676 719 780 Q686 835 623 869 Q564 901 501 901 Z " />
<glyph glyph-name="summation" unicode="&#x2211;" horiz-adv-x="1365" d="M1211 1536 L1211 1085 L1107 1085 L1098 1433 L190 1433 L707 554 L186 -409 L1117 -409 L1122 -62 L1231 -62 L1231 -512 L62 -512 L62 -394 L574 555 L62 1421 L62 1536 L1211 1536 Z " />
<glyph glyph-name="product" unicode="&#x220f;" horiz-adv-x="1365" d="M51 1536 L1315 1536 L1315 1433 L1156 1433 L1156 -409 L1315 -409 L1315 -512 L871 -512 L871 -409 L1041 -409 L1041 1433 L326 1433 L326 -409 L493 -409 L493 -512 L51 -512 L51 -409 L211 -409 L211 1433 L51 1433 L51 1536 Z " />
<glyph glyph-name="integral" unicode="&#x222b;" horiz-adv-x="1201" d="M313 -489 L341 -389 Q390 -410 428 -410 Q498 -410 523 -363 Q543 -324 543 -170 L543 1175 Q543 1305 549.5 1356.5 Q556 1408 577 1447 Q595 1479 635 1502 Q695 1536 767 1536 Q818 1536 889 1514 L861 1413 Q812 1434 774 1434 Q704 1434 680 1390 Q665 1364 663 1326 Q659 1261 659 1150 L659 -151 Q659 -338 644 -382 Q626 -439 576 -473 Q520 -513 450 -513 Q392 -513 313 -489 Z " />
<glyph glyph-name="ordfeminine" unicode="&#xaa;" horiz-adv-x="666" d="M612 765 L512 765 L504 837 Q435 747 292 747 Q161 747 101 815 Q55 867 55 939 Q55 1036 140 1092 Q222 1147 398 1147 Q433 1147 505 1143 Q503 1207 495 1233 Q471 1319 343 1319 Q252 1319 213 1289 Q183 1265 167 1202 L70 1219 Q92 1301 133 1339 Q189 1393 341 1393 Q509 1393 565 1298 Q599 1240 599 1130 L599 885 Q599 818 612 765 Z M506 1061 Q431 1065 389 1065 Q272 1065 219 1034 Q161 1000 161 929 Q161 880 193 850 Q228 818 294 818 Q390 818 453 885 Q508 943 508 1025 Q508 1061 506 1061 Z " />
<glyph glyph-name="ordmasculine" unicode="&#xba;" horiz-adv-x="686" d="M343 1392 Q481 1392 561 1294 Q632 1207 632 1069 Q632 933 561 844 Q482 746 348 746 Q205 746 126 844 Q55 933 55 1070 Q55 1204 126 1294 Q204 1392 343 1392 Z M343 1314 Q247 1314 197 1240 Q152 1175 152 1069 Q152 964 197 898 Q247 824 341 824 Q440 824 490 898 Q535 964 535 1070 Q535 1175 490 1240 Q440 1314 343 1314 Z " />
<glyph glyph-name="uni2126" unicode="&#x2126;" horiz-adv-x="1216" d="M68 0 L68 114 L354 114 Q260 190 210 262 Q98 427 98 724 Q98 978 192 1142 Q261 1262 374 1328 Q482 1390 608 1390 Q791 1390 925 1265 Q1117 1087 1117 737 Q1117 397 955 224 Q906 171 819 114 L1147 114 L1147 0 L678 0 L678 114 Q788 195 846 270 Q982 445 982 742 Q982 957 901 1097 Q796 1280 608 1280 Q481 1280 387 1190 Q233 1044 233 741 Q233 413 406 227 Q454 176 538 114 L538 0 L68 0 Z " />
<glyph glyph-name="ae" unicode="&#xe6;" horiz-adv-x="1723" d="M868 846 Q907 903 956 942 Q1074 1038 1230 1038 Q1385 1038 1492 939 Q1592 846 1625 689 Q1639 623 1642 501 L899 501 Q900 343 953 244 Q1046 73 1228 73 Q1354 73 1438 164 Q1485 214 1509 293 L1622 263 Q1599 183 1550 123 Q1428 -28 1223 -28 Q1015 -28 889 123 Q847 173 819 240 L771 171 Q722 91 673 51 Q575 -28 425 -28 Q283 -28 195 40 Q82 126 82 280 Q82 426 191 518 Q318 624 573 624 Q619 624 771 617 Q772 655 772 669 Q772 804 726 862 Q667 937 508 937 Q366 937 290 870 Q244 830 229 744 L108 767 Q123 844 151 887 Q252 1038 509 1038 Q798 1038 868 846 Z M771 513 Q622 523 562 523 Q401 523 309 464 Q210 400 210 279 Q210 191 268 133 Q328 73 427 73 Q548 73 640 153 Q767 262 771 450 Q771 463 771 513 Z M1509 597 Q1498 724 1461 795 Q1386 937 1227 937 Q1072 937 978 807 Q925 734 904 597 L1509 597 Z " />
<glyph glyph-name="oslash" unicode="&#xf8;" horiz-adv-x="1039" d="M181 150 Q84 295 84 505 Q84 725 192 876 Q254 962 355 1006 Q430 1038 520 1038 Q679 1038 790 942 L899 1084 L1031 1084 L860 861 Q958 709 958 506 Q958 285 850 134 Q788 47 687 4 Q612 -28 522 -28 Q362 -28 248 71 L154 -50 L27 -50 L181 150 Z M259 251 L721 853 Q640 937 520 937 Q418 937 342 873 Q212 765 212 504 Q212 357 259 251 Z M782 761 L317 160 Q399 73 522 73 Q623 73 700 137 Q830 244 830 506 Q830 651 782 761 Z " />
<glyph glyph-name="questiondown" unicode="&#xbf;" horiz-adv-x="1039" d="M503 833 L503 1004 L689 1004 L689 833 L503 833 Z M652 710 L652 606 Q652 483 629 425 Q612 382 587 357 Q555 325 493 294 L368 231 Q221 156 221 -3 Q221 -107 294 -180 Q382 -268 536 -268 Q699 -268 789 -172 Q851 -106 880 34 L994 5 Q957 -152 889 -231 Q770 -372 536 -372 Q317 -372 194 -250 Q90 -147 90 8 Q90 110 140 191 Q188 268 305 329 L394 374 Q483 420 510 469 Q534 510 534 606 L534 710 L652 710 Z " />
<glyph glyph-name="exclamdown" unicode="&#xa1;" horiz-adv-x="543" d="M178 1004 L366 1004 L366 811 L178 811 L178 1004 Z M240 721 L314 721 L377 -341 L173 -341 L240 721 Z " />
<glyph glyph-name="logicalnot" unicode="&#xac;" horiz-adv-x="1201" d="M1044 0 L931 0 L931 444 L157 444 L157 547 L1044 547 L1044 0 Z " />
<glyph glyph-name="radical" unicode="&#x221a;" horiz-adv-x="1201" d="M1365 1679 L1365 1576 L952 1576 L479 0 L347 0 L163 630 L0 630 L0 733 L255 733 L406 161 L856 1679 L1365 1679 Z " />
<glyph glyph-name="florin" unicode="&#x192;" horiz-adv-x="790" d="M789 1186 L773 1090 L511 1090 L318 -11 Q289 -177 178 -251 Q86 -312 -36 -312 Q-68 -312 -109 -310 L-94 -218 Q-60 -220 -39 -220 Q93 -220 154 -119 Q177 -81 192 -14 Q197 8 215 109 L386 1090 L179 1090 L198 1186 L402 1186 Q427 1336 479 1414 Q567 1546 758 1546 Q793 1546 845 1543 L823 1452 Q787 1453 773 1453 Q683 1453 641 1427 Q593 1398 563 1320 Q546 1275 528 1186 L789 1186 Z " />
<glyph glyph-name="approxequal" unicode="&#x2248;" horiz-adv-x="1201" d="M110 752 Q162 855 221 911 Q286 972 383 972 Q470 972 616 897 Q753 828 821 828 Q883 828 938 871 Q973 899 986 917 Q1001 937 1016 986 L1091 934 Q1038 841 992 794 Q916 717 827 717 Q747 717 670 755 L594 793 Q457 862 374 862 Q306 862 244 805 Q210 774 179 701 L110 752 Z M110 433 Q162 537 220 591 Q287 653 382 653 Q466 653 616 578 Q754 509 821 509 Q882 509 938 552 Q972 578 986 598 Q1001 619 1020 665 L1091 615 Q968 398 827 398 Q747 398 670 436 L594 474 Q456 543 374 543 Q306 543 244 486 Q210 455 177 381 L110 433 Z " />
<glyph glyph-name="Delta" unicode="&#x2206;" horiz-adv-x="1201" d="M20 0 L502 1365 L687 1365 L1177 0 L20 0 Z M176 119 L983 119 L589 1265 L573 1265 L176 119 Z " />
<glyph glyph-name="guillemotleft" unicode="&#xab;" horiz-adv-x="719" d="M265 250 L85 544 L265 823 L350 823 L241 544 L351 250 L265 250 Z M528 250 L350 544 L528 823 L620 823 L505 544 L620 250 L528 250 Z " />
<glyph glyph-name="guillemotright" unicode="&#xbb;" horiz-adv-x="719" d="M456 824 L634 532 L456 249 L369 249 L480 532 L369 824 L456 824 Z M189 824 L369 532 L189 249 L99 249 L212 532 L99 824 L189 824 Z " />
<glyph glyph-name="ellipsis" unicode="&#x2026;" horiz-adv-x="1531" d="M360 205 L360 0 L150 0 L150 205 L360 205 Z M870 205 L870 0 L661 0 L661 205 L870 205 Z M1380 205 L1380 0 L1170 0 L1170 205 L1380 205 Z " />
<glyph glyph-name="Agrave" unicode="&#xc0;" horiz-adv-x="1032" d="M1025 0 L885 0 L749 428 L258 428 L123 0 L7 0 L445 1365 L587 1365 L1025 0 Z M714 538 L504 1201 L293 538 L714 538 Z M602 1490 L188 1685 L247 1789 L645 1557 L602 1490 Z " />
<glyph glyph-name="Atilde" unicode="&#xc3;" horiz-adv-x="1032" d="M1025 0 L885 0 L749 428 L258 428 L123 0 L7 0 L445 1365 L587 1365 L1025 0 Z M714 538 L504 1201 L293 538 L714 538 Z M256 1534 L172 1584 Q209 1627 239 1652 Q305 1707 392 1707 Q446 1707 518 1678 L577 1654 Q633 1631 667 1631 Q717 1631 783 1684 L854 1626 Q755 1530 666 1530 Q616 1530 560 1553 L491 1581 Q429 1606 388 1606 Q320 1606 256 1534 Z " />
<glyph glyph-name="Otilde" unicode="&#xd5;" horiz-adv-x="1279" d="M639 1396 Q899 1396 1047 1192 Q1191 994 1191 673 Q1191 372 1047 173 Q899 -31 640 -31 Q381 -31 233 173 Q89 372 89 683 Q89 998 233 1192 Q384 1396 639 1396 Z M640 1286 Q450 1286 336 1123 Q224 963 224 683 Q224 403 336 242 Q449 79 639 79 Q831 79 944 242 Q1056 403 1056 691 Q1056 967 944 1123 Q827 1286 640 1286 Z M379 1534 L296 1584 Q333 1627 362 1652 Q428 1707 516 1707 Q570 1707 642 1678 L701 1654 Q756 1631 791 1631 Q841 1631 906 1684 L978 1626 Q878 1530 790 1530 Q739 1530 684 1553 L615 1581 Q553 1606 511 1606 Q443 1606 379 1534 Z " />
<glyph glyph-name="OE" unicode="&#x152;" horiz-adv-x="1979" d="M1082 181 Q1030 109 982 69 Q863 -31 677 -31 Q408 -31 245 173 Q89 370 89 683 Q89 994 245 1192 Q406 1396 680 1396 Q897 1396 1020 1271 Q1050 1240 1082 1191 L1082 1365 L1918 1365 L1918 1251 L1215 1251 L1215 775 L1785 775 L1785 665 L1215 665 L1215 114 L1918 114 L1918 0 L1082 0 L1082 181 Z M1082 406 L1082 960 Q1053 1061 1004 1126 Q885 1286 675 1286 Q467 1286 345 1123 Q224 963 224 683 Q224 403 345 242 Q467 79 672 79 Q874 79 1000 242 Q1053 311 1082 406 Z " />
<glyph glyph-name="oe" unicode="&#x153;" horiz-adv-x="1780" d="M891 205 Q871 164 848 134 Q728 -28 519 -28 Q383 -28 279 45 Q165 126 114 287 Q82 387 82 504 Q82 725 190 876 Q252 962 353 1006 Q428 1038 519 1038 Q728 1038 848 876 Q872 843 894 798 Q922 854 966 902 Q1093 1038 1286 1038 Q1527 1038 1637 818 Q1683 726 1693 609 Q1697 572 1698 501 L956 501 Q956 343 1010 244 Q1103 73 1285 73 Q1411 73 1495 164 Q1542 214 1565 293 L1678 263 Q1655 183 1607 123 Q1485 -28 1279 -28 Q1071 -28 945 123 Q916 157 891 205 Z M518 937 Q417 937 340 873 Q210 765 210 504 Q210 319 282 203 Q321 139 389 104 Q447 73 514 73 Q675 73 755 203 Q827 320 827 506 Q827 693 755 807 Q673 937 518 937 Z M1565 597 Q1555 724 1517 795 Q1442 937 1283 937 Q1128 937 1034 807 Q981 734 961 597 L1565 597 Z " />
<glyph glyph-name="endash" unicode="&#x2013;" horiz-adv-x="1201" d="M991 553 L991 462 L209 462 L209 553 L991 553 Z " />
<glyph glyph-name="emdash" unicode="&#x2014;" horiz-adv-x="1365" d="M1325 553 L1325 462 L41 462 L41 553 L1325 553 Z " />
<glyph glyph-name="quotedblleft" unicode="&#x201c;" horiz-adv-x="847" d="M166 957 L166 1100 L325 1365 L388 1365 L278 1139 L352 1139 L352 957 L166 957 Z M471 957 L471 1100 L638 1365 L713 1365 L590 1139 L661 1139 L661 957 L471 957 Z " />
<glyph glyph-name="quotedblright" unicode="&#x201d;" horiz-adv-x="847" d="M697 1365 L697 1222 L537 956 L474 956 L585 1183 L510 1183 L510 1365 L697 1365 Z M392 1365 L392 1222 L225 957 L150 957 L273 1183 L202 1183 L202 1365 L392 1365 Z " />
<glyph glyph-name="quoteleft" unicode="&#x2018;" horiz-adv-x="522" d="M164 948 L164 1141 L289 1365 L358 1365 L265 1141 L358 1141 L358 948 L164 948 Z " />
<glyph glyph-name="quoteright" unicode="&#x2019;" horiz-adv-x="522" d="M358 1365 L358 1172 L233 948 L164 948 L257 1172 L164 1172 L164 1365 L358 1365 Z " />
<glyph glyph-name="divide" unicode="&#xf7;" horiz-adv-x="1201" d="M601 495 Q637 495 663 467 Q684 443 684 412 Q684 374 656 350 Q633 328 601 328 Q564 328 539 356 Q517 380 517 411 Q517 460 559 484 Q579 495 601 495 Z M602 1054 Q638 1054 663 1026 Q684 1002 684 971 Q684 934 656 909 Q633 887 601 887 Q564 887 539 915 Q517 939 517 971 Q517 1007 545 1032 Q569 1054 602 1054 Z M137 737 L1065 737 L1065 625 L137 625 L137 737 Z " />
<glyph glyph-name="lozenge" unicode="&#x25ca;" horiz-adv-x="1365" d="M683 1419 L1215 683 L683 -53 L151 683 L683 1419 Z M683 1237 L279 683 L683 128 L1086 683 L683 1237 Z " />
<glyph glyph-name="ydieresis" unicode="&#xff;" horiz-adv-x="839" d="M839 1010 L427 -107 Q386 -220 329 -280 Q256 -358 129 -358 Q76 -358 7 -339 L7 -239 Q77 -257 125 -257 Q212 -257 262 -194 Q299 -148 327 -74 L361 18 L19 1010 L146 1010 L422 182 L726 1010 L839 1010 Z M579 1409 Q621 1409 652 1374 Q677 1346 677 1309 Q677 1266 644 1236 Q615 1208 577 1208 Q532 1208 501 1244 Q476 1272 476 1310 Q476 1350 504 1378 Q535 1409 579 1409 Z M266 1405 Q308 1405 338 1371 Q363 1343 363 1308 Q363 1266 330 1235 Q301 1208 264 1208 Q221 1208 191 1242 Q166 1270 166 1307 Q166 1348 193 1375 Q223 1405 266 1405 Z " />
<glyph glyph-name="Ydieresis" unicode="&#x178;" horiz-adv-x="1003" d="M563 580 L563 0 L430 0 L430 580 L-20 1365 L126 1365 L513 689 L907 1365 L1024 1365 L563 580 Z M679 1728 Q722 1728 753 1693 Q778 1665 778 1628 Q778 1585 745 1555 Q715 1527 678 1527 Q633 1527 602 1563 Q577 1591 577 1629 Q577 1669 604 1697 Q636 1728 679 1728 Z M367 1724 Q409 1724 439 1690 Q464 1662 464 1627 Q464 1585 430 1554 Q402 1527 365 1527 Q322 1527 292 1561 Q267 1589 267 1626 Q267 1667 294 1694 Q324 1724 367 1724 Z " />
<glyph glyph-name="fraction" unicode="&#x2044;" horiz-adv-x="1087" d="M198 0 L95 0 L926 1365 L1027 1365 L198 0 Z " />
<glyph glyph-name="Euro" unicode="&#x20ac;" horiz-adv-x="1165" d="M336 718 Q335 687 335 678 Q335 631 341 575 L815 575 L769 469 L357 469 Q374 391 399 335 Q451 216 536 151 Q631 79 753 79 Q910 79 1026 208 L1026 55 Q954 4 901 -13.5 Q848 -31 765 -31 Q425 -31 278 283 Q243 357 220 469 L55 469 L100 575 L205 575 Q200 628 200 683 Q200 702 201 718 L55 718 L100 824 L208 824 Q226 973 276 1080 Q345 1228 466 1310 Q593 1396 759 1396 Q959 1396 1097 1262 L1041 1128 Q935 1286 754 1286 Q586 1286 476 1159 Q375 1044 345 824 L918 824 L872 718 L336 718 Z " />
<glyph glyph-name="guilsinglleft" unicode="&#x2039;" horiz-adv-x="450" d="M264 239 L85 536 L263 814 L350 814 L239 536 L351 239 L264 239 Z " />
<glyph glyph-name="guilsinglright" unicode="&#x203a;" horiz-adv-x="450" d="M186 814 L364 522 L186 239 L99 239 L210 522 L99 814 L186 814 Z " />
<glyph glyph-name="fi" unicode="&#xfb01;" horiz-adv-x="928" d="M564 1388 L564 1292 Q527 1296 496 1296 Q373 1296 334 1223 Q320 1198 313 1150 Q307 1107 309 1083 Q309 1080 309 1078 L309 1010 L551 1010 L551 914 L309 914 L309 0 L187 0 L187 914 L14 914 L14 1010 L186 1010 L188 1074 Q191 1234 246 1304 Q319 1395 468 1395 Q500 1395 564 1388 Z M761 1010 L761 0 L639 0 L639 1010 L761 1010 Z M771 1379 L771 1237 L634 1237 L634 1379 L771 1379 Z " />
<glyph glyph-name="fl" unicode="&#xfb02;" horiz-adv-x="917" d="M761 0 L639 0 L639 1365 L761 1365 L761 0 Z M564 1388 L564 1292 Q527 1296 496 1296 Q373 1296 334 1223 Q320 1198 313 1150 Q307 1107 309 1083 Q309 1080 309 1078 L309 1010 L551 1010 L551 914 L309 914 L309 0 L187 0 L187 914 L14 914 L14 1010 L186 1010 L188 1074 Q191 1234 246 1304 Q319 1395 468 1395 Q500 1395 564 1388 Z " />
<glyph glyph-name="daggerdbl" unicode="&#x2021;" horiz-adv-x="1201" d="M664 -341 L539 -341 L539 78 L159 78 L159 187 L539 187 L539 847 L159 847 L159 956 L539 956 L539 1365 L664 1365 L664 956 L1044 956 L1044 847 L664 847 L664 187 L1044 187 L1044 78 L664 78 L664 -341 Z " />
<glyph glyph-name="periodcentered" unicode="&#xb7;" horiz-adv-x="210" d="M210 621 L210 416 L0 416 L0 621 L210 621 Z " />
<glyph glyph-name="quotesinglbase" unicode="&#x201a;" horiz-adv-x="522" d="M358 193 L358 0 L233 -224 L164 -224 L257 0 L164 0 L164 193 L358 193 Z " />
<glyph glyph-name="quotedblbase" unicode="&#x201e;" horiz-adv-x="847" d="M697 182 L697 39 L537 -226 L474 -226 L585 0 L510 0 L510 182 L697 182 Z M392 182 L392 39 L225 -226 L150 -226 L273 0 L202 0 L202 182 L392 182 Z " />
<glyph glyph-name="perthousand" unicode="&#x2030;" horiz-adv-x="2102" d="M380 0 L281 0 L1079 1365 L1175 1365 L380 0 Z M344 1379 Q484 1379 557 1264 Q612 1175 612 1032 Q612 875 546 785 Q473 685 347 685 Q268 685 204 730 Q82 815 82 1032 Q82 1189 148 1279 Q183 1328 240 1355 Q291 1379 344 1379 Z M349 1300 Q260 1300 213 1223 Q168 1150 168 1032 Q168 903 221 830 Q268 764 347 764 Q434 764 481 842 Q526 914 526 1032 Q526 1162 474 1234 Q426 1300 349 1300 Z M1111 677 Q1251 677 1324 562 Q1379 473 1379 330 Q1379 173 1313 83 Q1240 -17 1114 -17 Q1035 -17 971 28 Q849 113 849 330 Q849 487 915 577 Q951 626 1007 653 Q1057 677 1111 677 Z M1116 598 Q1028 598 980 520 Q935 448 935 330 Q935 200 988 128 Q1035 62 1114 62 Q1200 62 1248 140 Q1293 212 1293 330 Q1293 460 1240 532 Q1192 598 1116 598 Z M1808 677 Q1948 677 2020 562 Q2075 473 2075 330 Q2075 172 2009 83 Q1936 -17 1811 -17 Q1732 -17 1668 28 Q1546 113 1546 330 Q1546 487 1612 577 Q1685 677 1808 677 Z M1812 598 Q1724 598 1677 520 Q1632 448 1632 330 Q1632 200 1684 128 Q1732 62 1811 62 Q1897 62 1944 140 Q1989 212 1989 330 Q1989 460 1937 532 Q1889 598 1812 598 Z " />
<glyph glyph-name="Acircumflex" unicode="&#xc2;" horiz-adv-x="1032" d="M1025 0 L885 0 L749 428 L258 428 L123 0 L7 0 L445 1365 L587 1365 L1025 0 Z M714 538 L504 1201 L293 538 L714 538 Z M840 1517 L718 1497 L516 1632 L323 1497 L193 1517 L520 1762 L840 1517 Z " />
<glyph glyph-name="Ecircumflex" unicode="&#xca;" horiz-adv-x="1124" d="M1062 114 L1062 0 L181 0 L181 1365 L1038 1365 L1038 1251 L314 1251 L314 775 L886 775 L886 665 L314 665 L314 114 L1062 114 Z M945 1517 L823 1497 L621 1632 L428 1497 L298 1517 L625 1762 L945 1517 Z " />
<glyph glyph-name="Aacute" unicode="&#xc1;" horiz-adv-x="1032" d="M1025 0 L885 0 L749 428 L258 428 L123 0 L7 0 L445 1365 L587 1365 L1025 0 Z M714 538 L504 1201 L293 538 L714 538 Z M797 1789 L856 1685 L443 1490 L400 1557 L797 1789 Z " />
<glyph glyph-name="Edieresis" unicode="&#xcb;" horiz-adv-x="1124" d="M1062 114 L1062 0 L181 0 L181 1365 L1038 1365 L1038 1251 L314 1251 L314 775 L886 775 L886 665 L314 665 L314 114 L1062 114 Z M768 1728 Q811 1728 841 1693 Q866 1665 866 1628 Q866 1585 833 1555 Q803 1527 766 1527 Q722 1527 690 1563 Q665 1591 665 1629 Q665 1669 693 1697 Q724 1728 768 1728 Z M455 1724 Q497 1724 527 1690 Q552 1662 552 1627 Q552 1585 519 1554 Q490 1527 453 1527 Q410 1527 380 1561 Q355 1589 355 1626 Q355 1667 382 1694 Q412 1724 455 1724 Z " />
<glyph glyph-name="Egrave" unicode="&#xc8;" horiz-adv-x="1124" d="M1062 114 L1062 0 L181 0 L181 1365 L1038 1365 L1038 1251 L314 1251 L314 775 L886 775 L886 665 L314 665 L314 114 L1062 114 Z M746 1490 L332 1685 L391 1789 L789 1557 L746 1490 Z " />
<glyph glyph-name="Iacute" unicode="&#xcd;" horiz-adv-x="495" d="M314 0 L181 0 L181 1365 L314 1365 L314 0 Z M460 1792 L522 1694 L156 1498 L112 1566 L460 1792 Z " />
<glyph glyph-name="Icircumflex" unicode="&#xce;" horiz-adv-x="495" d="M314 0 L181 0 L181 1365 L314 1365 L314 0 Z M521 1525 L410 1505 L245 1630 L89 1505 L-30 1525 L249 1764 L521 1525 Z " />
<glyph glyph-name="Idieresis" unicode="&#xcf;" horiz-adv-x="495" d="M314 0 L181 0 L181 1365 L314 1365 L314 0 Z M383 1728 Q426 1728 456 1693 Q481 1664 481 1628 Q481 1585 448 1555 Q418 1527 381 1527 Q337 1527 305 1563 Q280 1591 280 1629 Q280 1669 308 1697 Q339 1728 383 1728 Z M111 1724 Q153 1724 183 1690 Q208 1662 208 1627 Q208 1585 175 1554 Q146 1527 109 1527 Q66 1527 36 1561 Q11 1589 11 1626 Q11 1667 38 1694 Q68 1724 111 1724 Z " />
<glyph glyph-name="Igrave" unicode="&#xcc;" horiz-adv-x="495" d="M314 0 L181 0 L181 1365 L314 1365 L314 0 Z M345 1498 L-21 1694 L41 1792 L389 1566 L345 1498 Z " />
<glyph glyph-name="Oacute" unicode="&#xd3;" horiz-adv-x="1279" d="M639 1396 Q899 1396 1047 1192 Q1191 994 1191 673 Q1191 372 1047 173 Q899 -31 640 -31 Q381 -31 233 173 Q89 372 89 683 Q89 998 233 1192 Q384 1396 639 1396 Z M640 1286 Q450 1286 336 1123 Q224 963 224 683 Q224 403 336 242 Q449 79 639 79 Q831 79 944 242 Q1056 403 1056 691 Q1056 967 944 1123 Q827 1286 640 1286 Z M895 1789 L954 1685 L541 1490 L498 1557 L895 1789 Z " />
<glyph glyph-name="Ocircumflex" unicode="&#xd4;" horiz-adv-x="1279" d="M639 1396 Q899 1396 1047 1192 Q1191 994 1191 673 Q1191 372 1047 173 Q899 -31 640 -31 Q381 -31 233 173 Q89 372 89 683 Q89 998 233 1192 Q384 1396 639 1396 Z M640 1286 Q450 1286 336 1123 Q224 963 224 683 Q224 403 336 242 Q449 79 639 79 Q831 79 944 242 Q1056 403 1056 691 Q1056 967 944 1123 Q827 1286 640 1286 Z M963 1517 L841 1497 L639 1632 L446 1497 L316 1517 L643 1762 L963 1517 Z " />
<glyph glyph-name="Ograve" unicode="&#xd2;" horiz-adv-x="1279" d="M639 1396 Q899 1396 1047 1192 Q1191 994 1191 673 Q1191 372 1047 173 Q899 -31 640 -31 Q381 -31 233 173 Q89 372 89 683 Q89 998 233 1192 Q384 1396 639 1396 Z M640 1286 Q450 1286 336 1123 Q224 963 224 683 Q224 403 336 242 Q449 79 639 79 Q831 79 944 242 Q1056 403 1056 691 Q1056 967 944 1123 Q827 1286 640 1286 Z M764 1490 L350 1685 L410 1789 L807 1557 L764 1490 Z " />
<glyph glyph-name="Uacute" unicode="&#xda;" horiz-adv-x="1250" d="M157 1365 L290 1365 L290 467 Q290 340 303 284 Q328 176 420 125 Q502 79 624 79 Q854 79 931 211 Q974 285 974 467 L974 1365 L1093 1365 L1093 467 Q1093 350 1081 287 Q1022 -31 622 -31 Q306 -31 204 168 Q169 236 161 347 Q157 398 157 476 L157 1365 Z M906 1789 L965 1685 L552 1490 L509 1557 L906 1789 Z " />
<glyph glyph-name="Ucircumflex" unicode="&#xdb;" horiz-adv-x="1250" d="M157 1365 L290 1365 L290 467 Q290 340 303 284 Q328 176 420 125 Q502 79 624 79 Q854 79 931 211 Q974 285 974 467 L974 1365 L1093 1365 L1093 467 Q1093 350 1081 287 Q1022 -31 622 -31 Q306 -31 204 168 Q169 236 161 347 Q157 398 157 476 L157 1365 Z M948 1517 L827 1497 L624 1632 L432 1497 L301 1517 L629 1762 L948 1517 Z " />
<glyph glyph-name="Ugrave" unicode="&#xd9;" horiz-adv-x="1250" d="M157 1365 L290 1365 L290 467 Q290 340 303 284 Q328 176 420 125 Q502 79 624 79 Q854 79 931 211 Q974 285 974 467 L974 1365 L1093 1365 L1093 467 Q1093 350 1081 287 Q1022 -31 622 -31 Q306 -31 204 168 Q169 236 161 347 Q157 398 157 476 L157 1365 Z M743 1490 L329 1685 L388 1789 L786 1557 L743 1490 Z " />
<glyph glyph-name="dotlessi" unicode="&#x131;" horiz-adv-x="436" d="M279 1010 L279 0 L157 0 L157 1010 L279 1010 Z " />
<glyph glyph-name="circumflex" unicode="&#x2c6;" horiz-adv-x="1024" d="M835 1198 L713 1178 L511 1312 L318 1178 L188 1198 L515 1443 L835 1198 Z " />
<glyph glyph-name="tilde" unicode="&#x2dc;" horiz-adv-x="1024" d="M251 1214 L168 1265 Q205 1308 234 1332 Q300 1387 388 1387 Q443 1387 514 1358 L573 1334 Q630 1311 663 1311 Q713 1311 778 1365 L850 1307 Q750 1210 662 1210 Q613 1210 556 1233 L487 1261 Q426 1286 383 1286 Q315 1286 251 1214 Z " />
<glyph glyph-name="macron" unicode="&#xaf;" horiz-adv-x="1024" d="M828 1341 L828 1245 L197 1245 L197 1341 L828 1341 Z " />
<glyph glyph-name="breve" unicode="&#x2d8;" horiz-adv-x="1024" d="M216 1429 L321 1429 Q331 1375 357 1342 Q402 1284 511 1284 Q622 1284 666 1340 Q692 1373 705 1429 L809 1429 Q788 1337 761 1295 Q727 1245 686 1220 Q625 1183 505 1183 Q355 1183 285 1272 Q239 1330 216 1429 Z " />
<glyph glyph-name="dotaccent" unicode="&#x2d9;" horiz-adv-x="1024" d="M513 1409 Q555 1409 586 1374 Q611 1346 611 1309 Q611 1266 578 1236 Q549 1208 511 1208 Q466 1208 435 1244 Q410 1272 410 1310 Q410 1350 438 1378 Q469 1409 513 1409 Z " />
<glyph glyph-name="ring" unicode="&#x2da;" horiz-adv-x="1024" d="M518 1499 Q588 1499 635 1445 Q680 1394 680 1329 Q680 1256 625 1206 Q578 1164 515 1164 Q440 1164 388 1221 Q345 1269 345 1332 Q345 1403 396 1450 Q448 1499 518 1499 Z M514 1427 Q475 1427 446 1398 Q417 1369 417 1331 Q417 1291 450 1262 Q479 1236 515 1236 Q555 1236 584 1268 Q608 1294 608 1331 Q608 1373 576 1402 Q549 1427 514 1427 Z " />
<glyph glyph-name="cedilla" unicode="&#xb8;" horiz-adv-x="1024" d="M442 0 L500 0 L474 -93 Q664 -94 664 -217 Q664 -293 598 -326 Q551 -350 479 -350 Q397 -350 309 -312 L328 -254 Q398 -283 462 -283 Q517 -283 548 -262 Q577 -243 577 -213 Q577 -150 471 -150 Q441 -150 390 -156 L442 0 Z " />
<glyph glyph-name="hungarumlaut" unicode="&#x2dd;" horiz-adv-x="1024" d="M616 1365 L298 1171 L257 1244 L559 1470 L616 1365 Z M937 1365 L618 1171 L572 1244 L879 1470 L937 1365 Z " />
<glyph glyph-name="ogonek" unicode="&#x2db;" horiz-adv-x="1024" d="M917 0 Q794 -82 794 -149 Q794 -220 903 -220 Q947 -220 998 -201 L1019 -268 Q960 -296 890 -296 Q795 -296 739 -255 Q692 -221 692 -161 Q692 -67 822 0 L917 0 Z " />
<glyph glyph-name="caron" unicode="&#x2c7;" horiz-adv-x="1024" d="M188 1409 L310 1430 L512 1295 L705 1430 L835 1409 L508 1164 L188 1409 Z " />
<glyph glyph-name="uni00A0" unicode="&#xa0;" horiz-adv-x="512" d="" />
<glyph glyph-name="currency" unicode="&#xa4;" horiz-adv-x="1365" d="M313 434 Q207 563 207 731 Q207 896 310 1025 L120 1213 L195 1288 L384 1100 Q515 1204 683 1204 Q850 1204 981 1100 L1169 1287 L1243 1213 L1055 1026 Q1158 897 1158 731 Q1158 566 1055 437 L1246 247 L1173 173 L981 363 Q846 258 683 258 Q519 258 387 361 L199 173 L125 247 L313 434 Z M689 1102 Q519 1102 408 979 Q313 874 313 734 Q313 566 435 455 Q541 360 683 360 Q848 360 958 483 Q1053 588 1053 731 Q1053 894 930 1006 Q826 1102 689 1102 Z " />
<glyph glyph-name="brokenbar" unicode="&#xa6;" horiz-adv-x="1024" d="M455 1365 L568 1365 L568 692 L455 692 L455 1365 Z M455 314 L568 314 L568 -341 L455 -341 L455 314 Z " />
<glyph glyph-name="uni00AD" unicode="&#xad;" horiz-adv-x="522" d="M475 553 L475 462 L48 462 L48 553 L475 553 Z " />
<glyph glyph-name="twosuperior" unicode="&#xb2;" horiz-adv-x="792" d="M771 622 L771 546 L172 546 L172 621 Q323 730 510 885 Q604 963 640 1024 Q676 1085 676 1146 Q676 1213 621 1259 Q558 1312 473 1312 Q366 1312 300 1231 Q264 1187 258 1118 L170 1147 Q199 1247 242 1294 Q326 1384 472 1384 Q618 1384 705 1294 Q766 1231 766 1149 Q766 1016 614 875 Q462 735 307 622 L771 622 Z " />
<glyph glyph-name="threesuperior" unicode="&#xb3;" horiz-adv-x="792" d="M254 937 L254 1012 L367 1012 Q491 1012 537 1066 Q573 1108 573 1159 Q573 1220 525 1261 Q470 1308 388 1308 Q290 1308 228 1250 Q200 1224 178 1167 L91 1198 Q131 1273 171 1309 Q254 1384 394 1384 Q538 1384 615 1300 Q671 1240 671 1161 Q671 1091 618 1036 Q581 998 528 980 Q589 970 634 931 Q706 868 706 776 Q706 688 645 622 Q561 529 374 529 Q268 529 192 571 Q121 611 87 665 Q75 685 58 727 L146 762 Q170 694 201 663 Q256 608 381 608 Q516 608 568 669 Q608 716 608 773 Q608 840 559 883 Q497 937 353 937 L254 937 Z " />
<glyph glyph-name="onesuperior" unicode="&#xb9;" horiz-adv-x="792" d="M696 613 L696 546 L179 546 L179 613 L401 613 L401 1267 Q314 1171 170 1084 L170 1179 Q240 1221 324 1289 Q353 1313 418 1382 L490 1382 L490 613 L696 613 Z " />
<glyph glyph-name="onequarter" unicode="&#xbc;" horiz-adv-x="1802" d="M647 613 L647 546 L130 546 L130 613 L352 613 L352 1267 Q265 1171 121 1084 L121 1179 Q191 1221 275 1289 Q304 1313 369 1382 L441 1382 L441 613 L647 613 Z M1700 195 L1558 195 L1558 0 L1470 0 L1470 195 L1034 195 L1034 253 L1428 836 L1558 836 L1558 267 L1700 267 L1700 195 Z M1464 273 L1464 748 L1149 273 L1464 273 Z M527 0 L425 0 L1256 1365 L1356 1365 L527 0 Z " />
<glyph glyph-name="onehalf" unicode="&#xbd;" horiz-adv-x="1802" d="M622 613 L622 546 L105 546 L105 613 L327 613 L327 1267 Q240 1171 96 1084 L96 1179 Q166 1221 250 1289 Q279 1313 344 1382 L416 1382 L416 613 L622 613 Z M1704 76 L1704 0 L1105 0 L1105 75 Q1261 188 1443 339 Q1537 418 1573 479 Q1609 540 1609 601 Q1609 671 1558 718 Q1503 767 1411 767 Q1289 767 1229 691 Q1198 652 1191 572 L1103 602 Q1131 700 1175 750 Q1253 838 1404 838 Q1562 838 1640 752 Q1699 686 1699 602 Q1699 470 1547 329 Q1397 190 1241 76 L1704 76 Z M502 0 L400 0 L1231 1365 L1331 1365 L502 0 Z " />
<glyph glyph-name="threequarters" unicode="&#xbe;" horiz-adv-x="1802" d="M242 937 L242 1012 L354 1012 Q479 1012 525 1066 Q561 1108 561 1159 Q561 1220 513 1261 Q458 1308 376 1308 Q278 1308 216 1250 Q188 1224 166 1167 L79 1198 Q119 1273 159 1309 Q242 1384 382 1384 Q526 1384 603 1300 Q659 1240 659 1161 Q659 1091 606 1036 Q569 998 516 980 Q577 970 622 931 Q694 868 694 777 Q694 689 633 623 Q549 530 362 530 Q256 530 180 572 Q109 611 75 666 Q63 685 46 727 L134 762 Q159 694 189 664 Q243 609 369 609 Q504 609 556 670 Q596 716 596 774 Q596 840 547 883 Q485 937 341 937 L242 937 Z M1512 273 L1512 748 L1196 273 L1512 273 Z M1748 195 L1606 195 L1606 0 L1518 0 L1518 195 L1082 195 L1082 253 L1476 836 L1606 836 L1606 267 L1748 267 L1748 195 Z M592 0 L489 0 L1321 1365 L1421 1365 L592 0 Z " />
<glyph glyph-name="Eth" unicode="&#xd0;" horiz-adv-x="1320" d="M184 792 L184 1365 L615 1365 Q752 1365 837 1340 Q1065 1272 1168 1031 Q1232 881 1232 683 Q1232 312 1023 128 Q905 24 733 4 Q694 0 615 0 L184 0 L184 683 L50 683 L50 792 L184 792 Z M317 792 L637 792 L637 683 L317 683 L317 114 L615 114 Q849 114 967 247 Q1097 392 1097 683 Q1097 1004 939 1147 Q823 1251 615 1251 L317 1251 L317 792 Z " />
<glyph glyph-name="multiply" unicode="&#xd7;" horiz-adv-x="1201" d="M913 289 L600 602 L287 289 L208 369 L521 681 L208 994 L288 1073 L600 761 L913 1073 L992 994 L680 681 L993 369 L913 289 Z " />
<glyph glyph-name="Yacute" unicode="&#xdd;" horiz-adv-x="1003" d="M563 580 L563 0 L430 0 L430 580 L-20 1365 L126 1365 L513 689 L907 1365 L1024 1365 L563 580 Z M773 1789 L833 1685 L419 1490 L376 1557 L773 1789 Z " />
<glyph glyph-name="Thorn" unicode="&#xde;" horiz-adv-x="1112" d="M314 1167 L627 1167 Q816 1167 927 1073 Q1057 963 1057 772 Q1057 558 905 441 Q800 360 641 360 L314 360 L314 0 L181 0 L181 1365 L314 1365 L314 1167 Z M314 473 L628 473 Q750 473 824 531 Q922 607 922 759 Q922 901 840 980 Q765 1053 631 1053 L314 1053 L314 473 Z " />
<glyph glyph-name="eth" unicode="&#xf0;" horiz-adv-x="1038" d="M565 1190 L394 1086 L343 1161 L488 1251 Q426 1296 340 1341 L430 1420 Q516 1383 595 1325 L600 1321 L760 1421 L819 1346 L676 1258 Q956 994 956 532 Q956 273 848 130 Q728 -28 519 -28 Q306 -28 190 130 Q82 276 82 490 Q82 707 190 851 Q252 934 353 977 Q427 1009 507 1009 Q650 1009 762 902 Q703 1068 565 1190 Z M518 908 Q417 908 340 846 Q210 742 210 491 Q210 311 282 199 Q321 137 389 103 Q447 73 514 73 Q675 73 755 199 Q827 311 827 492 Q827 672 755 782 Q673 908 518 908 Z " />
<glyph glyph-name="yacute" unicode="&#xfd;" horiz-adv-x="839" d="M839 1010 L427 -107 Q386 -220 329 -280 Q256 -358 129 -358 Q76 -358 7 -339 L7 -239 Q77 -257 125 -257 Q212 -257 262 -194 Q299 -148 327 -74 L361 18 L19 1010 L146 1010 L422 182 L726 1010 L839 1010 Z M704 1470 L763 1366 L350 1171 L307 1238 L704 1470 Z " />
<glyph glyph-name="thorn" unicode="&#xfe;" horiz-adv-x="1088" d="M279 844 Q393 1038 603 1038 Q798 1038 908 879 Q1007 735 1007 512 Q1007 273 892 119 Q783 -28 593 -28 Q397 -28 279 137 L279 -341 L157 -341 L157 1365 L279 1365 L279 844 Z M279 530 L279 456 Q279 306 332 216 Q373 147 437 110 Q499 73 572 73 Q668 73 745 137 Q807 189 842 282 Q879 381 879 505 Q879 725 786 840 Q707 937 584 937 Q479 937 400 865 Q331 801 299 682 Q279 609 279 530 Z " />
<glyph glyph-name="Amacron" unicode="&#x100;" horiz-adv-x="1032" d="M1025 0 L885 0 L749 428 L258 428 L123 0 L7 0 L445 1365 L587 1365 L1025 0 Z M714 538 L504 1201 L293 538 L714 538 Z M832 1661 L832 1565 L201 1565 L201 1661 L832 1661 Z " />
<glyph glyph-name="amacron" unicode="&#x101;" horiz-adv-x="1081" d="M938 0 L814 0 Q802 84 799 171 Q747 91 696 51 Q595 -28 439 -28 Q291 -28 199 40 Q82 126 82 281 Q82 427 194 518 Q324 624 589 624 Q640 624 799 618 Q800 656 800 669 Q800 804 752 862 Q690 937 522 937 Q373 937 294 871 Q245 830 229 744 L108 767 Q124 845 153 887 Q257 1038 524 1038 Q762 1038 857 916 Q920 835 920 656 L920 192 Q920 79 938 0 Z M799 513 Q641 523 576 523 Q408 523 312 464 Q210 400 210 279 Q210 191 272 133 Q335 73 440 73 Q621 73 728 223 Q799 323 799 476 L799 513 Z M839 1341 L839 1245 L208 1245 L208 1341 L839 1341 Z " />
<glyph glyph-name="Abreve" unicode="&#x102;" horiz-adv-x="1032" d="M1025 0 L885 0 L749 428 L258 428 L123 0 L7 0 L445 1365 L587 1365 L1025 0 Z M714 538 L504 1201 L293 538 L714 538 Z M220 1748 L325 1748 Q335 1694 360 1661 Q405 1603 514 1603 Q626 1603 669 1659 Q695 1692 708 1748 L813 1748 Q792 1655 765 1614 Q731 1564 690 1539 Q629 1502 509 1502 Q359 1502 288 1591 Q243 1649 220 1748 Z " />
<glyph glyph-name="abreve" unicode="&#x103;" horiz-adv-x="1081" d="M938 0 L814 0 Q802 84 799 171 Q747 91 696 51 Q595 -28 439 -28 Q291 -28 199 40 Q82 126 82 281 Q82 427 194 518 Q324 624 589 624 Q640 624 799 618 Q800 656 800 669 Q800 804 752 862 Q690 937 522 937 Q373 937 294 871 Q245 830 229 744 L108 767 Q124 845 153 887 Q257 1038 524 1038 Q762 1038 857 916 Q920 835 920 656 L920 192 Q920 79 938 0 Z M799 513 Q641 523 576 523 Q408 523 312 464 Q210 400 210 279 Q210 191 272 133 Q335 73 440 73 Q621 73 728 223 Q799 323 799 476 L799 513 Z M217 1429 L322 1429 Q332 1375 358 1342 Q403 1284 512 1284 Q623 1284 667 1340 Q693 1373 706 1429 L810 1429 Q789 1337 762 1295 Q728 1245 687 1220 Q626 1183 506 1183 Q356 1183 286 1272 Q240 1330 217 1429 Z " />
<glyph glyph-name="Aogonek" unicode="&#x104;" horiz-adv-x="1032" d="M1025 0 L1020 -4 Q972 -38 948 -61 Q896 -113 896 -170 Q896 -212 926 -233 Q949 -250 987 -250 Q1024 -250 1091 -232 L1118 -308 Q1042 -336 975 -336 Q894 -336 843 -297 Q786 -255 786 -184 Q786 -120 829 -73 Q856 -44 912 -4 L918 0 L885 0 L749 428 L258 428 L123 0 L7 0 L445 1365 L587 1365 L1025 0 Z M714 538 L504 1201 L293 538 L714 538 Z " />
<glyph glyph-name="aogonek" unicode="&#x105;" horiz-adv-x="1082" d="M843 0 L814 0 Q802 84 799 171 Q747 91 696 51 Q595 -28 439 -28 Q291 -28 199 40 Q82 126 82 281 Q82 427 194 518 Q324 624 589 624 Q640 624 799 618 Q800 656 800 669 Q800 804 752 862 Q690 937 522 937 Q373 937 294 871 Q245 830 229 744 L108 767 Q124 845 153 887 Q257 1038 524 1038 Q762 1038 857 916 Q920 835 920 656 L920 192 Q920 82 938 0 Q816 -82 816 -148 Q816 -220 924 -220 Q969 -220 1019 -201 L1041 -268 Q982 -296 911 -296 Q817 -296 761 -255 Q714 -221 714 -161 Q714 -66 843 0 Z M799 513 Q641 523 576 523 Q408 523 312 464 Q210 400 210 279 Q210 191 272 133 Q335 73 440 73 Q621 73 728 223 Q799 323 799 476 L799 513 Z " />
<glyph glyph-name="Cacute" unicode="&#x106;" horiz-adv-x="1186" d="M1146 979 L1018 944 Q986 1064 926 1146 Q874 1217 790 1255 Q723 1286 644 1286 Q495 1286 390 1187 Q301 1103 258 952 Q223 830 223 680 Q223 433 318 271 Q432 79 641 79 Q838 79 952 260 Q999 333 1027 451 L1146 412 Q1109 266 1039 167 Q899 -31 642 -31 Q392 -31 244 156 Q88 354 88 684 Q88 973 206 1157 Q282 1275 399 1337 Q510 1396 645 1396 Q866 1396 1007 1244 Q1103 1139 1146 979 Z M898 1789 L957 1685 L544 1490 L501 1557 L898 1789 Z " />
<glyph glyph-name="cacute" unicode="&#x107;" horiz-adv-x="955" d="M887 689 L771 662 Q761 754 725 816 Q655 937 512 937 Q376 937 295 827 Q210 712 210 517 Q210 327 283 203 Q360 73 508 73 Q642 73 716 191 Q757 257 771 348 L887 321 Q868 226 844 178 Q743 -28 512 -28 Q308 -28 194 126 Q82 279 82 506 Q82 742 206 894 Q323 1038 516 1038 Q737 1038 838 845 Q869 785 887 689 Z M746 1470 L805 1366 L392 1171 L349 1238 L746 1470 Z " />
<glyph glyph-name="Ccircumflex" unicode="&#x108;" horiz-adv-x="1186" d="M1146 979 L1018 944 Q986 1064 926 1146 Q874 1217 790 1255 Q723 1286 644 1286 Q495 1286 390 1187 Q301 1103 258 952 Q223 830 223 680 Q223 433 318 271 Q432 79 641 79 Q838 79 952 260 Q999 333 1027 451 L1146 412 Q1109 266 1039 167 Q899 -31 642 -31 Q392 -31 244 156 Q88 354 88 684 Q88 973 206 1157 Q282 1275 399 1337 Q510 1396 645 1396 Q866 1396 1007 1244 Q1103 1139 1146 979 Z M969 1517 L848 1497 L645 1632 L453 1497 L322 1517 L649 1762 L969 1517 Z " />
<glyph glyph-name="ccircumflex" unicode="&#x109;" horiz-adv-x="955" d="M832 1198 L710 1178 L508 1312 L315 1178 L185 1198 L512 1443 L832 1198 Z M887 689 L771 662 Q761 754 725 816 Q655 937 512 937 Q376 937 295 827 Q210 712 210 517 Q210 327 283 203 Q360 73 508 73 Q642 73 716 191 Q757 257 771 348 L887 321 Q868 226 844 178 Q743 -28 512 -28 Q308 -28 194 126 Q82 279 82 506 Q82 742 206 894 Q323 1038 516 1038 Q737 1038 838 845 Q869 785 887 689 Z " />
<glyph glyph-name="Cdotaccent" unicode="&#x10a;" horiz-adv-x="1186" d="M1146 979 L1018 944 Q986 1064 926 1146 Q874 1217 790 1255 Q723 1286 644 1286 Q495 1286 390 1187 Q301 1103 258 952 Q223 830 223 680 Q223 433 318 271 Q432 79 641 79 Q838 79 952 260 Q999 333 1027 451 L1146 412 Q1109 266 1039 167 Q899 -31 642 -31 Q392 -31 244 156 Q88 354 88 684 Q88 973 206 1157 Q282 1275 399 1337 Q510 1396 645 1396 Q866 1396 1007 1244 Q1103 1139 1146 979 Z M643 1728 Q686 1728 716 1693 Q741 1665 741 1628 Q741 1585 708 1555 Q678 1527 641 1527 Q597 1527 565 1563 Q540 1591 540 1629 Q540 1669 568 1697 Q599 1728 643 1728 Z " />
<glyph glyph-name="cdotaccent" unicode="&#x10b;" horiz-adv-x="955" d="M887 689 L771 662 Q761 754 725 816 Q655 937 512 937 Q376 937 295 827 Q210 712 210 517 Q210 327 283 203 Q360 73 508 73 Q642 73 716 191 Q757 257 771 348 L887 321 Q868 226 844 178 Q743 -28 512 -28 Q308 -28 194 126 Q82 279 82 506 Q82 742 206 894 Q323 1038 516 1038 Q737 1038 838 845 Q869 785 887 689 Z M507 1409 Q549 1409 580 1374 Q605 1345 605 1309 Q605 1267 572 1236 Q543 1208 505 1208 Q460 1208 429 1244 Q404 1273 404 1310 Q404 1350 432 1378 Q463 1409 507 1409 Z " />
<glyph glyph-name="Ccaron" unicode="&#x10c;" horiz-adv-x="1186" d="M1146 979 L1018 944 Q986 1064 926 1146 Q874 1217 790 1255 Q723 1286 644 1286 Q495 1286 390 1187 Q301 1103 258 952 Q223 830 223 680 Q223 433 318 271 Q432 79 641 79 Q838 79 952 260 Q999 333 1027 451 L1146 412 Q1109 266 1039 167 Q899 -31 642 -31 Q392 -31 244 156 Q88 354 88 684 Q88 973 206 1157 Q282 1275 399 1337 Q510 1396 645 1396 Q866 1396 1007 1244 Q1103 1139 1146 979 Z M329 1729 L450 1749 L653 1614 L845 1749 L976 1729 L649 1483 L329 1729 Z " />
<glyph glyph-name="ccaron" unicode="&#x10d;" horiz-adv-x="955" d="M887 689 L771 662 Q761 754 725 816 Q655 937 512 937 Q376 937 295 827 Q210 712 210 517 Q210 327 283 203 Q360 73 508 73 Q642 73 716 191 Q757 257 771 348 L887 321 Q868 226 844 178 Q743 -28 512 -28 Q308 -28 194 126 Q82 279 82 506 Q82 742 206 894 Q323 1038 516 1038 Q737 1038 838 845 Q869 785 887 689 Z M190 1409 L311 1430 L514 1295 L706 1430 L837 1409 L509 1164 L190 1409 Z " />
<glyph glyph-name="Dcaron" unicode="&#x10e;" horiz-adv-x="1316" d="M181 1365 L612 1365 Q749 1365 833 1340 Q1061 1272 1164 1030 Q1228 881 1228 683 Q1228 312 1019 128 Q901 24 729 4 Q690 0 612 0 L181 0 L181 1365 Z M314 1251 L314 114 L612 114 Q845 114 963 247 Q1093 392 1093 683 Q1093 1004 935 1146 Q820 1251 612 1251 L314 1251 Z M301 1729 L423 1749 L625 1614 L818 1749 L948 1729 L621 1483 L301 1729 Z " />
<glyph glyph-name="dcaron" unicode="&#x10f;" horiz-adv-x="1199" d="M809 859 L809 1365 L931 1365 L931 0 L823 0 L823 178 Q770 90 718 49 Q622 -28 488 -28 Q304 -28 193 118 Q81 265 81 496 Q81 736 196 887 Q310 1038 497 1038 Q691 1038 809 859 Z M809 456 L809 553 Q809 704 756 793 Q715 862 651 900 Q589 937 517 937 Q420 937 343 873 Q281 821 246 728 Q209 629 209 505 Q209 305 299 183 Q330 141 377 112 Q442 73 517 73 Q615 73 690 138 Q809 239 809 456 Z M1108 1365 L1253 1365 L1110 1010 L1039 1010 L1108 1365 Z " />
<glyph glyph-name="Dcroat" unicode="&#x110;" horiz-adv-x="1320" d="M184 792 L184 1365 L615 1365 Q752 1365 837 1340 Q1065 1272 1168 1031 Q1232 881 1232 683 Q1232 312 1023 128 Q905 24 733 4 Q694 0 615 0 L184 0 L184 683 L50 683 L50 792 L184 792 Z M317 792 L637 792 L637 683 L317 683 L317 114 L615 114 Q849 114 967 247 Q1097 392 1097 683 Q1097 1004 939 1147 Q823 1251 615 1251 L317 1251 L317 792 Z " />
<glyph glyph-name="dcroat" unicode="&#x111;" horiz-adv-x="1103" d="M931 1141 L931 0 L823 0 L823 178 Q770 91 718 49 Q622 -28 489 -28 Q305 -28 194 118 Q82 265 82 496 Q82 736 197 887 Q311 1038 497 1038 Q691 1038 809 859 L809 1141 L516 1141 L516 1237 L809 1237 L809 1365 L931 1365 L931 1237 L1074 1237 L1074 1141 L931 1141 Z M809 456 L809 553 Q809 704 756 793 Q715 862 651 900 Q589 937 517 937 Q421 937 344 873 Q282 821 247 728 Q210 629 210 505 Q210 306 300 183 Q331 141 378 112 Q443 73 517 73 Q615 73 691 138 Q809 239 809 456 Z " />
<glyph glyph-name="Emacron" unicode="&#x112;" horiz-adv-x="1124" d="M1062 114 L1062 0 L181 0 L181 1365 L1038 1365 L1038 1251 L314 1251 L314 775 L886 775 L886 665 L314 665 L314 114 L1062 114 Z M937 1661 L937 1565 L306 1565 L306 1661 L937 1661 Z " />
<glyph glyph-name="emacron" unicode="&#x113;" horiz-adv-x="1062" d="M980 501 L210 501 Q211 343 267 244 Q363 73 553 73 Q685 73 773 164 Q822 214 847 293 L960 263 Q937 184 886 123 Q760 -28 548 -28 Q332 -28 203 123 Q82 264 82 494 Q82 754 225 902 Q357 1038 555 1038 Q715 1038 825 939 Q929 845 963 689 Q977 624 980 501 Z M847 597 Q837 721 797 795 Q719 937 552 937 Q390 937 292 808 Q236 733 215 597 L847 597 Z M847 1341 L847 1245 L216 1245 L216 1341 L847 1341 Z " />
<glyph glyph-name="Ebreve" unicode="&#x114;" horiz-adv-x="1124" d="M1062 114 L1062 0 L181 0 L181 1365 L1038 1365 L1038 1251 L314 1251 L314 775 L886 775 L886 665 L314 665 L314 114 L1062 114 Z M325 1748 L430 1748 Q441 1694 466 1661 Q511 1603 620 1603 Q731 1603 775 1659 Q801 1692 814 1748 L918 1748 Q898 1655 870 1614 Q836 1564 795 1539 Q735 1502 615 1502 Q464 1502 394 1591 Q348 1649 325 1748 Z " />
<glyph glyph-name="ebreve" unicode="&#x115;" horiz-adv-x="1062" d="M980 501 L210 501 Q211 343 267 244 Q363 73 553 73 Q685 73 773 164 Q822 214 847 293 L960 263 Q937 184 886 123 Q760 -28 548 -28 Q332 -28 203 123 Q82 264 82 494 Q82 754 225 902 Q357 1038 555 1038 Q715 1038 825 939 Q929 845 963 689 Q977 624 980 501 Z M847 597 Q837 721 797 795 Q719 937 552 937 Q390 937 292 808 Q236 733 215 597 L847 597 Z M235 1429 L340 1429 Q350 1375 375 1342 Q420 1284 529 1284 Q640 1284 684 1340 Q710 1373 723 1429 L828 1429 Q807 1337 779 1295 Q746 1245 704 1220 Q644 1183 524 1183 Q374 1183 303 1272 Q257 1330 235 1429 Z " />
<glyph glyph-name="Edotaccent" unicode="&#x116;" horiz-adv-x="1124" d="M1062 114 L1062 0 L181 0 L181 1365 L1038 1365 L1038 1251 L314 1251 L314 775 L886 775 L886 665 L314 665 L314 114 L1062 114 Z M622 1728 Q665 1728 695 1693 Q720 1665 720 1628 Q720 1585 687 1555 Q657 1527 620 1527 Q576 1527 544 1563 Q519 1591 519 1629 Q519 1669 546 1697 Q578 1728 622 1728 Z " />
<glyph glyph-name="edotaccent" unicode="&#x117;" horiz-adv-x="1062" d="M980 501 L210 501 Q211 343 267 244 Q363 73 553 73 Q685 73 773 164 Q822 214 847 293 L960 263 Q937 184 886 123 Q760 -28 548 -28 Q332 -28 203 123 Q82 264 82 494 Q82 754 225 902 Q357 1038 555 1038 Q715 1038 825 939 Q929 845 963 689 Q977 624 980 501 Z M847 597 Q837 721 797 795 Q719 937 552 937 Q390 937 292 808 Q236 733 215 597 L847 597 Z M554 1409 Q596 1409 627 1374 Q652 1346 652 1309 Q652 1266 619 1236 Q590 1208 552 1208 Q507 1208 476 1244 Q451 1272 451 1310 Q451 1350 479 1378 Q510 1409 554 1409 Z " />
<glyph glyph-name="Eogonek" unicode="&#x118;" horiz-adv-x="1124" d="M1062 0 Q1022 -28 1004 -44 Q933 -105 933 -170 Q933 -212 963 -233 Q986 -250 1023 -250 Q1061 -250 1128 -232 L1155 -308 Q1079 -336 1012 -336 Q931 -336 880 -297 Q823 -255 823 -184 Q823 -121 867 -73 Q893 -43 950 -4 L955 0 L181 0 L181 1365 L1038 1365 L1038 1251 L314 1251 L314 775 L886 775 L886 665 L314 665 L314 114 L1062 114 L1062 0 Z " />
<glyph glyph-name="eogonek" unicode="&#x119;" horiz-adv-x="1062" d="M875 -201 L897 -268 Q838 -296 768 -296 Q673 -296 617 -255 Q570 -221 570 -160 Q570 -79 648 -19 Q596 -28 547 -28 Q332 -28 203 123 Q82 264 82 494 Q82 754 225 902 Q357 1038 555 1038 Q715 1038 825 939 Q929 845 963 689 Q977 624 980 501 L210 501 Q211 343 267 244 Q363 73 553 73 Q685 73 773 164 Q822 214 847 293 L960 263 Q946 216 927 182 Q894 122 809 47 Q744 -10 711 -52 Q672 -101 672 -147 Q672 -220 781 -220 Q825 -220 875 -201 Z M847 597 Q837 721 797 795 Q719 937 552 937 Q390 937 292 808 Q236 733 215 597 L847 597 Z " />
<glyph glyph-name="Ecaron" unicode="&#x11a;" horiz-adv-x="1124" d="M1062 114 L1062 0 L181 0 L181 1365 L1038 1365 L1038 1251 L314 1251 L314 775 L886 775 L886 665 L314 665 L314 114 L1062 114 Z M298 1729 L420 1749 L622 1614 L815 1749 L945 1729 L618 1483 L298 1729 Z " />
<glyph glyph-name="ecaron" unicode="&#x11b;" horiz-adv-x="1062" d="M980 501 L210 501 Q211 343 267 244 Q363 73 553 73 Q685 73 773 164 Q822 214 847 293 L960 263 Q937 184 886 123 Q760 -28 548 -28 Q332 -28 203 123 Q82 264 82 494 Q82 754 225 902 Q357 1038 555 1038 Q715 1038 825 939 Q929 845 963 689 Q977 624 980 501 Z M847 597 Q837 721 797 795 Q719 937 552 937 Q390 937 292 808 Q236 733 215 597 L847 597 Z M227 1409 L349 1430 L551 1295 L744 1430 L874 1409 L547 1164 L227 1409 Z " />
<glyph glyph-name="Gcircumflex" unicode="&#x11c;" horiz-adv-x="1330" d="M1180 682 L1180 -27 L1077 -27 L1040 164 Q905 -31 657 -31 Q368 -31 215 201 Q89 393 89 682 Q89 952 196 1131 Q352 1395 669 1395 Q1050 1395 1168 1011 L1033 970 Q998 1089 943 1157 Q840 1285 655 1285 Q432 1285 323 1103 Q224 936 224 689 Q224 426 332 257 Q387 171 478 123 Q560 79 659 79 Q827 79 928 198 Q1035 322 1033 568 L667 568 L667 682 L1180 682 Z M987 1517 L865 1497 L663 1632 L470 1497 L340 1517 L667 1762 L987 1517 Z " />
<glyph glyph-name="gcircumflex" unicode="&#x11d;" horiz-adv-x="988" d="M948 1151 L951 1054 Q930 1055 921 1055 Q844 1055 809 1017 Q779 984 769 920 Q854 810 854 674 Q854 504 740 400 Q644 312 490 312 Q432 312 347 337 Q244 312 244 231 Q244 173 289 150 Q324 132 398 131 L682 126 Q814 124 885 88 Q1009 25 1009 -108 Q1009 -194 949 -260 Q884 -331 741 -366 Q639 -391 512 -391 Q312 -391 189 -328 Q61 -263 61 -127 Q61 22 218 72 Q116 118 116 227 Q116 353 246 396 Q120 518 120 680 Q120 839 226 939 Q330 1038 497 1038 Q608 1038 702 984 Q724 1083 767 1121 Q808 1156 897 1156 Q922 1156 948 1151 Z M485 937 Q368 937 302 852 Q248 783 248 677 Q248 554 316 482 Q381 413 486 413 Q595 413 660 487 Q726 563 726 673 Q726 797 656 868 Q590 937 485 937 Z M332 34 Q271 10 240 -14 Q189 -55 189 -120 Q189 -290 516 -290 Q880 -290 880 -111 Q880 -23 794 7 Q747 23 634 24 L405 28 Q397 28 371 30 Q358 32 332 34 Z M842 1198 L720 1178 L518 1312 L325 1178 L195 1198 L522 1443 L842 1198 Z " />
<glyph glyph-name="Gbreve" unicode="&#x11e;" horiz-adv-x="1330" d="M1180 682 L1180 -27 L1077 -27 L1040 164 Q905 -31 657 -31 Q368 -31 215 201 Q89 393 89 682 Q89 952 196 1131 Q352 1395 669 1395 Q1050 1395 1168 1011 L1033 970 Q998 1089 943 1157 Q840 1285 655 1285 Q432 1285 323 1103 Q224 936 224 689 Q224 426 332 257 Q387 171 478 123 Q560 79 659 79 Q827 79 928 198 Q1035 322 1033 568 L667 568 L667 682 L1180 682 Z M386 1748 L492 1748 Q502 1694 527 1661 Q572 1603 681 1603 Q792 1603 836 1659 Q862 1692 875 1748 L979 1748 Q959 1655 931 1614 Q898 1564 856 1539 Q796 1502 676 1502 Q525 1502 455 1591 Q409 1649 386 1748 Z " />
<glyph glyph-name="gbreve" unicode="&#x11f;" horiz-adv-x="988" d="M948 1151 L951 1054 Q930 1055 921 1055 Q844 1055 809 1017 Q779 984 769 920 Q854 810 854 674 Q854 504 740 400 Q644 312 490 312 Q432 312 347 337 Q244 312 244 231 Q244 173 289 150 Q324 132 398 131 L682 126 Q814 124 885 88 Q1009 25 1009 -108 Q1009 -194 949 -260 Q884 -331 741 -366 Q639 -391 512 -391 Q312 -391 189 -328 Q61 -263 61 -127 Q61 22 218 72 Q116 118 116 227 Q116 353 246 396 Q120 518 120 680 Q120 839 226 939 Q330 1038 497 1038 Q608 1038 702 984 Q724 1083 767 1121 Q808 1156 897 1156 Q922 1156 948 1151 Z M485 937 Q368 937 302 852 Q248 783 248 677 Q248 554 316 482 Q381 413 486 413 Q595 413 660 487 Q726 563 726 673 Q726 797 656 868 Q590 937 485 937 Z M332 34 Q271 10 240 -14 Q189 -55 189 -120 Q189 -290 516 -290 Q880 -290 880 -111 Q880 -23 794 7 Q747 23 634 24 L405 28 Q397 28 371 30 Q358 32 332 34 Z M209 1429 L315 1429 Q325 1375 350 1342 Q395 1284 504 1284 Q615 1284 659 1340 Q685 1373 698 1429 L803 1429 Q782 1337 754 1295 Q721 1245 679 1220 Q619 1183 499 1183 Q348 1183 278 1272 Q232 1330 209 1429 Z " />
<glyph glyph-name="Gdotaccent" unicode="&#x120;" horiz-adv-x="1330" d="M1180 682 L1180 -27 L1077 -27 L1040 164 Q905 -31 657 -31 Q368 -31 215 201 Q89 393 89 682 Q89 952 196 1131 Q352 1395 669 1395 Q1050 1395 1168 1011 L1033 970 Q998 1089 943 1157 Q840 1285 655 1285 Q432 1285 323 1103 Q224 936 224 689 Q224 426 332 257 Q387 171 478 123 Q560 79 659 79 Q827 79 928 198 Q1035 322 1033 568 L667 568 L667 682 L1180 682 Z M677 1728 Q720 1728 750 1693 Q775 1664 775 1628 Q775 1585 742 1555 Q712 1527 675 1527 Q631 1527 599 1563 Q574 1591 574 1629 Q574 1669 602 1697 Q633 1728 677 1728 Z " />
<glyph glyph-name="gdotaccent" unicode="&#x121;" horiz-adv-x="988" d="M948 1151 L951 1054 Q930 1055 921 1055 Q844 1055 809 1017 Q779 984 769 920 Q854 810 854 674 Q854 504 740 400 Q644 312 490 312 Q432 312 347 337 Q244 312 244 231 Q244 173 289 150 Q324 132 398 131 L682 126 Q814 124 885 88 Q1009 25 1009 -108 Q1009 -194 949 -260 Q884 -331 741 -366 Q639 -391 512 -391 Q312 -391 189 -328 Q61 -263 61 -127 Q61 22 218 72 Q116 118 116 227 Q116 353 246 396 Q120 518 120 680 Q120 839 226 939 Q330 1038 497 1038 Q608 1038 702 984 Q724 1083 767 1121 Q808 1156 897 1156 Q922 1156 948 1151 Z M485 937 Q368 937 302 852 Q248 783 248 677 Q248 554 316 482 Q381 413 486 413 Q595 413 660 487 Q726 563 726 673 Q726 797 656 868 Q590 937 485 937 Z M332 34 Q271 10 240 -14 Q189 -55 189 -120 Q189 -290 516 -290 Q880 -290 880 -111 Q880 -23 794 7 Q747 23 634 24 L405 28 Q397 28 371 30 Q358 32 332 34 Z M506 1409 Q548 1409 579 1374 Q604 1346 604 1309 Q604 1266 571 1236 Q542 1208 504 1208 Q459 1208 428 1244 Q403 1272 403 1310 Q403 1350 431 1378 Q462 1409 506 1409 Z " />
<glyph glyph-name="Gcommaaccent" unicode="&#x122;" horiz-adv-x="1330" d="M1180 682 L1180 -27 L1077 -27 L1040 164 Q905 -31 657 -31 Q368 -31 215 201 Q89 393 89 682 Q89 952 196 1131 Q352 1395 669 1395 Q1050 1395 1168 1011 L1033 970 Q998 1089 943 1157 Q840 1285 655 1285 Q432 1285 323 1103 Q224 936 224 689 Q224 426 332 257 Q387 171 478 123 Q560 79 659 79 Q827 79 928 198 Q1035 322 1033 568 L667 568 L667 682 L1180 682 Z M583 -109 L728 -109 L584 -465 L514 -465 L583 -109 Z " />
<glyph glyph-name="gcommaaccent" unicode="&#x123;" horiz-adv-x="988" d="M948 1151 L951 1054 Q930 1055 921 1055 Q844 1055 809 1017 Q779 984 769 920 Q854 810 854 674 Q854 504 740 400 Q644 312 490 312 Q432 312 347 337 Q244 312 244 231 Q244 173 289 150 Q324 132 398 131 L682 126 Q814 124 885 88 Q1009 25 1009 -108 Q1009 -194 949 -260 Q884 -331 741 -366 Q639 -391 512 -391 Q312 -391 189 -328 Q61 -263 61 -127 Q61 22 218 72 Q116 118 116 227 Q116 353 246 396 Q120 518 120 680 Q120 839 226 939 Q330 1038 497 1038 Q608 1038 702 984 Q724 1083 767 1121 Q808 1156 897 1156 Q922 1156 948 1151 Z M485 937 Q368 937 302 852 Q248 783 248 677 Q248 554 316 482 Q381 413 486 413 Q595 413 660 487 Q726 563 726 673 Q726 797 656 868 Q590 937 485 937 Z M332 34 Q271 10 240 -14 Q189 -55 189 -120 Q189 -290 516 -290 Q880 -290 880 -111 Q880 -23 794 7 Q747 23 634 24 L405 28 Q397 28 371 30 Q358 32 332 34 Z M581 1176 L436 1176 L580 1532 L650 1532 L581 1176 Z " />
<glyph glyph-name="Hcircumflex" unicode="&#x124;" horiz-adv-x="1318" d="M1137 0 L1004 0 L1004 681 L314 681 L314 0 L181 0 L181 1365 L314 1365 L314 795 L1004 795 L1004 1365 L1137 1365 L1137 0 Z M982 1517 L861 1497 L658 1632 L466 1497 L335 1517 L662 1762 L982 1517 Z " />
<glyph glyph-name="hcircumflex" unicode="&#x125;" horiz-adv-x="1070" d="M574 1525 L457 1505 L254 1630 L61 1505 L-65 1525 L258 1764 L574 1525 Z M926 0 L804 0 L804 641 Q804 789 761 855 Q708 937 595 937 Q436 937 344 797 Q279 697 279 555 L279 0 L157 0 L157 1365 L279 1365 L279 819 Q390 1038 607 1038 Q787 1038 872 899 Q926 812 926 639 L926 0 Z " />
<glyph glyph-name="Hbar" unicode="&#x126;" horiz-adv-x="1318" d="M181 1157 L181 1365 L314 1365 L314 1157 L1004 1157 L1004 1365 L1137 1365 L1137 1157 L1263 1157 L1263 1048 L1137 1048 L1137 0 L1004 0 L1004 681 L314 681 L314 0 L181 0 L181 1048 L55 1048 L55 1157 L181 1157 Z M1004 1048 L314 1048 L314 795 L1004 795 L1004 1048 Z " />
<glyph glyph-name="hbar" unicode="&#x127;" horiz-adv-x="1070" d="M157 1237 L157 1365 L279 1365 L279 1237 L582 1237 L582 1141 L279 1141 L279 819 Q391 1038 607 1038 Q709 1038 786 988 Q885 925 914 792 Q927 729 927 639 L927 0 L805 0 L805 641 Q805 789 762 855 Q708 937 596 937 Q436 937 345 797 Q279 698 279 555 L279 0 L157 0 L157 1141 L31 1141 L31 1237 L157 1237 Z " />
<glyph glyph-name="Itilde" unicode="&#x128;" horiz-adv-x="495" d="M314 0 L181 0 L181 1365 L314 1365 L314 0 Z M-12 1534 L-96 1584 Q-59 1627 -30 1652 Q36 1707 124 1707 Q178 1707 250 1678 L309 1654 Q364 1631 399 1631 Q449 1631 514 1684 L586 1626 Q486 1530 398 1530 Q347 1530 292 1553 L223 1581 Q161 1606 120 1606 Q51 1606 -12 1534 Z " />
<glyph glyph-name="itilde" unicode="&#x129;" horiz-adv-x="454" d="M289 1010 L289 0 L167 0 L167 1010 L289 1010 Z M-30 1214 L-113 1265 Q-76 1308 -47 1332 Q19 1387 107 1387 Q162 1387 233 1358 L292 1334 Q349 1311 382 1311 Q432 1311 497 1365 L569 1307 Q469 1210 381 1210 Q332 1210 275 1233 L206 1261 Q145 1286 102 1286 Q34 1286 -30 1214 Z " />
<glyph glyph-name="Imacron" unicode="&#x12a;" horiz-adv-x="495" d="M314 0 L181 0 L181 1365 L314 1365 L314 0 Z M467 1661 L467 1565 L35 1565 L35 1661 L467 1661 Z " />
<glyph glyph-name="imacron" unicode="&#x12b;" horiz-adv-x="436" d="M279 1010 L279 0 L157 0 L157 1010 L279 1010 Z M430 1341 L430 1245 L24 1245 L24 1341 L430 1341 Z " />
<glyph glyph-name="Ibreve" unicode="&#x12c;" horiz-adv-x="495" d="M314 0 L181 0 L181 1365 L314 1365 L314 0 Z M-49 1748 L56 1748 Q67 1694 92 1661 Q137 1603 246 1603 Q357 1603 401 1659 Q427 1692 440 1748 L544 1748 Q523 1655 496 1614 Q462 1564 421 1539 Q361 1502 240 1502 Q90 1502 20 1591 Q-26 1649 -49 1748 Z " />
<glyph glyph-name="ibreve" unicode="&#x12d;" horiz-adv-x="436" d="M447 1429 Q415 1183 218 1183 Q22 1183 -10 1429 L95 1429 Q101 1374 114 1346 Q142 1284 218 1284 Q294 1284 322 1346 Q336 1374 341 1429 L447 1429 Z M279 1010 L279 0 L157 0 L157 1010 L279 1010 Z " />
<glyph glyph-name="Iogonek" unicode="&#x12e;" horiz-adv-x="495" d="M207 0 L181 0 L181 1365 L314 1365 L314 0 Q213 -87 213 -168 Q213 -250 290 -250 Q320 -250 379 -232 L407 -308 Q338 -336 277 -336 Q202 -336 155 -297 Q103 -253 103 -179 Q103 -103 163 -40 Q175 -27 207 0 Z " />
<glyph glyph-name="iogonek" unicode="&#x12f;" horiz-adv-x="454" d="M290 0 Q198 -80 198 -145 Q198 -220 281 -220 Q320 -220 371 -202 L392 -269 Q333 -296 266 -296 Q181 -296 136 -254 Q96 -217 96 -157 Q96 -66 194 0 L168 0 L168 1010 L290 1010 L290 0 Z M297 1365 L297 1222 L157 1222 L157 1365 L297 1365 Z " />
<glyph glyph-name="Idotaccent" unicode="&#x130;" horiz-adv-x="495" d="M314 0 L181 0 L181 1365 L314 1365 L314 0 Z M248 1728 Q291 1728 321 1693 Q346 1664 346 1628 Q346 1585 313 1555 Q283 1527 246 1527 Q202 1527 170 1563 Q145 1591 145 1629 Q145 1669 173 1697 Q204 1728 248 1728 Z " />
<glyph glyph-name="IJ" unicode="&#x132;" horiz-adv-x="1258" d="M314 0 L181 0 L181 1365 L314 1365 L314 0 Z M1091 1365 L1091 413 Q1091 286 1074 221 Q1042 94 934 27 Q840 -31 695 -31 Q619 -31 536 -11 L502 -3 Q497 -1 492 0 L492 110 Q595 79 688 79 Q875 79 930 199 Q958 260 958 413 L958 1365 L1091 1365 Z " />
<glyph glyph-name="ij" unicode="&#x133;" horiz-adv-x="900" d="M289 1010 L289 0 L167 0 L167 1010 L289 1010 Z M297 1365 L297 1222 L157 1222 L157 1365 L297 1365 Z M749 1365 L749 1222 L595 1222 L595 1365 L749 1365 Z M616 1010 L737 1010 L737 -1 Q737 -157 679 -230 Q606 -321 456 -321 Q414 -321 315 -309 L315 -213 Q385 -222 430 -222 Q552 -222 591 -149 Q616 -102 616 -5 L616 1010 Z " />
<glyph glyph-name="Jcircumflex" unicode="&#x134;" horiz-adv-x="767" d="M834 1525 L717 1505 L514 1630 L321 1505 L195 1525 L518 1764 L834 1525 Z M599 1365 L599 413 Q599 287 582 221 Q550 94 442 27 Q348 -31 202 -31 Q127 -31 44 -11 L0 0 L0 110 Q103 79 196 79 Q383 79 438 199 Q466 260 466 413 L466 1365 L599 1365 Z " />
<glyph glyph-name="jcircumflex" unicode="&#x135;" horiz-adv-x="453" d="M544 1198 L422 1178 L220 1312 L27 1178 L-103 1198 L224 1443 L544 1198 Z M169 1010 L290 1010 L290 -1 Q290 -157 232 -230 Q159 -321 9 -321 Q-33 -321 -132 -309 L-132 -213 Q-63 -222 -17 -222 Q105 -222 144 -149 Q169 -101 169 -5 L169 1010 Z " />
<glyph glyph-name="Kcommaaccent" unicode="&#x136;" horiz-adv-x="1227" d="M623 753 L314 373 L314 0 L181 0 L181 1365 L314 1365 L314 535 L980 1365 L1120 1365 L708 858 L1220 0 L1073 0 L623 753 Z M598 -109 L743 -109 L599 -465 L529 -465 L598 -109 Z " />
<glyph glyph-name="kcommaaccent" unicode="&#x137;" horiz-adv-x="948" d="M934 0 L809 0 L487 565 L279 334 L279 0 L157 0 L157 1365 L279 1365 L279 478 L760 1010 L889 1010 L562 648 L934 0 Z M471 -109 L616 -109 L473 -465 L402 -465 L471 -109 Z " />
<glyph glyph-name="kgreenlandic" unicode="&#x138;" horiz-adv-x="961" d="M934 0 L809 0 L487 565 L279 334 L279 0 L157 0 L157 1010 L279 1010 L279 478 L760 1010 L889 1010 L562 648 L934 0 Z " />
<glyph glyph-name="Lacute" unicode="&#x139;" horiz-adv-x="976" d="M969 114 L969 0 L181 0 L181 1365 L314 1365 L314 114 L969 114 Z M532 1789 L592 1685 L178 1490 L135 1557 L532 1789 Z " />
<glyph glyph-name="lacute" unicode="&#x13a;" horiz-adv-x="436" d="M279 0 L157 0 L157 1365 L279 1365 L279 0 Z M418 1792 L478 1694 L159 1498 L115 1566 L418 1792 Z " />
<glyph glyph-name="Lcommaaccent" unicode="&#x13b;" horiz-adv-x="976" d="M969 114 L969 0 L181 0 L181 1365 L314 1365 L314 114 L969 114 Z M524 -109 L669 -109 L525 -465 L455 -465 L524 -109 Z " />
<glyph glyph-name="lcommaaccent" unicode="&#x13c;" horiz-adv-x="436" d="M279 0 L157 0 L157 1365 L279 1365 L279 0 Z M144 -109 L289 -109 L145 -465 L75 -465 L144 -109 Z " />
<glyph glyph-name="Lcaron" unicode="&#x13d;" horiz-adv-x="976" d="M969 114 L969 0 L181 0 L181 1365 L314 1365 L314 114 L969 114 Z M613 1365 L758 1365 L614 1010 L544 1010 L613 1365 Z " />
<glyph glyph-name="lcaron" unicode="&#x13e;" horiz-adv-x="535" d="M279 0 L157 0 L157 1365 L279 1365 L279 0 Z M445 1365 L590 1365 L446 1010 L376 1010 L445 1365 Z " />
<glyph glyph-name="Ldot" unicode="&#x13f;" horiz-adv-x="976" d="M969 114 L969 0 L181 0 L181 1365 L314 1365 L314 114 L969 114 Z M722 766 L722 623 L573 623 L573 766 L722 766 Z " />
<glyph glyph-name="ldot" unicode="&#x140;" horiz-adv-x="542" d="M279 0 L157 0 L157 1365 L279 1365 L279 0 Z M542 756 L542 633 L414 633 L414 756 L542 756 Z " />
<glyph glyph-name="Lslash" unicode="&#x141;" horiz-adv-x="976" d="M181 652 L181 1365 L314 1365 L314 784 L566 1032 L566 904 L314 655 L314 114 L970 114 L970 0 L181 0 L181 524 L53 397 L53 526 L181 652 Z " />
<glyph glyph-name="lslash" unicode="&#x142;" horiz-adv-x="449" d="M164 708 L164 1365 L286 1365 L286 807 L421 917 L421 798 L286 687 L286 0 L164 0 L164 587 L28 476 L28 597 L164 708 Z " />
<glyph glyph-name="Nacute" unicode="&#x143;" horiz-adv-x="1354" d="M997 0 L307 1182 L307 0 L181 0 L181 1365 L358 1365 L1047 183 L1047 1365 L1173 1365 L1173 0 L997 0 Z M942 1789 L1001 1685 L588 1490 L545 1557 L942 1789 Z " />
<glyph glyph-name="nacute" unicode="&#x144;" horiz-adv-x="1070" d="M926 0 L804 0 L804 641 Q804 789 761 855 Q708 937 595 937 Q436 937 344 797 Q279 698 279 555 L279 0 L157 0 L157 1010 L279 1010 L279 819 Q390 1038 607 1038 Q787 1038 872 899 Q926 812 926 639 L926 0 Z M823 1470 L882 1366 L468 1171 L425 1238 L823 1470 Z " />
<glyph glyph-name="Ncommaaccent" unicode="&#x145;" horiz-adv-x="1354" d="M997 0 L307 1182 L307 0 L181 0 L181 1365 L358 1365 L1047 183 L1047 1365 L1173 1365 L1173 0 L997 0 Z M616 -109 L761 -109 L617 -465 L547 -465 L616 -109 Z " />
<glyph glyph-name="ncommaaccent" unicode="&#x146;" horiz-adv-x="1070" d="M926 0 L804 0 L804 641 Q804 789 761 855 Q708 937 595 937 Q436 937 344 797 Q279 698 279 555 L279 0 L157 0 L157 1010 L279 1010 L279 819 Q390 1038 607 1038 Q787 1038 872 899 Q926 812 926 639 L926 0 Z M484 -109 L629 -109 L485 -465 L415 -465 L484 -109 Z " />
<glyph glyph-name="Ncaron" unicode="&#x147;" horiz-adv-x="1354" d="M997 0 L307 1182 L307 0 L181 0 L181 1365 L358 1365 L1047 183 L1047 1365 L1173 1365 L1173 0 L997 0 Z M353 1729 L475 1749 L677 1614 L870 1749 L1000 1729 L673 1483 L353 1729 Z " />
<glyph glyph-name="ncaron" unicode="&#x148;" horiz-adv-x="1070" d="M926 0 L804 0 L804 641 Q804 789 761 855 Q708 937 595 937 Q436 937 344 797 Q279 698 279 555 L279 0 L157 0 L157 1010 L279 1010 L279 819 Q390 1038 607 1038 Q787 1038 872 899 Q926 812 926 639 L926 0 Z M218 1409 L340 1430 L542 1295 L735 1430 L865 1409 L538 1164 L218 1409 Z " />
<glyph glyph-name="napostrophe" unicode="&#x149;" horiz-adv-x="1192" d="M194 1365 L194 1172 L69 948 L0 948 L93 1172 L0 1172 L0 1365 L194 1365 Z M1049 0 L927 0 L927 641 Q927 789 884 855 Q830 937 718 937 Q558 937 467 797 Q401 697 401 555 L401 0 L279 0 L279 1010 L401 1010 L401 819 Q513 1038 729 1038 Q910 1038 995 899 Q1049 812 1049 639 L1049 0 Z " />
<glyph glyph-name="Eng" unicode="&#x14a;" horiz-adv-x="1318" d="M181 1365 L306 1365 L306 1105 Q431 1396 720 1396 Q883 1396 997 1306 Q1087 1235 1117 1117 Q1137 1035 1137 920 L1137 65 Q1137 -71 1102 -155 Q1071 -228 1011 -272 Q937 -327 834 -327 Q775 -327 675 -304 L675 -189 Q760 -217 820 -217 Q1004 -217 1004 59 L1004 920 Q1004 1286 713 1286 Q571 1286 467 1189 Q376 1102 336 959 Q314 877 314 792 L314 0 L181 0 L181 1365 Z " />
<glyph glyph-name="eng" unicode="&#x14b;" horiz-adv-x="1070" d="M504 -309 L504 -213 Q573 -222 619 -222 Q741 -222 780 -149 Q805 -102 805 -5 L805 641 Q805 789 762 855 Q708 937 595 937 Q436 937 344 797 Q279 698 279 555 L279 0 L157 0 L157 1010 L279 1010 L279 819 Q390 1038 607 1038 Q788 1038 873 899 Q926 813 926 639 L926 -1 Q926 -157 868 -230 Q795 -321 645 -321 Q603 -321 504 -309 Z " />
<glyph glyph-name="Omacron" unicode="&#x14c;" horiz-adv-x="1279" d="M639 1396 Q899 1396 1047 1192 Q1191 994 1191 673 Q1191 372 1047 173 Q899 -31 640 -31 Q381 -31 233 173 Q89 372 89 683 Q89 998 233 1192 Q384 1396 639 1396 Z M640 1286 Q450 1286 336 1123 Q224 963 224 683 Q224 403 336 242 Q449 79 639 79 Q831 79 944 242 Q1056 403 1056 691 Q1056 967 944 1123 Q827 1286 640 1286 Z M955 1661 L955 1565 L325 1565 L325 1661 L955 1661 Z " />
<glyph glyph-name="omacron" unicode="&#x14d;" horiz-adv-x="1038" d="M519 1038 Q654 1038 758 964 Q873 883 924 723 Q956 622 956 505 Q956 285 848 134 Q786 48 685 4 Q610 -28 525 -28 Q306 -28 190 134 Q82 285 82 507 Q82 728 190 876 Q308 1038 519 1038 Z M519 937 Q417 937 340 873 Q210 765 210 505 Q210 320 282 203 Q321 140 389 104 Q448 73 514 73 Q675 73 756 203 Q828 320 828 507 Q828 693 756 807 Q673 937 519 937 Z M834 1341 L834 1245 L204 1245 L204 1341 L834 1341 Z " />
<glyph glyph-name="Obreve" unicode="&#x14e;" horiz-adv-x="1279" d="M350 1749 L452 1749 Q459 1703 481 1674 Q526 1618 640 1618 Q751 1618 797 1673 Q820 1702 828 1749 L930 1749 Q914 1667 891 1632 Q858 1580 815 1554 Q755 1517 640 1517 Q502 1517 434 1582 Q380 1633 365 1687 Q360 1705 350 1749 Z M639 1396 Q899 1396 1047 1192 Q1191 994 1191 673 Q1191 372 1047 173 Q899 -31 640 -31 Q381 -31 233 173 Q89 372 89 683 Q89 998 233 1192 Q384 1396 639 1396 Z M640 1286 Q450 1286 336 1123 Q224 963 224 683 Q224 403 336 242 Q449 79 639 79 Q831 79 944 242 Q1056 403 1056 691 Q1056 967 944 1123 Q827 1286 640 1286 Z " />
<glyph glyph-name="obreve" unicode="&#x14f;" horiz-adv-x="1038" d="M231 1429 L336 1429 Q347 1375 371 1342 Q416 1284 526 1284 Q636 1284 680 1340 Q707 1373 719 1429 L824 1429 Q803 1337 775 1295 Q742 1245 700 1220 Q640 1183 520 1183 Q369 1183 299 1272 Q254 1330 231 1429 Z M519 1038 Q654 1038 758 964 Q873 883 924 723 Q956 622 956 505 Q956 285 848 134 Q786 48 685 4 Q610 -28 525 -28 Q306 -28 190 134 Q82 285 82 507 Q82 728 190 876 Q308 1038 519 1038 Z M519 937 Q417 937 340 873 Q210 765 210 505 Q210 320 282 203 Q321 140 389 104 Q448 73 514 73 Q675 73 756 203 Q828 320 828 507 Q828 693 756 807 Q673 937 519 937 Z " />
<glyph glyph-name="Ohungarumlaut" unicode="&#x150;" horiz-adv-x="1279" d="M639 1396 Q899 1396 1047 1192 Q1191 994 1191 673 Q1191 372 1047 173 Q899 -31 640 -31 Q381 -31 233 173 Q89 372 89 683 Q89 998 233 1192 Q384 1396 639 1396 Z M640 1286 Q450 1286 336 1123 Q224 963 224 683 Q224 403 336 242 Q449 79 639 79 Q831 79 944 242 Q1056 403 1056 691 Q1056 967 944 1123 Q827 1286 640 1286 Z M744 1685 L425 1490 L385 1563 L686 1789 L744 1685 Z M1065 1685 L746 1490 L700 1563 L1007 1789 L1065 1685 Z " />
<glyph glyph-name="ohungarumlaut" unicode="&#x151;" horiz-adv-x="1038" d="M519 1038 Q654 1038 758 964 Q873 883 924 723 Q956 622 956 505 Q956 285 848 134 Q786 48 685 4 Q610 -28 525 -28 Q306 -28 190 134 Q82 285 82 507 Q82 728 190 876 Q308 1038 519 1038 Z M519 937 Q417 937 340 873 Q210 765 210 505 Q210 320 282 203 Q321 140 389 104 Q448 73 514 73 Q675 73 756 203 Q828 320 828 507 Q828 693 756 807 Q673 937 519 937 Z M639 1365 L320 1171 L280 1244 L581 1470 L639 1365 Z M960 1365 L641 1171 L595 1244 L902 1470 L960 1365 Z " />
<glyph glyph-name="Racute" unicode="&#x154;" horiz-adv-x="1215" d="M704 604 L314 604 L314 0 L181 0 L181 1365 L691 1365 Q891 1365 994 1272 Q1098 1178 1098 999 Q1098 773 926 667 Q883 641 838 626 L1122 0 L974 0 L704 604 Z M314 717 L680 717 Q809 717 876 776 Q963 851 963 996 Q963 1139 871 1205 Q807 1251 701 1251 L314 1251 L314 717 Z M833 1789 L893 1685 L479 1490 L436 1557 L833 1789 Z " />
<glyph glyph-name="racute" unicode="&#x155;" horiz-adv-x="662" d="M645 1031 L645 931 Q602 938 574 938 Q438 938 358 818 Q279 701 279 552 L279 0 L157 0 L157 1010 L265 1010 L265 776 Q322 927 398 984 Q469 1038 574 1038 Q609 1038 645 1031 Z M631 1470 L690 1366 L276 1171 L233 1238 L631 1470 Z " />
<glyph glyph-name="Rcommaaccent" unicode="&#x156;" horiz-adv-x="1215" d="M704 604 L314 604 L314 0 L181 0 L181 1365 L691 1365 Q891 1365 994 1272 Q1098 1178 1098 999 Q1098 773 926 667 Q883 641 838 626 L1122 0 L974 0 L704 604 Z M314 717 L680 717 Q809 717 876 776 Q963 851 963 996 Q963 1139 871 1205 Q807 1251 701 1251 L314 1251 L314 717 Z M559 -109 L704 -109 L560 -465 L489 -465 L559 -109 Z " />
<glyph glyph-name="rcommaaccent" unicode="&#x157;" horiz-adv-x="662" d="M645 1031 L645 931 Q602 938 574 938 Q438 938 358 818 Q279 701 279 552 L279 0 L157 0 L157 1010 L265 1010 L265 776 Q323 927 398 984 Q470 1038 574 1038 Q609 1038 645 1031 Z M167 -109 L312 -109 L168 -465 L98 -465 L167 -109 Z " />
<glyph glyph-name="Rcaron" unicode="&#x158;" horiz-adv-x="1215" d="M704 604 L314 604 L314 0 L181 0 L181 1365 L691 1365 Q891 1365 994 1272 Q1098 1178 1098 999 Q1098 773 926 667 Q883 641 838 626 L1122 0 L974 0 L704 604 Z M314 717 L680 717 Q809 717 876 776 Q963 851 963 996 Q963 1139 871 1205 Q807 1251 701 1251 L314 1251 L314 717 Z M251 1729 L373 1749 L575 1614 L768 1749 L898 1729 L571 1483 L251 1729 Z " />
<glyph glyph-name="rcaron" unicode="&#x159;" horiz-adv-x="662" d="M646 1031 L646 931 Q603 938 575 938 Q439 938 359 818 Q280 700 280 552 L280 0 L158 0 L158 1010 L266 1010 L266 776 Q323 927 399 984 Q470 1038 575 1038 Q610 1038 646 1031 Z M78 1409 L200 1430 L402 1295 L595 1430 L725 1409 L398 1164 L78 1409 Z " />
<glyph glyph-name="Sacute" unicode="&#x15a;" horiz-adv-x="1133" d="M55 344 L186 372 Q219 263 293 193 Q410 82 592 82 Q772 82 874 187 Q944 259 944 362 Q944 468 872 530 Q820 574 722 601 L455 674 Q354 701 312 721 Q118 814 118 1026 Q118 1194 250 1298 Q370 1393 560 1393 Q806 1393 939 1242 Q998 1175 1028 1075 L907 1041 Q880 1132 823 1188 Q724 1283 562 1283 Q433 1283 349 1223 Q253 1155 253 1038 Q253 928 338 867 Q384 835 483 807 L762 731 Q920 687 996 606 Q1079 517 1079 377 Q1079 215 971 105 Q840 -28 586 -28 Q313 -28 172 130 Q99 213 55 344 Z M822 1789 L882 1685 L468 1490 L425 1557 L822 1789 Z " />
<glyph glyph-name="sacute" unicode="&#x15b;" horiz-adv-x="958" d="M41 276 L160 303 Q182 195 258 138 Q347 70 493 70 Q628 70 709 131 Q775 181 775 266 Q775 348 713 392 Q665 426 566 444 L360 482 Q83 534 83 749 Q83 903 214 982 Q312 1041 459 1041 Q787 1041 861 773 L748 747 Q725 825 671 872 Q590 940 452 940 Q350 940 283 895 Q211 847 211 759 Q211 633 381 603 L568 569 Q696 546 749 521 Q904 450 904 285 Q904 138 787 51 Q677 -31 482 -31 Q285 -31 169 62 Q104 114 70 188 Q57 218 41 276 Z M728 1470 L787 1366 L373 1171 L330 1238 L728 1470 Z " />
<glyph glyph-name="Scircumflex" unicode="&#x15c;" horiz-adv-x="1133" d="M55 344 L186 372 Q219 263 293 193 Q410 82 592 82 Q772 82 874 187 Q944 259 944 362 Q944 468 872 530 Q820 574 722 601 L455 674 Q354 701 312 721 Q118 814 118 1026 Q118 1194 250 1298 Q370 1393 560 1393 Q806 1393 939 1242 Q998 1175 1028 1075 L907 1041 Q880 1132 823 1188 Q724 1283 562 1283 Q433 1283 349 1223 Q253 1155 253 1038 Q253 928 338 867 Q384 835 483 807 L762 731 Q920 687 996 606 Q1079 517 1079 377 Q1079 215 971 105 Q840 -28 586 -28 Q313 -28 172 130 Q99 213 55 344 Z M890 1517 L769 1497 L566 1632 L374 1497 L243 1517 L571 1762 L890 1517 Z " />
<glyph glyph-name="scircumflex" unicode="&#x15d;" horiz-adv-x="958" d="M41 276 L160 303 Q182 195 258 138 Q347 70 493 70 Q628 70 709 131 Q775 181 775 266 Q775 348 713 392 Q665 426 566 444 L360 482 Q83 534 83 749 Q83 903 214 982 Q312 1041 459 1041 Q787 1041 861 773 L748 747 Q725 825 671 872 Q590 940 452 940 Q350 940 283 895 Q211 847 211 759 Q211 633 381 603 L568 569 Q696 546 749 521 Q904 450 904 285 Q904 138 787 51 Q677 -31 482 -31 Q285 -31 169 62 Q104 114 70 188 Q57 218 41 276 Z M796 1198 L674 1178 L472 1312 L279 1178 L149 1198 L476 1443 L796 1198 Z " />
<glyph glyph-name="Scedilla" unicode="&#x15e;" horiz-adv-x="1133" d="M585 -28 L560 -110 Q593 -107 612 -107 Q685 -107 731 -149 Q772 -187 772 -243 Q772 -326 697 -368 Q640 -400 549 -400 Q449 -400 371 -356 L394 -289 Q467 -323 537 -323 Q603 -323 639 -298 Q669 -276 669 -243 Q669 -171 547 -171 Q507 -171 458 -178 L510 -24 Q347 -8 244 65 Q120 154 55 344 L186 372 Q219 263 293 193 Q410 82 592 82 Q771 82 874 187 Q944 258 944 362 Q944 468 872 530 Q821 574 722 601 L455 674 Q353 702 312 721 Q207 771 158 863 Q118 937 118 1026 Q118 1194 250 1298 Q370 1393 560 1393 Q806 1393 939 1242 Q998 1175 1028 1075 L907 1041 Q880 1132 823 1188 Q724 1283 562 1283 Q433 1283 349 1223 Q253 1155 253 1038 Q253 929 338 867 Q383 835 483 807 L762 731 Q920 687 996 606 Q1079 517 1079 377 Q1079 255 1014 157 Q889 -28 585 -28 Z " />
<glyph glyph-name="scedilla" unicode="&#x15f;" horiz-adv-x="958" d="M487 -31 L469 -93 Q659 -93 659 -217 Q659 -293 594 -326 Q546 -350 474 -350 Q392 -350 304 -312 L324 -254 Q393 -283 457 -283 Q513 -283 543 -262 Q572 -243 572 -213 Q572 -150 466 -150 Q435 -150 386 -156 L428 -29 Q313 -21 233 21 Q134 71 83 164 Q61 202 41 277 L160 303 Q182 195 258 138 Q347 70 493 70 Q628 70 709 131 Q775 181 775 266 Q775 348 713 392 Q665 426 566 444 L360 482 Q83 534 83 749 Q83 904 214 982 Q312 1041 459 1041 Q787 1041 861 773 L748 747 Q725 825 671 872 Q590 940 452 940 Q350 940 283 895 Q211 847 211 759 Q211 634 381 603 L568 569 Q696 546 749 521 Q904 450 904 285 Q904 118 755 30 Q657 -27 487 -31 Z " />
<glyph glyph-name="Scaron" unicode="&#x160;" horiz-adv-x="1133" d="M55 344 L186 372 Q219 263 293 193 Q410 82 592 82 Q772 82 874 187 Q944 259 944 362 Q944 468 872 530 Q820 574 722 601 L455 674 Q354 701 312 721 Q118 814 118 1026 Q118 1194 250 1298 Q370 1393 560 1393 Q806 1393 939 1242 Q998 1175 1028 1075 L907 1041 Q880 1132 823 1188 Q724 1283 562 1283 Q433 1283 349 1223 Q253 1155 253 1038 Q253 928 338 867 Q384 835 483 807 L762 731 Q920 687 996 606 Q1079 517 1079 377 Q1079 215 971 105 Q840 -28 586 -28 Q313 -28 172 130 Q99 213 55 344 Z M243 1729 L365 1749 L567 1614 L760 1749 L890 1729 L563 1483 L243 1729 Z " />
<glyph glyph-name="scaron" unicode="&#x161;" horiz-adv-x="958" d="M41 276 L160 303 Q182 195 258 138 Q347 70 493 70 Q628 70 709 131 Q775 181 775 266 Q775 348 713 392 Q665 426 566 444 L360 482 Q83 534 83 749 Q83 903 214 982 Q312 1041 459 1041 Q787 1041 861 773 L748 747 Q725 825 671 872 Q590 940 452 940 Q350 940 283 895 Q211 847 211 759 Q211 633 381 603 L568 569 Q696 546 749 521 Q904 450 904 285 Q904 138 787 51 Q677 -31 482 -31 Q285 -31 169 62 Q104 114 70 188 Q57 218 41 276 Z M149 1409 L271 1430 L473 1295 L666 1430 L796 1409 L469 1164 L149 1409 Z " />
<glyph glyph-name="Tcommaaccent" unicode="&#x162;" horiz-adv-x="976" d="M955 1365 L955 1251 L554 1251 L554 0 L421 0 L421 1251 L20 1251 L20 1365 L955 1365 Z M413 -109 L558 -109 L415 -465 L344 -465 L413 -109 Z " />
<glyph glyph-name="tcommaaccent" unicode="&#x163;" horiz-adv-x="612" d="M305 914 L305 285 Q305 178 337 129 Q378 68 492 68 Q538 68 606 77 L606 -19 Q509 -31 466 -31 Q300 -31 230 77 Q184 148 184 289 L184 914 L-20 914 L-20 1010 L177 1010 L177 1259 L305 1271 L305 1010 L543 1010 L543 914 L305 914 Z M338 -109 L483 -109 L339 -465 L268 -465 L338 -109 Z " />
<glyph glyph-name="Tcaron" unicode="&#x164;" horiz-adv-x="976" d="M955 1365 L955 1251 L554 1251 L554 0 L421 0 L421 1251 L20 1251 L20 1365 L955 1365 Z M177 1729 L298 1749 L501 1614 L693 1749 L824 1729 L497 1483 L177 1729 Z " />
<glyph glyph-name="tcaron" unicode="&#x165;" horiz-adv-x="619" d="M305 914 L305 285 Q305 178 337 129 Q378 68 492 68 Q538 68 606 77 L606 -19 Q509 -31 466 -31 Q300 -31 230 77 Q184 148 184 289 L184 914 L-20 914 L-20 1010 L177 1010 L177 1259 L305 1271 L305 1010 L543 1010 L543 914 L305 914 Z M481 1474 L626 1474 L483 1118 L412 1118 L481 1474 Z " />
<glyph glyph-name="Tbar" unicode="&#x166;" horiz-adv-x="976" d="M157 854 L157 963 L420 963 L420 1246 L20 1246 L20 1365 L955 1365 L955 1246 L553 1246 L553 963 L817 963 L817 854 L553 854 L553 0 L420 0 L420 854 L157 854 Z " />
<glyph glyph-name="tbar" unicode="&#x167;" horiz-adv-x="616" d="M306 640 L306 285 Q306 177 337 129 Q377 68 491 68 Q537 68 606 77 L606 -19 Q509 -31 466 -31 Q301 -31 231 77 Q185 148 185 289 L185 640 L-10 640 L-10 736 L184 736 L184 914 L-20 914 L-20 1010 L177 1010 L177 1259 L305 1271 L305 1010 L543 1010 L543 914 L305 914 L305 736 L538 736 L538 640 L306 640 Z " />
<glyph glyph-name="Utilde" unicode="&#x168;" horiz-adv-x="1250" d="M368 1534 L284 1584 Q321 1627 350 1652 Q417 1707 504 1707 Q558 1707 630 1678 L689 1654 Q744 1631 779 1631 Q829 1631 895 1684 L966 1626 Q866 1530 778 1530 Q727 1530 672 1553 L603 1581 Q541 1606 500 1606 Q431 1606 368 1534 Z M157 1365 L290 1365 L290 467 Q290 340 303 284 Q328 176 420 125 Q502 79 624 79 Q854 79 931 211 Q974 285 974 467 L974 1365 L1093 1365 L1093 467 Q1093 350 1081 287 Q1022 -31 622 -31 Q306 -31 204 168 Q169 236 161 347 Q157 398 157 476 L157 1365 Z " />
<glyph glyph-name="utilde" unicode="&#x169;" horiz-adv-x="1070" d="M143 1010 L265 1010 L265 369 Q265 221 308 155 Q361 73 474 73 Q633 73 725 213 Q790 312 790 455 L790 1010 L912 1010 L912 0 L790 0 L790 191 Q678 -28 462 -28 Q282 -28 197 111 Q143 198 143 371 L143 1010 Z M287 1214 L203 1265 Q240 1308 269 1332 Q335 1387 423 1387 Q478 1387 549 1358 L608 1334 Q665 1311 698 1311 Q748 1311 814 1365 L885 1307 Q786 1210 697 1210 Q648 1210 591 1233 L522 1261 Q461 1286 419 1286 Q350 1286 287 1214 Z " />
<glyph glyph-name="Umacron" unicode="&#x16a;" horiz-adv-x="1250" d="M157 1365 L290 1365 L290 467 Q290 340 303 284 Q328 176 420 125 Q502 79 624 79 Q854 79 931 211 Q974 285 974 467 L974 1365 L1093 1365 L1093 467 Q1093 350 1081 287 Q1022 -31 622 -31 Q306 -31 204 168 Q169 236 161 347 Q157 398 157 476 L157 1365 Z M947 1661 L947 1565 L316 1565 L316 1661 L947 1661 Z " />
<glyph glyph-name="umacron" unicode="&#x16b;" horiz-adv-x="1070" d="M143 1010 L265 1010 L265 369 Q265 221 308 155 Q361 73 474 73 Q633 73 725 213 Q790 312 790 455 L790 1010 L912 1010 L912 0 L790 0 L790 191 Q678 -28 462 -28 Q282 -28 197 111 Q143 198 143 371 L143 1010 Z M850 1341 L850 1245 L219 1245 L219 1341 L850 1341 Z " />
<glyph glyph-name="Ubreve" unicode="&#x16c;" horiz-adv-x="1250" d="M321 1749 L424 1749 Q431 1703 453 1674 Q498 1618 611 1618 Q723 1618 768 1673 Q792 1702 800 1749 L902 1749 Q885 1667 862 1632 Q829 1580 787 1554 Q726 1517 612 1517 Q473 1517 405 1582 Q352 1633 336 1687 Q331 1705 321 1749 Z M157 1365 L290 1365 L290 467 Q290 340 303 284 Q328 176 420 125 Q502 79 624 79 Q854 79 931 211 Q974 285 974 467 L974 1365 L1093 1365 L1093 467 Q1093 350 1081 287 Q1022 -31 622 -31 Q306 -31 204 168 Q169 236 161 347 Q157 398 157 476 L157 1365 Z " />
<glyph glyph-name="ubreve" unicode="&#x16d;" horiz-adv-x="1070" d="M143 1010 L265 1010 L265 369 Q265 221 308 155 Q361 73 474 73 Q633 73 725 213 Q790 312 790 455 L790 1010 L912 1010 L912 0 L790 0 L790 191 Q678 -28 462 -28 Q282 -28 197 111 Q143 198 143 371 L143 1010 Z M251 1429 L356 1429 Q366 1375 391 1342 Q436 1284 545 1284 Q656 1284 700 1340 Q726 1373 739 1429 L844 1429 Q823 1337 795 1295 Q762 1245 720 1220 Q660 1183 540 1183 Q390 1183 319 1272 Q273 1330 251 1429 Z " />
<glyph glyph-name="Uring" unicode="&#x16e;" horiz-adv-x="1250" d="M157 1365 L290 1365 L290 467 Q290 340 303 284 Q328 176 420 125 Q502 79 624 79 Q854 79 931 211 Q974 285 974 467 L974 1365 L1093 1365 L1093 467 Q1093 350 1081 287 Q1022 -31 622 -31 Q306 -31 204 168 Q169 236 161 347 Q157 398 157 476 L157 1365 Z M631 1811 Q705 1811 755 1754 Q803 1700 803 1631 Q803 1553 745 1501 Q694 1456 627 1456 Q548 1456 493 1516 Q447 1567 447 1634 Q447 1709 501 1759 Q556 1811 631 1811 Z M627 1727 Q584 1727 554 1694 Q529 1666 529 1632 Q529 1591 562 1562 Q591 1536 627 1536 Q668 1536 697 1568 Q721 1594 721 1631 Q721 1673 689 1702 Q662 1727 627 1727 Z " />
<glyph glyph-name="uring" unicode="&#x16f;" horiz-adv-x="1070" d="M143 1010 L265 1010 L265 369 Q265 221 308 155 Q361 73 474 73 Q633 73 725 213 Q790 312 790 455 L790 1010 L912 1010 L912 0 L790 0 L790 191 Q678 -28 462 -28 Q282 -28 197 111 Q143 198 143 371 L143 1010 Z M559 1499 Q629 1499 676 1445 Q721 1394 721 1329 Q721 1256 666 1206 Q619 1164 556 1164 Q481 1164 429 1221 Q386 1269 386 1332 Q386 1403 437 1450 Q489 1499 559 1499 Z M555 1427 Q516 1427 487 1398 Q458 1369 458 1331 Q458 1291 491 1262 Q520 1236 556 1236 Q596 1236 625 1268 Q649 1294 649 1331 Q649 1373 617 1402 Q590 1427 555 1427 Z " />
<glyph glyph-name="Uhungarumlaut" unicode="&#x170;" horiz-adv-x="1250" d="M157 1365 L290 1365 L290 467 Q290 340 303 284 Q328 176 420 125 Q502 79 624 79 Q854 79 931 211 Q974 285 974 467 L974 1365 L1093 1365 L1093 467 Q1093 350 1081 287 Q1022 -31 622 -31 Q306 -31 204 168 Q169 236 161 347 Q157 398 157 476 L157 1365 Z M742 1685 L423 1490 L383 1563 L684 1789 L742 1685 Z M1063 1685 L744 1490 L698 1563 L1005 1789 L1063 1685 Z " />
<glyph glyph-name="uhungarumlaut" unicode="&#x171;" horiz-adv-x="1070" d="M143 1010 L265 1010 L265 369 Q265 221 308 155 Q361 73 474 73 Q633 73 725 213 Q790 312 790 455 L790 1010 L912 1010 L912 0 L790 0 L790 191 Q678 -28 462 -28 Q282 -28 197 111 Q143 198 143 371 L143 1010 Z M654 1365 L336 1171 L295 1244 L597 1470 L654 1365 Z M975 1365 L656 1171 L610 1244 L917 1470 L975 1365 Z " />
<glyph glyph-name="Uogonek" unicode="&#x172;" horiz-adv-x="1250" d="M987 -232 L1014 -308 Q939 -336 871 -336 Q790 -336 739 -297 Q682 -255 682 -183 Q682 -91 785 -14 Q707 -31 620 -31 Q306 -31 204 168 Q169 236 161 347 Q157 398 157 476 L157 1365 L290 1365 L290 467 Q290 340 303 284 Q328 176 420 125 Q502 79 624 79 Q854 79 931 211 Q974 285 974 467 L974 1365 L1093 1365 L1093 467 Q1093 256 1038 159 Q1015 120 978 83 Q973 79 919 28 Q853 -35 838 -52 Q792 -105 792 -169 Q792 -250 883 -250 Q920 -250 987 -232 Z " />
<glyph glyph-name="uogonek" unicode="&#x173;" horiz-adv-x="1070" d="M912 0 Q863 -33 844 -50 Q788 -100 788 -149 Q788 -220 897 -220 Q942 -220 993 -201 L1014 -268 Q955 -296 885 -296 Q790 -296 734 -255 Q687 -221 687 -161 Q687 -64 817 0 L790 0 L790 191 Q678 -28 462 -28 Q282 -28 197 111 Q143 198 143 371 L143 1010 L265 1010 L265 369 Q265 221 308 155 Q361 73 474 73 Q633 73 725 213 Q790 312 790 455 L790 1010 L912 1010 L912 0 Z " />
<glyph glyph-name="Wcircumflex" unicode="&#x174;" horiz-adv-x="1592" d="M1551 1365 L1240 0 L1113 0 L802 1086 L510 0 L374 0 L41 1365 L175 1365 L454 204 L766 1365 L848 1365 L1181 204 L1435 1365 L1551 1365 Z M1139 1517 L1017 1497 L815 1632 L622 1497 L492 1517 L819 1762 L1139 1517 Z " />
<glyph glyph-name="wcircumflex" unicode="&#x175;" horiz-adv-x="1327" d="M973 1198 L851 1178 L649 1312 L456 1178 L326 1198 L653 1443 L973 1198 Z M1280 1010 L990 0 L903 0 L662 771 L440 0 L347 0 L48 1010 L170 1010 L402 216 L627 1010 L706 1010 L946 216 L1165 1010 L1280 1010 Z " />
<glyph glyph-name="Ycircumflex" unicode="&#x176;" horiz-adv-x="1003" d="M563 580 L563 0 L430 0 L430 580 L-20 1365 L126 1365 L513 689 L907 1365 L1024 1365 L563 580 Z M841 1517 L719 1497 L517 1632 L324 1497 L194 1517 L521 1762 L841 1517 Z " />
<glyph glyph-name="ycircumflex" unicode="&#x177;" horiz-adv-x="839" d="M839 1010 L427 -107 Q386 -220 329 -280 Q256 -358 129 -358 Q76 -358 7 -339 L7 -239 Q77 -257 125 -257 Q212 -257 262 -194 Q299 -148 327 -74 L361 18 L19 1010 L146 1010 L422 182 L726 1010 L839 1010 Z M747 1198 L625 1178 L423 1312 L230 1178 L100 1198 L427 1443 L747 1198 Z " />
<glyph glyph-name="Zacute" unicode="&#x179;" horiz-adv-x="1021" d="M795 1253 L77 1253 L77 1365 L967 1365 L967 1293 L183 113 L980 113 L980 0 L41 0 L41 122 L795 1253 Z M798 1789 L857 1685 L444 1490 L401 1557 L798 1789 Z " />
<glyph glyph-name="zacute" unicode="&#x17a;" horiz-adv-x="817" d="M602 914 L79 914 L79 1010 L776 1010 L776 963 L182 96 L776 96 L776 0 L41 0 L41 96 L602 914 Z M712 1470 L771 1366 L358 1171 L315 1238 L712 1470 Z " />
<glyph glyph-name="Zdotaccent" unicode="&#x17b;" horiz-adv-x="1021" d="M795 1253 L77 1253 L77 1365 L967 1365 L967 1293 L183 113 L980 113 L980 0 L41 0 L41 122 L795 1253 Z M543 1728 Q586 1728 616 1693 Q641 1664 641 1628 Q641 1585 608 1555 Q578 1527 541 1527 Q497 1527 465 1563 Q440 1591 440 1629 Q440 1669 468 1697 Q499 1728 543 1728 Z " />
<glyph glyph-name="zdotaccent" unicode="&#x17c;" horiz-adv-x="817" d="M602 914 L79 914 L79 1010 L776 1010 L776 963 L182 96 L776 96 L776 0 L41 0 L41 96 L602 914 Z M435 1409 Q477 1409 508 1374 Q533 1345 533 1309 Q533 1267 500 1236 Q471 1208 433 1208 Q388 1208 357 1244 Q332 1272 332 1310 Q332 1350 360 1378 Q391 1409 435 1409 Z " />
<glyph glyph-name="Zcaron" unicode="&#x17d;" horiz-adv-x="1021" d="M795 1253 L77 1253 L77 1365 L967 1365 L967 1293 L183 113 L980 113 L980 0 L41 0 L41 122 L795 1253 Z M209 1729 L331 1749 L533 1614 L726 1749 L857 1729 L529 1483 L209 1729 Z " />
<glyph glyph-name="zcaron" unicode="&#x17e;" horiz-adv-x="817" d="M602 914 L79 914 L79 1010 L776 1010 L776 963 L182 96 L776 96 L776 0 L41 0 L41 96 L602 914 Z M120 1409 L242 1430 L444 1295 L637 1430 L767 1409 L440 1164 L120 1409 Z " />
<glyph glyph-name="uni018F" unicode="&#x18f;" horiz-adv-x="1279" d="M148 964 Q171 1053 207 1121 Q353 1396 643 1396 Q898 1396 1046 1192 Q1190 994 1190 683 Q1190 372 1046 173 Q899 -31 639 -31 Q318 -31 170 280 Q89 450 89 670 L1055 670 Q1056 924 975 1071 Q858 1286 643 1286 Q416 1286 310 1041 Q288 991 276 936 L148 964 Z M231 556 Q247 402 304 294 Q419 79 640 79 Q877 79 989 322 Q1034 420 1048 556 L231 556 Z " />
<glyph glyph-name="uni01CD" unicode="&#x1cd;" horiz-adv-x="1032" d="M1025 0 L885 0 L749 428 L258 428 L123 0 L7 0 L445 1365 L587 1365 L1025 0 Z M714 538 L504 1201 L293 538 L714 538 Z M193 1729 L314 1749 L517 1614 L709 1749 L840 1729 L512 1483 L193 1729 Z " />
<glyph glyph-name="uni01CE" unicode="&#x1ce;" horiz-adv-x="1081" d="M938 0 L814 0 Q802 84 799 171 Q747 91 696 51 Q595 -28 439 -28 Q291 -28 199 40 Q82 126 82 281 Q82 427 194 518 Q324 624 589 624 Q640 624 799 618 Q800 656 800 669 Q800 804 752 862 Q690 937 522 937 Q373 937 294 871 Q245 830 229 744 L108 767 Q124 845 153 887 Q257 1038 524 1038 Q762 1038 857 916 Q920 835 920 656 L920 192 Q920 79 938 0 Z M799 513 Q641 523 576 523 Q408 523 312 464 Q210 400 210 279 Q210 191 272 133 Q335 73 440 73 Q621 73 728 223 Q799 323 799 476 L799 513 Z M206 1409 L328 1430 L530 1295 L723 1430 L853 1409 L526 1164 L206 1409 Z " />
<glyph glyph-name="uni01D3" unicode="&#x1d3;" horiz-adv-x="1250" d="M157 1365 L290 1365 L290 467 Q290 340 303 284 Q328 176 420 125 Q502 79 624 79 Q854 79 931 211 Q974 285 974 467 L974 1365 L1093 1365 L1093 467 Q1093 350 1081 287 Q1022 -31 622 -31 Q306 -31 204 168 Q169 236 161 347 Q157 398 157 476 L157 1365 Z M301 1729 L423 1749 L625 1614 L818 1749 L948 1729 L621 1483 L301 1729 Z " />
<glyph glyph-name="uni01D4" unicode="&#x1d4;" horiz-adv-x="1070" d="M143 1010 L265 1010 L265 369 Q265 221 308 155 Q361 73 474 73 Q633 73 725 213 Q790 312 790 455 L790 1010 L912 1010 L912 0 L790 0 L790 191 Q678 -28 462 -28 Q282 -28 197 111 Q143 198 143 371 L143 1010 Z M230 1409 L352 1430 L554 1295 L747 1430 L877 1409 L550 1164 L230 1409 Z " />
<glyph glyph-name="uni01DD" unicode="&#x1dd;" horiz-adv-x="1062" d="M82 509 L852 509 Q851 667 795 766 Q699 937 509 937 Q377 937 289 846 Q240 795 215 717 L102 747 Q125 826 176 887 Q302 1038 514 1038 Q729 1038 859 887 Q980 747 980 516 Q980 257 837 108 Q705 -28 507 -28 Q259 -28 145 192 Q98 283 87 401 Q83 438 82 509 Z M215 413 Q225 289 265 215 Q343 73 510 73 Q672 73 770 202 Q826 277 847 413 L215 413 Z " />
<glyph glyph-name="Gcaron" unicode="&#x1e6;" horiz-adv-x="1330" d="M1180 682 L1180 -27 L1077 -27 L1040 164 Q905 -31 657 -31 Q368 -31 215 201 Q89 393 89 682 Q89 952 196 1131 Q352 1395 669 1395 Q1050 1395 1168 1011 L1033 970 Q998 1089 943 1157 Q840 1285 655 1285 Q432 1285 323 1103 Q224 936 224 689 Q224 426 332 257 Q387 171 478 123 Q560 79 659 79 Q827 79 928 198 Q1035 322 1033 568 L667 568 L667 682 L1180 682 Z M346 1729 L468 1749 L670 1614 L863 1749 L993 1729 L666 1483 L346 1729 Z " />
<glyph glyph-name="gcaron" unicode="&#x1e7;" horiz-adv-x="988" d="M948 1151 L951 1054 Q930 1055 921 1055 Q844 1055 809 1017 Q779 984 769 920 Q854 810 854 674 Q854 504 740 400 Q644 312 490 312 Q432 312 347 337 Q244 312 244 231 Q244 173 289 150 Q324 132 398 131 L682 126 Q814 124 885 88 Q1009 25 1009 -108 Q1009 -194 949 -260 Q884 -331 741 -366 Q639 -391 512 -391 Q312 -391 189 -328 Q61 -263 61 -127 Q61 22 218 72 Q116 118 116 227 Q116 353 246 396 Q120 518 120 680 Q120 839 226 939 Q330 1038 497 1038 Q608 1038 702 984 Q724 1083 767 1121 Q808 1156 897 1156 Q922 1156 948 1151 Z M485 937 Q368 937 302 852 Q248 783 248 677 Q248 554 316 482 Q381 413 486 413 Q595 413 660 487 Q726 563 726 673 Q726 797 656 868 Q590 937 485 937 Z M332 34 Q271 10 240 -14 Q189 -55 189 -120 Q189 -290 516 -290 Q880 -290 880 -111 Q880 -23 794 7 Q747 23 634 24 L405 28 Q397 28 371 30 Q358 32 332 34 Z M192 1409 L314 1430 L516 1295 L709 1430 L839 1409 L512 1164 L192 1409 Z " />
<glyph glyph-name="Aringacute" unicode="&#x1fa;" horiz-adv-x="1032" d="M444 1363 Q349 1413 349 1514 Q349 1582 400 1631 Q450 1680 520 1680 Q592 1680 639 1627 Q684 1575 684 1510 Q684 1409 588 1361 L1025 0 L885 0 L749 428 L258 428 L123 0 L7 0 L444 1363 Z M741 1852 L335 1663 L290 1730 L680 1957 L741 1852 Z M714 538 L504 1202 L293 538 L714 538 Z M518 1608 Q479 1608 450 1579 Q421 1550 421 1513 Q421 1473 454 1444 Q483 1418 518 1418 Q559 1418 587 1450 Q611 1476 611 1512 Q611 1554 579 1583 Q552 1608 518 1608 Z " />
<glyph glyph-name="aringacute" unicode="&#x1fb;" horiz-adv-x="1081" d="M533 1461 Q602 1461 649 1407 Q694 1356 694 1291 Q694 1218 639 1168 Q592 1126 529 1126 Q455 1126 403 1183 Q360 1231 360 1294 Q360 1364 410 1412 Q463 1461 533 1461 Z M529 1389 Q490 1389 461 1360 Q432 1331 432 1293 Q432 1253 465 1224 Q494 1198 529 1198 Q569 1198 598 1230 Q622 1256 622 1293 Q622 1335 590 1364 Q563 1389 529 1389 Z M697 1764 L756 1660 L343 1464 L300 1532 L697 1764 Z M938 0 L814 0 Q802 84 799 171 Q747 91 696 51 Q595 -28 439 -28 Q291 -28 199 40 Q82 126 82 281 Q82 427 194 518 Q324 624 589 624 Q640 624 799 618 Q800 656 800 669 Q800 804 752 862 Q690 937 522 937 Q373 937 294 871 Q245 830 229 744 L108 767 Q124 845 153 887 Q257 1038 524 1038 Q762 1038 857 916 Q920 835 920 656 L920 192 Q920 79 938 0 Z M799 513 Q641 523 576 523 Q408 523 312 464 Q210 400 210 279 Q210 191 272 133 Q335 73 440 73 Q621 73 728 223 Q799 323 799 476 L799 513 Z " />
<glyph glyph-name="AEacute" unicode="&#x1fc;" horiz-adv-x="1908" d="M1536 1688 L1129 1498 L1085 1566 L1474 1792 L1536 1688 Z M1847 114 L1847 0 L872 0 L872 428 L373 428 L107 0 L-24 0 L833 1365 L1816 1365 L1816 1251 L1005 1251 L1005 775 L1666 775 L1666 665 L1005 665 L1005 114 L1847 114 Z M872 538 L872 1225 L442 538 L872 538 Z " />
<glyph glyph-name="aeacute" unicode="&#x1fd;" horiz-adv-x="1723" d="M1122 1470 L1181 1366 L768 1171 L725 1238 L1122 1470 Z M868 846 Q907 903 956 942 Q1074 1038 1230 1038 Q1385 1038 1492 939 Q1592 846 1625 689 Q1639 623 1642 501 L899 501 Q900 343 953 244 Q1046 73 1228 73 Q1354 73 1438 164 Q1485 214 1509 293 L1622 263 Q1599 183 1550 123 Q1428 -28 1223 -28 Q1015 -28 889 123 Q847 173 819 240 L771 171 Q722 91 673 51 Q575 -28 425 -28 Q283 -28 195 40 Q82 126 82 280 Q82 426 191 518 Q318 624 573 624 Q619 624 771 617 Q772 655 772 669 Q772 804 726 862 Q667 937 508 937 Q366 937 290 870 Q244 830 229 744 L108 767 Q123 844 151 887 Q252 1038 509 1038 Q798 1038 868 846 Z M771 513 Q622 523 562 523 Q401 523 309 464 Q210 400 210 279 Q210 191 268 133 Q328 73 427 73 Q548 73 640 153 Q767 262 771 450 Q771 463 771 513 Z M1509 597 Q1498 724 1461 795 Q1386 937 1227 937 Q1072 937 978 807 Q925 734 904 597 L1509 597 Z " />
<glyph glyph-name="Oslashacute" unicode="&#x1fe;" horiz-adv-x="1279" d="M877 1688 L471 1498 L426 1566 L816 1792 L877 1688 Z M224 184 Q88 388 88 681 Q88 993 232 1192 Q380 1396 638 1396 Q843 1396 974 1273 L1074 1418 L1197 1418 L1043 1195 Q1190 1000 1190 682 Q1190 372 1046 173 Q898 -31 640 -31 Q422 -31 290 105 L187 -45 L66 -45 L224 184 Z M302 297 L904 1171 Q796 1286 639 1286 Q448 1286 335 1123 Q223 962 223 679 Q223 447 302 297 Z M967 1085 L362 208 Q470 79 640 79 Q830 79 943 242 Q1055 403 1055 685 Q1055 934 967 1085 Z " />
<glyph glyph-name="oslashacute" unicode="&#x1ff;" horiz-adv-x="1039" d="M749 1470 L808 1366 L394 1171 L352 1238 L749 1470 Z M181 150 Q84 295 84 505 Q84 725 192 876 Q254 962 355 1006 Q430 1038 520 1038 Q679 1038 790 942 L899 1084 L1031 1084 L860 861 Q958 709 958 506 Q958 285 850 134 Q788 47 687 4 Q612 -28 522 -28 Q362 -28 248 71 L154 -50 L27 -50 L181 150 Z M259 251 L721 853 Q640 937 520 937 Q418 937 342 873 Q212 765 212 504 Q212 357 259 251 Z M782 761 L317 160 Q399 73 522 73 Q623 73 700 137 Q830 244 830 506 Q830 651 782 761 Z " />
<glyph glyph-name="Scommaaccent" unicode="&#x218;" horiz-adv-x="1133" d="M55 344 L186 372 Q219 263 293 193 Q410 82 592 82 Q772 82 874 187 Q944 259 944 362 Q944 468 872 530 Q820 574 722 601 L455 674 Q354 701 312 721 Q118 814 118 1026 Q118 1194 250 1298 Q370 1393 560 1393 Q806 1393 939 1242 Q998 1175 1028 1075 L907 1041 Q880 1132 823 1188 Q724 1283 562 1283 Q433 1283 349 1223 Q253 1155 253 1038 Q253 928 338 867 Q384 835 483 807 L762 731 Q920 687 996 606 Q1079 517 1079 377 Q1079 215 971 105 Q840 -28 586 -28 Q313 -28 172 130 Q99 213 55 344 Z M515 -109 L660 -109 L517 -465 L446 -465 L515 -109 Z " />
<glyph glyph-name="scommaaccent" unicode="&#x219;" horiz-adv-x="958" d="M41 276 L160 303 Q182 195 258 138 Q347 70 493 70 Q628 70 709 131 Q775 181 775 266 Q775 348 713 392 Q665 426 566 444 L360 482 Q83 534 83 749 Q83 903 214 982 Q312 1041 459 1041 Q787 1041 861 773 L748 747 Q725 825 671 872 Q590 940 452 940 Q350 940 283 895 Q211 847 211 759 Q211 633 381 603 L568 569 Q696 546 749 521 Q904 450 904 285 Q904 138 787 51 Q677 -31 482 -31 Q285 -31 169 62 Q104 114 70 188 Q57 218 41 276 Z M398 -109 L543 -109 L400 -465 L329 -465 L398 -109 Z " />
<glyph glyph-name="uni021A" unicode="&#x21a;" horiz-adv-x="976" d="M955 1365 L955 1251 L554 1251 L554 0 L421 0 L421 1251 L20 1251 L20 1365 L955 1365 Z M413 -109 L558 -109 L415 -465 L344 -465 L413 -109 Z " />
<glyph glyph-name="uni021B" unicode="&#x21b;" horiz-adv-x="612" d="M305 914 L305 285 Q305 178 337 129 Q378 68 492 68 Q538 68 606 77 L606 -19 Q509 -31 466 -31 Q300 -31 230 77 Q184 148 184 289 L184 914 L-20 914 L-20 1010 L177 1010 L177 1259 L305 1271 L305 1010 L543 1010 L543 914 L305 914 Z M338 -109 L483 -109 L339 -465 L268 -465 L338 -109 Z " />
<glyph glyph-name="adotaccent" unicode="&#x227;" horiz-adv-x="1081" d="M938 0 L814 0 Q802 84 799 171 Q747 91 696 51 Q595 -28 439 -28 Q291 -28 199 40 Q82 126 82 281 Q82 427 194 518 Q324 624 589 624 Q640 624 799 618 Q800 656 800 669 Q800 804 752 862 Q690 937 522 937 Q373 937 294 871 Q245 830 229 744 L108 767 Q124 845 153 887 Q257 1038 524 1038 Q762 1038 857 916 Q920 835 920 656 L920 192 Q920 79 938 0 Z M799 513 Q641 523 576 523 Q408 523 312 464 Q210 400 210 279 Q210 191 272 133 Q335 73 440 73 Q621 73 728 223 Q799 323 799 476 L799 513 Z M536 1409 Q578 1409 609 1374 Q634 1346 634 1309 Q634 1266 601 1236 Q572 1208 534 1208 Q489 1208 458 1244 Q433 1272 433 1310 Q433 1350 461 1378 Q492 1409 536 1409 Z " />
<glyph glyph-name="dotlessj" unicode="&#x237;" horiz-adv-x="453" d="M169 1010 L290 1010 L290 -1 Q290 -157 232 -230 Q159 -321 9 -321 Q-33 -321 -132 -309 L-132 -213 Q-63 -222 -17 -222 Q105 -222 144 -149 Q169 -101 169 -5 L169 1010 Z " />
<glyph glyph-name="uni0259" unicode="&#x259;" horiz-adv-x="1062" d="M82 509 L852 509 Q851 667 795 766 Q699 937 509 937 Q377 937 289 846 Q240 795 215 717 L102 747 Q125 826 176 887 Q302 1038 514 1038 Q729 1038 859 887 Q980 747 980 516 Q980 257 837 108 Q705 -28 507 -28 Q259 -28 145 192 Q98 283 87 401 Q83 438 82 509 Z M215 413 Q225 289 265 215 Q343 73 510 73 Q672 73 770 202 Q826 277 847 413 L215 413 Z " />
<glyph glyph-name="afii57929" unicode="&#x2bc;" horiz-adv-x="522" d="M358 1365 L358 1172 L233 948 L164 948 L257 1172 L164 1172 L164 1365 L358 1365 Z " />
<glyph glyph-name="uni02C9" unicode="&#x2c9;" horiz-adv-x="1024" d="M828 1341 L828 1245 L197 1245 L197 1341 L828 1341 Z " />
<glyph glyph-name="uni0387" unicode="&#x387;" horiz-adv-x="210" d="M210 621 L210 416 L0 416 L0 621 L210 621 Z " />
<glyph glyph-name="uni04D8" unicode="&#x4d8;" horiz-adv-x="1279" d="M148 964 Q171 1053 207 1121 Q353 1396 643 1396 Q898 1396 1046 1192 Q1190 994 1190 683 Q1190 372 1046 173 Q899 -31 639 -31 Q318 -31 170 280 Q89 450 89 670 L1055 670 Q1056 924 975 1071 Q858 1286 643 1286 Q416 1286 310 1041 Q288 991 276 936 L148 964 Z M231 556 Q247 402 304 294 Q419 79 640 79 Q877 79 989 322 Q1034 420 1048 556 L231 556 Z " />
<glyph glyph-name="afii10846" unicode="&#x4d9;" horiz-adv-x="1062" d="M82 509 L852 509 Q851 667 795 766 Q699 937 509 937 Q377 937 289 846 Q240 795 215 717 L102 747 Q125 826 176 887 Q302 1038 514 1038 Q729 1038 859 887 Q980 747 980 516 Q980 257 837 108 Q705 -28 507 -28 Q259 -28 145 192 Q98 283 87 401 Q83 438 82 509 Z M215 413 Q225 289 265 215 Q343 73 510 73 Q672 73 770 202 Q826 277 847 413 L215 413 Z " />
<glyph glyph-name="Wdieresis" unicode="&#x1e84;" horiz-adv-x="1592" d="M1551 1365 L1240 0 L1113 0 L802 1086 L510 0 L374 0 L41 1365 L175 1365 L454 204 L766 1365 L848 1365 L1181 204 L1435 1365 L1551 1365 Z M974 1728 Q1017 1728 1047 1693 Q1072 1664 1072 1628 Q1072 1585 1039 1555 Q1009 1527 972 1527 Q928 1527 896 1563 Q871 1591 871 1629 Q871 1669 899 1697 Q930 1728 974 1728 Z M661 1724 Q703 1724 733 1690 Q758 1662 758 1627 Q758 1585 725 1554 Q696 1527 659 1527 Q616 1527 586 1561 Q561 1589 561 1626 Q561 1667 588 1694 Q618 1724 661 1724 Z " />
<glyph glyph-name="uni2011" unicode="&#x2011;" horiz-adv-x="522" d="M475 553 L475 462 L48 462 L48 553 L475 553 Z " />
<glyph glyph-name="figuredash" unicode="&#x2012;" horiz-adv-x="1201" d="M991 553 L991 462 L209 462 L209 553 L991 553 Z " />
<glyph glyph-name="afii00208" unicode="&#x2015;" horiz-adv-x="1365" d="M1325 553 L1325 462 L41 462 L41 553 L1325 553 Z " />
<glyph glyph-name="underscoredbl" unicode="&#x2017;" horiz-adv-x="1024" d="M0 -123 L1024 -123 L1024 -200 L0 -200 L0 -123 Z M0 -361 L1024 -361 L1024 -438 L0 -438 L0 -361 Z " />
<glyph glyph-name="minute" unicode="&#x2032;" horiz-adv-x="349" d="M348 1365 L129 847 L57 847 L220 1365 L348 1365 Z " />
<glyph glyph-name="second" unicode="&#x2033;" horiz-adv-x="583" d="M313 1365 L94 847 L22 847 L185 1365 L313 1365 Z M594 1365 L375 847 L303 847 L466 1365 L594 1365 Z " />
<glyph glyph-name="exclamdbl" unicode="&#x203c;" horiz-adv-x="1024" d="M366 1365 L366 999 L341 371 L270 371 L246 998 L246 1365 L366 1365 Z M367 220 L367 0 L244 0 L244 220 L367 220 Z M778 1365 L778 999 L754 371 L682 371 L658 998 L658 1365 L778 1365 Z M780 220 L780 0 L657 0 L657 220 L780 220 Z " />
<glyph glyph-name="uni203E" unicode="&#x203e;" horiz-adv-x="1024" d="M0 1747 L1024 1747 L1024 1644 L0 1644 L0 1747 Z " />
<glyph glyph-name="franc" unicode="&#x20a3;" horiz-adv-x="1202" d="M967 0 L872 0 L872 635 L954 635 L954 474 L989 536 Q1055 654 1165 654 Q1176 654 1198 652 L1198 575 Q1186 575 1181 575 Q1086 575 1026 502 Q969 432 968 363 L967 0 Z M314 0 L181 0 L181 1365 L1003 1365 L1003 1251 L314 1251 L314 787 L833 787 L833 677 L314 677 L314 0 Z " />
<glyph glyph-name="lira" unicode="&#x20a4;" horiz-adv-x="1202" d="M172 503 L172 590 L398 590 L384 727 L172 727 L172 814 L372 814 Q370 827 366 858 Q360 910 360 966 Q360 1132 426 1237 Q471 1308 547 1350 Q624 1393 714 1393 Q895 1393 1022 1222 L935 1154 Q896 1201 867 1225 Q798 1283 720 1283 Q631 1283 565 1217 Q495 1145 495 1030 Q495 945 515 844 Q519 828 521 814 L819 814 L819 727 L532 727 L534 709 Q539 656 545 590 L819 590 L819 503 L549 503 Q546 421 532 367 Q501 246 425 177 Q409 163 360 121 L722 121 Q894 121 980 185 Q1022 217 1055 274 L1158 204 Q1123 134 1069 89 Q964 0 826 0 L12 0 L12 120 Q87 121 129 125 Q277 138 357 256 Q410 333 410 438 Q410 456 407 503 L172 503 Z " />
<glyph glyph-name="peseta" unicode="&#x20a7;" horiz-adv-x="1923" d="M1276 59 L1276 -13 Q1196 -26 1150 -26 Q1077 -26 1036 14 Q984 64 984 162 L984 540 L856 540 L856 610 L980 610 L980 756 L1080 765 L1080 610 L1228 610 L1228 540 L1080 540 L1080 131 Q1080 48 1167 48 Q1204 48 1276 59 Z M1307 175 L1402 194 Q1410 151 1427 129 Q1443 108 1477 91 Q1541 60 1612 60 Q1700 60 1740 103 Q1763 127 1763 164 Q1763 241 1645 262 L1503 287 Q1336 316 1336 447 Q1336 529 1399 577 Q1466 628 1580 628 Q1793 628 1842 458 L1752 439 Q1731 482 1708 503 Q1660 547 1573 547 Q1495 547 1461 508 Q1440 485 1440 449 Q1440 384 1532 370 L1648 351 Q1787 330 1832 269 Q1867 221 1867 166 Q1867 74 1771 20 Q1705 -18 1609 -18 Q1360 -18 1307 175 Z M181 1365 L518 1365 Q707 1365 818 1271 Q948 1161 948 970 Q948 755 797 638 Q691 557 532 557 L314 557 L314 0 L181 0 L181 1365 Z M314 670 L520 670 Q641 670 716 728 Q813 805 813 956 Q813 1099 731 1178 Q656 1251 523 1251 L314 1251 L314 670 Z " />
<glyph glyph-name="afii61248" unicode="&#x2105;" horiz-adv-x="601" d="M301 772 Q338 772 364 743 Q387 718 387 685 Q387 647 358 620 Q333 598 300 598 Q261 598 235 627 Q213 652 213 686 Q213 723 242 750 Q266 772 301 772 Z " />
<glyph glyph-name="afii61289" unicode="&#x2113;" horiz-adv-x="1201" d="M599 555 Q532 218 532 114 Q532 43 586 43 Q655 43 703 167 Q714 194 727 194 Q737 194 737 182 Q737 139 686 64 Q622 -29 544 -29 Q492 -29 461 8 Q421 56 421 154 Q421 219 441 376 L444 403 L450 452 Q344 342 326 342 Q315 342 315 359 Q315 373 351 403 Q392 438 458 517 L464 551 Q536 927 624 1149 Q720 1390 845 1390 Q892 1390 922 1355 Q957 1314 957 1242 Q957 1030 793 788 Q733 700 608 565 L599 555 Z M611 628 Q667 692 676 702 Q799 845 866 1017 Q909 1127 909 1231 Q909 1288 884 1316 Q870 1332 847 1332 Q798 1332 760 1261 Q702 1154 621 685 L611 628 Z " />
<glyph glyph-name="oneeighth" unicode="&#x215b;" horiz-adv-x="1802" d="M650 613 L650 546 L133 546 L133 613 L355 613 L355 1267 Q268 1171 124 1084 L124 1179 Q194 1221 278 1289 Q307 1313 372 1382 L444 1382 L444 613 L650 613 Z M1486 439 Q1586 396 1628 362 Q1702 304 1702 208 Q1702 94 1596 32 Q1511 -19 1378 -19 Q1246 -19 1169 21 Q1050 82 1050 205 Q1050 319 1167 389 Q1200 409 1255 433 Q1197 462 1165 489 Q1097 545 1097 633 Q1097 729 1182 786 Q1258 838 1383 838 Q1514 838 1594 779 Q1663 727 1663 639 Q1663 549 1589 495 Q1554 469 1486 439 Z M1372 471 Q1574 529 1574 636 Q1574 696 1517 729 Q1461 762 1380 762 Q1297 762 1240 727 Q1185 693 1185 633 Q1185 567 1259 522 Q1298 499 1343 482 L1372 471 Z M1365 394 Q1264 359 1214 326 Q1140 278 1140 207 Q1140 128 1215 91 Q1282 57 1377 57 Q1470 57 1538 93 Q1612 132 1612 204 Q1612 271 1550 313 Q1512 339 1465 358 Q1368 395 1365 394 Z M489 0 L387 0 L1218 1365 L1318 1365 L489 0 Z " />
<glyph glyph-name="threeeighths" unicode="&#x215c;" horiz-adv-x="1802" d="M232 937 L232 1012 L345 1012 Q469 1012 515 1066 Q551 1108 551 1159 Q551 1220 503 1261 Q448 1308 366 1308 Q268 1308 206 1250 Q178 1224 156 1167 L69 1198 Q109 1273 149 1309 Q232 1384 372 1384 Q516 1384 593 1300 Q649 1239 649 1162 Q649 1088 594 1032 Q560 998 506 980 Q576 964 618 928 Q684 870 684 779 Q684 643 565 575 Q485 529 352 529 Q246 529 170 571 Q99 611 65 665 Q53 685 36 727 L124 762 Q148 694 179 663 Q234 608 359 608 Q494 608 546 669 Q586 716 586 773 Q586 840 537 883 Q475 937 331 937 L232 937 Z M1544 439 Q1644 395 1685 362 Q1759 304 1759 208 Q1759 94 1653 32 Q1567 -19 1435 -19 Q1303 -19 1226 21 Q1108 82 1108 205 Q1108 319 1224 389 Q1257 409 1313 433 Q1254 462 1222 489 Q1155 545 1155 633 Q1155 729 1239 786 Q1316 838 1441 838 Q1572 838 1651 779 Q1721 727 1721 639 Q1721 549 1647 495 Q1611 469 1544 439 Z M1430 471 Q1632 529 1632 636 Q1632 696 1575 729 Q1518 762 1438 762 Q1354 762 1298 727 Q1243 693 1243 633 Q1243 567 1317 522 Q1355 499 1401 482 Q1429 471 1430 471 Z M1423 394 Q1321 359 1271 326 Q1198 278 1198 207 Q1198 128 1273 91 Q1339 57 1434 57 Q1527 57 1595 93 Q1669 132 1669 204 Q1669 271 1607 313 Q1569 339 1522 358 Q1426 395 1423 394 Z M547 0 L444 0 L1275 1365 L1376 1365 L547 0 Z " />
<glyph glyph-name="fiveeighths" unicode="&#x215d;" horiz-adv-x="1802" d="M620 1365 L613 1283 L194 1283 L179 1029 Q280 1107 385 1107 Q527 1107 608 1022 Q679 948 679 826 Q679 697 597 616 Q507 527 361 527 Q229 527 138 606 Q90 647 66 714 L140 754 Q207 603 359 603 Q465 603 533 666 Q596 725 596 819 Q596 919 534 973 Q473 1026 381 1026 Q256 1026 170 907 L105 922 L122 1365 L620 1365 Z M1534 439 Q1634 395 1675 362 Q1749 304 1749 208 Q1749 94 1644 32 Q1558 -19 1425 -19 Q1294 -19 1217 21 Q1098 82 1098 205 Q1098 319 1215 389 Q1247 409 1303 433 Q1245 462 1213 489 Q1145 545 1145 633 Q1145 729 1230 786 Q1306 838 1431 838 Q1562 838 1641 779 Q1711 727 1711 639 Q1711 549 1637 495 Q1601 469 1534 439 Z M1420 471 Q1622 529 1622 636 Q1622 696 1565 729 Q1509 762 1428 762 Q1345 762 1289 727 Q1233 693 1233 633 Q1233 567 1307 522 Q1346 499 1391 482 L1420 471 Z M1413 394 Q1311 359 1262 326 Q1188 278 1188 207 Q1188 128 1263 91 Q1330 57 1424 57 Q1517 57 1586 93 Q1659 132 1659 204 Q1659 271 1598 313 Q1560 339 1513 358 Q1416 395 1413 394 Z M537 0 L435 0 L1266 1365 L1366 1365 L537 0 Z " />
<glyph glyph-name="seveneighths" unicode="&#x215e;" horiz-adv-x="1802" d="M366 546 L277 546 Q277 569 277 586 Q277 720 334 888 Q408 1104 558 1281 L123 1281 L134 1365 L681 1365 L681 1316 Q613 1239 571 1173 Q490 1047 457 973 Q365 771 365 590 Q365 577 366 546 Z M1554 439 Q1653 396 1695 362 Q1769 304 1769 208 Q1769 94 1663 32 Q1578 -19 1445 -19 Q1313 -19 1236 21 Q1117 82 1117 205 Q1117 319 1234 389 Q1266 409 1323 433 Q1264 462 1232 489 Q1164 545 1164 633 Q1164 729 1249 786 Q1325 838 1451 838 Q1582 838 1661 779 Q1731 727 1731 639 Q1731 548 1657 495 Q1621 469 1554 439 Z M1440 471 Q1642 529 1642 636 Q1642 696 1585 729 Q1528 762 1448 762 Q1364 762 1308 727 Q1252 693 1252 633 Q1252 567 1326 522 Q1365 499 1411 482 Q1439 471 1440 471 Z M1433 394 Q1331 359 1281 326 Q1207 278 1207 207 Q1207 128 1282 91 Q1349 57 1444 57 Q1537 57 1605 93 Q1679 132 1679 204 Q1679 271 1617 313 Q1579 339 1532 358 Q1436 395 1433 394 Z M451 0 L348 0 L1179 1365 L1280 1365 L451 0 Z " />
<glyph glyph-name="arrowleft" unicode="&#x2190;" horiz-adv-x="1365" d="M1338 636 L314 636 Q421 477 421 423 Q421 395 391 395 Q371 395 344 430 Q241 562 73 641 Q26 663 26 688 Q26 716 90 745 Q163 778 269 871 Q318 914 344 947 Q371 981 391 981 Q421 981 421 953 Q421 901 314 740 L1338 740 L1338 636 Z " />
<glyph glyph-name="arrowup" unicode="&#x2191;" horiz-adv-x="1365" d="M630 0 L630 1022 Q471 916 417 916 Q389 916 389 946 Q389 966 424 993 Q556 1096 635 1264 Q657 1311 682 1311 Q710 1311 739 1247 Q772 1174 865 1068 Q907 1020 941 993 Q975 966 975 946 Q975 916 947 916 Q894 916 734 1022 L734 0 L630 0 Z " />
<glyph glyph-name="arrowright" unicode="&#x2192;" horiz-adv-x="1365" d="M27 740 L1051 740 Q944 899 944 953 Q944 981 974 981 Q994 981 1021 946 Q1124 814 1292 735 Q1339 714 1339 688 Q1339 660 1275 631 Q1201 597 1096 505 Q1047 462 1021 429 Q994 395 974 395 Q944 395 944 423 Q944 475 1051 636 L27 636 L27 740 Z " />
<glyph glyph-name="arrowdown" unicode="&#x2193;" horiz-adv-x="1365" d="M735 1290 L735 268 Q895 375 948 375 Q976 375 976 345 Q976 325 941 298 Q809 195 730 26 Q709 -21 683 -21 Q655 -21 626 43 Q593 116 500 223 Q457 272 424 298 Q390 325 390 345 Q390 375 418 375 Q469 375 631 268 L631 1290 L735 1290 Z " />
<glyph glyph-name="arrowboth" unicode="&#x2194;" horiz-adv-x="1365" d="M1051 636 L314 636 Q421 477 421 423 Q421 395 391 395 Q371 395 344 430 Q241 562 73 641 Q26 663 26 688 Q26 716 90 745 Q163 778 269 871 Q318 914 344 947 Q371 981 391 981 Q421 981 421 953 Q421 901 314 740 L1051 740 Q944 900 944 953 Q944 981 974 981 Q994 981 1021 946 Q1125 813 1293 735 Q1340 714 1340 688 Q1340 660 1276 631 Q1202 597 1096 505 Q1048 463 1021 429 Q994 395 974 395 Q944 395 944 423 Q944 474 1051 636 Z " />
<glyph glyph-name="arrowupdn" unicode="&#x2195;" horiz-adv-x="1365" d="M630 269 L630 1022 Q471 916 417 916 Q389 916 389 946 Q389 966 424 993 Q556 1096 635 1264 Q657 1311 682 1311 Q710 1311 739 1247 Q772 1174 865 1068 Q907 1020 941 993 Q975 966 975 946 Q975 916 947 916 Q895 916 735 1021 L735 268 Q895 375 948 375 Q976 375 976 345 Q976 325 941 298 Q808 194 730 26 Q708 -21 683 -21 Q655 -21 626 43 Q593 116 500 223 Q457 272 424 298 Q390 325 390 345 Q390 375 418 375 Q469 375 630 269 Z " />
<glyph glyph-name="arrowupdnbse" unicode="&#x21a8;" horiz-adv-x="1365" d="M410 -139 L955 -139 L955 -227 L410 -227 L410 -139 Z M630 269 L630 1022 Q471 916 417 916 Q389 916 389 946 Q389 966 424 993 Q556 1096 635 1264 Q657 1311 682 1311 Q710 1311 739 1247 Q772 1174 865 1068 Q907 1020 941 993 Q975 966 975 946 Q975 916 947 916 Q895 916 735 1021 L735 268 Q895 375 948 375 Q976 375 976 345 Q976 325 941 298 Q808 194 730 26 Q708 -21 683 -21 Q655 -21 626 43 Q593 116 500 223 Q457 272 424 298 Q390 325 390 345 Q390 375 418 375 Q469 375 630 269 Z " />
<glyph glyph-name="minus" unicode="&#x2212;" horiz-adv-x="1201" d="M137 737 L1065 737 L1065 625 L137 625 L137 737 Z " />
<glyph glyph-name="uni2218" unicode="&#x2218;" horiz-adv-x="1024" d="M516 982 Q636 982 720 889 Q793 807 793 696 Q793 567 699 482 Q618 410 512 410 Q388 410 304 503 Q230 585 230 699 Q230 823 325 910 Q403 982 516 982 Z M515 885 Q436 885 381 830 Q326 775 326 696 Q326 612 389 555 Q442 507 512 507 Q593 507 649 569 Q697 623 697 696 Q697 780 635 837 Q583 885 515 885 Z " />
<glyph glyph-name="intersection" unicode="&#x2229;" horiz-adv-x="1201" d="M1088 0 L968 0 L968 580 Q968 879 936 967 Q902 1062 817 1124 Q719 1197 600 1197 Q481 1197 383 1124 Q280 1047 252 908 Q233 808 233 580 L233 0 L113 0 L113 574 Q113 813 125 899 Q147 1051 232 1148 Q298 1222 393 1263 Q490 1306 601 1306 Q809 1306 948 1168 Q1030 1086 1056 994 Q1084 890 1087 755 Q1088 677 1088 574 L1088 0 Z " />
<glyph glyph-name="uni2243" unicode="&#x2243;" horiz-adv-x="1201" d="M157 594 L1044 594 L1044 490 L157 490 L157 594 Z M110 752 Q162 855 221 911 Q286 972 383 972 Q470 972 616 897 Q753 828 821 828 Q883 828 938 871 Q973 899 986 917 Q1001 937 1016 986 L1091 934 Q1038 841 992 794 Q916 717 827 717 Q747 717 670 755 L594 793 Q457 862 374 862 Q306 862 244 805 Q210 774 179 701 L110 752 Z " />
<glyph glyph-name="equivalence" unicode="&#x2261;" horiz-adv-x="1201" d="M157 1040 L1044 1040 L1044 937 L157 937 L157 1040 Z M157 749 L1044 749 L1044 645 L157 645 L157 749 Z M157 459 L1044 459 L1044 355 L157 355 L157 459 Z " />
<glyph glyph-name="dotmath" unicode="&#x22c5;" horiz-adv-x="210" d="M210 621 L210 416 L0 416 L0 621 L210 621 Z " />
<glyph glyph-name="house" unicode="&#x2302;" horiz-adv-x="1365" d="M86 0 L86 821 L683 1493 L1280 821 L1280 0 L86 0 Z M216 123 L1150 123 L1150 783 L683 1322 L216 783 L216 123 Z " />
<glyph glyph-name="revlogicalnot" unicode="&#x2310;" horiz-adv-x="1201" d="M1044 547 L1044 444 L270 444 L270 0 L157 0 L157 547 L1044 547 Z " />
<glyph glyph-name="integraltp" unicode="&#x2320;" horiz-adv-x="1201" d="M861 1413 Q811 1435 774 1435 Q704 1435 680 1389 Q659 1349 659 1195 L659 -335 L579 -512 L543 -512 L543 1182 Q543 1314 551 1362 Q566 1456 622 1494 Q683 1536 766 1536 Q817 1536 889 1514 L861 1413 Z " />
<glyph glyph-name="integralbt" unicode="&#x2321;" horiz-adv-x="1201" d="M340 -389 Q389 -410 426 -410 Q497 -410 521 -364 Q542 -324 542 -171 L542 1359 L621 1536 L658 1536 L658 -157 Q656 -358 623 -424 Q608 -455 564 -479 Q506 -512 435 -512 Q384 -512 312 -489 L340 -389 Z " />
<glyph glyph-name="filledbox" unicode="&#x25a0;" horiz-adv-x="1365" d="M1187 0 L177 0 L177 1365 L1187 1365 L1187 0 Z " />
<glyph glyph-name="uni25A1" unicode="&#x25a1;" horiz-adv-x="1365" d="M1187 0 L177 0 L177 1365 L1187 1365 L1187 0 Z M1091 96 L1091 1269 L273 1269 L273 96 L1091 96 Z " />
<glyph glyph-name="filledrect" unicode="&#x25ac;" horiz-adv-x="1365" d="M1365 887 L1365 518 L0 518 L0 887 L1365 887 Z " />
<glyph glyph-name="uni25B4" unicode="&#x25b4;" horiz-adv-x="1024" d="M955 300 L68 300 L512 1130 L955 300 Z " />
<glyph glyph-name="uni25B8" unicode="&#x25b8;" horiz-adv-x="1024" d="M146 243 L146 1130 L976 687 L146 243 Z " />
<glyph glyph-name="uni25BE" unicode="&#x25be;" horiz-adv-x="1024" d="M68 1065 L955 1065 L512 235 L68 1065 Z " />
<glyph glyph-name="uni25C2" unicode="&#x25c2;" horiz-adv-x="1024" d="M878 243 L48 687 L878 1130 L878 243 Z " />
<glyph glyph-name="circle" unicode="&#x25cb;" horiz-adv-x="1365" d="M686 1220 Q919 1220 1080 1044 Q1215 895 1215 688 Q1215 558 1145 438 Q1075 316 951 245 Q826 172 682 172 Q538 172 413 245 Q289 316 219 438 Q149 559 149 696 Q149 923 324 1082 Q475 1220 686 1220 Z M681 1126 Q487 1126 355 981 Q245 861 245 696 Q245 506 387 379 Q513 266 683 266 Q878 266 1010 411 Q1119 531 1119 690 Q1119 878 992 1000 Q859 1126 681 1126 Z " />
<glyph glyph-name="H18533" unicode="&#x25cf;" horiz-adv-x="1365" d="M686 1207 Q919 1207 1080 1030 Q1215 882 1215 674 Q1215 545 1145 424 Q1075 302 951 231 Q826 158 682 158 Q538 158 413 231 Q289 302 219 424 Q149 546 149 683 Q149 910 324 1069 Q474 1207 686 1207 Z " />
<glyph glyph-name="invbullet" unicode="&#x25d8;" horiz-adv-x="1365" d="M1187 0 L177 0 L177 1365 L1187 1365 L1187 0 Z M687 968 Q558 968 475 875 Q401 793 401 685 Q401 554 496 468 Q576 396 682 396 Q806 396 890 489 Q963 571 963 682 Q963 810 869 896 Q790 968 687 968 Z " />
<glyph glyph-name="invcircle" unicode="&#x25d9;" horiz-adv-x="1365" d="M1365 0 L0 0 L0 1365 L1365 1365 L1365 0 Z M682 1163 Q465 1163 317 1001 Q193 864 193 682 Q193 556 258 445 Q322 333 435 268 Q550 201 683 201 Q815 201 930 268 Q1043 333 1108 445 Q1172 556 1172 675 Q1172 883 1031 1020 Q883 1163 682 1163 Z M678 1067 Q837 1067 949 955 Q1060 845 1060 681 Q1060 517 937 405 Q826 305 680 305 Q508 305 393 434 Q298 540 298 686 Q298 853 421 967 Q530 1067 678 1067 Z " />
<glyph glyph-name="openbullet" unicode="&#x25e6;" horiz-adv-x="1024" d="M516 982 Q636 982 720 889 Q793 807 793 696 Q793 567 699 482 Q618 410 512 410 Q388 410 304 503 Q230 585 230 699 Q230 823 325 910 Q403 982 516 982 Z M515 885 Q436 885 381 830 Q326 775 326 696 Q326 612 389 555 Q442 507 512 507 Q593 507 649 569 Q697 623 697 696 Q697 780 635 837 Q583 885 515 885 Z " />
<glyph glyph-name="smileface" unicode="&#x263a;" horiz-adv-x="1365" d="M691 1331 Q860 1331 1005 1246 Q1156 1158 1244 1007 Q1331 856 1331 683 Q1331 510 1244 358 Q1156 206 1005 119 Q857 34 683 34 Q509 34 360 119 Q210 205 122 358 Q34 510 34 681 Q34 863 130 1021 Q224 1177 390 1262 Q525 1331 691 1331 Z M692 1246 Q432 1246 265 1060 Q119 898 119 687 Q119 533 195 401 Q272 268 402 193 Q531 119 683 119 Q834 119 963 193 Q1094 268 1170 401 Q1246 533 1246 683 Q1246 930 1058 1102 Q972 1182 859 1218 Q770 1246 692 1246 Z M491 953 Q530 953 557 923 Q580 897 580 863 Q580 823 550 796 Q525 773 490 773 Q450 773 423 803 Q400 829 400 863 Q400 901 427 927 Q453 953 491 953 Z M877 953 Q915 953 942 923 Q965 898 965 863 Q965 823 935 796 Q909 773 875 773 Q835 773 808 803 Q785 829 785 864 Q785 902 815 930 Q840 953 877 953 Z M262 762 Q287 653 347 581 Q467 436 684 436 Q901 436 1021 581 Q1081 653 1106 762 Q1088 519 986 412 Q869 288 684 288 Q486 288 368 426 Q279 531 262 762 Z " />
<glyph glyph-name="invsmileface" unicode="&#x263b;" horiz-adv-x="1365" d="M691 1331 Q860 1331 1005 1246 Q1156 1158 1244 1007 Q1331 856 1331 683 Q1331 510 1244 358 Q1156 206 1005 119 Q857 34 683 34 Q509 34 360 119 Q210 205 122 358 Q34 510 34 681 Q34 863 130 1021 Q224 1177 390 1262 Q525 1331 691 1331 Z M492 953 Q453 953 427 927 Q400 900 400 863 Q400 823 430 796 Q456 773 491 773 Q531 773 558 803 Q581 829 581 863 Q581 902 551 930 Q526 953 492 953 Z M877 953 Q835 953 808 923 Q785 897 785 864 Q785 823 815 796 Q841 773 875 773 Q915 773 942 803 Q965 828 965 863 Q965 903 935 930 Q910 953 877 953 Z M262 761 Q280 519 382 412 Q499 288 684 288 Q882 288 1000 426 Q1089 531 1106 761 Q1081 653 1021 580 Q902 436 684 436 Q467 436 347 580 Q287 653 262 761 Z " />
<glyph glyph-name="sun" unicode="&#x263c;" horiz-adv-x="1365" d="M327 968 L173 1120 L246 1192 L399 1039 Q503 1120 631 1137 L631 1352 L734 1352 L734 1136 Q868 1118 967 1040 L1120 1192 L1192 1120 L1039 968 Q1117 867 1135 736 L1351 736 L1351 631 L1135 631 Q1118 500 1039 398 L1192 245 L1120 173 L967 326 Q864 247 734 229 L734 14 L631 14 L631 230 Q512 243 398 326 L246 173 L173 245 L326 397 Q246 501 231 631 L15 631 L15 736 L230 736 Q248 864 327 968 Z M688 1010 Q538 1010 440 902 Q356 809 356 686 Q356 538 464 440 Q557 356 683 356 Q828 356 925 464 Q1009 558 1009 684 Q1009 827 901 926 Q809 1010 688 1010 Z " />
<glyph glyph-name="female" unicode="&#x2640;" horiz-adv-x="1365" d="M732 0 L634 0 L634 341 L302 341 L302 429 L634 429 L634 645 Q536 660 462 716 Q393 769 354 847 Q314 926 314 1015 Q314 1183 438 1294 Q542 1389 683 1389 Q845 1389 955 1267 Q1051 1161 1051 1015 Q1051 889 976 789 Q885 668 732 645 L732 429 L1064 429 L1064 341 L732 341 L732 0 Z M683 1278 Q570 1278 493 1193 Q425 1117 425 1019 Q425 905 501 828 Q577 752 683 752 Q795 752 873 838 Q940 912 940 1015 Q940 1133 853 1212 Q781 1278 683 1278 Z " />
<glyph glyph-name="male" unicode="&#x2642;" horiz-adv-x="1365" d="M789 781 L1099 1091 Q1005 1113 903 1162 Q838 1194 838 1219 Q838 1246 865 1246 Q881 1246 907 1240 Q982 1221 1081 1221 Q1188 1221 1292 1249 Q1303 1252 1313 1252 Q1333 1252 1333 1231 Q1333 1214 1324 1185 Q1300 1108 1300 999 Q1300 900 1319 834 Q1327 806 1327 791 Q1327 765 1300 765 Q1271 765 1231 842 Q1186 928 1167 1023 L856 712 Q929 608 929 489 Q929 322 805 210 Q700 115 560 115 Q398 115 288 237 Q191 344 191 489 Q191 656 315 768 Q420 863 560 863 Q682 863 789 781 Z M560 752 Q447 752 370 667 Q302 592 302 493 Q302 379 378 302 Q454 226 561 226 Q673 226 751 312 Q818 386 818 489 Q818 607 731 686 Q658 752 560 752 Z " />
<glyph glyph-name="spade" unicode="&#x2660;" horiz-adv-x="1365" d="M1149 0 L216 0 L216 38 Q401 71 480 127 Q661 255 669 522 Q635 444 587 398 Q498 313 383 313 Q271 313 197 396 Q130 470 130 572 Q130 685 224 798 Q257 839 388 951 Q531 1073 600 1189 Q657 1285 682 1404 Q710 1277 764 1190 Q846 1061 1001 930 Q1117 833 1164 768 Q1235 670 1235 572 Q1235 454 1150 378 Q1079 313 982 313 Q866 313 778 398 Q730 444 696 522 Q704 255 884 127 Q964 71 1149 38 L1149 0 Z " />
<glyph glyph-name="club" unicode="&#x2663;" horiz-adv-x="1365" d="M1149 0 L217 0 L217 38 Q373 66 439 102 Q541 157 603 262 Q665 369 669 561 Q523 300 307 300 Q174 300 85 399 Q6 488 6 612 Q6 754 104 844 Q178 912 276 912 Q331 912 397 881 Q402 879 452 854 Q380 962 380 1058 Q380 1185 478 1273 Q565 1351 683 1351 Q820 1351 910 1251 Q986 1167 986 1058 Q986 961 913 854 Q964 879 981 887 Q1036 912 1090 912 Q1204 912 1282 823 Q1360 736 1360 612 Q1360 469 1259 377 Q1174 300 1059 300 Q843 300 697 561 Q701 352 774 245 Q846 139 942 94 Q1008 64 1149 38 L1149 0 Z " />
<glyph glyph-name="heart" unicode="&#x2665;" horiz-adv-x="1365" d="M682 -22 Q647 113 584 223 Q511 349 418 474 L300 634 Q198 772 163 842 Q114 940 114 1029 Q114 1159 204 1241 Q278 1308 380 1308 Q497 1308 585 1220 Q644 1161 682 1043 Q714 1154 770 1216 Q857 1311 980 1311 Q1100 1311 1179 1223 Q1250 1143 1250 1036 Q1250 878 1111 686 Q1077 638 971 500 Q845 337 781 219 Q712 93 682 -22 Z " />
<glyph glyph-name="diamond" unicode="&#x2666;" horiz-adv-x="1365" d="M163 683 Q430 984 683 1419 Q935 984 1202 683 Q935 382 683 -53 Q430 382 163 683 Z " />
<glyph glyph-name="musicalnote" unicode="&#x266a;" horiz-adv-x="1365" d="M626 1365 L719 1365 L719 1241 Q745 1208 856 1074 Q1042 852 1042 617 Q1042 423 926 282 L868 282 Q936 441 936 582 Q936 731 863 837 Q798 930 719 942 L719 333 Q719 210 676 135 Q635 65 564 23 Q493 -19 412 -19 Q336 -19 298 23 Q268 56 268 104 Q268 202 349 277 Q420 342 519 342 Q572 342 626 319 L626 1365 Z " />
<glyph glyph-name="uni266C" unicode="&#x266c;" horiz-adv-x="1365" d="M399 1202 L1261 1422 L1261 407 Q1261 284 1218 209 Q1177 140 1105 98 Q1034 56 953 56 Q877 56 839 97 Q809 131 809 178 Q809 277 890 351 Q961 416 1061 416 Q1113 416 1168 393 L1168 947 L492 762 L492 292 Q492 169 449 94 Q408 25 337 -17 Q266 -59 185 -59 Q109 -59 71 -17 Q41 16 41 63 Q41 162 122 236 Q193 301 292 301 Q345 301 399 279 L399 1202 Z M492 918 L1168 1103 L1168 1245 L492 1060 L492 918 Z " />
</font>
</svg>
