<?xml version="1.0" encoding="UTF-8"?>
<svg xmlns="http://www.w3.org/2000/svg" xmlns:xlink="http://www.w3.org/1999/xlink" version="1.2" >
<font id="FranklinGothicURWBoo Italic">
<font-face  font-family="FranklinGothicURWBoo" units-per-em="2048" ascent="1816" descent="-410" font-style="italic" font-weight="400" font-stretch="normal" slope="4" cap-height="1365" x-height="1013" underline-position="-205" underline-thickness="137" />
<missing-glyph  horiz-adv-x="512" d="M51 0 L51 1365 L461 1365 L461 0 L51 0 Z M410 51 L410 1314 L102 1314 L102 51 L410 51 Z " />
<glyph glyph-name="space" unicode="&#x20;" horiz-adv-x="512" d="" />
<glyph glyph-name="exclam" unicode="&#x21;" horiz-adv-x="547" d="M296 351 L211 351 L301 1365 L527 1365 L296 351 Z M292 0 L86 0 L119 195 L325 195 L292 0 Z " />
<glyph glyph-name="quotedbl" unicode="&#x22;" horiz-adv-x="633" d="M285 844 L192 844 L249 1365 L402 1365 L285 844 Z M554 844 L461 844 L518 1365 L671 1365 L554 844 Z " />
<glyph glyph-name="numbersign" unicode="&#x23;" horiz-adv-x="1201" d="M1181 965 L1154 842 L944 842 L881 556 L1091 556 L1064 433 L853 433 L758 0 L627 0 L723 433 L433 433 L337 0 L207 0 L303 433 L85 433 L112 556 L331 556 L394 842 L175 842 L202 965 L421 965 L509 1365 L639 1365 L551 965 L839 965 L927 1365 L1058 1365 L969 965 L1181 965 Z M811 842 L524 842 L461 556 L749 556 L811 842 Z " />
<glyph glyph-name="dollar" unicode="&#x24;" horiz-adv-x="1201" d="M1123 1098 L986 1030 Q950 1108 893 1156 Q844 1198 763 1220 L688 771 Q810 739 884 702 Q1065 610 1065 411 Q1065 281 983 179 Q851 13 561 9 L527 -190 L406 -190 L442 25 Q308 56 220 128 Q131 203 74 332 L209 402 Q295 203 464 160 L545 644 Q426 675 354 718 Q209 805 209 976 Q209 1086 273 1178 Q392 1350 665 1355 L695 1535 L816 1535 L784 1346 Q1016 1310 1123 1098 Z M571 798 L644 1233 Q559 1231 496 1203 Q361 1142 361 1005 Q361 849 571 798 Z M662 616 L583 143 Q603 143 613 143 Q695 143 763 176 Q835 211 874 273 Q907 327 907 392 Q907 508 803 565 Q751 593 662 616 Z " />
<glyph glyph-name="percent" unicode="&#x25;" horiz-adv-x="1583" d="M352 0 L222 0 L1288 1365 L1416 1365 L352 0 Z M499 1392 Q611 1392 688 1320 Q787 1226 787 1069 Q787 910 673 785 Q576 678 439 678 Q333 678 256 748 Q156 840 156 993 Q156 1118 219 1224 Q319 1392 499 1392 Z M496 1293 Q400 1293 350 1215 Q282 1110 282 975 Q282 875 344 818 Q386 779 451 779 Q534 779 584 843 Q663 944 663 1091 Q663 1196 610 1248 Q565 1293 496 1293 Z M1195 694 Q1303 694 1379 628 Q1486 536 1486 365 Q1486 241 1414 132 Q1312 -23 1151 -23 Q1028 -23 950 53 Q911 90 885 149 Q853 222 853 301 Q853 432 935 547 Q1040 694 1195 694 Z M1193 594 Q1116 594 1065 536 Q981 441 981 281 Q981 168 1041 115 Q1085 77 1146 77 Q1253 77 1311 183 Q1360 271 1360 393 Q1360 505 1306 551 Q1256 594 1193 594 Z " />
<glyph glyph-name="ampersand" unicode="&#x26;" horiz-adv-x="1366" d="M1203 -18 Q1120 -37 1076 -37 Q990 -37 935 6 Q908 27 856 91 Q791 48 749 25 Q630 -40 501 -40 Q301 -40 172 95 Q64 209 64 363 Q64 512 166 629 Q231 704 401 773 Q443 791 501 811 Q402 997 402 1117 Q402 1252 516 1339 Q602 1405 729 1405 Q885 1405 975 1309 Q1050 1228 1050 1116 Q1050 938 881 838 Q806 794 687 743 L903 300 Q1083 483 1188 743 L1309 696 Q1186 396 967 183 Q1023 92 1098 92 Q1131 92 1220 108 L1203 -18 Z M791 203 L550 706 Q463 673 403 638 Q235 539 235 368 Q235 233 339 148 Q415 87 520 87 Q651 87 791 203 Z M645 847 Q719 880 762 904 Q911 987 911 1117 Q911 1199 851 1246 Q801 1286 730 1286 Q628 1286 578 1208 Q549 1162 549 1103 Q549 1026 645 847 Z " />
<glyph glyph-name="quotesingle" unicode="&#x27;" horiz-adv-x="364" d="M285 844 L192 844 L249 1365 L402 1365 L285 844 Z " />
<glyph glyph-name="parenleft" unicode="&#x28;" horiz-adv-x="601" d="M361 -341 L266 -341 Q80 -58 80 320 Q80 653 251 969 Q364 1175 551 1365 L666 1365 Q471 1147 360 899 Q218 582 218 262 Q218 -53 361 -341 Z " />
<glyph glyph-name="parenright" unicode="&#x29;" horiz-adv-x="601" d="M242 1365 L337 1365 Q523 1081 523 704 Q523 372 352 55 Q239 -152 52 -341 L-63 -341 Q133 -123 244 125 Q386 441 386 761 Q386 1077 242 1365 Z " />
<glyph glyph-name="asterisk" unicode="&#x2a;" horiz-adv-x="1201" d="M691 1365 L809 1365 L743 1016 L1093 1131 L1110 1018 L760 918 L924 639 L816 570 L665 856 L418 570 L334 639 L591 917 L274 1018 L329 1131 L640 1016 L691 1365 Z " />
<glyph glyph-name="plus" unicode="&#x2b;" horiz-adv-x="1201" d="M153 753 L556 753 L556 1174 L706 1174 L706 753 L1109 753 L1109 615 L706 615 L706 194 L556 194 L556 615 L153 615 L153 753 Z " />
<glyph glyph-name="comma" unicode="&#x2c;" horiz-adv-x="512" d="M55 -304 L-24 -304 L163 0 L59 0 L97 229 L323 229 L284 0 L55 -304 Z " />
<glyph glyph-name="hyphen" unicode="&#x2d;" horiz-adv-x="512" d="M475 452 L20 452 L39 568 L494 568 L475 452 Z " />
<glyph glyph-name="period" unicode="&#x2e;" horiz-adv-x="512" d="M284 0 L59 0 L97 229 L323 229 L284 0 Z " />
<glyph glyph-name="slash" unicode="&#x2f;" horiz-adv-x="960" d="M-117 -341 L-248 -341 L903 1365 L1036 1365 L-117 -341 Z " />
<glyph glyph-name="zero" unicode="0" horiz-adv-x="1201" d="M699 1409 Q919 1409 1046 1225 Q1158 1062 1158 811 Q1158 551 1053 335 Q957 137 816 36 Q703 -44 558 -44 Q439 -44 340 16 Q210 94 149 268 Q104 395 104 556 Q104 827 220 1056 Q398 1409 699 1409 Z M692 1282 Q591 1282 524 1226 Q393 1117 323 874 Q271 689 271 514 Q271 317 337 208 Q375 143 450 108 Q505 82 567 82 Q748 82 854 283 Q922 412 954 567 Q985 714 985 846 Q985 1068 910 1173 Q868 1233 794 1262 Q744 1282 692 1282 Z " />
<glyph glyph-name="one" unicode="1" horiz-adv-x="1201" d="M1084 0 L106 0 L128 132 L526 132 L703 1180 Q662 1127 618 1102 Q478 1019 299 1012 L321 1149 Q480 1171 583 1222 Q709 1284 784 1398 L900 1398 L688 132 L1106 132 L1084 0 Z " />
<glyph glyph-name="two" unicode="2" horiz-adv-x="1201" d="M1004 0 L33 0 L61 169 Q400 377 638 552 Q750 635 806.5 686.5 Q863 738 904 797 Q971 893 971 995 Q971 1135 855 1215 Q775 1270 672 1270 Q551 1270 458 1195 Q396 1145 342 1025 Q334 1007 313 955 L177 1006 Q315 1408 672 1408 Q888 1408 1025 1267 Q1141 1147 1141 984 Q1141 830 1032 696 Q944 589 743 453 Q528 308 239 146 L1028 146 L1004 0 Z " />
<glyph glyph-name="three" unicode="3" horiz-adv-x="1201" d="M51 307 L187 359 Q227 269 270 221 Q380 100 555 100 Q721 100 818 208 Q888 285 888 389 Q888 510 798 584 Q727 642 543 645 Q506 646 422 646 L444 781 Q519 779 577 779 Q718 779 798 809 Q870 836 915 907 Q953 966 953 1035 Q953 1146 864 1214 Q786 1273 680 1273 Q556 1273 463 1195 Q409 1149 359 1055 L234 1124 Q386 1398 685 1398 Q884 1398 1004 1287 Q1118 1180 1118 1035 Q1118 959 1083.5 892 Q1049 825 989 782 Q918 732 804 707 Q893 682 946 633 Q1055 532 1055 381 Q1055 272 993 177 Q922 68 806 16 Q693 -35 562 -35 Q327 -35 173 112 Q94 188 51 307 Z " />
<glyph glyph-name="four" unicode="4" horiz-adv-x="1201" d="M816 0 L655 0 L710 330 L56 330 L79 467 L852 1404 L1051 1404 L894 465 L1118 465 L1095 330 L871 330 L816 0 Z M733 465 L861 1233 L226 465 L733 465 Z " />
<glyph glyph-name="five" unicode="5" horiz-adv-x="1201" d="M76 286 L208 346 Q259 255 302 213 Q407 109 562 109 Q754 109 855 256 Q924 356 924 475 Q924 617 829 710 Q743 794 613 794 Q432 794 316 607 L172 650 L334 1365 L1136 1365 L1089 1220 L440 1220 L340 771 Q398 842 448 873 Q530 924 642 924 Q837 924 969 784 Q1086 659 1086 479 Q1086 347 1019 228 Q875 -25 562 -25 Q351 -25 204 105 Q125 175 76 286 Z " />
<glyph glyph-name="six" unicode="6" horiz-adv-x="1201" d="M1042 1051 Q951 1266 753 1266 Q535 1266 404 1015 Q336 883 288 655 Q350 762 419 816 Q532 902 683 902 Q886 902 1015 750 Q1119 628 1119 461 Q1119 333 1055 218 Q985 93 867 28 Q760 -31 624 -31 Q376 -31 235 154 Q121 303 121 541 Q121 782 226 1012 Q329 1240 504 1338 Q613 1400 748 1400 Q942 1400 1069 1287 Q1149 1216 1192 1092 L1042 1051 Z M658 765 Q512 765 404 656 Q308 559 308 419 Q308 272 414 181 Q501 106 618 106 Q788 106 888 247 Q957 343 957 452 Q957 590 867 680 Q781 765 658 765 Z " />
<glyph glyph-name="seven" unicode="7" horiz-adv-x="1201" d="M515 -16 L333 -16 Q369 373 565 708 Q719 972 1000 1216 L227 1216 L273 1365 L1206 1365 L1187 1254 Q1029 1098 922 973 Q643 647 552 235 Q527 119 515 -16 Z " />
<glyph glyph-name="eight" unicode="8" horiz-adv-x="1201" d="M823 730 Q907 690 954 657 Q1021 609 1060 531 Q1094 462 1094 386 Q1094 240 993 129 Q921 50 809 11 Q697 -27 574 -27 Q357 -27 209 79 Q75 176 75 341 Q75 532 242 631 Q314 674 430 708 Q218 824 218 1015 Q218 1114 273 1203 Q340 1313 479 1361 Q573 1394 684 1394 Q878 1394 1007 1298 Q1124 1210 1124 1068 Q1124 905 975 802 Q912 758 823 730 Z M657 789 Q772 827 847 870 Q968 939 968 1049 Q968 1144 897 1202 Q813 1270 677 1270 Q558 1270 476 1217 Q379 1156 379 1041 Q379 943 479 873 Q528 839 593 812 Q653 787 657 789 Z M599 645 Q466 612 362 550 Q236 474 236 350 Q236 216 359 151 Q449 103 579 103 Q743 103 839 180 Q927 250 927 357 Q927 484 791 561 Q753 583 599 645 Z " />
<glyph glyph-name="nine" unicode="9" horiz-adv-x="1201" d="M206 297 Q301 96 506 96 Q662 96 778 222 Q904 360 964 716 Q830 474 577 474 Q376 474 250 627 Q150 750 150 914 Q150 1141 322 1284 Q460 1398 648 1398 Q884 1398 1019 1224 Q1131 1079 1131 830 Q1131 531 997 291 Q816 -31 494 -31 Q307 -31 179 82 Q112 141 71 233 L206 297 Z M652 1268 Q491 1268 388 1145 Q309 1051 309 924 Q309 796 390 707 Q477 609 606 609 Q709 609 800 671 Q876 723 916 801 Q953 873 953 951 Q953 1096 855 1189 Q771 1268 652 1268 Z " />
<glyph glyph-name="colon" unicode="&#x3a;" horiz-adv-x="512" d="M284 0 L59 0 L97 229 L323 229 L284 0 Z M412 765 L187 765 L225 994 L451 994 L412 765 Z " />
<glyph glyph-name="semicolon" unicode="&#x3b;" horiz-adv-x="512" d="M55 -304 L-24 -304 L162 0 L59 0 L97 229 L323 229 L284 0 L55 -304 Z M412 765 L187 765 L225 994 L451 994 L412 765 Z " />
<glyph glyph-name="less" unicode="&#x3c;" horiz-adv-x="1201" d="M1075 1159 L1075 1007 L351 676 L1075 345 L1075 193 L188 610 L188 743 L1075 1159 Z " />
<glyph glyph-name="equal" unicode="&#x3d;" horiz-adv-x="1201" d="M155 931 L1111 931 L1111 793 L155 793 L155 931 Z M155 606 L1111 606 L1111 468 L155 468 L155 606 Z " />
<glyph glyph-name="greater" unicode="&#x3e;" horiz-adv-x="1201" d="M188 193 L188 346 L911 677 L188 1008 L188 1159 L1075 742 L1075 610 L188 193 Z " />
<glyph glyph-name="question" unicode="&#x3f;" horiz-adv-x="1020" d="M496 350 L354 350 Q370 511 399 582 Q429 653 507 699 Q525 710 681 783 Q768 824 819 897 Q860 955 860 1035 Q860 1139 784 1203 Q707 1268 598 1268 Q499 1268 418 1210 Q336 1151 273 995 L133 1053 Q277 1403 602 1403 Q792 1403 913 1292 Q1027 1189 1027 1032 Q1027 934 977 844 Q928 756 824 697 Q763 663 655 619 Q575 587 548 555 Q508 507 496 350 Z M472 0 L266 0 L298 197 L505 197 L472 0 Z " />
<glyph glyph-name="at" unicode="&#x40;" horiz-adv-x="1529" d="M1142 1040 L1066 575 Q1055 508 1055 473 Q1055 410 1124 410 Q1156 410 1183 426 Q1242 461 1279 521 Q1348 636 1348 775 Q1348 994 1193 1133 Q1031 1277 796 1277 Q558 1277 397 1112 Q228 937 228 681 Q228 454 365 290 Q531 92 833 92 Q1021 92 1186 165 Q1212 177 1264 204 L1313 94 Q1075 -27 831 -27 Q597 -27 429 73 Q276 165 188 329 Q103 486 103 676 Q103 886 206 1059 Q296 1209 443 1296 Q607 1393 811 1393 Q1007 1393 1174 1300 Q1312 1224 1388 1097 Q1468 964 1468 790 Q1468 547 1323 386 Q1235 288 1124 288 Q1055 288 1002 327 Q967 354 946 415 Q927 391 912 374 Q832 284 724 284 Q588 284 502 393 Q422 494 422 645 Q422 792 498 905 Q554 987 641 1027 Q705 1057 777 1057 Q902 1057 971 972 Q979 962 999 933 L1017 1040 L1142 1040 Z M782 931 Q698 931 637 857 Q569 774 569 645 Q569 550 612 483 Q660 410 741 410 Q827 410 889 493 Q961 591 961 714 Q961 809 914 866 Q860 931 782 931 Z " />
<glyph glyph-name="A" unicode="A" horiz-adv-x="1155" d="M792 400 L294 400 L98 0 L-57 0 L612 1365 L801 1365 L1039 0 L863 0 L792 400 Z M772 537 L667 1164 L359 537 L772 537 Z " />
<glyph glyph-name="B" unicode="B" horiz-adv-x="1251" d="M86 0 L314 1365 L742 1365 Q910 1365 973 1345 Q1081 1312 1140 1227 Q1196 1147 1196 1042 Q1196 883 1079 789 Q1026 747 929 714 Q1003 689 1050 643 Q1146 548 1146 400 Q1146 266 1072 162 Q991 47 857 15 Q791 0 620 0 L86 0 Z M275 135 L571 135 Q723 135 784 147 Q845 159 892 197 Q932 229 956 288 Q982 351 982 419 Q982 544 899 601 Q845 638 782 643 Q733 647 637 647 L361 647 L275 135 Z M383 777 L641 777 Q800 777 863 798 Q955 828 999 908 Q1032 968 1032 1036 Q1032 1143 959 1194 Q907 1231 801 1234 Q754 1235 720 1235 L459 1233 L383 777 Z " />
<glyph glyph-name="C" unicode="C" horiz-adv-x="1179" d="M1207 945 L1058 908 Q1040 1045 999 1117 Q962 1182 896 1220 Q825 1261 737 1261 Q622 1261 534 1193 Q396 1086 326 825 Q285 672 285 542 Q285 320 391 205 Q431 162 498 136 Q553 115 611 115 Q765 115 879 257 Q923 313 979 436 L1118 383 Q1053 211 951 113 Q809 -23 607 -23 Q449 -23 340 50 Q212 135 154 300 Q109 427 109 569 Q109 847 246 1083 Q346 1258 492 1336 Q608 1399 738 1399 Q867 1399 974 1340 Q1124 1257 1178 1087 Q1195 1034 1207 945 Z " />
<glyph glyph-name="D" unicode="D" horiz-adv-x="1328" d="M86 0 L314 1365 L693 1365 Q902 1365 1010 1298 Q1153 1210 1219 1050 Q1271 926 1271 763 Q1271 404 1052 173 Q930 44 763 13 Q697 0 590 0 L86 0 Z M276 139 L550 137 Q638 136 708 147 Q879 175 986 340 Q1104 522 1104 776 Q1104 992 1004 1113 Q937 1193 837 1218 Q763 1237 672 1236 L459 1234 L276 139 Z " />
<glyph glyph-name="E" unicode="E" horiz-adv-x="1144" d="M86 0 L314 1365 L1165 1365 L1142 1229 L458 1229 L383 781 L969 781 L946 646 L361 646 L277 145 L1015 145 L991 0 L86 0 Z " />
<glyph glyph-name="F" unicode="F" horiz-adv-x="1039" d="M360 642 L253 0 L86 0 L314 1365 L1149 1365 L1126 1227 L458 1227 L383 777 L959 777 L936 642 L360 642 Z " />
<glyph glyph-name="G" unicode="G" horiz-adv-x="1333" d="M702 683 L1220 683 L1103 -16 L1011 -16 L990 150 Q939 76 885 38 Q781 -34 630 -34 Q396 -34 253 140 Q112 312 112 581 Q112 867 251 1096 Q435 1399 750 1399 Q997 1399 1140 1227 Q1207 1147 1253 1013 L1105 961 Q1012 1267 749 1267 Q567 1267 446 1109 Q368 1006 325 850 Q286 708 286 563 Q286 355 378 232 Q478 99 645 99 Q861 99 971 318 Q1010 395 1036 549 L680 549 L702 683 Z " />
<glyph glyph-name="H" unicode="H" horiz-adv-x="1343" d="M1030 646 L361 646 L253 0 L86 0 L314 1365 L481 1365 L385 791 L1054 791 L1150 1365 L1317 1365 L1088 0 L922 0 L1030 646 Z " />
<glyph glyph-name="I" unicode="I" horiz-adv-x="508" d="M481 1365 L253 0 L86 0 L314 1365 L481 1365 Z " />
<glyph glyph-name="J" unicode="J" horiz-adv-x="755" d="M741 1365 L600 521 Q561 288 519 205 Q449 68 309 13 Q220 -21 119 -21 Q20 -21 -85 0 L-62 140 Q13 124 89 124 Q218 124 301 184 Q357 224 385 316 Q401 365 420 480 L568 1365 L741 1365 Z " />
<glyph glyph-name="K" unicode="K" horiz-adv-x="1275" d="M1291 1365 L830 889 L1154 0 L979 0 L703 770 L315 372 L253 0 L86 0 L314 1365 L481 1365 L351 587 L1101 1365 L1291 1365 Z " />
<glyph glyph-name="L" unicode="L" horiz-adv-x="1042" d="M930 0 L86 0 L314 1365 L481 1365 L277 145 L954 145 L930 0 Z " />
<glyph glyph-name="M" unicode="M" horiz-adv-x="1670" d="M1414 0 L1248 0 L1458 1253 L802 0 L676 0 L432 1233 L225 0 L86 0 L314 1365 L567 1365 L790 247 L1374 1365 L1643 1365 L1414 0 Z " />
<glyph glyph-name="N" unicode="N" horiz-adv-x="1341" d="M1085 0 L952 0 L417 1167 L221 0 L86 0 L314 1365 L501 1365 L998 277 L1180 1365 L1314 1365 L1085 0 Z " />
<glyph glyph-name="O" unicode="O" horiz-adv-x="1315" d="M747 1392 Q957 1392 1096 1259 Q1264 1098 1264 791 Q1264 550 1162 341 Q983 -28 629 -28 Q383 -28 244 151 Q112 323 112 585 Q112 850 241 1075 Q423 1392 747 1392 Z M741 1254 Q580 1254 464 1122 Q356 1000 309 763 Q287 651 287 550 Q287 354 374 236 Q421 171 497 137 Q558 110 629 110 Q808 110 929 269 Q1036 410 1073 653 Q1090 767 1090 835 Q1090 1026 997 1138 Q901 1254 741 1254 Z " />
<glyph glyph-name="P" unicode="P" horiz-adv-x="1140" d="M345 551 L253 0 L86 0 L314 1365 L689 1365 Q817 1365 882 1353 Q1018 1327 1092 1230 Q1174 1121 1174 986 Q1174 863 1102 749 Q1024 625 889 583 Q789 551 620 551 L345 551 Z M368 688 L555 688 Q728 688 784 700 Q878 720 930 783 Q1000 869 1000 984 Q1000 1091 940 1162 Q900 1210 815 1223 Q764 1231 685 1231 L458 1229 L368 688 Z " />
<glyph glyph-name="Q" unicode="Q" horiz-adv-x="1309" d="M705 -20 Q700 -56 700 -75 Q700 -200 858 -200 Q876 -200 1033 -185 L1012 -311 Q889 -330 826 -330 Q694 -330 626 -260 Q571 -202 571 -103 Q571 -77 577 -26 Q379 0 264 124 Q190 203 148 327 Q110 435 110 569 Q110 815 215 1026 Q311 1219 462 1313 Q589 1392 745 1392 Q987 1392 1131 1214 Q1260 1054 1260 799 Q1260 670 1225 534 Q1143 213 923 60 Q826 -7 705 -20 Z M744 1254 Q625 1254 529 1183 Q408 1094 342 870 Q292 702 292 528 Q292 341 378 228 Q470 108 627 108 Q842 108 964 320 Q1018 415 1051 566 Q1080 697 1080 813 Q1080 1025 991 1139 Q901 1254 744 1254 Z " />
<glyph glyph-name="R" unicode="R" horiz-adv-x="1297" d="M755 598 L353 598 L253 0 L86 0 L314 1365 L741 1365 Q965 1365 1067 1305 Q1148 1256 1192 1175 Q1235 1097 1235 1002 Q1235 837 1118 726 Q1039 651 918 628 L1110 0 L933 0 L755 598 Z M375 735 L688 735 Q892 735 980 806 Q1021 839 1044 897 Q1065 949 1065 1006 Q1065 1231 771 1231 L459 1231 L375 735 Z " />
<glyph glyph-name="S" unicode="S" horiz-adv-x="1171" d="M1114 1080 L970 1025 Q937 1113 881 1168 Q775 1272 612 1272 Q469 1272 393 1196 Q325 1128 325 1032 Q325 935 398 884 Q454 844 524 826 L636 798 Q723 776 791 756 Q1084 667 1084 399 Q1084 213 956 99 Q813 -29 563 -29 Q328 -29 174 91 Q69 173 8 351 L157 405 Q204 275 263 217 Q374 109 568 109 Q752 109 844 209 Q915 286 915 380 Q915 513 798 570 Q752 592 590 631 Q404 675 304 739 Q225 789 186 876 Q157 941 157 1017 Q157 1201 305 1312 Q426 1402 608 1402 Q983 1402 1114 1080 Z " />
<glyph glyph-name="T" unicode="T" horiz-adv-x="1000" d="M1099 1226 L704 1226 L498 0 L332 0 L537 1226 L141 1226 L164 1365 L1123 1365 L1099 1226 Z " />
<glyph glyph-name="U" unicode="U" horiz-adv-x="1259" d="M1252 1365 L1113 533 Q1074 300 1020 201 Q941 58 785 3 Q693 -30 585 -30 Q435 -30 322 28 Q134 123 134 353 Q134 411 167 609 L294 1365 L461 1365 L327 573 Q299 414 299 362 Q299 261 363 192 Q441 108 591 108 Q757 108 851 203 Q910 262 933 341 Q955 415 972 518 L1114 1365 L1252 1365 Z " />
<glyph glyph-name="V" unicode="V" horiz-adv-x="1082" d="M554 0 L404 0 L134 1365 L316 1365 L530 262 L1061 1365 L1219 1365 L554 0 Z " />
<glyph glyph-name="W" unicode="W" horiz-adv-x="1663" d="M1215 0 L1046 0 L915 1088 L477 0 L300 0 L166 1365 L333 1365 L442 237 L903 1365 L1031 1365 L1171 237 L1627 1365 L1768 1365 L1215 0 Z " />
<glyph glyph-name="X" unicode="X" horiz-adv-x="1103" d="M1012 0 L819 0 L548 574 L93 0 L-80 0 L480 700 L161 1365 L348 1365 L596 837 L1015 1365 L1189 1365 L666 714 L1012 0 Z " />
<glyph glyph-name="Y" unicode="Y" horiz-adv-x="1049" d="M532 0 L360 0 L455 572 L107 1365 L290 1365 L574 719 L1046 1365 L1214 1365 L627 572 L532 0 Z " />
<glyph glyph-name="Z" unicode="Z" horiz-adv-x="1076" d="M1121 1365 L1102 1251 L197 145 L967 145 L943 0 L-37 0 L-13 145 L874 1227 L190 1227 L213 1365 L1121 1365 Z " />
<glyph glyph-name="bracketleft" unicode="&#x5b;" horiz-adv-x="601" d="M377 -341 L6 -341 L292 1365 L663 1365 L647 1272 L418 1272 L164 -248 L393 -248 L377 -341 Z " />
<glyph glyph-name="backslash" unicode="&#x5c;" horiz-adv-x="960" d="M812 -341 L231 1365 L345 1365 L924 -341 L812 -341 Z " />
<glyph glyph-name="bracketright" unicode="&#x5d;" horiz-adv-x="601" d="M226 1365 L597 1365 L311 -341 L-60 -341 L-44 -248 L185 -248 L439 1272 L210 1272 L226 1365 Z " />
<glyph glyph-name="asciicircum" unicode="&#x5e;" horiz-adv-x="1024" d="M1006 745 L839 745 L542 1248 L247 745 L82 745 L443 1369 L644 1369 L1006 745 Z " />
<glyph glyph-name="underscore" unicode="&#x5f;" horiz-adv-x="1024" d="M31 -136 L1055 -136 L1055 -273 L31 -273 L31 -136 Z " />
<glyph glyph-name="grave" unicode="&#x60;" horiz-adv-x="1024" d="M385 1356 L447 1476 L815 1248 L772 1167 L385 1356 Z " />
<glyph glyph-name="a" unicode="a" horiz-adv-x="1096" d="M877 0 L718 0 Q717 37 717 51 Q717 124 735 198 Q576 -29 355 -29 Q220 -29 132 49 Q32 136 32 275 Q32 407 129 498 Q241 603 465 624 Q545 631 648 631 Q672 631 800 625 Q811 693 811 732 Q811 843 728 888 Q666 922 578 922 Q436 922 351 842 Q319 811 285 752 L137 815 Q182 901 260 956 Q385 1044 564 1044 Q739 1044 854 970 Q972 893 972 769 Q972 721 896 230 Q875 98 875 41 Q875 30 877 0 Z M781 509 Q705 515 645 515 Q450 515 352 473 Q205 411 205 269 Q205 195 249 150 Q298 101 384 101 Q493 101 590 176 Q697 260 748 390 Q765 433 781 509 Z " />
<glyph glyph-name="b" unicode="b" horiz-adv-x="1101" d="M140 0 L72 0 L300 1365 L457 1365 L372 852 Q502 1039 684 1039 Q802 1039 888 971 Q970 907 1006 781 Q1029 698 1029 605 Q1029 426 949 261 Q886 129 790 56 Q680 -27 547 -27 Q420 -27 329 49 Q278 92 231 180 L140 0 Z M655 914 Q518 914 418 767 Q299 593 299 387 Q299 239 382 160 Q451 94 543 94 Q709 94 799 300 Q866 455 866 618 Q866 771 804 845 Q747 914 655 914 Z " />
<glyph glyph-name="c" unicode="c" horiz-adv-x="971" d="M940 690 L787 657 Q777 728 754 777 Q689 909 551 909 Q397 909 318 748 Q240 589 240 399 Q240 244 314 170 Q378 105 471 105 Q598 105 680 218 Q717 268 751 349 L879 301 Q840 190 778 117 Q648 -33 456 -33 Q290 -33 184 83 Q73 203 73 427 Q73 634 171 803 Q313 1046 560 1046 Q708 1046 812 954 Q923 854 940 690 Z " />
<glyph glyph-name="d" unicode="d" horiz-adv-x="1101" d="M859 0 L717 0 L756 200 Q702 117 661 76 Q557 -27 406 -27 Q263 -27 180 67 Q71 190 71 400 Q71 592 163 768 Q305 1038 555 1038 Q761 1038 848 848 L935 1365 L1088 1365 L859 0 Z M562 915 Q467 915 389 839 Q309 760 266 598 Q235 482 235 375 Q235 257 284 183 Q342 97 449 97 Q589 97 685 234 Q748 323 778 434 Q806 534 806 627 Q806 747 753 817 Q678 915 562 915 Z " />
<glyph glyph-name="e" unicode="e" horiz-adv-x="1065" d="M938 237 Q879 142 822 90 Q690 -29 499 -29 Q333 -29 217 69 Q68 196 68 435 Q68 641 164 798 Q252 942 395 1005 Q486 1046 591 1046 Q722 1046 822 983 Q993 875 993 609 Q993 561 984 493 L237 493 Q231 446 231 412 Q231 244 336 157 Q401 102 502 102 Q645 102 738 207 Q768 241 807 299 L938 237 Z M257 608 L833 608 Q835 640 835 657 Q835 776 769 848 Q699 926 582 926 Q413 926 313 760 Q274 695 257 608 Z " />
<glyph glyph-name="f" unicode="f" horiz-adv-x="614" d="M674 1013 L654 890 L408 890 L259 0 L103 0 L252 890 L64 890 L85 1013 L273 1013 Q304 1206 390 1293 Q493 1396 686 1396 Q724 1396 780 1389 L759 1266 Q714 1271 685 1271 Q543 1271 482 1180 Q441 1118 429 1013 L674 1013 Z " />
<glyph glyph-name="g" unicode="g" horiz-adv-x="1031" d="M1058 1078 Q1006 1081 974 1081 Q838 1081 802 952 Q935 845 935 702 Q935 587 868 492 Q756 333 534 333 Q440 333 339 375 Q209 315 209 240 Q209 200 253 184 Q286 173 484 170 Q626 168 698 158 Q835 138 895 50 Q932 -4 932 -78 Q932 -230 814 -307 Q690 -389 448 -389 Q-50 -389 -50 -147 Q-50 5 137 72 Q102 94 87 112 Q58 147 58 203 Q58 300 144 362 Q192 398 267 428 Q155 516 155 663 Q155 787 233 882 Q347 1021 562 1021 Q625 1021 721 994 Q759 1106 807 1153 Q874 1218 995 1218 Q1030 1218 1080 1209 L1058 1078 Z M554 904 Q441 904 372 829 Q311 763 311 664 Q311 554 382 494 Q439 446 526 446 Q662 446 729 537 Q776 602 776 684 Q776 792 708 850 Q646 904 554 904 Z M234 29 Q103 -10 103 -111 Q103 -188 190 -225 Q300 -273 481 -273 Q625 -273 702 -232 Q782 -190 782 -109 Q782 -56 739 -26 Q711 -7 661 1 Q611 9 507 9 Q352 11 234 29 Z " />
<glyph glyph-name="h" unicode="h" horiz-adv-x="1115" d="M456 1365 L366 825 Q431 923 492 970 Q585 1042 704 1042 Q843 1042 926 951 Q993 877 993 767 Q993 715 978 623 L873 0 L719 0 L823 623 Q835 692 835 748 Q835 844 769 889 Q725 919 667 919 Q579 919 498 848 Q348 719 297 416 L228 0 L72 0 L300 1365 L456 1365 Z " />
<glyph glyph-name="i" unicode="i" horiz-adv-x="470" d="M230 0 L73 0 L243 1014 L400 1014 L230 0 Z M453 1179 L250 1179 L281 1365 L484 1365 L453 1179 Z " />
<glyph glyph-name="j" unicode="j" horiz-adv-x="469" d="M397 1014 L238 65 Q212 -95 191 -151 Q152 -256 61 -308 Q-14 -351 -109 -351 Q-160 -351 -247 -339 L-227 -218 Q-156 -225 -120 -225 Q-7 -225 37 -138 Q54 -104 72 1 L83 65 L242 1014 L397 1014 Z M452 1179 L249 1179 L280 1365 L483 1365 L452 1179 Z " />
<glyph glyph-name="k" unicode="k" horiz-adv-x="1004" d="M228 0 L72 0 L300 1365 L456 1365 L312 504 L852 1013 L1035 1013 L646 652 L898 0 L732 0 L519 547 L280 310 L228 0 Z " />
<glyph glyph-name="l" unicode="l" horiz-adv-x="470" d="M456 1365 L228 0 L72 0 L300 1365 L456 1365 Z " />
<glyph glyph-name="m" unicode="m" horiz-adv-x="1673" d="M1431 0 L1275 0 L1373 585 Q1389 682 1389 735 Q1389 812 1348 857 Q1300 910 1222 910 Q1116 910 1023 785 Q940 674 903 454 L827 0 L670 0 L767 581 Q787 699 787 741 Q787 819 746 865 Q701 915 626 915 Q500 915 406 754 Q358 671 333 564 Q328 540 297 364 L231 0 L72 0 L242 1013 L389 1013 L364 846 Q428 930 475 968 Q561 1038 669 1038 Q874 1038 935 819 Q1076 1039 1266 1039 Q1376 1039 1456 974 Q1548 899 1548 770 Q1548 703 1535 623 L1431 0 Z " />
<glyph glyph-name="n" unicode="n" horiz-adv-x="1122" d="M880 0 L731 0 L829 583 Q846 685 846 727 Q846 809 798 862 Q748 918 657 918 Q503 918 398 748 Q326 632 280 363 L217 0 L72 0 L242 1013 L377 1013 L339 787 Q476 1042 696 1042 Q829 1042 914 957 Q995 876 995 757 Q995 686 978 584 L880 0 Z " />
<glyph glyph-name="o" unicode="o" horiz-adv-x="1066" d="M585 1038 Q794 1038 905 881 Q991 759 991 578 Q991 370 888 208 Q736 -30 483 -30 Q294 -30 184 101 Q76 231 76 439 Q76 663 204 837 Q353 1038 585 1038 Z M577 915 Q483 915 408 853 Q326 785 280 637 Q244 521 244 401 Q244 258 307 178 Q373 96 491 96 Q639 96 723 229 Q825 391 825 611 Q825 748 775 818 Q706 915 577 915 Z " />
<glyph glyph-name="p" unicode="p" horiz-adv-x="1097" d="M171 -341 L15 -341 L241 1009 L386 1009 L354 803 Q499 1032 694 1032 Q790 1032 873 972 Q956 911 995 794 Q1024 708 1024 604 Q1024 469 975 332 Q920 174 814 78 Q699 -27 554 -27 Q439 -27 354 35 Q303 72 253 148 L171 -341 Z M638 904 Q562 904 485 838 Q391 757 339 616 Q297 503 297 382 Q297 238 375 163 Q439 100 530 100 Q686 100 763 243 Q808 326 832 432 Q854 533 854 619 Q854 736 815 802 Q788 847 743 874 Q694 904 638 904 Z " />
<glyph glyph-name="q" unicode="q" horiz-adv-x="1092" d="M1020 1014 L793 -341 L637 -341 L726 192 Q598 -30 407 -30 Q263 -30 168 81 Q71 196 71 391 Q71 625 189 805 Q338 1033 554 1033 Q679 1033 767 960 Q812 924 860 843 L950 1014 L1020 1014 Z M561 913 Q472 913 400 848 Q322 779 276 626 Q238 501 238 374 Q238 212 327 142 Q384 97 448 97 Q538 97 621 179 Q705 264 758 420 Q797 538 797 625 Q797 754 733 831 Q667 913 561 913 Z " />
<glyph glyph-name="r" unicode="r" horiz-adv-x="694" d="M228 0 L72 0 L242 1014 L397 1014 L349 749 Q421 882 483 942 Q587 1042 727 1042 Q753 1042 762 1042 L736 882 Q712 883 693 883 Q484 883 368 627 Q312 503 266 227 L228 0 Z " />
<glyph glyph-name="s" unicode="s" horiz-adv-x="945" d="M857 796 L727 742 Q660 910 461 910 Q372 910 315 864 Q259 819 259 754 Q259 673 335 639 Q375 622 469 600 L532 585 Q639 561 682 539 Q834 464 834 299 Q834 169 738 78 Q628 -26 436 -26 Q103 -26 -9 250 L136 299 Q208 99 442 99 Q553 99 617 149 Q678 196 678 273 Q678 346 623 382 Q583 407 478 432 L425 445 Q310 472 261 495 Q99 571 99 729 Q99 854 191 940 Q292 1033 467 1033 Q643 1033 757 940 Q822 887 857 796 Z " />
<glyph glyph-name="t" unicode="t" horiz-adv-x="628" d="M383 891 L291 343 Q275 249 275 216 Q275 175 296 147 Q327 105 403 105 Q446 105 541 115 L525 -10 Q505 -12 496 -13 Q411 -22 377 -22 Q122 -22 122 201 Q122 257 148 411 L228 891 L74 891 L95 1014 L252 1014 L293 1259 L446 1273 L403 1014 L634 1014 L613 891 L383 891 Z " />
<glyph glyph-name="u" unicode="u" horiz-adv-x="1111" d="M1039 1014 L869 0 L733 0 L774 245 Q709 122 643 65 Q539 -27 405 -27 Q274 -27 194 61 Q125 138 125 258 Q125 317 147 447 L244 1014 L400 1014 L297 398 Q280 296 280 266 Q280 184 334 138 Q377 101 446 101 Q593 101 710 284 Q754 354 779 422 Q806 495 828 625 L893 1014 L1039 1014 Z " />
<glyph glyph-name="v" unicode="v" horiz-adv-x="910" d="M447 0 L303 0 L96 1014 L264 1014 L418 220 L816 1014 L957 1014 L447 0 Z " />
<glyph glyph-name="w" unicode="w" horiz-adv-x="1380" d="M959 0 L843 0 L716 772 L393 0 L266 0 L110 1014 L264 1014 L377 252 L696 1014 L825 1014 L946 252 L1280 1014 L1413 1014 L959 0 Z " />
<glyph glyph-name="x" unicode="x" horiz-adv-x="893" d="M812 0 L635 0 L424 418 L95 0 L-63 0 L356 525 L102 1013 L281 1013 L465 652 L746 1013 L898 1013 L527 543 L812 0 Z " />
<glyph glyph-name="y" unicode="y" horiz-adv-x="870" d="M941 1014 L385 -55 Q305 -208 238 -270 Q143 -356 3 -356 Q-37 -356 -98 -349 L-75 -213 Q-23 -223 13 -223 Q99 -223 159 -177 Q215 -135 259 -43 L294 28 L82 1014 L242 1014 L406 244 L805 1014 L941 1014 Z " />
<glyph glyph-name="z" unicode="z" horiz-adv-x="859" d="M733 0 L-37 0 L-19 106 L649 886 L130 886 L152 1014 L880 1014 L862 911 L187 127 L754 127 L733 0 Z " />
<glyph glyph-name="braceleft" unicode="&#x7b;" horiz-adv-x="601" d="M247 510 Q302 481 323 439 Q340 405 340 357 Q340 319 334 281 L278 -51 Q271 -94 271 -134 Q271 -201 336 -223 Q370 -234 435 -235 L418 -341 Q388 -341 375 -341 Q277 -341 219 -315 Q133 -275 133 -151 Q133 -104 142 -49 L197 279 Q203 315 203 346 Q203 439 111 465 L128 564 Q186 579 222 615 Q260 654 275 742 L334 1097 Q358 1240 437 1303 Q515 1365 660 1365 Q673 1365 703 1364 L686 1259 Q590 1257 545 1231 Q487 1197 468 1082 L410 736 Q393 635 351 582 Q320 543 247 510 Z " />
<glyph glyph-name="bar" unicode="&#x7c;" horiz-adv-x="1024" d="M467 1365 L620 1365 L620 -341 L467 -341 L467 1365 Z " />
<glyph glyph-name="braceright" unicode="&#x7d;" horiz-adv-x="601" d="M356 514 Q301 543 279 585 Q262 619 262 667 Q262 705 268 743 L324 1075 Q332 1122 332 1159 Q332 1225 267 1247 Q233 1258 167 1259 L184 1365 Q214 1365 227 1365 Q326 1365 383 1339 Q470 1299 470 1175 Q470 1133 460 1073 L405 745 Q399 708 399 679 Q399 617 434 588 Q458 568 491 559 L475 460 Q416 445 381 409 Q342 370 327 282 L268 -73 Q244 -216 165 -279 Q87 -341 -58 -341 Q-71 -341 -101 -340 L-83 -235 Q12 -233 57 -207 Q115 -173 134 -58 L192 288 Q209 389 251 442 Q282 481 356 514 Z " />
<glyph glyph-name="asciitilde" unicode="&#x7e;" horiz-adv-x="1201" d="M140 585 Q195 702 255 759 Q321 822 420 822 Q505 822 650 753 Q784 690 848 690 Q898 690 940 717 Q999 755 1020 805 Q1030 829 1043 829 Q1071 829 1125 772 Q1067 661 1010 608 Q979 578 926 558 Q882 541 842 541 Q779 541 702 572 Q651 592 589 622 Q477 674 407 674 Q368 674 326 646 Q263 606 242 548 Q233 524 220 524 Q192 524 140 585 Z " />
<glyph glyph-name="Adieresis" unicode="&#xc4;" horiz-adv-x="1155" d="M792 400 L294 400 L98 0 L-57 0 L612 1365 L801 1365 L1039 0 L863 0 L792 400 Z M772 537 L667 1164 L359 537 L772 537 Z M880 1730 Q922 1730 952 1700 Q983 1670 983 1626 Q983 1584 954 1554 Q923 1522 879 1522 Q836 1522 805 1553 Q775 1583 775 1626 Q775 1669 805 1699 Q836 1730 880 1730 Z M560 1727 Q601 1727 631 1698 Q662 1669 662 1625 Q662 1583 632 1553 Q602 1522 559 1522 Q516 1522 485 1553 Q457 1583 457 1624 Q457 1667 486 1697 Q517 1727 560 1727 Z " />
<glyph glyph-name="Aring" unicode="&#xc5;" horiz-adv-x="1155" d="M792 400 L294 400 L98 0 L-57 0 L612 1365 L801 1365 L1039 0 L863 0 L792 400 Z M772 537 L667 1164 L359 537 L772 537 Z M735 1816 Q808 1816 860 1762 Q911 1709 911 1634 Q911 1561 860 1508 Q808 1455 733 1455 Q660 1455 607 1506 Q551 1559 551 1635 Q551 1711 604 1763 Q659 1816 735 1816 Z M734 1725 Q695 1725 667 1699 Q640 1672 640 1634 Q640 1596 669 1569 Q696 1543 733 1543 Q771 1543 797 1571 Q822 1597 822 1633 Q822 1671 797 1698 Q770 1725 734 1725 Z " />
<glyph glyph-name="Ccedilla" unicode="&#xc7;" horiz-adv-x="1179" d="M605 -23 L571 -106 Q593 -105 610 -105 Q684 -105 736 -151 Q774 -184 774 -239 Q774 -326 696 -372 Q633 -410 539 -410 Q441 -410 351 -361 L385 -289 Q468 -329 534 -329 Q605 -329 636 -298 Q659 -275 659 -246 Q659 -174 531 -174 Q503 -174 456 -179 L527 -17 Q454 -7 381 27 Q254 86 178 241 Q109 384 109 569 Q109 846 246 1083 Q346 1258 492 1336 Q608 1399 738 1399 Q867 1399 974 1340 Q1124 1258 1178 1087 Q1195 1034 1207 945 L1058 908 Q1040 1045 999 1117 Q962 1182 896 1220 Q825 1261 737 1261 Q622 1261 534 1193 Q396 1086 326 825 Q285 672 285 542 Q285 320 391 205 Q431 162 498 136 Q553 115 611 115 Q765 115 879 257 Q924 314 979 436 L1118 384 Q968 -16 605 -23 Z " />
<glyph glyph-name="Eacute" unicode="&#xc9;" horiz-adv-x="1144" d="M1043 1670 L641 1495 L599 1576 L981 1790 L1043 1670 Z M86 0 L314 1365 L1165 1365 L1142 1229 L458 1229 L383 781 L969 781 L946 646 L361 646 L277 145 L1015 145 L991 0 L86 0 Z " />
<glyph glyph-name="Ntilde" unicode="&#xd1;" horiz-adv-x="1341" d="M1085 0 L952 0 L417 1167 L221 0 L86 0 L314 1365 L501 1365 L998 277 L1180 1365 L1314 1365 L1085 0 Z M1116 1701 L1192 1629 Q1151 1588 1125 1571 Q1064 1528 991 1528 Q943 1528 908 1544 L820 1582 Q778 1601 729 1601 Q656 1601 598 1535 L515 1593 Q602 1721 736 1721 Q782 1721 817 1706 L909 1667 Q950 1649 997 1649 Q1058 1649 1116 1701 Z " />
<glyph glyph-name="Odieresis" unicode="&#xd6;" horiz-adv-x="1315" d="M747 1392 Q957 1392 1096 1259 Q1264 1098 1264 791 Q1264 550 1162 341 Q983 -28 629 -28 Q383 -28 244 151 Q112 323 112 585 Q112 850 241 1075 Q423 1392 747 1392 Z M741 1254 Q580 1254 464 1122 Q356 1000 309 763 Q287 651 287 550 Q287 354 374 236 Q421 171 497 137 Q558 110 629 110 Q808 110 929 269 Q1036 410 1073 653 Q1090 767 1090 835 Q1090 1026 997 1138 Q901 1254 741 1254 Z M993 1730 Q1035 1730 1065 1700 Q1096 1670 1096 1626 Q1096 1584 1067 1554 Q1036 1522 992 1522 Q949 1522 918 1553 Q888 1583 888 1626 Q888 1669 918 1699 Q949 1730 993 1730 Z M673 1727 Q714 1727 744 1698 Q775 1669 775 1625 Q775 1583 745 1553 Q715 1522 672 1522 Q629 1522 598 1553 Q570 1583 570 1624 Q570 1667 599 1697 Q630 1727 673 1727 Z " />
<glyph glyph-name="Udieresis" unicode="&#xdc;" horiz-adv-x="1259" d="M1252 1365 L1113 533 Q1074 300 1020 201 Q941 58 785 3 Q693 -30 585 -30 Q435 -30 322 28 Q134 123 134 353 Q134 411 167 609 L294 1365 L461 1365 L327 573 Q299 414 299 362 Q299 261 363 192 Q441 108 591 108 Q757 108 851 203 Q910 262 933 341 Q955 415 972 518 L1114 1365 L1252 1365 Z M972 1730 Q1014 1730 1044 1700 Q1075 1670 1075 1626 Q1075 1584 1046 1554 Q1015 1522 971 1522 Q928 1522 897 1553 Q867 1583 867 1626 Q867 1669 897 1699 Q928 1730 972 1730 Z M652 1727 Q693 1727 723 1698 Q754 1669 754 1625 Q754 1583 724 1553 Q694 1522 651 1522 Q608 1522 577 1553 Q549 1583 549 1624 Q549 1667 578 1697 Q609 1727 652 1727 Z " />
<glyph glyph-name="aacute" unicode="&#xe1;" horiz-adv-x="1096" d="M877 0 L718 0 Q717 37 717 51 Q717 124 735 198 Q576 -29 355 -29 Q220 -29 132 49 Q32 136 32 275 Q32 407 129 498 Q241 603 465 624 Q545 631 648 631 Q672 631 800 625 Q811 693 811 732 Q811 843 728 888 Q666 922 578 922 Q436 922 351 842 Q319 811 285 752 L137 815 Q182 901 260 956 Q385 1044 564 1044 Q739 1044 854 970 Q972 893 972 769 Q972 721 896 230 Q875 98 875 41 Q875 30 877 0 Z M781 509 Q705 515 645 515 Q450 515 352 473 Q205 411 205 269 Q205 195 249 150 Q298 101 384 101 Q493 101 590 176 Q697 260 748 390 Q765 433 781 509 Z M944 1356 L543 1167 L500 1248 L882 1476 L944 1356 Z " />
<glyph glyph-name="agrave" unicode="&#xe0;" horiz-adv-x="1096" d="M877 0 L718 0 Q717 37 717 51 Q717 124 735 198 Q576 -29 355 -29 Q220 -29 132 49 Q32 136 32 275 Q32 407 129 498 Q241 603 465 624 Q545 631 648 631 Q672 631 800 625 Q811 693 811 732 Q811 843 728 888 Q666 922 578 922 Q436 922 351 842 Q319 811 285 752 L137 815 Q182 901 260 956 Q385 1044 564 1044 Q739 1044 854 970 Q972 893 972 769 Q972 721 896 230 Q875 98 875 41 Q875 30 877 0 Z M781 509 Q705 515 645 515 Q450 515 352 473 Q205 411 205 269 Q205 195 249 150 Q298 101 384 101 Q493 101 590 176 Q697 260 748 390 Q765 433 781 509 Z M384 1356 L446 1476 L814 1248 L772 1167 L384 1356 Z " />
<glyph glyph-name="acircumflex" unicode="&#xe2;" horiz-adv-x="1096" d="M877 0 L718 0 Q717 37 717 51 Q717 124 735 198 Q576 -29 355 -29 Q220 -29 132 49 Q32 136 32 275 Q32 407 129 498 Q241 603 465 624 Q545 631 648 631 Q672 631 800 625 Q811 693 811 732 Q811 843 728 888 Q666 922 578 922 Q436 922 351 842 Q319 811 285 752 L137 815 Q182 901 260 956 Q385 1044 564 1044 Q739 1044 854 970 Q972 893 972 769 Q972 721 896 230 Q875 98 875 41 Q875 30 877 0 Z M781 509 Q705 515 645 515 Q450 515 352 473 Q205 411 205 269 Q205 195 249 150 Q298 101 384 101 Q493 101 590 176 Q697 260 748 390 Q765 433 781 509 Z M981 1194 L836 1174 L678 1311 L475 1174 L332 1194 L703 1454 L981 1194 Z " />
<glyph glyph-name="adieresis" unicode="&#xe4;" horiz-adv-x="1096" d="M877 0 L718 0 Q717 37 717 51 Q717 124 735 198 Q576 -29 355 -29 Q220 -29 132 49 Q32 136 32 275 Q32 407 129 498 Q241 603 465 624 Q545 631 648 631 Q672 631 800 625 Q811 693 811 732 Q811 843 728 888 Q666 922 578 922 Q436 922 351 842 Q319 811 285 752 L137 815 Q182 901 260 956 Q385 1044 564 1044 Q739 1044 854 970 Q972 893 972 769 Q972 721 896 230 Q875 98 875 41 Q875 30 877 0 Z M781 509 Q705 515 645 515 Q450 515 352 473 Q205 411 205 269 Q205 195 249 150 Q298 101 384 101 Q493 101 590 176 Q697 260 748 390 Q765 433 781 509 Z M824 1409 Q866 1409 896 1379 Q927 1349 927 1305 Q927 1263 898 1233 Q867 1201 823 1201 Q780 1201 749 1232 Q719 1262 719 1305 Q719 1348 749 1378 Q780 1409 824 1409 Z M504 1406 Q545 1406 575 1377 Q606 1348 606 1304 Q606 1262 576 1232 Q546 1201 503 1201 Q460 1201 429 1232 Q401 1262 401 1303 Q401 1346 430 1376 Q461 1406 504 1406 Z " />
<glyph glyph-name="atilde" unicode="&#xe3;" horiz-adv-x="1096" d="M877 0 L718 0 Q717 37 717 51 Q717 124 735 198 Q576 -29 355 -29 Q220 -29 132 49 Q32 136 32 275 Q32 407 129 498 Q241 603 465 624 Q545 631 648 631 Q672 631 800 625 Q811 693 811 732 Q811 843 728 888 Q666 922 578 922 Q436 922 351 842 Q319 811 285 752 L137 815 Q182 901 260 956 Q385 1044 564 1044 Q739 1044 854 970 Q972 893 972 769 Q972 721 896 230 Q875 98 875 41 Q875 30 877 0 Z M781 509 Q705 515 645 515 Q450 515 352 473 Q205 411 205 269 Q205 195 249 150 Q298 101 384 101 Q493 101 590 176 Q697 260 748 390 Q765 433 781 509 Z M940 1380 L1016 1308 Q975 1267 950 1250 Q888 1207 815 1207 Q767 1207 732 1223 L644 1261 Q602 1280 553 1280 Q480 1280 422 1214 L339 1272 Q427 1400 560 1400 Q606 1400 641 1385 L733 1346 Q774 1328 822 1328 Q882 1328 940 1380 Z " />
<glyph glyph-name="aring" unicode="&#xe5;" horiz-adv-x="1096" d="M877 0 L718 0 Q717 37 717 51 Q717 124 735 198 Q576 -29 355 -29 Q220 -29 132 49 Q32 136 32 275 Q32 407 129 498 Q241 603 465 624 Q545 631 648 631 Q672 631 800 625 Q811 693 811 732 Q811 843 728 888 Q666 922 578 922 Q436 922 351 842 Q319 811 285 752 L137 815 Q182 901 260 956 Q385 1044 564 1044 Q739 1044 854 970 Q972 893 972 769 Q972 721 896 230 Q875 98 875 41 Q875 30 877 0 Z M781 509 Q705 515 645 515 Q450 515 352 473 Q205 411 205 269 Q205 195 249 150 Q298 101 384 101 Q493 101 590 176 Q697 260 748 390 Q765 433 781 509 Z M670 1501 Q740 1501 790 1449 Q839 1398 839 1326 Q839 1256 790 1205 Q740 1154 668 1154 Q597 1154 546 1203 Q493 1254 493 1327 Q493 1400 544 1450 Q598 1501 670 1501 Z M669 1418 Q630 1418 603 1392 Q576 1365 576 1328 Q576 1289 605 1262 Q631 1236 668 1236 Q705 1236 731 1264 Q756 1290 756 1326 Q756 1364 731 1391 Q705 1418 669 1418 Z " />
<glyph glyph-name="ccedilla" unicode="&#xe7;" horiz-adv-x="971" d="M460 -33 L432 -98 Q452 -97 469 -97 Q538 -97 585 -139 Q620 -170 620 -221 Q620 -301 548 -344 Q490 -379 404 -379 Q311 -379 230 -333 L261 -267 Q337 -304 398 -304 Q464 -304 493 -275 Q514 -254 514 -227 Q514 -160 395 -160 Q370 -160 327 -165 L387 -27 Q335 -17 295 2 Q73 110 73 427 Q73 635 171 803 Q313 1046 560 1046 Q708 1046 812 954 Q923 855 940 690 L787 657 Q777 728 754 777 Q689 909 551 909 Q397 909 318 748 Q240 589 240 399 Q240 244 314 170 Q378 105 471 105 Q598 105 680 218 Q717 268 751 349 L879 301 Q807 94 645 12 Q561 -30 460 -33 Z " />
<glyph glyph-name="eacute" unicode="&#xe9;" horiz-adv-x="1065" d="M938 237 Q879 142 822 90 Q690 -29 499 -29 Q333 -29 217 69 Q68 196 68 435 Q68 641 164 798 Q252 942 395 1005 Q486 1046 591 1046 Q722 1046 822 983 Q993 875 993 609 Q993 561 984 493 L237 493 Q231 446 231 412 Q231 244 336 157 Q401 102 502 102 Q645 102 738 207 Q768 241 807 299 L938 237 Z M257 608 L833 608 Q835 640 835 657 Q835 776 769 848 Q699 926 582 926 Q413 926 313 760 Q274 695 257 608 Z M931 1356 L530 1167 L487 1248 L869 1476 L931 1356 Z " />
<glyph glyph-name="egrave" unicode="&#xe8;" horiz-adv-x="1065" d="M938 237 Q879 142 822 90 Q690 -29 499 -29 Q333 -29 217 69 Q68 196 68 435 Q68 641 164 798 Q252 942 395 1005 Q486 1046 591 1046 Q722 1046 822 983 Q993 875 993 609 Q993 561 984 493 L237 493 Q231 446 231 412 Q231 244 336 157 Q401 102 502 102 Q645 102 738 207 Q768 241 807 299 L938 237 Z M257 608 L833 608 Q835 640 835 657 Q835 776 769 848 Q699 926 582 926 Q413 926 313 760 Q274 695 257 608 Z M364 1356 L426 1476 L794 1248 L752 1167 L364 1356 Z " />
<glyph glyph-name="ecircumflex" unicode="&#xea;" horiz-adv-x="1065" d="M938 237 Q879 142 822 90 Q690 -29 499 -29 Q333 -29 217 69 Q68 196 68 435 Q68 641 164 798 Q252 942 395 1005 Q486 1046 591 1046 Q722 1046 822 983 Q993 875 993 609 Q993 561 984 493 L237 493 Q231 446 231 412 Q231 244 336 157 Q401 102 502 102 Q645 102 738 207 Q768 241 807 299 L938 237 Z M257 608 L833 608 Q835 640 835 657 Q835 776 769 848 Q699 926 582 926 Q413 926 313 760 Q274 695 257 608 Z M979 1194 L834 1174 L676 1311 L473 1174 L330 1194 L700 1454 L979 1194 Z " />
<glyph glyph-name="edieresis" unicode="&#xeb;" horiz-adv-x="1065" d="M938 237 Q879 142 822 90 Q690 -29 499 -29 Q333 -29 217 69 Q68 196 68 435 Q68 641 164 798 Q252 942 395 1005 Q486 1046 591 1046 Q722 1046 822 983 Q993 875 993 609 Q993 561 984 493 L237 493 Q231 446 231 412 Q231 244 336 157 Q401 102 502 102 Q645 102 738 207 Q768 241 807 299 L938 237 Z M257 608 L833 608 Q835 640 835 657 Q835 776 769 848 Q699 926 582 926 Q413 926 313 760 Q274 695 257 608 Z M824 1409 Q865 1409 896 1379 Q927 1349 927 1305 Q927 1263 898 1233 Q867 1201 823 1201 Q780 1201 749 1232 Q719 1262 719 1305 Q719 1348 749 1378 Q780 1409 824 1409 Z M504 1406 Q545 1406 575 1377 Q606 1348 606 1304 Q606 1262 576 1232 Q546 1201 503 1201 Q459 1201 429 1232 Q401 1262 401 1303 Q401 1346 430 1376 Q461 1406 504 1406 Z " />
<glyph glyph-name="iacute" unicode="&#xed;" horiz-adv-x="470" d="M229 0 L73 0 L243 1014 L398 1014 L229 0 Z M626 1362 L269 1167 L226 1248 L563 1476 L626 1362 Z " />
<glyph glyph-name="igrave" unicode="&#xec;" horiz-adv-x="470" d="M229 0 L73 0 L243 1014 L398 1014 L229 0 Z M88 1362 L151 1476 L474 1248 L432 1167 L88 1362 Z " />
<glyph glyph-name="icircumflex" unicode="&#xee;" horiz-adv-x="470" d="M229 0 L73 0 L243 1014 L398 1014 L229 0 Z M618 1194 L487 1174 L369 1311 L207 1174 L78 1194 L393 1454 L618 1194 Z " />
<glyph glyph-name="idieresis" unicode="&#xef;" horiz-adv-x="470" d="M229 0 L73 0 L243 1014 L398 1014 L229 0 Z M495 1409 Q537 1409 567 1379 Q598 1349 598 1305 Q598 1263 569 1233 Q538 1201 494 1201 Q451 1201 420 1232 Q390 1262 390 1305 Q390 1348 420 1378 Q451 1409 495 1409 Z M229 1406 Q270 1406 300 1377 Q331 1347 331 1304 Q331 1262 301 1232 Q271 1201 228 1201 Q185 1201 155 1232 Q126 1262 126 1303 Q126 1346 155 1376 Q186 1406 229 1406 Z " />
<glyph glyph-name="ntilde" unicode="&#xf1;" horiz-adv-x="1122" d="M880 0 L731 0 L829 583 Q846 685 846 727 Q846 809 798 862 Q748 918 657 918 Q503 918 398 748 Q326 632 280 363 L217 0 L72 0 L242 1013 L377 1013 L339 787 Q476 1042 696 1042 Q829 1042 914 957 Q995 876 995 757 Q995 686 978 584 L880 0 Z M961 1380 L1036 1308 Q996 1267 970 1250 Q909 1207 836 1207 Q788 1207 753 1223 L664 1261 Q622 1280 574 1280 Q501 1280 442 1214 L359 1272 Q447 1400 581 1400 Q627 1400 661 1385 L754 1346 Q795 1328 842 1328 Q903 1328 961 1380 Z " />
<glyph glyph-name="oacute" unicode="&#xf3;" horiz-adv-x="1066" d="M585 1038 Q794 1038 905 881 Q991 759 991 578 Q991 370 888 208 Q736 -30 483 -30 Q294 -30 184 101 Q76 231 76 439 Q76 663 204 837 Q353 1038 585 1038 Z M577 915 Q483 915 408 853 Q326 785 280 637 Q244 521 244 401 Q244 258 307 178 Q373 96 491 96 Q639 96 723 229 Q825 391 825 611 Q825 748 775 818 Q706 915 577 915 Z M958 1356 L557 1167 L515 1248 L897 1476 L958 1356 Z " />
<glyph glyph-name="ograve" unicode="&#xf2;" horiz-adv-x="1066" d="M585 1038 Q794 1038 905 881 Q991 759 991 578 Q991 370 888 208 Q736 -30 483 -30 Q294 -30 184 101 Q76 231 76 439 Q76 663 204 837 Q353 1038 585 1038 Z M577 915 Q483 915 408 853 Q326 785 280 637 Q244 521 244 401 Q244 258 307 178 Q373 96 491 96 Q639 96 723 229 Q825 391 825 611 Q825 748 775 818 Q706 915 577 915 Z M378 1356 L440 1476 L808 1248 L766 1167 L378 1356 Z " />
<glyph glyph-name="ocircumflex" unicode="&#xf4;" horiz-adv-x="1066" d="M585 1038 Q794 1038 905 881 Q991 759 991 578 Q991 370 888 208 Q736 -30 483 -30 Q294 -30 184 101 Q76 231 76 439 Q76 663 204 837 Q353 1038 585 1038 Z M577 915 Q483 915 408 853 Q326 785 280 637 Q244 521 244 401 Q244 258 307 178 Q373 96 491 96 Q639 96 723 229 Q825 391 825 611 Q825 748 775 818 Q706 915 577 915 Z M986 1194 L841 1174 L683 1311 L480 1174 L337 1194 L707 1454 L986 1194 Z " />
<glyph glyph-name="odieresis" unicode="&#xf6;" horiz-adv-x="1066" d="M585 1038 Q794 1038 905 881 Q991 759 991 578 Q991 370 888 208 Q736 -30 483 -30 Q294 -30 184 101 Q76 231 76 439 Q76 663 204 837 Q353 1038 585 1038 Z M577 915 Q483 915 408 853 Q326 785 280 637 Q244 521 244 401 Q244 258 307 178 Q373 96 491 96 Q639 96 723 229 Q825 391 825 611 Q825 748 775 818 Q706 915 577 915 Z M831 1409 Q873 1409 903 1379 Q934 1349 934 1305 Q934 1263 905 1233 Q874 1201 830 1201 Q787 1201 756 1232 Q726 1262 726 1305 Q726 1348 756 1378 Q787 1409 831 1409 Z M511 1406 Q552 1406 582 1377 Q613 1348 613 1304 Q613 1262 583 1232 Q553 1201 510 1201 Q467 1201 436 1232 Q408 1262 408 1303 Q408 1346 437 1376 Q468 1406 511 1406 Z " />
<glyph glyph-name="otilde" unicode="&#xf5;" horiz-adv-x="1066" d="M585 1038 Q794 1038 905 881 Q991 759 991 578 Q991 370 888 208 Q736 -30 483 -30 Q294 -30 184 101 Q76 231 76 439 Q76 663 204 837 Q353 1038 585 1038 Z M577 915 Q483 915 408 853 Q326 785 280 637 Q244 521 244 401 Q244 258 307 178 Q373 96 491 96 Q639 96 723 229 Q825 391 825 611 Q825 748 775 818 Q706 915 577 915 Z M941 1380 L1016 1308 Q976 1267 950 1250 Q889 1207 816 1207 Q768 1207 733 1223 L645 1261 Q602 1280 554 1280 Q481 1280 423 1214 L339 1272 Q427 1400 561 1400 Q607 1400 642 1385 L734 1346 Q775 1328 822 1328 Q883 1328 941 1380 Z " />
<glyph glyph-name="uacute" unicode="&#xfa;" horiz-adv-x="1111" d="M1039 1014 L869 0 L733 0 L774 245 Q709 122 643 65 Q539 -27 405 -27 Q274 -27 194 61 Q125 138 125 258 Q125 317 147 447 L244 1014 L400 1014 L297 398 Q280 296 280 266 Q280 184 334 138 Q377 101 446 101 Q593 101 710 284 Q754 354 779 422 Q806 495 828 625 L893 1014 L1039 1014 Z M986 1356 L584 1167 L542 1248 L924 1476 L986 1356 Z " />
<glyph glyph-name="ugrave" unicode="&#xf9;" horiz-adv-x="1111" d="M1039 1014 L869 0 L733 0 L774 245 Q709 122 643 65 Q539 -27 405 -27 Q274 -27 194 61 Q125 138 125 258 Q125 317 147 447 L244 1014 L400 1014 L297 398 Q280 296 280 266 Q280 184 334 138 Q377 101 446 101 Q593 101 710 284 Q754 354 779 422 Q806 495 828 625 L893 1014 L1039 1014 Z M405 1356 L467 1476 L835 1248 L793 1167 L405 1356 Z " />
<glyph glyph-name="ucircumflex" unicode="&#xfb;" horiz-adv-x="1111" d="M1039 1014 L869 0 L733 0 L774 245 Q709 122 643 65 Q539 -27 405 -27 Q274 -27 194 61 Q125 138 125 258 Q125 317 147 447 L244 1014 L400 1014 L297 398 Q280 296 280 266 Q280 184 334 138 Q377 101 446 101 Q593 101 710 284 Q754 354 779 422 Q806 495 828 625 L893 1014 L1039 1014 Z M1000 1194 L855 1174 L696 1311 L494 1174 L350 1194 L721 1454 L1000 1194 Z " />
<glyph glyph-name="udieresis" unicode="&#xfc;" horiz-adv-x="1111" d="M1039 1014 L869 0 L733 0 L774 245 Q709 122 643 65 Q539 -27 405 -27 Q274 -27 194 61 Q125 138 125 258 Q125 317 147 447 L244 1014 L400 1014 L297 398 Q280 296 280 266 Q280 184 334 138 Q377 101 446 101 Q593 101 710 284 Q754 354 779 422 Q806 495 828 625 L893 1014 L1039 1014 Z M846 1409 Q888 1409 918 1379 Q949 1349 949 1305 Q949 1263 920 1233 Q889 1201 845 1201 Q802 1201 771 1232 Q741 1263 741 1305 Q741 1348 771 1378 Q802 1409 846 1409 Z M526 1406 Q567 1406 597 1377 Q628 1348 628 1304 Q628 1262 598 1232 Q568 1201 525 1201 Q482 1201 451 1232 Q423 1262 423 1303 Q423 1346 452 1376 Q483 1406 526 1406 Z " />
<glyph glyph-name="dagger" unicode="&#x2020;" horiz-adv-x="1201" d="M671 1365 L818 1365 L751 967 L1131 967 L1108 831 L728 831 L532 -341 L386 -341 L582 831 L202 831 L225 967 L605 967 L671 1365 Z " />
<glyph glyph-name="degree" unicode="&#xb0;" horiz-adv-x="1201" d="M704 1392 Q817 1392 897 1312 Q975 1234 975 1123 Q975 1009 894 930 Q814 852 699 852 Q590 852 512 931 Q433 1010 433 1122 Q433 1236 513 1313 Q594 1392 704 1392 Z M704 1277 Q640 1277 594 1231 Q549 1186 549 1122 Q549 1058 594 1013 Q638 968 700 968 Q766 968 812 1013 Q859 1058 859 1122 Q859 1187 814 1231 Q767 1277 704 1277 Z " />
<glyph glyph-name="cent" unicode="&#xa2;" horiz-adv-x="1201" d="M566 -102 L461 -102 L517 230 Q430 251 377 300 Q255 412 255 614 Q255 781 340 917 Q459 1109 664 1111 L709 1379 L814 1379 L767 1099 Q876 1072 940 994 Q986 937 1016 832 L901 794 Q868 894 827 941 Q796 976 749 989 L639 331 Q771 340 855 520 L959 473 Q900 341 818 280 Q736 219 619 217 L566 -102 Z M536 344 L645 995 Q588 989 543 955 Q480 909 441 809 Q403 711 403 593 Q403 481 450 411 Q482 363 536 344 Z " />
<glyph glyph-name="sterling" unicode="&#xa3;" horiz-adv-x="1201" d="M1126 216 Q1052 105 977 59 Q900 11 806 4 Q745 0 637 0 L-59 0 L-35 145 Q78 147 121 153 Q238 168 318 263 Q383 340 397 442 Q411 549 411 623 Q411 632 410 648 L193 648 L212 763 L413 763 Q414 867 419 922 Q438 1152 594 1282 Q706 1375 842 1375 Q956 1375 1039 1315 Q1087 1280 1140 1201 L1016 1117 Q951 1242 839 1242 Q736 1242 665 1164 Q593 1084 590 927 Q588 792 587 763 L876 763 L856 648 L584 648 Q578 472 541 374 Q488 236 349 145 L405 145 L517 145 L636 145 Q760 145 808 152 Q856 159 901 185 Q955 215 1014 301 L1126 216 Z " />
<glyph glyph-name="section" unicode="&#xa7;" horiz-adv-x="1201" d="M35 -72 L208 -43 Q305 -229 532 -229 Q660 -229 743 -163 Q812 -107 812 -16 Q812 44 777 85 Q741 126 618 175 Q585 187 419 241 Q314 275 254 329 Q179 397 179 517 Q179 639 286 735 Q333 778 417 822 Q297 914 297 1054 Q297 1150 349 1234 Q396 1313 497 1355 Q585 1392 690 1392 Q886 1392 1004 1298 Q1076 1241 1116 1127 L958 1110 Q895 1269 700 1269 Q594 1269 529 1222 Q460 1172 460 1085 Q460 997 541 951 Q600 917 771 853 Q891 808 934 776 Q993 731 1021 660 Q1041 610 1041 559 Q1041 445 932 347 Q908 325 829 272 Q869 247 886 235 Q930 203 961 131 Q984 77 984 14 Q984 -133 886 -236 Q759 -368 526 -368 Q298 -368 146 -235 Q71 -170 35 -72 Z M701 322 Q882 400 882 520 Q882 600 812 652 Q781 674 737 692 Q715 701 614 735 Q575 748 539 764 Q472 732 421 690 Q346 631 346 558 Q346 478 430 427 Q463 407 701 322 Z " />
<glyph glyph-name="bullet" unicode="&#x2022;" horiz-adv-x="1365" d="M723 978 Q836 978 919 895 Q1003 812 1003 694 Q1003 576 919 493 Q837 410 719 410 Q601 410 519 493 Q435 576 435 693 Q435 814 519 895 Q604 978 723 978 Z " />
<glyph glyph-name="paragraph" unicode="&#xb6;" horiz-adv-x="1201" d="M1229 1365 L1213 1269 L1077 1269 L807 -341 L708 -341 L977 1269 L879 1269 L609 -341 L510 -341 L688 725 L579 725 Q386 725 314 768 Q204 836 204 1005 Q204 1196 336 1292 Q413 1348 545 1360 Q606 1365 690 1365 L1229 1365 Z M704 821 L779 1269 L709 1269 Q570 1269 508 1248 Q424 1219 391 1131 Q369 1073 369 1007 Q369 891 448 847 Q495 821 603 821 L704 821 Z " />
<glyph glyph-name="germandbls" unicode="&#xdf;" horiz-adv-x="1135" d="M217 -60 L61 -60 L208 818 L104 818 L125 944 L229 943 Q277 1166 364 1281 Q493 1451 724 1451 Q863 1451 955 1380 Q1056 1302 1056 1183 Q1056 1082 986 999 Q875 867 588 866 Q572 852 572 840 Q572 811 656 779 Q799 726 855 698 Q1062 594 1062 401 Q1062 260 969 142 Q838 -24 591 -24 Q466 -24 347 26 L391 146 Q492 108 593 108 Q728 108 814 188 Q891 260 891 362 Q891 447 830 500 Q788 536 661 598 Q521 667 480 703 Q434 743 434 799 Q434 879 502 951 Q666 968 763 1008 Q820 1032 858 1076 Q899 1124 899 1177 Q899 1246 838 1289 Q789 1324 708 1324 Q558 1324 473 1208 Q433 1152 411 1073 Q399 1030 380 917 L217 -60 Z " />
<glyph glyph-name="registered" unicode="&#xae;" horiz-adv-x="1584" d="M872 626 L641 626 L582 273 L457 273 L594 1092 L870 1092 Q1010 1092 1076 1056 Q1188 995 1188 869 Q1188 748 1083 680 Q1045 656 995 646 L1118 273 L986 273 L872 626 Z M657 720 L840 720 Q982 720 1027 773 Q1061 813 1061 872 Q1061 999 887 999 L704 999 L657 720 Z M833 1388 Q1014 1388 1175 1293 Q1340 1196 1433 1035 Q1528 872 1528 683 Q1528 493 1433 330 Q1339 166 1175 72 Q1011 -23 822 -23 Q633 -23 469 72 Q304 166 211 330 Q116 494 116 688 Q116 993 350 1206 Q549 1388 833 1388 Z M832 1287 Q554 1287 373 1087 Q217 915 217 687 Q217 413 417 233 Q590 78 822 78 Q984 78 1124 159 Q1266 240 1346 380 Q1427 521 1427 683 Q1427 948 1226 1131 Q1133 1217 1013 1256 Q916 1287 832 1287 Z " />
<glyph glyph-name="copyright" unicode="&#xa9;" horiz-adv-x="1584" d="M1173 833 L1059 806 Q1052 857 1039 896 Q999 1017 867 1017 Q752 1017 687 911 Q602 771 602 603 Q602 474 665 407 Q715 354 796 354 Q887 354 953 436 Q979 468 1012 540 L1016 548 L1120 510 Q1028 259 792 259 Q693 259 623 302 Q541 352 502 452 Q471 531 471 619 Q471 831 601 987 Q706 1112 869 1112 Q975 1112 1055 1056 Q1143 993 1166 869 Q1169 856 1173 833 Z M833 1388 Q1014 1388 1175 1293 Q1340 1196 1433 1035 Q1528 872 1528 683 Q1528 493 1433 330 Q1339 166 1175 72 Q1011 -23 822 -23 Q633 -23 469 72 Q304 166 211 330 Q116 494 116 688 Q116 993 350 1206 Q549 1388 833 1388 Z M832 1287 Q554 1287 373 1087 Q217 915 217 687 Q217 413 417 233 Q590 78 822 78 Q984 78 1124 159 Q1266 240 1346 380 Q1427 521 1427 683 Q1427 948 1226 1131 Q1133 1217 1013 1256 Q916 1287 832 1287 Z " />
<glyph glyph-name="trademark" unicode="&#x2122;" horiz-adv-x="1628" d="M736 1273 L495 1273 L380 587 L257 587 L372 1273 L130 1273 L145 1365 L752 1365 L736 1273 Z M1548 587 L1425 587 L1534 1238 L1173 587 L1078 587 L930 1229 L823 587 L716 587 L847 1365 L1020 1365 L1160 760 L1496 1365 L1679 1365 L1548 587 Z " />
<glyph glyph-name="acute" unicode="&#xb4;" horiz-adv-x="1024" d="M945 1356 L544 1167 L501 1248 L883 1476 L945 1356 Z " />
<glyph glyph-name="dieresis" unicode="&#xa8;" horiz-adv-x="1024" d="M804 1409 Q845 1409 876 1379 Q907 1349 907 1305 Q907 1263 878 1233 Q847 1201 803 1201 Q760 1201 729 1232 Q699 1262 699 1305 Q699 1348 729 1378 Q760 1409 804 1409 Z M484 1406 Q525 1406 555 1377 Q586 1348 586 1304 Q586 1262 556 1232 Q526 1201 483 1201 Q439 1201 409 1232 Q381 1262 381 1303 Q381 1346 410 1376 Q441 1406 484 1406 Z " />
<glyph glyph-name="notequal" unicode="&#x2260;" horiz-adv-x="1201" d="M677 909 L788 1139 L893 1096 L803 909 L1075 909 L1075 770 L740 770 L650 585 L1075 585 L1075 446 L587 446 L475 214 L370 258 L461 446 L189 446 L189 585 L524 585 L614 770 L189 770 L189 909 L677 909 Z " />
<glyph glyph-name="AE" unicode="&#xc6;" horiz-adv-x="1790" d="M1637 0 L728 0 L807 471 L410 471 L61 0 L-112 0 L910 1365 L1812 1365 L1790 1230 L1100 1230 L1025 781 L1615 781 L1593 647 L1003 647 L919 145 L1661 145 L1637 0 Z M828 601 L925 1176 L502 601 L828 601 Z " />
<glyph glyph-name="Oslash" unicode="&#xd8;" horiz-adv-x="1315" d="M300 91 L195 -48 L49 -48 L222 183 Q112 355 112 587 Q112 850 241 1074 Q425 1393 746 1393 Q926 1393 1074 1279 L1187 1420 L1337 1420 L1156 1190 Q1264 1021 1264 797 Q1264 528 1154 320 Q968 -28 637 -28 Q447 -28 300 91 Z M400 203 Q501 110 628 110 Q785 110 899 231 Q996 335 1051 545 Q1090 694 1090 842 Q1090 956 1042 1068 L400 203 Z M334 304 L971 1166 Q868 1254 739 1254 Q603 1254 497 1154 Q394 1058 337 867 Q289 709 289 543 Q289 416 334 304 Z " />
<glyph glyph-name="infinity" unicode="&#x221e;" horiz-adv-x="1365" d="M718 594 Q566 382 377 382 Q235 382 147 478 Q69 565 69 699 Q69 846 167 932 Q258 1011 378 1011 Q566 1011 711 799 Q857 1011 1052 1011 Q1193 1011 1281 914 Q1359 829 1359 695 Q1359 544 1261 458 Q1174 381 1052 381 Q861 381 718 594 Z M791 696 Q837 626 880 586 Q951 519 1031 519 Q1108 519 1157 573 Q1202 622 1202 698 Q1202 781 1146 830 Q1096 874 1030 874 Q940 874 854 780 Q828 751 800 711 Q791 697 791 696 Z M638 696 Q591 766 548 806 Q477 873 396 873 Q320 873 271 819 Q226 770 226 695 Q226 612 282 563 Q332 519 399 519 Q488 519 574 613 Q587 626 612.5 660 Q638 694 638 696 Z " />
<glyph glyph-name="plusminus" unicode="&#xb1;" horiz-adv-x="1201" d="M125 753 L528 753 L528 1174 L678 1174 L678 753 L1081 753 L1081 615 L678 615 L678 194 L528 194 L528 615 L125 615 L125 753 Z M125 70 L1081 70 L1081 -68 L125 -68 L125 70 Z " />
<glyph glyph-name="lessequal" unicode="&#x2264;" horiz-adv-x="1201" d="M1075 1245 L1075 1100 L351 775 L1075 451 L1075 306 L188 709 L188 842 L1075 1245 Z M1075 246 L1075 107 L188 107 L188 246 L1075 246 Z " />
<glyph glyph-name="greaterequal" unicode="&#x2265;" horiz-adv-x="1201" d="M188 306 L188 451 L911 776 L188 1100 L188 1245 L1075 841 L1075 709 L188 306 Z M188 107 L188 246 L1075 246 L1075 107 L188 107 Z " />
<glyph glyph-name="yen" unicode="&#xa5;" horiz-adv-x="1200" d="M194 847 L423 847 L214 1365 L386 1365 L647 720 L1095 1365 L1253 1365 L888 847 L1139 847 L1122 745 L816 745 L695 572 L690 546 L1089 546 L1072 444 L673 444 L599 0 L439 0 L513 444 L127 444 L144 546 L531 546 L535 572 L465 745 L177 745 L194 847 Z " />
<glyph glyph-name="mu" unicode="&#xb5;" horiz-adv-x="1201" d="M56 -341 L283 1014 L439 1014 L343 446 Q330 367 330 320 Q330 225 396 160 Q446 111 530 111 Q669 111 755 227 Q815 306 840 459 L933 1014 L1089 1014 L919 0 L777 0 L805 168 Q753 85 708 43 Q631 -27 516 -27 Q415 -27 357 31 Q322 66 292 140 L212 -341 L56 -341 Z " />
<glyph glyph-name="partialdiff" unicode="&#x2202;" horiz-adv-x="1201" d="M1074 1365 L1052 1237 L596 1237 L767 1097 Q911 981 955 932 Q1057 819 1057 634 Q1057 480 1008 338 Q941 147 804 54 Q686 -27 529 -27 Q342 -27 248 73 Q196 128 168 214 Q146 282 146 356 Q146 526 217 685 Q303 876 484 947 Q564 978 668 978 Q673 978 694 977 L388 1237 L410 1365 L1074 1365 Z M668 900 Q566 900 482 827 Q389 746 347 587 Q316 469 316 355 Q316 217 389 152 Q447 99 539 99 Q719 99 809 280 Q845 354 866 466 Q882 556 882 641 Q882 779 814 844 Q754 900 668 900 Z " />
<glyph glyph-name="summation" unicode="&#x2211;" horiz-adv-x="1365" d="M1398 1536 L1320 1071 L1181 1071 L1222 1398 L378 1398 L752 552 L79 -374 L945 -374 L1008 -46 L1153 -46 L1075 -512 L-114 -512 L-88 -356 L573 553 L203 1382 L229 1536 L1398 1536 Z " />
<glyph glyph-name="product" unicode="&#x220f;" horiz-adv-x="1365" d="M213 1536 L1496 1536 L1473 1398 L1312 1398 L1015 -374 L1176 -374 L1153 -512 L668 -512 L692 -374 L860 -374 L1156 1398 L506 1398 L210 -374 L376 -374 L353 -512 L-130 -512 L-107 -374 L56 -374 L352 1398 L190 1398 L213 1536 Z " />
<glyph glyph-name="integral" unicode="&#x222b;" horiz-adv-x="1201" d="M311 -490 L344 -354 Q398 -375 437 -375 Q509 -375 534 -327 Q549 -299 551 -257 Q554 -203 554 -126 L554 1123 Q554 1271 560.5 1324 Q567 1377 589 1423 Q615 1474 668 1502 Q733 1536 813 1536 Q870 1536 953 1514 L920 1378 Q867 1399 827 1399 Q733 1399 716 1310 Q711 1282 710 1082 L710 -99 Q710 -293 697 -343 Q675 -424 615 -466 Q550 -512 458 -512 Q395 -512 311 -490 Z " />
<glyph glyph-name="ordfeminine" unicode="&#xaa;" horiz-adv-x="721" d="M678 763 L557 763 Q556 783 556 805 Q556 821 558 847 L543 831 Q462 746 343 746 Q256 746 198 792 Q130 846 130 932 Q130 1038 231 1095 Q308 1139 437 1147 Q473 1149 518 1149 Q554 1149 606 1146 Q610 1176 610 1198 Q610 1307 474 1307 Q373 1307 324 1240 Q319 1234 301 1203 L190 1247 Q270 1392 468 1392 Q577 1392 652 1348 Q732 1301 732 1216 Q732 1192 688 906 Q676 830 676 797 Q676 791 678 763 Z M592 1064 Q553 1067 517 1067 Q373 1067 312 1028 Q259 994 259 929 Q259 889 283 865 Q310 836 361 836 Q469 836 544 945 Q576 992 592 1064 Z " />
<glyph glyph-name="ordmasculine" unicode="&#xba;" horiz-adv-x="702" d="M482 1392 Q615 1392 687 1299 Q745 1223 745 1113 Q745 956 648 850 Q554 749 421 749 Q301 749 229 827 Q156 905 156 1034 Q156 1169 237 1272 Q331 1392 482 1392 Z M475 1306 Q398 1306 350 1244 Q282 1155 282 1014 Q282 931 318 885 Q357 837 427 837 Q502 837 549 896 Q620 985 620 1134 Q620 1210 591 1250 Q551 1306 475 1306 Z " />
<glyph glyph-name="uni2126" unicode="&#x2126;" horiz-adv-x="1201" d="M-55 0 L-31 145 L296 145 Q184 237 134 329 Q61 460 61 643 Q61 910 185 1109 Q263 1233 377 1306 Q512 1392 675 1392 Q868 1392 995 1276 Q1153 1131 1153 862 Q1153 598 1045 406 Q982 293 881 213 Q846 186 779 145 L1114 145 L1089 0 L591 0 L615 145 Q710 209 764 264 Q891 393 945 609 Q975 730 975 851 Q975 1007 914 1114 Q833 1254 666 1254 Q532 1254 427 1161 Q311 1058 264 862 Q237 747 237 620 Q237 448 296 332 Q346 234 460 145 L436 0 L-55 0 Z " />
<glyph glyph-name="ae" unicode="&#xe6;" horiz-adv-x="1723" d="M1598 237 Q1444 -30 1171 -30 Q1014 -30 901 53 Q812 119 763 241 Q585 -26 343 -26 Q205 -26 117 55 Q28 138 28 268 Q28 378 95 466 Q183 580 382 612 Q476 627 594 627 Q639 627 773 619 Q786 678 786 722 Q786 923 554 923 Q374 923 278 754 L135 815 Q262 1042 544 1042 Q787 1042 897 888 Q1051 1040 1249 1040 Q1469 1040 1579 877 Q1650 772 1650 610 Q1650 562 1642 492 L903 492 Q895 440 895 405 Q895 285 952 206 Q1030 98 1167 98 Q1283 98 1372 176 Q1416 214 1468 293 L1598 237 Z M922 603 L1494 603 Q1496 635 1496 648 Q1496 762 1441 832 Q1369 925 1240 925 Q1078 925 982 770 Q940 703 922 603 Z M757 507 Q680 517 614 517 Q425 517 327 470 Q252 435 217 364 Q193 314 193 265 Q193 183 253 133 Q295 99 367 99 Q523 99 647 254 Q737 368 757 507 Z " />
<glyph glyph-name="oslash" unicode="&#xf8;" horiz-adv-x="1066" d="M1088 1070 L914 867 Q991 739 991 579 Q991 369 886 205 Q735 -31 486 -31 Q341 -31 228 57 L131 -55 L3 -55 L159 135 Q75 267 75 438 Q75 673 216 852 Q363 1038 584 1038 Q733 1038 844 948 L950 1070 L1088 1070 Z M805 758 L323 159 Q395 95 487 95 Q641 95 726 235 Q824 395 824 618 Q824 692 805 758 Z M266 251 L748 848 Q671 914 574 914 Q429 914 346 784 Q243 622 243 395 Q243 323 266 251 Z " />
<glyph glyph-name="questiondown" unicode="&#xbf;" horiz-adv-x="1019" d="M526 674 L667 674 Q650 508 622 442 Q592 371 515 325 Q497 315 341 241 Q254 200 203 127 Q163 69 163 -11 Q163 -115 239 -179 Q316 -244 424 -244 Q523 -244 603 -186 Q685 -127 748 29 L888 -29 Q745 -379 419 -379 Q230 -379 109 -268 Q-5 -164 -5 -8 Q-5 90 45 180 Q94 268 199 327 Q261 362 367 405 Q448 437 474 469 Q515 518 526 674 Z M551 1024 L755 1024 L722 827 L518 827 L551 1024 Z " />
<glyph glyph-name="exclamdown" unicode="&#xa1;" horiz-adv-x="548" d="M254 674 L339 674 L249 -341 L23 -341 L254 674 Z M258 1024 L464 1024 L431 829 L225 829 L258 1024 Z " />
<glyph glyph-name="logicalnot" unicode="&#xac;" horiz-adv-x="1201" d="M1075 0 L922 0 L922 408 L291 408 L187 510 L187 546 L1075 546 L1075 0 Z " />
<glyph glyph-name="radical" unicode="&#x221a;" horiz-adv-x="1201" d="M1365 1693 L1365 1555 L965 1555 L527 0 L337 0 L171 610 L0 610 L0 748 L296 748 L425 203 L834 1693 L1365 1693 Z " />
<glyph glyph-name="florin" unicode="&#x192;" horiz-adv-x="1201" d="M-72 -278 L-26 -140 Q0 -142 19 -142 Q177 -142 252 -58 Q287 -18 317 58 Q327 85 358 173 L644 999 L457 999 L500 1130 L688 1130 L710 1187 Q761 1314 831 1381 Q958 1503 1154 1503 Q1176 1503 1223 1500 L1175 1365 Q1070 1366 1012 1337 Q921 1291 873 1169 L858 1130 L1095 1130 L1045 999 L808 999 L500 99 Q442 -69 374 -147 Q289 -243 158 -270 Q106 -281 19 -281 Q-19 -281 -72 -278 Z " />
<glyph glyph-name="approxequal" unicode="&#x2248;" horiz-adv-x="1201" d="M140 762 Q195 879 255 937 Q321 1000 420 1000 Q506 1000 650 931 Q783 867 848 867 Q898 867 940 894 Q1000 933 1020 983 Q1030 1007 1043 1007 Q1072 1007 1125 949 Q1066 838 1010 785 Q979 755 926 735 Q882 718 842 718 Q778 718 702 749 Q652 769 589 799 Q478 852 407 852 Q368 852 326 824 Q263 783 242 725 Q234 701 220 701 Q191 701 140 762 Z M140 418 Q195 535 255 592 Q321 655 420 655 Q505 655 650 586 Q784 522 848 522 Q898 522 940 549 Q999 588 1020 638 Q1030 662 1043 662 Q1072 662 1125 605 Q1067 494 1010 440 Q979 410 926 390 Q882 373 842 373 Q778 373 702 404 Q652 425 589 454 Q478 507 407 507 Q367 507 326 479 Q264 439 242 381 Q233 357 220 357 Q192 357 140 418 Z " />
<glyph glyph-name="Delta" unicode="&#x2206;" horiz-adv-x="1201" d="M-28 0 L642 1365 L847 1365 L1080 0 L-28 0 Z M199 145 L886 145 L727 1223 L714 1223 L199 145 Z " />
<glyph glyph-name="guillemotleft" unicode="&#xab;" horiz-adv-x="691" d="M294 216 L221 216 L80 496 L283 785 L370 785 L228 496 L294 216 Z M546 216 L472 216 L337 496 L542 785 L638 785 L488 496 L546 216 Z " />
<glyph glyph-name="guillemotright" unicode="&#xbb;" horiz-adv-x="690" d="M394 785 L468 785 L609 505 L406 216 L319 216 L461 505 L394 785 Z M143 785 L217 785 L352 505 L147 216 L51 216 L201 505 L143 785 Z " />
<glyph glyph-name="ellipsis" unicode="&#x2026;" horiz-adv-x="1535" d="M284 0 L59 0 L97 229 L323 229 L284 0 Z M795 0 L571 0 L609 229 L833 229 L795 0 Z M1307 0 L1082 0 L1120 229 L1345 229 L1307 0 Z " />
<glyph glyph-name="Agrave" unicode="&#xc0;" horiz-adv-x="1155" d="M792 400 L294 400 L98 0 L-57 0 L612 1365 L801 1365 L1039 0 L863 0 L792 400 Z M772 537 L667 1164 L359 537 L772 537 Z M415 1670 L476 1790 L845 1576 L802 1495 L415 1670 Z " />
<glyph glyph-name="Atilde" unicode="&#xc3;" horiz-adv-x="1155" d="M792 400 L294 400 L98 0 L-57 0 L612 1365 L801 1365 L1039 0 L863 0 L792 400 Z M772 537 L667 1164 L359 537 L772 537 Z M986 1701 L1062 1629 Q1021 1588 996 1571 Q935 1528 862 1528 Q814 1528 779 1544 L690 1582 Q648 1601 600 1601 Q526 1601 468 1535 L385 1593 Q473 1721 607 1721 Q653 1721 687 1706 L779 1667 Q821 1649 868 1649 Q928 1649 986 1701 Z " />
<glyph glyph-name="Otilde" unicode="&#xd5;" horiz-adv-x="1315" d="M747 1392 Q957 1392 1096 1259 Q1264 1098 1264 791 Q1264 550 1162 341 Q983 -28 629 -28 Q383 -28 244 151 Q112 323 112 585 Q112 850 241 1075 Q423 1392 747 1392 Z M741 1254 Q580 1254 464 1122 Q356 1000 309 763 Q287 651 287 550 Q287 354 374 236 Q421 171 497 137 Q558 110 629 110 Q808 110 929 269 Q1036 410 1073 653 Q1090 767 1090 835 Q1090 1026 997 1138 Q901 1254 741 1254 Z M1123 1701 L1198 1629 Q1158 1588 1132 1571 Q1071 1528 998 1528 Q950 1528 915 1544 L827 1582 Q784 1601 736 1601 Q663 1601 605 1535 L521 1593 Q609 1721 743 1721 Q789 1721 824 1706 L916 1667 Q957 1649 1004 1649 Q1065 1649 1123 1701 Z " />
<glyph glyph-name="OE" unicode="&#x152;" horiz-adv-x="2001" d="M1848 0 L941 0 L951 84 Q883 33 825 9 Q744 -23 643 -23 Q400 -23 254 150 Q113 318 113 585 Q113 869 249 1092 Q434 1394 757 1394 Q924 1394 1047 1314 Q1057 1307 1147 1229 L1170 1365 L2022 1365 L1999 1227 L1313 1227 L1239 781 L1823 781 L1801 647 L1216 647 L1132 145 L1872 145 L1848 0 Z M1000 353 L1112 1021 Q1073 1117 1008 1170 Q903 1256 758 1256 Q620 1256 513 1165 Q405 1072 342 887 Q287 724 287 558 Q287 359 374 244 Q419 184 498 148 Q570 115 651 115 Q790 115 898 208 Q960 262 1000 353 Z " />
<glyph glyph-name="oe" unicode="&#x153;" horiz-adv-x="1834" d="M1710 233 Q1625 108 1550 56 Q1430 -26 1278 -26 Q1138 -26 1033 43 Q963 89 901 184 Q746 -29 502 -29 Q333 -29 218 79 Q144 148 107 254 Q76 345 76 442 Q76 660 208 836 Q360 1039 603 1039 Q760 1039 865 955 Q913 917 963 838 Q1054 947 1141 992 Q1242 1045 1358 1045 Q1482 1045 1577 989 Q1762 880 1762 592 Q1762 551 1753 493 L1010 493 Q1005 442 1005 408 Q1005 281 1070 199 Q1147 102 1280 102 Q1402 102 1493 189 Q1532 226 1580 297 L1710 233 Z M598 915 Q504 915 429 860 Q347 801 299 663 Q254 536 254 403 Q254 269 311 193 Q382 98 516 98 Q674 98 764 243 Q860 398 860 605 Q860 754 796 831 Q725 915 598 915 Z M1029 606 L1605 606 Q1608 640 1608 655 Q1608 757 1558 832 Q1493 929 1355 929 Q1194 929 1099 786 Q1052 713 1029 606 Z " />
<glyph glyph-name="endash" unicode="&#x2013;" horiz-adv-x="1201" d="M996 452 L186 452 L205 568 L1015 568 L996 452 Z " />
<glyph glyph-name="emdash" unicode="&#x2014;" horiz-adv-x="1365" d="M1353 452 L-6 452 L13 568 L1372 568 L1353 452 Z " />
<glyph glyph-name="quotedblleft" unicode="&#x201c;" horiz-adv-x="765" d="M692 930 L497 930 L528 1117 L722 1365 L798 1365 L634 1117 L723 1117 L692 930 Z M413 930 L214 930 L245 1117 L443 1365 L520 1365 L357 1117 L445 1117 L413 930 Z " />
<glyph glyph-name="quotedblright" unicode="&#x201d;" horiz-adv-x="765" d="M287 1365 L484 1365 L453 1178 L257 930 L181 930 L346 1178 L256 1178 L287 1365 Z M566 1365 L765 1365 L734 1178 L536 930 L460 930 L622 1178 L534 1178 L566 1365 Z " />
<glyph glyph-name="quoteleft" unicode="&#x2018;" horiz-adv-x="512" d="M423 910 L225 910 L257 1103 L459 1365 L538 1365 L367 1103 L455 1103 L423 910 Z " />
<glyph glyph-name="quoteright" unicode="&#x2019;" horiz-adv-x="512" d="M300 1365 L498 1365 L466 1172 L264 911 L185 911 L356 1172 L268 1172 L300 1365 Z " />
<glyph glyph-name="divide" unicode="&#xf7;" horiz-adv-x="1201" d="M632 485 Q673 485 702 453 Q727 426 727 389 Q727 346 695 317 Q668 292 631 292 Q588 292 559 324 Q534 351 534 389 Q534 431 566 460 Q593 485 632 485 Z M632 1089 Q673 1089 702 1057 Q727 1029 727 993 Q727 950 695 921 Q667 896 631 896 Q588 896 559 928 Q534 955 534 993 Q534 1035 566 1064 Q593 1089 632 1089 Z M153 753 L1109 753 L1109 615 L153 615 L153 753 Z " />
<glyph glyph-name="lozenge" unicode="&#x25ca;" horiz-adv-x="1365" d="M683 1419 L1215 683 L683 -53 L151 683 L683 1419 Z M683 1237 L279 683 L683 128 L1086 683 L683 1237 Z " />
<glyph glyph-name="ydieresis" unicode="&#xff;" horiz-adv-x="870" d="M941 1014 L385 -55 Q305 -208 238 -270 Q143 -356 3 -356 Q-37 -356 -98 -349 L-75 -213 Q-23 -223 13 -223 Q99 -223 159 -177 Q215 -135 259 -43 L294 28 L82 1014 L242 1014 L406 244 L805 1014 L941 1014 Z M715 1409 Q757 1409 787 1379 Q818 1349 818 1305 Q818 1263 789 1233 Q758 1201 714 1201 Q671 1201 640 1232 Q610 1263 610 1305 Q610 1348 640 1378 Q671 1409 715 1409 Z M395 1406 Q436 1406 466 1377 Q497 1348 497 1304 Q497 1262 467 1232 Q437 1201 394 1201 Q351 1201 320 1232 Q292 1262 292 1303 Q292 1346 321 1376 Q352 1406 395 1406 Z " />
<glyph glyph-name="Ydieresis" unicode="&#x178;" horiz-adv-x="1049" d="M532 0 L360 0 L455 572 L107 1365 L290 1365 L574 719 L1046 1365 L1214 1365 L627 572 L532 0 Z M853 1730 Q895 1730 925 1700 Q956 1670 956 1626 Q956 1584 927 1554 Q896 1522 852 1522 Q809 1522 778 1553 Q748 1583 748 1626 Q748 1669 778 1699 Q809 1730 853 1730 Z M533 1727 Q574 1727 604 1698 Q635 1669 635 1625 Q635 1583 605 1553 Q575 1522 532 1522 Q489 1522 458 1553 Q430 1583 430 1624 Q430 1667 459 1697 Q490 1727 533 1727 Z " />
<glyph glyph-name="fraction" unicode="&#x2044;" horiz-adv-x="1319" d="M197 0 L68 0 L1119 1365 L1250 1365 L197 0 Z " />
<glyph glyph-name="Euro" unicode="&#x20ac;" horiz-adv-x="1202" d="M169 476 L18 476 L89 595 L166 595 Q168 661 179 724 L45 724 L116 841 L204 841 Q247 991 303 1088 Q404 1265 551 1347 Q666 1412 798 1412 Q1056 1412 1198 1184 L1091 1039 Q1069 1118 1032 1169 Q949 1282 797 1282 Q638 1282 526 1143 Q447 1045 387 841 L918 841 L848 724 L360 724 Q349 663 343 595 L769 595 L698 476 L341 476 Q353 328 399 241 Q445 155 526 115 Q593 82 668 82 Q775 82 868 143 Q915 175 946 211 Q976 248 1015 308 L976 67 Q835 -47 660 -47 Q396 -47 263 168 Q187 292 169 476 Z " />
<glyph glyph-name="guilsinglleft" unicode="&#x2039;" horiz-adv-x="433" d="M289 216 L214 216 L80 496 L284 785 L381 785 L231 496 L289 216 Z " />
<glyph glyph-name="guilsinglright" unicode="&#x203a;" horiz-adv-x="433" d="M143 785 L217 785 L352 505 L147 216 L51 216 L201 505 L143 785 Z " />
<glyph glyph-name="fi" unicode="&#xfb01;" horiz-adv-x="994" d="M262 0 L104 0 L253 891 L63 891 L84 1014 L273 1014 Q307 1167 354 1252 Q436 1399 646 1399 Q699 1399 751 1391 L720 1270 Q683 1273 656 1273 Q506 1273 465 1151 Q451 1109 432 1014 L678 1014 L657 891 L411 891 L262 0 Z M752 0 L595 0 L765 1014 L922 1014 L752 0 Z M978 1185 L774 1185 L805 1365 L1008 1365 L978 1185 Z " />
<glyph glyph-name="fl" unicode="&#xfb02;" horiz-adv-x="994" d="M262 0 L104 0 L253 891 L63 891 L84 1014 L273 1014 Q307 1176 357 1257 Q445 1399 659 1399 Q703 1399 751 1391 L720 1267 Q686 1273 654 1273 Q519 1273 474 1171 Q453 1122 432 1014 L678 1014 L657 891 L411 891 L262 0 Z M752 0 L595 0 L824 1365 L981 1365 L752 0 Z " />
<glyph glyph-name="daggerdbl" unicode="&#x2021;" horiz-adv-x="1201" d="M672 1365 L818 1365 L751 967 L1131 967 L1109 831 L729 831 L624 207 L1004 207 L981 71 L601 71 L532 -341 L386 -341 L455 71 L75 71 L98 207 L478 207 L582 831 L202 831 L225 967 L605 967 L672 1365 Z " />
<glyph glyph-name="periodcentered" unicode="&#xb7;" horiz-adv-x="264" d="M225 390 L0 390 L38 619 L264 619 L225 390 Z " />
<glyph glyph-name="quotesinglbase" unicode="&#x201a;" horiz-adv-x="512" d="M104 193 L302 193 L270 0 L68 -262 L-11 -262 L160 0 L72 0 L104 193 Z " />
<glyph glyph-name="quotedblbase" unicode="&#x201e;" horiz-adv-x="765" d="M90 187 L287 187 L256 0 L60 -248 L-16 -248 L149 0 L59 0 L90 187 Z M369 187 L568 187 L537 0 L339 -248 L263 -248 L425 0 L337 0 L369 187 Z " />
<glyph glyph-name="perthousand" unicode="&#x2030;" horiz-adv-x="2319" d="M352 0 L222 0 L1288 1365 L1416 1365 L352 0 Z M499 1392 Q611 1392 688 1320 Q787 1226 787 1069 Q787 910 673 785 Q576 678 439 678 Q332 678 256 748 Q156 840 156 993 Q156 1118 219 1224 Q319 1392 499 1392 Z M496 1293 Q400 1293 350 1215 Q282 1110 282 975 Q282 875 344 818 Q386 779 451 779 Q534 779 584 843 Q663 944 663 1091 Q663 1196 610 1248 Q565 1293 496 1293 Z M1195 692 Q1302 692 1379 626 Q1486 535 1486 364 Q1486 239 1414 131 Q1312 -23 1151 -23 Q1029 -23 950 53 Q911 90 885 149 Q853 221 853 300 Q853 431 935 546 Q1040 692 1195 692 Z M1193 593 Q1116 593 1065 535 Q981 440 981 280 Q981 168 1041 115 Q1085 77 1146 77 Q1253 77 1311 183 Q1360 271 1360 393 Q1360 504 1306 550 Q1256 593 1193 593 Z M1931 692 Q2038 692 2115 626 Q2222 535 2222 364 Q2222 239 2150 131 Q2048 -23 1887 -23 Q1765 -23 1686 53 Q1647 90 1621 149 Q1589 221 1589 300 Q1589 431 1671 546 Q1776 692 1931 692 Z M1929 593 Q1852 593 1801 535 Q1717 441 1717 280 Q1717 168 1777 115 Q1821 77 1882 77 Q1989 77 2047 183 Q2096 271 2096 393 Q2096 504 2042 550 Q1992 593 1929 593 Z " />
<glyph glyph-name="Acircumflex" unicode="&#xc2;" horiz-adv-x="1155" d="M792 400 L294 400 L98 0 L-57 0 L612 1365 L801 1365 L1039 0 L863 0 L792 400 Z M772 537 L667 1164 L359 537 L772 537 Z M1035 1522 L890 1502 L729 1625 L529 1502 L385 1522 L754 1768 L1035 1522 Z " />
<glyph glyph-name="Ecircumflex" unicode="&#xca;" horiz-adv-x="1144" d="M1087 1522 L942 1502 L781 1625 L581 1502 L437 1522 L806 1768 L1087 1522 Z M86 0 L314 1365 L1165 1365 L1142 1229 L458 1229 L383 781 L969 781 L946 646 L361 646 L277 145 L1015 145 L991 0 L86 0 Z " />
<glyph glyph-name="Aacute" unicode="&#xc1;" horiz-adv-x="1155" d="M792 400 L294 400 L98 0 L-57 0 L612 1365 L801 1365 L1039 0 L863 0 L792 400 Z M772 537 L667 1164 L359 537 L772 537 Z M1029 1670 L628 1495 L585 1576 L968 1790 L1029 1670 Z " />
<glyph glyph-name="Edieresis" unicode="&#xcb;" horiz-adv-x="1144" d="M927 1730 Q969 1730 999 1700 Q1030 1670 1030 1626 Q1030 1584 1001 1554 Q970 1522 926 1522 Q883 1522 852 1553 Q822 1583 822 1626 Q822 1669 852 1699 Q883 1730 927 1730 Z M607 1727 Q648 1727 678 1698 Q709 1669 709 1625 Q709 1583 679 1553 Q649 1522 606 1522 Q563 1522 532 1553 Q504 1583 504 1624 Q504 1667 533 1697 Q564 1727 607 1727 Z M86 0 L314 1365 L1165 1365 L1142 1229 L458 1229 L383 781 L969 781 L946 646 L361 646 L277 145 L1015 145 L991 0 L86 0 Z " />
<glyph glyph-name="Egrave" unicode="&#xc8;" horiz-adv-x="1144" d="M503 1670 L565 1790 L933 1576 L891 1495 L503 1670 Z M86 0 L314 1365 L1165 1365 L1142 1229 L458 1229 L383 781 L969 781 L946 646 L361 646 L277 145 L1015 145 L991 0 L86 0 Z " />
<glyph glyph-name="Iacute" unicode="&#xcd;" horiz-adv-x="508" d="M481 1365 L253 0 L86 0 L314 1365 L481 1365 Z M702 1674 L342 1495 L299 1576 L641 1790 L702 1674 Z " />
<glyph glyph-name="Icircumflex" unicode="&#xce;" horiz-adv-x="508" d="M481 1365 L253 0 L86 0 L314 1365 L481 1365 Z M692 1522 L561 1502 L441 1625 L282 1502 L152 1522 L466 1768 L692 1522 Z " />
<glyph glyph-name="Idieresis" unicode="&#xcf;" horiz-adv-x="508" d="M481 1365 L253 0 L86 0 L314 1365 L481 1365 Z M567 1730 Q609 1730 639 1700 Q670 1670 670 1626 Q670 1584 641 1554 Q610 1522 566 1522 Q523 1522 492 1553 Q462 1583 462 1626 Q462 1669 492 1699 Q523 1730 567 1730 Z M295 1727 Q336 1727 366 1698 Q397 1669 397 1625 Q397 1583 367 1553 Q337 1522 294 1522 Q251 1522 220 1553 Q192 1583 192 1624 Q192 1667 221 1697 Q252 1727 295 1727 Z " />
<glyph glyph-name="Igrave" unicode="&#xcc;" horiz-adv-x="508" d="M481 1365 L253 0 L86 0 L314 1365 L481 1365 Z M146 1670 L211 1790 L535 1576 L493 1495 L146 1670 Z " />
<glyph glyph-name="Oacute" unicode="&#xd3;" horiz-adv-x="1315" d="M747 1392 Q957 1392 1096 1259 Q1264 1098 1264 791 Q1264 550 1162 341 Q983 -28 629 -28 Q383 -28 244 151 Q112 323 112 585 Q112 850 241 1075 Q423 1392 747 1392 Z M741 1254 Q580 1254 464 1122 Q356 1000 309 763 Q287 651 287 550 Q287 354 374 236 Q421 171 497 137 Q558 110 629 110 Q808 110 929 269 Q1036 410 1073 653 Q1090 767 1090 835 Q1090 1026 997 1138 Q901 1254 741 1254 Z M1131 1670 L730 1495 L688 1576 L1070 1790 L1131 1670 Z " />
<glyph glyph-name="Ocircumflex" unicode="&#xd4;" horiz-adv-x="1315" d="M747 1392 Q957 1392 1096 1259 Q1264 1098 1264 791 Q1264 550 1162 341 Q983 -28 629 -28 Q383 -28 244 151 Q112 323 112 585 Q112 850 241 1075 Q423 1392 747 1392 Z M741 1254 Q580 1254 464 1122 Q356 1000 309 763 Q287 651 287 550 Q287 354 374 236 Q421 171 497 137 Q558 110 629 110 Q808 110 929 269 Q1036 410 1073 653 Q1090 767 1090 835 Q1090 1026 997 1138 Q901 1254 741 1254 Z M1146 1522 L1001 1502 L840 1625 L640 1502 L496 1522 L865 1768 L1146 1522 Z " />
<glyph glyph-name="Ograve" unicode="&#xd2;" horiz-adv-x="1315" d="M747 1392 Q957 1392 1096 1259 Q1264 1098 1264 791 Q1264 550 1162 341 Q983 -28 629 -28 Q383 -28 244 151 Q112 323 112 585 Q112 850 241 1075 Q423 1392 747 1392 Z M741 1254 Q580 1254 464 1122 Q356 1000 309 763 Q287 651 287 550 Q287 354 374 236 Q421 171 497 137 Q558 110 629 110 Q808 110 929 269 Q1036 410 1073 653 Q1090 767 1090 835 Q1090 1026 997 1138 Q901 1254 741 1254 Z M558 1670 L620 1790 L988 1576 L946 1495 L558 1670 Z " />
<glyph glyph-name="Uacute" unicode="&#xda;" horiz-adv-x="1259" d="M1252 1365 L1113 533 Q1074 300 1020 201 Q941 58 785 3 Q693 -30 585 -30 Q435 -30 322 28 Q134 123 134 353 Q134 411 167 609 L294 1365 L461 1365 L327 573 Q299 414 299 362 Q299 261 363 192 Q441 108 591 108 Q757 108 851 203 Q910 262 933 341 Q955 415 972 518 L1114 1365 L1252 1365 Z M1117 1670 L716 1495 L673 1576 L1056 1790 L1117 1670 Z " />
<glyph glyph-name="Ucircumflex" unicode="&#xdb;" horiz-adv-x="1259" d="M1252 1365 L1113 533 Q1074 300 1020 201 Q941 58 785 3 Q693 -30 585 -30 Q435 -30 322 28 Q134 123 134 353 Q134 411 167 609 L294 1365 L461 1365 L327 573 Q299 414 299 362 Q299 261 363 192 Q441 108 591 108 Q757 108 851 203 Q910 262 933 341 Q955 415 972 518 L1114 1365 L1252 1365 Z M1132 1522 L987 1502 L826 1625 L626 1502 L482 1522 L850 1768 L1132 1522 Z " />
<glyph glyph-name="Ugrave" unicode="&#xd9;" horiz-adv-x="1259" d="M1252 1365 L1113 533 Q1074 300 1020 201 Q941 58 785 3 Q693 -30 585 -30 Q435 -30 322 28 Q134 123 134 353 Q134 411 167 609 L294 1365 L461 1365 L327 573 Q299 414 299 362 Q299 261 363 192 Q441 108 591 108 Q757 108 851 203 Q910 262 933 341 Q955 415 972 518 L1114 1365 L1252 1365 Z M529 1670 L590 1790 L959 1576 L916 1495 L529 1670 Z " />
<glyph glyph-name="dotlessi" unicode="&#x131;" horiz-adv-x="470" d="M229 0 L73 0 L243 1014 L398 1014 L229 0 Z " />
<glyph glyph-name="circumflex" unicode="&#x2c6;" horiz-adv-x="1024" d="M951 1194 L807 1174 L648 1311 L446 1174 L302 1194 L673 1454 L951 1194 Z " />
<glyph glyph-name="tilde" unicode="&#x2dc;" horiz-adv-x="1024" d="M906 1380 L982 1308 Q941 1267 916 1250 Q855 1207 782 1207 Q734 1207 698 1223 L610 1261 Q568 1280 520 1280 Q446 1280 388 1214 L305 1272 Q393 1400 526 1400 Q573 1400 607 1385 L699 1346 Q741 1328 788 1328 Q849 1328 906 1380 Z " />
<glyph glyph-name="macron" unicode="&#xaf;" horiz-adv-x="1024" d="M944 1236 L330 1236 L348 1345 L963 1345 L944 1236 Z " />
<glyph glyph-name="breve" unicode="&#x2d8;" horiz-adv-x="1024" d="M377 1438 L487 1438 Q492 1370 523 1336 Q560 1296 645 1296 Q747 1296 799 1351 Q824 1378 852 1438 L966 1438 Q936 1346 893 1294 Q800 1183 631 1183 Q461 1183 404 1297 Q380 1347 377 1438 Z " />
<glyph glyph-name="dotaccent" unicode="&#x2d9;" horiz-adv-x="1024" d="M645 1415 Q688 1415 720 1384 Q751 1353 751 1308 Q751 1265 721 1234 Q689 1201 644 1201 Q599 1201 568 1233 Q537 1264 537 1308 Q537 1353 568 1383 Q600 1415 645 1415 Z " />
<glyph glyph-name="ring" unicode="&#x2da;" horiz-adv-x="1024" d="M651 1501 Q721 1501 771 1449 Q820 1398 820 1326 Q820 1256 771 1205 Q721 1154 648 1154 Q578 1154 527 1203 Q473 1254 473 1327 Q473 1400 524 1450 Q578 1501 651 1501 Z M649 1418 Q611 1418 583 1392 Q556 1365 556 1328 Q556 1289 585 1262 Q612 1236 648 1236 Q686 1236 712 1264 Q737 1290 737 1326 Q737 1364 712 1391 Q685 1418 649 1418 Z " />
<glyph glyph-name="cedilla" unicode="&#xb8;" horiz-adv-x="1024" d="M406 0 L480 0 L439 -98 Q460 -97 476 -97 Q544 -97 592 -139 Q627 -170 627 -221 Q627 -301 555 -344 Q497 -379 411 -379 Q318 -379 237 -333 L268 -267 Q344 -304 405 -304 Q471 -304 500 -275 Q521 -254 521 -227 Q521 -160 402 -160 Q376 -160 334 -165 L406 0 Z " />
<glyph glyph-name="hungarumlaut" unicode="&#x2dd;" horiz-adv-x="1024" d="M826 1373 L507 1167 L456 1245 L759 1476 L826 1373 Z M1140 1373 L821 1167 L770 1245 L1073 1476 L1140 1373 Z " />
<glyph glyph-name="ogonek" unicode="&#x2db;" horiz-adv-x="1024" d="M790 0 Q721 -38 688 -68 Q642 -111 642 -161 Q642 -241 745 -241 Q784 -241 831 -227 L843 -293 Q770 -326 692 -326 Q605 -326 559 -289 Q518 -256 518 -197 Q518 -69 693 0 L790 0 Z " />
<glyph glyph-name="caron" unicode="&#x2c7;" horiz-adv-x="1024" d="M335 1420 L480 1440 L638 1304 L841 1440 L984 1420 L614 1161 L335 1420 Z " />
<glyph glyph-name="uni00A0" unicode="&#xa0;" horiz-adv-x="512" d="" />
<glyph glyph-name="currency" unicode="&#xa4;" horiz-adv-x="1365" d="M144 256 L339 451 Q235 597 235 742 Q235 860 295 965 Q310 991 336 1030 L139 1227 L231 1319 L428 1122 Q480 1157 518 1177 Q609 1226 723 1226 Q843 1226 949 1165 Q974 1150 1014 1124 L1210 1318 L1301 1227 L1107 1032 Q1139 982 1159 945 Q1209 852 1209 741 Q1209 624 1149 519 Q1134 493 1107 453 L1305 256 L1214 164 L1017 361 Q975 332 942 314 Q843 258 725 258 Q613 258 507 313 Q477 329 430 359 L234 164 L144 256 Z M726 1089 Q579 1089 477 986 Q376 885 376 741 Q376 598 477 497 Q579 395 722 395 Q865 395 967 497 Q1068 598 1068 741 Q1068 888 967 987 Q863 1089 726 1089 Z " />
<glyph glyph-name="brokenbar" unicode="&#xa6;" horiz-adv-x="1024" d="M467 1365 L620 1365 L620 683 L467 683 L467 1365 Z M467 314 L620 314 L620 -341 L467 -341 L467 314 Z " />
<glyph glyph-name="uni00AD" unicode="&#xad;" horiz-adv-x="512" d="M475 452 L20 452 L39 568 L494 568 L475 452 Z " />
<glyph glyph-name="twosuperior" unicode="&#xb2;" horiz-adv-x="792" d="M711 546 L97 546 L115 657 Q340 790 473 884 Q592 968 634 1025 Q673 1079 673 1137 Q673 1218 603 1263 Q554 1295 493 1295 Q388 1295 334 1220 Q311 1188 277 1108 L180 1142 Q267 1391 494 1391 Q630 1391 718 1306 Q793 1233 793 1133 Q793 1015 674 908 Q574 819 258 646 L728 646 L711 546 Z " />
<glyph glyph-name="threesuperior" unicode="&#xb3;" horiz-adv-x="792" d="M105 738 L202 773 Q275 619 428 619 Q528 619 585 679 Q625 723 625 780 Q625 850 570 892 Q527 925 416 927 Q393 927 334 927 L350 1021 Q416 1019 437 1019 Q524 1019 573 1036 Q615 1051 642 1091 Q663 1123 663 1161 Q663 1224 609 1263 Q562 1297 498 1297 Q424 1297 369 1253 Q336 1226 304 1166 L214 1213 Q312 1384 503 1384 Q628 1384 705 1317 Q779 1253 779 1163 Q779 1088 726 1032 Q693 999 607 970 Q644 957 672 932 Q743 870 743 777 Q743 664 640 588 Q556 526 432 526 Q284 526 186 614 Q134 661 105 738 Z " />
<glyph glyph-name="onesuperior" unicode="&#xb9;" horiz-adv-x="792" d="M734 547 L169 547 L184 638 L404 638 L503 1228 Q410 1147 255 1143 L271 1237 Q477 1263 559 1384 L642 1384 L517 638 L750 638 L734 547 Z " />
<glyph glyph-name="onequarter" unicode="&#xbc;" horiz-adv-x="1802" d="M695 547 L130 547 L145 638 L365 638 L464 1228 Q371 1147 216 1143 L232 1237 Q438 1263 520 1384 L603 1384 L478 638 L711 638 L695 547 Z M468 0 L339 0 L1391 1365 L1521 1365 L468 0 Z M1553 0 L1439 0 L1472 195 L1066 195 L1081 284 L1560 842 L1694 842 L1601 288 L1740 288 L1725 195 L1585 195 L1553 0 Z M1488 288 L1559 713 L1193 288 L1488 288 Z " />
<glyph glyph-name="onehalf" unicode="&#xbd;" horiz-adv-x="1802" d="M695 547 L130 547 L145 638 L365 638 L464 1228 Q371 1147 216 1143 L232 1237 Q438 1263 520 1384 L603 1384 L478 638 L711 638 L695 547 Z M468 0 L339 0 L1391 1365 L1521 1365 L468 0 Z M1669 0 L1054 0 L1073 111 Q1289 239 1430 338 Q1549 423 1591 480 Q1630 534 1630 591 Q1630 673 1560 718 Q1512 750 1450 750 Q1345 750 1291 675 Q1267 642 1235 562 L1138 596 Q1225 844 1452 844 Q1588 844 1676 759 Q1751 686 1751 587 Q1751 468 1632 362 Q1558 296 1325 161 Q1263 125 1215 100 L1685 100 L1669 0 Z " />
<glyph glyph-name="threequarters" unicode="&#xbe;" horiz-adv-x="1802" d="M66 738 L163 773 Q236 619 389 619 Q489 619 546 679 Q586 723 586 780 Q586 850 531 892 Q488 925 377 927 Q354 927 295 927 L311 1021 Q377 1019 398 1019 Q485 1019 534 1036 Q576 1051 603 1091 Q624 1123 624 1161 Q624 1224 570 1263 Q523 1297 459 1297 Q385 1297 330 1253 Q297 1226 265 1166 L175 1213 Q273 1384 464 1384 Q589 1384 666 1317 Q740 1253 740 1163 Q740 1088 687 1032 Q654 999 568 970 Q605 957 633 932 Q704 870 704 777 Q704 664 601 588 Q517 526 393 526 Q245 526 147 614 Q95 661 66 738 Z M510 0 L381 0 L1433 1365 L1563 1365 L510 0 Z M1554 0 L1440 0 L1473 195 L1067 195 L1082 284 L1561 842 L1695 842 L1602 288 L1741 288 L1726 195 L1586 195 L1554 0 Z M1489 288 L1560 713 L1194 288 L1489 288 Z " />
<glyph glyph-name="Eth" unicode="&#xd0;" horiz-adv-x="1328" d="M304 1365 L683 1365 Q892 1365 1001 1298 Q1144 1209 1211 1050 Q1265 924 1265 757 Q1265 402 1050 173 Q929 44 763 13 Q696 0 590 0 L85 0 L191 658 L54 658 L74 781 L211 781 L304 1365 Z M377 781 L703 781 L683 658 L357 658 L274 139 L549 137 Q636 136 706 147 Q877 175 983 340 Q1097 519 1097 769 Q1097 991 995 1113 Q890 1238 662 1236 L450 1234 L377 781 Z " />
<glyph glyph-name="multiply" unicode="&#xd7;" horiz-adv-x="1201" d="M939 277 L631 586 L322 277 L224 375 L533 684 L224 993 L322 1091 L631 782 L939 1091 L1037 993 L728 684 L1037 375 L939 277 Z " />
<glyph glyph-name="Yacute" unicode="&#xdd;" horiz-adv-x="1049" d="M532 0 L360 0 L455 572 L107 1365 L290 1365 L574 719 L1046 1365 L1214 1365 L627 572 L532 0 Z M1005 1670 L604 1495 L561 1576 L944 1790 L1005 1670 Z " />
<glyph glyph-name="Thorn" unicode="&#xde;" horiz-adv-x="1154" d="M312 354 L253 0 L86 0 L314 1365 L481 1365 L448 1167 L656 1167 Q878 1167 972 1111 Q1047 1066 1093 979 Q1141 887 1141 789 Q1141 666 1069 552 Q991 428 856 386 Q756 354 587 354 L312 354 Z M335 491 L522 491 Q695 491 750 503 Q846 524 897 586 Q967 672 967 787 Q967 893 907 964 Q866 1012 782 1025 Q731 1033 652 1033 L425 1031 L335 491 Z " />
<glyph glyph-name="eth" unicode="&#xf0;" horiz-adv-x="1046" d="M446 1174 L587 1248 Q530 1297 439 1338 L496 1428 Q620 1386 714 1312 L885 1396 L936 1309 L788 1236 Q990 996 990 640 Q990 456 927 296 Q861 128 714 36 Q609 -29 476 -29 Q268 -29 158 130 Q69 260 69 431 Q69 576 138 717 Q202 845 309 925 Q420 1009 562 1009 Q682 1009 778 924 Q738 1058 663 1173 L498 1088 L446 1174 Z M566 887 Q416 887 329 746 Q236 596 236 405 Q236 265 292 188 Q357 98 481 98 Q650 98 736 265 Q816 420 816 602 Q816 732 747 810 Q678 887 566 887 Z " />
<glyph glyph-name="yacute" unicode="&#xfd;" horiz-adv-x="870" d="M941 1014 L385 -55 Q305 -208 238 -270 Q143 -356 3 -356 Q-37 -356 -98 -349 L-75 -213 Q-23 -223 13 -223 Q99 -223 159 -177 Q215 -135 259 -43 L294 28 L82 1014 L242 1014 L406 244 L805 1014 L941 1014 Z M849 1356 L448 1167 L405 1248 L787 1476 L849 1356 Z " />
<glyph glyph-name="thorn" unicode="&#xfe;" horiz-adv-x="1098" d="M170 -354 L13 -354 L301 1365 L458 1365 L368 830 Q514 1032 695 1032 Q793 1032 875 972 Q958 911 997 794 Q1026 708 1026 604 Q1026 469 977 332 Q921 174 816 78 Q701 -27 556 -27 Q441 -27 355 35 Q304 72 254 148 L170 -354 Z M640 904 Q564 904 487 838 Q393 758 340 616 Q298 502 298 381 Q298 239 376 163 Q441 100 532 100 Q689 100 766 243 Q811 327 835 432 Q857 533 857 619 Q857 736 817 802 Q791 847 745 874 Q696 904 640 904 Z " />
<glyph glyph-name="Amacron" unicode="&#x100;" horiz-adv-x="1155" d="M792 400 L294 400 L98 0 L-57 0 L612 1365 L801 1365 L1039 0 L863 0 L792 400 Z M772 537 L667 1164 L359 537 L772 537 Z M1036 1550 L394 1550 L412 1659 L1054 1659 L1036 1550 Z " />
<glyph glyph-name="amacron" unicode="&#x101;" horiz-adv-x="1096" d="M877 0 L718 0 Q717 37 717 51 Q717 124 735 198 Q576 -29 355 -29 Q220 -29 132 49 Q32 136 32 275 Q32 407 129 498 Q241 603 465 624 Q545 631 648 631 Q672 631 800 625 Q811 693 811 732 Q811 843 728 888 Q666 922 578 922 Q436 922 351 842 Q319 811 285 752 L137 815 Q182 901 260 956 Q385 1044 564 1044 Q739 1044 854 970 Q972 893 972 769 Q972 721 896 230 Q875 98 875 41 Q875 30 877 0 Z M781 509 Q705 515 645 515 Q450 515 352 473 Q205 411 205 269 Q205 195 249 150 Q298 101 384 101 Q493 101 590 176 Q697 260 748 390 Q765 433 781 509 Z M965 1236 L350 1236 L369 1345 L983 1345 L965 1236 Z " />
<glyph glyph-name="Abreve" unicode="&#x102;" horiz-adv-x="1155" d="M792 400 L294 400 L98 0 L-57 0 L612 1365 L801 1365 L1039 0 L863 0 L792 400 Z M772 537 L667 1164 L359 537 L772 537 Z M456 1752 L566 1752 Q571 1689 602 1659 Q640 1623 724 1623 Q826 1623 878 1673 Q903 1698 931 1752 L1045 1752 Q1015 1664 972 1615 Q879 1510 709 1510 Q540 1510 483 1618 Q459 1666 456 1752 Z " />
<glyph glyph-name="abreve" unicode="&#x103;" horiz-adv-x="1096" d="M877 0 L718 0 Q717 37 717 51 Q717 124 735 198 Q576 -29 355 -29 Q220 -29 132 49 Q32 136 32 275 Q32 407 129 498 Q241 603 465 624 Q545 631 648 631 Q672 631 800 625 Q811 693 811 732 Q811 843 728 888 Q666 922 578 922 Q436 922 351 842 Q319 811 285 752 L137 815 Q182 901 260 956 Q385 1044 564 1044 Q739 1044 854 970 Q972 893 972 769 Q972 721 896 230 Q875 98 875 41 Q875 30 877 0 Z M781 509 Q705 515 645 515 Q450 515 352 473 Q205 411 205 269 Q205 195 249 150 Q298 101 384 101 Q493 101 590 176 Q697 260 748 390 Q765 433 781 509 Z M397 1438 L507 1438 Q512 1370 543 1336 Q580 1296 665 1296 Q767 1296 819 1351 Q844 1378 872 1438 L986 1438 Q956 1346 913 1294 Q820 1183 651 1183 Q481 1183 424 1297 Q400 1347 397 1438 Z " />
<glyph glyph-name="Aogonek" unicode="&#x104;" horiz-adv-x="1155" d="M1039 0 Q967 -40 934 -71 Q887 -116 887 -169 Q887 -253 993 -253 Q1032 -253 1081 -239 L1092 -309 Q1018 -343 938 -343 Q850 -343 803 -304 Q761 -270 761 -207 Q761 -73 939 0 L863 0 L792 400 L294 400 L98 0 L-57 0 L612 1365 L801 1365 L1039 0 Z M772 537 L667 1164 L359 537 L772 537 Z " />
<glyph glyph-name="aogonek" unicode="&#x105;" horiz-adv-x="1096" d="M718 0 Q717 37 717 51 Q717 124 735 198 Q577 -29 355 -29 Q220 -29 132 49 Q32 136 32 275 Q32 407 129 498 Q241 603 465 624 Q545 631 648 631 Q672 631 800 625 Q811 693 811 732 Q811 843 728 888 Q666 922 578 922 Q436 922 351 842 Q319 811 285 752 L137 815 Q182 901 260 956 Q385 1044 564 1044 Q739 1044 854 970 Q972 893 972 769 Q972 721 896 230 Q875 98 875 43 Q875 41 877 0 Q807 -37 774 -68 Q727 -111 727 -161 Q727 -241 831 -241 Q870 -241 918 -227 L929 -293 Q856 -326 778 -326 Q692 -326 645 -289 Q604 -256 604 -197 Q604 -69 779 0 L718 0 Z M781 509 Q705 515 645 515 Q450 515 352 473 Q205 411 205 269 Q205 195 249 150 Q298 101 384 101 Q493 101 590 176 Q697 260 748 390 Q765 433 781 509 Z " />
<glyph glyph-name="Cacute" unicode="&#x106;" horiz-adv-x="1179" d="M1207 945 L1058 908 Q1040 1045 999 1117 Q962 1182 896 1220 Q825 1261 737 1261 Q622 1261 534 1193 Q396 1086 326 825 Q285 672 285 542 Q285 320 391 205 Q431 162 498 136 Q553 115 611 115 Q765 115 879 257 Q923 313 979 436 L1118 383 Q1053 211 951 113 Q809 -23 607 -23 Q449 -23 340 50 Q212 135 154 300 Q109 427 109 569 Q109 847 246 1083 Q346 1258 492 1336 Q608 1399 738 1399 Q867 1399 974 1340 Q1124 1257 1178 1087 Q1195 1034 1207 945 Z M1097 1670 L696 1495 L653 1576 L1035 1790 L1097 1670 Z " />
<glyph glyph-name="cacute" unicode="&#x107;" horiz-adv-x="971" d="M940 690 L787 657 Q777 728 754 777 Q689 909 551 909 Q397 909 318 748 Q240 589 240 399 Q240 244 314 170 Q378 105 471 105 Q598 105 680 218 Q717 268 751 349 L879 301 Q840 190 778 117 Q648 -33 456 -33 Q290 -33 184 83 Q73 203 73 427 Q73 634 171 803 Q313 1046 560 1046 Q708 1046 812 954 Q923 854 940 690 Z M924 1356 L523 1167 L480 1248 L862 1476 L924 1356 Z " />
<glyph glyph-name="Ccircumflex" unicode="&#x108;" horiz-adv-x="1179" d="M1207 945 L1058 908 Q1040 1045 999 1117 Q962 1182 896 1220 Q825 1261 737 1261 Q622 1261 534 1193 Q396 1086 326 825 Q285 672 285 542 Q285 320 391 205 Q431 162 498 136 Q553 115 611 115 Q765 115 879 257 Q923 313 979 436 L1118 383 Q1053 211 951 113 Q809 -23 607 -23 Q449 -23 340 50 Q212 135 154 300 Q109 427 109 569 Q109 847 246 1083 Q346 1258 492 1336 Q608 1399 738 1399 Q867 1399 974 1340 Q1124 1257 1178 1087 Q1195 1034 1207 945 Z M1118 1522 L973 1502 L812 1625 L612 1502 L468 1522 L837 1768 L1118 1522 Z " />
<glyph glyph-name="ccircumflex" unicode="&#x109;" horiz-adv-x="971" d="M940 690 L787 657 Q777 728 754 777 Q689 909 551 909 Q397 909 318 748 Q240 589 240 399 Q240 244 314 170 Q378 105 471 105 Q598 105 680 218 Q717 268 751 349 L879 301 Q840 190 778 117 Q648 -33 456 -33 Q290 -33 184 83 Q73 203 73 427 Q73 634 171 803 Q313 1046 560 1046 Q708 1046 812 954 Q923 854 940 690 Z M905 1194 L760 1174 L602 1311 L399 1174 L256 1194 L627 1454 L905 1194 Z " />
<glyph glyph-name="Cdotaccent" unicode="&#x10a;" horiz-adv-x="1179" d="M1207 945 L1058 908 Q1040 1045 999 1117 Q962 1182 896 1220 Q825 1261 737 1261 Q622 1261 534 1193 Q396 1086 326 825 Q285 672 285 542 Q285 320 391 205 Q431 162 498 136 Q553 115 611 115 Q765 115 879 257 Q923 313 979 436 L1118 383 Q1053 211 951 113 Q809 -23 607 -23 Q449 -23 340 50 Q212 135 154 300 Q109 427 109 569 Q109 847 246 1083 Q346 1258 492 1336 Q608 1399 738 1399 Q867 1399 974 1340 Q1124 1257 1178 1087 Q1195 1034 1207 945 Z M813 1736 Q856 1736 888 1705 Q919 1674 919 1629 Q919 1586 889 1555 Q857 1522 812 1522 Q767 1522 736 1554 Q705 1585 705 1629 Q705 1674 736 1704 Q768 1736 813 1736 Z " />
<glyph glyph-name="cdotaccent" unicode="&#x10b;" horiz-adv-x="971" d="M940 690 L787 657 Q777 728 754 777 Q689 909 551 909 Q397 909 318 748 Q240 589 240 399 Q240 244 314 170 Q378 105 471 105 Q598 105 680 218 Q717 268 751 349 L879 301 Q840 190 778 117 Q648 -33 456 -33 Q290 -33 184 83 Q73 203 73 427 Q73 634 171 803 Q313 1046 560 1046 Q708 1046 812 954 Q923 854 940 690 Z M638 1415 Q681 1415 713 1384 Q744 1353 744 1308 Q744 1265 714 1234 Q682 1201 637 1201 Q592 1201 561 1233 Q530 1264 530 1308 Q530 1353 561 1383 Q593 1415 638 1415 Z " />
<glyph glyph-name="Ccaron" unicode="&#x10c;" horiz-adv-x="1179" d="M1207 945 L1058 908 Q1040 1045 999 1117 Q962 1182 896 1220 Q825 1261 737 1261 Q622 1261 534 1193 Q396 1086 326 825 Q285 672 285 542 Q285 320 391 205 Q431 162 498 136 Q553 115 611 115 Q765 115 879 257 Q923 313 979 436 L1118 383 Q1053 211 951 113 Q809 -23 607 -23 Q449 -23 340 50 Q212 135 154 300 Q109 427 109 569 Q109 847 246 1083 Q346 1258 492 1336 Q608 1399 738 1399 Q867 1399 974 1340 Q1124 1257 1178 1087 Q1195 1034 1207 945 Z M501 1734 L645 1754 L806 1632 L1006 1754 L1150 1734 L782 1488 L501 1734 Z " />
<glyph glyph-name="ccaron" unicode="&#x10d;" horiz-adv-x="971" d="M940 690 L787 657 Q777 728 754 777 Q689 909 551 909 Q397 909 318 748 Q240 589 240 399 Q240 244 314 170 Q378 105 471 105 Q598 105 680 218 Q717 268 751 349 L879 301 Q840 190 778 117 Q648 -33 456 -33 Q290 -33 184 83 Q73 203 73 427 Q73 634 171 803 Q313 1046 560 1046 Q708 1046 812 954 Q923 854 940 690 Z M328 1420 L473 1440 L631 1304 L834 1440 L977 1420 L607 1161 L328 1420 Z " />
<glyph glyph-name="Dcaron" unicode="&#x10e;" horiz-adv-x="1328" d="M86 0 L314 1365 L693 1365 Q902 1365 1010 1298 Q1153 1210 1219 1050 Q1271 926 1271 763 Q1271 404 1052 173 Q930 44 763 13 Q697 0 590 0 L86 0 Z M276 139 L550 137 Q638 136 708 147 Q879 175 986 340 Q1104 522 1104 776 Q1104 992 1004 1113 Q937 1193 837 1218 Q763 1237 672 1236 L459 1234 L276 139 Z M453 1734 L598 1754 L759 1632 L959 1754 L1103 1734 L734 1488 L453 1734 Z " />
<glyph glyph-name="dcaron" unicode="&#x10f;" horiz-adv-x="1260" d="M859 0 L717 0 L756 200 Q702 117 661 76 Q557 -27 406 -27 Q263 -27 180 67 Q71 190 71 400 Q71 592 163 768 Q305 1038 555 1038 Q761 1038 848 848 L935 1365 L1088 1365 L859 0 Z M562 915 Q467 915 389 839 Q309 760 266 598 Q235 482 235 375 Q235 257 284 183 Q342 97 449 97 Q589 97 685 234 Q748 323 778 434 Q806 534 806 627 Q806 747 753 817 Q678 915 562 915 Z M1252 1365 L1410 1365 L1203 1010 L1140 1010 L1252 1365 Z " />
<glyph glyph-name="Dcroat" unicode="&#x110;" horiz-adv-x="1328" d="M304 1365 L683 1365 Q892 1365 1001 1298 Q1144 1209 1211 1050 Q1265 924 1265 757 Q1265 402 1050 173 Q929 44 763 13 Q696 0 590 0 L85 0 L191 658 L54 658 L74 781 L211 781 L304 1365 Z M377 781 L703 781 L683 658 L357 658 L274 139 L549 137 Q636 136 706 147 Q877 175 983 340 Q1097 519 1097 769 Q1097 991 995 1113 Q890 1238 662 1236 L450 1234 L377 781 Z " />
<glyph glyph-name="dcroat" unicode="&#x111;" horiz-adv-x="1101" d="M1050 1136 L859 0 L717 0 L756 200 Q702 117 661 76 Q558 -27 406 -27 Q263 -27 180 67 Q71 190 71 400 Q71 592 163 768 Q305 1038 555 1038 Q761 1038 848 848 L897 1136 L617 1136 L635 1245 L915 1245 L935 1365 L1088 1365 L1068 1245 L1198 1245 L1179 1136 L1050 1136 Z M562 915 Q467 915 389 839 Q309 760 266 598 Q235 482 235 375 Q235 257 284 183 Q342 97 449 97 Q590 97 685 234 Q748 323 778 434 Q806 535 806 628 Q806 747 753 817 Q677 915 562 915 Z " />
<glyph glyph-name="Emacron" unicode="&#x112;" horiz-adv-x="1144" d="M1079 1550 L437 1550 L456 1659 L1097 1659 L1079 1550 Z M86 0 L314 1365 L1165 1365 L1142 1229 L458 1229 L383 781 L969 781 L946 646 L361 646 L277 145 L1015 145 L991 0 L86 0 Z " />
<glyph glyph-name="emacron" unicode="&#x113;" horiz-adv-x="1065" d="M938 237 Q879 142 822 90 Q690 -29 499 -29 Q333 -29 217 69 Q68 196 68 435 Q68 641 164 798 Q252 942 395 1005 Q486 1046 591 1046 Q722 1046 822 983 Q993 875 993 609 Q993 561 984 493 L237 493 Q231 446 231 412 Q231 244 336 157 Q401 102 502 102 Q645 102 738 207 Q768 241 807 299 L938 237 Z M257 608 L833 608 Q835 640 835 657 Q835 776 769 848 Q699 926 582 926 Q413 926 313 760 Q274 695 257 608 Z M962 1236 L348 1236 L366 1345 L981 1345 L962 1236 Z " />
<glyph glyph-name="Ebreve" unicode="&#x114;" horiz-adv-x="1144" d="M493 1752 L603 1752 Q607 1689 639 1659 Q677 1623 760 1623 Q862 1623 914 1673 Q940 1698 968 1752 L1081 1752 Q1051 1664 1008 1615 Q916 1510 746 1510 Q576 1510 520 1618 Q495 1666 493 1752 Z M86 0 L314 1365 L1165 1365 L1142 1229 L458 1229 L383 781 L969 781 L946 646 L361 646 L277 145 L1015 145 L991 0 L86 0 Z " />
<glyph glyph-name="ebreve" unicode="&#x115;" horiz-adv-x="1065" d="M938 237 Q879 142 822 90 Q690 -29 499 -29 Q333 -29 217 69 Q68 196 68 435 Q68 641 164 798 Q252 942 395 1005 Q486 1046 591 1046 Q722 1046 822 983 Q993 875 993 609 Q993 561 984 493 L237 493 Q231 446 231 412 Q231 244 336 157 Q401 102 502 102 Q645 102 738 207 Q768 241 807 299 L938 237 Z M257 608 L833 608 Q835 640 835 657 Q835 776 769 848 Q699 926 582 926 Q413 926 313 760 Q274 695 257 608 Z M384 1438 L494 1438 Q498 1370 530 1336 Q567 1296 652 1296 Q754 1296 806 1351 Q831 1378 859 1438 L973 1438 Q943 1346 900 1294 Q807 1183 638 1183 Q468 1183 411 1297 Q387 1347 384 1438 Z " />
<glyph glyph-name="Edotaccent" unicode="&#x116;" horiz-adv-x="1144" d="M763 1736 Q806 1736 837 1705 Q869 1674 869 1629 Q869 1586 839 1555 Q807 1522 762 1522 Q717 1522 686 1554 Q655 1585 655 1629 Q655 1674 686 1704 Q718 1736 763 1736 Z M86 0 L314 1365 L1165 1365 L1142 1229 L458 1229 L383 781 L969 781 L946 646 L361 646 L277 145 L1015 145 L991 0 L86 0 Z " />
<glyph glyph-name="edotaccent" unicode="&#x117;" horiz-adv-x="1065" d="M938 237 Q879 142 822 90 Q690 -29 499 -29 Q333 -29 217 69 Q68 196 68 435 Q68 641 164 798 Q252 942 395 1005 Q486 1046 591 1046 Q722 1046 822 983 Q993 875 993 609 Q993 561 984 493 L237 493 Q231 446 231 412 Q231 244 336 157 Q401 102 502 102 Q645 102 738 207 Q768 241 807 299 L938 237 Z M257 608 L833 608 Q835 640 835 657 Q835 776 769 848 Q699 926 582 926 Q413 926 313 760 Q274 695 257 608 Z M659 1415 Q702 1415 733 1384 Q765 1353 765 1308 Q765 1265 735 1234 Q703 1201 658 1201 Q613 1201 582 1233 Q551 1264 551 1308 Q551 1353 582 1383 Q614 1415 659 1415 Z " />
<glyph glyph-name="Eogonek" unicode="&#x118;" horiz-adv-x="1144" d="M991 0 Q918 -41 886 -71 Q839 -116 839 -169 Q839 -253 945 -253 Q985 -253 1033 -239 L1045 -309 Q970 -343 891 -343 Q802 -343 755 -304 Q713 -270 713 -207 Q713 -72 892 0 L86 0 L314 1365 L1165 1365 L1142 1229 L458 1229 L383 781 L969 781 L946 646 L361 646 L277 145 L1015 145 L991 0 Z " />
<glyph glyph-name="eogonek" unicode="&#x119;" horiz-adv-x="1065" d="M790 -221 L801 -287 Q728 -319 650 -319 Q563 -319 517 -282 Q476 -249 476 -190 Q476 -90 589 -22 Q538 -29 499 -29 Q333 -29 217 69 Q68 196 68 436 Q68 641 164 798 Q252 942 395 1005 Q486 1046 591 1046 Q722 1046 822 983 Q993 875 993 609 Q993 561 984 493 L237 493 Q231 446 231 412 Q231 244 336 157 Q401 102 502 102 Q645 102 738 207 Q768 241 807 299 L938 237 Q896 168 850 117 Q830 95 723 11 Q652 -43 629 -74 Q600 -113 600 -155 Q600 -234 703 -234 Q743 -234 790 -221 Z M257 608 L833 608 Q835 640 835 657 Q835 776 769 848 Q699 926 582 926 Q413 926 313 760 Q274 695 257 608 Z " />
<glyph glyph-name="Ecaron" unicode="&#x11a;" horiz-adv-x="1144" d="M460 1734 L605 1754 L766 1632 L966 1754 L1110 1734 L741 1488 L460 1734 Z M86 0 L314 1365 L1165 1365 L1142 1229 L458 1229 L383 781 L969 781 L946 646 L361 646 L277 145 L1015 145 L991 0 L86 0 Z " />
<glyph glyph-name="ecaron" unicode="&#x11b;" horiz-adv-x="1065" d="M938 237 Q879 142 822 90 Q690 -29 499 -29 Q333 -29 217 69 Q68 196 68 435 Q68 641 164 798 Q252 942 395 1005 Q486 1046 591 1046 Q722 1046 822 983 Q993 875 993 609 Q993 561 984 493 L237 493 Q231 446 231 412 Q231 244 336 157 Q401 102 502 102 Q645 102 738 207 Q768 241 807 299 L938 237 Z M257 608 L833 608 Q835 640 835 657 Q835 776 769 848 Q699 926 582 926 Q413 926 313 760 Q274 695 257 608 Z M348 1420 L493 1440 L652 1304 L854 1440 L998 1420 L627 1161 L348 1420 Z " />
<glyph glyph-name="Gcircumflex" unicode="&#x11c;" horiz-adv-x="1333" d="M702 683 L1220 683 L1103 -16 L1011 -16 L990 150 Q939 76 885 38 Q781 -34 630 -34 Q396 -34 253 140 Q112 312 112 581 Q112 867 251 1096 Q435 1399 750 1399 Q997 1399 1140 1227 Q1207 1147 1253 1013 L1105 961 Q1012 1267 749 1267 Q567 1267 446 1109 Q368 1006 325 850 Q286 708 286 563 Q286 355 378 232 Q478 99 645 99 Q861 99 971 318 Q1010 395 1036 549 L680 549 L702 683 Z M1128 1522 L983 1502 L822 1625 L622 1502 L478 1522 L846 1768 L1128 1522 Z " />
<glyph glyph-name="gcircumflex" unicode="&#x11d;" horiz-adv-x="1031" d="M857 1240 L726 1219 L608 1356 L447 1219 L317 1240 L633 1499 L857 1240 Z M782 962 Q806 1016 830 1050 Q900 1148 1035 1148 Q1087 1148 1151 1130 L1118 1001 Q1035 1014 1006 1014 Q899 1014 854 904 Q935 814 935 702 Q935 587 868 492 Q756 333 534 333 Q440 333 339 375 Q209 315 209 240 Q209 200 253 184 Q286 173 484 170 Q626 168 698 158 Q835 138 895 50 Q932 -4 932 -78 Q932 -230 814 -307 Q690 -389 448 -389 Q-50 -389 -50 -147 Q-50 5 137 72 Q102 94 87 112 Q58 147 58 203 Q58 300 144 362 Q192 398 267 428 Q155 516 155 663 Q155 787 233 882 Q347 1021 559 1021 Q686 1021 782 962 Z M554 904 Q441 904 372 829 Q311 763 311 664 Q311 554 382 494 Q439 446 526 446 Q662 446 729 537 Q776 602 776 684 Q776 792 708 850 Q646 904 554 904 Z M234 29 Q103 -10 103 -111 Q103 -188 190 -225 Q300 -273 481 -273 Q625 -273 702 -232 Q782 -190 782 -109 Q782 -56 739 -26 Q711 -7 661 1 Q611 9 507 9 Q352 11 234 29 Z " />
<glyph glyph-name="Gbreve" unicode="&#x11e;" horiz-adv-x="1333" d="M702 683 L1220 683 L1103 -16 L1011 -16 L990 150 Q939 76 885 38 Q781 -34 630 -34 Q396 -34 253 140 Q112 312 112 581 Q112 867 251 1096 Q435 1399 750 1399 Q997 1399 1140 1227 Q1207 1147 1253 1013 L1105 961 Q1012 1267 749 1267 Q567 1267 446 1109 Q368 1006 325 850 Q286 708 286 563 Q286 355 378 232 Q478 99 645 99 Q861 99 971 318 Q1010 395 1036 549 L680 549 L702 683 Z M545 1752 L655 1752 Q659 1689 690 1659 Q729 1623 812 1623 Q914 1623 966 1673 Q992 1698 1020 1752 L1133 1752 Q1103 1664 1060 1615 Q968 1510 798 1510 Q628 1510 572 1618 Q547 1666 545 1752 Z " />
<glyph glyph-name="gbreve" unicode="&#x11f;" horiz-adv-x="1031" d="M782 962 Q806 1016 830 1050 Q900 1148 1035 1148 Q1087 1148 1151 1130 L1118 1001 Q1035 1014 1006 1014 Q899 1014 854 904 Q935 814 935 702 Q935 587 868 492 Q756 333 534 333 Q440 333 339 375 Q209 315 209 240 Q209 200 253 184 Q286 173 484 170 Q626 168 698 158 Q835 138 895 50 Q932 -4 932 -78 Q932 -230 814 -307 Q690 -389 448 -389 Q-50 -389 -50 -147 Q-50 5 137 72 Q102 94 87 112 Q58 147 58 203 Q58 300 144 362 Q192 398 267 428 Q155 516 155 663 Q155 787 233 882 Q347 1021 559 1021 Q686 1021 782 962 Z M554 904 Q441 904 372 829 Q311 763 311 664 Q311 554 382 494 Q439 446 526 446 Q662 446 729 537 Q776 602 776 684 Q776 792 708 850 Q646 904 554 904 Z M234 29 Q103 -10 103 -111 Q103 -188 190 -225 Q300 -273 481 -273 Q625 -273 702 -232 Q782 -190 782 -109 Q782 -56 739 -26 Q711 -7 661 1 Q611 9 507 9 Q352 11 234 29 Z M336 1438 L446 1438 Q450 1370 482 1336 Q519 1296 603 1296 Q705 1296 758 1351 Q783 1378 811 1438 L925 1438 Q895 1346 852 1294 Q759 1183 590 1183 Q419 1183 363 1297 Q339 1347 336 1438 Z " />
<glyph glyph-name="Gdotaccent" unicode="&#x120;" horiz-adv-x="1333" d="M702 683 L1220 683 L1103 -16 L1011 -16 L990 150 Q939 76 885 38 Q781 -34 630 -34 Q396 -34 253 140 Q112 312 112 581 Q112 867 251 1096 Q435 1399 750 1399 Q997 1399 1140 1227 Q1207 1147 1253 1013 L1105 961 Q1012 1267 749 1267 Q567 1267 446 1109 Q368 1006 325 850 Q286 708 286 563 Q286 355 378 232 Q478 99 645 99 Q861 99 971 318 Q1010 395 1036 549 L680 549 L702 683 Z M816 1736 Q859 1736 891 1705 Q922 1674 922 1629 Q922 1586 892 1555 Q860 1522 815 1522 Q770 1522 739 1554 Q708 1585 708 1629 Q708 1674 739 1704 Q771 1736 816 1736 Z " />
<glyph glyph-name="gdotaccent" unicode="&#x121;" horiz-adv-x="1031" d="M604 1415 Q647 1415 679 1384 Q710 1353 710 1308 Q710 1265 680 1234 Q648 1201 603 1201 Q558 1201 527 1233 Q496 1264 496 1308 Q496 1353 527 1383 Q559 1415 604 1415 Z M782 962 Q806 1016 830 1050 Q900 1148 1035 1148 Q1087 1148 1151 1130 L1118 1001 Q1035 1014 1006 1014 Q899 1014 854 904 Q935 814 935 702 Q935 587 868 492 Q756 333 534 333 Q440 333 339 375 Q209 315 209 240 Q209 200 253 184 Q286 173 484 170 Q626 168 698 158 Q835 138 895 50 Q932 -4 932 -78 Q932 -230 814 -307 Q690 -389 448 -389 Q-50 -389 -50 -147 Q-50 5 137 72 Q102 94 87 112 Q58 147 58 203 Q58 300 144 362 Q192 398 267 428 Q155 516 155 663 Q155 787 233 882 Q347 1021 559 1021 Q686 1021 782 962 Z M554 904 Q441 904 372 829 Q311 763 311 664 Q311 554 382 494 Q439 446 526 446 Q662 446 729 537 Q776 602 776 684 Q776 792 708 850 Q646 904 554 904 Z M234 29 Q103 -10 103 -111 Q103 -188 190 -225 Q300 -273 481 -273 Q625 -273 702 -232 Q782 -190 782 -109 Q782 -56 739 -26 Q711 -7 661 1 Q611 9 507 9 Q352 11 234 29 Z " />
<glyph glyph-name="Gcommaaccent" unicode="&#x122;" horiz-adv-x="1333" d="M702 683 L1220 683 L1103 -16 L1011 -16 L990 150 Q939 76 885 38 Q781 -34 630 -34 Q396 -34 253 140 Q112 312 112 581 Q112 867 251 1096 Q435 1399 750 1399 Q997 1399 1140 1227 Q1207 1147 1253 1013 L1105 961 Q1012 1267 749 1267 Q567 1267 446 1109 Q368 1006 325 850 Q286 708 286 563 Q286 355 378 232 Q478 99 645 99 Q861 99 971 318 Q1010 395 1036 549 L680 549 L702 683 Z M528 -109 L692 -109 L482 -475 L414 -475 L528 -109 Z " />
<glyph glyph-name="gcommaaccent" unicode="&#x123;" horiz-adv-x="1031" d="M654 1174 L496 1174 L703 1529 L766 1529 L654 1174 Z M782 962 Q806 1016 830 1050 Q900 1148 1035 1148 Q1087 1148 1151 1130 L1118 1001 Q1035 1014 1006 1014 Q899 1014 854 904 Q935 814 935 702 Q935 587 868 492 Q756 333 534 333 Q440 333 339 375 Q209 315 209 240 Q209 200 253 184 Q286 173 484 170 Q626 168 698 158 Q835 138 895 50 Q932 -4 932 -78 Q932 -230 814 -307 Q690 -389 448 -389 Q-50 -389 -50 -147 Q-50 5 137 72 Q102 94 87 112 Q58 147 58 203 Q58 300 144 362 Q192 398 267 428 Q155 516 155 663 Q155 787 233 882 Q347 1021 559 1021 Q686 1021 782 962 Z M554 904 Q441 904 372 829 Q311 763 311 664 Q311 554 382 494 Q439 446 526 446 Q662 446 729 537 Q776 602 776 684 Q776 792 708 850 Q646 904 554 904 Z M234 29 Q103 -10 103 -111 Q103 -188 190 -225 Q300 -273 481 -273 Q625 -273 702 -232 Q782 -190 782 -109 Q782 -56 739 -26 Q711 -7 661 1 Q611 9 507 9 Q352 11 234 29 Z " />
<glyph glyph-name="Hcircumflex" unicode="&#x124;" horiz-adv-x="1343" d="M1030 646 L361 646 L253 0 L86 0 L314 1365 L481 1365 L385 791 L1054 791 L1150 1365 L1317 1365 L1088 0 L922 0 L1030 646 Z M1166 1522 L1021 1502 L860 1625 L660 1502 L517 1522 L885 1768 L1166 1522 Z " />
<glyph glyph-name="hcircumflex" unicode="&#x125;" horiz-adv-x="1115" d="M456 1365 L366 825 Q431 923 492 970 Q585 1042 704 1042 Q843 1042 926 951 Q993 877 993 767 Q993 715 978 623 L873 0 L719 0 L823 623 Q835 692 835 748 Q835 844 769 889 Q725 919 667 919 Q579 919 498 848 Q348 719 297 416 L228 0 L72 0 L300 1365 L456 1365 Z M729 1522 L584 1502 L423 1625 L223 1502 L80 1522 L448 1768 L729 1522 Z " />
<glyph glyph-name="Hbar" unicode="&#x126;" horiz-adv-x="1344" d="M129 1034 L150 1157 L280 1157 L314 1365 L481 1365 L446 1157 L1115 1157 L1150 1365 L1317 1365 L1282 1157 L1412 1157 L1391 1034 L1261 1034 L1088 0 L922 0 L1030 646 L361 646 L253 0 L86 0 L259 1034 L129 1034 Z M426 1034 L385 791 L1054 791 L1095 1034 L426 1034 Z " />
<glyph glyph-name="hbar" unicode="&#x127;" horiz-adv-x="1115" d="M716 1245 L698 1136 L418 1136 L366 825 Q431 923 492 970 Q585 1042 704 1042 Q844 1042 926 951 Q993 877 993 767 Q993 715 978 623 L873 0 L719 0 L823 623 Q835 692 835 748 Q835 844 769 889 Q725 919 667 919 Q579 919 498 849 Q348 719 297 416 L228 0 L72 0 L262 1136 L132 1136 L151 1245 L280 1245 L300 1365 L456 1365 L436 1245 L716 1245 Z " />
<glyph glyph-name="Itilde" unicode="&#x128;" horiz-adv-x="508" d="M481 1365 L253 0 L86 0 L314 1365 L481 1365 Z M689 1701 L765 1629 Q724 1588 699 1571 Q638 1528 565 1528 Q517 1528 482 1544 L393 1582 Q351 1601 303 1601 Q229 1601 171 1535 L88 1593 Q176 1721 310 1721 Q356 1721 390 1706 L482 1667 Q524 1649 571 1649 Q631 1649 689 1701 Z " />
<glyph glyph-name="itilde" unicode="&#x129;" horiz-adv-x="470" d="M228 0 L73 0 L242 1014 L398 1014 L228 0 Z M629 1380 L705 1308 Q664 1267 639 1250 Q578 1207 505 1207 Q457 1207 421 1223 L333 1261 Q291 1280 243 1280 Q169 1280 111 1214 L28 1272 Q116 1400 249 1400 Q296 1400 330 1385 L422 1346 Q464 1328 511 1328 Q572 1328 629 1380 Z " />
<glyph glyph-name="Imacron" unicode="&#x12a;" horiz-adv-x="508" d="M481 1365 L253 0 L86 0 L314 1365 L481 1365 Z M642 1550 L205 1550 L224 1659 L661 1659 L642 1550 Z " />
<glyph glyph-name="imacron" unicode="&#x12b;" horiz-adv-x="470" d="M229 0 L73 0 L243 1014 L398 1014 L229 0 Z M564 1236 L141 1236 L159 1345 L582 1345 L564 1236 Z " />
<glyph glyph-name="Ibreve" unicode="&#x12c;" horiz-adv-x="508" d="M481 1365 L253 0 L86 0 L314 1365 L481 1365 Z M166 1752 L276 1752 Q280 1689 312 1659 Q350 1623 433 1623 Q536 1623 588 1673 Q613 1698 641 1752 L755 1752 Q725 1664 682 1615 Q589 1510 419 1510 Q249 1510 193 1618 Q168 1666 166 1752 Z " />
<glyph glyph-name="ibreve" unicode="&#x12d;" horiz-adv-x="470" d="M229 0 L73 0 L243 1014 L398 1014 L229 0 Z M140 1438 L250 1438 Q253 1371 276 1336 Q303 1296 368 1296 Q448 1296 488 1351 Q509 1379 530 1438 L644 1438 Q572 1183 356 1183 Q208 1183 162 1297 Q142 1348 140 1438 Z " />
<glyph glyph-name="Iogonek" unicode="&#x12e;" horiz-adv-x="508" d="M253 0 Q128 -77 128 -170 Q128 -254 215 -254 Q242 -254 294 -239 L306 -309 Q230 -343 165 -343 Q86 -343 44 -307 Q2 -272 2 -208 Q2 -71 160 0 L86 0 L314 1365 L481 1365 L253 0 Z " />
<glyph glyph-name="iogonek" unicode="&#x12f;" horiz-adv-x="470" d="M72 0 L242 1014 L399 1014 L229 0 Q185 -26 152 -68 Q115 -113 115 -162 Q115 -241 193 -241 Q222 -241 270 -227 L282 -293 Q207 -327 143 -327 Q-8 -327 -8 -197 Q-8 -69 138 0 L72 0 Z M453 1179 L249 1179 L280 1365 L484 1365 L453 1179 Z " />
<glyph glyph-name="Idotaccent" unicode="&#x130;" horiz-adv-x="508" d="M481 1365 L253 0 L86 0 L314 1365 L481 1365 Z M433 1736 Q476 1736 507 1705 Q539 1674 539 1629 Q539 1586 509 1555 Q477 1522 432 1522 Q387 1522 356 1554 Q325 1585 325 1629 Q325 1674 356 1704 Q388 1736 433 1736 Z " />
<glyph glyph-name="IJ" unicode="&#x132;" horiz-adv-x="1256" d="M481 1365 L253 0 L86 0 L314 1365 L481 1365 Z M1243 1365 L1102 521 Q1062 288 1020 205 Q950 68 810 13 Q722 -21 620 -21 Q521 -21 416 0 L440 140 Q514 124 590 124 Q719 124 802 184 Q858 224 887 316 Q902 365 921 480 L1069 1365 L1243 1365 Z " />
<glyph glyph-name="ij" unicode="&#x133;" horiz-adv-x="932" d="M230 0 L73 0 L243 1014 L400 1014 L230 0 Z M453 1179 L250 1179 L281 1365 L484 1365 L453 1179 Z M860 1014 L701 65 Q675 -95 654 -151 Q615 -256 524 -308 Q449 -351 354 -351 Q303 -351 216 -339 L236 -218 Q307 -225 343 -225 Q456 -225 500 -138 Q517 -104 535 1 L546 65 L705 1014 L860 1014 Z M915 1179 L712 1179 L743 1365 L946 1365 L915 1179 Z " />
<glyph glyph-name="Jcircumflex" unicode="&#x134;" horiz-adv-x="755" d="M741 1365 L600 521 Q561 288 519 205 Q449 68 309 13 Q220 -21 119 -21 Q20 -21 -85 0 L-62 140 Q13 124 89 124 Q218 124 301 184 Q357 224 385 316 Q401 365 420 480 L568 1365 L741 1365 Z M989 1522 L844 1502 L683 1625 L483 1502 L340 1522 L708 1768 L989 1522 Z " />
<glyph glyph-name="jcircumflex" unicode="&#x135;" horiz-adv-x="469" d="M397 1014 L238 65 Q212 -95 191 -151 Q152 -256 61 -309 Q-14 -351 -109 -351 Q-161 -351 -247 -339 L-227 -218 Q-157 -225 -120 -225 Q-7 -225 37 -139 Q54 -104 72 1 L83 65 L242 1014 L397 1014 Z M651 1194 L507 1174 L348 1311 L146 1174 L2 1194 L373 1454 L651 1194 Z " />
<glyph glyph-name="Kcommaaccent" unicode="&#x136;" horiz-adv-x="1275" d="M1291 1365 L830 889 L1154 0 L979 0 L703 770 L315 372 L253 0 L86 0 L314 1365 L481 1365 L351 587 L1101 1365 L1291 1365 Z M514 -109 L678 -109 L467 -475 L399 -475 L514 -109 Z " />
<glyph glyph-name="kcommaaccent" unicode="&#x137;" horiz-adv-x="1004" d="M228 0 L72 0 L300 1365 L456 1365 L312 504 L852 1013 L1035 1013 L646 652 L898 0 L732 0 L519 547 L280 310 L228 0 Z M385 -109 L543 -109 L336 -464 L272 -464 L385 -109 Z " />
<glyph glyph-name="kgreenlandic" unicode="&#x138;" horiz-adv-x="1004" d="M228 0 L72 0 L242 1013 L397 1013 L312 504 L852 1013 L1035 1013 L646 652 L898 0 L732 0 L519 547 L280 310 L228 0 Z " />
<glyph glyph-name="Lacute" unicode="&#x139;" horiz-adv-x="1042" d="M930 0 L86 0 L314 1365 L481 1365 L277 145 L954 145 L930 0 Z M738 1670 L355 1495 L312 1576 L681 1790 L738 1670 Z " />
<glyph glyph-name="lacute" unicode="&#x13a;" horiz-adv-x="470" d="M456 1365 L228 0 L72 0 L300 1365 L456 1365 Z M677 1674 L317 1495 L274 1576 L615 1790 L677 1674 Z " />
<glyph glyph-name="Lcommaaccent" unicode="&#x13b;" horiz-adv-x="1042" d="M930 0 L86 0 L314 1365 L481 1365 L277 145 L954 145 L930 0 Z M452 -109 L616 -109 L406 -475 L338 -475 L452 -109 Z " />
<glyph glyph-name="lcommaaccent" unicode="&#x13c;" horiz-adv-x="470" d="M457 1365 L228 0 L72 0 L301 1365 L457 1365 Z M59 -109 L218 -109 L11 -464 L-53 -464 L59 -109 Z " />
<glyph glyph-name="Lcaron" unicode="&#x13d;" horiz-adv-x="1042" d="M930 0 L86 0 L314 1365 L481 1365 L277 145 L954 145 L930 0 Z M734 1365 L897 1365 L687 986 L619 986 L734 1365 Z " />
<glyph glyph-name="lcaron" unicode="&#x13e;" horiz-adv-x="628" d="M456 1365 L228 0 L72 0 L300 1365 L456 1365 Z M620 1365 L778 1365 L571 1010 L508 1010 L620 1365 Z " />
<glyph glyph-name="Ldot" unicode="&#x13f;" horiz-adv-x="1042" d="M930 0 L86 0 L314 1365 L481 1365 L277 145 L954 145 L930 0 Z M875 604 L694 604 L725 788 L905 788 L875 604 Z " />
<glyph glyph-name="ldot" unicode="&#x140;" horiz-adv-x="696" d="M456 1365 L228 0 L72 0 L300 1365 L456 1365 Z M685 610 L516 610 L545 783 L714 783 L685 610 Z " />
<glyph glyph-name="Lslash" unicode="&#x141;" horiz-adv-x="1042" d="M930 0 L86 0 L180 559 L33 458 L59 615 L206 715 L315 1365 L481 1365 L385 791 L666 985 L640 828 L359 634 L277 145 L954 145 L930 0 Z " />
<glyph glyph-name="lslash" unicode="&#x142;" horiz-adv-x="497" d="M470 1365 L385 853 L524 949 L500 806 L361 710 L242 0 L86 0 L191 624 L51 523 L75 666 L215 768 L315 1365 L470 1365 Z " />
<glyph glyph-name="Nacute" unicode="&#x143;" horiz-adv-x="1341" d="M1085 0 L952 0 L417 1167 L221 0 L86 0 L314 1365 L501 1365 L998 277 L1180 1365 L1314 1365 L1085 0 Z M1152 1670 L751 1495 L708 1576 L1090 1790 L1152 1670 Z " />
<glyph glyph-name="nacute" unicode="&#x144;" horiz-adv-x="1122" d="M880 0 L731 0 L829 583 Q846 685 846 727 Q846 809 798 862 Q748 918 657 918 Q503 918 398 748 Q326 632 280 363 L217 0 L72 0 L242 1013 L377 1013 L339 787 Q476 1042 696 1042 Q829 1042 914 957 Q995 876 995 757 Q995 686 978 584 L880 0 Z M971 1356 L570 1167 L528 1248 L910 1476 L971 1356 Z " />
<glyph glyph-name="Ncommaaccent" unicode="&#x145;" horiz-adv-x="1341" d="M1085 0 L952 0 L417 1167 L221 0 L86 0 L314 1365 L501 1365 L998 277 L1180 1365 L1314 1365 L1085 0 Z M514 -109 L678 -109 L467 -475 L399 -475 L514 -109 Z " />
<glyph glyph-name="ncommaaccent" unicode="&#x146;" horiz-adv-x="1122" d="M880 0 L731 0 L829 583 Q846 685 846 727 Q846 809 798 862 Q748 918 657 918 Q503 918 398 748 Q326 632 280 363 L217 0 L72 0 L242 1013 L377 1013 L339 787 Q476 1042 696 1042 Q829 1042 914 957 Q995 876 995 757 Q995 686 978 584 L880 0 Z M391 -109 L550 -109 L343 -464 L279 -464 L391 -109 Z " />
<glyph glyph-name="Ncaron" unicode="&#x147;" horiz-adv-x="1341" d="M1085 0 L952 0 L417 1167 L221 0 L86 0 L314 1365 L501 1365 L998 277 L1180 1365 L1314 1365 L1085 0 Z M542 1734 L687 1754 L848 1632 L1048 1754 L1192 1734 L823 1488 L542 1734 Z " />
<glyph glyph-name="ncaron" unicode="&#x148;" horiz-adv-x="1122" d="M880 0 L731 0 L829 583 Q846 685 846 727 Q846 809 798 862 Q748 918 657 918 Q503 918 398 748 Q326 632 280 363 L217 0 L72 0 L242 1013 L377 1013 L339 787 Q476 1042 696 1042 Q829 1042 914 957 Q995 876 995 757 Q995 686 978 584 L880 0 Z M389 1420 L534 1440 L692 1304 L895 1440 L1039 1420 L668 1161 L389 1420 Z " />
<glyph glyph-name="napostrophe" unicode="&#x149;" horiz-adv-x="1402" d="M259 1365 L457 1365 L425 1172 L223 911 L144 911 L315 1172 L227 1172 L259 1365 Z M1160 0 L1011 0 L1109 583 Q1126 686 1126 727 Q1126 809 1078 862 Q1028 918 937 918 Q783 918 678 748 Q606 630 559 363 L497 0 L352 0 L521 1013 L656 1013 L619 787 Q756 1042 976 1042 Q1109 1042 1194 957 Q1275 876 1275 757 Q1275 688 1258 584 L1160 0 Z " />
<glyph glyph-name="Eng" unicode="&#x14a;" horiz-adv-x="1343" d="M86 0 L314 1365 L467 1365 L417 1061 Q600 1393 893 1393 Q1055 1393 1153 1280 Q1244 1175 1244 1024 Q1244 929 1220 788 L1123 210 Q1091 19 1077 -31 Q1029 -200 924 -278 Q826 -351 695 -351 Q630 -351 513 -334 L535 -208 Q629 -218 677 -218 Q825 -218 884 -101 Q916 -36 951 173 L1055 799 Q1079 940 1079 1000 Q1079 1108 1022 1180 Q963 1256 846 1256 Q641 1256 499 1021 Q438 920 399 781 Q369 675 337 489 L253 0 L86 0 Z " />
<glyph glyph-name="eng" unicode="&#x14b;" horiz-adv-x="1122" d="M72 0 L242 1013 L377 1013 L339 787 Q476 1042 696 1042 Q829 1042 914 957 Q995 876 995 757 Q995 686 978 584 L891 65 Q865 -94 843 -151 Q805 -256 713 -308 Q639 -351 544 -351 Q492 -351 406 -339 L426 -218 Q496 -225 533 -225 Q621 -225 667 -175 Q696 -144 703 -111 L720 -44 Q732 4 743 65 L829 583 Q846 685 846 727 Q846 809 798 862 Q748 918 657 918 Q503 918 398 748 Q326 632 280 363 L217 0 L72 0 Z " />
<glyph glyph-name="Omacron" unicode="&#x14c;" horiz-adv-x="1315" d="M747 1392 Q957 1392 1096 1259 Q1264 1098 1264 791 Q1264 550 1162 341 Q983 -28 629 -28 Q383 -28 244 151 Q112 323 112 585 Q112 850 241 1075 Q423 1392 747 1392 Z M741 1254 Q580 1254 464 1122 Q356 1000 309 763 Q287 651 287 550 Q287 354 374 236 Q421 171 497 137 Q558 110 629 110 Q808 110 929 269 Q1036 410 1073 653 Q1090 767 1090 835 Q1090 1026 997 1138 Q901 1254 741 1254 Z M1147 1550 L506 1550 L524 1659 L1166 1659 L1147 1550 Z " />
<glyph glyph-name="omacron" unicode="&#x14d;" horiz-adv-x="1066" d="M585 1038 Q794 1038 905 881 Q991 759 991 578 Q991 370 888 208 Q736 -30 483 -30 Q294 -30 184 101 Q76 231 76 439 Q76 663 204 837 Q353 1038 585 1038 Z M577 915 Q483 915 408 853 Q326 785 280 637 Q244 521 244 401 Q244 258 307 178 Q373 96 491 96 Q639 96 723 229 Q825 391 825 611 Q825 748 775 818 Q706 915 577 915 Z M969 1236 L355 1236 L373 1345 L988 1345 L969 1236 Z " />
<glyph glyph-name="Obreve" unicode="&#x14e;" horiz-adv-x="1315" d="M747 1392 Q957 1392 1096 1259 Q1264 1098 1264 791 Q1264 550 1162 341 Q983 -28 629 -28 Q383 -28 244 151 Q112 323 112 585 Q112 850 241 1075 Q423 1392 747 1392 Z M741 1254 Q580 1254 464 1122 Q356 1000 309 763 Q287 651 287 550 Q287 354 374 236 Q421 171 497 137 Q558 110 629 110 Q808 110 929 269 Q1036 410 1073 653 Q1090 767 1090 835 Q1090 1026 997 1138 Q901 1254 741 1254 Z M543 1752 L653 1752 Q658 1689 689 1659 Q727 1623 811 1623 Q913 1623 965 1673 Q991 1698 1019 1752 L1132 1752 Q1102 1664 1059 1615 Q966 1510 797 1510 Q627 1510 571 1618 Q546 1666 543 1752 Z " />
<glyph glyph-name="obreve" unicode="&#x14f;" horiz-adv-x="1066" d="M585 1038 Q794 1038 905 881 Q991 759 991 578 Q991 370 888 208 Q736 -30 483 -30 Q294 -30 184 101 Q76 231 76 439 Q76 663 204 837 Q353 1038 585 1038 Z M577 915 Q483 915 408 853 Q326 785 280 637 Q244 521 244 401 Q244 258 307 178 Q373 96 491 96 Q639 96 723 229 Q825 391 825 611 Q825 748 775 818 Q706 915 577 915 Z M371 1438 L481 1438 Q486 1370 517 1336 Q554 1296 639 1296 Q741 1296 793 1351 Q818 1378 846 1438 L960 1438 Q930 1346 887 1294 Q794 1183 625 1183 Q455 1183 398 1297 Q374 1347 371 1438 Z " />
<glyph glyph-name="Ohungarumlaut" unicode="&#x150;" horiz-adv-x="1315" d="M747 1392 Q957 1392 1096 1259 Q1264 1098 1264 791 Q1264 550 1162 341 Q983 -28 629 -28 Q383 -28 244 151 Q112 323 112 585 Q112 850 241 1075 Q423 1392 747 1392 Z M741 1254 Q580 1254 464 1122 Q356 1000 309 763 Q287 651 287 550 Q287 354 374 236 Q421 171 497 137 Q558 110 629 110 Q808 110 929 269 Q1036 410 1073 653 Q1090 767 1090 835 Q1090 1026 997 1138 Q901 1254 741 1254 Z M939 1687 L620 1495 L569 1573 L872 1790 L939 1687 Z M1267 1687 L948 1495 L897 1573 L1200 1790 L1267 1687 Z " />
<glyph glyph-name="ohungarumlaut" unicode="&#x151;" horiz-adv-x="1066" d="M585 1038 Q794 1038 905 881 Q991 759 991 578 Q991 370 888 208 Q736 -30 483 -30 Q294 -30 184 101 Q76 231 76 439 Q76 663 204 837 Q353 1038 585 1038 Z M577 915 Q483 915 408 853 Q326 785 280 637 Q244 521 244 401 Q244 258 307 178 Q373 96 491 96 Q639 96 723 229 Q825 391 825 611 Q825 748 775 818 Q706 915 577 915 Z M778 1373 L459 1167 L408 1245 L711 1476 L778 1373 Z M1092 1373 L773 1167 L722 1245 L1025 1476 L1092 1373 Z " />
<glyph glyph-name="Racute" unicode="&#x154;" horiz-adv-x="1297" d="M755 598 L353 598 L253 0 L86 0 L314 1365 L741 1365 Q965 1365 1067 1305 Q1148 1256 1192 1175 Q1235 1097 1235 1002 Q1235 837 1118 726 Q1039 651 918 628 L1110 0 L933 0 L755 598 Z M375 735 L688 735 Q892 735 980 806 Q1021 839 1044 897 Q1065 949 1065 1006 Q1065 1231 771 1231 L459 1231 L375 735 Z M1049 1670 L648 1495 L606 1576 L988 1790 L1049 1670 Z " />
<glyph glyph-name="racute" unicode="&#x155;" horiz-adv-x="694" d="M228 0 L72 0 L242 1014 L397 1014 L349 749 Q421 882 483 942 Q587 1042 727 1042 Q753 1042 762 1042 L736 882 Q712 883 693 883 Q484 883 368 627 Q312 503 266 227 L228 0 Z M821 1356 L420 1167 L378 1248 L760 1476 L821 1356 Z " />
<glyph glyph-name="Rcommaaccent" unicode="&#x156;" horiz-adv-x="1297" d="M755 598 L353 598 L253 0 L86 0 L314 1365 L741 1365 Q965 1365 1067 1305 Q1148 1256 1192 1175 Q1235 1097 1235 1002 Q1235 837 1118 726 Q1039 651 918 628 L1110 0 L933 0 L755 598 Z M375 735 L688 735 Q892 735 980 806 Q1021 839 1044 897 Q1065 949 1065 1006 Q1065 1231 771 1231 L459 1231 L375 735 Z M500 -109 L664 -109 L454 -475 L386 -475 L500 -109 Z " />
<glyph glyph-name="rcommaaccent" unicode="&#x157;" horiz-adv-x="694" d="M228 0 L73 0 L242 1014 L398 1014 L349 749 Q421 882 484 942 Q587 1042 728 1042 Q753 1042 763 1042 L736 882 Q712 883 694 883 Q485 883 369 627 Q312 503 266 227 L228 0 Z M61 -109 L220 -109 L13 -464 L-51 -464 L61 -109 Z " />
<glyph glyph-name="Rcaron" unicode="&#x158;" horiz-adv-x="1297" d="M755 598 L353 598 L253 0 L86 0 L314 1365 L741 1365 Q965 1365 1067 1305 Q1148 1256 1192 1175 Q1235 1097 1235 1002 Q1235 837 1118 726 Q1039 651 918 628 L1110 0 L933 0 L755 598 Z M375 735 L688 735 Q892 735 980 806 Q1021 839 1044 897 Q1065 949 1065 1006 Q1065 1231 771 1231 L459 1231 L375 735 Z M453 1734 L598 1754 L759 1632 L959 1754 L1103 1734 L734 1488 L453 1734 Z " />
<glyph glyph-name="rcaron" unicode="&#x159;" horiz-adv-x="694" d="M228 0 L72 0 L242 1014 L397 1014 L349 749 Q421 882 483 942 Q587 1042 727 1042 Q753 1042 762 1042 L736 882 Q712 883 693 883 Q484 883 368 627 Q312 503 266 227 L228 0 Z M223 1420 L368 1440 L526 1304 L729 1440 L872 1420 L502 1161 L223 1420 Z " />
<glyph glyph-name="Sacute" unicode="&#x15a;" horiz-adv-x="1171" d="M1114 1080 L970 1025 Q937 1113 881 1168 Q775 1272 612 1272 Q469 1272 393 1196 Q325 1128 325 1032 Q325 935 398 884 Q454 844 524 826 L636 798 Q723 776 791 756 Q1084 667 1084 399 Q1084 213 956 99 Q813 -29 563 -29 Q328 -29 174 91 Q69 173 8 351 L157 405 Q204 275 263 217 Q374 109 568 109 Q752 109 844 209 Q915 286 915 380 Q915 513 798 570 Q752 592 590 631 Q404 675 304 739 Q225 789 186 876 Q157 941 157 1017 Q157 1201 305 1312 Q426 1402 608 1402 Q983 1402 1114 1080 Z M982 1670 L581 1495 L538 1576 L921 1790 L982 1670 Z " />
<glyph glyph-name="sacute" unicode="&#x15b;" horiz-adv-x="945" d="M857 796 L727 742 Q660 910 461 910 Q372 910 315 864 Q259 819 259 754 Q259 673 335 639 Q375 622 469 600 L532 585 Q639 561 682 539 Q834 464 834 299 Q834 169 738 78 Q628 -26 436 -26 Q103 -26 -9 250 L136 299 Q208 99 442 99 Q553 99 617 149 Q678 196 678 273 Q678 346 623 382 Q583 407 478 432 L425 445 Q310 472 261 495 Q99 571 99 729 Q99 854 191 940 Q292 1033 467 1033 Q643 1033 757 940 Q822 887 857 796 Z M829 1356 L428 1167 L386 1248 L768 1476 L829 1356 Z " />
<glyph glyph-name="Scircumflex" unicode="&#x15c;" horiz-adv-x="1171" d="M1114 1080 L970 1025 Q937 1113 881 1168 Q775 1272 612 1272 Q469 1272 393 1196 Q325 1128 325 1032 Q325 935 398 884 Q454 844 524 826 L636 798 Q723 776 791 756 Q1084 667 1084 399 Q1084 213 956 99 Q813 -29 563 -29 Q328 -29 174 91 Q69 173 8 351 L157 405 Q204 275 263 217 Q374 109 568 109 Q752 109 844 209 Q915 286 915 380 Q915 513 798 570 Q752 592 590 631 Q404 675 304 739 Q225 789 186 876 Q157 941 157 1017 Q157 1201 305 1312 Q426 1402 608 1402 Q983 1402 1114 1080 Z M995 1522 L850 1502 L689 1625 L489 1502 L346 1522 L714 1768 L995 1522 Z " />
<glyph glyph-name="scircumflex" unicode="&#x15d;" horiz-adv-x="945" d="M857 796 L727 742 Q660 910 461 910 Q372 910 315 864 Q259 819 259 754 Q259 673 335 639 Q375 622 469 600 L532 585 Q639 561 682 539 Q834 464 834 299 Q834 169 738 78 Q628 -26 436 -26 Q103 -26 -9 250 L136 299 Q208 99 442 99 Q553 99 617 149 Q678 196 678 273 Q678 346 623 382 Q583 407 478 432 L425 445 Q310 472 261 495 Q99 571 99 729 Q99 854 191 940 Q292 1033 467 1033 Q643 1033 757 940 Q822 887 857 796 Z M863 1194 L718 1174 L559 1311 L357 1174 L213 1194 L584 1454 L863 1194 Z " />
<glyph glyph-name="Scedilla" unicode="&#x15e;" horiz-adv-x="1171" d="M547 -29 L515 -107 Q537 -105 554 -105 Q628 -105 680 -151 Q718 -184 718 -239 Q718 -326 640 -372 Q577 -410 483 -410 Q385 -410 295 -361 L329 -289 Q413 -329 478 -329 Q548 -329 580 -298 Q603 -275 603 -246 Q603 -174 475 -174 Q448 -174 400 -179 L468 -23 Q333 -3 241 48 Q121 113 57 234 Q32 280 8 351 L157 405 Q204 275 263 217 Q374 109 568 109 Q752 109 844 209 Q915 286 915 380 Q915 513 798 570 Q752 592 590 631 Q404 675 304 739 Q225 789 186 876 Q157 941 157 1017 Q157 1201 305 1312 Q426 1402 608 1402 Q983 1402 1114 1080 L970 1025 Q937 1113 881 1168 Q775 1272 612 1272 Q469 1272 393 1196 Q325 1128 325 1032 Q325 935 398 884 Q454 844 524 826 L636 798 Q723 776 791 756 Q1084 667 1084 399 Q1084 255 1001 146 Q910 28 723 -13 Q646 -29 565 -29 Q562 -29 547 -29 Z " />
<glyph glyph-name="scedilla" unicode="&#x15f;" horiz-adv-x="945" d="M421 -26 L391 -98 Q412 -97 427 -97 Q496 -97 544 -139 Q579 -171 579 -221 Q579 -301 507 -344 Q449 -379 363 -379 Q270 -379 189 -333 L220 -267 Q297 -304 357 -304 Q423 -304 452 -275 Q473 -254 473 -227 Q473 -160 354 -160 Q328 -160 286 -165 L349 -20 Q272 -10 214 15 Q61 78 -9 250 L136 299 Q208 99 442 99 Q553 99 617 149 Q678 196 678 273 Q678 346 623 382 Q583 407 478 432 L425 445 Q310 472 261 495 Q99 571 99 729 Q99 854 191 940 Q292 1033 467 1033 Q643 1033 757 940 Q822 887 857 796 L727 742 Q660 910 461 910 Q372 910 315 864 Q259 819 259 754 Q259 673 335 639 Q375 622 469 600 L532 585 Q639 561 682 539 Q834 464 834 299 Q834 194 769 112 Q660 -26 437 -26 Q432 -26 421 -26 Z " />
<glyph glyph-name="Scaron" unicode="&#x160;" horiz-adv-x="1171" d="M1114 1080 L970 1025 Q937 1113 881 1168 Q775 1272 612 1272 Q469 1272 393 1196 Q325 1128 325 1032 Q325 935 398 884 Q454 844 524 826 L636 798 Q723 776 791 756 Q1084 667 1084 399 Q1084 213 956 99 Q813 -29 563 -29 Q328 -29 174 91 Q69 173 8 351 L157 405 Q204 275 263 217 Q374 109 568 109 Q752 109 844 209 Q915 286 915 380 Q915 513 798 570 Q752 592 590 631 Q404 675 304 739 Q225 789 186 876 Q157 941 157 1017 Q157 1201 305 1312 Q426 1402 608 1402 Q983 1402 1114 1080 Z M378 1734 L523 1754 L684 1632 L884 1754 L1027 1734 L659 1488 L378 1734 Z " />
<glyph glyph-name="scaron" unicode="&#x161;" horiz-adv-x="945" d="M857 796 L727 742 Q660 910 461 910 Q372 910 315 864 Q259 819 259 754 Q259 673 335 639 Q375 622 469 600 L532 585 Q639 561 682 539 Q834 464 834 299 Q834 169 738 78 Q628 -26 436 -26 Q103 -26 -9 250 L136 299 Q208 99 442 99 Q553 99 617 149 Q678 196 678 273 Q678 346 623 382 Q583 407 478 432 L425 445 Q310 472 261 495 Q99 571 99 729 Q99 854 191 940 Q292 1033 467 1033 Q643 1033 757 940 Q822 887 857 796 Z M239 1420 L384 1440 L542 1304 L745 1440 L888 1420 L518 1161 L239 1420 Z " />
<glyph glyph-name="Tcommaaccent" unicode="&#x162;" horiz-adv-x="1000" d="M1099 1226 L704 1226 L498 0 L332 0 L537 1226 L141 1226 L164 1365 L1123 1365 L1099 1226 Z M316 -109 L479 -109 L269 -475 L201 -475 L316 -109 Z " />
<glyph glyph-name="tcommaaccent" unicode="&#x163;" horiz-adv-x="628" d="M383 891 L291 343 Q275 249 275 216 Q275 175 296 147 Q327 105 403 105 Q446 105 541 115 L525 -10 Q505 -12 496 -13 Q411 -22 377 -22 Q122 -22 122 201 Q122 257 148 411 L228 891 L74 891 L95 1014 L252 1014 L293 1259 L446 1273 L403 1014 L634 1014 L613 891 L383 891 Z M222 -109 L380 -109 L173 -464 L109 -464 L222 -109 Z " />
<glyph glyph-name="Tcaron" unicode="&#x164;" horiz-adv-x="1000" d="M1099 1226 L704 1226 L498 0 L332 0 L537 1226 L141 1226 L164 1365 L1123 1365 L1099 1226 Z M385 1734 L530 1754 L691 1632 L891 1754 L1034 1734 L666 1488 L385 1734 Z " />
<glyph glyph-name="tcaron" unicode="&#x165;" horiz-adv-x="653" d="M383 891 L291 343 Q275 249 275 216 Q275 175 296 147 Q327 105 403 105 Q446 105 541 115 L525 -10 Q505 -12 496 -13 Q411 -22 377 -22 Q122 -22 122 201 Q122 257 148 411 L228 891 L74 891 L95 1014 L252 1014 L293 1259 L446 1273 L403 1014 L634 1014 L613 891 L383 891 Z M644 1482 L803 1482 L596 1127 L532 1127 L644 1482 Z " />
<glyph glyph-name="Tbar" unicode="&#x166;" horiz-adv-x="1000" d="M924 939 L904 816 L635 816 L498 0 L332 0 L468 816 L199 816 L220 939 L489 939 L537 1226 L141 1226 L164 1365 L1123 1365 L1099 1226 L704 1226 L655 939 L924 939 Z " />
<glyph glyph-name="tbar" unicode="&#x167;" horiz-adv-x="628" d="M579 728 L561 619 L337 619 L291 343 Q275 250 275 216 Q275 176 297 147 Q327 105 404 105 Q447 105 541 115 L525 -10 Q505 -12 496 -13 Q411 -22 377 -22 Q122 -22 122 203 Q122 256 148 412 L182 619 L35 619 L53 728 L201 728 L228 891 L74 891 L94 1014 L251 1014 L293 1259 L446 1273 L403 1014 L634 1014 L613 891 L383 891 L355 728 L579 728 Z " />
<glyph glyph-name="Utilde" unicode="&#x168;" horiz-adv-x="1259" d="M1252 1365 L1113 533 Q1074 300 1020 201 Q941 58 785 3 Q693 -30 585 -30 Q435 -30 322 28 Q134 123 134 353 Q134 411 167 609 L294 1365 L461 1365 L327 573 Q299 414 299 362 Q299 261 363 192 Q441 108 591 108 Q757 108 851 203 Q910 262 933 341 Q955 415 972 518 L1114 1365 L1252 1365 Z M1094 1701 L1169 1629 Q1129 1588 1103 1571 Q1042 1528 969 1528 Q921 1528 886 1544 L797 1582 Q755 1601 707 1601 Q634 1601 575 1535 L492 1593 Q580 1721 714 1721 Q760 1721 794 1706 L887 1667 Q928 1649 975 1649 Q1036 1649 1094 1701 Z " />
<glyph glyph-name="utilde" unicode="&#x169;" horiz-adv-x="1111" d="M1039 1014 L869 0 L733 0 L774 245 Q709 122 643 65 Q539 -27 405 -27 Q274 -27 194 61 Q125 138 125 258 Q125 317 147 447 L244 1014 L400 1014 L297 398 Q280 296 280 266 Q280 184 334 138 Q377 101 446 101 Q593 101 710 284 Q754 354 779 422 Q806 495 828 625 L893 1014 L1039 1014 Z M951 1380 L1027 1308 Q986 1267 961 1250 Q900 1207 827 1207 Q779 1207 744 1223 L655 1261 Q613 1280 565 1280 Q492 1280 433 1214 L350 1272 Q438 1400 572 1400 Q618 1400 652 1385 L744 1346 Q786 1328 833 1328 Q894 1328 951 1380 Z " />
<glyph glyph-name="Umacron" unicode="&#x16a;" horiz-adv-x="1259" d="M1252 1365 L1113 533 Q1074 300 1020 201 Q941 58 785 3 Q693 -30 585 -30 Q435 -30 322 28 Q134 123 134 353 Q134 411 167 609 L294 1365 L461 1365 L327 573 Q299 414 299 362 Q299 261 363 192 Q441 108 591 108 Q757 108 851 203 Q910 262 933 341 Q955 415 972 518 L1114 1365 L1252 1365 Z M1122 1550 L481 1550 L499 1659 L1141 1659 L1122 1550 Z " />
<glyph glyph-name="umacron" unicode="&#x16b;" horiz-adv-x="1111" d="M1039 1014 L869 0 L733 0 L774 245 Q709 122 643 65 Q539 -27 405 -27 Q274 -27 194 61 Q125 138 125 258 Q125 317 147 447 L244 1014 L400 1014 L297 398 Q280 296 280 266 Q280 184 334 138 Q377 101 446 101 Q593 101 710 284 Q754 354 779 422 Q806 495 828 625 L893 1014 L1039 1014 Z M986 1236 L371 1236 L390 1345 L1004 1345 L986 1236 Z " />
<glyph glyph-name="Ubreve" unicode="&#x16c;" horiz-adv-x="1259" d="M1252 1365 L1113 533 Q1074 300 1020 201 Q941 58 785 3 Q693 -30 585 -30 Q435 -30 322 28 Q134 123 134 353 Q134 411 167 609 L294 1365 L461 1365 L327 573 Q299 414 299 362 Q299 261 363 192 Q441 108 591 108 Q757 108 851 203 Q910 262 933 341 Q955 415 972 518 L1114 1365 L1252 1365 Z M556 1752 L667 1752 Q671 1689 702 1659 Q740 1623 824 1623 Q926 1623 978 1673 Q1004 1698 1032 1752 L1145 1752 Q1115 1664 1072 1615 Q979 1510 810 1510 Q640 1510 584 1618 Q559 1666 556 1752 Z " />
<glyph glyph-name="ubreve" unicode="&#x16d;" horiz-adv-x="1111" d="M1039 1014 L869 0 L733 0 L774 245 Q709 122 643 65 Q539 -27 405 -27 Q274 -27 194 61 Q125 138 125 258 Q125 317 147 447 L244 1014 L400 1014 L297 398 Q280 296 280 266 Q280 184 334 138 Q377 101 446 101 Q593 101 710 284 Q754 354 779 422 Q806 495 828 625 L893 1014 L1039 1014 Z M418 1438 L528 1438 Q533 1370 564 1336 Q601 1296 686 1296 Q788 1296 840 1351 Q865 1378 893 1438 L1007 1438 Q977 1346 934 1294 Q841 1183 672 1183 Q502 1183 445 1297 Q421 1347 418 1438 Z " />
<glyph glyph-name="Uring" unicode="&#x16e;" horiz-adv-x="1259" d="M1252 1365 L1113 533 Q1074 300 1020 201 Q941 58 785 3 Q693 -30 585 -30 Q435 -30 322 28 Q134 123 134 353 Q134 411 167 609 L294 1365 L461 1365 L327 573 Q299 414 299 362 Q299 261 363 192 Q441 108 591 108 Q757 108 851 203 Q910 262 933 341 Q955 415 972 518 L1114 1365 L1252 1365 Z M819 1816 Q892 1816 944 1762 Q995 1709 995 1634 Q995 1561 944 1508 Q892 1455 817 1455 Q743 1455 691 1506 Q635 1559 635 1635 Q635 1711 688 1763 Q743 1816 819 1816 Z M818 1725 Q779 1725 752 1699 Q724 1672 724 1634 Q724 1596 753 1569 Q780 1543 817 1543 Q855 1543 881 1571 Q906 1597 906 1633 Q906 1671 881 1698 Q854 1725 818 1725 Z " />
<glyph glyph-name="uring" unicode="&#x16f;" horiz-adv-x="1111" d="M1039 1014 L869 0 L733 0 L774 245 Q709 122 643 65 Q539 -27 405 -27 Q274 -27 194 61 Q125 138 125 258 Q125 317 147 447 L244 1014 L400 1014 L297 398 Q280 296 280 266 Q280 184 334 138 Q377 101 446 101 Q593 101 710 284 Q754 354 779 422 Q806 495 828 625 L893 1014 L1039 1014 Z M692 1501 Q762 1501 812 1449 Q861 1398 861 1326 Q861 1255 812 1205 Q762 1154 689 1154 Q619 1154 568 1203 Q514 1254 514 1327 Q514 1400 566 1450 Q619 1501 692 1501 Z M690 1418 Q652 1418 624 1392 Q597 1365 597 1328 Q597 1289 626 1262 Q653 1236 689 1236 Q727 1236 753 1264 Q778 1290 778 1326 Q778 1364 753 1391 Q726 1418 690 1418 Z " />
<glyph glyph-name="Uhungarumlaut" unicode="&#x170;" horiz-adv-x="1259" d="M1252 1365 L1113 533 Q1074 300 1020 201 Q941 58 785 3 Q693 -30 585 -30 Q435 -30 322 28 Q134 123 134 353 Q134 411 167 609 L294 1365 L461 1365 L327 573 Q299 414 299 362 Q299 261 363 192 Q441 108 591 108 Q757 108 851 203 Q910 262 933 341 Q955 415 972 518 L1114 1365 L1252 1365 Z M925 1687 L606 1495 L555 1573 L858 1790 L925 1687 Z M1253 1687 L933 1495 L883 1573 L1186 1790 L1253 1687 Z " />
<glyph glyph-name="uhungarumlaut" unicode="&#x171;" horiz-adv-x="1111" d="M1039 1014 L869 0 L733 0 L774 245 Q709 122 643 65 Q539 -27 405 -27 Q274 -27 194 61 Q125 138 125 258 Q125 317 147 447 L244 1014 L400 1014 L297 398 Q280 296 280 266 Q280 184 334 138 Q377 101 446 101 Q593 101 710 284 Q754 354 779 422 Q806 495 828 625 L893 1014 L1039 1014 Z M799 1373 L479 1167 L429 1245 L731 1476 L799 1373 Z M1113 1373 L793 1167 L743 1245 L1046 1476 L1113 1373 Z " />
<glyph glyph-name="Uogonek" unicode="&#x172;" horiz-adv-x="1259" d="M915 -233 L926 -302 Q852 -336 772 -336 Q684 -336 637 -297 Q595 -263 595 -200 Q595 -88 725 -14 Q655 -30 589 -30 Q435 -30 322 28 Q134 123 134 353 Q134 411 167 609 L294 1365 L461 1365 L327 573 Q299 414 299 362 Q299 261 363 192 Q441 108 591 108 Q757 108 851 203 Q910 262 933 341 Q955 415 972 518 L1114 1365 L1252 1365 L1113 533 Q1074 298 1016 194 Q985 139 927 84 Q899 57 838 5 Q779 -44 754 -76 Q721 -118 721 -162 Q721 -246 827 -246 Q867 -246 915 -233 Z " />
<glyph glyph-name="uogonek" unicode="&#x173;" horiz-adv-x="1111" d="M869 0 Q799 -38 766 -68 Q720 -111 720 -161 Q720 -241 824 -241 Q863 -241 910 -227 L922 -293 Q849 -326 771 -326 Q684 -326 638 -289 Q597 -256 597 -197 Q597 -69 772 0 L733 0 L774 245 Q709 122 643 65 Q539 -27 405 -27 Q274 -27 194 61 Q125 138 125 258 Q125 317 147 447 L244 1014 L400 1014 L297 398 Q280 296 280 266 Q280 184 334 138 Q377 101 446 101 Q593 101 710 284 Q754 354 779 422 Q806 495 828 625 L893 1014 L1039 1014 L869 0 Z " />
<glyph glyph-name="Wcircumflex" unicode="&#x174;" horiz-adv-x="1663" d="M1215 0 L1046 0 L915 1088 L477 0 L300 0 L166 1365 L333 1365 L442 237 L903 1365 L1031 1365 L1171 237 L1627 1365 L1768 1365 L1215 0 Z M1292 1522 L1147 1502 L986 1625 L786 1502 L642 1522 L1010 1768 L1292 1522 Z " />
<glyph glyph-name="wcircumflex" unicode="&#x175;" horiz-adv-x="1380" d="M959 0 L843 0 L716 772 L393 0 L266 0 L110 1014 L264 1014 L377 252 L696 1014 L825 1014 L946 252 L1280 1014 L1413 1014 L959 0 Z M1078 1194 L933 1174 L775 1311 L572 1174 L429 1194 L799 1454 L1078 1194 Z " />
<glyph glyph-name="Ycircumflex" unicode="&#x176;" horiz-adv-x="1049" d="M532 0 L360 0 L455 572 L107 1365 L290 1365 L574 719 L1046 1365 L1214 1365 L627 572 L532 0 Z M1019 1522 L874 1502 L713 1625 L513 1502 L370 1522 L738 1768 L1019 1522 Z " />
<glyph glyph-name="ycircumflex" unicode="&#x177;" horiz-adv-x="870" d="M941 1014 L385 -55 Q305 -208 238 -270 Q143 -356 3 -356 Q-37 -356 -98 -349 L-75 -213 Q-23 -223 13 -223 Q99 -223 159 -177 Q215 -135 259 -43 L294 28 L82 1014 L242 1014 L406 244 L805 1014 L941 1014 Z M856 1194 L711 1174 L553 1311 L350 1174 L207 1194 L577 1454 L856 1194 Z " />
<glyph glyph-name="Zacute" unicode="&#x179;" horiz-adv-x="1076" d="M1121 1365 L1102 1251 L197 145 L967 145 L943 0 L-37 0 L-13 145 L874 1227 L190 1227 L213 1365 L1121 1365 Z M988 1670 L587 1495 L544 1576 L926 1790 L988 1670 Z " />
<glyph glyph-name="zacute" unicode="&#x17a;" horiz-adv-x="859" d="M733 0 L-37 0 L-19 106 L649 886 L130 886 L152 1014 L880 1014 L862 911 L187 127 L754 127 L733 0 Z M849 1356 L448 1167 L405 1248 L787 1476 L849 1356 Z " />
<glyph glyph-name="Zdotaccent" unicode="&#x17b;" horiz-adv-x="1076" d="M1121 1365 L1102 1251 L197 145 L967 145 L943 0 L-37 0 L-13 145 L874 1227 L190 1227 L213 1365 L1121 1365 Z M683 1736 Q726 1736 757 1705 Q789 1674 789 1629 Q789 1586 759 1555 Q727 1522 682 1522 Q637 1522 606 1554 Q575 1585 575 1629 Q575 1674 606 1704 Q638 1736 683 1736 Z " />
<glyph glyph-name="zdotaccent" unicode="&#x17c;" horiz-adv-x="859" d="M733 0 L-37 0 L-19 106 L649 886 L130 886 L152 1014 L880 1014 L862 911 L187 127 L754 127 L733 0 Z M556 1415 Q599 1415 631 1384 Q662 1353 662 1308 Q662 1265 632 1234 Q600 1201 555 1201 Q510 1201 479 1233 Q448 1264 448 1308 Q448 1353 479 1383 Q511 1415 556 1415 Z " />
<glyph glyph-name="Zcaron" unicode="&#x17d;" horiz-adv-x="1076" d="M1121 1365 L1102 1251 L197 145 L967 145 L943 0 L-37 0 L-13 145 L874 1227 L190 1227 L213 1365 L1121 1365 Z M392 1734 L537 1754 L697 1632 L898 1754 L1041 1734 L673 1488 L392 1734 Z " />
<glyph glyph-name="zcaron" unicode="&#x17e;" horiz-adv-x="859" d="M733 0 L-37 0 L-19 106 L649 886 L130 886 L152 1014 L880 1014 L862 911 L187 127 L754 127 L733 0 Z M259 1420 L404 1440 L563 1304 L765 1440 L909 1420 L538 1161 L259 1420 Z " />
<glyph glyph-name="uni018F" unicode="&#x18f;" horiz-adv-x="1334" d="M119 684 L1075 684 Q1085 767 1085 822 Q1085 1013 1001 1134 Q917 1255 730 1255 Q547 1255 448 1121 Q413 1073 378 997 L220 1028 Q373 1393 750 1393 Q1014 1393 1146 1225 Q1265 1073 1265 809 Q1265 482 1105 239 Q929 -28 630 -28 Q472 -28 350 53 Q217 141 153 324 Q112 443 112 566 Q112 610 119 684 Z M288 539 Q291 389 340 291 Q386 198 469 151 Q542 109 629 109 Q855 109 980 349 Q1025 436 1051 539 L288 539 Z " />
<glyph glyph-name="uni01DD" unicode="&#x1dd;" horiz-adv-x="1065" d="M127 778 Q185 872 243 923 Q375 1042 565 1042 Q732 1042 848 944 Q997 818 997 580 Q997 376 901 219 Q813 77 670 13 Q579 -27 474 -27 Q342 -27 243 35 Q72 143 72 406 Q72 457 81 522 L827 522 Q833 569 833 602 Q833 770 728 856 Q663 911 562 911 Q420 911 327 807 Q297 773 258 716 L127 778 Z M808 407 L232 407 Q229 373 229 359 Q229 242 295 170 Q366 93 482 93 Q651 93 752 257 Q791 321 808 407 Z " />
<glyph glyph-name="Aringacute" unicode="&#x1fa;" horiz-adv-x="1155" d="M608 1357 Q537 1413 537 1500 Q537 1574 590 1627 Q644 1680 720 1680 Q795 1680 847 1626 Q898 1573 898 1499 Q898 1395 805 1341 L1039 0 L863 0 L792 400 L294 400 L98 0 L-57 0 L608 1357 Z M772 537 L674 1185 L359 537 L772 537 Z M720 1589 Q681 1589 654 1563 Q626 1536 626 1498 Q626 1460 655 1433 Q682 1407 719 1407 Q758 1407 784 1435 Q809 1461 809 1497 Q809 1535 783 1562 Q757 1589 720 1589 Z M926 1848 L525 1673 L482 1753 L864 1967 L926 1848 Z " />
<glyph glyph-name="aringacute" unicode="&#x1fb;" horiz-adv-x="1096" d="M877 0 L718 0 Q717 37 717 51 Q717 124 735 198 Q576 -29 355 -29 Q220 -29 132 49 Q32 136 32 275 Q32 407 129 498 Q241 603 465 624 Q545 631 648 631 Q672 631 800 625 Q811 693 811 732 Q811 843 728 888 Q666 922 578 922 Q436 922 351 842 Q319 811 285 752 L137 815 Q182 901 260 956 Q385 1044 564 1044 Q739 1044 854 970 Q972 893 972 769 Q972 721 896 230 Q875 98 875 41 Q875 30 877 0 Z M781 509 Q705 515 645 515 Q450 515 352 473 Q205 411 205 269 Q205 195 249 150 Q298 101 384 101 Q493 101 590 176 Q697 260 748 390 Q765 433 781 509 Z M670 1459 Q740 1459 790 1407 Q839 1356 839 1284 Q839 1214 790 1163 Q740 1112 668 1112 Q598 1112 546 1161 Q493 1212 493 1285 Q493 1358 544 1408 Q597 1459 670 1459 Z M669 1376 Q630 1376 603 1350 Q576 1323 576 1285 Q576 1247 605 1220 Q631 1194 668 1194 Q705 1194 731 1222 Q756 1248 756 1284 Q756 1322 731 1349 Q705 1376 669 1376 Z M960 1695 L559 1506 L516 1586 L898 1814 L960 1695 Z " />
<glyph glyph-name="AEacute" unicode="&#x1fc;" horiz-adv-x="1790" d="M1637 0 L728 0 L807 471 L410 471 L61 0 L-112 0 L910 1365 L1812 1365 L1790 1230 L1100 1230 L1025 781 L1615 781 L1593 647 L1003 647 L919 145 L1661 145 L1637 0 Z M828 601 L925 1176 L502 601 L828 601 Z M1626 1670 L1225 1495 L1183 1576 L1565 1790 L1626 1670 Z " />
<glyph glyph-name="aeacute" unicode="&#x1fd;" horiz-adv-x="1723" d="M1598 237 Q1444 -30 1171 -30 Q1014 -30 901 53 Q812 119 763 241 Q585 -26 343 -26 Q205 -26 117 55 Q28 138 28 268 Q28 378 95 466 Q183 580 382 612 Q476 627 594 627 Q639 627 773 619 Q786 678 786 722 Q786 923 554 923 Q374 923 278 754 L135 815 Q262 1042 544 1042 Q787 1042 897 888 Q1051 1040 1249 1040 Q1469 1040 1579 877 Q1650 772 1650 610 Q1650 562 1642 492 L903 492 Q895 440 895 405 Q895 285 952 206 Q1030 98 1167 98 Q1283 98 1372 176 Q1416 214 1468 293 L1598 237 Z M922 603 L1494 603 Q1496 635 1496 648 Q1496 762 1441 832 Q1369 925 1240 925 Q1078 925 982 770 Q940 703 922 603 Z M757 507 Q680 517 614 517 Q425 517 327 470 Q252 435 217 364 Q193 314 193 265 Q193 183 253 133 Q295 99 367 99 Q523 99 647 254 Q737 368 757 507 Z M1229 1356 L828 1167 L785 1248 L1167 1476 L1229 1356 Z " />
<glyph glyph-name="Oslashacute" unicode="&#x1fe;" horiz-adv-x="1315" d="M300 91 L195 -48 L49 -48 L222 183 Q112 355 112 587 Q112 850 241 1074 Q425 1393 746 1393 Q926 1393 1074 1279 L1187 1420 L1337 1420 L1156 1190 Q1264 1021 1264 797 Q1264 528 1154 320 Q968 -28 637 -28 Q447 -28 300 91 Z M400 203 Q501 110 628 110 Q785 110 899 231 Q996 335 1051 545 Q1090 694 1090 842 Q1090 956 1042 1068 L400 203 Z M334 304 L971 1166 Q868 1254 739 1254 Q603 1254 497 1154 Q394 1058 337 867 Q289 709 289 543 Q289 416 334 304 Z M1100 1670 L699 1495 L657 1576 L1039 1790 L1100 1670 Z " />
<glyph glyph-name="oslashacute" unicode="&#x1ff;" horiz-adv-x="1066" d="M1088 1070 L914 867 Q991 739 991 579 Q991 369 886 205 Q735 -31 486 -31 Q341 -31 228 57 L131 -55 L3 -55 L159 135 Q75 267 75 438 Q75 673 216 852 Q363 1038 584 1038 Q733 1038 844 948 L950 1070 L1088 1070 Z M805 758 L323 159 Q395 95 487 95 Q641 95 726 235 Q824 395 824 618 Q824 692 805 758 Z M266 251 L748 848 Q671 914 574 914 Q429 914 346 784 Q243 622 243 395 Q243 323 266 251 Z M937 1356 L536 1167 L493 1248 L875 1476 L937 1356 Z " />
<glyph glyph-name="Scommaaccent" unicode="&#x218;" horiz-adv-x="1171" d="M1114 1080 L970 1025 Q937 1113 881 1168 Q775 1272 612 1272 Q469 1272 393 1196 Q325 1128 325 1032 Q325 935 398 884 Q454 844 524 826 L636 798 Q723 776 791 756 Q1084 667 1084 399 Q1084 213 956 99 Q813 -29 563 -29 Q328 -29 174 91 Q69 173 8 351 L157 405 Q204 275 263 217 Q374 109 568 109 Q752 109 844 209 Q915 286 915 380 Q915 513 798 570 Q752 592 590 631 Q404 675 304 739 Q225 789 186 876 Q157 941 157 1017 Q157 1201 305 1312 Q426 1402 608 1402 Q983 1402 1114 1080 Z M501 -109 L660 -109 L453 -464 L389 -464 L501 -109 Z " />
<glyph glyph-name="scommaaccent" unicode="&#x219;" horiz-adv-x="945" d="M857 796 L727 742 Q660 910 461 910 Q372 910 315 864 Q259 819 259 754 Q259 673 335 639 Q375 622 469 600 L532 585 Q639 561 682 539 Q834 464 834 299 Q834 169 738 78 Q628 -26 436 -26 Q103 -26 -9 250 L136 299 Q208 99 442 99 Q553 99 617 149 Q678 196 678 273 Q678 346 623 382 Q583 407 478 432 L425 445 Q310 472 261 495 Q99 571 99 729 Q99 854 191 940 Q292 1033 467 1033 Q643 1033 757 940 Q822 887 857 796 Z M347 -112 L505 -112 L298 -467 L234 -467 L347 -112 Z " />
<glyph glyph-name="uni021A" unicode="&#x21a;" horiz-adv-x="1000" d="M1099 1226 L704 1226 L498 0 L332 0 L537 1226 L141 1226 L164 1365 L1123 1365 L1099 1226 Z M316 -109 L479 -109 L269 -475 L201 -475 L316 -109 Z " />
<glyph glyph-name="uni021B" unicode="&#x21b;" horiz-adv-x="628" d="M383 891 L291 343 Q275 249 275 216 Q275 175 296 147 Q327 105 403 105 Q446 105 541 115 L525 -10 Q505 -12 496 -13 Q411 -22 377 -22 Q122 -22 122 201 Q122 257 148 411 L228 891 L74 891 L95 1014 L252 1014 L293 1259 L446 1273 L403 1014 L634 1014 L613 891 L383 891 Z M222 -109 L380 -109 L173 -464 L109 -464 L222 -109 Z " />
<glyph glyph-name="uni0259" unicode="&#x259;" horiz-adv-x="1065" d="M127 778 Q185 872 243 923 Q375 1042 565 1042 Q732 1042 848 944 Q997 818 997 580 Q997 376 901 219 Q813 77 670 13 Q579 -27 474 -27 Q342 -27 243 35 Q72 143 72 406 Q72 457 81 522 L827 522 Q833 569 833 602 Q833 770 728 856 Q663 911 562 911 Q420 911 327 807 Q297 773 258 716 L127 778 Z M808 407 L232 407 Q229 373 229 359 Q229 242 295 170 Q366 93 482 93 Q651 93 752 257 Q791 321 808 407 Z " />
<glyph glyph-name="afii57929" unicode="&#x2bc;" horiz-adv-x="512" d="M300 1365 L498 1365 L466 1172 L264 911 L185 911 L356 1172 L268 1172 L300 1365 Z " />
<glyph glyph-name="uni02C9" unicode="&#x2c9;" horiz-adv-x="1024" d="M944 1236 L330 1236 L348 1345 L963 1345 L944 1236 Z " />
<glyph glyph-name="uni0387" unicode="&#x387;" horiz-adv-x="264" d="M225 390 L0 390 L38 619 L264 619 L225 390 Z " />
<glyph glyph-name="uni04D8" unicode="&#x4d8;" horiz-adv-x="1334" d="M119 684 L1075 684 Q1085 767 1085 822 Q1085 1013 1001 1134 Q917 1255 730 1255 Q547 1255 448 1121 Q413 1073 378 997 L220 1028 Q373 1393 750 1393 Q1014 1393 1146 1225 Q1265 1073 1265 809 Q1265 482 1105 239 Q929 -28 630 -28 Q472 -28 350 53 Q217 141 153 324 Q112 443 112 566 Q112 610 119 684 Z M288 539 Q291 389 340 291 Q386 198 469 151 Q542 109 629 109 Q855 109 980 349 Q1025 436 1051 539 L288 539 Z " />
<glyph glyph-name="afii10846" unicode="&#x4d9;" horiz-adv-x="1065" d="M127 778 Q185 872 243 923 Q375 1042 565 1042 Q732 1042 848 944 Q997 818 997 580 Q997 376 901 219 Q813 77 670 13 Q579 -27 474 -27 Q342 -27 243 35 Q72 143 72 406 Q72 457 81 522 L827 522 Q833 569 833 602 Q833 770 728 856 Q663 911 562 911 Q420 911 327 807 Q297 773 258 716 L127 778 Z M808 407 L232 407 Q229 373 229 359 Q229 242 295 170 Q366 93 482 93 Q651 93 752 257 Q791 321 808 407 Z " />
<glyph glyph-name="Wdieresis" unicode="&#x1e84;" horiz-adv-x="1663" d="M1215 0 L1046 0 L915 1088 L477 0 L300 0 L166 1365 L333 1365 L442 237 L903 1365 L1031 1365 L1171 237 L1627 1365 L1768 1365 L1215 0 Z M1139 1730 Q1181 1730 1211 1700 Q1242 1670 1242 1626 Q1242 1584 1213 1554 Q1182 1522 1138 1522 Q1095 1522 1064 1553 Q1034 1584 1034 1626 Q1034 1669 1064 1699 Q1095 1730 1139 1730 Z M819 1727 Q860 1727 890 1698 Q921 1669 921 1625 Q921 1583 891 1553 Q861 1522 818 1522 Q775 1522 744 1553 Q716 1583 716 1624 Q716 1667 745 1697 Q776 1727 819 1727 Z " />
<glyph glyph-name="uni2002" unicode="&#x2002;" horiz-adv-x="1024" d="" />
<glyph glyph-name="uni2004" unicode="&#x2004;" horiz-adv-x="601" d="" />
<glyph glyph-name="uni2007" unicode="&#x2007;" horiz-adv-x="1201" d="" />
<glyph glyph-name="uni2011" unicode="&#x2011;" horiz-adv-x="512" d="M475 452 L20 452 L39 568 L494 568 L475 452 Z " />
<glyph glyph-name="figuredash" unicode="&#x2012;" horiz-adv-x="1201" d="M996 452 L186 452 L205 568 L1015 568 L996 452 Z " />
<glyph glyph-name="afii00208" unicode="&#x2015;" horiz-adv-x="1365" d="M1353 452 L-6 452 L13 568 L1372 568 L1353 452 Z " />
<glyph glyph-name="underscoredbl" unicode="&#x2017;" horiz-adv-x="1024" d="M31 -115 L1055 -115 L1055 -215 L31 -215 L31 -115 Z M31 -354 L1055 -354 L1055 -454 L31 -454 L31 -354 Z " />
<glyph glyph-name="minute" unicode="&#x2032;" horiz-adv-x="364" d="M189 844 L96 844 L344 1365 L498 1365 L189 844 Z " />
<glyph glyph-name="second" unicode="&#x2033;" horiz-adv-x="633" d="M189 844 L96 844 L344 1365 L498 1365 L189 844 Z M485 844 L392 844 L640 1365 L794 1365 L485 844 Z " />
<glyph glyph-name="exclamdbl" unicode="&#x203c;" horiz-adv-x="1024" d="M403 1365 L403 999 L365 382 L277 382 L240 998 L240 1365 L403 1365 Z M405 239 L405 0 L237 0 L237 239 L405 239 Z M846 1365 L846 999 L808 382 L720 382 L683 998 L683 1365 L846 1365 Z M849 239 L849 0 L681 0 L681 239 L849 239 Z " />
<glyph glyph-name="uni203E" unicode="&#x203e;" horiz-adv-x="1024" d="M31 1769 L1055 1769 L1055 1631 L31 1631 L31 1769 Z " />
<glyph glyph-name="franc" unicode="&#x20a3;" horiz-adv-x="1201" d="M329 642 L221 0 L59 0 L287 1365 L1118 1365 L1094 1227 L427 1227 L351 777 L832 777 L810 642 L329 642 Z M875 0 L757 0 L859 612 L978 612 L958 502 Q998 560 1036 587 Q1094 629 1172 629 Q1187 629 1204 628 L1186 520 Q1160 521 1149 521 Q1027 521 959 374 Q926 302 899 141 L875 0 Z " />
<glyph glyph-name="lira" unicode="&#x20a4;" horiz-adv-x="1201" d="M163 471 L182 586 L409 586 Q411 634 412 703 L202 703 L221 818 L413 818 Q418 1016 479 1140 Q542 1266 669 1333 Q749 1375 842 1375 Q956 1375 1039 1315 Q1087 1280 1140 1202 L1016 1117 Q951 1243 839 1243 Q735 1243 665 1165 Q615 1108 600 1021 Q590 961 587 818 L885 818 L866 703 L586 703 Q584 642 581 586 L846 586 L827 471 L567 471 Q547 373 507 304 Q455 215 349 145 L405 145 L517 145 L636 145 Q760 145 808 152 Q856 159 901 185 Q955 215 1014 301 L1126 216 Q1052 105 977 59 Q900 11 806 4 Q745 0 637 0 L-59 0 L-35 145 Q118 147 167 163 Q255 190 318 263 Q378 334 395 423 Q398 440 401 471 L163 471 Z " />
<glyph glyph-name="peseta" unicode="&#x20a7;" horiz-adv-x="1828" d="M215 552 L122 0 L-40 0 L188 1365 L436 1365 Q563 1365 628 1353 Q763 1327 835 1230 Q917 1121 917 986 Q917 863 846 750 Q768 626 634 583 Q535 552 367 552 L215 552 Z M238 688 L302 688 Q475 688 531 700 Q625 721 677 783 Q747 870 747 985 Q747 1091 687 1162 Q629 1231 455 1231 Q450 1231 432 1231 L328 1229 L238 688 Z M1023 526 L970 209 Q962 159 962 135 Q962 76 1032 76 Q1062 76 1128 82 L1117 -5 Q1108 -6 1088 -8 Q1036 -13 1014 -13 Q845 -13 845 128 Q845 162 860 250 L906 526 L810 526 L825 612 L922 612 L946 756 L1064 766 L1038 612 L1181 612 L1167 526 L1023 526 Z M1730 474 L1631 434 Q1629 438 1620 457 Q1604 495 1556 519 Q1519 537 1471 537 Q1418 537 1387 510 Q1359 487 1359 452 Q1359 408 1399 391 Q1422 381 1481 368 L1520 359 Q1611 339 1651 311 Q1717 265 1717 182 Q1717 101 1653 47 Q1581 -15 1460 -15 Q1325 -15 1244 53 Q1201 89 1171 158 L1281 193 Q1303 138 1332 114 Q1382 73 1465 73 Q1544 73 1576 110 Q1598 136 1598 167 Q1598 207 1569 226 Q1547 241 1482 255 L1449 262 Q1351 284 1306 314 Q1238 359 1238 437 Q1238 516 1300 567 Q1367 623 1477 623 Q1671 623 1730 474 Z " />
<glyph glyph-name="afii61248" unicode="&#x2105;" horiz-adv-x="601" d="M333 789 Q376 789 406 756 Q432 727 432 688 Q432 643 399 613 Q370 587 331 587 Q286 587 256 620 Q230 649 230 689 Q230 732 263 763 Q292 789 333 789 Z " />
<glyph glyph-name="afii61289" unicode="&#x2113;" horiz-adv-x="1201" d="M644 550 Q579 216 579 127 Q579 74 616 74 Q669 74 719 186 Q735 222 757 222 Q784 222 784 194 Q784 147 730 70 Q661 -28 574 -28 Q515 -28 479 14 Q435 66 435 167 Q435 233 455 385 L458 412 Q381 334 356 334 Q346 334 338 344 Q329 354 329 366 Q329 387 371 422 Q414 459 473 528 Q548 918 639 1144 Q738 1389 874 1389 Q929 1389 964 1349 Q1003 1304 1003 1230 Q1003 1017 836 776 Q775 689 644 550 Z M667 682 Q761 785 818 886 Q922 1067 922 1219 Q922 1301 877 1301 Q837 1301 804 1240 Q748 1140 667 682 Z " />
<glyph glyph-name="oneeighth" unicode="&#x215b;" horiz-adv-x="1802" d="M695 547 L130 547 L145 638 L365 638 L464 1228 Q371 1147 216 1143 L232 1237 Q438 1263 520 1384 L603 1384 L478 638 L711 638 L695 547 Z M468 0 L339 0 L1391 1365 L1521 1365 L468 0 Z M1567 437 Q1608 417 1634 400 Q1677 372 1702 324 Q1725 281 1725 234 Q1725 145 1661 79 Q1570 -16 1397 -16 Q1260 -16 1166 48 Q1079 107 1079 209 Q1079 365 1286 426 Q1164 492 1164 607 Q1164 708 1244 772 Q1327 837 1460 837 Q1582 837 1664 779 Q1740 725 1740 637 Q1740 554 1678 498 Q1646 469 1567 437 Z M1445 480 Q1513 501 1559 526 Q1629 564 1629 624 Q1629 679 1587 711 Q1536 750 1454 750 Q1383 750 1334 720 Q1279 687 1279 624 Q1279 568 1339 528 Q1368 508 1408 492 Q1443 479 1445 480 Z M1408 380 Q1193 329 1193 215 Q1193 139 1267 101 Q1322 74 1401 74 Q1499 74 1557 118 Q1607 156 1607 216 Q1607 287 1524 332 Q1500 346 1408 380 Z " />
<glyph glyph-name="threeeighths" unicode="&#x215c;" horiz-adv-x="1802" d="M66 738 L163 773 Q236 619 389 619 Q489 619 546 679 Q586 723 586 780 Q586 850 531 892 Q488 925 377 927 Q354 927 295 927 L311 1021 Q377 1019 398 1019 Q485 1019 534 1036 Q576 1051 603 1091 Q624 1123 624 1161 Q624 1224 570 1263 Q523 1297 459 1297 Q385 1297 330 1253 Q297 1226 265 1166 L175 1213 Q273 1384 464 1384 Q589 1384 666 1317 Q740 1253 740 1163 Q740 1088 687 1032 Q654 999 568 970 Q605 957 633 932 Q704 870 704 777 Q704 664 601 588 Q517 526 393 526 Q245 526 147 614 Q95 661 66 738 Z M469 0 L340 0 L1392 1365 L1522 1365 L469 0 Z M1568 437 Q1609 417 1635 400 Q1678 372 1703 324 Q1726 281 1726 234 Q1726 145 1662 79 Q1571 -16 1398 -16 Q1261 -16 1167 48 Q1080 107 1080 209 Q1080 365 1287 426 Q1165 492 1165 607 Q1165 708 1245 772 Q1328 837 1461 837 Q1583 837 1665 779 Q1741 725 1741 637 Q1741 554 1679 498 Q1647 469 1568 437 Z M1446 480 Q1514 501 1560 526 Q1630 564 1630 624 Q1630 679 1588 711 Q1537 750 1455 750 Q1384 750 1335 720 Q1280 687 1280 624 Q1280 568 1340 528 Q1369 508 1409 492 Q1444 479 1446 480 Z M1409 380 Q1194 329 1194 215 Q1194 139 1268 101 Q1323 74 1402 74 Q1500 74 1558 118 Q1608 156 1608 216 Q1608 287 1525 332 Q1500 346 1409 380 Z " />
<glyph glyph-name="fiveeighths" unicode="&#x215d;" horiz-adv-x="1802" d="M81 725 L175 766 Q209 708 236 683 Q299 623 392 623 Q508 623 567 706 Q607 763 607 829 Q607 912 549 966 Q497 1014 419 1014 Q310 1014 240 903 L140 932 L240 1365 L751 1365 L718 1267 L317 1267 L264 1031 Q313 1077 352 1090 Q394 1104 440 1104 Q562 1104 646 1020 Q723 943 723 834 Q723 705 623 613 Q535 532 393 532 Q260 532 166 610 Q114 653 81 725 Z M468 0 L339 0 L1390 1365 L1521 1365 L468 0 Z M1567 437 Q1608 417 1634 400 Q1677 372 1702 324 Q1725 281 1725 234 Q1725 145 1661 79 Q1570 -16 1397 -16 Q1260 -16 1166 48 Q1079 107 1079 209 Q1079 365 1285 426 Q1164 492 1164 607 Q1164 708 1244 772 Q1327 837 1460 837 Q1582 837 1664 779 Q1740 725 1740 637 Q1740 554 1678 498 Q1646 470 1567 437 Z M1445 480 Q1513 501 1559 526 Q1629 564 1629 624 Q1629 679 1587 711 Q1536 750 1454 750 Q1383 750 1334 720 Q1279 687 1279 624 Q1279 568 1339 528 Q1368 508 1408 492 Q1443 479 1445 480 Z M1408 380 Q1193 329 1193 215 Q1193 139 1267 101 Q1322 74 1401 74 Q1499 74 1557 118 Q1607 156 1607 216 Q1607 287 1524 332 Q1499 346 1408 380 Z " />
<glyph glyph-name="seveneighths" unicode="&#x215e;" horiz-adv-x="1802" d="M370 537 L244 537 Q265 775 385 974 Q476 1123 640 1264 L170 1264 L202 1365 L793 1365 L781 1290 Q569 1093 485 941 Q386 761 370 537 Z M400 0 L271 0 L1322 1365 L1453 1365 L400 0 Z M1567 437 Q1608 417 1634 400 Q1677 372 1702 324 Q1725 281 1725 234 Q1725 145 1661 79 Q1570 -16 1397 -16 Q1260 -16 1166 48 Q1079 107 1079 209 Q1079 365 1285 426 Q1164 492 1164 607 Q1164 708 1244 772 Q1327 837 1460 837 Q1582 837 1664 779 Q1740 725 1740 637 Q1740 554 1678 498 Q1646 470 1567 437 Z M1445 480 Q1513 501 1559 526 Q1629 564 1629 624 Q1629 679 1587 711 Q1536 750 1454 750 Q1383 750 1334 720 Q1279 687 1279 624 Q1279 568 1339 528 Q1368 508 1408 492 Q1443 479 1445 480 Z M1408 380 Q1193 329 1193 215 Q1193 139 1267 101 Q1322 74 1401 74 Q1499 74 1557 118 Q1607 156 1607 216 Q1607 287 1524 332 Q1499 346 1408 380 Z " />
<glyph glyph-name="arrowleft" unicode="&#x2190;" horiz-adv-x="1365" d="M1338 636 L314 636 Q421 477 421 424 Q421 395 391 395 Q374 395 344 429 Q245 544 73 641 Q45 656 39 661 Q26 671 26 689 Q26 701 33 710 Q40 717 89 745 Q240 828 344 947 Q374 981 391 981 Q421 981 421 953 Q421 901 314 740 L1338 740 L1338 636 Z " />
<glyph glyph-name="arrowup" unicode="&#x2191;" horiz-adv-x="1365" d="M630 0 L630 1022 Q471 916 418 916 Q389 916 389 946 Q389 963 423 993 Q539 1093 635 1264 Q650 1292 655 1298 Q666 1311 683 1311 Q695 1311 704 1304 Q712 1297 739 1248 Q821 1099 941 993 Q975 963 975 946 Q975 916 947 916 Q894 916 734 1022 L734 0 L630 0 Z " />
<glyph glyph-name="arrowright" unicode="&#x2192;" horiz-adv-x="1365" d="M27 740 L1051 740 Q944 899 944 952 Q944 981 974 981 Q991 981 1021 947 Q1118 834 1292 735 Q1320 720 1326 715 Q1339 705 1339 687 Q1339 675 1332 666 Q1325 659 1275 631 Q1126 548 1021 429 Q991 395 974 395 Q944 395 944 423 Q944 475 1051 636 L27 636 L27 740 Z " />
<glyph glyph-name="arrowdown" unicode="&#x2193;" horiz-adv-x="1365" d="M735 1290 L735 268 Q896 374 947 374 Q976 374 976 344 Q976 327 942 297 Q827 199 730 26 Q713 -5 705 -12.5 Q697 -20 682 -20 Q670 -20 661 -13 Q653 -6 626 43 Q544 193 424 297 Q390 327 390 344 Q390 374 418 374 Q469 374 631 268 L631 1290 L735 1290 Z " />
<glyph glyph-name="arrowboth" unicode="&#x2194;" horiz-adv-x="1365" d="M1051 636 L314 636 Q421 477 421 424 Q421 395 391 395 Q374 395 344 429 Q245 544 73 641 Q45 656 39 661 Q26 671 26 689 Q26 701 33 710 Q40 717 89 745 Q240 828 344 947 Q374 981 391 981 Q421 981 421 953 Q421 901 314 740 L1051 740 Q944 900 944 952 Q944 981 974 981 Q991 981 1021 947 Q1119 834 1292 735 Q1320 720 1326 715 Q1339 705 1339 687 Q1339 675 1332 666 Q1325 659 1276 631 Q1126 548 1021 429 Q991 395 974 395 Q944 395 944 423 Q944 475 1051 636 Z " />
<glyph glyph-name="arrowupdn" unicode="&#x2195;" horiz-adv-x="1365" d="M630 269 L630 1022 Q471 916 418 916 Q389 916 389 946 Q389 963 423 993 Q538 1092 635 1264 Q650 1292 655 1298 Q665 1311 683 1311 Q695 1311 704 1304 Q711 1297 739 1248 Q821 1098 941 993 Q975 963 975 946 Q975 916 947 916 Q895 916 735 1021 L735 268 Q895 375 947 375 Q976 375 976 345 Q976 328 942 298 Q827 199 730 27 Q712 -5 704.5 -12.5 Q697 -20 682 -20 Q670 -20 661 -13 Q654 -6 626 44 Q544 193 424 298 Q390 328 390 345 Q390 375 418 375 Q469 375 630 269 Z " />
<glyph glyph-name="arrowupdnbse" unicode="&#x21a8;" horiz-adv-x="1365" d="M410 -139 L955 -139 L955 -227 L410 -227 L410 -139 Z M630 269 L630 1022 Q471 916 418 916 Q389 916 389 946 Q389 963 423 993 Q538 1092 635 1264 Q650 1292 655 1298 Q665 1311 683 1311 Q695 1311 704 1304 Q711 1297 739 1248 Q821 1098 941 993 Q975 963 975 946 Q975 916 947 916 Q895 916 735 1021 L735 268 Q895 375 947 375 Q976 375 976 345 Q976 328 942 298 Q827 199 730 27 Q712 -5 704.5 -12.5 Q697 -20 682 -20 Q670 -20 661 -13 Q654 -6 626 44 Q544 193 424 298 Q390 328 390 345 Q390 375 418 375 Q469 375 630 269 Z " />
<glyph glyph-name="minus" unicode="&#x2212;" horiz-adv-x="1201" d="M153 753 L1109 753 L1109 615 L153 615 L153 753 Z " />
<glyph glyph-name="uni2218" unicode="&#x2218;" horiz-adv-x="1024" d="M550 982 Q663 982 745 899 Q828 815 828 696 Q828 577 745 493 Q663 410 547 410 Q430 410 348 493 Q265 577 265 695 Q265 817 348 899 Q432 982 550 982 Z M549 885 Q471 885 416 830 Q361 775 361 696 Q361 617 416 562 Q470 507 547 507 Q623 507 677 562 Q732 617 732 696 Q732 777 677 830 Q621 885 549 885 Z " />
<glyph glyph-name="intersection" unicode="&#x2229;" horiz-adv-x="1201" d="M1135 0 L982 0 L982 582 Q982 871 951 955 Q918 1043 838 1101 Q744 1169 631 1169 Q477 1169 374 1057 Q311 988 293 858 Q281 773 281 582 L281 0 L128 0 L128 576 Q128 811 141 897 Q163 1049 252 1147 Q320 1222 417 1264 Q518 1307 631 1307 Q846 1307 990 1168 Q1076 1085 1102 990 Q1131 888 1134 753 Q1135 678 1135 576 L1135 0 Z " />
<glyph glyph-name="uni2243" unicode="&#x2243;" horiz-adv-x="1201" d="M157 604 L1044 604 L1044 465 L157 465 L157 604 Z M108 762 Q163 879 223 937 Q289 1000 388 1000 Q474 1000 618 931 Q751 867 816 867 Q882 867 927 908 Q963 940 1001 1004 L1093 949 Q1034 838 978 785 Q947 755 894 735 Q850 718 810 718 Q746 718 670 749 Q620 769 557 799 Q446 852 376 852 Q317 852 273 810 Q239 776 198 704 L108 762 Z " />
<glyph glyph-name="equivalence" unicode="&#x2261;" horiz-adv-x="1201" d="M188 1064 L1075 1064 L1075 925 L188 925 L188 1064 Z M188 764 L1075 764 L1075 625 L188 625 L188 764 Z M188 464 L1075 464 L1075 325 L188 325 L188 464 Z " />
<glyph glyph-name="dotmath" unicode="&#x22c5;" horiz-adv-x="264" d="M225 390 L0 390 L38 619 L264 619 L225 390 Z " />
<glyph glyph-name="house" unicode="&#x2302;" horiz-adv-x="1365" d="M86 0 L86 821 L683 1493 L1280 821 L1280 0 L86 0 Z M216 123 L1150 123 L1150 783 L683 1322 L216 783 L216 123 Z " />
<glyph glyph-name="revlogicalnot" unicode="&#x2310;" horiz-adv-x="1201" d="M1076 546 L1076 510 L971 408 L341 408 L341 0 L188 0 L188 546 L1076 546 Z " />
<glyph glyph-name="integraltp" unicode="&#x2320;" horiz-adv-x="1201" d="M919 1378 Q866 1399 826 1399 Q755 1399 730 1352 Q715 1323 713 1281 Q710 1227 710 1151 L710 -394 L593 -512 L554 -512 L554 1133 Q554 1294 563 1343 Q599 1536 812 1536 Q870 1536 953 1514 L919 1378 Z " />
<glyph glyph-name="integralbt" unicode="&#x2321;" horiz-adv-x="1201" d="M344 -354 Q398 -375 438 -375 Q509 -375 534 -328 Q549 -299 551 -257 Q554 -204 554 -127 L554 1418 L670 1536 L710 1536 L710 -108 Q710 -270 701 -319 Q664 -512 451 -512 Q394 -512 311 -490 L344 -354 Z " />
<glyph glyph-name="filledbox" unicode="&#x25a0;" horiz-adv-x="1365" d="M1222 0 L212 0 L212 1365 L1222 1365 L1222 0 Z " />
<glyph glyph-name="uni25A1" unicode="&#x25a1;" horiz-adv-x="1365" d="M1222 0 L212 0 L212 1365 L1222 1365 L1222 0 Z M1126 96 L1126 1269 L308 1269 L308 96 L1126 96 Z " />
<glyph glyph-name="filledrect" unicode="&#x25ac;" horiz-adv-x="1365" d="M1399 887 L1399 518 L34 518 L34 887 L1399 887 Z " />
<glyph glyph-name="uni25B4" unicode="&#x25b4;" horiz-adv-x="1024" d="M955 300 L68 300 L512 1130 L955 300 Z " />
<glyph glyph-name="uni25B8" unicode="&#x25b8;" horiz-adv-x="1024" d="M146 243 L146 1130 L976 687 L146 243 Z " />
<glyph glyph-name="uni25BE" unicode="&#x25be;" horiz-adv-x="1024" d="M68 1065 L955 1065 L512 235 L68 1065 Z " />
<glyph glyph-name="uni25C2" unicode="&#x25c2;" horiz-adv-x="1024" d="M878 243 L48 687 L878 1130 L878 243 Z " />
<glyph glyph-name="circle" unicode="&#x25cb;" horiz-adv-x="1365" d="M716 1221 Q938 1221 1096 1065 Q1250 912 1250 690 Q1250 551 1173 425 Q1094 298 960 230 Q845 172 717 172 Q495 172 338 328 Q184 482 184 696 Q184 841 261 968 Q337 1093 474 1163 Q588 1221 716 1221 Z M716 1127 Q537 1127 407 1000 Q280 876 280 696 Q280 518 407 393 Q536 266 717 266 Q898 266 1027 393 Q1154 518 1154 691 Q1154 878 1027 1000 Q895 1127 716 1127 Z " />
<glyph glyph-name="H18533" unicode="&#x25cf;" horiz-adv-x="1365" d="M682 1207 Q904 1207 1062 1051 Q1216 898 1216 676 Q1216 537 1139 411 Q1060 284 926 216 Q811 158 683 158 Q461 158 304 314 Q150 468 150 683 Q150 827 227 954 Q303 1079 440 1149 Q554 1207 682 1207 Z " />
<glyph glyph-name="invbullet" unicode="&#x25d8;" horiz-adv-x="1365" d="M1222 0 L212 0 L212 1365 L1222 1365 L1222 0 Z M721 969 Q601 969 519 886 Q436 802 436 682 Q436 563 519 479 Q601 396 717 396 Q833 396 915 479 Q998 564 998 683 Q998 804 915 886 Q831 969 721 969 Z " />
<glyph glyph-name="invcircle" unicode="&#x25d9;" horiz-adv-x="1365" d="M712 1067 Q870 1067 983 955 Q1094 845 1094 681 Q1094 528 983 417 Q871 305 713 305 Q555 305 443 417 Q332 528 332 686 Q332 847 443 955 Q558 1067 712 1067 Z M1399 0 L34 0 L34 1365 L1399 1365 L1399 0 Z M715 1164 Q513 1164 369 1020 Q227 880 227 683 Q227 486 369 345 Q512 201 716 201 Q921 201 1065 345 Q1132 412 1169 501 Q1206 589 1206 677 Q1206 883 1065 1020 Q917 1164 715 1164 Z " />
<glyph glyph-name="openbullet" unicode="&#x25e6;" horiz-adv-x="1024" d="M550 982 Q663 982 745 899 Q828 815 828 696 Q828 577 745 493 Q663 410 547 410 Q430 410 348 493 Q265 577 265 695 Q265 817 348 899 Q432 982 550 982 Z M549 885 Q471 885 416 830 Q361 775 361 696 Q361 617 416 562 Q470 507 547 507 Q623 507 677 562 Q732 617 732 696 Q732 777 677 830 Q621 885 549 885 Z " />
<glyph glyph-name="smileface" unicode="&#x263a;" horiz-adv-x="1365" d="M491 954 Q527 954 554 928 Q580 901 580 864 Q580 827 554 800 Q527 774 490 774 Q453 774 427 800 Q400 827 400 864 Q400 902 427 928 Q454 954 491 954 Z M876 954 Q912 954 939 928 Q965 901 965 864 Q965 827 939 800 Q912 774 875 774 Q838 774 812 800 Q785 827 785 864 Q785 902 812 928 Q839 954 876 954 Z M262 762 Q287 653 347 580 Q467 436 684 436 Q901 436 1021 580 Q1080 653 1106 762 Q1089 537 1003 431 Q886 288 684 288 Q461 288 346 457 Q277 558 262 762 Z M691 1331 Q951 1331 1140 1142 Q1232 1050 1282 930 Q1331 810 1331 682 Q1331 501 1235 344 Q1138 185 975 103 Q839 34 683 34 Q413 34 225 223 Q133 315 84 435 Q34 555 34 681 Q34 864 130 1021 Q224 1178 390 1262 Q525 1331 691 1331 Z M690 1246 Q449 1246 285 1082 Q119 916 119 681 Q119 450 285 283 Q448 119 683 119 Q917 119 1080 283 Q1246 450 1246 682 Q1246 840 1163 977 Q1081 1112 937 1186 Q819 1246 690 1246 Z " />
<glyph glyph-name="invsmileface" unicode="&#x263b;" horiz-adv-x="1365" d="M691 1331 Q951 1331 1140 1142 Q1232 1050 1282 930 Q1331 810 1331 682 Q1331 501 1235 344 Q1138 185 975 103 Q839 34 683 34 Q413 34 225 223 Q133 315 84 435 Q34 555 34 681 Q34 864 130 1021 Q224 1178 390 1262 Q525 1331 691 1331 Z M491 953 Q453 953 427 927 Q400 900 400 863 Q400 826 427 799 Q453 773 490 773 Q527 773 554 799 Q580 826 580 863 Q580 901 554 927 Q526 953 491 953 Z M876 953 Q838 953 812 927 Q785 900 785 863 Q785 826 812 799 Q838 773 875 773 Q912 773 939 799 Q965 826 965 863 Q965 901 939 927 Q911 953 876 953 Z M262 761 Q278 537 365 431 Q482 288 684 288 Q907 288 1022 457 Q1091 558 1106 761 Q1080 652 1021 580 Q901 436 684 436 Q467 436 347 580 Q287 652 262 761 Z " />
<glyph glyph-name="sun" unicode="&#x263c;" horiz-adv-x="1365" d="M326 968 L173 1120 L245 1192 L399 1039 Q503 1120 631 1137 L631 1352 L734 1352 L734 1136 Q867 1118 967 1040 L1120 1192 L1192 1120 L1039 968 Q1117 867 1135 736 L1351 736 L1351 631 L1135 631 Q1118 499 1039 398 L1192 245 L1120 173 L967 326 Q864 247 734 229 L734 14 L631 14 L631 230 Q512 243 398 325 L245 173 L173 245 L325 397 Q246 499 231 631 L15 631 L15 736 L230 736 Q248 865 326 968 Z M688 1010 Q538 1010 440 902 Q356 809 356 686 Q356 538 464 440 Q557 356 683 356 Q828 356 925 464 Q1009 558 1009 684 Q1009 827 901 926 Q809 1010 688 1010 Z " />
<glyph glyph-name="female" unicode="&#x2640;" horiz-adv-x="1365" d="M732 0 L634 0 L634 341 L302 341 L302 429 L634 429 L634 645 Q541 659 468 712 Q395 764 355 845 Q314 925 314 1015 Q314 1171 424 1281 Q532 1389 683 1389 Q834 1389 942 1281 Q1052 1171 1052 1015 Q1052 893 981 794 Q890 669 732 645 L732 429 L1064 429 L1064 341 L732 341 L732 0 Z M683 1278 Q577 1278 501 1202 Q425 1125 425 1018 Q425 905 501 828 Q577 752 684 752 Q789 752 865 828 Q941 905 941 1015 Q941 1127 865 1202 Q787 1278 683 1278 Z " />
<glyph glyph-name="male" unicode="&#x2642;" horiz-adv-x="1365" d="M789 781 L1099 1091 Q1017 1110 906 1161 Q838 1192 838 1219 Q838 1245 866 1245 Q877 1245 907 1239 Q994 1222 1077 1222 Q1190 1222 1292 1249 Q1303 1252 1312 1252 Q1333 1252 1333 1229 Q1333 1219 1324 1185 Q1300 1095 1300 1006 Q1300 905 1319 833 Q1327 804 1327 793 Q1327 765 1300 765 Q1269 765 1224 856 Q1184 936 1167 1023 L856 712 Q928 609 928 489 Q928 333 819 223 Q711 115 560 115 Q408 115 300 223 Q191 333 191 489 Q191 645 300 755 Q408 863 559 863 Q682 863 789 781 Z M560 752 Q454 752 378 676 Q302 599 302 492 Q302 379 378 302 Q454 226 560 226 Q665 226 741 302 Q817 379 817 489 Q817 601 741 676 Q663 752 560 752 Z " />
<glyph glyph-name="spade" unicode="&#x2660;" horiz-adv-x="1365" d="M1148 0 L216 0 L216 38 Q399 71 474 123 Q660 251 669 522 Q639 452 599 410 Q508 313 382 313 Q280 313 207 384 Q130 460 130 571 Q130 691 233 809 Q275 857 388 951 Q524 1064 602 1193 Q655 1281 682 1404 Q711 1270 776 1172 Q853 1054 977 951 Q1105 843 1152 785 Q1235 680 1235 571 Q1235 460 1158 384 Q1085 313 983 313 Q901 313 825 361 Q743 412 696 522 Q701 361 768 254 Q855 111 1022 65 Q1072 52 1148 38 L1148 0 Z " />
<glyph glyph-name="club" unicode="&#x2663;" horiz-adv-x="1365" d="M1149 0 L217 0 L217 38 Q343 61 409 88 Q522 134 597 253 Q664 361 669 561 Q522 300 306 300 Q180 300 93 391 Q6 481 6 611 Q6 735 82 822 Q161 912 275 912 Q331 912 397 881 Q409 876 452 854 Q380 962 380 1057 Q380 1180 470 1266 Q559 1351 683 1351 Q807 1351 896 1266 Q986 1180 986 1057 Q986 962 913 854 Q963 879 981 887 Q1036 912 1090 912 Q1205 912 1284 822 Q1360 735 1360 611 Q1360 481 1273 391 Q1185 300 1060 300 Q844 300 697 561 Q700 432 724 350 Q760 231 863 145 Q940 81 1091 49 Q1108 45 1149 38 L1149 0 Z " />
<glyph glyph-name="heart" unicode="&#x2665;" horiz-adv-x="1365" d="M683 -22 Q648 113 585 223 Q512 349 419 474 L301 634 Q210 757 175 820 Q115 930 115 1031 Q115 1151 194 1231 Q269 1308 380 1308 Q503 1308 591 1215 Q646 1156 683 1043 Q719 1172 792 1237 Q874 1311 980 1311 Q1099 1311 1178 1226 Q1251 1146 1251 1031 Q1251 906 1152 746 Q1118 689 972 500 Q864 361 809 268 Q718 113 683 -22 Z " />
<glyph glyph-name="diamond" unicode="&#x2666;" horiz-adv-x="1365" d="M163 683 Q432 987 683 1419 Q933 987 1202 683 Q933 378 683 -53 Q432 378 163 683 Z " />
<glyph glyph-name="musicalnote" unicode="&#x266a;" horiz-adv-x="1365" d="M626 1365 L719 1365 L719 1241 Q744 1208 856 1074 Q1042 852 1042 615 Q1042 423 926 282 L868 282 Q935 440 935 578 Q935 776 819 888 Q771 934 719 942 L719 333 Q719 195 661 112 Q610 39 526 5 Q470 -18 413 -18 Q334 -18 296 26 Q268 58 268 106 Q268 180 321 247 Q395 342 517 342 Q574 342 626 319 L626 1365 Z " />
<glyph glyph-name="uni266C" unicode="&#x266c;" horiz-adv-x="1365" d="M399 1202 L1261 1422 L1261 407 Q1261 269 1203 186 Q1152 113 1068 79 Q1012 56 954 56 Q876 56 837 100 Q809 132 809 180 Q809 254 862 321 Q937 416 1059 416 Q1115 416 1168 393 L1168 947 L492 762 L492 292 Q492 154 434 71 Q383 -2 299 -36 Q243 -59 186 -59 Q107 -59 69 -16 Q41 17 41 65 Q41 139 94 206 Q168 301 290 301 Q345 301 399 279 L399 1202 Z M492 918 L1168 1103 L1168 1245 L492 1060 L492 918 Z " />
</font>
</svg>
