<?xml version="1.0" encoding="UTF-8"?>
<svg width="192px" height="60px" viewBox="0 0 192 60" version="1.1" xmlns="http://www.w3.org/2000/svg" xmlns:xlink="http://www.w3.org/1999/xlink">
    <!-- Generator: Sketch 52.2 (67145) - http://www.bohemiancoding.com/sketch -->
    <title>Group 35 Copy</title>
    <desc>Created with Sketch.</desc>
    <g id="Final" stroke="none" stroke-width="1" fill="none" fill-rule="evenodd">
        <g id="Desktop-(max-width:-1600px)" transform="translate(-30.000000, -57.000000)">
            <g id="Group-35-Copy" transform="translate(30.000000, 57.000000)">
                <path d="M34.5924462,52.3447939 C34.4955195,51.5088602 34.3554448,50.8021049 33.55877,50.8021049 C32.5819991,50.8021049 32.3443724,51.7976486 32.3443724,53.5136107 C32.3443724,54.1470821 32.3443724,55.8791915 33.55877,55.8791915 C34.4392395,55.8791915 34.5367915,54.9414055 34.5924462,54.3365024 L35.9606758,54.467544 C35.8493664,55.3450882 35.6123651,57.0927239 33.4474606,57.0927239 C31.2131442,57.0927239 30.8504508,54.8855109 30.8504508,53.3825691 C30.8504508,51.7268488 31.2969389,49.6332881 33.5450127,49.6332881 C35.5973571,49.6332881 35.8624984,51.4368183 35.9606758,52.2019524 L34.5924462,52.3447939 Z" id="Fill-1" fill="#062942"></path>
                <polygon id="Clip-4" points="0 59.5437612 191.420199 59.5437612 191.420199 -6.21050349e-05 0 -6.21050349e-05"></polygon>
                <polygon id="Fill-3" fill="#062942" points="36.9653365 56.9173392 38.3898461 56.9173392 38.3898461 47.2966483 36.9653365 47.2966483"></polygon>
                <path d="M40.7669887,53.3697133 C40.7669887,55.2303802 41.1715795,55.9787459 41.9682543,55.9787459 C42.7636785,55.9787459 43.1682692,55.2583274 43.1682692,53.3560502 C43.1682692,51.5245727 42.7774358,50.7432914 41.9682543,50.7432914 C41.1015421,50.7432914 40.7669887,51.638846 40.7669887,53.3697133 M44.6759482,53.2821452 C44.6759482,54.9409707 44.2994974,57.0922891 41.9532463,57.0922891 C39.8171072,57.0922891 39.2593098,55.2024329 39.2593098,53.3560502 C39.2593098,51.638846 39.7195552,49.6328534 41.9813863,49.6328534 C44.1325334,49.6328534 44.6759482,51.5506569 44.6759482,53.2821452" id="Fill-5" fill="#062942"></path>
                <path d="M46.9696713,49.8060022 L46.9696713,54.3204172 C46.9696713,55.3184451 46.9696713,55.9072009 47.7663461,55.9072009 C48.9107063,55.9072009 48.9107063,54.5384059 48.9107063,53.2255054 L48.9107063,49.8060022 L50.3358413,49.8060022 L50.3358413,56.9170287 L49.022641,56.9170287 L49.022641,55.8488221 C48.773133,56.3711255 48.4223209,57.0921649 47.27671,57.0921649 C45.5464123,57.0921649 45.5464123,55.5333285 45.5464123,54.3502276 L45.5464123,49.8060022 L46.9696713,49.8060022 Z" id="Fill-6" fill="#062942"></path>
                <path d="M55.1966833,52.7347515 C55.1966833,52.2739321 55.1966833,51.8131127 54.9034019,51.3504302 C54.7501952,51.1187784 54.4425311,50.7585692 53.9553964,50.7585692 C52.9067122,50.7585692 52.7672628,52.1286063 52.7672628,53.2682337 C52.7672628,54.4817661 52.8923295,55.9368871 53.9685284,55.9368871 C54.3731191,55.9368871 54.6932898,55.7083405 54.9034019,55.3754575 C55.0847486,55.0872902 55.1966833,54.739502 55.1966833,53.9619469 L55.1966833,52.7347515 Z M56.6068102,47.2962136 L56.6068102,56.9169045 L55.2948606,56.9169045 L55.2948606,55.8362769 C55.1128886,56.2542438 54.7633272,57.0479461 53.562687,57.0479461 C51.6222772,57.0479461 51.2589585,54.7693124 51.2589585,53.3974122 C51.2589585,50.9610317 52.2507374,49.6766995 53.618967,49.6766995 C54.6932898,49.6766995 55.0290939,50.3107919 55.1966833,50.6275276 L55.1966833,47.2962136 L56.6068102,47.2962136 Z" id="Fill-7" fill="#062942"></path>
                <path d="M63.3968685,53.4425004 C63.1755004,53.4275952 63.0760724,53.4275952 62.9778951,53.4275952 C61.3301414,53.4275952 61.1219054,54.2784342 61.1219054,54.9410949 C61.1219054,55.793176 61.5677681,56.0093015 62.0430215,56.0093015 C62.6445923,56.0093015 63.3968685,55.3752091 63.3968685,53.8014675 L63.3968685,53.4425004 Z M59.8918745,51.6389702 C60.2132959,49.8062506 61.8479175,49.6329776 62.4907603,49.6329776 C63.4812885,49.6329776 64.0666006,50.008092 64.3892727,50.3981116 C64.8213781,50.8893625 64.8213781,51.7687697 64.8213781,52.5314196 L64.8213781,54.9410949 C64.8213781,55.545998 64.8213781,56.4285105 64.9339381,56.9172771 L63.6063552,56.9172771 C63.5388192,56.5719731 63.5100538,56.4005632 63.5100538,55.7347973 C63.2449124,56.2403323 62.7971737,57.0924133 61.5677681,57.0924133 C60.4521732,57.0924133 59.6404904,56.3558476 59.6404904,55.0435682 C59.6404904,53.9045619 60.2414359,53.1096174 61.065,52.8214501 C61.6521881,52.6196087 62.4069656,52.5034723 63.3968685,52.5314196 L63.3968685,52.2432522 C63.3968685,51.7265383 63.3968685,50.7136052 62.3775749,50.7136052 C61.4714668,50.7136052 61.3163841,51.524697 61.2626054,51.8277695 L59.8918745,51.6389702 Z" id="Fill-8" fill="#062942"></path>
                <path d="M69.4834891,52.3447939 C69.3853118,51.5088602 69.2452371,50.8021049 68.4504383,50.8021049 C67.4717914,50.8021049 67.2354153,51.7976486 67.2354153,53.5136107 C67.2354153,54.1470821 67.2354153,55.8791915 68.4504383,55.8791915 C69.3296571,55.8791915 69.4278344,54.9414055 69.4834891,54.3365024 L70.8517187,54.467544 C70.7404094,55.3450882 70.5040333,57.0927239 68.3391289,57.0927239 C66.1041871,57.0927239 65.7421191,54.8855109 65.7421191,53.3825691 C65.7421191,51.7268488 66.1873565,49.6332881 68.4360556,49.6332881 C70.4896506,49.6332881 70.754792,51.4368183 70.8517187,52.2019524 L69.4834891,52.3447939 Z" id="Fill-9" fill="#062942"></path>
                <path d="M75.3856989,52.3447939 C75.2856456,51.5088602 75.1474469,50.8021049 74.3507721,50.8021049 C73.3740012,50.8021049 73.1363745,51.7976486 73.1363745,53.5136107 C73.1363745,54.1470821 73.1363745,55.8791915 74.3507721,55.8791915 C75.2299909,55.8791915 75.3281683,54.9414055 75.3856989,54.3365024 L76.7514272,54.467544 C76.6432445,55.3450882 76.4031165,57.0927239 74.2394627,57.0927239 C72.0038956,57.0927239 71.6424529,54.8855109 71.6424529,53.3825691 C71.6424529,51.7268488 72.088941,49.6332881 74.3363894,49.6332881 C76.3899845,49.6332881 76.6557512,51.4368183 76.7514272,52.2019524 L75.3856989,52.3447939 Z" id="Fill-10" fill="#062942"></path>
                <path d="M79.0992417,53.3697133 C79.0992417,55.2303802 79.5032071,55.9787459 80.2986312,55.9787459 C81.0959314,55.9787459 81.5005221,55.2583274 81.5005221,53.3560502 C81.5005221,51.5245727 81.110314,50.7432914 80.2986312,50.7432914 C79.4331697,50.7432914 79.0992417,51.638846 79.0992417,53.3697133 M83.0088264,53.2821452 C83.0088264,54.9409707 82.6323757,57.0922891 80.2848739,57.0922891 C78.1493601,57.0922891 77.5909374,55.2024329 77.5909374,53.3560502 C77.5909374,51.638846 78.0511828,49.6328534 80.3111379,49.6328534 C82.464161,49.6328534 83.0088264,51.5506569 83.0088264,53.2821452" id="Fill-11" fill="#062942"></path>
                <path d="M85.3360674,49.8060022 L85.3360674,54.3204172 C85.3360674,55.3184451 85.3360674,55.9072009 86.1308662,55.9072009 C87.2764771,55.9072009 87.2764771,54.5384059 87.2764771,53.2255054 L87.2764771,49.8060022 L88.7016121,49.8060022 L88.7016121,56.9170287 L87.3871611,56.9170287 L87.3871611,55.8488221 C87.1357771,56.3711255 86.786841,57.0921649 85.6406048,57.0921649 C83.9121831,57.0921649 83.9121831,55.5333285 83.9121831,54.3502276 L83.9121831,49.8060022 L85.3360674,49.8060022 Z" id="Fill-12" fill="#062942"></path>
                <path d="M89.7951952,49.8060022 L91.1102715,49.8060022 L91.1102715,50.9033982 C91.2759848,50.5152417 91.6255462,49.6333502 92.8111785,49.6333502 C93.2576665,49.6333502 93.9699214,49.7476235 94.3476228,50.5152417 C94.5721175,50.9605348 94.5846241,51.6238166 94.5846241,52.3305719 L94.5846241,56.9170287 L93.1626159,56.9170287 L93.1626159,52.418761 C93.1626159,51.4952592 93.1626159,50.8170722 92.3365504,50.8170722 C91.2190795,50.8170722 91.2190795,52.2013934 91.2190795,52.9379591 L91.2190795,56.9170287 L89.7951952,56.9170287 L89.7951952,49.8060022 Z" id="Fill-13" fill="#062942"></path>
                <path d="M98.8130664,50.9910905 L97.4979902,50.9910905 L97.4979902,54.1336053 C97.4979902,55.375706 97.4979902,55.8489463 98.4478717,55.8489463 C98.6998811,55.8489463 98.8687211,55.8222412 99.0344345,55.8060939 L99.0344345,56.9631107 C98.7555357,57.0190052 98.435365,57.0922891 97.9744943,57.0922891 C96.1009952,57.0922891 96.1009952,55.7930518 96.1009952,54.2348365 L96.1009952,50.9910905 L95.2080191,50.9910905 L95.2080191,49.8061264 L96.1435179,49.8061264 L96.2148059,47.9442175 L97.4979902,47.8299442 L97.4979902,49.8061264 L98.8130664,49.8061264 L98.8130664,50.9910905 Z" id="Fill-14" fill="#062942"></path>
                <path d="M100.097126,56.9173392 L101.522886,56.9173392 L101.522886,49.8063127 L100.097126,49.8063127 L100.097126,56.9173392 Z M100.055854,48.8399584 L101.549776,48.8399584 L101.549776,47.281122 L100.055854,47.281122 L100.055854,48.8399584 Z" id="Fill-15" fill="#062942"></path>
                <path d="M102.728779,49.8060022 L104.042605,49.8060022 L104.042605,50.9033982 C104.208318,50.5152417 104.559756,49.6333502 105.745388,49.6333502 C106.191251,49.6333502 106.904756,49.7476235 107.281832,50.5152417 C107.504451,50.9605348 107.518834,51.6238166 107.518834,52.3305719 L107.518834,56.9170287 L106.094949,56.9170287 L106.094949,52.418761 C106.094949,51.4952592 106.094949,50.8170722 105.270135,50.8170722 C104.15454,50.8170722 104.15454,52.2013934 104.15454,52.9379591 L104.15454,56.9170287 L102.728779,56.9170287 L102.728779,49.8060022 Z" id="Fill-16" fill="#062942"></path>
                <path d="M110.252291,51.9996763 C110.252291,52.2158018 110.252291,53.3697133 111.229062,53.3697133 C112.207084,53.3697133 112.207084,52.1704651 112.207084,51.9996763 C112.207084,51.6667933 112.150178,50.6010709 111.269709,50.6010709 C110.391115,50.6010709 110.252291,51.3935311 110.252291,51.9996763 Z M109.692618,57.5245402 C109.692618,58.2902953 110.307946,58.5188418 111.354129,58.5188418 C111.9557,58.5188418 112.988751,58.4200948 112.988751,57.5382033 C112.988751,56.8904478 112.485982,56.7445009 112.163936,56.7177958 C111.900045,56.6873643 110.586219,56.6289856 110.294189,56.6165646 C110.098459,56.7177958 109.692618,56.9463423 109.692618,57.5245402 Z M114.21628,49.7477477 C114.091839,49.7185583 114.007419,49.7048952 113.896109,49.7048952 C113.491519,49.7048952 113.253267,49.8924524 113.141332,50.4843134 C113.491519,50.9296065 113.672865,51.4370046 113.672865,52.0133394 C113.672865,53.1237774 112.919339,54.2919731 111.285342,54.2919731 C110.893258,54.2919731 110.643125,54.2348365 110.404247,54.1634157 C110.196011,54.2652679 109.888347,54.3944464 109.888347,54.7975081 C109.888347,55.3309903 110.237909,55.3452745 111.633653,55.4185584 C112.973743,55.5055055 114.314457,55.5775473 114.314457,57.337604 C114.314457,59.2262181 112.456592,59.5435749 111.18654,59.5435749 C110.209143,59.5435749 108.408183,59.3572598 108.408183,57.7555709 C108.408183,56.7612693 109.106055,56.499186 109.413094,56.3842917 C109.148578,56.2110187 108.659567,55.9209882 108.659567,55.2024329 C108.659567,54.3199204 109.371196,53.9466691 109.680111,53.7876802 C109.344307,53.5423653 108.785259,53.1386826 108.785259,51.9692448 C108.785259,50.5569763 109.791421,49.6328534 111.200922,49.6328534 C111.856272,49.6328534 112.21959,49.8061264 112.515373,49.9371681 C112.610424,49.3881595 112.736741,48.6236466 113.784175,48.6236466 C113.964896,48.6236466 114.091839,48.6515938 114.231288,48.6671201 L114.21628,49.7477477 Z" id="Fill-17" fill="#062942"></path>
                <polygon id="Fill-18" fill="#062942" points="0 21.8386766 10.0297233 21.8386766 10.0297233 26.4431439 4.92825296 26.4431439 4.92825296 30.4147609 9.45128984 30.4147609 9.45128984 34.9074391 4.92825296 34.9074391 4.92825296 43.4276288 0 43.4276288"></polygon>
                <path d="M14.5518847,28.8910138 L14.5518847,33.1657034 C16.3728557,33.1315456 17.2839666,32.4974532 17.2839666,31.2646683 C17.2839666,30.4293555 17.0726039,29.8287998 16.6530051,29.4685906 C16.232781,29.1083814 15.5311569,28.917719 14.5518847,28.8910138 Z M10.4384412,25.4075424 L15.2322475,25.4075424 C17.1720319,25.4075424 18.7022228,25.9043827 19.8246964,26.8930948 C20.9471699,27.881807 21.5087194,29.2270021 21.5087194,30.9274379 C21.5087194,31.8000137 21.2973567,32.6440211 20.8733806,33.4600812 C20.4456525,34.2742782 19.8246964,34.8853918 19.0098869,35.2990113 L22.2997662,43.4211078 L17.9511974,43.4211078 L14.6206714,35.2170327 L14.5518847,35.2170327 L14.5518847,43.4211078 L10.4384412,43.4211078 L10.4384412,25.4075424 Z" id="Fill-19" fill="#062942"></path>
                <polygon id="Fill-20" fill="#062942" points="22.6274409 25.407294 30.9587586 25.407294 30.9587586 29.2391746 26.7458871 29.2391746 26.7458871 32.5593098 30.4003358 32.5593098 30.4003358 36.2974119 26.7458871 36.2974119 26.7458871 39.5759367 30.9856479 39.5759367 30.9856479 43.4214804 22.6274409 43.4214804"></polygon>
                <polygon id="Fill-21" fill="#062942" points="39.8320527 25.407294 43.9486228 25.407294 43.9486228 32.0860694 47.6036969 32.0860694 47.6036969 25.407294 51.7215177 25.407294 51.7215177 43.4214804 47.6036969 43.4214804 47.6036969 35.9322343 43.9486228 35.9322343 43.9486228 43.4214804 39.8320527 43.4214804"></polygon>
                <path d="M57.5246121,34.5641846 L57.5246121,39.2829251 C58.8002924,39.2605673 59.7545512,39.071768 60.3948927,38.7041062 C61.0333581,38.3389286 61.3510275,37.7358887 61.3510275,36.8968497 C61.3510275,35.3404975 60.215422,34.5641846 57.9410842,34.5641846 L57.5246121,34.5641846 Z M57.5246121,25.984995 L57.5246121,30.64722 C59.8452246,30.5925676 61.0027168,29.8311598 61.0027168,28.3636179 C61.0027168,27.4873158 60.7256941,26.8786865 60.1710233,26.5340035 C59.6182285,26.1911837 58.737759,26.0054897 57.5246121,25.984995 Z M52.5957338,21.8388629 L57.6490535,21.8388629 C60.5874954,21.8388629 62.7080011,22.407745 63.9961881,23.5430251 C65.286251,24.6845156 65.9309698,26.1365313 65.9309698,27.8941038 C65.9309698,29.7945179 64.9967216,31.3216807 63.1257239,32.4768343 C65.2274696,33.3053155 66.2780298,34.8834044 66.2780298,37.209859 C66.2780298,39.0754943 65.6170524,40.5747098 64.2994748,41.7162004 C62.9793959,42.858312 61.2378422,43.4271941 59.0791911,43.4271941 L52.5957338,43.4271941 L52.5957338,21.8388629 Z" id="Fill-22" fill="#062942"></path>
                <path d="M73.1365621,29.0062187 C71.6520205,29.0062187 70.910375,30.7395702 70.910375,34.2000627 C70.910375,36.4333598 71.0973497,37.9207754 71.4744258,38.669141 C71.8490005,39.4150225 72.3949166,39.7870317 73.1121741,39.7870317 C73.8800836,39.7870317 74.471649,39.4150225 74.8862451,38.669141 C75.2958385,37.9207754 75.5034492,36.4588229 75.5034492,34.2839045 C75.5034492,30.762549 74.7142784,29.0062187 73.1365621,29.0062187 M73.2853915,43.8797535 C71.0954737,43.8797535 69.4283347,43.0444408 68.2758452,41.3750574 C67.1233556,39.705053 66.5486741,37.2959987 66.5486741,34.1478945 C66.5486741,31.2444841 67.1264823,28.9782714 68.2795972,27.3554668 C69.4333374,25.728936 71.0460724,24.9184653 73.1121741,24.9184653 C75.3139732,24.9184653 76.9954948,25.7326623 78.1586151,27.3616773 C79.3198593,28.9894503 79.9070474,31.3146628 79.9070474,34.3397991 C79.9070474,37.3599669 79.332366,39.705053 78.1855044,41.3750574 C77.0411442,43.0444408 75.4083985,43.8797535 73.2853915,43.8797535" id="Fill-23" fill="#062942"></path>
                <path d="M86.7302483,29.0062187 C85.2432054,29.0062187 84.5003092,30.7395702 84.5003092,34.2000627 C84.5003092,36.4333598 84.6866586,37.9207754 85.0618587,38.669141 C85.4401854,39.4150225 85.9867269,39.7870317 86.701483,39.7870317 C87.4706432,39.7870317 88.0628339,39.4150225 88.473678,38.669141 C88.8895248,37.9207754 89.0921328,36.4588229 89.0921328,34.2839045 C89.0921328,30.762549 88.304838,29.0062187 86.7302483,29.0062187 M86.877827,43.8797535 C84.6866586,43.8797535 83.014517,43.0444408 81.8632781,41.3750574 C80.7139152,39.705053 80.1386084,37.2959987 80.1386084,34.1478945 C80.1386084,31.2444841 80.7157912,28.9782714 81.8695314,27.3554668 C83.025773,25.728936 84.6341306,24.9184653 86.701483,24.9184653 C88.9026568,24.9184653 90.5848038,25.7326623 91.7485493,27.3616773 C92.9141709,28.9894503 93.4963563,31.3146628 93.4963563,34.3397991 C93.4963563,37.3599669 92.9235509,39.705053 91.7754387,41.3750574 C90.6304531,43.0444408 88.9995835,43.8797535 86.877827,43.8797535" id="Fill-24" fill="#062942"></path>
                <polygon id="Fill-25" fill="#062942" points="93.8262823 25.407294 97.9447284 25.407294 97.9447284 33.8802839 98.0110137 33.8802839 101.898086 25.407294 106.219141 25.407294 102.006895 34.6100181 106.042171 43.4214804 101.52101 43.4214804 98.0110137 35.9322343 97.9447284 35.9322343 97.9447284 43.4214804 93.8262823 43.4214804"></polygon>
                <path d="M106.368408,43.0963606 L106.368408,38.8993023 C107.670977,39.6526364 108.765936,40.0320981 109.657662,40.0320981 C110.174187,40.0320981 110.580029,39.8904987 110.880189,39.6066787 C111.174721,39.3253428 111.326051,38.9465021 111.326051,38.4794723 C111.326051,38.1205052 111.205987,37.7845169 110.96711,37.4677812 C110.726357,37.1541508 110.313637,36.7715838 109.723322,36.3231855 C108.303189,35.2413157 107.269513,34.2364563 106.631673,33.3048808 C105.993208,32.3745473 105.674913,31.3361512 105.674913,30.1940396 C105.674913,28.6389295 106.168301,27.3688815 107.157579,26.3888641 C108.143729,25.4088466 109.421911,24.9182168 110.986495,24.9182168 C112.147114,24.9182168 113.298353,25.1647738 114.440212,25.6622352 L114.440212,29.694094 C113.216434,29.0320544 112.222154,28.6954451 111.463625,28.6954451 C110.957105,28.6954451 110.555641,28.8221393 110.257982,29.0680753 C109.964075,29.3158744 109.817747,29.6549679 109.817747,30.0859768 C109.817747,30.8430372 110.501237,31.692013 111.86759,32.6353885 C112.685526,33.1961969 113.512217,33.9780993 114.350164,34.9922746 C115.189361,36.0064498 115.607084,37.1771297 115.607084,38.5086616 C115.607084,40.0637717 115.058041,41.350588 113.963083,42.373458 C112.867498,43.3957068 111.477382,43.9043471 109.793359,43.9043471 C108.64087,43.9043471 107.501512,43.6348112 106.368408,43.0963606" id="Fill-26" fill="#062942"></path>
                <path d="M40.1862416,38.747766 L36.0434074,32.8602087 C31.9011986,26.9720303 40.772179,23.1606444 40.772179,23.1606444 L40.1212069,22.5116467 C40.1212069,22.5116467 25.6928881,25.4653622 31.7292319,34.0488991 L35.8351714,40.1948133 C37.377869,42.5007733 35.0697632,43.8279579 33.6446283,43.8279579 L31.0401144,43.8279579 L31.0401144,44.9340485 L33.0649442,44.9340485 C36.4936475,44.9340485 43.8757089,44.1881671 40.1862416,38.747766" id="Fill-27" fill="#062942"></path>
                <path d="M99.5392036,11.1534432 C93.3890491,11.7633147 87.7766813,18.4663111 87.7766813,18.4663111 C87.7766813,18.4663111 93.3534051,10.0920682 99.9475464,9.43934426 C106.654873,8.77357828 110.751432,5.49008509 110.751432,5.49008509 C110.751432,5.49008509 106.670506,10.4417195 99.5392036,11.1534432 M100.834895,3.96168018 C89.1505389,3.59153417 86.6917278,15.9398783 86.242113,19.2513187 C85.4266782,20.1816521 84.4167647,21.4529422 83.2161245,23.1962305 C82.665831,23.9980065 82.2906309,23.9234805 82.2906309,23.9234805 C82.2906309,23.9234805 82.4544683,25.1488128 84.269186,24.781151 C84.269186,24.781151 85.3453849,22.2485077 86.8311772,20.1356944 C115.719081,23.1198413 115.60715,0 115.60715,0 C115.60715,0 112.013355,4.31567888 100.834895,3.96168018" id="Fill-28" fill="#062942"></path>
                <path d="M130.935946,31.1611392 C130.531355,29.9544383 129.990442,28.5011805 127.919962,28.5011805 C125.87137,28.5011805 125.421755,30.0432485 125.421755,30.826393 C125.421755,32.3908189 126.65929,32.8826907 128.730395,33.6652142 C130.485706,34.3359485 133.00705,35.2967134 133.00705,38.1585134 C133.00705,40.0142119 131.746378,42.5176658 128.212619,42.5176658 C126.929434,42.5176658 125.466779,42.137583 124.521275,41.2662494 C123.463211,40.3048635 123.193067,39.0975416 123.035483,38.2926603 L124.700746,37.8237673 C124.926491,38.80689 125.444267,40.9979556 128.257643,40.9979556 C130.508218,40.9979556 131.116042,39.4322877 131.116042,38.449165 C131.116042,36.6835189 129.585851,36.0351423 128.167595,35.4979338 C126.434796,34.8271994 125.736923,34.5595267 124.949003,33.8658134 C124.161083,33.1733423 123.643307,32.0330939 123.643307,30.9152032 C123.643307,29.1042204 124.971515,26.9814703 128.077547,26.9814703 C131.453722,26.9814703 132.241642,29.6190711 132.55681,30.6916251 L130.935946,31.1611392 Z" id="Fill-29" fill="#062942"></path>
                <polygon id="Fill-30" fill="#062942" points="144.990065 27.2941071 144.990065 28.7914595 138.64293 28.7914595 138.64293 33.731915 143.63997 33.731915 143.63997 35.2298884 138.64293 35.2298884 138.64293 40.7069315 145.170161 40.7069315 145.170161 42.2049049 136.819458 42.2049049 136.819458 27.2941071"></polygon>
                <polygon id="Fill-31" fill="#062942" points="150.506319 27.2941071 150.506319 40.7069315 156.200605 40.7069315 156.200605 42.2049049 148.682847 42.2049049 148.682847 27.2941071"></polygon>
                <polygon id="Fill-32" fill="#062942" points="167.537526 27.2941071 167.537526 28.7914595 161.190391 28.7914595 161.190391 33.731915 166.187431 33.731915 166.187431 35.2298884 161.190391 35.2298884 161.190391 40.7069315 167.717622 40.7069315 167.717622 42.2049049 159.366919 42.2049049 159.366919 27.2941071"></polygon>
                <path d="M180.141872,37.9350595 C179.737281,40.1708408 178.926849,42.5177901 175.505024,42.5177901 C170.958225,42.5177901 170.282865,37.756197 170.282865,34.8055868 C170.282865,32.7710259 170.598033,26.9809735 175.57256,26.9809735 C179.264529,26.9809735 179.961776,30.1557829 180.232545,31.5189884 L178.498496,31.9444079 C178.20584,30.49115 177.801249,28.5013047 175.617584,28.5013047 C172.308945,28.5013047 172.218897,33.2852556 172.218897,34.7608712 C172.218897,36.8395267 172.556577,40.9980799 175.617584,40.9980799 C177.305985,40.9980799 177.958833,40.1031463 178.498496,37.5326189 L180.141872,37.9350595 Z" id="Fill-33" fill="#062942"></path>
                <polygon id="Fill-34" fill="#062942" points="191.420449 27.2941071 191.420449 28.8138173 187.818528 28.8138173 187.818528 42.2049049 185.995681 42.2049049 185.995681 28.8138173 182.416898 28.8138173 182.416898 27.2941071"></polygon>
            </g>
        </g>
    </g>
</svg>