<?xml version="1.0" encoding="UTF-8"?>
<svg width="160px" height="43px" viewBox="0 0 160 43" version="1.1" xmlns="http://www.w3.org/2000/svg" xmlns:xlink="http://www.w3.org/1999/xlink">
    <!-- Generator: Sketch 47.1 (45422) - http://www.bohemiancoding.com/sketch -->
    <title>Fundbox_logo</title>
    <desc>Created with Sketch.</desc>
    <defs>
        <path d="M18.0774517,42.8399444 C17.5592314,42.8399444 17.0434215,42.7001944 16.5806387,42.4206944 L1.496813,33.31425 C0.571247474,32.75525 0.00120516345,31.7220556 0.00120516345,30.6040556 L0.00120516345,12.3935556 C0.00120516345,11.27675 0.571247474,10.2435556 1.49801816,9.68455556 L16.5818439,0.579305556 C17.5086145,0.0203055556 18.6486992,0.0203055556 19.5754699,0.579305556 L34.6592956,9.68455556 C35.5848611,10.2435556 36.1561086,11.27675 36.1561086,12.3935556 L36.1561086,30.6040556 C36.1561086,31.7220556 35.5860662,32.7564444 34.6592956,33.31425 L19.5754699,42.4206944 C19.1126871,42.7001944 18.595672,42.8399444 18.0786569,42.8399444 L18.0774517,42.8399444 Z M18.0774517,33.0765556 L27.5681138,27.2870833 L27.5681138,15.7105278 L18.0774517,9.92225 L8.58678955,15.7105278 L8.58678955,27.2870833 L18.0774517,33.0765556 Z" id="path-1"></path>
    </defs>
    <g id="Hi-Fi-Design" stroke="none" stroke-width="1" fill="none" fill-rule="evenodd">
        <g id="05-Default-Load-(Top-Picks)-1280" transform="translate(-791.000000, -582.000000)">
            <g id="Fundbox_logo" transform="translate(791.000000, 582.000000)">
                <path d="M45.8479532,13.4130676 L56.7456364,13.4130676 L56.7456364,16.8505804 L49.4276052,16.8505804 L49.4276052,20.2880932 L56.1960141,20.2880932 L56.1960141,23.7267665 L49.4276052,23.7267665 L49.4276052,30.3151393 L45.8491377,30.3151393 L45.8491377,13.4130676 L45.8479532,13.4130676 Z M72.3281388,26.5677629 C72.0367442,27.4114738 71.605575,28.1437732 71.0322621,28.7646608 C70.4589492,29.3855485 69.7446772,29.8718138 68.8870769,30.2211357 C68.0294766,30.5704576 67.043947,30.7456988 65.928119,30.7456988 C64.7968921,30.7456988 63.8018863,30.5716181 62.944286,30.2211357 C62.0890547,29.8718138 61.3735982,29.3855485 60.7991007,28.7646608 C60.2257878,28.1437732 59.7946186,27.4114738 59.5032241,26.5677629 C59.2118295,25.724052 59.0685013,24.8014245 59.0685013,23.7987199 L59.0685013,13.4142282 L62.6469687,13.4142282 L62.6469687,23.6559737 C62.6469687,24.1816973 62.7275168,24.6679626 62.8874285,25.1124486 C63.0485247,25.5580951 63.2712165,25.9445541 63.5637956,26.2706652 C63.8551901,26.5967763 64.2022577,26.8520946 64.6073672,27.0354596 C65.0124767,27.217664 65.4531222,27.3093465 65.9269345,27.3093465 C66.4007468,27.3093465 66.8366541,27.217664 67.2334719,27.0354596 C67.6314743,26.8520946 67.9761727,26.5967763 68.2663828,26.2706652 C68.5577773,25.9445541 68.7840227,25.5580951 68.9439344,25.1124486 C69.1050306,24.6679626 69.1855787,24.1816973 69.1855787,23.6559737 L69.1855787,13.4142282 L72.7640461,13.4142282 L72.7640461,23.7987199 C72.7640461,24.8014245 72.6195334,25.724052 72.3269543,26.5677629 L72.3281388,26.5677629 Z M76.068887,13.4130676 L80.9325704,13.4130676 L87.8372003,25.1588701 L87.883397,25.1588701 L87.883397,13.4130676 L91.463049,13.4130676 L91.463049,30.3151393 L86.7817834,30.3151393 L79.6923667,18.2838445 L79.6473545,18.2838445 L79.6473545,30.3151393 L76.068887,30.3151393 L76.068887,13.4130676 Z M94.9562303,13.4130676 L100.323339,13.4130676 C101.62277,13.4130676 102.858235,13.5650981 104.028552,13.8656773 C105.197683,14.1685777 106.218749,14.6571641 107.090564,15.3349181 C107.962378,16.0115116 108.655329,16.8900387 109.167046,17.9716599 C109.679948,19.0544416 109.935807,20.3670098 109.935807,21.910525 C109.935807,23.2799595 109.687055,24.4857582 109.188368,25.5279211 C108.692049,26.5712445 108.023974,27.44629 107.181772,28.154218 C106.340756,28.862146 105.368256,29.399475 104.269011,29.7650444 C103.167398,30.1317743 102.011296,30.3139787 100.804259,30.3139787 L94.9550458,30.3139787 L94.9550458,13.4119071 L94.9562303,13.4130676 Z M98.5346978,26.8776265 L100.393227,26.8776265 C101.21766,26.8776265 101.98642,26.7894256 102.698323,26.615345 C103.410226,26.4412643 104.026182,26.1488088 104.545007,25.7437811 C105.066201,25.3387534 105.474864,24.8049061 105.773365,24.1433996 C106.070683,23.4830536 106.218749,22.6753193 106.218749,21.7213573 C106.218749,20.8938939 106.069498,20.1732 105.773365,19.560436 C105.474864,18.9476721 105.073308,18.4416777 104.567513,18.0436132 C104.062903,17.6467093 103.471822,17.3472906 102.789532,17.1476781 C102.108427,16.9492261 101.392971,16.8494199 100.644347,16.8494199 L98.5346978,16.8494199 L98.5346978,26.8764659 L98.5346978,26.8776265 Z M112.271701,13.4130676 L118.328207,13.4130676 C119.030634,13.4130676 119.737799,13.4652918 120.449702,13.5685797 C121.161605,13.6730281 121.798882,13.8784433 122.365088,14.1894674 C122.931294,14.499331 123.389707,14.9333721 123.742697,15.4904302 C124.093318,16.0474883 124.268629,16.7879114 124.268629,17.7105389 C124.268629,18.6656614 124.01277,19.4571482 123.501053,20.0849991 C122.988151,20.7151711 122.311784,21.1631387 121.470767,21.4347045 L121.470767,21.4822865 C122.006175,21.5623636 122.491833,21.7167152 122.928925,21.9476622 C123.364832,22.1797697 123.739144,22.4733858 124.053044,22.8308314 C124.364576,23.1894375 124.60622,23.6072311 124.775608,24.0853727 C124.943812,24.5623537 125.027913,25.0718298 125.027913,25.6126403 C125.027913,26.5027728 124.845495,27.2466775 124.477106,27.8443544 C124.108717,28.4408708 123.634905,28.922494 123.054485,29.2880634 C122.47288,29.6547933 121.817835,29.9170748 121.091717,30.0760685 C120.364416,30.2350622 119.643036,30.3151393 118.924026,30.3151393 L112.271701,30.3151393 L112.271701,13.4130676 L112.271701,13.4130676 Z M115.850169,20.1685578 L118.440738,20.1685578 C118.717918,20.1685578 118.987991,20.1372233 119.25451,20.0733937 C119.523399,20.0107247 119.763858,19.9062763 119.979443,19.7623696 C120.192659,19.6196235 120.363231,19.4281347 120.495898,19.1902245 C120.623828,18.9511537 120.688977,18.6645009 120.688977,18.330266 C120.688977,17.9809442 120.616721,17.6896492 120.472208,17.4587022 C120.326511,17.2289157 120.140539,17.0490324 119.91074,16.9213732 C119.680941,16.7937141 119.420345,16.7031921 119.130134,16.6463258 C118.83874,16.59062 118.558006,16.5627671 118.280826,16.5627671 L115.850169,16.5627671 L115.850169,20.1673973 L115.850169,20.1685578 Z M115.850169,27.1642793 L119.060247,27.1642793 C119.333874,27.1642793 119.614608,27.1317842 119.896526,27.0691152 C120.180813,27.0052856 120.435487,26.8950345 120.665286,26.7348803 C120.895085,26.5758867 121.081057,26.3681504 121.226754,26.1139926 C121.372451,25.8598349 121.444708,25.5488108 121.444708,25.1820808 C121.444708,24.7851769 121.348761,24.4625474 121.158051,24.2165134 C120.967342,23.9693189 120.726882,23.7836329 120.435487,23.6548132 C120.145277,23.527154 119.832561,23.4401137 119.493785,23.3925316 C119.158563,23.3449496 118.844663,23.3205783 118.555637,23.3205783 L115.8478,23.3205783 L115.8478,27.1642793 L115.850169,27.1642793 Z M126.437505,21.9673913 C126.437505,20.6153648 126.655459,19.3886764 127.090181,18.2908077 C127.524904,17.192939 128.133753,16.2587062 128.915543,15.4869486 C129.694965,14.7140304 130.618899,14.1221562 131.690899,13.7078442 C132.76053,13.2935322 133.930847,13.0869565 135.200664,13.0869565 C136.469296,13.0869565 137.639612,13.2946928 138.710428,13.7078442 C139.78006,14.1209956 140.705178,14.7140304 141.485784,15.4869486 C142.26639,16.2587062 142.872869,17.192939 143.309961,18.2908077 C143.744684,19.389837 143.963822,20.6153648 143.963822,21.9673913 C143.963822,23.3205783 143.744684,24.5449456 143.309961,25.6439749 C142.872869,26.7418436 142.26639,27.677237 141.485784,28.447834 C140.705178,29.2195916 139.778875,29.813787 138.710428,30.2269384 C137.638428,30.6412504 136.469296,30.8478261 135.200664,30.8478261 C133.930847,30.8478261 132.76053,30.6412504 131.690899,30.2269384 C130.618899,29.813787 129.694965,29.2207522 128.915543,28.447834 C128.134937,27.677237 127.524904,26.740683 127.090181,25.6439749 C126.655459,24.5449456 126.437505,23.3205783 126.437505,21.9673913 Z M130.153378,21.9673913 C130.153378,22.7635202 130.273016,23.4911774 130.509922,24.1526839 C130.746828,24.8130298 131.086788,25.3863355 131.532172,25.8702797 C131.974002,26.356545 132.507041,26.7337198 133.12655,27.0052856 C133.74606,27.2756909 134.437826,27.4103133 135.203033,27.4103133 C135.96587,27.4103133 136.658821,27.2756909 137.278331,27.0052856 C137.899025,26.7337198 138.42851,26.356545 138.872709,25.8702797 C139.315724,25.3863355 139.656868,24.8130298 139.893775,24.1526839 C140.131865,23.4911774 140.249134,22.7646807 140.249134,21.9673913 C140.249134,21.1886705 140.131865,20.4633344 139.893775,19.7948647 C139.656868,19.1263949 139.315724,18.5496077 138.872709,18.0633423 C138.42851,17.5782376 137.89784,17.1999023 137.278331,16.929497 C136.658821,16.6590917 135.96587,16.5244693 135.203033,16.5244693 C134.437826,16.5244693 133.74606,16.6590917 133.12655,16.929497 C132.507041,17.1999023 131.974002,17.5782376 131.532172,18.0633423 C131.087973,18.5484471 130.748012,19.1263949 130.509922,19.7948647 C130.273016,20.4633344 130.153378,21.1875099 130.153378,21.9673913 Z M149.124823,21.4822865 L143.757714,13.4130676 L148.253008,13.4130676 L151.717761,19.3341312 L155.043923,13.4130676 L159.379306,13.4130676 L154.125912,21.4103332 L160,30.3151393 L155.502337,30.3151393 L151.534159,23.5109065 L147.678511,30.3151393 L143.435522,30.3151393 L149.123638,21.4822865 L149.124823,21.4822865 Z" id="Shape" fill="#FFFFFF"></path>
                <g id="a-link" fill="#FFFFFF">
                    <path d="M18.0774517,42.8399444 C17.5592314,42.8399444 17.0434215,42.7001944 16.5806387,42.4206944 L1.496813,33.31425 C0.571247474,32.75525 0.00120516345,31.7220556 0.00120516345,30.6040556 L0.00120516345,12.3935556 C0.00120516345,11.27675 0.571247474,10.2435556 1.49801816,9.68455556 L16.5818439,0.579305556 C17.5086145,0.0203055556 18.6486992,0.0203055556 19.5754699,0.579305556 L34.6592956,9.68455556 C35.5848611,10.2435556 36.1561086,11.27675 36.1561086,12.3935556 L36.1561086,30.6040556 C36.1561086,31.7220556 35.5860662,32.7564444 34.6592956,33.31425 L19.5754699,42.4206944 C19.1126871,42.7001944 18.595672,42.8399444 18.0786569,42.8399444 L18.0774517,42.8399444 Z M18.0774517,33.0765556 L27.5681138,27.2870833 L27.5681138,15.7105278 L18.0774517,9.92225 L8.58678955,15.7105278 L8.58678955,27.2870833 L18.0774517,33.0765556 Z" id="a"></path>
                </g>
                <g id="Clipped">
                    <mask id="mask-2" fill="white">
                        <use xlink:href="#path-1"></use>
                    </mask>
                    <g id="a"></g>
                    <polygon id="Shape" fill="#FFFFFF" opacity="0.15" mask="url(#mask-2)" points="39.4377686 34.6771111 -2.87672515 8.93802778 38.4049435 -13.0433333 39.4365635 34.6783056"></polygon>
                </g>
            </g>
        </g>
    </g>
</svg>