<svg xmlns="http://www.w3.org/2000/svg" xmlns:xlink="http://www.w3.org/1999/xlink" width="55" height="55" viewBox="0 0 55 55">
    <defs>
        <circle id="a" cx="27.5" cy="27.5" r="27.5"/>
    </defs>
    <g fill="none" fill-rule="evenodd">
        <mask id="b" fill="#fff">
            <use xlink:href="#a"/>
        </mask>
        <use fill="#D1D0F0" xlink:href="#a"/>
        <path fill="#6665CE" d="M44.434 19.674l-.353.493c-1.987 2.773-4.239 5.916-6.555 8.294a22.025 22.025 0 0 1-1.333 1.269c-.234-.003-.835-.263-1.166-.41-.828-.37-1.685-.753-2.476-.384-.804.374-.698 1.278-.564 2.423.014.123.033.279.048.432-1.52-.003-3.037-.68-3.77-1.212 2.472-3.518 5.6-5.817 8.02-6.851a.722.722 0 0 0-.567-1.327c-2.49 1.064-5.673 3.36-8.263 6.84-.946-2.502-.555-4.735 1.18-6.652 3.328-3.677 11.111-5.313 15.712-3.302a.226.226 0 0 1 .129.153.274.274 0 0 1-.042.234m-8.59 21.751H17.907a2.275 2.275 0 0 1-2.273-2.272V15.908a2.275 2.275 0 0 1 2.273-2.273h17.935a2.276 2.276 0 0 1 2.274 2.273v.699a20.205 20.205 0 0 0-8.104 2.51V19.1s-2.071 1.5-2.43 1.876c-.357.375-.23.233-.34.355-2.467 2.725-2.818 6.169-1.024 9.749a23.466 23.466 0 0 0-1.943 3.98.722.722 0 0 0 1.352.505 22.195 22.195 0 0 1 1.619-3.408c1.137.8 2.951 1.508 4.766 1.508a6.41 6.41 0 0 0 1.007-.076c1.096-.174.954-1.382.83-2.449l-.035-.302c.16.066.32.137.448.194.916.41 2.172.97 3.118.15.24-.207.486-.435.736-.671v8.642a2.276 2.276 0 0 1-2.274 2.272m10.442-22.481a2.1 2.1 0 0 0-1.187-1.376c-1.586-.693-3.423-1.025-5.346-1.034v-.626A3.913 3.913 0 0 0 35.843 12H17.908A3.913 3.913 0 0 0 14 15.908v23.245a3.912 3.912 0 0 0 3.908 3.908h17.935a3.913 3.913 0 0 0 3.909-3.908V28.789l.667-.721c1.846-2.149 3.6-4.593 5.186-6.808l.354-.492c.38-.53.499-1.196.326-1.824" mask="url(#b)"/>
    </g>
</svg>
