<svg xmlns="http://www.w3.org/2000/svg" xmlns:xlink="http://www.w3.org/1999/xlink" width="85" height="84" viewBox="0 0 85 84">
    <defs>
        <path id="a" d="M0 .507h84.483v82.858H.001z"/>
    </defs>
    <g fill="none" fill-rule="evenodd">
        <g transform="translate(0 .128)">
            <mask id="b" fill="#fff">
                <use xlink:href="#a"/>
            </mask>
            <path fill="#94D79F" d="M84.484 41.937c0 22.88-18.913 41.429-42.243 41.429C18.912 83.366 0 64.816 0 41.936S18.912.507 42.24.507c23.33 0 42.243 18.55 42.243 41.43" mask="url(#b)"/>
        </g>
        <path fill="#49AD57" d="M46.828 26.145c-10.954 0-19.837 8.697-19.837 19.442 0 6.803 3.558 12.787 8.952 16.251-.154.436-.32.871-.529 1.31-.681 1.335-1.57 2.683-2.723 3.885-.557.626-1.225 1.144-1.865 1.73-.667.545-1.375 1.036-2.097 1.567.86-.162 1.75-.298 2.642-.49.86-.273 1.792-.463 2.653-.818 1.765-.64 3.462-1.58 5.102-2.782a19.205 19.205 0 0 0 2.155-1.976c1.752.505 3.615.778 5.547.778 10.953 0 19.834-8.713 19.834-19.455 0-10.745-8.881-19.442-19.835-19.442"/>
        <path fill="#FFF" d="M42.653 23.417c-10.953 0-19.835 8.697-19.835 19.442 0 6.801 3.556 12.787 8.951 16.25-.153.436-.32.872-.528 1.309-.681 1.335-1.572 2.685-2.723 3.885-.557.626-1.225 1.146-1.865 1.731-.667.545-1.375 1.037-2.097 1.568.86-.162 1.75-.3 2.64-.492.862-.272 1.793-.463 2.655-.817 1.765-.64 3.462-1.581 5.102-2.78a19.222 19.222 0 0 0 2.155-1.979c1.752.505 3.613.778 5.545.778 10.955 0 19.837-8.71 19.837-19.453 0-10.745-8.882-19.442-19.837-19.442"/>
        <path fill="#49AD57" d="M34.7 48.662c-1.076 1.367-1.895 3.266-1.895 3.266-1.14.229-1.243-.533-1.243-.533s.237.046.582-.451c1.008-1.447 1.808-2.38 2.381-2.967l-.145.662.32.023z"/>
        <path fill="#49AD57" d="M42.404 43.468c-3.832.374-7.332 4.467-7.394 4.537.056-.078 3.539-5.2 7.65-5.601 4.2-.412 6.772-2.436 6.792-2.45-.02.022-2.581 3.072-7.048 3.514m10.102-6.923s-2.26 2.678-9.287 2.459C34.739 38.737 33.987 49 33.987 49c18.592 2.125 18.519-12.456 18.519-12.456"/>
    </g>
</svg>
