<svg xmlns="http://www.w3.org/2000/svg" xmlns:xlink="http://www.w3.org/1999/xlink" width="55" height="55" viewBox="0 0 55 55">
    <defs>
        <circle id="a" cx="27.5" cy="27.5" r="27.5"/>
        <path id="c" d="M0 .133h28.625V33.06H0z"/>
    </defs>
    <g fill="none" fill-rule="evenodd">
        <mask id="b" fill="#fff">
            <use xlink:href="#a"/>
        </mask>
        <use fill="#F9E699" xlink:href="#a"/>
        <g mask="url(#b)">
            <g transform="translate(13 10.447)">
                <mask id="d" fill="#fff">
                    <use xlink:href="#c"/>
                </mask>
                <path fill="#EFC100" d="M7.323 11.65c-.33.343-4.679 4.932-5.376 9.443-.684 4.431.563 6.025.575 6.04l.08.1.063.133c.012.027 1.9 3.954 11.648 3.954 9.747 0 11.634-3.927 11.652-3.967l.055-.122.096-.113c-.001 0 1.245-1.594.562-6.025-.698-4.522-5.045-9.1-5.376-9.443-.91-.807-1.133-1.665-1.159-2.246-.062-1.402.9-2.448 1.01-2.563l.061-.058 1.623-1.394c.37-.399.52-.816.443-1.24-.084-.463-.408-.816-.602-.91-.414-.2-1.02.53-1.148.722l-.047.065C20.618 5.1 19.718 5.576 18.8 5.43c-1.39-.214-2.036-1.77-2.105-1.948l-.026-.078c-.322-1.127-1.959-1.456-2.357-1.52-.394.063-2.034.391-2.355 1.52l-.027.078c-.07.177-.715 1.734-2.105 1.948-.917.145-1.818-.331-2.682-1.405l-.05-.069c-.126-.187-.735-.918-1.147-.717-.193.093-.518.446-.601.909-.077.424.072.841.443 1.24l1.684 1.452c.11.115 1.072 1.161 1.01 2.563-.026.58-.25 1.439-1.159 2.246m6.99 21.41C4.152 33.06 1.54 28.98 1.12 28.165c-.386-.514-1.626-2.588-.892-7.337.807-5.227 5.669-10.21 5.875-10.42l.048-.045c.38-.33.573-.667.592-1.028.028-.535-.336-1.07-.508-1.267L4.558 6.62c-.775-.809-1.104-1.797-.926-2.782.195-1.071.923-1.86 1.559-2.167 1.469-.707 2.77.462 3.33 1.292.484.593.851.776 1.037.748.272-.04.597-.5.74-.835.724-2.396 3.798-2.723 3.93-2.736l.085-.008.084.008c.131.013 3.206.34 3.93 2.737.141.331.467.793.74.834.184.028.553-.155 1.036-.748.561-.83 1.863-1.997 3.33-1.292.637.306 1.365 1.096 1.56 2.167.177.985-.151 1.973-.927 2.782l-.061.059-1.617 1.389c-.167.19-.534.729-.506 1.266.019.361.212.698.592 1.028l.048.046c.206.21 5.068 5.192 5.875 10.42.733 4.748-.506 6.822-.893 7.336-.42.816-3.031 4.895-13.191 4.895" mask="url(#d)"/>
            </g>
            <path fill="#F9E699" d="M33.698 21.434H20.926c-.7 0-1.271-.572-1.271-1.271v-.199c0-.7.572-1.272 1.271-1.272h12.772c.7 0 1.272.573 1.272 1.272v.199c0 .7-.572 1.271-1.272 1.271"/>
            <path fill="#EFC100" d="M20.926 19.273a.692.692 0 0 0-.691.691v.198c0 .381.31.692.691.692h12.772c.382 0 .692-.31.692-.692v-.198a.692.692 0 0 0-.692-.691H20.926zm12.772 2.741H20.926c-1.02 0-1.851-.83-1.851-1.852v-.198c0-1.02.83-1.851 1.851-1.851h12.772c1.021 0 1.852.83 1.852 1.851v.198c0 1.022-.83 1.852-1.852 1.852zM27.156 25.397c-3.149 0-5.71 2.782-5.71 6.202s2.561 6.202 5.71 6.202 5.71-2.783 5.71-6.202c0-3.42-2.561-6.202-5.71-6.202m0 13.564c-3.788 0-6.87-3.303-6.87-7.362 0-4.06 3.082-7.362 6.87-7.362 3.789 0 6.87 3.302 6.87 7.362 0 4.059-3.081 7.362-6.87 7.362"/>
            <path fill="#EFC100" d="M27.252 35.606c-1.037 0-1.825-.268-2.344-.795a1.986 1.986 0 0 1-.582-1.347.58.58 0 0 1 .58-.57h.01a.58.58 0 0 1 .57.59c.003.087.077.962 1.766.962.627 0 1.071-.146 1.319-.433.324-.377.247-.925.246-.93l-.007-.09c-.007-.134-.114-.865-1.558-.865-.877 0-1.552-.252-2.006-.75-.617-.678-.558-1.524-.55-1.618.058-.744.667-2.168 2.556-2.168 1.848 0 2.352 1.399 2.373 1.458a.58.58 0 0 1-1.094.387c-.03-.077-.301-.685-1.28-.685-1.227 0-1.38.926-1.4 1.112 0 0-.025.435.26.74.226.241.61.364 1.14.364 2.104 0 2.693 1.267 2.718 1.977.03.232.093 1.102-.507 1.81-.477.565-1.22.85-2.21.85"/>
            <path fill="#EFC100" d="M27.176 28.752a.58.58 0 0 1-.58-.56l-.04-1.206a.579.579 0 0 1 .56-.599c.321-.026.59.24.6.56l.04 1.206a.58.58 0 0 1-.56.598l-.02.001M27.176 36.81a.58.58 0 0 1-.58-.56l-.04-1.205a.579.579 0 1 1 1.16-.039l.04 1.206a.58.58 0 0 1-.56.598h-.02"/>
        </g>
    </g>
</svg>
