<svg xmlns="http://www.w3.org/2000/svg" width="55" height="55" viewBox="0 0 55 55">
    <g fill="none" fill-rule="evenodd" transform="translate(0 .724)">
        <ellipse cx="27.269" cy="27.138" fill="#94D79F" rx="27.269" ry="27.138"/>
        <path fill="#EEF9F0" d="M38.642 11.468a.564.564 0 0 0-.123-.784.556.556 0 0 0-.78.124l-1.541 2.134c.309.21.607.435.9.665l1.544-2.139zM45.123 21.035a.564.564 0 0 0 .358-.708.56.56 0 0 0-.703-.361l-2.492.815c.126.35.238.708.34 1.07l2.497-.816zM9.73 19.966a.559.559 0 0 0-.703.36.564.564 0 0 0 .359.71l2.496.815c.103-.362.214-.72.34-1.07l-2.491-.815zM16.77 10.808a.555.555 0 0 0-.78-.124.564.564 0 0 0-.124.784l1.545 2.14c.292-.231.59-.455.9-.666l-1.542-2.134zM27.812 10.206V7.562A.56.56 0 0 0 27.254 7a.56.56 0 0 0-.558.562v2.644c.186-.006.371-.014.558-.014.188 0 .373.008.558.014"/>
        <path fill="#94D79F" d="M27.066 21.134c0 1.987-1.6 3.597-3.575 3.597s-3.575-1.61-3.575-3.597c0-1.987 1.6-3.598 3.575-3.598 1.974 0 3.575 1.61 3.575 3.598"/>
        <path fill="#EEF9F0" d="M23.49 18.04c-1.695 0-3.074 1.388-3.074 3.094s1.38 3.094 3.075 3.094c1.695 0 3.075-1.388 3.075-3.094s-1.38-3.095-3.075-3.095m0 7.195c-2.247 0-4.075-1.839-4.075-4.1 0-2.261 1.828-4.101 4.075-4.101s4.074 1.84 4.074 4.1c0 2.262-1.827 4.101-4.074 4.101"/>
        <path fill="#94D79F" d="M34.695 21.134c0 1.987-1.6 3.597-3.575 3.597s-3.575-1.61-3.575-3.597c0-1.987 1.6-3.598 3.575-3.598 1.974 0 3.575 1.61 3.575 3.598"/>
        <path fill="#EEF9F0" d="M31.12 18.04c-1.696 0-3.075 1.388-3.075 3.094s1.38 3.094 3.075 3.094c1.696 0 3.075-1.388 3.075-3.094s-1.38-3.095-3.075-3.095m0 7.195c-2.247 0-4.075-1.839-4.075-4.1 0-2.261 1.828-4.101 4.075-4.101s4.075 1.84 4.075 4.1c0 2.262-1.828 4.101-4.075 4.101"/>
        <path fill="#94D79F" d="M31.805 20.714c-.584 2.323-2.929 3.73-5.237 3.143-2.309-.588-3.707-2.948-3.123-5.27.584-2.324 2.929-3.731 5.237-3.144 2.309.588 3.707 2.948 3.123 5.271"/>
        <path fill="#EEF9F0" d="M27.618 15.813c-.678 0-1.347.184-1.945.542a3.808 3.808 0 0 0-1.743 2.354c-.516 2.051.723 4.141 2.76 4.66.987.251 2.012.101 2.887-.424a3.806 3.806 0 0 0 1.743-2.354c.516-2.05-.723-4.14-2.76-4.66a3.811 3.811 0 0 0-.942-.118m.015 8.682a4.79 4.79 0 0 1-1.188-.15c-2.572-.655-4.135-3.294-3.485-5.882a4.808 4.808 0 0 1 2.2-2.972 4.753 4.753 0 0 1 3.645-.535 4.785 4.785 0 0 1 2.953 2.214 4.84 4.84 0 0 1 .532 3.667 4.808 4.808 0 0 1-2.201 2.973 4.762 4.762 0 0 1-2.456.685"/>
        <path fill="#94D79F" d="M35.307 25.01H18.945c-.572 0-1.04-.47-1.04-1.046v-.872c0-.576.468-1.047 1.04-1.047h16.362c.572 0 1.04.471 1.04 1.047v.872c0 .576-.468 1.047-1.04 1.047"/>
        <path fill="#EEF9F0" d="M18.945 22.8a.295.295 0 0 0-.29.292v.872c0 .158.133.292.29.292h16.362c.157 0 .29-.134.29-.292v-.872a.295.295 0 0 0-.29-.292H18.945zm16.362 2.966H18.945c-.987 0-1.79-.809-1.79-1.802v-.872c0-.993.803-1.801 1.79-1.801h16.362c.987 0 1.79.808 1.79 1.801v.872c0 .993-.803 1.802-1.79 1.802z"/>
        <path fill="#94D79F" d="M38.23 42.578a2.63 2.63 0 0 1-2.62 2.638 2.63 2.63 0 0 1-2.622-2.638 2.63 2.63 0 0 1 2.621-2.64 2.63 2.63 0 0 1 2.622 2.64"/>
        <path fill="#EEF9F0" d="M35.609 40.694a1.88 1.88 0 0 0-1.872 1.883c0 1.04.84 1.884 1.872 1.884a1.88 1.88 0 0 0 1.871-1.884 1.88 1.88 0 0 0-1.871-1.883m0 5.276c-1.859 0-3.372-1.522-3.372-3.393 0-1.87 1.513-3.393 3.372-3.393s3.371 1.522 3.371 3.393c0 1.871-1.512 3.393-3.371 3.393"/>
        <path fill="#94D79F" d="M39.063 37.063L37.675 40.3 34.9 41.688l-3.7.924h-.925l.463-2.775 1.85-3.237z"/>
        <path fill="#EEF9F0" d="M27.125 44.205v-1.51c3.66 0 6.557-.505 8.375-1.459 4.202-2.205 3.688-6.97 3.665-7.171-.475-5.101-3.13-5.91-3.243-5.942-1.69-.337-2.158-2.241-2.16-3.311l1.5-.007c0 .017.028 1.653 1 1.848.192.048 3.817 1.042 4.394 7.25.005.037.676 5.975-4.463 8.672-2.03 1.066-5.167 1.63-9.068 1.63"/>
        <path fill="#94D79F" d="M18.77 45.216a2.63 2.63 0 0 0 2.623-2.638 2.63 2.63 0 0 0-2.622-2.64 2.63 2.63 0 0 0-2.622 2.64 2.63 2.63 0 0 0 2.622 2.638z"/>
        <path fill="#EEF9F0" d="M18.77 40.694a1.88 1.88 0 0 0-1.87 1.883c0 1.04.839 1.884 1.87 1.884a1.88 1.88 0 0 0 1.873-1.884 1.88 1.88 0 0 0-1.872-1.883m0 5.276c-1.86 0-3.372-1.522-3.372-3.393 0-1.87 1.513-3.393 3.372-3.393s3.372 1.522 3.372 3.393c0 1.871-1.513 3.393-3.372 3.393"/>
        <path fill="#94D79F" d="M15.475 37.063l1.388 3.237 2.775 1.388 3.7.924h.924l-.462-2.775-1.85-3.237z"/>
        <path fill="#EEF9F0" d="M27.255 44.205c-3.901 0-7.037-.564-9.068-1.63-5.138-2.697-4.468-8.635-4.461-8.695.575-6.185 4.2-7.18 4.354-7.219 1.01-.203 1.039-1.84 1.039-1.856l1.5.007c-.003 1.07-.472 2.974-2.208 3.322-.066.02-2.721.83-3.193 5.91-.027.222-.54 4.987 3.662 7.192 1.819.954 4.715 1.459 8.375 1.459v1.51z"/>
        <path fill="#EEF9F0" d="M27.365 38.297c-1.177 0-2.056-.289-2.613-.86-.57-.585-.575-1.239-.574-1.311.006-.279.238-.48.51-.494a.502.502 0 0 1 .49.512c.003.109.088 1.147 2.187 1.147.81 0 1.377-.19 1.687-.562.362-.437.27-1.014.27-1.02l-.008-.089c-.005-.098-.098-1.04-1.95-1.04-.988 0-1.735-.274-2.22-.814a2.194 2.194 0 0 1-.542-1.595c.063-.759.722-2.208 2.763-2.208 1.992 0 2.536 1.409 2.558 1.468a.506.506 0 0 1-.294.648.498.498 0 0 1-.64-.29c-.02-.046-.36-.82-1.624-.82-1.641 0-1.763 1.24-1.767 1.294 0 .007-.033.48.295.837.29.314.784.473 1.472.473 2.613 0 2.91 1.628 2.944 1.98.024.161.128 1.077-.49 1.821-.509.613-1.334.923-2.454.923"/>
        <path fill="#FFF" d="M27.278 30.466l-.046-1.289"/>
        <path fill="#EEF9F0" d="M27.278 30.97a.502.502 0 0 1-.5-.486l-.046-1.288a.502.502 0 0 1 .482-.521.503.503 0 0 1 .517.484l.047 1.289a.502.502 0 0 1-.482.521h-.018"/>
        <path fill="#FFF" d="M27.278 39.083l-.046-1.289"/>
        <path fill="#EEF9F0" d="M27.278 39.586a.502.502 0 0 1-.5-.485l-.046-1.288a.502.502 0 0 1 .482-.522c.275-.023.508.207.517.485l.047 1.289a.502.502 0 0 1-.5.52"/>
    </g>
</svg>
