<svg xmlns="http://www.w3.org/2000/svg" xmlns:xlink="http://www.w3.org/1999/xlink" width="85" height="84" viewBox="0 0 85 84">
    <defs>
        <path id="a" d="M0 .507h84.483v82.858H0z"/>
        <path id="c" d="M0 84.493h84.483V1.635H0z"/>
    </defs>
    <g fill="none" fill-rule="evenodd" transform="translate(0 -1)">
        <g transform="translate(0 1.128)">
            <mask id="b" fill="#fff">
                <use xlink:href="#a"/>
            </mask>
            <path fill="#9ACDF1" d="M84.483 41.937c0 22.88-18.913 41.429-42.241 41.429C18.912 83.366 0 64.816 0 41.936S18.912.507 42.242.507c23.328 0 42.241 18.55 42.241 41.43" mask="url(#b)"/>
        </g>
        <path fill="#359CE4" d="M64.15 57.44H19.485c-.729 0-1.32-.58-1.32-1.295V27.393c0-.75.62-1.358 1.383-1.358h44.538a1.37 1.37 0 0 1 1.384 1.358v28.752c0 .716-.592 1.294-1.32 1.294"/>
        <mask id="d" fill="#fff">
            <use xlink:href="#c"/>
        </mask>
        <path fill="#FFF" d="M19.973 55.113h43.689V28.047H19.973z" mask="url(#d)"/>
        <path fill="#062942" d="M15.808 62.613c0 .467.385.847.864.847h50.275c.476 0 .863-.38.863-.847H15.808z" mask="url(#d)"/>
        <path fill="#359CE4" d="M67.566 62.804H16.069a.23.23 0 0 1-.215-.322l2.059-4.601a.96.96 0 0 1 .876-.56h46.055c.382 0 .725.218.879.56l2.058 4.601a.23.23 0 0 1-.215.322" mask="url(#d)"/>
        <path fill="#0D83DD" d="M63.653 61.055H19.807l1.096-2.673h41.655zM42.224 27.02c0 .22-.181.399-.406.399a.402.402 0 0 1-.407-.399c0-.22.181-.399.407-.399.224 0 .406.178.406.399" mask="url(#d)"/>
        <path fill="#359CE4" d="M23.577 57.694H60.06V56.63H23.577zM41.721 30.522a11.11 11.11 0 0 0-4.291.852 11.029 11.029 0 0 0-3.505 2.315 10.798 10.798 0 0 0-2.362 3.437 10.57 10.57 0 0 0-.867 4.21c0 1.46.292 2.876.867 4.208a10.762 10.762 0 0 0 2.362 3.438A11.066 11.066 0 0 0 37.43 51.3c1.358.564 2.803.848 4.291.848 1.49 0 2.934-.284 4.292-.848a11.066 11.066 0 0 0 3.505-2.318 10.767 10.767 0 0 0 2.363-3.438c.574-1.332.865-2.747.865-4.209 0-1.458-.291-2.877-.865-4.209a10.803 10.803 0 0 0-2.363-3.437 11.029 11.029 0 0 0-3.505-2.315 11.103 11.103 0 0 0-4.292-.852m0 22.022c-1.543 0-3.038-.298-4.448-.881a11.43 11.43 0 0 1-3.634-2.401 11.163 11.163 0 0 1-2.446-3.564 10.943 10.943 0 0 1-.899-4.363c0-1.513.302-2.98.899-4.362a11.157 11.157 0 0 1 2.446-3.562 11.43 11.43 0 0 1 3.634-2.402 11.538 11.538 0 0 1 4.448-.88c1.544 0 3.039.295 4.449.88a11.43 11.43 0 0 1 3.633 2.402 11.13 11.13 0 0 1 2.447 3.562c.596 1.382.898 2.849.898 4.362 0 1.514-.302 2.98-.899 4.363a11.137 11.137 0 0 1-2.446 3.564 11.43 11.43 0 0 1-3.633 2.4c-1.41.584-2.906.882-4.449.882" mask="url(#d)"/>
        <path fill="#359CE4" d="M41.721 30.931c-1.433 0-2.823.275-4.13.819a10.568 10.568 0 0 0-3.372 2.228 10.331 10.331 0 0 0-2.271 3.308 10.12 10.12 0 0 0-.835 4.05c0 1.407.28 2.77.835 4.05a10.325 10.325 0 0 0 2.271 3.307 10.618 10.618 0 0 0 3.372 2.23 10.869 10.869 0 0 0 8.26 0 10.618 10.618 0 0 0 3.372-2.23 10.339 10.339 0 0 0 2.273-3.307 10.16 10.16 0 0 0 .834-4.05c0-1.405-.28-2.768-.834-4.05a10.346 10.346 0 0 0-2.273-3.308 10.568 10.568 0 0 0-3.372-2.228 10.684 10.684 0 0 0-4.13-.819m0 22.022c-1.596 0-3.148-.31-4.611-.914a11.831 11.831 0 0 1-3.764-2.488 11.626 11.626 0 0 1-2.538-3.693 11.393 11.393 0 0 1-.93-4.523c0-1.566.313-3.086.93-4.521a11.607 11.607 0 0 1 2.538-3.693 11.864 11.864 0 0 1 3.764-2.49 12.175 12.175 0 0 1 9.223 0 11.864 11.864 0 0 1 3.763 2.49 11.572 11.572 0 0 1 2.539 3.693c.616 1.435.93 2.955.93 4.521 0 1.566-.314 3.088-.93 4.523a11.59 11.59 0 0 1-2.539 3.693 11.831 11.831 0 0 1-3.763 2.488 12.015 12.015 0 0 1-4.612.914" mask="url(#d)"/>
        <path fill="#359CE4" d="M41.721 30.522c-.608 0-1.206.273-1.771.811-.567.536-1.077 1.31-1.519 2.295-.915 2.056-1.42 4.793-1.42 7.707 0 2.915.505 5.651 1.42 7.708.442.987.952 1.758 1.519 2.296.564.536 1.163.81 1.771.81.609 0 1.207-.274 1.772-.81.566-.538 1.076-1.31 1.518-2.296.915-2.057 1.422-4.793 1.422-7.708 0-2.914-.507-5.65-1.422-7.707-.442-.986-.952-1.759-1.518-2.295-.565-.538-1.163-.81-1.772-.81m0 22.02c-1.396 0-2.695-1.187-3.656-3.342-.94-2.104-1.457-4.897-1.457-7.866 0-2.966.517-5.76 1.457-7.864.961-2.156 2.26-3.343 3.656-3.343 1.397 0 2.697 1.187 3.659 3.343.938 2.104 1.454 4.898 1.454 7.864 0 2.969-.516 5.762-1.455 7.866-.961 2.155-2.261 3.343-3.658 3.343" mask="url(#d)"/>
        <path fill="#359CE4" d="M41.721 30.931c-.498 0-.996.235-1.483.696-.525.497-1.004 1.226-1.425 2.166-.894 2.006-1.385 4.683-1.385 7.542 0 2.86.492 5.538 1.387 7.542.418.94.898 1.67 1.423 2.17.973.922 1.993.922 2.967 0 .525-.5 1.005-1.23 1.425-2.17.893-2.005 1.386-4.686 1.386-7.542 0-2.855-.493-5.534-1.388-7.542-.42-.94-.898-1.669-1.423-2.166-.487-.46-.986-.696-1.484-.696m0 22.022c-1.571 0-3.006-1.275-4.04-3.588-.962-2.155-1.49-5.007-1.49-8.03 0-3.02.528-5.874 1.49-8.029 1.034-2.313 2.469-3.586 4.04-3.586 1.572 0 3.009 1.273 4.042 3.586.96 2.156 1.488 5.009 1.488 8.03 0 3.022-.528 5.873-1.488 8.029-1.033 2.313-2.47 3.588-4.042 3.588" mask="url(#d)"/>
        <path fill="#359CE4" d="M32.427 35.377h18.586v-.394H32.427z" mask="url(#d)"/>
        <path fill="#359CE4" d="M32.01 35.785h19.42v-1.211H32.01zM30.493 41.534h22.452v-.395H30.493z" mask="url(#d)"/>
        <path fill="#359CE4" d="M30.077 41.943h23.285V40.73H30.077zM32.505 47.688h18.568v-.394H32.505z" mask="url(#d)"/>
        <path fill="#359CE4" d="M32.088 48.097H51.49v-1.211H32.088z" mask="url(#d)"/>
    </g>
</svg>
