<svg xmlns="http://www.w3.org/2000/svg" xmlns:xlink="http://www.w3.org/1999/xlink" width="55" height="55" viewBox="0 0 55 55">
    <defs>
        <circle id="a" cx="27.5" cy="27.5" r="27.5"/>
        <path id="b" d="M0 0h35v35H0z"/>
    </defs>
    <g fill="none" fill-rule="evenodd">
        <use fill="#6665CE" fill-opacity=".3" xlink:href="#a"/>
        <g transform="translate(9 10)">
            <mask id="c" fill="#fff">
                <use xlink:href="#b"/>
            </mask>
            <path fill="#6665CE" d="M28.995 18.953c-3.063 0-3.962-1.366-4.214-2.717h8.43c-.253 1.353-1.156 2.717-4.216 2.717zm.009-13.233l4.177 9.377H24.82l4.184-9.377zM6.005 18.953c-3.06 0-3.963-1.364-4.215-2.717h8.43c-.252 1.35-1.15 2.717-4.215 2.717zm4.176-3.856H1.82L5.997 5.72l4.184 9.377zm24.662-.445l-4.71-10.573a2.37 2.37 0 0 0 .738-.648l1.503-2.072A.857.857 0 0 0 32.19.165a.845.845 0 0 0-1.187.186L29.5 2.424c-.158.217-.58.364-.84.29l-6.96-1.98a2.7 2.7 0 0 0-1.787.114L17.5 1.878 15.088.847a2.693 2.693 0 0 0-1.787-.113l-6.96 1.98c-.258.075-.682-.074-.84-.291L3.998.35A.845.845 0 0 0 2.812.165a.856.856 0 0 0-.186 1.193L4.13 3.43c.193.265.45.484.74.651L.156 14.651c-.107.212-.161.446-.156.68.076 3.438 2.209 5.331 6.005 5.331 3.784 0 5.916-1.883 6.003-5.301.007-.24-.048-.48-.159-.696L7.201 4.246l6.562-1.867a.998.998 0 0 1 .662.042l2.286.975c-.005.039-.012.076-.012.116v30.236H7.188a.624.624 0 0 0-.622.625c0 .347.278.627.622.627h20.91c.344 0 .623-.28.623-.627a.625.625 0 0 0-.623-.625h-9.7V3.512a.94.94 0 0 0-.015-.155l2.192-.936c.209-.09.444-.103.662-.042l6.565 1.868-4.651 10.42a1.447 1.447 0 0 0-.16.693c.089 3.419 2.22 5.302 6.004 5.302 3.796 0 5.929-1.893 6.005-5.333a1.417 1.417 0 0 0-.157-.677z" mask="url(#c)"/>
        </g>
    </g>
</svg>
