<svg xmlns="http://www.w3.org/2000/svg" xmlns:xlink="http://www.w3.org/1999/xlink" width="55" height="55" viewBox="0 0 55 55">
    <defs>
        <path id="a" d="M0 0h55v55H0z"/>
    </defs>
    <g fill="none" fill-rule="evenodd">
        <g>
            <mask id="b" fill="#fff">
                <use xlink:href="#a"/>
            </mask>
            <path fill="#B5D881" d="M55 27.5C55 42.688 42.688 55 27.5 55S0 42.688 0 27.5 12.312 0 27.5 0 55 12.312 55 27.5" mask="url(#b)"/>
        </g>
        <path fill="#63AE11" d="M29.543 17.118a5.83 5.83 0 0 0-3.587 5.419 5.85 5.85 0 0 0 1.71 4.163 6.04 6.04 0 0 0 1.877 1.27c.717.315 1.48.47 2.287.47.807 0 1.568-.155 2.285-.47a6.04 6.04 0 0 0 1.876-1.27 6.066 6.066 0 0 0 1.273-1.877 5.658 5.658 0 0 0 .469-2.286c0-.808-.157-1.57-.47-2.285a6.066 6.066 0 0 0-1.272-1.877 5.83 5.83 0 0 0-1.876-1.257 5.819 5.819 0 0 0-2.285-.455c-.808 0-1.57.153-2.287.455zm-4.737 14.743c-.686 1.191-1.03 2.503-1.03 3.936v.06c0 .485.132.919.394 1.303.262.383.606.654 1.03.816.524.203 1.31.399 2.36.59 1.05.193 2.473.288 4.27.288 1.795 0 3.219-.09 4.267-.272 1.05-.181 1.837-.374 2.362-.575a2.344 2.344 0 0 0 1.029-.847c.262-.384.394-.818.394-1.302v-.061c0-1.433-.344-2.745-1.03-3.936-.685-1.19-1.584-2.139-2.694-2.845a7.87 7.87 0 0 1-4.328 1.271c-.788 0-1.55-.117-2.287-.348a7.92 7.92 0 0 1-2.013-.953h.03a8.163 8.163 0 0 0-2.754 2.875zm-3.664-16.014c-1.453 0-2.7.52-3.738 1.56-1.04 1.038-1.559 2.294-1.559 3.768 0 1.453.52 2.698 1.56 3.738 1.038 1.04 2.284 1.56 3.737 1.56a5.241 5.241 0 0 0 3.422-1.242 9.351 9.351 0 0 1-.349-1.286 7.19 7.19 0 0 1-.135-1.408c0-.827.125-1.62.377-2.377.253-.756.6-1.448 1.045-2.073a5.3 5.3 0 0 0-1.861-1.635 5.17 5.17 0 0 0-2.468-.605h-.03zM14.8 29.833c-.635 1.09-.953 2.29-.953 3.603v.03c0 .423.115.802.348 1.135.232.333.52.57.862.712.485.182 1.212.362 2.18.545.97.18 2.28.272 3.936.272h.605l.151-.03V35.766c0-1.614.36-3.109 1.076-4.48.716-1.374 1.669-2.504 2.86-3.391a4.29 4.29 0 0 0-.393-.349 5.244 5.244 0 0 0-.455-.318 7.658 7.658 0 0 1-1.816.802 7.067 7.067 0 0 1-2.028.288 7.033 7.033 0 0 1-3.875-1.12l.03.03a7.346 7.346 0 0 0-2.528 2.604zm12.867 10.641c-1.221-.172-2.266-.418-3.134-.741a4.738 4.738 0 0 1-1.165-.712 3.585 3.585 0 0 1-.863-1.045h-1.332c-1.453 0-2.744-.075-3.875-.226-1.13-.153-2.09-.379-2.876-.682a3.9 3.9 0 0 1-1.755-1.422 3.758 3.758 0 0 1-.667-2.18v-.03c0-1.535.347-2.952 1.045-4.254.696-1.302 1.618-2.366 2.77-3.194a7.432 7.432 0 0 1-1.332-2.21 7.175 7.175 0 0 1-.485-2.634c0-.988.186-1.917.56-2.785a7.2 7.2 0 0 1 1.529-2.27 7.197 7.197 0 0 1 2.27-1.528A6.949 6.949 0 0 1 21.143 14a7.03 7.03 0 0 1 3.164.726 7.108 7.108 0 0 1 2.437 1.937 7.954 7.954 0 0 1 2.332-1.376 7.62 7.62 0 0 1 2.755-.5c1.07 0 2.078.202 3.026.605.95.405 1.77.959 2.467 1.665a7.982 7.982 0 0 1 1.65 2.467c.404.94.607 1.943.607 3.013 0 .989-.177 1.932-.531 2.831a7.656 7.656 0 0 1-1.468 2.377 9.93 9.93 0 0 1 3.027 3.465c.748 1.403 1.13 2.932 1.15 4.587v.06a4.01 4.01 0 0 1-.725 2.346 4.265 4.265 0 0 1-1.878 1.53c-.888.323-1.943.57-3.164.741-1.22.172-2.607.257-4.161.257-1.555 0-2.943-.085-4.163-.257z"/>
    </g>
</svg>
