<svg xmlns="http://www.w3.org/2000/svg" xmlns:xlink="http://www.w3.org/1999/xlink" width="85" height="84" viewBox="0 0 85 84">
    <defs>
        <path id="a" d="M0 .507h84.483v82.858H0z"/>
    </defs>
    <g fill="none" fill-rule="evenodd">
        <g transform="translate(0 .128)">
            <mask id="b" fill="#fff">
                <use xlink:href="#a"/>
            </mask>
            <path fill="#FCB3CD" d="M84.483 41.937c0 22.88-18.912 41.429-42.242 41.429C18.913 83.366 0 64.816 0 41.936S18.913.507 42.24.507c23.33 0 42.242 18.55 42.242 41.43" mask="url(#b)"/>
        </g>
        <path fill="#F9679C" d="M18.129 38.854c1.48-1.3 3.778-1.278 5.233.046a3.817 3.817 0 0 1 1.147 1.942c.002.007.002.015.005.021.258 1.089 1.653 1.455 2.458.667l5.404-5.3 6.56 6.436-.122.12c-.694.68-1.58 1.12-2.535 1.333a3.894 3.894 0 0 0-1.877 1.022 3.761 3.761 0 0 0 .158 5.538c1.482 1.301 3.779 1.28 5.235-.047a3.789 3.789 0 0 0 1.145-1.937c.22-.94.667-1.811 1.36-2.491l.122-.118 6.562 6.434-5.427 5.322c-.8.786-.41 2.128.692 2.38l.026.005c.729.167 1.424.54 1.977 1.125a3.78 3.78 0 0 1 .048 5.132c-1.503 1.645-4.078 1.695-5.648.157a3.793 3.793 0 0 1-1.04-1.842l-.005-.023c-.258-1.082-1.627-1.465-2.426-.68l-5.429 5.324-6.561-6.435.123-.121c.693-.68 1.58-1.117 2.535-1.333a3.9 3.9 0 0 0 1.877-1.021 3.763 3.763 0 0 0-.159-5.54c-1.482-1.301-3.78-1.278-5.233.05a3.771 3.771 0 0 0-1.145 1.938c-.222.936-.669 1.81-1.362 2.49l-.122.119-6.561-6.438 5.405-5.299a1.424 1.424 0 0 0-.678-2.41c-.007-.003-.017-.003-.025-.006a3.912 3.912 0 0 1-1.877-1.02 3.763 3.763 0 0 1 .16-5.54"/>
        <path fill="#F9679C" d="M34.281 50.35c-1.276-1.402-1.213-3.616.14-5.042a4.027 4.027 0 0 1 1.964-1.138l.023-.006c1.093-.27 1.486-1.618.71-2.38l-5.21-5.11 6.561-6.435.119.116c.668.655 1.091 1.502 1.29 2.417.143.659.471 1.283.988 1.79 1.514 1.484 4.047 1.386 5.55-.253 1.33-1.448 1.349-3.662.047-5.04A3.657 3.657 0 0 0 44.54 28.2c-.935-.196-1.8-.611-2.468-1.265l-.118-.116 6.563-6.435 5.231 5.134c.774.755 2.124.356 2.397-.711l.005-.025a3.92 3.92 0 0 1 1.16-1.924c1.455-1.329 3.712-1.39 5.142-.139 1.62 1.42 1.625 3.899.056 5.439a4.04 4.04 0 0 1-1.863 1.036l-.023.005c-1.087.268-1.495 1.59-.723 2.349l5.233 5.134-6.562 6.434-.118-.116c-.669-.655-1.09-1.502-1.29-2.418a3.549 3.549 0 0 0-.988-1.79c-1.514-1.485-4.045-1.389-5.55.252-1.33 1.45-1.347 3.663-.045 5.04a3.657 3.657 0 0 0 1.921 1.069c.935.196 1.799.611 2.468 1.268l.117.115-6.561 6.435-5.212-5.111c-.775-.762-2.15-.376-2.425.695l-.008.024a3.887 3.887 0 0 1-1.056 1.826c-1.568 1.54-4.098 1.535-5.543-.056"/>
        <path fill="#FFF" d="M44.291 56.17a1.235 1.235 0 0 1-.925-.865 1.203 1.203 0 0 1 .32-1.215l5.557-5.45-6.82-6.688-.25.246c-.685.67-1.172 1.562-1.41 2.575a3.613 3.613 0 0 1-1.092 1.849c-1.387 1.263-3.578 1.283-4.988.046a3.583 3.583 0 0 1-1.235-2.611 3.559 3.559 0 0 1 1.085-2.67 3.737 3.737 0 0 1 1.788-.974c1.032-.23 1.938-.709 2.622-1.38l.251-.248-6.82-6.688-5.531 5.426c-.337.33-.814.447-1.27.32a1.232 1.232 0 0 1-.887-.921 3.992 3.992 0 0 0-1.2-2.032c-1.523-1.39-3.932-1.409-5.48-.049a3.937 3.937 0 0 0-1.357 2.867 3.915 3.915 0 0 0 1.19 2.933c.542.53 1.222.9 1.99 1.074.447.104.79.426.919.866.13.45.006.914-.329 1.242l-5.533 5.429 6.82 6.687.25-.245c.682-.669 1.17-1.56 1.41-2.575a3.598 3.598 0 0 1 1.093-1.848c1.385-1.264 3.577-1.284 4.985-.046a3.576 3.576 0 0 1 1.237 2.61 3.561 3.561 0 0 1-1.085 2.67 3.74 3.74 0 0 1-1.79.972c-1.032.234-1.938.711-2.622 1.383l-.25.247 6.819 6.687 5.558-5.45a1.251 1.251 0 0 1 1.235-.315c.447.126.777.466.887.932.173.73.55 1.397 1.09 1.927a4.063 4.063 0 0 0 2.99 1.167 4.073 4.073 0 0 0 2.925-1.33 3.962 3.962 0 0 0-.052-5.375 4.098 4.098 0 0 0-2.095-1.18"/>
        <path fill="#FDD9E6" d="M60.028 27.541a1.15 1.15 0 0 1-.298-1.149c.127-.45.477-.786.96-.905a4.19 4.19 0 0 0 1.947-1.082 4.02 4.02 0 0 0 1.221-2.972 3.727 3.727 0 0 0-1.283-2.725c-1.498-1.311-3.865-1.25-5.388.14a4.119 4.119 0 0 0-1.219 2.037c-.115.45-.456.793-.915.917-.43.121-.868.007-1.173-.29l-5.363-5.26-6.82 6.69.246.24c.66.647 1.545 1.102 2.56 1.314a3.477 3.477 0 0 1 1.825 1.015c1.239 1.311 1.219 3.42-.046 4.8a3.83 3.83 0 0 1-2.71 1.24 3.522 3.522 0 0 1-2.575-.994 3.377 3.377 0 0 1-.94-1.701c-.214-.991-.679-1.857-1.34-2.506l-.247-.244-6.82 6.689 5.338 5.236c.314.305.427.748.305 1.183a1.28 1.28 0 0 1-.953.902 4.206 4.206 0 0 0-2.052 1.192c-1.418 1.492-1.481 3.812-.143 5.282a3.857 3.857 0 0 0 2.777 1.26 4.229 4.229 0 0 0 3.033-1.198c.54-.532.922-1.19 1.11-1.932.113-.448.457-.788.915-.913a1.23 1.23 0 0 1 1.203.3l3.86 3.784 1.482 1.453 6.818-6.689-.245-.24c-.66-.65-1.545-1.102-2.56-1.316a3.478 3.478 0 0 1-1.823-1.017c-1.242-1.31-1.22-3.416.043-4.797a3.846 3.846 0 0 1 2.712-1.241c.993-.023 1.895.328 2.575.995.475.465.798 1.053.94 1.702.217.992.68 1.86 1.34 2.506l.247.243 6.82-6.688-5.364-5.26z"/>
        <path fill="#F9679C" d="M48.288 49.575l-5.341-5.237a.885.885 0 0 0-.877-.216.949.949 0 0 0-.683.677 4.444 4.444 0 0 1-1.197 2.086c-.867.846-2.077 1.3-3.277 1.293a4.203 4.203 0 0 1-3.018-1.37c-1.45-1.594-1.385-4.108.148-5.723A4.52 4.52 0 0 1 36.26 39.8a.953.953 0 0 0 .712-.673.864.864 0 0 0-.219-.865l-5.34-5.236.472-.462 5.34 5.235c.398.391.543.953.39 1.501a1.617 1.617 0 0 1-1.193 1.134 3.863 3.863 0 0 0-1.89 1.097c-1.302 1.37-1.362 3.497-.139 4.842a3.52 3.52 0 0 0 2.539 1.15c1.025.051 2.05-.379 2.786-1.103a3.782 3.782 0 0 0 1.022-1.78 1.6 1.6 0 0 1 1.152-1.147 1.556 1.556 0 0 1 1.528.382l5.34 5.238-.472.462z"/>
    </g>
</svg>
