<svg xmlns="http://www.w3.org/2000/svg" xmlns:xlink="http://www.w3.org/1999/xlink" width="55" height="55" viewBox="0 0 55 55">
    <defs>
        <circle id="a" cx="27.5" cy="27.5" r="27.5"/>
        <path id="b" d="M0 .193h24.635v29.924H0z"/>
    </defs>
    <g fill="none" fill-rule="evenodd">
        <use fill="#CDE4F6" xlink:href="#a"/>
        <g transform="translate(14 11.44)">
            <mask id="c" fill="#fff">
                <use xlink:href="#b"/>
            </mask>
            <path fill="#0D83DD" d="M4.872 2.09a2.977 2.977 0 0 0-2.974 2.974v20.181a2.977 2.977 0 0 0 2.974 2.974h14.89a2.977 2.977 0 0 0 2.975-2.974V5.065a2.977 2.977 0 0 0-2.974-2.974H4.873zm14.89 28.027H4.873A4.877 4.877 0 0 1 0 25.245V5.065A4.877 4.877 0 0 1 4.872.192h14.89a4.877 4.877 0 0 1 4.873 4.871v20.181a4.877 4.877 0 0 1-4.872 4.872z" mask="url(#c)"/>
        </g>
        <path fill="#CDE4F6" d="M44.019 35.593a8.429 8.429 0 1 1-16.858 0 8.429 8.429 0 0 1 16.858 0"/>
        <path fill="#0D83DD" d="M35.59 28.113c-4.124 0-7.48 3.356-7.48 7.48 0 4.124 3.356 7.48 7.48 7.48 4.125 0 7.48-3.356 7.48-7.48 0-4.124-3.355-7.48-7.48-7.48m0 16.858c-5.17 0-9.377-4.207-9.377-9.379 0-5.17 4.206-9.377 9.377-9.377s9.378 4.207 9.378 9.377c0 5.172-4.207 9.379-9.378 9.379"/>
        <path fill="#0D83DD" d="M36.13 40.921v-.636c1.011-.094 1.793-.431 2.299-1.036.697-.836.622-1.826.585-2.102-.034-.847-.783-2.354-3.445-2.354-.74 0-1.268-.164-1.57-.49a1.211 1.211 0 0 1-.305-.841c.024-.225.23-1.349 1.875-1.349 1.318 0 1.68.75 1.721.846a.682.682 0 1 0 1.276-.488c-.024-.065-.567-1.448-2.437-1.685v-.753a.683.683 0 1 0-1.366 0v.787c-1.76.332-2.364 1.732-2.429 2.51-.01.108-.084 1.078.642 1.88.57.63 1.443.95 2.593.95 1.965 0 2.074.955 2.08 1.047 0 .036.003.079.009.115.001.005.093.617-.286 1.06-.408.478-1.205.578-1.803.578-2.242 0-2.343-1.059-2.347-1.163a.684.684 0 0 0-.67-.696c-.362.015-.689.293-.696.67-.002.086.003.866.68 1.555.515.525 1.267.836 2.227.948v.647a.683.683 0 1 0 1.366 0M20.23 29.814a.948.948 0 0 1-.726-1.559l4.508-5.377a.948.948 0 0 1 1.334-.12l3.061 2.552 3.348-4.085a.949.949 0 1 1 1.467 1.203l-3.954 4.824a.95.95 0 0 1-1.341.128l-3.07-2.558-3.9 4.653a.947.947 0 0 1-.727.339"/>
        <path fill="#0D83DD" d="M33.072 24.676a.949.949 0 0 1-.944-.874l-.113-1.424H30.6a.95.95 0 0 1 0-1.898h2.294c.495 0 .906.381.945.875l.181 2.298a.949.949 0 0 1-.947 1.023M27.952 32.821h-9.768a.632.632 0 1 1 0-1.265h9.768a.632.632 0 1 1 0 1.265"/>
    </g>
</svg>
