<svg xmlns="http://www.w3.org/2000/svg" xmlns:xlink="http://www.w3.org/1999/xlink" width="85" height="84" viewBox="0 0 85 84">
    <defs>
        <path id="a" d="M0 .507h84.483v82.858H0z"/>
    </defs>
    <g fill="none" fill-rule="evenodd">
        <g transform="translate(0 .128)">
            <mask id="b" fill="#fff">
                <use xlink:href="#a"/>
            </mask>
            <path fill="#F5DA66" d="M84.484 41.937c0 22.88-18.914 41.429-42.242 41.429C18.912 83.366 0 64.816 0 41.936S18.912.507 42.242.507c23.328 0 42.242 18.55 42.242 41.43" mask="url(#b)"/>
        </g>
        <path fill="#D26F00" d="M20.096 51.904c-.839.296-1.757-.129-2.05-.935a1.568 1.568 0 0 1 .968-2.019 1.61 1.61 0 0 1 2.041.957c.297.806-.138 1.708-.96 1.997zM18.463 35.58l-5.722 10.604 4.312 11.77 11.292 4.612L68.29 48.496l-9.881-26.99L18.464 35.58z"/>
        <path fill="#FAFDFE" d="M20.633 47.837c-.844.292-1.765-.138-2.06-.948-.299-.813.14-1.715.983-2.008a1.604 1.604 0 0 1 2.028.95 1.559 1.559 0 0 1-.951 2.006zM58.939 17.43L18.994 31.502 13.28 42.111l4.309 11.774 11.286 4.61.079-.033L68.82 44.424 58.939 17.43z"/>
        <path fill="#EAB100" d="M45.628 44.2l.658 1.795-1.55.546-.658-1.795c-.864.213-1.66.262-2.389.15-.846-.137-1.558-.444-2.131-.924-.258-.206-.56-.546-.905-1.014l2.428-1.527c.737 1 1.767 1.267 3.088.801.8-.282 1.302-.686 1.5-1.213.092-.243.092-.49.002-.735a1.004 1.004 0 0 0-.53-.59c-.25-.11-.521-.16-.815-.15-.352.01-.778.052-1.283.12-1.349.192-2.408.216-3.177.076-1.203-.236-2.032-.98-2.486-2.225-.326-.881-.339-1.74-.044-2.575.37-1.05 1.123-1.863 2.257-2.447l-.547-1.49 1.548-.546.54 1.47c.794-.186 1.49-.243 2.09-.17.804.099 1.504.391 2.099.87.188.156.428.394.72.716l-2.145 1.651c-.35-.38-.662-.63-.937-.747-.451-.188-1.021-.162-1.708.079-1.103.389-1.525.941-1.267 1.652.14.378.414.61.824.7.28.052.74.03 1.38-.06.95-.135 1.661-.21 2.133-.228.995-.046 1.846.14 2.548.551a3.428 3.428 0 0 1 1.532 1.839c.386 1.056.32 2.11-.2 3.16-.464.931-1.324 1.683-2.575 2.26"/>
        <path fill="#FCF3CC" d="M20.633 47.837c-.844.292-1.765-.138-2.06-.948-.299-.813.14-1.715.983-2.008a1.604 1.604 0 0 1 2.028.95 1.559 1.559 0 0 1-.951 2.006zm-1.639-16.335L13.28 42.111l4.309 11.774 11.286 4.61.079-.033-9.959-26.96z"/>
    </g>
</svg>
