<svg xmlns="http://www.w3.org/2000/svg" xmlns:xlink="http://www.w3.org/1999/xlink" width="85" height="84" viewBox="0 0 85 84">
    <defs>
        <path id="a" d="M0 .507h84.483v82.858H0z"/>
    </defs>
    <g fill="none" fill-rule="evenodd">
        <g transform="translate(0 .128)">
            <mask id="b" fill="#fff">
                <use xlink:href="#a"/>
            </mask>
            <path fill="#9ACDF1" d="M84.483 41.936c0 22.881-18.912 41.43-42.242 41.43S0 64.816 0 41.935 18.912.506 42.242.506s42.241 18.549 42.241 41.43" mask="url(#b)"/>
        </g>
        <path fill="#FFF" d="M59.873 41.159c.715-4.345.627-6.864-.235-10.079-1.74-6.517-7.112-9.46-16.877-9.976-5-.267-9.018.71-11.776 2.39-.489.305-.932.608-1.35.956-1.81 1.515-2.829 3.384-2.949 5.425-.278 5.058-.355 9.808-.721 11.327-.31 1.36-3.917 3.705-3.962 4.424-.032.728 3.5.846 3.443 1.684-.013.348-.101 1.824-.19 3.408l2.797-.703a1.137 1.137 0 0 1 1.52.391c.285.523.12 1.174-.412 1.48L25.39 53.13a.686.686 0 0 1-.274.106c-.025.564-.056 1.087-.068 1.435-.032.371-.032.589-.032.589-.133 2.328 1.037 3.563 4.05 4.431 2.994.868 4.405.316 4.797 1.447.12.353 0 3.326-.203 7.026-.025.446-.05.905-.082 1.37h19.505a322.563 322.563 0 0 1-.747-5.194c-.468-3.39-.76-5.99-.621-6.461 1.311-4.599 6.64-7.727 8.158-16.721"/>
        <path fill="#9ACDF1" d="M48.49 44.18c-3.037-1.18-2.834-4.043-6.08-6.093-4.77-3.01-8.237-1.824-9.817-4.534-1.817-3.114-.19-6.374 2.615-8.084 2.968-1.81 9.845-2.268 14.883.911 6.984 4.409 8.714 11.676 6.407 15.378-1.17 1.875-4.237 3.886-8.008 2.421"/>
        <path fill="#0D83DD" d="M31.937 18.831a.556.556 0 0 1-.48-.27l-1.867-3.172a.539.539 0 0 1 .204-.744.559.559 0 0 1 .755.201l1.866 3.171a.537.537 0 0 1-.201.743.568.568 0 0 1-.277.071M54.083 18.831a.568.568 0 0 1-.277-.071.537.537 0 0 1-.201-.743l1.866-3.17a.56.56 0 0 1 .755-.202c.265.15.357.482.203.744l-1.866 3.171a.556.556 0 0 1-.48.271M42.388 17.123a.548.548 0 0 1-.555-.542v-5.004c0-.299.248-.542.555-.542a.55.55 0 0 1 .555.542v5.004c0 .3-.249.542-.555.542"/>
        <path fill="#9ACDF1" d="M32.485 39.802c0 .883-.73 1.599-1.63 1.599-.9 0-1.628-.716-1.628-1.599 0-.882.728-1.598 1.628-1.598.9 0 1.63.716 1.63 1.598"/>
    </g>
</svg>
