<svg xmlns="http://www.w3.org/2000/svg" width="55" height="55" viewBox="0 0 55 55">
    <g fill="none" fill-rule="evenodd">
        <circle cx="27.5" cy="27.5" r="27.5" fill="#DDF0FE"/>
        <path fill="#66A0CF" d="M12.525 40.237h28.872V38.23H12.525v2.006zm2.6-3.53h23.672V34.7H15.124v2.005zm1.488-3.532H19V21.571h-2.386v11.604zm3.91 0h3.72v-11.62h-3.72v11.62zM26.96 11.68l12.521 8.35H14.44l12.52-8.35zm7.963 21.483h2.386V21.554h-2.386v11.609zm-9.155 0h2.385V21.555h-2.385v11.608zm3.91.012h3.72v-11.62h-3.72v11.62zm12.041 3.531h-1.397v-2.329c0-.663-.539-1.202-1.202-1.202h-.287v-11.62H42a.761.761 0 0 0 .422-1.397l-15.038-10.03a.761.761 0 0 0-.846 0l-15.04 10.03a.763.763 0 0 0 .424 1.397h3.166v11.62h-.287c-.663 0-1.202.54-1.202 1.202v2.329h-1.397c-.663 0-1.202.54-1.202 1.202v2.652c0 .663.54 1.202 1.202 1.202h29.517c.664 0 1.203-.539 1.203-1.202v-2.652c0-.663-.54-1.202-1.203-1.202z"/>
    </g>
</svg>
