<svg xmlns="http://www.w3.org/2000/svg" xmlns:xlink="http://www.w3.org/1999/xlink" width="55" height="55" viewBox="0 0 55 55">
    <defs>
        <path id="a" d="M0 .27h31.655V32H0z"/>
    </defs>
    <g fill="none" fill-rule="evenodd">
        <circle cx="27.5" cy="27.5" r="27.5" fill="#FDD9E6"/>
        <path fill="#FA8DB5" d="M32.393 20.143h-11.7c-.304 0-.55.204-.55.457s.246.457.55.457h11.7c.303 0 .55-.204.55-.457s-.247-.457-.55-.457M32.393 17.4h-11.7c-.304 0-.55.205-.55.457 0 .253.246.457.55.457h11.7c.303 0 .55-.204.55-.457 0-.252-.247-.457-.55-.457"/>
        <g transform="translate(11 11)">
            <mask id="b" fill="#fff">
                <use xlink:href="#a"/>
            </mask>
            <path fill="#FA8DB5" d="M1.622 24.452V4.056c0-1.2 1.03-2.177 2.295-2.177H5.7V26.63H3.917c-1.265 0-2.295-.977-2.295-2.178zm5.616 2.255h17.655v-24.9H7.238v24.9zm23.849 4.158H5.636c-.968 0-2.483 0-3.482-1.714.985.783 2.196.96 3.387.96h22.497c.627 0 1.136-.488 1.136-1.088V3.561a.57.57 0 1 0-1.142 0V28.97H5.541c-1.076 0-2.142-.124-2.958-.967.417.148.865.233 1.334.233H5.7v.01h19.444c.709 0 1.285-.577 1.285-1.286V1.554c0-.709-.576-1.285-1.285-1.285H5.701v.005H3.917c-2.15 0-3.9 1.697-3.9 3.782v18.947c-.005.036-.018.07-.017.108.004.11.012.214.018.321v1.02c0 .109.007.216.016.322 0 .02-.01.038-.009.058C.287 31.186 3.161 32 5.635 32h25.452a.568.568 0 1 0 0-1.135z" mask="url(#b)"/>
        </g>
        <path fill="#FA8DB5" d="M14.657 17.4a.914.914 0 1 0 0-1.829.914.914 0 0 0 0 1.829M14.657 35.686a.914.914 0 1 0 0-1.83.914.914 0 0 0 0 1.83"/>
    </g>
</svg>
