<?xml version="1.0" encoding="UTF-8"?>
<svg width="128px" height="32px" viewBox="0 0 128 32" version="1.1" xmlns="http://www.w3.org/2000/svg" xmlns:xlink="http://www.w3.org/1999/xlink">
    <!-- Generator: Sketch 47.1 (45422) - http://www.bohemiancoding.com/sketch -->
    <title>Page 1</title>
    <desc>Created with Sketch.</desc>
    <defs>
        <polygon id="path-1" points="30.8060897 32 0 32 0 16.0481415 0 0.0962829932 30.8060897 0.0962829932"></polygon>
        <polygon id="path-3" points="0 31 128 31 128 0 0 0"></polygon>
    </defs>
    <g id="Hi-Fi-Design" stroke="none" stroke-width="1" fill="none" fill-rule="evenodd">
        <g id="05-Default-Load-(Top-Picks)-1280" transform="translate(-496.000000, -995.000000)">
            <g id="Page-1" transform="translate(496.000000, 995.000000)">
                <g id="Group-3">
                    <mask id="mask-2" fill="white">
                        <use xlink:href="#path-1"></use>
                    </mask>
                    <g id="Clip-2"></g>
                    <path d="M23.2459379,9.13856871 C22.2686897,8.11500408 21.204,7.33307211 20.0522966,6.79277279 C18.9003793,6.25247347 17.4938345,5.98232381 15.8324483,5.98232381 C14.5060759,5.98232381 13.2530345,6.22395646 12.0733241,6.70743946 C10.8934,7.19070476 9.86377241,7.86618776 8.98422759,8.73345306 C8.09078621,9.61486803 7.38569655,10.6741333 6.86895862,11.9110313 C6.35243448,13.1479293 6.09417241,14.5269769 6.09417241,16.0481741 C6.09417241,17.5693714 6.35243448,18.948419 6.86895862,20.185317 C7.38569655,21.422215 8.09762759,22.4705959 8.99470345,23.3415619 C9.89883448,24.2194939 10.9389379,24.9056435 12.1254897,25.3889088 C13.3122552,25.8723918 14.5828276,26.1140245 15.9369931,26.1140245 C17.3751793,26.1140245 18.6282207,25.9078748 19.6961172,25.4955755 C20.7642276,25.0832762 21.6790483,24.5179429 22.4502,23.8108952 C22.9645862,23.3391673 23.4274483,22.7516299 23.8323724,22.0406639 C24.2372966,21.3299156 24.5584138,20.5408 24.7957241,19.6735347 L15.7486414,19.6735347 L15.7486414,14.4488272 L30.4920276,14.4488272 C30.5758345,14.7899429 30.6489517,15.2163918 30.7118069,15.7283918 C30.7746621,16.2401741 30.8060897,16.7378068 30.8060897,17.2210721 C30.8060897,19.2825687 30.5059241,21.1664327 29.9055931,22.8724463 C29.3052621,24.5784599 28.3977103,26.0926912 27.1831517,27.4149224 C25.8428828,28.8651537 24.2302414,29.991902 22.3454414,30.7951673 C20.4606414,31.5984327 18.3105241,32.0000653 15.8950897,32.0000653 C13.7171793,32.0000653 11.6613448,31.6019156 9.72758621,30.805834 C7.79404138,30.0095347 6.11170345,28.8969361 4.67009655,27.4789224 C3.23554483,26.0676571 2.09431724,24.3936435 1.25646207,22.4459973 C0.41882069,20.4981333 0,18.3656707 0,16.0481741 C0,13.7306776 0.41882069,11.598215 1.25646207,9.65035102 C2.09431724,7.70270476 3.22848966,6.01410612 4.67009655,4.59609252 C6.10464828,3.1850449 7.79404138,2.08681361 9.72758621,1.29051429 C11.6613448,0.494432653 13.7171793,0.0962829932 15.8950897,0.0962829932 C18.3804345,0.0962829932 20.5722414,0.529915646 22.4711517,1.39718095 C24.3698483,2.26444626 26.0173379,3.45867755 27.4134069,4.98009252 L23.2459379,9.13856871 Z" id="Fill-1" fill="#FFFFFF" mask="url(#mask-2)"></path>
                </g>
                <path d="M61,22.4009349 C61,25.0037122 60.061429,27.0951994 58.1838703,28.6734928 C56.2788108,30.2247091 53.9656135,31 51.2451118,31 C48.8227445,31 46.6870527,30.2816132 44.8365782,28.8448395 C42.9858954,27.4087004 41.7073138,25.446252 41,22.9598212 L44.5917789,21.4674127 C44.8365782,22.3520693 45.1765889,23.1533795 45.6122275,23.8711317 C46.0470327,24.5901532 46.557257,25.2046743 47.142692,25.7159644 C47.7275019,26.2272544 48.3735638,26.6272749 49.0817109,26.9177181 C49.7890247,27.2077382 50.5369647,27.352431 51.326781,27.352431 C53.0410013,27.352431 54.4420867,26.9041796 55.5306624,26.005773 C56.6188214,25.1082125 57.1634218,23.913228 57.1634218,22.4208195 C57.1634218,21.1773926 56.7144494,20.1139855 55.8162963,19.2293289 C54.9727283,18.3738647 53.3941373,17.5446313 51.081565,16.7428981 C48.7410752,15.8872224 47.2858214,15.306759 46.7143452,15.0025658 C43.612165,13.4007916 42.0612832,11.0385342 42.0612832,7.91579378 C42.0612832,5.73334471 42.9183933,3.86820431 44.6326135,2.32079566 C46.3737096,0.774021632 48.5102347,0 51.0407304,0 C53.2718418,0 55.2039855,0.580463339 56.8367449,1.7407554 C58.4695043,2.87397045 59.5574549,4.29657102 60.1022636,6.00919172 L56.5919456,7.50096557 C56.2652687,6.39673138 55.6187902,5.47738237 54.6529267,4.74545703 C53.6870631,4.01353168 52.5103597,3.64693439 51.1223997,3.64693439 C49.6531871,3.64693439 48.4146067,4.05985875 47.4083253,4.88507284 C46.4012105,5.65549831 45.8978614,6.65946296 45.8978614,7.89654372 C45.8978614,8.91489304 46.2920404,9.79574192 47.0816484,10.5382442 C47.9523006,11.2807465 49.843193,12.1611723 52.755159,13.1786755 C55.7206684,14.2037941 57.8367761,15.4569518 59.102024,16.9387833 C60.3672719,18.4201917 61,20.2409089 61,22.4009349" id="Fill-4" fill="#FFFFFF"></path>
                <path d="M83,31.3040461 L79.3502929,31.3040461 L79.3502929,28.3477954 L79.1845318,28.3477954 C78.6038388,29.3906166 77.7119469,30.260559 76.5092795,30.956513 C75.3064004,31.6515792 74.055042,32 72.7558394,32 C70.2675182,32 68.3522687,31.2534474 67.0115729,29.7603422 C65.670242,28.2681246 65,26.1451989 65,23.3913429 L65,10 L68.8156799,10 L68.8156799,23.1299164 C68.8984546,26.6083544 70.5710959,28.3477954 73.8342389,28.3477954 C75.3544563,28.3477954 76.626773,27.7031059 77.6497071,26.4130612 C78.6724296,25.1230166 79.1845318,23.5799784 79.1845318,21.7821714 L79.1845318,10 L83,10 L83,31.3040461 Z" id="Fill-6" fill="#FFFFFF"></path>
                <mask id="mask-4" fill="white">
                    <use xlink:href="#path-3"></use>
                </mask>
                <g id="Clip-9"></g>
                <path d="M87.7310848,31 L91.2693078,31 L91.2693078,10.6963523 L87.7310848,10.6963523 L87.7310848,31 Z M92,3.69370144 C92,4.43924931 91.7561742,5.07523865 91.2693078,5.59934293 C90.7818524,6.12492774 90.1923122,6.38697988 89.5000982,6.38697988 C88.8078841,6.38697988 88.2175586,6.12492774 87.7310848,5.59934293 C87.2436295,5.07523865 87,4.43924931 87,3.69370144 C87,2.94773057 87.2436295,2.31216424 87.7310848,1.78742545 C88.2175586,1.26332116 88.8078841,1 89.5000982,1 C90.1923122,1 90.7818524,1.26332116 91.2693078,1.78742545 C91.7561742,2.31216424 92,2.94773057 92,3.69370144 L92,3.69370144 Z" id="Fill-8" fill="#FFFFFF" mask="url(#mask-4)"></path>
                <path d="M103.47741,32 C101.799914,32 100.40903,31.4865934 99.3049692,30.458504 C98.2000527,29.4310527 97.6341094,28.0001497 97.6064972,26.1666457 L97.6064972,14.7504726 L94,14.7504726 L94,11.2504175 L97.6064972,11.2504175 L97.6064972,5 L101.464287,5 L101.464287,11.2504175 L106.496773,11.2504175 L106.496773,14.7504726 L101.464287,14.7504726 L101.464287,24.9167323 C101.464287,26.2778767 101.729921,27.2021788 102.261402,27.6875118 C102.792028,28.1743336 103.393503,28.4167874 104.064544,28.4167874 C104.371703,28.4167874 104.67244,28.3825462 104.9659,28.3127875 C105.259575,28.2438796 105.532058,28.1530657 105.783778,28.0418347 L107,31.4585198 C105.993332,31.819223 104.819278,32 103.47741,32" id="Fill-10" fill="#FFFFFF" mask="url(#mask-4)"></path>
                <path d="M112.208254,17.5132006 L123.916588,17.5132006 C123.805357,16.0804944 123.229213,14.8941018 122.187305,13.9523018 C121.14561,13.0111472 119.750019,12.5402472 117.999894,12.5402472 C116.555387,12.5402472 115.312285,12.9896351 114.270803,13.8888411 C113.229107,14.7884773 112.541733,15.9961669 112.208254,17.5132006 M118.333372,31 C115.333128,31 112.860537,29.9607502 110.916662,27.881175 C108.97215,25.80203 108,23.1751868 108,19.9997849 C108,16.8536395 108.944076,14.2332499 110.833293,12.1396918 C112.721871,10.0467791 115.138528,9 118.083263,9 C121.110518,9 123.520582,9.99020221 125.312392,11.971252 C127.104201,13.9523018 128,16.7273634 128,20.2951461 L127.958315,20.7163531 L111.916673,20.7163531 C111.971969,22.7395666 112.638714,24.3691086 113.916694,25.6051942 C115.193824,26.8419251 116.722126,27.4599679 118.499899,27.4599679 C120.943991,27.4599679 122.860643,26.2238823 124.250066,23.7506356 L127.666521,25.4367544 C126.74988,27.1788047 125.479131,28.5418117 123.854061,29.5244847 C122.22899,30.507803 120.38869,31 118.333372,31" id="Fill-11" fill="#FFFFFF" mask="url(#mask-4)"></path>
            </g>
        </g>
    </g>
</svg>