<?xml version="1.0" encoding="UTF-8"?>
<svg width="158px" height="41px" viewBox="0 0 158 41" version="1.1" xmlns="http://www.w3.org/2000/svg" xmlns:xlink="http://www.w3.org/1999/xlink">
    <!-- Generator: Sketch 47.1 (45422) - http://www.bohemiancoding.com/sketch -->
    <title>Page 1 Copy 14</title>
    <desc>Created with Sketch.</desc>
    <defs></defs>
    <g id="Hi-Fi-Design" stroke="none" stroke-width="1" fill="none" fill-rule="evenodd">
        <g id="05-Default-Load-(Top-Picks)-1280" transform="translate(-1099.000000, -581.000000)" fill="#FFFFFF">
            <g id="Page-1-Copy-14" transform="translate(1099.000000, 581.000000)">
                <path d="M68.8281701,11.0815483 C69.2529645,11.3858155 69.6494393,11.7454039 70.0459141,12.1326531 C70.7255852,12.768848 70.7255852,13.8199528 70.0459141,14.4561477 L69.9892749,14.5114691 C69.3379234,15.1200034 68.2900972,15.0923427 67.6670654,14.4561477 C67.2139513,13.9859167 66.704198,13.5986676 66.1944447,13.2667398 C64.8634222,12.4092596 63.4191211,11.9666892 61.8049023,11.9666892 C59.3694143,11.9666892 57.3020815,12.7965087 55.659543,14.4284871 C53.988685,16.0604655 53.1674157,18.079693 53.1674157,20.5138303 C53.1674157,23.0309496 54.1019635,25.1054984 55.9427393,26.7374768 C57.6702366,28.2588126 59.5393321,29.0056502 61.5500257,29.0056502 C63.277523,29.0056502 64.8067829,28.4524372 66.1661251,27.3183505 C67.5254672,26.1842638 68.2900972,24.8288919 68.460015,23.2245741 L66.0528466,23.2245741 L64.3536689,23.2245741 C63.4474408,23.2245741 62.7111304,22.5053972 62.7111304,21.6202564 C62.7111304,20.7351155 63.4474408,20.0159386 64.3536689,20.0159386 L66.0528466,20.0159386 L70.4423889,20.0159386 C71.4618955,20.0159386 72.2265255,20.8457581 72.1698862,21.8415416 C72.0566077,23.0586102 71.9150096,24.5522854 71.6884526,25.2714623 C71.2919778,26.4885309 70.6123067,27.6226176 69.677759,28.6737224 C67.5254672,31.0248777 64.8067829,32.2142857 61.4933864,32.2142857 C58.2649488,32.2142857 55.4896253,31.080199 53.1957354,28.784365 C50.9018455,26.4885309 49.7407407,23.7501265 49.7407407,20.541491 C49.7407407,17.2775342 50.9018455,14.4838084 53.2523746,12.215635 C55.6029038,9.91980098 58.4631862,8.78571429 61.8049023,8.78571429 C63.6173585,8.78571429 65.2882166,9.14530275 66.8741158,9.86447968 C67.4971476,10.1687468 68.148499,10.5836566 68.8281701,11.0815483" id="Fill-1"></path>
                <path d="M76.0740741,14.5653258 L76.0740741,10.5336943 C76.0740741,9.57512463 76.8865626,8.78571429 77.8731558,8.78571429 C78.859749,8.78571429 79.6722375,9.57512463 79.6722375,10.5336943 L79.6722375,14.1988138 L79.6722375,22.6567818 C79.6722375,24.6303077 79.9914294,26.0681623 80.6588307,26.9985388 C81.6454239,28.3236204 83.0382614,28.9720646 84.8373431,28.9720646 C86.6364249,28.9720646 88.0582798,28.3236204 89.044873,26.9985388 C89.7122743,26.1245487 90.0314662,24.6585009 90.0314662,22.6567818 L90.0314662,12.3944473 L90.0314662,10.5336943 C90.0314662,9.57512463 90.8439547,8.78571429 91.8305479,8.78571429 C92.8171411,8.78571429 93.6296296,9.57512463 93.6296296,10.5336943 L93.6296296,12.112515 L93.6296296,23.6153516 C93.6296296,26.0399691 92.8461586,28.0416882 91.3082339,29.5923156 C89.567187,31.3402957 87.4198959,32.2142857 84.8663606,32.2142857 C82.3128252,32.2142857 80.1655341,31.3402957 78.4535047,29.5923156 C76.8865626,28.0134949 76.132109,26.0117758 76.132109,23.6153516 L76.132109,14.5653258 L76.0740741,14.5653258 Z" id="Fill-3"></path>
                <path d="M126.567196,27.8501401 L126.567196,12.1162465 L128.907937,12.1162465 L132.001058,12.1162465 C132.892769,12.1162465 133.617284,11.3697479 133.617284,10.4509804 C133.617284,9.53221289 132.892769,8.78571429 132.001058,8.78571429 L128.796473,8.78571429 L120.631746,8.78571429 L117.677954,8.78571429 C116.786243,8.78571429 116.061728,9.53221289 116.061728,10.4509804 C116.061728,11.3697479 116.786243,12.1162465 117.677954,12.1162465 L120.631746,12.1162465 L123.139683,12.1162465 L123.139683,28.2808123 L123.139683,30.4341737 C123.139683,31.4103641 123.919929,32.2142857 124.867372,32.2142857 C125.814815,32.2142857 126.595062,31.4103641 126.595062,30.4341737 L126.595062,27.8501401 L126.567196,27.8501401 Z" id="Fill-5"></path>
                <path d="M137.165942,20.4308484 C137.165942,22.920307 138.024488,24.9671951 139.770199,26.5715129 C141.487292,28.1758307 143.490567,28.9779895 145.751406,28.9779895 C148.212572,28.9779895 150.273083,28.14817 151.961557,26.5161916 C153.650032,24.8565525 154.47996,22.837325 154.47996,20.458509 C154.47996,18.0520324 153.650032,16.0328049 151.990176,14.4008264 C150.330319,12.768848 148.298426,11.9390285 145.83726,11.9390285 C143.404712,11.9390285 141.344201,12.768848 139.684345,14.4008264 C138.024488,16.0604655 137.165942,18.0520324 137.165942,20.4308484 M133.617284,20.4031877 C133.617284,17.2222129 134.819249,14.4838084 137.223179,12.215635 C139.627108,9.94746163 142.517548,8.78571429 145.865878,8.78571429 C149.185591,8.78571429 152.047412,9.94746163 154.422724,12.2432957 C156.826653,14.5391297 158,17.3051948 158,20.541491 C158,23.7777871 156.798035,26.5438523 154.394105,28.8120256 C151.990176,31.080199 149.071118,32.2142857 145.665551,32.2142857 C142.660639,32.2142857 139.941909,31.2185023 137.537979,29.1992748 C134.933722,26.9311014 133.617284,24.026733 133.617284,20.4031877" id="Fill-7"></path>
                <path d="M99.2584253,29.2560636 L99.3420169,29.2560636 L99.314153,29.2560636 L99.2584253,29.2560636 Z M111.713583,21.4157488 C110.766211,20.3038496 109.456608,19.391522 107.394681,18.6217457 L104.859067,17.6809079 C103.02005,16.9966622 102.072678,16.0843347 102.072678,14.9439252 C102.072678,14.1171284 102.434908,13.4328827 103.131506,12.8911883 C103.828103,12.3494938 104.719747,12.0643914 105.778575,12.0643914 C106.642356,12.0643914 107.366817,12.2354528 107.896231,12.5490654 C108.147006,12.6916166 108.620692,13.0337394 108.955058,13.2903316 C109.818839,13.9175567 110.431844,13.9175567 110.989122,13.6039441 L111.04485,13.5754339 C112.020086,13.0622497 112.187269,11.8648198 111.462808,11.0950434 C111.128442,10.7529206 110.794075,10.4678182 110.431844,10.2112261 C109.122242,9.2703883 107.589728,8.78571429 105.806439,8.78571429 C103.633056,8.78571429 101.794039,9.38442924 100.345117,10.5533489 C98.8683308,11.7222686 98.3667808,13.1762906 98.3667808,14.9439252 C98.3667808,17.5383567 99.8992947,19.505563 103.382281,20.8455441 L105.555664,21.7293614 C106.196533,21.9859535 107.255361,22.527648 107.729047,22.8127503 C108.202733,23.0978527 108.564964,23.3829551 108.871467,23.6965676 C109.150105,24.0101802 109.373017,24.3523031 109.512336,24.7229361 C109.651655,25.0935692 109.707383,25.5212227 109.707383,25.9773865 C109.707383,27.0892857 109.317289,28.0301235 108.509236,28.7713896 C107.729047,29.5126558 106.503036,29.8832888 105.304889,29.8832888 C103.772375,29.8832888 102.629956,29.1420227 101.849767,28.1441644 C101.738311,28.0301235 101.403945,27.5454495 101.320353,27.3743881 C101.320353,27.3743881 101.181034,27.117796 101.01385,26.8612038 C100.985986,26.7756731 100.958122,26.6901424 100.902395,26.6046117 C100.790939,26.3765298 100.623756,26.1769582 100.400845,26.034407 C100.372981,26.034407 100.372981,26.0058968 100.345117,26.0058968 L100.317253,25.9773865 C99.9828863,25.7207944 99.6485197,25.6637739 99.3420169,25.6637739 L99.314153,25.6637739 L99.2862891,25.6637739 C99.2026975,25.6637739 99.1191058,25.6637739 99.0355141,25.6922842 L98.9797864,25.6922842 L98.9519225,25.6922842 C98.1438697,25.8633456 97.5308642,26.6046117 97.5308642,27.488429 C97.5308642,28.4292668 98.1995975,29.1705329 99.0912419,29.3130841 C98.3110531,29.2275534 97.6701836,28.6288385 97.5308642,27.8305518 C97.6144559,28.1441644 97.6980475,28.5147975 97.7537753,28.6288385 C98.2274614,29.6266967 98.8404669,30.4820038 99.6763836,31.1662494 C101.125306,32.3636794 102.936458,33.1904762 105.137706,33.1904762 C107.478272,33.1904762 109.456608,32.4777203 111.016986,31.0807187 C112.577364,29.6837172 113.134641,27.6880007 113.134641,25.549733 C113.162505,23.8676291 112.688819,22.527648 111.713583,21.4157488 L111.713583,21.4157488 Z" id="Fill-9"></path>
                <path d="M20.2292851,29.2857143 C14.9825249,29.2857143 10.7283951,25.1332623 10.7283951,20.0119048 C10.7283951,14.8905473 14.9825249,10.7380952 20.2292851,10.7380952 C23.5191456,10.7380952 26.4970365,12.34371 28.2554102,15.0566453 C28.6808231,15.7210377 28.4822971,16.6068941 27.8016363,17.0498223 C27.1209755,17.4650675 26.2134278,17.2712864 25.759654,16.6068941 C24.5401367,14.7521322 22.4981544,13.6171286 20.2292851,13.6171286 C16.6274552,13.6171286 13.706286,16.468479 13.706286,19.9842217 C13.706286,23.4999645 16.6274552,26.3513149 20.2292851,26.3513149 C22.1011023,26.3513149 23.1220934,25.3547264 24.908828,23.4445984 C25.4760453,22.8355721 26.0716235,22.1988628 26.7522843,21.5621535 C27.3478625,21.0084932 28.283771,21.0361763 28.8509883,21.6175195 C29.4182057,22.1988628 29.3898448,23.1124023 28.7942666,23.6660625 C28.1703276,24.2474058 27.6314711,24.8287491 27.0926147,25.4100924 C25.334241,27.3202203 23.5191456,29.2857143 20.2292851,29.2857143" id="Fill-11"></path>
                <path d="M28.7855379,29.2857143 C27.977425,29.2857143 27.3365079,28.6053391 27.3365079,27.7474747 L27.3365079,22.6002886 L22.9058201,22.6002886 C22.0977072,22.6002886 21.4567901,21.9199134 21.4567901,21.0620491 C21.4567901,20.2041847 22.0977072,19.5238095 22.9058201,19.5238095 L28.7855379,19.5238095 C29.5936508,19.5238095 30.2345679,20.2041847 30.2345679,21.0620491 L30.2345679,27.7474747 C30.2345679,28.5757576 29.5936508,29.2857143 28.7855379,29.2857143" id="Fill-13"></path>
                <path d="M20.969101,1.44038788 C11.2905551,1.44038788 3.38970136,9.32015685 3.38970136,19.0357143 C3.38970136,28.7230288 11.2623378,36.6310407 20.969101,36.6310407 C30.6758642,36.6310407 38.5485006,28.7512717 38.5485006,19.0357143 C38.5485006,9.32015685 30.6758642,1.44038788 20.969101,1.44038788 M20.969101,38.0714286 C10.4722524,38.0714286 1.95061728,29.51383 1.95061728,19.0357143 C1.95061728,8.52935566 10.5004697,0 20.969101,0 C31.4377322,0 39.9875847,8.55759856 39.9875847,19.0357143 C40.015802,29.51383 31.4659495,38.0714286 20.969101,38.0714286" id="Fill-15"></path>
                <path d="M19.0184837,4.3689593 C9.33993784,4.3689593 1.43908408,12.2487283 1.43908408,21.9642857 C1.43908408,31.6516003 9.3117205,39.5596121 19.0184837,39.5596121 C28.6970296,39.5596121 36.5978833,31.6798432 36.5978833,21.9642857 C36.5978833,12.2487283 28.7252469,4.3689593 19.0184837,4.3689593 M19.0184837,41 C8.52163513,41 0,32.4424014 0,21.9642857 C0,11.4579271 8.54985246,2.92857143 19.0184837,2.92857143 C29.5153323,2.92857143 38.0369674,11.48617 38.0369674,21.9642857 C38.0651847,32.4706443 29.5153323,41 19.0184837,41" id="Fill-17"></path>
                <path d="M22.9197183,4.3689593 C13.2411724,4.3689593 5.34031865,12.2487283 5.34031865,21.9642857 C5.34031865,31.6516003 13.2129551,39.5596121 22.9197183,39.5596121 C32.6264815,39.5596121 40.4991179,31.6798432 40.4991179,21.9642857 C40.4991179,12.2487283 32.6264815,4.3689593 22.9197183,4.3689593 M22.9197183,41 C12.4228697,41 3.90123457,32.4424014 3.90123457,21.9642857 C3.90123457,11.4579271 12.451087,2.92857143 22.9197183,2.92857143 C33.3883495,2.92857143 41.938202,11.48617 41.938202,21.9642857 C41.9664193,32.4706443 33.4165668,41 22.9197183,41" id="Fill-19"></path>
            </g>
        </g>
    </g>
</svg>