<?xml version="1.0" encoding="UTF-8" standalone="no"?>
<svg width="15px" height="14px" viewBox="0 0 15 14" version="1.1" xmlns="http://www.w3.org/2000/svg" xmlns:xlink="http://www.w3.org/1999/xlink">
    <!-- Generator: Sketch 47.1 (45422) - http://www.bohemiancoding.com/sketch -->
    <title>Page 1</title>
    <desc>Created with Sketch.</desc>
    <defs></defs>
    <g id="Hi-Fi-Design" stroke="none" stroke-width="1" fill="none" fill-rule="evenodd">
        <g id="375-Home-Copy-320-768-Copy-Copy" transform="translate(-230.000000, -29.000000)" fill="#062942">
            <g id="Group-5" transform="translate(0.000000, -256.000000)">
                <g id="Group-2">
                    <g id="Group" transform="translate(217.000000, 274.000000)">
                        <g id="Group-10-Copy" transform="translate(13.000000, 7.000000)">
                            <path d="M10,6 C10,5.78133333 9.92133333,5.59333333 9.76533333,5.43733333 C9.60933333,5.28133333 9.42133333,5.20266667 9.20266667,5.20266667 C8.984,5.20266667 8.79733333,5.28133333 8.64,5.43733333 C8.484,5.59333333 8.40666667,5.78133333 8.40666667,6 C8.40666667,6.21866667 8.484,6.40666667 8.64,6.56266667 C8.79733333,6.71866667 8.984,6.79733333 9.20266667,6.79733333 C9.42133333,6.79733333 9.60933333,6.71866667 9.76533333,6.56266667 C9.92133333,6.40666667 10,6.21866667 10,6 L10,6 Z M8,16 C8,15.7813333 7.92133333,15.5933333 7.76533333,15.4373333 C7.60933333,15.2813333 7.42133333,15.2026667 7.20266667,15.2026667 C6.984,15.2026667 6.79733333,15.2813333 6.64,15.4373333 C6.484,15.5933333 6.40666667,15.7813333 6.40666667,16 C6.40666667,16.2186667 6.484,16.4066667 6.64,16.5626667 C6.79733333,16.7186667 6.984,16.7973333 7.20266667,16.7973333 C7.42133333,16.7973333 7.60933333,16.7186667 7.76533333,16.5626667 C7.92133333,16.4066667 8,16.2186667 8,16 L8,16 Z M4.79733333,11 C4.79733333,10.7813333 4.71866667,10.5933333 4.56266667,10.4373333 C4.40666667,10.2813333 4.21866667,10.2026667 4,10.2026667 C3.78133333,10.2026667 3.59333333,10.2813333 3.43733333,10.4373333 C3.28133333,10.5933333 3.20266667,10.7813333 3.20266667,11 C3.20266667,11.2186667 3.28133333,11.4066667 3.43733333,11.5626667 C3.59333333,11.7186667 3.78133333,11.7973333 4,11.7973333 C4.21866667,11.7973333 4.40666667,11.7186667 4.56266667,11.5626667 C4.71866667,11.4066667 4.79733333,11.2186667 4.79733333,11 L4.79733333,11 Z M14.2266667,15.5786667 C14.3466667,15.6933333 14.4066667,15.8333333 14.4066667,16 C14.4066667,16.1666667 14.3466667,16.3066667 14.2266667,16.4213333 C14.1066667,16.536 13.964,16.5933333 13.7973333,16.5933333 L9.09333333,16.6093333 C8.96933333,17.016 8.73466667,17.3493333 8.39066667,17.6093333 C8.04666667,17.8693333 7.65066667,18 7.20266667,18 C6.75466667,18 6.36,17.8693333 6.016,17.6093333 C5.672,17.3493333 5.43733333,17.0106667 5.312,16.5933333 L0.609333333,16.5933333 C0.442666667,16.5933333 0.3,16.536 0.18,16.4213333 C0.06,16.3066667 0,16.1666667 0,16 C0,15.8333333 0.06,15.6933333 0.18,15.5786667 C0.3,15.464 0.442666667,15.4066667 0.609333333,15.4066667 L5.312,15.3906667 C5.43733333,14.984 5.672,14.6506667 6.016,14.3906667 C6.36,14.1306667 6.75466667,14 7.20266667,14 C7.65066667,14 8.04666667,14.1306667 8.39066667,14.3906667 C8.73466667,14.6506667 8.96933333,14.9893333 9.09333333,15.4066667 L13.7973333,15.4066667 C13.964,15.4066667 14.1066667,15.464 14.2266667,15.5786667 L14.2266667,15.5786667 Z M13.7973333,10.4066667 C13.964,10.4066667 14.1066667,10.464 14.2266667,10.5786667 C14.3466667,10.6933333 14.4066667,10.8333333 14.4066667,11 C14.4066667,11.1666667 14.3466667,11.3066667 14.2266667,11.4213333 C14.1066667,11.536 13.964,11.5933333 13.7973333,11.5933333 L5.89066667,11.6093333 C5.76533333,12.016 5.53066667,12.3493333 5.188,12.6093333 C4.844,12.8693333 4.448,13 4,13 C3.56266667,13 3.16933333,12.8693333 2.82,12.6093333 C2.472,12.3493333 2.23466667,12.0106667 2.10933333,11.5933333 L0.609333333,11.5933333 C0.442666667,11.5933333 0.3,11.536 0.18,11.4213333 C0.06,11.3066667 0,11.1666667 0,11 C0,10.8333333 0.06,10.6933333 0.18,10.5786667 C0.3,10.464 0.442666667,10.4066667 0.609333333,10.4066667 L2.10933333,10.3906667 C2.23466667,9.984 2.472,9.65066667 2.82,9.39066667 C3.16933333,9.13066667 3.56266667,9 4,9 C4.448,9 4.844,9.13066667 5.188,9.39066667 C5.53066667,9.65066667 5.77066667,9.98933333 5.90666667,10.4066667 L13.7973333,10.4066667 Z M14.2266667,5.57866667 C14.3466667,5.69333333 14.4066667,5.83333333 14.4066667,6 C14.4066667,6.16666667 14.3466667,6.30666667 14.2266667,6.42133333 C14.1066667,6.536 13.964,6.59333333 13.7973333,6.59333333 L11.0933333,6.60933333 C10.9693333,7.016 10.7346667,7.34933333 10.3906667,7.60933333 C10.0466667,7.86933333 9.65066667,8 9.20266667,8 C8.75466667,8 8.36,7.86933333 8.016,7.60933333 C7.672,7.34933333 7.43733333,7.01066667 7.312,6.59333333 L0.609333333,6.59333333 C0.442666667,6.59333333 0.3,6.536 0.18,6.42133333 C0.06,6.30666667 0,6.16666667 0,6 C0,5.83333333 0.06,5.69333333 0.18,5.57866667 C0.3,5.464 0.442666667,5.40666667 0.609333333,5.40666667 L7.312,5.39066667 C7.43733333,4.984 7.672,4.65066667 8.016,4.39066667 C8.36,4.13066667 8.75466667,4 9.20266667,4 C9.65066667,4 10.0466667,4.13066667 10.3906667,4.39066667 C10.7346667,4.65066667 10.9693333,4.98933333 11.0933333,5.40666667 L13.7973333,5.40666667 C13.964,5.40666667 14.1066667,5.464 14.2266667,5.57866667 L14.2266667,5.57866667 Z" id="Page-1"></path>
                        </g>
                    </g>
                </g>
            </g>
        </g>
    </g>
</svg>