<?xml version="1.0" encoding="UTF-8"?>
<svg width="19px" height="19px" viewBox="0 0 19 19" version="1.1" xmlns="http://www.w3.org/2000/svg" xmlns:xlink="http://www.w3.org/1999/xlink">
    <!-- Generator: Sketch 44.1 (41455) - http://www.bohemiancoding.com/sketch -->
    <title>юдн</title>
    <desc>Created with Sketch.</desc>
    <defs></defs>
    <g id="Navigation" stroke="none" stroke-width="1" fill="none" fill-rule="evenodd">
        <g id="1024" transform="translate(-206.000000, -171.000000)" fill="#062942">
            <g id="Group-8" transform="translate(-6.000000, 0.000000)">
                <g id="Stacked-Group-4" transform="translate(212.000000, 168.000000)">
                    <g id="Group">
                        <path d="M2.96875,21.671875 C2.1484334,21.671875 1.44857061,21.3821644 0.869140625,20.8027344 C0.289710645,20.2233044 0,19.5234416 0,18.703125 L0,18.4882812 C0,18.0195289 0.162758789,17.6191423 0.48828125,17.2871094 C0.813803711,16.9550765 1.21093516,16.7890625 1.6796875,16.7890625 L2.05078125,16.7890625 L2.05078125,7.23828125 C2.05078125,6.67838262 2.25260215,6.1966166 2.65625,5.79296875 C3.05989785,5.3893209 3.54166387,5.1875 4.1015625,5.1875 L7.83203125,5.1875 C8.2356791,4.84895664 8.69791406,4.54622529 9.21875,4.27929688 C9.73958594,4.01236846 10.2929658,3.78450615 10.8789063,3.59570312 C11.4648467,3.4069001 12.0768197,3.26041719 12.7148437,3.15625 C13.3528678,3.05208281 13.9973926,3 14.6484375,3 L14.7460938,3 C15.2018252,3 15.6510395,3.03255176 16.09375,3.09765625 C16.5364605,3.16276074 16.9661438,3.26041602 17.3828125,3.390625 C17.6171887,3.45572949 17.8287751,3.58268135 18.0175781,3.77148438 C18.2063812,3.9602874 18.3463537,4.18489453 18.4375,4.4453125 C18.4635418,4.53645879 18.486328,4.62760371 18.5058594,4.71875 C18.5253907,4.80989629 18.5351562,4.90104121 18.5351562,4.9921875 C18.5351562,5.17448008 18.5058597,5.35025957 18.4472656,5.51953125 C18.3886716,5.68880293 18.3072922,5.84505137 18.203125,5.98828125 C17.7994771,6.54817988 17.3535181,7.15689775 16.8652344,7.81445312 C16.3769507,8.4720085 15.8723984,9.11327812 15.3515625,9.73828125 L15.3515625,18.78125 C15.3255207,19.5755248 15.0227894,20.2558565 14.4433594,20.8222656 C13.8639294,21.3886747 13.170577,21.671875 12.3632812,21.671875 L2.96875,21.671875 Z M8.671875,16.7890625 C9.20573184,16.7890625 9.65820127,16.9746075 10.0292969,17.3457031 C10.4003925,17.7167987 10.5859375,18.1692682 10.5859375,18.703125 C10.5859375,19.1979191 10.7584618,19.6178368 11.1035156,19.9628906 C11.4485694,20.3079444 11.8684871,20.4804688 12.3632812,20.4804688 C12.8580754,20.4804688 13.2779931,20.3079444 13.6230469,19.9628906 C13.9681007,19.6178368 14.140625,19.2044295 14.140625,18.7226562 L14.140625,11.046875 L14.0625,11.125 C13.9583328,11.2161463 13.8574224,11.3072912 13.7597656,11.3984375 C13.6621089,11.4895838 13.5677088,11.5807287 13.4765625,11.671875 C13.3854162,11.7500004 13.2779954,11.8118487 13.1542969,11.8574219 C13.0305983,11.902995 12.8971361,11.9257812 12.7539062,11.9257812 L12.734375,11.9257812 C12.5390615,11.9127604 12.3535165,11.8834638 12.1777344,11.8378906 C12.0019522,11.7923175 11.8294279,11.7304691 11.6601562,11.6523438 C11.6471354,11.6393229 11.6243491,11.6263021 11.5917969,11.6132812 C11.5592446,11.6002604 11.5234377,11.5872396 11.484375,11.5742188 L11.484375,11.6914062 C11.5104168,11.977866 11.5039064,12.2643215 11.4648438,12.5507812 C11.4257811,12.837241 11.2500016,13.0130205 10.9375,13.078125 C10.8203119,13.1041668 10.6933601,13.1236979 10.5566406,13.1367188 C10.4199212,13.1497396 10.2799486,13.15625 10.1367188,13.15625 L10.1171875,13.15625 C9.59635156,13.15625 9.09830967,13.0716154 8.62304688,12.9023438 C8.14778408,12.7330721 7.7148457,12.4986994 7.32421875,12.1992188 C7.19400977,12.4596367 7.06380273,12.7363267 6.93359375,13.0292969 C6.80338477,13.3222671 6.67968809,13.6249984 6.5625,13.9375 C6.49739551,14.1067717 6.41276094,14.2304684 6.30859375,14.3085938 C6.20442656,14.3867191 6.08724023,14.4257812 5.95703125,14.4257812 C5.91796855,14.4257812 5.88216162,14.4225261 5.84960938,14.4160156 C5.81705713,14.4095052 5.78776055,14.40625 5.76171875,14.40625 C5.64453066,14.3541664 5.55013057,14.2792974 5.47851562,14.1816406 C5.40690068,14.0839839 5.37109375,13.9700527 5.37109375,13.8398438 C5.37109375,13.8007811 5.37434893,13.7649741 5.38085938,13.7324219 C5.38736982,13.6998696 5.390625,13.6640627 5.390625,13.625 C5.57291758,13.1562477 5.7584626,12.7200541 5.94726562,12.3164062 C6.13606865,11.9127584 6.34114473,11.5221373 6.5625,11.1445312 C6.02864316,10.0768176 5.83984297,9.13932695 5.99609375,8.33203125 C6.15234453,7.52473555 6.39322754,6.87370039 6.71875,6.37890625 L4.1015625,6.37890625 C3.86718633,6.37890625 3.66536543,6.46354082 3.49609375,6.6328125 C3.32682207,6.80208418 3.2421875,7.00390508 3.2421875,7.23828125 L3.2421875,16.7890625 L8.671875,16.7890625 Z M1.6796875,18 C1.54947852,18 1.43554736,18.0455725 1.33789062,18.1367188 C1.24023389,18.227865 1.19140625,18.3450514 1.19140625,18.4882812 L1.19140625,18.703125 C1.19140625,19.1979191 1.36393057,19.6178368 1.70898438,19.9628906 C2.05403818,20.3079444 2.47395586,20.4804688 2.96875,20.4804688 L9.98046875,20.4804688 C9.79817617,20.2330717 9.65494844,19.9596369 9.55078125,19.6601562 C9.44661406,19.3606756 9.39453125,19.0416684 9.39453125,18.703125 C9.39453125,18.5078115 9.32291738,18.3417976 9.1796875,18.2050781 C9.03645762,18.0683587 8.86718848,18 8.671875,18 L1.6796875,18 Z M11.5820312,6.671875 C11.6992193,6.671875 11.8066401,6.70442676 11.9042969,6.76953125 C12.0019536,6.83463574 12.0768227,6.91927031 12.1289062,7.0234375 L12.1679688,7.140625 C12.1809896,7.1796877 12.1875,7.22526016 12.1875,7.27734375 C12.1875,7.39453184 12.1549482,7.50195264 12.0898438,7.59960938 C12.0247393,7.69726611 11.9401047,7.77213516 11.8359375,7.82421875 C11.0286418,8.2018248 10.3027376,8.67382529 9.65820312,9.24023438 C9.01366865,9.80664346 8.45703359,10.4414027 7.98828125,11.1445312 C8.27474102,11.3919283 8.59700342,11.5872389 8.95507812,11.7304688 C9.31315283,11.8736986 9.70051875,11.9518229 10.1171875,11.9648438 L10.3125,11.9648438 L10.2929688,11.75 C10.2799479,11.4374984 10.2864582,11.1608085 10.3125,10.9199219 C10.3385418,10.6790353 10.4752592,10.5000006 10.7226562,10.3828125 C10.7877607,10.3567707 10.8561194,10.3339845 10.9277344,10.3144531 C10.9993493,10.2949218 11.0742184,10.2851562 11.1523438,10.2851562 L11.171875,10.2851562 C11.3411467,10.2981771 11.5104158,10.3274737 11.6796875,10.3730469 C11.8489592,10.41862 12.0052076,10.4804684 12.1484375,10.5585938 C12.2265629,10.5976564 12.3144526,10.6302082 12.4121094,10.65625 C12.5097661,10.6822918 12.6041662,10.7083332 12.6953125,10.734375 C12.8776051,10.5911451 13.0533846,10.4348967 13.2226562,10.265625 C13.2747398,10.2265623 13.3203123,10.184245 13.359375,10.1386719 C13.3984377,10.0930987 13.4440102,10.0442711 13.4960938,9.9921875 C14.1471387,9.28905898 14.7786428,8.55338926 15.390625,7.78515625 C16.0026072,7.01692324 16.5885389,6.2291707 17.1484375,5.421875 C17.213542,5.30468691 17.2591145,5.21679717 17.2851562,5.15820312 C17.311198,5.09960908 17.3242188,5.04427109 17.3242188,4.9921875 C17.3242188,4.9661457 17.3209636,4.9401043 17.3144531,4.9140625 C17.3079427,4.8880207 17.3046875,4.8619793 17.3046875,4.8359375 C17.2786457,4.75781211 17.2363284,4.68945342 17.1777344,4.63085938 C17.1191403,4.57226533 17.0507816,4.5364584 16.9726562,4.5234375 C16.6341129,4.41927031 16.2760436,4.33789092 15.8984375,4.27929688 C15.5208314,4.22070283 15.1302104,4.19140625 14.7265625,4.19140625 L14.6289062,4.19140625 C14.0429658,4.19140625 13.4342479,4.24348906 12.8027344,4.34765625 C12.1712208,4.45182344 11.5527374,4.60807188 10.9472656,4.81640625 C10.3417938,5.02474062 9.77539326,5.29166504 9.24804688,5.6171875 C8.72070049,5.94270996 8.27474141,6.3268207 7.91015625,6.76953125 C7.67578008,7.05599102 7.49023506,7.37825342 7.35351562,7.73632812 C7.21679619,8.09440283 7.1484375,8.4752584 7.1484375,8.87890625 C7.1484375,9.07421973 7.16796855,9.2662751 7.20703125,9.45507812 C7.24609395,9.64388115 7.29166641,9.82942617 7.34375,10.0117188 C7.86458594,9.29556934 8.45377275,8.66406523 9.11132812,8.1171875 C9.7688835,7.57030977 10.4882773,7.11458516 11.2695312,6.75 C11.3346357,6.7239582 11.3932289,6.70442715 11.4453125,6.69140625 C11.4973961,6.67838535 11.5429686,6.671875 11.5820312,6.671875 Z" id="юдн"></path>
                    </g>
                </g>
            </g>
        </g>
    </g>
</svg>