<?xml version="1.0" encoding="UTF-8"?>
<svg width="17px" height="20px" viewBox="0 0 17 20" version="1.1" xmlns="http://www.w3.org/2000/svg" xmlns:xlink="http://www.w3.org/1999/xlink">
    <!-- Generator: Sketch 44.1 (41455) - http://www.bohemiancoding.com/sketch -->
    <title></title>
    <desc>Created with Sketch.</desc>
    <defs></defs>
    <g id="Navigation" stroke="none" stroke-width="1" fill="none" fill-rule="evenodd">
        <g id="1024" transform="translate(-207.000000, -254.000000)" fill="#062942">
            <g id="Group-8" transform="translate(-6.000000, 0.000000)">
                <g id="Stacked-Group-4" transform="translate(212.000000, 168.000000)">
                    <g id="Group-3" transform="translate(1.000000, 82.000000)">
                        <path d="M8.28125,23.1796875 C7.13541094,23.1796875 6.06120293,22.9615907 5.05859375,22.5253906 C4.05598457,22.0891905 3.18034229,21.4967485 2.43164062,20.7480469 C1.68293896,19.9993452 1.09049697,19.1237029 0.654296875,18.1210938 C0.218096777,17.1184846 0,16.0442766 0,14.8984375 C0,13.804682 0.198565723,12.7760465 0.595703125,11.8125 C0.992840527,10.8489535 1.53645488,9.99609746 2.2265625,9.25390625 C2.91667012,8.51171504 3.72720889,7.90950752 4.65820312,7.44726562 C5.58919736,6.98502373 6.58853633,6.71484414 7.65625,6.63671875 L7.67578125,5.19140625 L6.6796875,5.19140625 C6.52343672,5.19140625 6.38671934,5.13281309 6.26953125,5.015625 C6.15234316,4.89843691 6.09375,4.75520918 6.09375,4.5859375 C6.09375,4.42968672 6.15234316,4.29296934 6.26953125,4.17578125 C6.38671934,4.05859316 6.52343672,4 6.6796875,4 L9.8828125,4 C10.0520842,4 10.1953119,4.05859316 10.3125,4.17578125 C10.4296881,4.29296934 10.4882812,4.42968672 10.4882812,4.5859375 C10.4882812,4.75520918 10.4296881,4.89843691 10.3125,5.015625 C10.1953119,5.13281309 10.0520842,5.19140625 9.8828125,5.19140625 L8.88671875,5.19140625 L8.88671875,6.63671875 C9.96745332,6.71484414 10.9733026,6.98502373 11.9042969,7.44726562 C12.8352911,7.90950752 13.6458299,8.51171504 14.3359375,9.25390625 C15.0260451,9.99609746 15.5696595,10.8489535 15.9667969,11.8125 C16.3639343,12.7760465 16.5625,13.804682 16.5625,14.8984375 C16.5625,16.0442766 16.3476584,17.1184846 15.9179688,18.1210938 C15.4882791,19.1237029 14.8990923,19.9993452 14.1503906,20.7480469 C13.401689,21.4967485 12.5227915,22.0891905 11.5136719,22.5253906 C10.5045522,22.9615907 9.42708906,23.1796875 8.28125,23.1796875 Z M8.28125,7.80859375 C7.30468262,7.80859375 6.38672305,7.99413877 5.52734375,8.36523438 C4.66796445,8.73632998 3.91927402,9.2441374 3.28125,9.88867188 C2.64322598,10.5332063 2.13867373,11.285152 1.76757812,12.1445312 C1.39648252,13.0039105 1.2109375,13.9218701 1.2109375,14.8984375 C1.2109375,15.8750049 1.39648252,16.7929645 1.76757812,17.6523438 C2.13867373,18.511723 2.64322598,19.2604135 3.28125,19.8984375 C3.91927402,20.5364615 4.66796445,21.0410138 5.52734375,21.4121094 C6.38672305,21.783205 7.30468262,21.96875 8.28125,21.96875 C9.25781738,21.96875 10.175777,21.783205 11.0351562,21.4121094 C11.8945355,21.0410138 12.6464812,20.5364615 13.2910156,19.8984375 C13.9355501,19.2604135 14.4433575,18.511723 14.8144531,17.6523438 C15.1855487,16.7929645 15.3710938,15.8750049 15.3710938,14.8984375 C15.3710938,13.9218701 15.1855487,13.0039105 14.8144531,12.1445312 C14.4433575,11.285152 13.9355501,10.5332063 13.2910156,9.88867188 C12.6464812,9.2441374 11.8945355,8.73632998 11.0351562,8.36523438 C10.175777,7.99413877 9.25781738,7.80859375 8.28125,7.80859375 Z M8.28125,15.484375 C8.11197832,15.484375 7.96875059,15.4257818 7.8515625,15.3085938 C7.73437441,15.1914057 7.67578125,15.0546883 7.67578125,14.8984375 L7.67578125,10.71875 C7.67578125,10.5624992 7.73437441,10.4257818 7.8515625,10.3085938 C7.96875059,10.1914057 8.11197832,10.1328125 8.28125,10.1328125 C8.45052168,10.1328125 8.59374941,10.1914057 8.7109375,10.3085938 C8.82812559,10.4257818 8.88671875,10.5624992 8.88671875,10.71875 L8.88671875,14.2929688 L10.8984375,14.2929688 C11.0546883,14.2929688 11.1914057,14.3515619 11.3085938,14.46875 C11.4257818,14.5859381 11.484375,14.7291658 11.484375,14.8984375 C11.484375,15.0546883 11.4257818,15.1914057 11.3085938,15.3085938 C11.1914057,15.4257818 11.0546883,15.484375 10.8984375,15.484375 L8.28125,15.484375 Z" id=""></path>
                    </g>
                </g>
            </g>
        </g>
    </g>
</svg>