<?xml version="1.0" encoding="UTF-8"?>
<svg width="18px" height="21px" viewBox="0 0 18 21" version="1.1" xmlns="http://www.w3.org/2000/svg" xmlns:xlink="http://www.w3.org/1999/xlink">
    <!-- Generator: Sketch 44.1 (41455) - http://www.bohemiancoding.com/sketch -->
    <title></title>
    <desc>Created with Sketch.</desc>
    <defs></defs>
    <g id="Navigation" stroke="none" stroke-width="1" fill="none" fill-rule="evenodd">
        <g id="1440-How-It-Works" transform="translate(-818.000000, -214.000000)" fill="#0D83DD">
            <path d="M823.5,231.84375 C823.148436,231.84375 822.84896,231.720053 822.601562,231.472656 C822.354165,231.225259 822.230469,230.925783 822.230469,230.574219 C822.230469,230.222654 822.354165,229.919923 822.601562,229.666016 C822.84896,229.412108 823.148436,229.285156 823.5,229.285156 C823.851564,229.285156 824.15104,229.412108 824.398438,229.666016 C824.645835,229.919923 824.769531,230.222654 824.769531,230.574219 C824.769531,230.639323 824.766276,230.704427 824.759766,230.769531 C824.753255,230.834636 824.736979,230.899739 824.710938,230.964844 C824.632812,231.225262 824.483074,231.436848 824.261719,231.599609 C824.040363,231.762371 823.78646,231.84375 823.5,231.84375 Z M827.445312,229.304688 C826.677079,229.291667 825.980472,229.093101 825.355469,228.708984 C824.730466,228.324868 824.235679,227.826826 823.871094,227.214844 C823.584634,227.371095 823.272137,227.498046 822.933594,227.595703 C822.59505,227.69336 822.243491,227.742188 821.878906,227.742188 C821.345049,227.742188 820.843752,227.641277 820.375,227.439453 C819.906248,227.237629 819.499351,226.964194 819.154297,226.619141 C818.809243,226.274087 818.535808,225.86719 818.333984,225.398438 C818.13216,224.929685 818.03125,224.428388 818.03125,223.894531 C818.03125,223.087236 818.262367,222.358076 818.724609,221.707031 C819.186851,221.055986 819.776038,220.593751 820.492188,220.320312 C820.466146,220.203124 820.446615,220.079428 820.433594,219.949219 C820.420573,219.81901 820.414062,219.688803 820.414062,219.558594 C820.414062,218.738277 820.703773,218.04167 821.283203,217.46875 C821.862633,216.89583 822.555986,216.609375 823.363281,216.609375 L823.402344,216.609375 C823.623699,216.609375 823.841796,216.632161 824.056641,216.677734 C824.271485,216.723308 824.470051,216.791666 824.652344,216.882812 C824.756511,216.934896 824.854166,216.986979 824.945312,217.039062 C825.036459,217.091146 825.121093,217.149739 825.199219,217.214844 C825.472658,216.733071 825.817706,216.316408 826.234375,215.964844 C826.651044,215.613279 827.119789,215.339845 827.640625,215.144531 C827.875001,215.066406 828.115884,215.004558 828.363281,214.958984 C828.610678,214.913411 828.871092,214.890625 829.144531,214.890625 L829.183594,214.890625 C829.821618,214.890625 830.417315,215.011067 830.970703,215.251953 C831.524091,215.49284 832.005857,215.821613 832.416016,216.238281 C832.826174,216.65495 833.151692,217.139971 833.392578,217.693359 C833.633465,218.246748 833.753906,218.835934 833.753906,219.460938 C833.753906,219.708335 833.734375,219.949218 833.695312,220.183594 C833.65625,220.41797 833.604167,220.652343 833.539062,220.886719 C834.059898,221.108074 834.483071,221.456378 834.808594,221.931641 C835.134116,222.406903 835.296875,222.944007 835.296875,223.542969 C835.296875,224.363285 835.007164,225.063148 834.427734,225.642578 C833.848304,226.222008 833.154952,226.511719 832.347656,226.511719 C832.230468,226.511719 832.113282,226.505208 831.996094,226.492188 C831.878906,226.479167 831.761719,226.459636 831.644531,226.433594 C831.345051,227.279952 830.827478,227.970049 830.091797,228.503906 C829.356116,229.037763 828.519536,229.304688 827.582031,229.304688 L827.445312,229.304688 Z M823.949219,225.867188 C824.131511,225.867188 824.29427,225.91276 824.4375,226.003906 C824.58073,226.095053 824.691406,226.212239 824.769531,226.355469 C825.029949,226.863284 825.397784,227.276691 825.873047,227.595703 C826.34831,227.914715 826.885414,228.087239 827.484375,228.113281 L827.582031,228.113281 C828.298181,228.113281 828.929685,227.89844 829.476562,227.46875 C830.02344,227.03906 830.39453,226.498701 830.589844,225.847656 C830.628906,225.717447 830.6875,225.603516 830.765625,225.505859 C830.84375,225.408203 830.934895,225.333334 831.039062,225.28125 C831.104167,225.242187 831.172526,225.212891 831.244141,225.193359 C831.315756,225.173828 831.390625,225.164062 831.46875,225.164062 C831.520834,225.164062 831.572916,225.170573 831.625,225.183594 L831.78125,225.222656 C831.859375,225.248698 831.947265,225.268229 832.044922,225.28125 C832.142579,225.294271 832.236979,225.300781 832.328125,225.300781 C832.822919,225.300781 833.242837,225.131512 833.587891,224.792969 C833.932944,224.454425 834.105469,224.037763 834.105469,223.542969 C834.105469,223.425781 834.092448,223.31185 834.066406,223.201172 C834.040364,223.090494 834.007813,222.983073 833.96875,222.878906 C833.877604,222.64453 833.737631,222.439454 833.548828,222.263672 C833.360025,222.08789 833.148439,221.960938 832.914062,221.882812 C832.783854,221.84375 832.673178,221.781901 832.582031,221.697266 C832.490885,221.61263 832.412761,221.511719 832.347656,221.394531 C832.321614,221.342448 832.302083,221.283854 832.289062,221.21875 C832.276042,221.153646 832.269531,221.082032 832.269531,221.003906 C832.269531,220.951823 832.276042,220.896485 832.289062,220.837891 C832.302083,220.779297 832.315104,220.723959 832.328125,220.671875 C832.40625,220.502603 832.464844,220.313803 832.503906,220.105469 C832.542969,219.897134 832.5625,219.682293 832.5625,219.460938 C832.5625,218.536454 832.233727,217.745446 831.576172,217.087891 C830.918617,216.430335 830.121098,216.101562 829.183594,216.101562 L829.144531,216.101562 C828.949218,216.101562 828.760418,216.117838 828.578125,216.150391 C828.395832,216.182943 828.220053,216.22526 828.050781,216.277344 C827.621092,216.433595 827.240236,216.664712 826.908203,216.970703 C826.57617,217.276694 826.312501,217.631508 826.117188,218.035156 C826.052083,218.178386 825.960938,218.298828 825.84375,218.396484 C825.726562,218.494141 825.589845,218.555989 825.433594,218.582031 C825.407552,218.582031 825.381511,218.585286 825.355469,218.591797 C825.329427,218.598307 825.303386,218.601562 825.277344,218.601562 C825.147135,218.601562 825.026693,218.575521 824.916016,218.523438 C824.805338,218.471354 824.710938,218.40625 824.632812,218.328125 C824.476562,218.158853 824.291017,218.028646 824.076172,217.9375 C823.861327,217.846354 823.63021,217.800781 823.382812,217.800781 C823.109374,217.800781 822.858725,217.856119 822.630859,217.966797 C822.402994,218.077475 822.204428,218.223957 822.035156,218.40625 C821.904947,218.562501 821.800782,218.73828 821.722656,218.933594 C821.644531,219.128907 821.605469,219.337238 821.605469,219.558594 C821.605469,219.662761 821.618489,219.770182 821.644531,219.880859 C821.670573,219.991537 821.696614,220.092447 821.722656,220.183594 C821.748698,220.222656 821.764974,220.271484 821.771484,220.330078 C821.777995,220.388672 821.78125,220.44401 821.78125,220.496094 C821.78125,220.574219 821.77474,220.649088 821.761719,220.720703 C821.748698,220.792318 821.722656,220.854166 821.683594,220.90625 C821.63151,221.023438 821.556641,221.121093 821.458984,221.199219 C821.361328,221.277344 821.253907,221.335937 821.136719,221.375 C820.707029,221.492188 820.335939,221.703775 820.023438,222.009766 C819.710936,222.315757 819.489584,222.677081 819.359375,223.09375 C819.320312,223.223959 819.291016,223.357421 819.271484,223.494141 C819.251953,223.63086 819.242188,223.764322 819.242188,223.894531 C819.242188,224.623702 819.499346,225.24544 820.013672,225.759766 C820.527997,226.274091 821.149736,226.53125 821.878906,226.53125 C822.165366,226.53125 822.442056,226.488933 822.708984,226.404297 C822.975913,226.319661 823.213541,226.192709 823.421875,226.023438 C823.5,225.971354 823.584635,225.932292 823.675781,225.90625 C823.766928,225.880208 823.858072,225.867188 823.949219,225.867188 Z M827.035156,233.660156 C827.035156,233.946616 826.930991,234.190754 826.722656,234.392578 C826.514322,234.594402 826.266929,234.695312 825.980469,234.695312 C825.694009,234.695312 825.449871,234.594402 825.248047,234.392578 C825.046223,234.190754 824.945312,233.946616 824.945312,233.660156 C824.945312,233.373696 825.046223,233.126303 825.248047,232.917969 C825.449871,232.709634 825.694009,232.605469 825.980469,232.605469 C826.266929,232.605469 826.514322,232.709634 826.722656,232.917969 C826.930991,233.126303 827.035156,233.373696 827.035156,233.660156 Z" id=""></path>
        </g>
    </g>
</svg>