<?xml version="1.0" encoding="UTF-8"?>
<svg width="17px" height="20px" viewBox="0 0 17 20" version="1.1" xmlns="http://www.w3.org/2000/svg" xmlns:xlink="http://www.w3.org/1999/xlink">
    <!-- Generator: Sketch 44.1 (41455) - http://www.bohemiancoding.com/sketch -->
    <title></title>
    <desc>Created with Sketch.</desc>
    <defs></defs>
    <g id="Navigation" stroke="none" stroke-width="1" fill="none" fill-rule="evenodd">
        <g id="1440-How-It-Works" transform="translate(-647.000000, -254.000000)" fill="#0D83DD">
            <path d="M655.28125,273.179688 C654.135411,273.179688 653.061203,272.961591 652.058594,272.525391 C651.055985,272.089191 650.180342,271.496749 649.431641,270.748047 C648.682939,269.999345 648.090497,269.123703 647.654297,268.121094 C647.218097,267.118485 647,266.044277 647,264.898438 C647,263.804682 647.198566,262.776046 647.595703,261.8125 C647.992841,260.848954 648.536455,259.996097 649.226562,259.253906 C649.91667,258.511715 650.727209,257.909508 651.658203,257.447266 C652.589197,256.985024 653.588536,256.714844 654.65625,256.636719 L654.675781,255.191406 L653.679688,255.191406 C653.523437,255.191406 653.386719,255.132813 653.269531,255.015625 C653.152343,254.898437 653.09375,254.755209 653.09375,254.585938 C653.09375,254.429687 653.152343,254.292969 653.269531,254.175781 C653.386719,254.058593 653.523437,254 653.679688,254 L656.882812,254 C657.052084,254 657.195312,254.058593 657.3125,254.175781 C657.429688,254.292969 657.488281,254.429687 657.488281,254.585938 C657.488281,254.755209 657.429688,254.898437 657.3125,255.015625 C657.195312,255.132813 657.052084,255.191406 656.882812,255.191406 L655.886719,255.191406 L655.886719,256.636719 C656.967453,256.714844 657.973303,256.985024 658.904297,257.447266 C659.835291,257.909508 660.64583,258.511715 661.335938,259.253906 C662.026045,259.996097 662.569659,260.848954 662.966797,261.8125 C663.363934,262.776046 663.5625,263.804682 663.5625,264.898438 C663.5625,266.044277 663.347658,267.118485 662.917969,268.121094 C662.488279,269.123703 661.899092,269.999345 661.150391,270.748047 C660.401689,271.496749 659.522792,272.089191 658.513672,272.525391 C657.504552,272.961591 656.427089,273.179688 655.28125,273.179688 Z M655.28125,257.808594 C654.304683,257.808594 653.386723,257.994139 652.527344,258.365234 C651.667964,258.73633 650.919274,259.244137 650.28125,259.888672 C649.643226,260.533206 649.138674,261.285152 648.767578,262.144531 C648.396483,263.003911 648.210938,263.92187 648.210938,264.898438 C648.210938,265.875005 648.396483,266.792964 648.767578,267.652344 C649.138674,268.511723 649.643226,269.260413 650.28125,269.898438 C650.919274,270.536462 651.667964,271.041014 652.527344,271.412109 C653.386723,271.783205 654.304683,271.96875 655.28125,271.96875 C656.257817,271.96875 657.175777,271.783205 658.035156,271.412109 C658.894536,271.041014 659.646481,270.536462 660.291016,269.898438 C660.93555,269.260413 661.443358,268.511723 661.814453,267.652344 C662.185549,266.792964 662.371094,265.875005 662.371094,264.898438 C662.371094,263.92187 662.185549,263.003911 661.814453,262.144531 C661.443358,261.285152 660.93555,260.533206 660.291016,259.888672 C659.646481,259.244137 658.894536,258.73633 658.035156,258.365234 C657.175777,257.994139 656.257817,257.808594 655.28125,257.808594 Z M655.28125,265.484375 C655.111978,265.484375 654.968751,265.425782 654.851562,265.308594 C654.734374,265.191406 654.675781,265.054688 654.675781,264.898438 L654.675781,260.71875 C654.675781,260.562499 654.734374,260.425782 654.851562,260.308594 C654.968751,260.191406 655.111978,260.132812 655.28125,260.132812 C655.450522,260.132812 655.593749,260.191406 655.710938,260.308594 C655.828126,260.425782 655.886719,260.562499 655.886719,260.71875 L655.886719,264.292969 L657.898438,264.292969 C658.054688,264.292969 658.191406,264.351562 658.308594,264.46875 C658.425782,264.585938 658.484375,264.729166 658.484375,264.898438 C658.484375,265.054688 658.425782,265.191406 658.308594,265.308594 C658.191406,265.425782 658.054688,265.484375 657.898438,265.484375 L655.28125,265.484375 Z" id=""></path>
        </g>
    </g>
</svg>