<?xml version="1.0" encoding="UTF-8"?>
<svg width="19px" height="19px" viewBox="0 0 19 19" version="1.1" xmlns="http://www.w3.org/2000/svg" xmlns:xlink="http://www.w3.org/1999/xlink">
    <!-- Generator: Sketch 44.1 (41455) - http://www.bohemiancoding.com/sketch -->
    <title></title>
    <desc>Created with Sketch.</desc>
    <defs></defs>
    <g id="Navigation" stroke="none" stroke-width="1" fill="none" fill-rule="evenodd">
        <g id="1440-How-It-Works" transform="translate(-646.000000, -213.000000)" fill="#0D83DD">
            <path d="M655.199219,231.808594 C654.691404,231.808594 654.235679,231.675132 653.832031,231.408203 C653.428383,231.141275 653.122397,230.799481 652.914062,230.382812 L647.484375,219.289062 C647.197915,219.171874 646.947267,219.012371 646.732422,218.810547 C646.517577,218.608723 646.345053,218.371095 646.214844,218.097656 C646.149739,217.954426 646.097656,217.798178 646.058594,217.628906 C646.019531,217.459635 646,217.283855 646,217.101562 C646,216.658852 646.113931,216.25521 646.341797,215.890625 C646.569663,215.52604 646.859373,215.239584 647.210938,215.03125 C647.796878,214.718748 648.402341,214.435548 649.027344,214.181641 C649.652347,213.927733 650.300127,213.712892 650.970703,213.537109 C651.641279,213.361327 652.331377,213.227865 653.041016,213.136719 C653.750655,213.045572 654.470048,213 655.199219,213 C655.928389,213 656.647783,213.045572 657.357422,213.136719 C658.067061,213.227865 658.760413,213.361327 659.4375,213.537109 C660.114587,213.712892 660.772132,213.930988 661.410156,214.191406 C662.04818,214.451824 662.666664,214.74479 663.265625,215.070312 C663.591147,215.252605 663.861327,215.52604 664.076172,215.890625 C664.291017,216.25521 664.398438,216.658852 664.398438,217.101562 C664.398438,217.283855 664.378906,217.459635 664.339844,217.628906 C664.300781,217.798178 664.248698,217.954426 664.183594,218.097656 C664.053385,218.371095 663.88086,218.608723 663.666016,218.810547 C663.451171,219.012371 663.207033,219.165364 662.933594,219.269531 L657.503906,230.363281 C657.295572,230.792971 656.98633,231.141275 656.576172,231.408203 C656.166014,231.675132 655.713544,231.808594 655.21875,231.808594 L655.199219,231.808594 Z M653.578125,225.421875 C654.177086,225.421875 654.684894,225.633461 655.101562,226.056641 C655.518231,226.47982 655.726562,226.990882 655.726562,227.589844 C655.726562,228.123701 655.557293,228.592446 655.21875,228.996094 C654.880207,229.399742 654.450523,229.640625 653.929688,229.71875 L653.988281,229.835938 C654.092448,230.070314 654.255207,230.255859 654.476562,230.392578 C654.697918,230.529298 654.938801,230.597656 655.199219,230.597656 C655.472658,230.597656 655.716796,230.529298 655.931641,230.392578 C656.146485,230.255859 656.305989,230.076824 656.410156,229.855469 L658.304688,226.007812 C657.822914,225.890624 657.429038,225.636721 657.123047,225.246094 C656.817056,224.855467 656.664062,224.406253 656.664062,223.898438 C656.664062,223.299476 656.875649,222.785158 657.298828,222.355469 C657.722007,221.925779 658.23958,221.710938 658.851562,221.710938 C659.09896,221.710938 659.336587,221.75 659.564453,221.828125 C659.792319,221.90625 659.997395,222.016926 660.179688,222.160156 L661.527344,219.40625 C661.423177,219.380208 661.322266,219.347656 661.224609,219.308594 C661.126953,219.269531 661.032553,219.223959 660.941406,219.171875 C660.108069,218.742185 659.206385,218.403647 658.236328,218.15625 C657.266271,217.908853 656.253912,217.785156 655.199219,217.785156 C654.144526,217.785156 653.128911,217.908853 652.152344,218.15625 C651.175776,218.403647 650.257817,218.755206 649.398438,219.210938 C649.346354,219.25 649.27474,219.285807 649.183594,219.318359 C649.092447,219.350912 648.994792,219.373698 648.890625,219.386719 L652.113281,226.007812 C652.295574,225.82552 652.513671,225.682292 652.767578,225.578125 C653.021486,225.473958 653.291665,225.421875 653.578125,225.421875 Z M653.363281,228.585938 C653.402344,228.585938 653.438151,228.582682 653.470703,228.576172 C653.503255,228.569661 653.539062,228.566406 653.578125,228.566406 C653.838543,228.566406 654.06315,228.472006 654.251953,228.283203 C654.440756,228.0944 654.535156,227.863283 654.535156,227.589844 C654.535156,227.329426 654.440756,227.104819 654.251953,226.916016 C654.06315,226.727213 653.838543,226.632812 653.578125,226.632812 C653.382812,226.632812 653.210287,226.68164 653.060547,226.779297 C652.910807,226.876954 652.796875,227.003905 652.71875,227.160156 L652.679688,227.199219 L653.363281,228.585938 Z M658.851562,222.902344 C658.578124,222.902344 658.343751,222.999999 658.148438,223.195312 C657.953124,223.390626 657.855469,223.624999 657.855469,223.898438 C657.855469,224.145835 657.933593,224.360676 658.089844,224.542969 C658.246095,224.725261 658.441405,224.835937 658.675781,224.875 C658.701823,224.875 658.727864,224.88151 658.753906,224.894531 L658.832031,224.933594 L659.632812,223.292969 L659.59375,223.253906 C659.502604,223.149739 659.391928,223.065104 659.261719,223 C659.13151,222.934896 658.994792,222.902344 658.851562,222.902344 Z M655.199219,216.574219 C655.772138,216.574219 656.338539,216.610026 656.898438,216.681641 C657.458336,216.753256 658.005206,216.857421 658.539062,216.994141 C659.072919,217.13086 659.593747,217.296874 660.101562,217.492188 C660.609378,217.687501 661.104164,217.908853 661.585938,218.15625 C661.625,218.182292 661.686849,218.205078 661.771484,218.224609 C661.85612,218.244141 661.95052,218.253906 662.054688,218.253906 C662.276043,218.253906 662.481119,218.192058 662.669922,218.068359 C662.858725,217.944661 662.998697,217.785157 663.089844,217.589844 C663.128906,217.524739 663.158203,217.44987 663.177734,217.365234 C663.197266,217.280599 663.207031,217.192709 663.207031,217.101562 C663.207031,216.880207 663.151693,216.681642 663.041016,216.505859 C662.930338,216.330077 662.783855,216.190105 662.601562,216.085938 C662.067706,215.786457 661.507815,215.519532 660.921875,215.285156 C660.335935,215.05078 659.733727,214.852214 659.115234,214.689453 C658.496742,214.526692 657.858727,214.402995 657.201172,214.318359 C656.543617,214.233724 655.876305,214.191406 655.199219,214.191406 C654.522132,214.191406 653.854821,214.233724 653.197266,214.318359 C652.53971,214.402995 651.898441,214.526692 651.273438,214.689453 C650.648434,214.852214 650.039717,215.054035 649.447266,215.294922 C648.854815,215.535808 648.285159,215.812498 647.738281,216.125 C647.595051,216.203125 647.471355,216.330077 647.367188,216.505859 C647.26302,216.681642 647.210938,216.880207 647.210938,217.101562 C647.210938,217.427085 647.321613,217.70052 647.542969,217.921875 C647.764324,218.14323 648.037759,218.253906 648.363281,218.253906 C648.454428,218.253906 648.545572,218.244141 648.636719,218.224609 C648.727865,218.205078 648.81901,218.169271 648.910156,218.117188 C649.365888,217.882811 649.841143,217.66797 650.335938,217.472656 C650.830732,217.277343 651.341794,217.114584 651.869141,216.984375 C652.396487,216.854166 652.940101,216.753256 653.5,216.681641 C654.059899,216.610026 654.626299,216.574219 655.199219,216.574219 Z M653.65625,223.585938 C653.07031,223.585938 652.565757,223.377606 652.142578,222.960938 C651.719399,222.544269 651.507812,222.042972 651.507812,221.457031 C651.507812,220.85807 651.719399,220.350263 652.142578,219.933594 C652.565757,219.516925 653.07031,219.308594 653.65625,219.308594 C654.255211,219.308594 654.763019,219.516925 655.179688,219.933594 C655.596356,220.350263 655.804688,220.85807 655.804688,221.457031 C655.804688,222.042972 655.596356,222.544269 655.179688,222.960938 C654.763019,223.377606 654.255211,223.585938 653.65625,223.585938 Z M653.65625,220.5 C653.395832,220.5 653.17448,220.5944 652.992188,220.783203 C652.809895,220.972006 652.71875,221.196613 652.71875,221.457031 C652.71875,221.717449 652.809895,221.938801 652.992188,222.121094 C653.17448,222.303386 653.395832,222.394531 653.65625,222.394531 C653.916668,222.394531 654.13802,222.303386 654.320312,222.121094 C654.502605,221.938801 654.59375,221.717449 654.59375,221.457031 C654.59375,221.196613 654.502605,220.972006 654.320312,220.783203 C654.13802,220.5944 653.916668,220.5 653.65625,220.5 Z" id=""></path>
        </g>
    </g>
</svg>