<?xml version="1.0" encoding="UTF-8"?>
<svg width="19px" height="19px" viewBox="0 0 19 19" version="1.1" xmlns="http://www.w3.org/2000/svg" xmlns:xlink="http://www.w3.org/1999/xlink">
    <!-- Generator: Sketch 44.1 (41455) - http://www.bohemiancoding.com/sketch -->
    <title></title>
    <desc>Created with Sketch.</desc>
    <defs></defs>
    <g id="Navigation" stroke="none" stroke-width="1" fill="none" fill-rule="evenodd">
        <g id="1024" transform="translate(-206.000000, -213.000000)" fill="#062942">
            <g id="Group-8" transform="translate(-6.000000, 0.000000)">
                <g id="Stacked-Group-4" transform="translate(212.000000, 168.000000)">
                    <g id="Group-2" transform="translate(0.000000, 41.000000)">
                        <path d="M9.19921875,22.8085938 C8.69140371,22.8085938 8.2356791,22.6751315 7.83203125,22.4082031 C7.4283834,22.1412747 7.12239687,21.7994812 6.9140625,21.3828125 L1.484375,10.2890625 C1.19791523,10.1718744 0.947266699,10.0123708 0.732421875,9.81054688 C0.517577051,9.60872295 0.345052734,9.37109512 0.21484375,9.09765625 C0.149739258,8.95442637 0.0976564453,8.79817793 0.05859375,8.62890625 C0.0195310547,8.45963457 0,8.28385508 0,8.1015625 C0,7.65885195 0.113931152,7.25521016 0.341796875,6.890625 C0.569662598,6.52603984 0.859373242,6.23958437 1.2109375,6.03125 C1.79687793,5.71874844 2.40234062,5.43554814 3.02734375,5.18164062 C3.65234688,4.92773311 4.30012686,4.7128915 4.97070312,4.53710938 C5.64127939,4.36132725 6.33137666,4.22786504 7.04101563,4.13671875 C7.75065459,4.04557246 8.47004844,4 9.19921875,4 C9.92838906,4 10.6477829,4.04557246 11.3574219,4.13671875 C12.0670608,4.22786504 12.7604133,4.36132725 13.4375,4.53710938 C14.1145867,4.7128915 14.7721322,4.93098828 15.4101562,5.19140625 C16.0481803,5.45182422 16.6666637,5.74479004 17.265625,6.0703125 C17.5911475,6.25260508 17.8613271,6.52603984 18.0761719,6.890625 C18.2910167,7.25521016 18.3984375,7.65885195 18.3984375,8.1015625 C18.3984375,8.28385508 18.3789064,8.45963457 18.3398438,8.62890625 C18.3007811,8.79817793 18.2486982,8.95442637 18.1835938,9.09765625 C18.0533848,9.37109512 17.8808604,9.60872295 17.6660156,9.81054688 C17.4511708,10.0123708 17.2070326,10.1653641 16.9335938,10.2695312 L11.5039062,21.3632812 C11.2955719,21.7929709 10.9863302,22.1412747 10.5761719,22.4082031 C10.1660136,22.6751315 9.71354414,22.8085938 9.21875,22.8085938 L9.19921875,22.8085938 Z M7.578125,16.421875 C8.17708633,16.421875 8.68489375,16.6334614 9.1015625,17.0566406 C9.51823125,17.4798198 9.7265625,17.9908824 9.7265625,18.5898438 C9.7265625,19.1237006 9.55729336,19.5924459 9.21875,19.9960938 C8.88020664,20.3997416 8.45052344,20.6406246 7.9296875,20.71875 L7.98828125,20.8359375 C8.09244844,21.0703137 8.25520723,21.2558587 8.4765625,21.3925781 C8.69791777,21.5292976 8.93880078,21.5976562 9.19921875,21.5976562 C9.47265762,21.5976562 9.7167958,21.5292976 9.93164062,21.3925781 C10.1464854,21.2558587 10.3059891,21.076824 10.4101562,20.8554688 L12.3046875,17.0078125 C11.8229143,16.8906244 11.429038,16.6367207 11.1230469,16.2460938 C10.8170558,15.8554668 10.6640625,15.4062525 10.6640625,14.8984375 C10.6640625,14.2994762 10.8756489,13.7851584 11.2988281,13.3554688 C11.7220073,12.9257791 12.2395803,12.7109375 12.8515625,12.7109375 C13.0989596,12.7109375 13.3365874,12.7499996 13.5644531,12.828125 C13.7923188,12.9062504 13.9973949,13.0169264 14.1796875,13.1601562 L15.5273438,10.40625 C15.4231766,10.3802082 15.3222661,10.3476564 15.2246094,10.3085938 C15.1269526,10.2695311 15.0325525,10.2239586 14.9414062,10.171875 C14.1080688,9.74218535 13.2063851,9.40364707 12.2363281,9.15625 C11.2662712,8.90885293 10.2539115,8.78515625 9.19921875,8.78515625 C8.14452598,8.78515625 7.12891113,8.90885293 6.15234375,9.15625 C5.17577637,9.40364707 4.2578168,9.75520605 3.3984375,10.2109375 C3.34635391,10.2500002 3.27474004,10.2858071 3.18359375,10.3183594 C3.09244746,10.3509116 2.99479219,10.3736979 2.890625,10.3867188 L6.11328125,17.0078125 C6.29557383,16.8255199 6.51367061,16.6822922 6.76757812,16.578125 C7.02148564,16.4739578 7.29166523,16.421875 7.578125,16.421875 Z M7.36328125,19.5859375 C7.40234395,19.5859375 7.43815088,19.5826823 7.47070312,19.5761719 C7.50325537,19.5696614 7.5390623,19.5664062 7.578125,19.5664062 C7.83854297,19.5664062 8.0631501,19.4720062 8.25195312,19.2832031 C8.44075615,19.0944001 8.53515625,18.8632826 8.53515625,18.5898438 C8.53515625,18.3294258 8.44075615,18.1048187 8.25195312,17.9160156 C8.0631501,17.7272126 7.83854297,17.6328125 7.578125,17.6328125 C7.38281152,17.6328125 7.21028721,17.6816401 7.06054688,17.7792969 C6.91080654,17.8769536 6.79687539,18.0039055 6.71875,18.1601562 L6.6796875,18.1992188 L7.36328125,19.5859375 Z M12.8515625,13.9023438 C12.5781236,13.9023438 12.343751,13.999999 12.1484375,14.1953125 C11.953124,14.390626 11.8554688,14.6249986 11.8554688,14.8984375 C11.8554688,15.1458346 11.933593,15.3606762 12.0898438,15.5429688 C12.2460945,15.7252613 12.4414051,15.8359373 12.6757812,15.875 C12.701823,15.875 12.7278645,15.8815104 12.7539062,15.8945312 L12.8320312,15.9335938 L13.6328125,14.2929688 L13.59375,14.2539062 C13.5026037,14.1497391 13.3919277,14.0651045 13.2617188,14 C13.1315098,13.9348955 12.9947924,13.9023438 12.8515625,13.9023438 Z M9.19921875,7.57421875 C9.77213828,7.57421875 10.3385389,7.61002568 10.8984375,7.68164062 C11.4583361,7.75325557 12.0052057,7.85742119 12.5390625,7.99414062 C13.0729193,8.13086006 13.5937475,8.29687402 14.1015625,8.4921875 C14.6093775,8.68750098 15.1041643,8.90885293 15.5859375,9.15625 C15.6250002,9.1822918 15.6868485,9.20507803 15.7714844,9.22460938 C15.8561202,9.24414072 15.9505203,9.25390625 16.0546875,9.25390625 C16.2760428,9.25390625 16.4811188,9.19205791 16.6699219,9.06835938 C16.8587249,8.94466084 16.9986975,8.78515723 17.0898438,8.58984375 C17.1289064,8.52473926 17.158203,8.44987021 17.1777344,8.36523438 C17.1972657,8.28059854 17.2070312,8.19270879 17.2070312,8.1015625 C17.2070312,7.88020723 17.1516933,7.6816415 17.0410156,7.50585938 C16.930338,7.33007725 16.7838551,7.19010469 16.6015625,7.0859375 C16.0677057,6.78645684 15.5078154,6.51953242 14.921875,6.28515625 C14.3359346,6.05078008 13.7337271,5.85221436 13.1152344,5.68945312 C12.4967417,5.52669189 11.8587272,5.40299521 11.2011719,5.31835938 C10.5436165,5.23372354 9.87630547,5.19140625 9.19921875,5.19140625 C8.52213203,5.19140625 7.854821,5.23372354 7.19726562,5.31835938 C6.53971025,5.40299521 5.89844063,5.52669189 5.2734375,5.68945312 C4.64843437,5.85221436 4.0397165,6.05403525 3.44726562,6.29492188 C2.85481475,6.5358085 2.28515898,6.81249844 1.73828125,7.125 C1.59505137,7.20312539 1.47135469,7.33007725 1.3671875,7.50585938 C1.26302031,7.6816415 1.2109375,7.88020723 1.2109375,8.1015625 C1.2109375,8.42708496 1.32161348,8.70051973 1.54296875,8.921875 C1.76432402,9.14323027 2.03775879,9.25390625 2.36328125,9.25390625 C2.45442754,9.25390625 2.54557246,9.24414072 2.63671875,9.22460938 C2.72786504,9.20507803 2.81900996,9.16927109 2.91015625,9.1171875 C3.3658877,8.88281133 3.84114336,8.66796973 4.3359375,8.47265625 C4.83073164,8.27734277 5.34179424,8.11458398 5.86914062,7.984375 C6.39648701,7.85416602 6.94010137,7.75325557 7.5,7.68164062 C8.05989863,7.61002568 8.62629922,7.57421875 9.19921875,7.57421875 Z M7.65625,14.5859375 C7.07030957,14.5859375 6.56575732,14.3776062 6.14257812,13.9609375 C5.71939893,13.5442688 5.5078125,13.0429717 5.5078125,12.4570312 C5.5078125,11.8580699 5.71939893,11.3502625 6.14257812,10.9335938 C6.56575732,10.516925 7.07030957,10.3085938 7.65625,10.3085938 C8.25521133,10.3085938 8.76301875,10.516925 9.1796875,10.9335938 C9.59635625,11.3502625 9.8046875,11.8580699 9.8046875,12.4570312 C9.8046875,13.0429717 9.59635625,13.5442688 9.1796875,13.9609375 C8.76301875,14.3776062 8.25521133,14.5859375 7.65625,14.5859375 Z M7.65625,11.5 C7.39583203,11.5 7.17448008,11.5944001 6.9921875,11.7832031 C6.80989492,11.9720062 6.71875,12.1966133 6.71875,12.4570312 C6.71875,12.7174492 6.80989492,12.9388012 6.9921875,13.1210938 C7.17448008,13.3033863 7.39583203,13.3945312 7.65625,13.3945312 C7.91666797,13.3945312 8.13801992,13.3033863 8.3203125,13.1210938 C8.50260508,12.9388012 8.59375,12.7174492 8.59375,12.4570312 C8.59375,12.1966133 8.50260508,11.9720062 8.3203125,11.7832031 C8.13801992,11.5944001 7.91666797,11.5 7.65625,11.5 Z" id=""></path>
                    </g>
                </g>
            </g>
        </g>
    </g>
</svg>