<?xml version="1.0" encoding="UTF-8"?>
<svg width="15px" height="22px" viewBox="0 0 15 22" version="1.1" xmlns="http://www.w3.org/2000/svg" xmlns:xlink="http://www.w3.org/1999/xlink">
    <!-- Generator: Sketch 44.1 (41455) - http://www.bohemiancoding.com/sketch -->
    <title></title>
    <desc>Created with Sketch.</desc>
    <defs></defs>
    <g id="Navigation" stroke="none" stroke-width="1" fill="none" fill-rule="evenodd">
        <g id="1024" transform="translate(-379.000000, -168.000000)" fill="#062942">
            <g id="Group-8" transform="translate(-6.000000, 0.000000)">
                <g id="Stacked-Group-5" transform="translate(384.000000, 168.000000)">
                    <g id="Group-4" transform="translate(1.000000, 0.000000)">
                        <path d="M6.84375,2.5390625 C6.84375,2.76041777 6.76562578,2.94921797 6.609375,3.10546875 C6.45312422,3.26171953 6.26432402,3.33984375 6.04296875,3.33984375 C5.82161348,3.33984375 5.63281328,3.26171953 5.4765625,3.10546875 C5.32031172,2.94921797 5.2421875,2.76041777 5.2421875,2.5390625 C5.2421875,2.31770723 5.32031172,2.12890703 5.4765625,1.97265625 C5.63281328,1.81640547 5.82161348,1.73828125 6.04296875,1.73828125 C6.26432402,1.73828125 6.45312422,1.81640547 6.609375,1.97265625 C6.76562578,2.12890703 6.84375,2.31770723 6.84375,2.5390625 Z M9.578125,2.48046875 C9.49999961,2.48046875 9.42187539,2.46419287 9.34375,2.43164062 C9.26562461,2.39908838 9.20052109,2.35677109 9.1484375,2.3046875 L8.71875,1.875 C8.66666641,1.82291641 8.62434912,1.76106807 8.59179688,1.68945312 C8.55924463,1.61783818 8.54296875,1.53645879 8.54296875,1.4453125 C8.54296875,1.36718711 8.55924463,1.29231807 8.59179688,1.22070312 C8.62434912,1.14908818 8.66666641,1.08723984 8.71875,1.03515625 C8.77083359,0.970051758 8.83268193,0.924479297 8.90429688,0.8984375 C8.97591182,0.872395703 9.05729121,0.859375 9.1484375,0.859375 C9.22656289,0.859375 9.30143193,0.872395703 9.37304688,0.8984375 C9.44466182,0.924479297 9.51302051,0.970051758 9.578125,1.03515625 L10.0078125,1.46484375 C10.0598961,1.51692734 10.1022134,1.57877568 10.1347656,1.65039062 C10.1673179,1.72200557 10.1835938,1.80338496 10.1835938,1.89453125 C10.1835938,2.05078203 10.1250006,2.18749941 10.0078125,2.3046875 C9.89062441,2.42187559 9.74739668,2.48046875 9.578125,2.48046875 Z M9.1484375,5.15625 C8.97916582,5.15625 8.83593809,5.09765684 8.71875,4.98046875 C8.60156191,4.86328066 8.54296875,4.72656328 8.54296875,4.5703125 C8.54296875,4.47916621 8.55924463,4.39778682 8.59179688,4.32617188 C8.62434912,4.25455693 8.66666641,4.19270859 8.71875,4.140625 L9.1484375,3.7109375 C9.20052109,3.64583301 9.26562461,3.59700537 9.34375,3.56445312 C9.42187539,3.53190088 9.49999961,3.515625 9.578125,3.515625 C9.74739668,3.515625 9.89062441,3.57421816 10.0078125,3.69140625 C10.1250006,3.80859434 10.1835938,3.95182207 10.1835938,4.12109375 C10.1835938,4.21224004 10.1673179,4.29361943 10.1347656,4.36523438 C10.1022134,4.43684932 10.0598961,4.49869766 10.0078125,4.55078125 L9.578125,4.98046875 C9.51302051,5.04557324 9.44466182,5.0911457 9.37304688,5.1171875 C9.30143193,5.1432293 9.22656289,5.15625 9.1484375,5.15625 Z M12.2539062,5.15625 C12.1757809,5.15625 12.1009118,5.1432293 12.0292969,5.1171875 C11.9576819,5.0911457 11.8893232,5.04557324 11.8242188,4.98046875 L11.3945312,4.55078125 C11.3424477,4.49869766 11.3001304,4.43684932 11.2675781,4.36523438 C11.2350259,4.29361943 11.21875,4.21875039 11.21875,4.140625 C11.21875,3.97135332 11.2773432,3.82812559 11.3945312,3.7109375 C11.5117193,3.59374941 11.6549471,3.53515625 11.8242188,3.53515625 C11.9023441,3.53515625 11.9772132,3.55143213 12.0488281,3.58398438 C12.1204431,3.61653662 12.1888018,3.65885391 12.2539062,3.7109375 L12.6835938,4.140625 C12.7356773,4.19270859 12.7779946,4.25455693 12.8105469,4.32617188 C12.8430991,4.39778682 12.859375,4.47916621 12.859375,4.5703125 C12.859375,4.72656328 12.8007818,4.86328066 12.6835938,4.98046875 C12.5664057,5.09765684 12.4231779,5.15625 12.2539062,5.15625 Z M11.8242188,2.48046875 C11.6549471,2.48046875 11.5117193,2.42187559 11.3945312,2.3046875 C11.2773432,2.18749941 11.21875,2.05078203 11.21875,1.89453125 C11.21875,1.80338496 11.2350259,1.72200557 11.2675781,1.65039062 C11.3001304,1.57877568 11.3424477,1.51692734 11.3945312,1.46484375 L11.8242188,1.03515625 C11.8893232,0.970051758 11.9576819,0.924479297 12.0292969,0.8984375 C12.1009118,0.872395703 12.1757809,0.859375 12.2539062,0.859375 C12.3450525,0.859375 12.4264319,0.872395703 12.4980469,0.8984375 C12.5696618,0.924479297 12.6315102,0.970051758 12.6835938,1.03515625 C12.7356773,1.08723984 12.7779946,1.14908818 12.8105469,1.22070312 C12.8430991,1.29231807 12.859375,1.36718711 12.859375,1.4453125 C12.859375,1.53645879 12.8430991,1.61783818 12.8105469,1.68945312 C12.7779946,1.76106807 12.7356773,1.82291641 12.6835938,1.875 L12.2539062,2.3046875 C12.2018227,2.35677109 12.1367191,2.39908838 12.0585938,2.43164062 C11.9804684,2.46419287 11.9023441,2.48046875 11.8242188,2.48046875 Z M7.5078125,21.25 L7.46875,21.25 C6.6484334,21.25 5.83789463,21.2044275 5.03710938,21.1132812 C4.23632412,21.022135 3.45182676,20.8919279 2.68359375,20.7226562 C2.33202949,20.63151 2.00000156,20.4524753 1.6875,20.1855469 C1.37499844,19.9186185 1.14062578,19.5963561 0.984375,19.21875 C0.906249609,19.0494783 0.847656445,18.8736988 0.80859375,18.6914062 C0.769531055,18.5091137 0.75,18.3203135 0.75,18.125 C0.75,17.8776029 0.782551758,17.6399751 0.84765625,17.4121094 C0.912760742,17.1842437 1.00390566,16.9661469 1.12109375,16.7578125 L5.046875,10.0390625 C5.11197949,9.93489531 5.1640623,9.81770898 5.203125,9.6875 C5.2421877,9.55729102 5.26171875,9.42708398 5.26171875,9.296875 L5.26171875,8.06640625 L4.83203125,8.06640625 C4.66275957,8.06640625 4.51953184,8.00781309 4.40234375,7.890625 C4.28515566,7.77343691 4.2265625,7.63671953 4.2265625,7.48046875 C4.2265625,7.31119707 4.28515566,7.16796934 4.40234375,7.05078125 C4.51953184,6.93359316 4.66275957,6.875 4.83203125,6.875 L10.4960938,6.875 C10.6653654,6.875 10.8085932,6.93359316 10.9257812,7.05078125 C11.0429693,7.16796934 11.1015625,7.31119707 11.1015625,7.48046875 C11.1015625,7.63671953 11.0429693,7.77343691 10.9257812,7.890625 C10.8085932,8.00781309 10.6653654,8.06640625 10.4960938,8.06640625 L10.0859375,8.06640625 L10.1054688,9.609375 L10.1054688,9.62890625 C10.1054688,9.65494805 10.1087239,9.67773428 10.1152344,9.69726562 C10.1217448,9.71679697 10.1315104,9.7395832 10.1445312,9.765625 L14.2265625,16.7382812 C14.3307297,16.9335947 14.4186194,17.1451812 14.4902344,17.3730469 C14.5618493,17.6009126 14.5976562,17.8385404 14.5976562,18.0859375 C14.5976562,18.281251 14.57487,18.4733063 14.5292969,18.6621094 C14.4837237,18.8509124 14.4218754,19.0234367 14.34375,19.1796875 C14.1874992,19.5703145 13.9466162,19.8990872 13.6210938,20.1660156 C13.2955713,20.432944 12.9244812,20.6119787 12.5078125,20.703125 C11.7526004,20.8723967 10.9518271,21.0058589 10.1054688,21.1035156 C9.25911035,21.2011724 8.39323359,21.25 7.5078125,21.25 Z M2.15625,17.3828125 C2.09114551,17.4869797 2.0390627,17.604166 2,17.734375 C1.9609373,17.864584 1.94140625,17.994791 1.94140625,18.125 C1.94140625,18.2421881 1.95442695,18.3496089 1.98046875,18.4472656 C2.00651055,18.5449224 2.0390623,18.6393225 2.078125,18.7304688 C2.16927129,18.9388031 2.3027335,19.1178378 2.47851562,19.2675781 C2.65429775,19.4173185 2.85286348,19.5182289 3.07421875,19.5703125 C3.73828457,19.7265633 4.44140254,19.8470048 5.18359375,19.9316406 C5.92578496,20.0162765 6.68749609,20.0585938 7.46875,20.0585938 L7.5078125,20.0585938 C8.34115,20.0455729 9.16470947,19.99349 9.97851562,19.9023438 C10.7923218,19.8111975 11.5963502,19.6809904 12.390625,19.5117188 C12.5468758,19.4726561 12.7063794,19.378256 12.8691406,19.2285156 C13.0319019,19.0787753 13.1588537,18.8997406 13.25,18.6914062 C13.3020836,18.60026 13.3378905,18.5058599 13.3574219,18.4082031 C13.3769532,18.3105464 13.3867188,18.2031256 13.3867188,18.0859375 C13.3867188,17.9557285 13.3671877,17.8255215 13.328125,17.6953125 C13.2890623,17.5651035 13.2369795,17.4479172 13.171875,17.34375 L12.5664062,16.2890625 L12.546875,16.2890625 C12.5078123,16.2890625 12.4720054,16.2858073 12.4394531,16.2792969 C12.4069009,16.2727864 12.3710939,16.2630209 12.3320312,16.25 C12.1627596,16.1718746 11.9772146,16.1132814 11.7753906,16.0742188 C11.5735667,16.0351561 11.3619803,16.015625 11.140625,16.015625 C10.6979145,16.015625 10.2617209,16.0970044 9.83203125,16.2597656 C9.4023416,16.4225269 8.9596377,16.6080719 8.50390625,16.8164062 C8.28255098,16.9205734 8.05468867,17.0247391 7.8203125,17.1289062 C7.58593633,17.2330734 7.33854297,17.3242184 7.078125,17.4023438 C6.77864434,17.5065109 6.44987158,17.5878903 6.09179688,17.6464844 C5.73372217,17.7050784 5.37239766,17.734375 5.0078125,17.734375 L4.79296875,17.734375 C4.3372373,17.734375 3.90104375,17.6757818 3.484375,17.5585938 C3.06770625,17.4414057 2.67708516,17.2721365 2.3125,17.0507812 L2.33203125,17.0703125 L2.15625,17.3828125 Z M3.50068803,15.0835627 L2.9375,16.0351562 C3.19791797,16.191407 3.48111826,16.3151037 3.78710938,16.40625 C4.09310049,16.4973963 4.41536289,16.5429688 4.75390625,16.5429688 L5.0078125,16.5429688 C5.30729316,16.5429688 5.60025898,16.5201825 5.88671875,16.4746094 C6.17317852,16.4290362 6.45312363,16.3606775 6.7265625,16.2695312 C6.93489687,16.1914059 7.1464833,16.1067713 7.36132812,16.015625 C7.57617295,15.9244787 7.78775938,15.8268234 7.99609375,15.7226562 C8.49088789,15.501301 8.99544014,15.2929697 9.50976562,15.0976562 C10.0240911,14.9023428 10.5677055,14.8046875 11.140625,14.8046875 C11.2447922,14.8046875 11.3457026,14.8079427 11.4433594,14.8144531 C11.5410161,14.8209636 11.6419266,14.8307291 11.7460938,14.84375 L9.109375,10.3710938 C9.04427051,10.2539057 8.9921877,10.1334642 8.953125,10.0097656 C8.9140623,9.88606709 8.89453125,9.75911523 8.89453125,9.62890625 L8.89453125,8.06640625 L6.453125,8.06640625 L6.453125,9.296875 C6.453125,9.54427207 6.42057324,9.7818999 6.35546875,10.0097656 C6.29036426,10.2376313 6.19921934,10.4557281 6.08203125,10.6640625 L5.75,11.2304688 L6.78515625,11.2304688 C6.94140703,11.2304688 7.07812441,11.2890619 7.1953125,11.40625 C7.31250059,11.5234381 7.37109375,11.6666658 7.37109375,11.8359375 C7.37109375,11.9921883 7.31250059,12.1289057 7.1953125,12.2460938 C7.07812441,12.3632818 6.94140703,12.421875 6.78515625,12.421875 L5.30078125,12.421875 C5.26171855,12.421875 5.22265645,12.4186198 5.18359375,12.4121094 C5.14453105,12.4055989 5.10546895,12.3958334 5.06640625,12.3828125 L4.16796875,13.9257812 L5.515625,13.9257812 C5.68489668,13.9257812 5.82812441,13.9843744 5.9453125,14.1015625 C6.06250059,14.2187506 6.12109375,14.3619783 6.12109375,14.53125 C6.12109375,14.7005217 6.06250059,14.8437494 5.9453125,14.9609375 C5.82812441,15.0781256 5.68489668,15.1367188 5.515625,15.1367188 L3.71875,15.1367188 C3.6796873,15.1367188 3.6406252,15.1302084 3.6015625,15.1171875 C3.56793751,15.1059792 3.53431295,15.094771 3.50068808,15.0835627 L3.50068803,15.0835627 Z" id=""></path>
                    </g>
                </g>
            </g>
        </g>
    </g>
</svg>