<?xml version="1.0" encoding="UTF-8"?>
<svg width="15px" height="22px" viewBox="0 0 15 22" version="1.1" xmlns="http://www.w3.org/2000/svg" xmlns:xlink="http://www.w3.org/1999/xlink">
    <!-- Generator: Sketch 44.1 (41455) - http://www.bohemiancoding.com/sketch -->
    <title></title>
    <desc>Created with Sketch.</desc>
    <defs></defs>
    <g id="Navigation" stroke="none" stroke-width="1" fill="none" fill-rule="evenodd">
        <g id="1440-How-It-Works" transform="translate(-819.000000, -168.000000)" fill="#0D83DD">
            <path d="M825.84375,170.539062 C825.84375,170.760418 825.765626,170.949218 825.609375,171.105469 C825.453124,171.26172 825.264324,171.339844 825.042969,171.339844 C824.821613,171.339844 824.632813,171.26172 824.476562,171.105469 C824.320312,170.949218 824.242188,170.760418 824.242188,170.539062 C824.242188,170.317707 824.320312,170.128907 824.476562,169.972656 C824.632813,169.816405 824.821613,169.738281 825.042969,169.738281 C825.264324,169.738281 825.453124,169.816405 825.609375,169.972656 C825.765626,170.128907 825.84375,170.317707 825.84375,170.539062 Z M828.578125,170.480469 C828.5,170.480469 828.421875,170.464193 828.34375,170.431641 C828.265625,170.399088 828.200521,170.356771 828.148438,170.304688 L827.71875,169.875 C827.666666,169.822916 827.624349,169.761068 827.591797,169.689453 C827.559245,169.617838 827.542969,169.536459 827.542969,169.445312 C827.542969,169.367187 827.559245,169.292318 827.591797,169.220703 C827.624349,169.149088 827.666666,169.08724 827.71875,169.035156 C827.770834,168.970052 827.832682,168.924479 827.904297,168.898438 C827.975912,168.872396 828.057291,168.859375 828.148438,168.859375 C828.226563,168.859375 828.301432,168.872396 828.373047,168.898438 C828.444662,168.924479 828.513021,168.970052 828.578125,169.035156 L829.007812,169.464844 C829.059896,169.516927 829.102213,169.578776 829.134766,169.650391 C829.167318,169.722006 829.183594,169.803385 829.183594,169.894531 C829.183594,170.050782 829.125001,170.187499 829.007812,170.304688 C828.890624,170.421876 828.747397,170.480469 828.578125,170.480469 Z M828.148438,173.15625 C827.979166,173.15625 827.835938,173.097657 827.71875,172.980469 C827.601562,172.863281 827.542969,172.726563 827.542969,172.570312 C827.542969,172.479166 827.559245,172.397787 827.591797,172.326172 C827.624349,172.254557 827.666666,172.192709 827.71875,172.140625 L828.148438,171.710938 C828.200521,171.645833 828.265625,171.597005 828.34375,171.564453 C828.421875,171.531901 828.5,171.515625 828.578125,171.515625 C828.747397,171.515625 828.890624,171.574218 829.007812,171.691406 C829.125001,171.808594 829.183594,171.951822 829.183594,172.121094 C829.183594,172.21224 829.167318,172.293619 829.134766,172.365234 C829.102213,172.436849 829.059896,172.498698 829.007812,172.550781 L828.578125,172.980469 C828.513021,173.045573 828.444662,173.091146 828.373047,173.117188 C828.301432,173.143229 828.226563,173.15625 828.148438,173.15625 Z M831.253906,173.15625 C831.175781,173.15625 831.100912,173.143229 831.029297,173.117188 C830.957682,173.091146 830.889323,173.045573 830.824219,172.980469 L830.394531,172.550781 C830.342448,172.498698 830.30013,172.436849 830.267578,172.365234 C830.235026,172.293619 830.21875,172.21875 830.21875,172.140625 C830.21875,171.971353 830.277343,171.828126 830.394531,171.710938 C830.511719,171.593749 830.654947,171.535156 830.824219,171.535156 C830.902344,171.535156 830.977213,171.551432 831.048828,171.583984 C831.120443,171.616537 831.188802,171.658854 831.253906,171.710938 L831.683594,172.140625 C831.735677,172.192709 831.777995,172.254557 831.810547,172.326172 C831.843099,172.397787 831.859375,172.479166 831.859375,172.570312 C831.859375,172.726563 831.800782,172.863281 831.683594,172.980469 C831.566406,173.097657 831.423178,173.15625 831.253906,173.15625 Z M830.824219,170.480469 C830.654947,170.480469 830.511719,170.421876 830.394531,170.304688 C830.277343,170.187499 830.21875,170.050782 830.21875,169.894531 C830.21875,169.803385 830.235026,169.722006 830.267578,169.650391 C830.30013,169.578776 830.342448,169.516927 830.394531,169.464844 L830.824219,169.035156 C830.889323,168.970052 830.957682,168.924479 831.029297,168.898438 C831.100912,168.872396 831.175781,168.859375 831.253906,168.859375 C831.345053,168.859375 831.426432,168.872396 831.498047,168.898438 C831.569662,168.924479 831.63151,168.970052 831.683594,169.035156 C831.735677,169.08724 831.777995,169.149088 831.810547,169.220703 C831.843099,169.292318 831.859375,169.367187 831.859375,169.445312 C831.859375,169.536459 831.843099,169.617838 831.810547,169.689453 C831.777995,169.761068 831.735677,169.822916 831.683594,169.875 L831.253906,170.304688 C831.201823,170.356771 831.136719,170.399088 831.058594,170.431641 C830.980468,170.464193 830.902344,170.480469 830.824219,170.480469 Z M826.507812,189.25 L826.46875,189.25 C825.648433,189.25 824.837895,189.204428 824.037109,189.113281 C823.236324,189.022135 822.451827,188.891928 821.683594,188.722656 C821.332029,188.63151 821.000002,188.452475 820.6875,188.185547 C820.374998,187.918618 820.140626,187.596356 819.984375,187.21875 C819.90625,187.049478 819.847656,186.873699 819.808594,186.691406 C819.769531,186.509114 819.75,186.320313 819.75,186.125 C819.75,185.877603 819.782552,185.639975 819.847656,185.412109 C819.912761,185.184244 820.003906,184.966147 820.121094,184.757812 L824.046875,178.039062 C824.111979,177.934895 824.164062,177.817709 824.203125,177.6875 C824.242188,177.557291 824.261719,177.427084 824.261719,177.296875 L824.261719,176.066406 L823.832031,176.066406 C823.66276,176.066406 823.519532,176.007813 823.402344,175.890625 C823.285156,175.773437 823.226562,175.63672 823.226562,175.480469 C823.226562,175.311197 823.285156,175.167969 823.402344,175.050781 C823.519532,174.933593 823.66276,174.875 823.832031,174.875 L829.496094,174.875 C829.665365,174.875 829.808593,174.933593 829.925781,175.050781 C830.042969,175.167969 830.101562,175.311197 830.101562,175.480469 C830.101562,175.63672 830.042969,175.773437 829.925781,175.890625 C829.808593,176.007813 829.665365,176.066406 829.496094,176.066406 L829.085938,176.066406 L829.105469,177.609375 L829.105469,177.628906 C829.105469,177.654948 829.108724,177.677734 829.115234,177.697266 C829.121745,177.716797 829.13151,177.739583 829.144531,177.765625 L833.226562,184.738281 C833.33073,184.933595 833.418619,185.145181 833.490234,185.373047 C833.561849,185.600913 833.597656,185.83854 833.597656,186.085938 C833.597656,186.281251 833.57487,186.473306 833.529297,186.662109 C833.483724,186.850912 833.421875,187.023437 833.34375,187.179688 C833.187499,187.570314 832.946616,187.899087 832.621094,188.166016 C832.295571,188.432944 831.924481,188.611979 831.507812,188.703125 C830.7526,188.872397 829.951827,189.005859 829.105469,189.103516 C828.25911,189.201172 827.393234,189.25 826.507812,189.25 Z M821.15625,185.382812 C821.091146,185.48698 821.039063,185.604166 821,185.734375 C820.960937,185.864584 820.941406,185.994791 820.941406,186.125 C820.941406,186.242188 820.954427,186.349609 820.980469,186.447266 C821.006511,186.544922 821.039062,186.639322 821.078125,186.730469 C821.169271,186.938803 821.302733,187.117838 821.478516,187.267578 C821.654298,187.417318 821.852863,187.518229 822.074219,187.570312 C822.738285,187.726563 823.441403,187.847005 824.183594,187.931641 C824.925785,188.016276 825.687496,188.058594 826.46875,188.058594 L826.507812,188.058594 C827.34115,188.045573 828.164709,187.99349 828.978516,187.902344 C829.792322,187.811197 830.59635,187.68099 831.390625,187.511719 C831.546876,187.472656 831.706379,187.378256 831.869141,187.228516 C832.031902,187.078775 832.158854,186.899741 832.25,186.691406 C832.302084,186.60026 832.337891,186.50586 832.357422,186.408203 C832.376953,186.310546 832.386719,186.203126 832.386719,186.085938 C832.386719,185.955729 832.367188,185.825521 832.328125,185.695312 C832.289062,185.565104 832.236979,185.447917 832.171875,185.34375 L831.566406,184.289062 L831.546875,184.289062 C831.507812,184.289062 831.472005,184.285807 831.439453,184.279297 C831.406901,184.272786 831.371094,184.263021 831.332031,184.25 C831.16276,184.171875 830.977215,184.113281 830.775391,184.074219 C830.573567,184.035156 830.36198,184.015625 830.140625,184.015625 C829.697914,184.015625 829.261721,184.097004 828.832031,184.259766 C828.402342,184.422527 827.959638,184.608072 827.503906,184.816406 C827.282551,184.920573 827.054689,185.024739 826.820312,185.128906 C826.585936,185.233073 826.338543,185.324218 826.078125,185.402344 C825.778644,185.506511 825.449872,185.58789 825.091797,185.646484 C824.733722,185.705078 824.372398,185.734375 824.007812,185.734375 L823.792969,185.734375 C823.337237,185.734375 822.901044,185.675782 822.484375,185.558594 C822.067706,185.441406 821.677085,185.272137 821.3125,185.050781 L821.332031,185.070312 L821.15625,185.382812 Z M822.500688,183.083563 L821.9375,184.035156 C822.197918,184.191407 822.481118,184.315104 822.787109,184.40625 C823.0931,184.497396 823.415363,184.542969 823.753906,184.542969 L824.007812,184.542969 C824.307293,184.542969 824.600259,184.520183 824.886719,184.474609 C825.173179,184.429036 825.453124,184.360678 825.726562,184.269531 C825.934897,184.191406 826.146483,184.106771 826.361328,184.015625 C826.576173,183.924479 826.787759,183.826823 826.996094,183.722656 C827.490888,183.501301 827.99544,183.29297 828.509766,183.097656 C829.024091,182.902343 829.567705,182.804688 830.140625,182.804688 C830.244792,182.804688 830.345703,182.807943 830.443359,182.814453 C830.541016,182.820964 830.641927,182.830729 830.746094,182.84375 L828.109375,178.371094 C828.044271,178.253906 827.992188,178.133464 827.953125,178.009766 C827.914062,177.886067 827.894531,177.759115 827.894531,177.628906 L827.894531,176.066406 L825.453125,176.066406 L825.453125,177.296875 C825.453125,177.544272 825.420573,177.7819 825.355469,178.009766 C825.290364,178.237631 825.199219,178.455728 825.082031,178.664062 L824.75,179.230469 L825.785156,179.230469 C825.941407,179.230469 826.078124,179.289062 826.195312,179.40625 C826.312501,179.523438 826.371094,179.666666 826.371094,179.835938 C826.371094,179.992188 826.312501,180.128906 826.195312,180.246094 C826.078124,180.363282 825.941407,180.421875 825.785156,180.421875 L824.300781,180.421875 C824.261719,180.421875 824.222656,180.41862 824.183594,180.412109 C824.144531,180.405599 824.105469,180.395833 824.066406,180.382812 L823.167969,181.925781 L824.515625,181.925781 C824.684897,181.925781 824.828124,181.984374 824.945312,182.101562 C825.062501,182.218751 825.121094,182.361978 825.121094,182.53125 C825.121094,182.700522 825.062501,182.843749 824.945312,182.960938 C824.828124,183.078126 824.684897,183.136719 824.515625,183.136719 L822.71875,183.136719 C822.679687,183.136719 822.640625,183.130208 822.601562,183.117188 C822.567938,183.105979 822.534313,183.094771 822.500688,183.083563 L822.500688,183.083563 Z" id=""></path>
        </g>
    </g>
</svg>