<?xml version="1.0" encoding="UTF-8"?>
<svg width="18px" height="21px" viewBox="0 0 18 21" version="1.1" xmlns="http://www.w3.org/2000/svg" xmlns:xlink="http://www.w3.org/1999/xlink">
    <!-- Generator: Sketch 44.1 (41455) - http://www.bohemiancoding.com/sketch -->
    <title></title>
    <desc>Created with Sketch.</desc>
    <defs></defs>
    <g id="Navigation" stroke="none" stroke-width="1" fill="none" fill-rule="evenodd">
        <g id="1024" transform="translate(-378.000000, -214.000000)" fill="#062942">
            <g id="Group-8" transform="translate(-6.000000, 0.000000)">
                <g id="Stacked-Group-5" transform="translate(384.000000, 168.000000)">
                    <g id="Group-5" transform="translate(0.000000, 41.000000)">
                        <path d="M5.5,22.84375 C5.14843574,22.84375 4.84895957,22.7200533 4.6015625,22.4726562 C4.35416543,22.2252592 4.23046875,21.925783 4.23046875,21.5742188 C4.23046875,21.2226545 4.35416543,20.9199231 4.6015625,20.6660156 C4.84895957,20.4121081 5.14843574,20.2851562 5.5,20.2851562 C5.85156426,20.2851562 6.15104043,20.4121081 6.3984375,20.6660156 C6.64583457,20.9199231 6.76953125,21.2226545 6.76953125,21.5742188 C6.76953125,21.6393232 6.76627607,21.7044268 6.75976562,21.7695312 C6.75325518,21.8346357 6.7369793,21.8997393 6.7109375,21.9648438 C6.63281211,22.2252617 6.48307402,22.4368481 6.26171875,22.5996094 C6.04036348,22.7623706 5.78645977,22.84375 5.5,22.84375 Z M9.4453125,20.3046875 C8.67707949,20.2916666 7.98047188,20.0931009 7.35546875,19.7089844 C6.73046562,19.3248679 6.23567891,18.826826 5.87109375,18.2148438 C5.58463398,18.3710945 5.27213711,18.4980464 4.93359375,18.5957031 C4.59505039,18.6933599 4.24349141,18.7421875 3.87890625,18.7421875 C3.34504941,18.7421875 2.84375234,18.6412771 2.375,18.4394531 C1.90624766,18.2376292 1.49935068,17.9641944 1.15429688,17.6191406 C0.809243066,17.2740868 0.535808301,16.8671898 0.333984375,16.3984375 C0.132160449,15.9296852 0.03125,15.4283881 0.03125,14.8945312 C0.03125,14.0872355 0.26236748,13.3580762 0.724609375,12.7070312 C1.18685127,12.0559863 1.77603809,11.5937514 2.4921875,11.3203125 C2.4661457,11.2031244 2.44661465,11.0794277 2.43359375,10.9492188 C2.42057285,10.8190098 2.4140625,10.6888027 2.4140625,10.5585938 C2.4140625,9.73827715 2.70377314,9.04166953 3.28320312,8.46875 C3.86263311,7.89583047 4.55598555,7.609375 5.36328125,7.609375 L5.40234375,7.609375 C5.62369902,7.609375 5.8417958,7.63216123 6.05664062,7.67773438 C6.27148545,7.72330752 6.47005117,7.79166621 6.65234375,7.8828125 C6.75651094,7.93489609 6.85416621,7.98697891 6.9453125,8.0390625 C7.03645879,8.09114609 7.12109336,8.14973926 7.19921875,8.21484375 C7.47265762,7.73307051 7.81770625,7.31640801 8.234375,6.96484375 C8.65104375,6.61327949 9.11978906,6.33984473 9.640625,6.14453125 C9.87500117,6.06640586 10.1158842,6.00455752 10.3632812,5.95898438 C10.6106783,5.91341123 10.8710924,5.890625 11.1445312,5.890625 L11.1835938,5.890625 C11.8216178,5.890625 12.4173149,6.0110665 12.9707031,6.25195312 C13.5240913,6.49283975 14.0058573,6.8216125 14.4160156,7.23828125 C14.8261739,7.65495 15.1516915,8.13997119 15.3925781,8.69335938 C15.6334647,9.24674756 15.7539062,9.83593438 15.7539062,10.4609375 C15.7539062,10.7083346 15.7343752,10.9492176 15.6953125,11.1835938 C15.6562498,11.4179699 15.604167,11.6523426 15.5390625,11.8867188 C16.0598984,12.108074 16.4830713,12.4563778 16.8085938,12.9316406 C17.1341162,13.4069034 17.296875,13.9440074 17.296875,14.5429687 C17.296875,15.3632854 17.0071644,16.0631481 16.4277344,16.6425781 C15.8483044,17.2220081 15.154952,17.5117188 14.3476563,17.5117188 C14.2304682,17.5117188 14.1132818,17.5052084 13.9960938,17.4921875 C13.8789057,17.4791666 13.7617193,17.4596355 13.6445312,17.4335938 C13.3450506,18.2799521 12.8274776,18.9700494 12.0917969,19.5039062 C11.3561161,20.0377631 10.5195359,20.3046875 9.58203125,20.3046875 L9.4453125,20.3046875 Z M5.94921875,16.8671875 C6.13151133,16.8671875 6.29427012,16.91276 6.4375,17.0039062 C6.58072988,17.0950525 6.69140586,17.2122389 6.76953125,17.3554688 C7.02994922,17.8632838 7.39778408,18.2766911 7.87304688,18.5957031 C8.34830967,18.9147151 8.88541367,19.0872395 9.484375,19.1132812 L9.58203125,19.1132812 C10.2981807,19.1132812 10.9296848,18.8984396 11.4765625,18.46875 C12.0234402,18.0390604 12.3945303,17.4987012 12.5898438,16.8476562 C12.6289064,16.7174473 12.6874996,16.6035161 12.765625,16.5058594 C12.8437504,16.4082026 12.9348953,16.3333336 13.0390625,16.28125 C13.104167,16.2421873 13.1725257,16.2128907 13.2441406,16.1933594 C13.3157556,16.173828 13.3906246,16.1640625 13.46875,16.1640625 C13.5208336,16.1640625 13.5729164,16.1705729 13.625,16.1835938 L13.78125,16.2226562 C13.8593754,16.248698 13.9472651,16.2682291 14.0449219,16.28125 C14.1425786,16.2942709 14.2369787,16.3007812 14.328125,16.3007812 C14.8229191,16.3007812 15.2428368,16.1315121 15.5878906,15.7929688 C15.9329444,15.4544254 16.1054688,15.0377629 16.1054688,14.5429688 C16.1054688,14.4257807 16.092448,14.3118495 16.0664062,14.2011719 C16.0403645,14.0904942 16.0078127,13.9830734 15.96875,13.8789062 C15.8776037,13.6445301 15.7376312,13.439454 15.5488281,13.2636719 C15.3600251,13.0878897 15.1484387,12.9609379 14.9140625,12.8828125 C14.7838535,12.8437498 14.6731775,12.7819015 14.5820312,12.6972656 C14.490885,12.6126298 14.4127607,12.5117193 14.3476562,12.3945312 C14.3216145,12.3424477 14.3020834,12.2838545 14.2890625,12.21875 C14.2760416,12.1536455 14.2695312,12.0820316 14.2695312,12.0039062 C14.2695312,11.9518227 14.2760416,11.8964847 14.2890625,11.8378906 C14.3020834,11.7792966 14.3151041,11.7239586 14.328125,11.671875 C14.4062504,11.5026033 14.4648436,11.3138031 14.5039062,11.1054688 C14.5429689,10.8971344 14.5625,10.6822928 14.5625,10.4609375 C14.5625,9.53645371 14.2337272,8.745446 13.5761719,8.08789062 C12.9186165,7.43033525 12.1210984,7.1015625 11.1835938,7.1015625 L11.1445312,7.1015625 C10.9492178,7.1015625 10.7604176,7.11783838 10.578125,7.15039062 C10.3958324,7.18294287 10.2200529,7.22526016 10.0507812,7.27734375 C9.6210916,7.43359453 9.24023604,7.66471201 8.90820312,7.97070312 C8.57617021,8.27669424 8.31250098,8.6315084 8.1171875,9.03515625 C8.05208301,9.17838613 7.96093809,9.29882764 7.84375,9.39648438 C7.72656191,9.49414111 7.58984453,9.55598945 7.43359375,9.58203125 C7.40755195,9.58203125 7.38151055,9.58528643 7.35546875,9.59179688 C7.32942695,9.59830732 7.30338555,9.6015625 7.27734375,9.6015625 C7.14713477,9.6015625 7.02669326,9.57552109 6.91601562,9.5234375 C6.80533799,9.47135391 6.71093789,9.40625039 6.6328125,9.328125 C6.47656172,9.15885332 6.2910167,9.02864629 6.07617188,8.9375 C5.86132705,8.84635371 5.63020957,8.80078125 5.3828125,8.80078125 C5.10937363,8.80078125 4.8587251,8.85611924 4.63085938,8.96679688 C4.40299365,9.07747451 4.20442793,9.22395742 4.03515625,9.40625 C3.90494727,9.56250078 3.80078164,9.73828027 3.72265625,9.93359375 C3.64453086,10.1289072 3.60546875,10.3372385 3.60546875,10.5585938 C3.60546875,10.6627609 3.61848945,10.7701817 3.64453125,10.8808594 C3.67057305,10.991537 3.69661445,11.0924475 3.72265625,11.1835938 C3.74869805,11.2226564 3.76497393,11.2714841 3.77148438,11.3300781 C3.77799482,11.3886722 3.78125,11.4440102 3.78125,11.4960938 C3.78125,11.5742191 3.77473965,11.6490882 3.76171875,11.7207031 C3.74869785,11.7923181 3.72265645,11.8541664 3.68359375,11.90625 C3.63151016,12.0234381 3.55664111,12.1210934 3.45898438,12.1992188 C3.36132764,12.2773441 3.25390684,12.3359373 3.13671875,12.375 C2.7070291,12.4921881 2.33593906,12.7037745 2.0234375,13.0097656 C1.71093594,13.3157567 1.48958398,13.6770813 1.359375,14.09375 C1.3203123,14.223959 1.29101572,14.3574212 1.27148438,14.4941406 C1.25195303,14.6308601 1.2421875,14.7643223 1.2421875,14.8945312 C1.2421875,15.6237016 1.49934639,16.2454401 2.01367188,16.7597656 C2.52799736,17.2740911 3.14973594,17.53125 3.87890625,17.53125 C4.16536602,17.53125 4.44205596,17.4889327 4.70898438,17.4042969 C4.97591279,17.319661 5.21354063,17.1927092 5.421875,17.0234375 C5.50000039,16.9713539 5.58463496,16.9322918 5.67578125,16.90625 C5.76692754,16.8802082 5.85807246,16.8671875 5.94921875,16.8671875 Z M9.03515625,24.6601562 C9.03515625,24.946616 8.93099062,25.1907542 8.72265625,25.3925781 C8.51432188,25.5944021 8.26692852,25.6953125 7.98046875,25.6953125 C7.69400898,25.6953125 7.4498708,25.5944021 7.24804688,25.3925781 C7.04622295,25.1907542 6.9453125,24.946616 6.9453125,24.6601562 C6.9453125,24.3736965 7.04622295,24.1263031 7.24804688,23.9179688 C7.4498708,23.7096344 7.69400898,23.6054688 7.98046875,23.6054688 C8.26692852,23.6054688 8.51432188,23.7096344 8.72265625,23.9179688 C8.93099062,24.1263031 9.03515625,24.3736965 9.03515625,24.6601562 Z" id=""></path>
                    </g>
                </g>
            </g>
        </g>
    </g>
</svg>