<?xml version="1.0" encoding="UTF-8"?>
<svg width="19px" height="19px" viewBox="0 0 19 19" version="1.1" xmlns="http://www.w3.org/2000/svg" xmlns:xlink="http://www.w3.org/1999/xlink">
    <!-- Generator: Sketch 44.1 (41455) - http://www.bohemiancoding.com/sketch -->
    <title>юдн</title>
    <desc>Created with Sketch.</desc>
    <defs></defs>
    <g id="Navigation" stroke="none" stroke-width="1" fill="none" fill-rule="evenodd">
        <g id="1440-How-It-Works" transform="translate(-646.000000, -171.000000)" fill="#0D83DD">
            <path d="M648.96875,189.671875 C648.148433,189.671875 647.448571,189.382164 646.869141,188.802734 C646.289711,188.223304 646,187.523442 646,186.703125 L646,186.488281 C646,186.019529 646.162759,185.619142 646.488281,185.287109 C646.813804,184.955076 647.210935,184.789062 647.679688,184.789062 L648.050781,184.789062 L648.050781,175.238281 C648.050781,174.678383 648.252602,174.196617 648.65625,173.792969 C649.059898,173.389321 649.541664,173.1875 650.101562,173.1875 L653.832031,173.1875 C654.235679,172.848957 654.697914,172.546225 655.21875,172.279297 C655.739586,172.012368 656.292966,171.784506 656.878906,171.595703 C657.464847,171.4069 658.07682,171.260417 658.714844,171.15625 C659.352868,171.052083 659.997393,171 660.648438,171 L660.746094,171 C661.201825,171 661.651039,171.032552 662.09375,171.097656 C662.536461,171.162761 662.966144,171.260416 663.382812,171.390625 C663.617189,171.455729 663.828775,171.582681 664.017578,171.771484 C664.206381,171.960287 664.346354,172.184895 664.4375,172.445312 C664.463542,172.536459 664.486328,172.627604 664.505859,172.71875 C664.525391,172.809896 664.535156,172.901041 664.535156,172.992188 C664.535156,173.17448 664.50586,173.35026 664.447266,173.519531 C664.388672,173.688803 664.307292,173.845051 664.203125,173.988281 C663.799477,174.54818 663.353518,175.156898 662.865234,175.814453 C662.376951,176.472008 661.872398,177.113278 661.351562,177.738281 L661.351562,186.78125 C661.325521,187.575525 661.022789,188.255857 660.443359,188.822266 C659.863929,189.388675 659.170577,189.671875 658.363281,189.671875 L648.96875,189.671875 Z M654.671875,184.789062 C655.205732,184.789062 655.658201,184.974608 656.029297,185.345703 C656.400392,185.716799 656.585938,186.169268 656.585938,186.703125 C656.585938,187.197919 656.758462,187.617837 657.103516,187.962891 C657.448569,188.307944 657.868487,188.480469 658.363281,188.480469 C658.858075,188.480469 659.277993,188.307944 659.623047,187.962891 C659.968101,187.617837 660.140625,187.204429 660.140625,186.722656 L660.140625,179.046875 L660.0625,179.125 C659.958333,179.216146 659.857422,179.307291 659.759766,179.398438 C659.662109,179.489584 659.567709,179.580729 659.476562,179.671875 C659.385416,179.75 659.277995,179.811849 659.154297,179.857422 C659.030598,179.902995 658.897136,179.925781 658.753906,179.925781 L658.734375,179.925781 C658.539062,179.91276 658.353517,179.883464 658.177734,179.837891 C658.001952,179.792317 657.829428,179.730469 657.660156,179.652344 C657.647135,179.639323 657.624349,179.626302 657.591797,179.613281 C657.559245,179.60026 657.523438,179.58724 657.484375,179.574219 L657.484375,179.691406 C657.510417,179.977866 657.503906,180.264321 657.464844,180.550781 C657.425781,180.837241 657.250002,181.013021 656.9375,181.078125 C656.820312,181.104167 656.69336,181.123698 656.556641,181.136719 C656.419921,181.14974 656.279949,181.15625 656.136719,181.15625 L656.117188,181.15625 C655.596352,181.15625 655.09831,181.071615 654.623047,180.902344 C654.147784,180.733072 653.714846,180.498699 653.324219,180.199219 C653.19401,180.459637 653.063803,180.736327 652.933594,181.029297 C652.803385,181.322267 652.679688,181.624998 652.5625,181.9375 C652.497396,182.106772 652.412761,182.230468 652.308594,182.308594 C652.204427,182.386719 652.08724,182.425781 651.957031,182.425781 C651.917969,182.425781 651.882162,182.422526 651.849609,182.416016 C651.817057,182.409505 651.787761,182.40625 651.761719,182.40625 C651.644531,182.354166 651.550131,182.279297 651.478516,182.181641 C651.406901,182.083984 651.371094,181.970053 651.371094,181.839844 C651.371094,181.800781 651.374349,181.764974 651.380859,181.732422 C651.38737,181.69987 651.390625,181.664063 651.390625,181.625 C651.572918,181.156248 651.758463,180.720054 651.947266,180.316406 C652.136069,179.912758 652.341145,179.522137 652.5625,179.144531 C652.028643,178.076818 651.839843,177.139327 651.996094,176.332031 C652.152345,175.524736 652.393228,174.8737 652.71875,174.378906 L650.101562,174.378906 C649.867186,174.378906 649.665365,174.463541 649.496094,174.632812 C649.326822,174.802084 649.242188,175.003905 649.242188,175.238281 L649.242188,184.789062 L654.671875,184.789062 Z M647.679688,186 C647.549479,186 647.435547,186.045572 647.337891,186.136719 C647.240234,186.227865 647.191406,186.345051 647.191406,186.488281 L647.191406,186.703125 C647.191406,187.197919 647.363931,187.617837 647.708984,187.962891 C648.054038,188.307944 648.473956,188.480469 648.96875,188.480469 L655.980469,188.480469 C655.798176,188.233072 655.654948,187.959637 655.550781,187.660156 C655.446614,187.360676 655.394531,187.041668 655.394531,186.703125 C655.394531,186.507812 655.322917,186.341798 655.179688,186.205078 C655.036458,186.068359 654.867188,186 654.671875,186 L647.679688,186 Z M657.582031,174.671875 C657.699219,174.671875 657.80664,174.704427 657.904297,174.769531 C658.001954,174.834636 658.076823,174.91927 658.128906,175.023438 L658.167969,175.140625 C658.18099,175.179688 658.1875,175.22526 658.1875,175.277344 C658.1875,175.394532 658.154948,175.501953 658.089844,175.599609 C658.024739,175.697266 657.940105,175.772135 657.835938,175.824219 C657.028642,176.201825 656.302738,176.673825 655.658203,177.240234 C655.013669,177.806643 654.457034,178.441403 653.988281,179.144531 C654.274741,179.391928 654.597003,179.587239 654.955078,179.730469 C655.313153,179.873699 655.700519,179.951823 656.117188,179.964844 L656.3125,179.964844 L656.292969,179.75 C656.279948,179.437498 656.286458,179.160808 656.3125,178.919922 C656.338542,178.679035 656.475259,178.500001 656.722656,178.382812 C656.787761,178.356771 656.856119,178.333984 656.927734,178.314453 C656.999349,178.294922 657.074218,178.285156 657.152344,178.285156 L657.171875,178.285156 C657.341147,178.298177 657.510416,178.327474 657.679688,178.373047 C657.848959,178.41862 658.005208,178.480468 658.148438,178.558594 C658.226563,178.597656 658.314453,178.630208 658.412109,178.65625 C658.509766,178.682292 658.604166,178.708333 658.695312,178.734375 C658.877605,178.591145 659.053385,178.434897 659.222656,178.265625 C659.27474,178.226562 659.320312,178.184245 659.359375,178.138672 C659.398438,178.093099 659.44401,178.044271 659.496094,177.992188 C660.147139,177.289059 660.778643,176.553389 661.390625,175.785156 C662.002607,175.016923 662.588539,174.229171 663.148438,173.421875 C663.213542,173.304687 663.259114,173.216797 663.285156,173.158203 C663.311198,173.099609 663.324219,173.044271 663.324219,172.992188 C663.324219,172.966146 663.320964,172.940104 663.314453,172.914062 C663.307943,172.888021 663.304688,172.861979 663.304688,172.835938 C663.278646,172.757812 663.236328,172.689453 663.177734,172.630859 C663.11914,172.572265 663.050782,172.536458 662.972656,172.523438 C662.634113,172.41927 662.276044,172.337891 661.898438,172.279297 C661.520831,172.220703 661.13021,172.191406 660.726562,172.191406 L660.628906,172.191406 C660.042966,172.191406 659.434248,172.243489 658.802734,172.347656 C658.171221,172.451823 657.552737,172.608072 656.947266,172.816406 C656.341794,173.024741 655.775393,173.291665 655.248047,173.617188 C654.7207,173.94271 654.274741,174.326821 653.910156,174.769531 C653.67578,175.055991 653.490235,175.378253 653.353516,175.736328 C653.216796,176.094403 653.148438,176.475258 653.148438,176.878906 C653.148438,177.07422 653.167969,177.266275 653.207031,177.455078 C653.246094,177.643881 653.291666,177.829426 653.34375,178.011719 C653.864586,177.295569 654.453773,176.664065 655.111328,176.117188 C655.768883,175.57031 656.488277,175.114585 657.269531,174.75 C657.334636,174.723958 657.393229,174.704427 657.445312,174.691406 C657.497396,174.678385 657.542969,174.671875 657.582031,174.671875 Z" id="юдн"></path>
        </g>
    </g>
</svg>