<?xml version="1.0" encoding="UTF-8"?>
<svg width="16px" height="14px" viewBox="0 0 16 14" version="1.1" xmlns="http://www.w3.org/2000/svg" xmlns:xlink="http://www.w3.org/1999/xlink">
    <!-- Generator: Sketch 44.1 (41455) - http://www.bohemiancoding.com/sketch -->
    <title>ico-dashboard-reports-default</title>
    <desc>Created with Sketch.</desc>
    <defs></defs>
    <g id="Symbols" stroke="none" stroke-width="1" fill="none" fill-rule="evenodd">
        <path d="M7.64648438,2.53417969 C7.51953062,2.53417969 7.41210981,2.49023481 7.32421875,2.40234375 C7.23632769,2.31445269 7.19238281,2.20703188 7.19238281,2.08007812 L7.19238281,0.454101562 C7.19238281,0.327147803 7.23632769,0.219727002 7.32421875,0.131835938 C7.41210981,0.043944873 7.51953062,0 7.64648438,0 C7.77343813,0 7.88085894,0.043944873 7.96875,0.131835938 C8.05664106,0.219727002 8.10058594,0.327147803 8.10058594,0.454101562 L8.10058594,2.08007812 C8.10058594,2.20703188 8.05664106,2.31445269 7.96875,2.40234375 C7.88085894,2.49023481 7.77343813,2.53417969 7.64648438,2.53417969 Z M3.6328125,3.984375 C3.56445278,3.984375 3.49853547,3.96972671 3.43505859,3.94042969 C3.37158171,3.91113267 3.3203127,3.87207056 3.28125,3.82324219 L2.24121094,2.578125 C2.20214824,2.5390623 2.17285166,2.49511743 2.15332031,2.44628906 C2.13378896,2.39746069 2.12402344,2.34375029 2.12402344,2.28515625 C2.12402344,2.15820249 2.16796831,2.05078169 2.25585938,1.96289062 C2.34375044,1.87499956 2.45117124,1.83105469 2.578125,1.83105469 C2.64648472,1.83105469 2.71240203,1.84570298 2.77587891,1.875 C2.83935579,1.90429702 2.8906248,1.94335913 2.9296875,1.9921875 L3.96972656,3.25195312 C4.00878926,3.29101582 4.03564446,3.33496069 4.05029297,3.38378906 C4.06494148,3.43261743 4.07226562,3.48144507 4.07226562,3.53027344 C4.07226562,3.6572272 4.02832075,3.764648 3.94042969,3.85253906 C3.85253862,3.94043013 3.75000059,3.984375 3.6328125,3.984375 Z M1.47949219,7.69042969 C1.45996084,7.69042969 1.44531255,7.68798831 1.43554688,7.68310547 C1.4257812,7.67822263 1.41113291,7.67578125 1.39160156,7.67578125 L0.366210938,7.48535156 C0.258788525,7.46582021 0.170898779,7.4145512 0.102539063,7.33154297 C0.0341793457,7.24853474 0,7.15332085 0,7.04589844 C0,6.91894468 0.043944873,6.81152388 0.131835938,6.72363281 C0.219727002,6.63574175 0.327147803,6.59179688 0.454101563,6.59179688 C0.463867236,6.60156255 0.476074146,6.60644531 0.490722656,6.60644531 L0.52734375,6.60644531 L1.55273438,6.796875 C1.66015679,6.81640635 1.75048792,6.86767537 1.82373047,6.95068359 C1.89697302,7.03369182 1.93359375,7.12890571 1.93359375,7.23632812 C1.93359375,7.36328188 1.88964888,7.47070269 1.80175781,7.55859375 C1.71386675,7.64648481 1.60644595,7.69042969 1.47949219,7.69042969 Z M13.8134766,7.69042969 C13.6962885,7.69042969 13.5937504,7.64648481 13.5058594,7.55859375 C13.4179683,7.47070269 13.3740234,7.36328188 13.3740234,7.23632812 C13.3740234,7.12890571 13.4082028,7.03369182 13.4765625,6.95068359 C13.5449222,6.86767537 13.632812,6.81640635 13.7402344,6.796875 L14.765625,6.60644531 L14.8022461,6.60644531 C14.8168946,6.60644531 14.8291015,6.60156255 14.8388672,6.59179688 L14.8535156,6.59179688 C14.9707037,6.59179688 15.0732417,6.63574175 15.1611328,6.72363281 C15.2490239,6.81152388 15.2929688,6.91894468 15.2929688,7.04589844 C15.2929688,7.15332085 15.2587894,7.24853474 15.1904297,7.33154297 C15.12207,7.4145512 15.0341802,7.46582021 14.9267578,7.48535156 L13.9013672,7.67578125 C13.8916015,7.67578125 13.8793946,7.67822263 13.8647461,7.68310547 C13.8500976,7.68798831 13.8330079,7.69042969 13.8134766,7.69042969 Z M11.6748047,3.984375 C11.5478509,3.984375 11.4404301,3.94043013 11.3525391,3.85253906 C11.264648,3.764648 11.2207031,3.6572272 11.2207031,3.53027344 C11.2207031,3.48144507 11.2304687,3.43261743 11.25,3.38378906 C11.2695313,3.33496069 11.2939452,3.29101582 11.3232422,3.25195312 L12.3632813,1.9921875 C12.4121096,1.94335913 12.46582,1.90429702 12.5244141,1.875 C12.5830081,1.84570298 12.646484,1.83105469 12.7148438,1.83105469 C12.8417975,1.83105469 12.9492183,1.87499956 13.0371094,1.96289062 C13.1250004,2.05078169 13.1689453,2.15820249 13.1689453,2.28515625 C13.1689453,2.34375029 13.1591798,2.39746069 13.1396484,2.44628906 C13.1201171,2.49511743 13.0908205,2.5390623 13.0517578,2.578125 L12.0117188,3.82324219 C11.9726561,3.87207056 11.9238284,3.91113267 11.8652344,3.94042969 C11.8066403,3.96972671 11.7431644,3.984375 11.6748047,3.984375 Z M1.72851562,10.9423828 C1.61132754,10.9423828 1.5087895,10.8984379 1.42089844,10.8105469 C1.33300737,10.7226558 1.2890625,10.615235 1.2890625,10.4882812 L1.2890625,10.4296875 C1.2890625,10.4101562 1.29394526,10.3906251 1.30371094,10.3710938 C1.31347661,10.3124997 1.33789043,10.2612307 1.37695312,10.2172852 C1.41601582,10.1733396 1.45996069,10.1367189 1.50878906,10.1074219 C1.76269658,9.96093677 2.03857273,9.81689524 2.33642578,9.67529297 C2.63427883,9.5336907 2.93945156,9.40918022 3.25195312,9.30175781 C3.2617188,9.14550703 3.2617188,8.98681721 3.25195312,8.82568359 C3.24218745,8.66454998 3.23730469,8.50097739 3.23730469,8.33496094 C3.23730469,7.72948916 3.35204963,7.15820581 3.58154297,6.62109375 C3.8110363,6.08398169 4.12597456,5.61523638 4.52636719,5.21484375 C4.92675981,4.81445112 5.39550513,4.49951287 5.93261719,4.27001953 C6.46972925,4.0405262 7.0410126,3.92578125 7.64648438,3.92578125 C8.26172183,3.92578125 8.83544656,4.0405262 9.36767578,4.27001953 C9.899905,4.49951287 10.3662089,4.81445112 10.7666016,5.21484375 C11.1669942,5.61523638 11.4819324,6.08398169 11.7114258,6.62109375 C11.9409191,7.15820581 12.0556641,7.72948916 12.0556641,8.33496094 C12.0556641,8.51074307 12.0483399,8.67919841 12.0336914,8.84033203 C12.0190429,9.00146565 11.9921877,9.16015547 11.953125,9.31640625 C12.3242206,9.42382866 12.6708968,9.54589775 12.9931641,9.68261719 C13.3154313,9.81933662 13.6279282,9.97070229 13.9306641,10.1367188 C13.9697268,10.1562501 14.0087889,10.200195 14.0478516,10.2685547 C14.0869143,10.3369144 14.1064453,10.4150386 14.1064453,10.5029297 C14.1064453,10.6201178 14.0625004,10.7226558 13.9746094,10.8105469 C13.8867183,10.8984379 13.7792975,10.9423828 13.6523438,10.9423828 C13.6132811,10.9423828 13.5742189,10.9375 13.5351563,10.9277344 C13.4960936,10.9179687 13.4619142,10.9082032 13.4326172,10.8984375 C13.1298813,10.732421 12.8051775,10.5761726 12.4584961,10.4296875 C12.1118147,10.2832024 11.7529315,10.1513678 11.3818359,10.0341797 L11.2646484,10.0048828 C10.7177707,9.81933501 10.1293977,9.67773486 9.49951172,9.58007812 C8.86962576,9.48242139 8.22265957,9.43359375 7.55859375,9.43359375 L7.48535156,9.43359375 C6.97753652,9.43359375 6.47949463,9.4677731 5.99121094,9.53613281 C5.50292725,9.60449253 5.02441641,9.69970642 4.55566406,9.82177734 C4.08691172,9.94384827 3.63037332,10.0976553 3.18603516,10.2832031 C2.741697,10.4687509 2.31445518,10.6787098 1.90429688,10.9130859 C1.8945312,10.9228516 1.87500015,10.9301758 1.84570312,10.9350586 C1.8164061,10.9399414 1.77734399,10.9423828 1.72851562,10.9423828 Z M7.55859375,8.54003906 C8.19336255,8.54003906 8.81347354,8.58398394 9.41894531,8.671875 C10.0244171,8.75976606 10.6152315,8.88183516 11.1914062,9.03808594 C11.1621092,8.93066353 11.1499023,8.81835996 11.1547852,8.70117188 C11.159668,8.58398379 11.1621094,8.46679746 11.1621094,8.34960938 L11.1621094,8.33496094 C11.1621094,7.85644292 11.0693369,7.4023459 10.8837891,6.97265625 C10.6982413,6.5429666 10.4467789,6.16943518 10.1293945,5.85205078 C9.81201013,5.53466638 9.44092009,5.28320405 9.01611328,5.09765625 C8.59130647,4.91210845 8.13476807,4.81933594 7.64648438,4.81933594 C7.15820068,4.81933594 6.70166228,4.91210845 6.27685547,5.09765625 C5.85204866,5.28320405 5.48095862,5.53466638 5.16357422,5.85205078 C4.84618982,6.16943518 4.59472749,6.5429666 4.40917969,6.97265625 C4.22363188,7.4023459 4.13085938,7.85644292 4.13085938,8.33496094 C4.13085938,8.45214902 4.13574214,8.56689397 4.14550781,8.67919922 C4.15527349,8.79150447 4.17480454,8.90136665 4.20410156,9.00878906 C4.70215093,8.86230396 5.23437217,8.74755901 5.80078125,8.66455078 C6.36719033,8.58154255 6.94823921,8.54003906 7.54394531,8.54003906 L7.55859375,8.54003906 Z M11.6308594,13.1542969 C11.6015624,13.1542969 11.5722658,13.1518555 11.5429688,13.1469727 C11.5136717,13.1420898 11.4843751,13.1347657 11.4550781,13.125 C10.888669,12.8906238 10.2758822,12.7099616 9.61669922,12.5830078 C8.95751624,12.4560541 8.2763707,12.3925781 7.57324219,12.3925781 L7.51464844,12.3925781 C6.86034829,12.3925781 6.21826487,12.4560541 5.58837891,12.5830078 C4.95849294,12.7099616 4.35547163,12.8955066 3.77929688,13.1396484 C3.78906255,13.1396484 3.77929702,13.1420898 3.75,13.1469727 C3.72070298,13.1518555 3.6914064,13.1542969 3.66210938,13.1542969 C3.53515562,13.1542969 3.42773481,13.110352 3.33984375,13.0224609 C3.25195269,12.9345699 3.20800781,12.8320318 3.20800781,12.7148438 C3.20800781,12.617187 3.23486301,12.5317386 3.28857422,12.4584961 C3.34228542,12.3852535 3.40820273,12.3291018 3.48632812,12.2900391 C4.08203423,12.0361315 4.72167627,11.8383796 5.40527344,11.6967773 C6.08887061,11.5551751 6.79198857,11.484375 7.51464844,11.484375 L7.58789062,11.484375 C8.33984751,11.484375 9.07470344,11.5551751 9.79248047,11.6967773 C10.5102575,11.8383796 11.2011686,12.0458971 11.8652344,12.3193359 C11.9140627,12.3388673 11.9628904,12.3852535 12.0117188,12.4584961 C12.0605471,12.5317386 12.0849609,12.617187 12.0849609,12.7148438 C12.0849609,12.8320318 12.0410161,12.9345699 11.953125,13.0224609 C11.8652339,13.110352 11.7578131,13.1542969 11.6308594,13.1542969 Z" id="ico-dashboard-reports-default" fill="#062942"></path>
    </g>
</svg>