<svg xmlns="http://www.w3.org/2000/svg" viewBox="0 0 58 54" width="58px" height="54px"><defs><style>.a{fill:#fff;}.b{fill:#f2cd33;}.c{fill:#eab100;}.d{fill:#e09200;}.e{fill:#d26f00;}</style></defs><title>icons-standard-advertising</title><circle class="a" cx="35.95" cy="27.97" r="21.47"/><path class="b" d="M19.51,16.54l-1.59-.92a.62.62,0,1,0-.7,1l.08,0,1.59.92a.62.62,0,0,0,.62-1.07"/><path class="b" d="M14.75,13.81l-2.64-1.52a.62.62,0,1,0-.73,1l.12.07,2.64,1.52a.62.62,0,0,0,.62-1.07Z"/><path class="b" d="M9,10.48,7.36,9.56a.62.62,0,0,0-.62,1.07l1.59.92A.63.63,0,1,0,9,10.48H9"/><path class="b" d="M2.4,27.9l1.83-.17a.62.62,0,0,0,0-1.24h-.1l-1.83.17A.62.62,0,0,0,2.4,27.9"/><path class="b" d="M8.26,27.34,11.61,27a.62.62,0,0,0,0-1.24h-.1l-3.36.32a.62.62,0,0,0,.12,1.23Z"/><path class="b" d="M15.64,26.64l1.83-.17a.62.62,0,0,0-.12-1.23l-1.83.17a.62.62,0,0,0,.12,1.23"/><path class="b" d="M18.06,21.23l-1.8-.37A.62.62,0,0,0,16,22.07l1.8.37A.62.62,0,0,0,18,21.23"/><path class="b" d="M11.77,19.94,8,19.18a.62.62,0,0,0-.25,1.21l3.74.76a.62.62,0,0,0,.25-1.21Z"/><path class="b" d="M3.54,18.27l-1.8-.37a.62.62,0,0,0-.25,1.21l1.8.37a.62.62,0,0,0,.25-1.21"/><path class="c" d="M38.1,43a1.54,1.54,0,0,0,.6.21l2.2.23a1.42,1.42,0,0,0,1.5-1A93.68,93.68,0,0,0,45,31a1.42,1.42,0,0,0-1.51-1.65l-2,.17h-.14a1.42,1.42,0,0,0-1.13,1.08,2.45,2.45,0,0,1-.14.6l-1.26-.13-.37,1.8a2.32,2.32,0,0,0,.71,2.18h0c-.5,2-1.07,4.28-1.64,6.22A1.41,1.41,0,0,0,38.1,43Z"/><path class="b" d="M54.06,29a4.89,4.89,0,0,1-.43,1.33,2.18,2.18,0,0,1-1.94,1.3c-2.4.18-5.71.38-9.87.41C34.13,32,28.89,33,27,33.86l2-19s1.69,1.7,6.69,4.08c1.33.63,2.89,1.31,4.72,2l1.93.72c5.18,1.87,8,3,10.2,3.86a2.21,2.21,0,0,1,1.51,2A5.24,5.24,0,0,1,54.06,29Z"/><path class="c" d="M31.56,25.28q-.13.74-.31,1.44a17.48,17.48,0,0,1-1.41,3.81c-1.31,2.53-3.08,4-4.74,3.74a3.1,3.1,0,0,1-2-1.57c-1.19-1.92-1.62-5.35-1-9.08.7-4,2.44-7.21,4.35-8.46a2.89,2.89,0,0,1,2.1-.53c1.67.29,2.83,2.35,3.19,5.22a16.83,16.83,0,0,1,.1,2.9A20.28,20.28,0,0,1,31.56,25.28Z"/><path class="d" d="M31.86,22.35a45.33,45.33,0,0,0-4.8.08,2.85,2.85,0,0,0-.67.14l-.17.06a2.68,2.68,0,0,0-1,1.84,2.71,2.71,0,0,0,.27,2h0l.19.15a2.86,2.86,0,0,0,.63.35c1.41.54,3,1,4.42,1.41A18.72,18.72,0,0,0,31.86,22.35Z"/><path class="e" d="M27.13,24.8c-.2,1.14-.78,2-1.29,1.9h-.11l-.19-.15h0a2.71,2.71,0,0,1-.27-2,2.68,2.68,0,0,1,1-1.84l.17-.06h.17C27.08,22.66,27.33,23.66,27.13,24.8Z"/></svg>
