<svg xmlns="http://www.w3.org/2000/svg" width="19" height="19" viewBox="0 0 19 19">
    <defs>
        <linearGradient id="a" x1="-45%" x2="93.536%" y1="25%" y2="101.965%">
            <stop offset="0%" stop-opacity=".1"/>
            <stop offset="100%" stop-opacity="0"/>
        </linearGradient>
        <linearGradient id="b" x1="-.006%" y1="49.998%" y2="49.998%">
            <stop offset="0%" stop-color="#FFF"/>
            <stop offset="100%"/>
        </linearGradient>
        <linearGradient id="c" x1="-6.514%" x2="104.356%" y1="24.84%" y2="76.539%">
            <stop offset="0%" stop-color="#FFF" stop-opacity=".2"/>
            <stop offset="100%" stop-color="#FFF" stop-opacity="0"/>
        </linearGradient>
    </defs>
    <g fill="none" fill-rule="evenodd">
        <path fill="#FFF" d="M9.5 2.771h9.104v13.458H9.5z"/>
        <path fill="#177848" d="M18.604 16.625h-7.916a.396.396 0 1 1 0-.792h7.52V3.167h-7.52a.396.396 0 1 1 0-.792h7.916c.219 0 .396.177.396.396v13.458a.396.396 0 0 1-.396.396z"/>
        <path fill="#177848" d="M11.083 0L0 2.065v14.87L11.083 19z"/>
        <path fill="#FFF" d="M0 2.065v.198L11.083.198V0z" opacity=".2"/>
        <path fill="#177848" d="M10.292 3.958h3.167v1.583h-3.167zM14.25 3.958h3.167v1.583H14.25zM10.292 6.333h3.167v1.583h-3.167zM14.25 6.333h3.167v1.583H14.25zM10.292 8.708h3.167v1.583h-3.167zM14.25 8.708h3.167v1.583H14.25zM10.292 11.083h3.167v1.583h-3.167zM14.25 11.083h3.167v1.583H14.25zM10.292 13.458h3.167v1.583h-3.167zM14.25 13.458h3.167v1.583H14.25z"/>
        <path fill="#000" d="M0 16.935L11.083 19v-.198L0 16.737z" opacity=".1"/>
        <path fill="url(#a)" d="M18.604 16.625a.396.396 0 0 0 .396-.396v-5.937l-7.917-7.917v14.25h7.521z"/>
        <path fill="#FFF" d="M5.825 9.896l1.819-3.274-.023-.013-1.383.099-1.092 1.966-1.009-1.816-1.306.093 1.636 2.945L2.83 12.84l1.306.093 1.009-1.816 1.092 1.966 1.383.099.023-.013z"/>
        <path fill="url(#b)" d="M11.083 0L0 2.065v14.87L11.083 19z" opacity=".05"/>
        <path fill="url(#c)" d="M18.604 2.375h-7.52V0L0 2.065v14.87L11.083 19v-2.375h7.521a.396.396 0 0 0 .396-.396V2.771a.396.396 0 0 0-.396-.396z"/>
    </g>
</svg>
