<svg xmlns="http://www.w3.org/2000/svg" viewBox="0 0 58 54" width="58px" height="54px"><defs><style>.a{fill:#fff;}.b{fill:#ededee;}.c{fill:#fcb3cd;}.d{fill:#fa8db5;}.e{fill:#68b5eb;}</style></defs><title>icons-standard-educational</title><circle class="a" cx="29" cy="27" r="21.47"/><polygon class="b" points="41.42 17.21 29.62 21.69 29.62 38.73 41.42 33.43 41.42 17.21"/><polygon class="b" points="17.83 17.21 29.62 21.69 29.62 38.73 17.83 33.43 17.83 17.21"/><polygon class="a" points="17.35 17.46 29.62 22.12 29.62 39.85 17.35 34.34 17.35 17.46"/><polygon class="a" points="41.9 17.46 29.62 22.12 29.62 39.85 41.9 34.34 41.9 17.46"/><polygon class="a" points="16.79 17.76 29.62 22.63 29.62 41.17 16.79 35.4 16.79 17.76"/><polygon class="a" points="42.46 17.76 29.62 22.63 29.62 41.17 42.46 35.4 42.46 17.76"/><polygon class="c" points="28.84 42.88 16.09 38.13 16.09 17.82 28.84 22.57 28.84 42.88"/><polygon class="c" points="30.47 42.88 43.21 38.13 43.21 17.82 30.47 22.57 30.47 42.88"/><rect class="d" x="28.77" y="22.57" width="1.76" height="20.32"/><polyline class="e" points="28.96 15.39 30.22 15.39 30.22 14.64 28.96 14.64"/><path class="e" d="M29,15h-.38a2.25,2.25,0,1,1-2.25-2.25A2.25,2.25,0,0,1,28.62,15h.75a3,3,0,1,0-3,3,3,3,0,0,0,3-3Z"/><path class="e" d="M35.47,15H35.1a2.25,2.25,0,1,1-2.25-2.25A2.25,2.25,0,0,1,35.1,15h.75a3,3,0,1,0-3,3,3,3,0,0,0,3-3Z"/><path class="e" d="M24.11,14l-2.26-2.89h0a1.4,1.4,0,0,0-1.09-.64,1.17,1.17,0,0,0-.83.38.29.29,0,1,0,.37.44l.06-.06h0a.61.61,0,0,1,.4-.18c.14,0,.34.06.63.42l2.26,2.89A.29.29,0,0,0,24.1,14Z"/><path class="e" d="M35.53,14.33l2.26-2.89h0c.29-.36.49-.42.63-.42a.53.53,0,0,1,.29.09l.09.07h0a.29.29,0,0,0,.43-.38,1.17,1.17,0,0,0-.83-.38,1.4,1.4,0,0,0-1.09.64h0L35.07,14a.29.29,0,0,0,.41.41l0-.05Z"/></svg>
