<svg viewBox="0 0 73 73" width="73px" height="73px" xmlns="http://www.w3.org/2000/svg"><title>Save Time</title><g fill="none" fill-rule="evenodd"><path d="M73 36.5C73 56.658 56.658 73 36.5 73S0 56.658 0 36.5 16.342 0 36.5 0 73 16.342 73 36.5" fill="#0D83DD"/><path d="M29.442 52.818l-3.096 6.018c-.19.366-.638.51-1.004.322-.33-.17-.48-.553-.368-.895l2.107-6.432c.22-.67.95-1.04 1.62-.82.68.23 1.04.95.82 1.62l-.07.19zm16.478-.988l2.106 6.432c.128.392-.085.814-.477.942-.36.116-.73-.048-.9-.368l-3.1-6.018c-.33-.63-.08-1.404.55-1.728.63-.325 1.4-.077 1.73.553l.07.188z" fill="#FFF"/><path d="M53.978 38.377c0 9.653-7.826 17.478-17.478 17.478-9.653 0-17.478-7.825-17.478-17.478 0-9.653 7.825-17.478 17.478-17.478 9.652 0 17.478 7.82 17.478 17.47" fill="#9ACDF1"/><path d="M52.065 38.377c0 8.596-6.97 15.565-15.565 15.565-8.596 0-15.565-6.97-15.565-15.565 0-8.596 6.97-15.565 15.565-15.565 8.596 0 15.565 6.97 15.565 15.565m-6.18-21.72h-1.042v-2.603c0-1.776-1.796-3.654-3.494-3.654h-9.62c-1.74 0-3.58 1.878-3.58 3.654v2.603h-1.04v-2.603c0-2.326 2.33-4.697 4.61-4.697h9.62c2.29 0 4.53 2.327 4.53 4.697v2.603z" fill="#FFF"/><path d="M33.47 17.847l.104.244-12.28 5.31-.106-.24c-1.245-2.88.068-6.19 2.95-7.43l1.846-.8c2.88-1.24 6.24.05 7.485 2.93m6.06 0l-.11.25 12.28 5.31.1-.246c1.24-2.882-.07-6.19-2.95-7.436l-1.85-.8c-2.88-1.24-6.24.05-7.488 2.93" fill="#9ACDF1"/><path d="M24.498 17.56c.202.36-.16.943-.804 1.306-.645.362-1.33.365-1.533.007-.2-.357.16-.94.81-1.303s1.33-.366 1.53-.01m19.4-1.458c.21.358-.16.942-.8 1.305-.64.362-1.33.365-1.53.007-.2-.358.16-.942.81-1.304.65-.362 1.33-.366 1.53-.008" fill="#FFF"/><path d="M34.87 29h2.877v1.417h-.508c2.51 0 4.44 1.413 5.33 3.863l-3.99 1.218c-.43-1.15-1.3-1.602-2.51-1.602-.69 0-1.58.174-1.58 1.024 0 .8 1.14.974 1.75 1.124 1.52.326 3.17.575 4.54 1.35 1.47.85 2.2 2.35 2.2 4 0 3.274-2.488 4.95-5.48 5.3l.23.023v2.116h-2.87v-2.14c-2.878-.275-5.21-1.975-5.87-4.776l4.435-.824c.407 1.4 1.406 1.925 2.827 1.925.66 0 1.844-.1 1.844-.975 0-.95-1.18-1.15-1.91-1.3-3.05-.6-6.39-1.425-6.39-5.2 0-2.875 2.18-4.775 5.052-5.1V29z" fill="#9ACDF1"/></g></svg>
