<svg xmlns="http://www.w3.org/2000/svg" viewBox="0 0 312 298" width="312px" height="298px"><defs><style>.a{fill:#e5f4fe;}.b{fill:#9acdf1;}.c{fill:none;}.d{fill:#f5da66;}.e{fill:#fff;}.f{fill:#f2cd33;}</style></defs><title>pricing page-02</title><circle class="a" cx="156" cy="149" r="139.27"/><rect class="b" x="75.36" y="91.74" width="152.91" height="115.02" rx="14.93" ry="14.93"/><path class="b" d="M151.81,175.8c-14.88,0-28.64-8.5-38.74-23.93-9.43-14.42-14.62-33.44-14.62-53.56s5.31-36.45,15.34-47.62c9.48-10.55,22.63-16.13,38-16.13s28.54,5.58,38,16.13c10,11.17,15.34,27.64,15.34,47.62s-5.19,39.14-14.62,53.56C180.45,167.3,166.7,175.8,151.81,175.8Zm0-125.77c-24.08,0-37.89,17.6-37.89,48.28,0,33.61,17.35,62,37.89,62s37.89-28.4,37.89-62C189.7,67.63,175.89,50,151.81,50Z"/><path class="c" d="M93.12,164.14a6.55,6.55,0,0,0,12.06-4.83A30.09,30.09,0,0,1,92.6,163,6.53,6.53,0,0,0,93.12,164.14Z"/><circle class="c" cx="121.97" cy="169.58" r="6.55"/><circle class="c" cx="93.52" cy="185.4" r="6.55"/><path class="c" d="M95.66,155.23a6.64,6.64,0,0,0-1.9,1.6,24.3,24.3,0,0,0,7.17-2.08A6.52,6.52,0,0,0,95.66,155.23Z"/><path class="c" d="M103.84,135.13l4.75-18.88a24.36,24.36,0,1,0-21.51,40.51c.56-2.62,2.26-5.13,5.94-7.09,6-3.21,10.18-1.19,12.89,1.92a24.37,24.37,0,0,0,4.37-4.59A10.14,10.14,0,0,1,103.84,135.13Z"/><path class="d" d="M164.11,264.79,123.86,187.2a1.5,1.5,0,0,1,.59-2l.25-.11s13.06-8.93,10.41-18c-2.47-8.52-10.47-13.92-24.76-6.65a23.38,23.38,0,0,0-1.26-3.64l-.43.34a30.14,30.14,0,0,1-3.48,2.22,6.55,6.55,0,0,1-12.06,4.83A7,7,0,0,1,92.6,163a6.55,6.55,0,0,1,8.32-8.21,25.2,25.2,0,0,0,4.18-2.49l.87-.68c-2.71-3.11-6.86-5.12-12.9-1.92-3.68,2-5.38,4.47-5.93,7.09a12.57,12.57,0,0,0,.37,6.09c1.26,4.45,4.07,8.1,3.64,8.3,0,0-17.78,8.57-9.9,21.76,7.61,12.74,21.8,3.36,21.8,3.36a1.29,1.29,0,0,1,1.82-.08,1.31,1.31,0,0,1,.3.41l10.47,18.83a1.91,1.91,0,0,0,2.43.78s2.37-1.12,4.36,2.44-4.75,7-4.75,7a1.73,1.73,0,0,0-.75,2.34h0l2.67,5.18a1.48,1.48,0,0,0,2,.7,2.26,2.26,0,0,0,.26-.16s7.43-5.25,10.11-.4-8.25,9.74-8.25,9.74a1.59,1.59,0,0,0-.83,2.08l.09.17,1.7,3.06a1.62,1.62,0,0,0,2.21.64L127,249s10.32-6.61,12.3-3-3.55,7.42-3.55,7.42a1.23,1.23,0,0,0-.44,1.68,1.18,1.18,0,0,0,.39.41l18.53,14.66a2.92,2.92,0,0,0,2.91.29l6.27-3.26a1.76,1.76,0,0,0,.75-2.36ZM96.69,191.14a6.55,6.55,0,1,1,2.54-8.91,6.55,6.55,0,0,1-2.54,8.91Zm19.55-18.37a6.55,6.55,0,1,1,8.91,2.53h0a6.55,6.55,0,0,1-8.9-2.53Z"/><path class="c" d="M120.64,137.19a3.64,3.64,0,0,1-.13.72c2.84-1.35,5.64-5.2,7.07-10.18,2-6.89.59-13.33-3.1-14.39-2.43-.7-5.25,1.11-7.46,4.39A30.08,30.08,0,0,1,120.64,137.19Z"/><path class="c" d="M113.85,125.33c-1,4.37-.58,8.41.88,10.82A24.17,24.17,0,0,0,113.85,125.33Z"/><path class="d" d="M245.75,151.5l-1.84,6.83a2.93,2.93,0,0,1-2.18,2L218.39,164a1.22,1.22,0,0,1-1.47-.9,1.14,1.14,0,0,1,0-.55s.89-6.69-3.07-7.64S207.75,166,207.75,166a1.63,1.63,0,0,1-1.88,1.34l-.12,0-3.39-.83a1.57,1.57,0,0,1-1.22-1.85.79.79,0,0,1,.06-.22S205,153,199.61,151.75s-6.55,7.72-6.55,7.72a1.47,1.47,0,0,1-1.91,1.27l-5.62-1.54a1.75,1.75,0,0,1-1.23-2.15h0s2-7.3-2-8.26-4.75,1.56-4.75,1.56a1.9,1.9,0,0,1-2.21,1.25l-20.7-5-1.2,4.85a8.47,8.47,0,0,1-10.16,6.34q-.43-.1-.84-.24L134.57,155a24,24,0,0,1-2.64-.87L116.24,149l-5.86-2h0a10.12,10.12,0,0,1-6.49-11.87l4.75-18.88a24.13,24.13,0,0,1,5.26,9.07c-1,4.38-.58,8.41.88,10.82a4.2,4.2,0,0,0,5.79,1.77c2.83-1.35,5.64-5.19,7.07-10.18,2-6.89.59-13.33-3.09-14.39-2.44-.7-5.26,1.11-7.46,4.39a29.35,29.35,0,0,0-2-3.07,29.73,29.73,0,0,0-4.71-5,10.29,10.29,0,0,1,11.09-6.43l33.08,5.53a8.5,8.5,0,0,1,7.11,9.68c-.05.29-.11.57-.18.85l-1.72,7a1.56,1.56,0,0,0,.47.22l84.35,22.9A1.76,1.76,0,0,1,245.75,151.5Z"/><path class="e" d="M116.24,149a30.45,30.45,0,0,1-7.14,7.79l-.44.34A30.52,30.52,0,0,1,92.6,163a6.55,6.55,0,0,1,1.15-6.13,24,24,0,0,0,7.17-2.07,25.15,25.15,0,0,0,4.18-2.48c.28-.23.58-.44.85-.67a24.37,24.37,0,0,0,4.37-4.59h0Z"/><path class="e" d="M120.64,137.19a4.46,4.46,0,0,1-.13.73,4.18,4.18,0,0,1-5.69-1.59,1.62,1.62,0,0,1-.1-.18,24.17,24.17,0,0,0-.88-10.82,24.45,24.45,0,0,0-3.63-7.12,20.91,20.91,0,0,0-1.63-2,24.37,24.37,0,1,0-21.49,40.54,12.7,12.7,0,0,0,.38,6.09A30.34,30.34,0,1,1,115,114.65a28.47,28.47,0,0,1,2,3.08A30.15,30.15,0,0,1,120.64,137.19Z"/><path class="f" d="M155.62,255.79c-1.49-3-3-6-4.52-8.94l-6-11.47L139,224c-2.1-3.76-4.15-7.55-6.31-11.28-3.53-6.2-7.13-12.36-10.92-18.43-.29-.46-.78-.17-.59.27,2.92,6.61,5.91,13,9.1,19.44,1.87,3.88,3.87,7.7,5.79,11.56L142,237l6.13,11.36c1.79,3.21,3.54,6.43,5.36,9.62C153.86,258.56,156,256.67,155.62,255.79Z"/><path class="f" d="M228.84,151.51c-3.21-.93-6.43-1.81-9.64-2.73l-12.48-3.37-12.53-3.18c-4.2-1-8.37-2.06-12.58-3-7-1.6-13.93-3.12-21-4.44-.54-.1-.65.46-.2.61,6.84,2.33,13.56,4.43,20.47,6.46,4.13,1.25,8.29,2.37,12.43,3.55l12.48,3.36L218.36,152c3.57.85,7.13,1.74,10.7,2.57C229.68,154.69,229.77,151.78,228.84,151.51Z"/></svg>
