<svg xmlns="http://www.w3.org/2000/svg" viewBox="0 0 37 38" width="37px" height="auto"><defs><style>.a{fill:#062942;}</style></defs><title>affiliates-plus</title><path class="a" d="M34.16,16.41h-13V3.34a2.49,2.49,0,0,0-.76-1.82A2.54,2.54,0,0,0,18.5.75a2.49,2.49,0,0,0-1.82.76,2.49,2.49,0,0,0-.76,1.83V16.41H2.84A2.49,2.49,0,0,0,1,17.18,2.49,2.49,0,0,0,.25,19,2.54,2.54,0,0,0,1,20.87a2.49,2.49,0,0,0,1.83.76H15.91v13a2.61,2.61,0,0,0,2.59,2.59,2.54,2.54,0,0,0,1.87-.76,2.49,2.49,0,0,0,.76-1.83v-13h13A2.49,2.49,0,0,0,36,20.87,2.54,2.54,0,0,0,36.75,19a2.61,2.61,0,0,0-2.59-2.59Z"/></svg>
