<svg viewBox="0 0 100 74" width="98.64px" height="73px" xmlns="http://www.w3.org/2000/svg" xmlns:xlink="http://www.w3.org/1999/xlink"><title>Get Paid</title><defs><path id="a" d="M0 73.128h99.673V0H0z"/></defs><g fill="none" fill-rule="evenodd"><path d="M91.564 36.564c0 20.194-16.37 36.564-36.564 36.564s-36.564-16.37-36.564-36.564S34.806 0 55 0s36.564 16.37 36.564 36.564z" fill="#0D83DD"/><path d="M90.22 36.483c0 11.046-8.953 20-20 20-11.044 0-20-8.954-20-20 0-11.045 8.956-20 20-20 11.047 0 20 8.955 20 20" fill="#2672B9"/><path d="M99.673 36.483c0 11.046-8.954 20-20 20-11.045 0-20-8.954-20-20 0-11.045 8.955-20 20-20 11.046 0 20 8.955 20 20" fill="#F6DA66"/><path d="M77.967 23h3.903v1.923h-.69c3.41 0 6.028 1.918 7.234 5.243l-5.406 1.653c-.585-1.56-1.756-2.177-3.41-2.177-.93 0-2.135.236-2.135 1.39 0 1.084 1.55 1.32 2.376 1.524 2.063.44 4.302.78 6.162 1.832C88 35.544 89 37.58 89 39.82c0 4.444-3.376 6.717-7.44 7.192l.31.032v2.873h-3.903v-2.905c-3.904-.373-7.07-2.68-7.967-6.482l6.02-1.12c.553 1.9 1.91 2.614 3.838 2.614.896 0 2.504-.136 2.504-1.322 0-1.29-1.59-1.562-2.588-1.765-4.132-.814-8.67-1.935-8.67-7.056 0-3.9 2.96-6.48 6.863-6.92V23z" fill="#EFC100"/><mask id="b" fill="#fff"><use xlink:href="#a"/></mask><path fill="#F9E699" mask="url(#b)" d="M9.26 26.63h46.71v-2.22H9.26M0 39.224h52.636v-2.222H0m9.26 14.814h46.71v-2.222H9.26"/></g></svg>
