<?xml version="1.0" encoding="UTF-8"?>
<svg width="233px" height="29px" viewBox="0 0 233 29" version="1.1" xmlns="http://www.w3.org/2000/svg" xmlns:xlink="http://www.w3.org/1999/xlink">
    <!-- Generator: Sketch 53 (72520) - https://sketchapp.com -->
    <title>Group 12 Copy</title>
    <desc>Created with Sketch.</desc>
    <defs>
        <path d="M2.52386238,0.149493482 C1.21175087,0.149493482 0.148462493,1.2201658 0.148462493,2.5413892 L0.148462493,26.4603463 C0.148462493,27.7815697 1.21175087,28.8522421 2.52386238,28.8522421 L39.3425606,28.8522421 C40.6543751,28.8522421 41.7179604,27.7815697 41.7179604,26.4603463 L41.7179604,2.5413892 C41.7179604,1.2201658 40.6543751,0.149493482 39.3425606,0.149493482 L2.52386238,0.149493482 Z M0.148462493,0.149493482 L41.7179604,0.149493482 L41.7179604,28.8522421 L0.148462493,28.8522421 L0.148462493,0.149493482 Z" id="path-1"></path>
    </defs>
    <g id="Page-1" stroke="none" stroke-width="1" fill="none" fill-rule="evenodd">
        <g id="Payments-Copy" transform="translate(-317.000000, -1508.000000)">
            <g id="Group-3" transform="translate(279.000000, 1282.000000)">
                <g id="Group-12-Copy" transform="translate(38.000000, 226.000000)">
                    <g id="cc-mastercard-icon">
                        <g id="Page-1">
                            <path d="M2.39245918,28.3589407 L39.4760401,28.3589407 C40.4385061,28.3589407 41.2241236,27.5652504 41.2241236,26.5878092 L41.2241236,2.41707356 C41.2241236,1.43963233 40.4385061,0.645942073 39.4760401,0.645942073 L2.39245918,0.645942073 C1.42999313,0.645942073 0.644375638,1.43963233 0.644375638,2.41707356 L0.644375638,26.5878092 C0.644375638,27.5652504 1.42999313,28.3589407 2.39245918,28.3589407 Z" id="Fill-1" stroke="#E6EBEC" stroke-width="0.989749951" fill="#FFFFFF"></path>
                            <path d="M17.5259097,14.5024414 C17.5259097,11.6992403 18.8663017,9.21297803 20.9343094,7.66031039 C19.5308155,6.60646632 17.7923731,5.98286134 15.9094842,5.98286134 C11.2522052,5.98286134 7.47655831,9.79700343 7.47655831,14.5024414 C7.47655831,19.2078793 11.2522052,23.0220214 15.9094842,23.0220214 C17.7923731,23.0220214 19.5308155,22.3984165 20.9343094,21.3445724 C18.8663017,19.7919047 17.5259097,17.3056425 17.5259097,14.5024414" id="Fill-5" fill="#FF0000"></path>
                            <path d="M25.9589851,5.98274049 C24.0760962,5.98274049 22.3376538,6.6066476 20.9341599,7.66018954 C23.0024667,9.21285717 24.3425597,11.6994216 24.3425597,14.5023205 C24.3425597,17.3055216 23.0024667,19.792086 20.9341599,21.3447537 C22.3376538,22.3982956 24.0760962,23.0222027 25.9589851,23.0222027 C30.6165633,23.0222027 34.391911,19.2077585 34.391911,14.5023205 C34.391911,9.79718471 30.6165633,5.98274049 25.9589851,5.98274049" id="Fill-7" fill="#FFCC00"></path>
                            <path d="M24.3426494,14.5024414 C24.3426494,11.6992403 23.0022574,9.21297803 20.9342496,7.66031039 C18.8662419,9.21297803 17.5258499,11.6992403 17.5258499,14.5024414 C17.5258499,17.3056425 18.8662419,19.7919047 20.9342496,21.3445724 C23.0022574,19.7919047 24.3426494,17.3056425 24.3426494,14.5024414" id="Fill-9" fill="#FF5D00"></path>
                        </g>
                    </g>
                    <g id="cc-visa-icon" transform="translate(48.179661, 0.000000)">
                        <g id="Page-1">
                            <path d="M2.39245918,28.3589407 L39.4760401,28.3589407 C40.4385061,28.3589407 41.2241236,27.5652504 41.2241236,26.5878092 L41.2241236,2.41707356 C41.2241236,1.43963233 40.4385061,0.645942073 39.4760401,0.645942073 L2.39245918,0.645942073 C1.42999313,0.645942073 0.644375638,1.43963233 0.644375638,2.41707356 L0.644375638,26.5878092 C0.644375638,27.5652504 1.42999313,28.3589407 2.39245918,28.3589407 Z" id="Fill-1" stroke="#E6EBEC" stroke-width="0.989749951" fill="#FFFFFF"></path>
                            <polygon id="Fill-5" fill="#000E8F" points="15.3885795 19.5408917 17.0842562 9.48949124 19.7958435 9.48949124 18.0992697 19.5408917"></polygon>
                            <path d="M27.9347624,9.73699957 C27.3973496,9.53336113 26.5554925,9.3149181 25.5042926,9.3149181 C22.8247048,9.3149181 20.9370309,10.6781476 20.9211807,12.6320494 C20.9059285,14.0762509 22.2684511,14.8817407 23.2972214,15.3627383 C24.3526081,15.855217 24.7075937,16.1694366 24.7025097,16.6096461 C24.6959303,17.2831032 23.8597554,17.590978 23.0804021,17.590978 C21.9948101,17.590978 21.4182203,17.4387024 20.5276162,17.0634517 L20.1783128,16.9036227 L19.797608,19.153616 C20.4310195,19.4342987 21.6024419,19.6775167 22.8184245,19.6899042 C25.6690753,19.6899042 27.5196656,18.3423857 27.5405999,16.2561491 C27.5507679,15.1125712 26.8282362,14.2424247 25.2638474,13.5251581 C24.3158236,13.0601736 23.735346,12.7498818 23.7416262,12.2788546 C23.7416262,11.8613051 24.2329837,11.4144486 25.2943517,11.4144486 C26.181367,11.4005505 26.8237503,11.5957291 27.3240796,11.7993676 L27.5672163,11.9153871 L27.9347624,9.73699957" id="Fill-7" fill="#000E8F"></path>
                            <path d="M31.5446995,15.9777325 C31.7689954,15.3985412 32.6252074,13.1678844 32.6252074,13.1678844 C32.6090581,13.1947744 32.8477089,12.585974 32.9846789,12.2086084 L33.1680033,13.0754314 C33.1680033,13.0754314 33.6871735,15.474679 33.7957327,15.9777325 L31.5446995,15.9777325 Z M34.8888011,9.4990689 L32.7932797,9.4990689 C32.144018,9.4990689 31.6583427,9.67823447 31.3730384,10.3326571 L27.3455821,19.5441245 L30.1932422,19.5441245 C30.1932422,19.5441245 30.6588804,18.3056764 30.764449,18.0337557 C31.0754726,18.0337557 33.8417881,18.0379855 34.2371469,18.0379855 C34.3184915,18.3896697 34.5673104,19.5441245 34.5673104,19.5441245 L37.0836108,19.5441245 L34.8888011,9.4990689 L34.8888011,9.4990689 Z" id="Fill-9" fill="#000E8F"></path>
                            <path d="M13.1141299,9.49689353 L10.4590651,16.3511099 L10.1761533,14.9582712 C9.68210429,13.352428 8.14193944,11.6127393 6.42054353,10.7416864 L8.84802278,19.5322808 L11.7172153,19.5289574 L15.9866121,9.49689353 L13.1141299,9.49689353" id="Fill-11" fill="#000E8F"></path>
                            <path d="M7.99617704,9.49066956 L3.6233051,9.49066956 L3.58861401,9.69974643 C6.9907335,10.531824 9.24176667,12.5425271 10.1763327,14.95809 L9.22531831,10.3393645 C9.06113374,9.70276777 8.58502841,9.51272536 7.99617704,9.49066956" id="Fill-13" fill="#FFCC00"></path>
                        </g>
                    </g>
                    <g id="cc-amex-icon" transform="translate(143.749153, 0.000000)">
                        <g id="Page-1">
                            <g id="Group-3">
                                <mask id="mask-2" fill="white">
                                    <use xlink:href="#path-1"></use>
                                </mask>
                                <g id="Clip-2"></g>
                                <path d="M2.52386238,0.149493482 C1.21175087,0.149493482 0.148462493,1.2201658 0.148462493,2.5413892 L0.148462493,2.5413892 L0.148462493,26.4603463 C0.148462493,27.7815697 1.21175087,28.8522421 2.52386238,28.8522421 L2.52386238,28.8522421 L39.3425606,28.8522421 C40.6543751,28.8522421 41.7179604,27.7815697 41.7179604,26.4603463 L41.7179604,26.4603463 L41.7179604,2.5413892 C41.7179604,1.2201658 40.6543751,0.149493482 39.3425606,0.149493482 L39.3425606,0.149493482 L2.52386238,0.149493482 Z" id="Fill-1" mask="url(#mask-2)"></path>
                            </g>
                            <g id="Group-12">
                                <path d="M39.3425606,28.8522421 L2.52386238,28.8522421 C1.21204779,28.8522421 0.148462493,27.7812708 0.148462493,26.4603463 L0.148462493,2.5413892 C0.148462493,1.22046479 1.21204779,0.149493482 2.52386238,0.149493482 L39.3425606,0.149493482 C40.6543751,0.149493482 41.7179604,1.22046479 41.7179604,2.5413892 L41.7179604,26.4603463 C41.7179604,27.7812708 40.6543751,28.8522421 39.3425606,28.8522421" id="Fill-6" fill="#2778CB"></path>
                                <g id="Group-2" transform="translate(4.156950, 10.763531)" fill="#FFFFFF">
                                    <path d="M4.53555884,4.16683183 L3.43871795,4.16683183 L4.53555884,1.58986318 L4.53555884,1.67178561 L5.63239974,4.16683183 L4.53555884,4.16683183 Z M13.8783035,4.98486016 L11.6849186,0.0357289422 L8.88194678,0.0357289422 L8.88194678,7.15281464 L5.71346026,0.0357289422 L4.53555884,0.0357289422 L3.3169787,0.0357289422 L0.148492185,7.43894517 L2.05771984,7.43894517 L2.70768863,5.76192728 L4.53555884,5.76192728 L6.32275033,5.76192728 L7.01339785,7.43894517 L10.6694352,7.43894517 L10.6694352,1.91725391 L13.0659167,7.43894517 L14.731369,7.43894517 L17.1688262,2.03983856 L17.1688262,7.43894517 L18.9560177,7.43894517 L18.9560177,0.0357289422 L16.0719853,0.0357289422 L13.8783035,4.98486016 Z" id="Fill-8"></path>
                                    <path d="M25.9034388,5.86433032 L21.8008263,5.86433032 L21.8008263,4.39181952 L25.7816995,4.39181952 L25.7816995,3.00093216 L21.8008263,3.00093216 L21.8008263,1.651305 L25.9034388,1.651305 L27.9344057,3.6147524 L25.9034388,5.86433032 Z M30.209148,3.6147524 L31.5090856,2.22386504 L33.4040608,0.0562095493 L31.1435709,0.0562095493 L29.112604,2.30578747 L27.0813402,0.0562095493 L19.9726591,0.0562095493 L19.9726591,7.37780233 L26.8782435,7.37780233 L29.0312466,4.96437956 L31.1435709,7.41876355 L33.4040608,7.41876355 L31.5090856,5.16888664 L30.209148,3.6147524 Z" id="Fill-10"></path>
                                </g>
                            </g>
                        </g>
                    </g>
                    <g id="cc-discover-icon" transform="translate(95.569492, 0.000000)">
                        <g id="Page-1">
                            <path d="M2.39245918,28.3589407 L39.4760401,28.3589407 C40.4385061,28.3589407 41.2241236,27.5652504 41.2241236,26.5878092 L41.2241236,2.41707356 C41.2241236,1.43963233 40.4385061,0.645942073 39.4760401,0.645942073 L2.39245918,0.645942073 C1.42999313,0.645942073 0.644375638,1.43963233 0.644375638,2.41707356 L0.644375638,26.5878092 C0.644375638,27.5652504 1.42999313,28.3589407 2.39245918,28.3589407 Z" id="Fill-1" stroke="#E6EBEC" stroke-width="0.989749951" fill="#FFFFFF"></path>
                            <path d="M36.1156695,14.2411557 L35.7878985,14.2411557 L35.7878985,12.4797134 L36.1330151,12.4797134 C36.8405937,12.4797134 37.2204014,12.7755028 37.2204014,13.3341489 C37.2204014,13.9269362 36.8405937,14.2411557 36.1156695,14.2411557 L36.1156695,14.2411557 Z M38.8777982,17.362202 L37.0654877,14.9209577 C37.9112326,14.7463241 38.3771698,14.1710606 38.3771698,13.2815775 C38.3771698,12.1830176 37.6349001,11.5551827 36.3399654,11.5551827 L34.6658211,11.5551827 L34.6658211,17.362202 L35.7878985,17.362202 L35.7878985,15.0430199 L35.9434103,15.0430199 L37.4967339,17.362202 L38.8777982,17.362202 Z M33.9235514,17.362202 L33.9235514,16.3857043 L31.8695995,16.3857043 L31.8695995,14.8164192 L33.8547673,14.8164192 L33.8547673,13.8399215 L31.8695995,13.8399215 L31.8695995,12.5492042 L33.9235514,12.5492042 L33.9235514,11.5551827 L30.7475221,11.5551827 L30.7475221,17.362202 L33.9235514,17.362202 Z M30.2468938,11.5551827 L29.0213413,11.5551827 L27.4680177,15.4617779 L25.9314416,11.5551827 L24.70559,11.5551827 L27.1569941,17.5193118 L27.7610976,17.5193118 L30.2468938,11.5551827 Z M18.5604818,15.8279645 C18.1118901,16.2811658 17.7147369,16.4733232 17.2141085,16.4733232 C16.0746856,16.4733232 15.2809773,15.6358072 15.2809773,14.4677564 C15.2809773,13.3516727 16.1093767,12.4621896 17.16267,12.4621896 C17.6973913,12.4621896 18.0945445,12.6534405 18.5604818,13.125072 L18.5604818,11.7814812 C18.077199,11.5373568 17.6632984,11.4331205 17.1800156,11.4331205 C15.4879277,11.4331205 14.1242089,12.7755028 14.1242089,14.4677564 C14.1242089,16.1766274 15.4538347,17.501788 17.16267,17.501788 C17.6459528,17.501788 18.0598534,17.4147733 18.5604818,17.1706489 L18.5604818,15.8279645 Z M12.1049481,13.7873502 C11.4314624,13.5432257 11.2418576,13.3691964 11.2418576,13.0549769 C11.2418576,12.6887902 11.5869742,12.4096182 12.070257,12.4096182 C12.4153735,12.4096182 12.691706,12.5492042 12.9853841,12.8809476 L13.572142,12.1135267 C13.0888592,11.677245 12.5021013,11.4681681 11.8806522,11.4681681 C10.86205,11.4681681 10.0850892,12.1830176 10.0850892,13.125072 C10.0850892,13.9269362 10.4475513,14.3456942 11.5008446,14.7294046 C11.9320907,14.8859101 12.1563866,14.973529 12.2772073,15.0605437 C12.5021013,15.2001297 12.6055764,15.4092065 12.6055764,15.653331 C12.6055764,16.124056 12.2431143,16.4733232 11.742486,16.4733232 C11.2071666,16.4733232 10.7759204,16.211675 10.5169334,15.7059023 L9.79200925,16.403228 C10.309385,17.1706489 10.9308341,17.5193118 11.7771771,17.5193118 C12.950693,17.5193118 13.7617468,16.7343671 13.7617468,15.6013639 C13.7617468,14.6768332 13.3819391,14.2580752 12.1049481,13.7873502 L12.1049481,13.7873502 Z M8.23808759,17.362202 L9.36016497,17.362202 L9.36016497,11.5551827 L8.23808759,11.5551827 L8.23808759,17.362202 Z M5.94249431,15.932503 C5.59737776,16.2461183 5.13144051,16.3857043 4.40651631,16.3857043 L4.11283828,16.3857043 L4.11283828,12.5492042 L4.40651631,12.5492042 C5.13144051,12.5492042 5.58003221,12.6712665 5.94249431,13.0196272 C6.3396475,13.3691964 6.56394335,13.9094124 6.56394335,14.4677564 C6.56394335,15.0254961 6.3396475,15.5663163 5.94249431,15.932503 L5.94249431,15.932503 Z M4.63081216,11.5551827 L2.99046183,11.5551827 L2.99046183,17.362202 L4.63081216,17.362202 C5.4939026,17.362202 6.13269719,17.1706489 6.68476405,16.6999238 C7.34090418,16.1415798 7.72071182,15.3221919 7.72071182,14.4677564 C7.72071182,12.7588854 6.4604682,11.5551827 4.63081216,11.5551827 L4.63081216,11.5551827 Z" id="Fill-5" fill="#333333"></path>
                            <path d="M22.0129632,11.3460152 C20.2867823,11.3460152 18.8889705,12.7587947 18.8889705,14.502109 C18.8889705,16.2460276 20.2867823,17.6588071 22.0129632,17.6588071 C23.739144,17.6588071 25.1375539,16.2460276 25.1375539,14.502109 C25.1375539,12.7587947 23.739144,11.3460152 22.0129632,11.3460152" id="Fill-7" fill="#FF5D00"></path>
                        </g>
                    </g>
                    <g id="cc-applepay-icon" transform="translate(191.138983, 0.000000)">
                        <g id="Page-1">
                            <path d="M2.39245918,28.3589407 L39.4760401,28.3589407 C40.4385061,28.3589407 41.2241236,27.5652504 41.2241236,26.5878092 L41.2241236,2.41707356 C41.2241236,1.43963233 40.4385061,0.645942073 39.4760401,0.645942073 L2.39245918,0.645942073 C1.42999313,0.645942073 0.644375638,1.43963233 0.644375638,2.41707356 L0.644375638,26.5878092 C0.644375638,27.5652504 1.42999313,28.3589407 2.39245918,28.3589407 Z" id="Fill-1" stroke="#E6EBEC" stroke-width="0.989749951" fill="#FFFFFF"></path>
                            <path d="M30.475227,11.1601121 L32.3138548,15.8021018 C32.4164328,16.0646565 32.5121324,16.3299303 32.6009535,16.5979233 C32.69127,16.8704484 32.7717174,17.1212197 32.8419968,17.3493311 L32.872202,17.3493311 C32.9427804,17.1311902 33.0229288,16.8855551 33.1132453,16.6127279 C33.2038608,16.3402028 33.3046444,16.0598223 33.4149979,15.7715863 L35.1340014,11.1598099 L35.8873364,11.1598099 L33.792114,16.3973062 C33.6004158,16.903381 33.4018392,17.4067366 33.1963842,17.9073729 C33.0271156,18.3225053 32.8384081,18.7297822 32.6311587,19.1270887 C32.4583014,19.4594363 32.2642107,19.7800007 32.050382,20.086969 C31.8619735,20.3561706 31.6418645,20.6008993 31.3945409,20.8157167 C31.1137225,21.0634667 30.8544365,21.2447472 30.6181782,21.358954 C30.3819199,21.4731607 30.2240156,21.5450686 30.1435682,21.5746778 L29.9016277,20.994278 C30.108578,20.9018249 30.3098462,20.7975886 30.5051331,20.6818712 C30.7410923,20.5413788 30.9588088,20.3715794 31.1531986,20.1760986 C31.3344296,19.9975373 31.5330062,19.7624769 31.7489283,19.4694067 C31.9648505,19.1769408 32.158343,18.8222353 32.329406,18.4055922 C32.3895173,18.2469718 32.4200215,18.1424333 32.4200215,18.0928833 C32.4200215,18.0239967 32.3898164,17.9194583 32.329406,17.7804766 L29.7209948,11.1595078 L30.475227,11.1595078 L30.475227,11.1601121 Z M28.3806028,14.4784519 C27.980459,14.4687836 27.5800161,14.4835882 27.1816667,14.5228657 C26.7650745,14.5621431 26.3804819,14.6494599 26.028786,14.7830032 C25.676791,14.9171508 25.3855055,15.1126316 25.1546303,15.3706542 C24.9237551,15.6283747 24.8077194,15.9706927 24.8077194,16.3976083 C24.8077194,16.9027767 24.9533621,17.275006 25.2452458,17.5130878 C25.5362323,17.7508674 25.8628071,17.8702104 26.224671,17.8702104 C26.5162556,17.8702104 26.7776351,17.8306308 27.0085103,17.7508674 C27.2399836,17.6717082 27.4403546,17.5650549 27.6114175,17.4315116 C27.7824805,17.2979682 27.9254317,17.1459947 28.0411684,16.977706 C28.156905,16.808813 28.244829,16.635388 28.3055384,16.4565245 C28.3557807,16.2580223 28.3812009,16.1142065 28.3812009,16.0247747 L28.3812009,14.4784519 L28.3806028,14.4784519 Z M29.0893777,16.6057788 C29.0893777,16.8934106 29.0941626,17.1813444 29.1043307,17.4686741 C29.1141997,17.7563058 29.1441059,18.033665 29.1946472,18.301658 L28.5313296,18.301658 L28.4260601,17.2898106 L28.3952568,17.2898106 C28.3049403,17.4290945 28.1895027,17.5677741 28.048944,17.7064537 C27.9083852,17.8451333 27.7450979,17.9717275 27.5593809,18.0859342 C27.3730658,18.1998388 27.1622277,18.2916876 26.9259694,18.3611785 C26.6732627,18.4324821 26.4118833,18.4675297 26.1493076,18.4651126 C25.7979108,18.4651126 25.4886816,18.4080093 25.2219191,18.2941047 C24.9554556,18.179898 24.7371409,18.0312479 24.566078,17.8478525 C24.3965103,17.6659677 24.2658206,17.450546 24.1820835,17.2154856 C24.0983464,16.98677 24.0549825,16.7450627 24.0540853,16.5015425 C24.0540853,15.6585881 24.4132577,15.0089996 25.1319016,14.5524748 C25.8502465,14.09595 26.9334459,13.8778092 28.3812009,13.89775 L28.3812009,13.7043841 C28.3812009,13.5155503 28.3635563,13.2995243 28.3282671,13.0569105 C28.2929779,12.8136925 28.2137267,12.5792364 28.0944013,12.3650232 C27.9738796,12.1471845 27.7929476,11.963789 27.5519044,11.815139 C27.3108611,11.6661868 26.9836882,11.5918618 26.5721801,11.5918618 C26.2599603,11.5918618 25.9513292,11.6386926 25.6447915,11.7329585 C25.3382538,11.8269222 25.0595289,11.9583506 24.8083175,12.1272436 L24.5819282,11.6063643 C24.9034189,11.3882234 25.2353768,11.2323221 25.5769046,11.1380563 C25.9256099,11.0431861 26.2856795,10.9954489 26.6472444,10.9969596 C27.1499662,10.9969596 27.5593809,11.0809529 27.8760866,11.2495438 C28.1924933,11.4181347 28.4413122,11.6365777 28.6222442,11.9039665 C28.8049705,12.1755851 28.9305762,12.4819492 28.9915847,12.8043264 C29.0564809,13.130027 29.0893777,13.4614682 29.0899758,13.7938158 L29.0899758,16.6057788 L29.0893777,16.6057788 Z M18.6291163,13.3919774 C18.7998802,13.4415274 18.9909803,13.4762728 19.2021174,13.4959115 C19.4132546,13.5158524 19.6390458,13.5255207 19.8803881,13.5255207 C20.784749,13.5255207 21.4857483,13.3173502 21.983386,12.9007072 C22.4807247,12.4843662 22.7295435,11.8740552 22.7295435,11.0706803 C22.7295435,10.6839486 22.6643482,10.3464647 22.5336585,10.0588329 C22.4095481,9.77966092 22.2178499,9.53674503 21.9759095,9.35244317 C21.7348662,9.16874558 21.4486647,9.03006598 21.1167068,8.93549798 C20.784749,8.84153425 20.4181,8.79440131 20.0155637,8.79440131 C19.6943721,8.79440131 19.4177405,8.80678881 19.1865663,8.83156382 C18.9556911,8.85633882 18.769376,8.88383303 18.6288172,8.91344218 L18.6288172,13.3919774 L18.6291163,13.3919774 Z M17.9203414,8.3931671 C18.2409349,8.33938721 18.5627247,8.29467135 18.8857108,8.25901952 C19.2712006,8.21762713 19.6587838,8.19768627 20.0466661,8.19949908 C20.6498724,8.19949908 21.1696407,8.27140702 21.606569,8.4152229 C22.0443945,8.55903877 22.4032678,8.76509429 22.6843853,9.03278519 C22.9281201,9.27388828 23.1204164,9.5621243 23.250209,9.88057374 C23.3856837,10.2077851 23.4526734,10.5851507 23.4526734,11.011462 C23.4526734,11.5272051 23.3605625,11.9785936 23.1745465,12.3653254 C22.995708,12.7432952 22.7355248,13.0762471 22.4131369,13.3397081 C22.0913471,13.6022628 21.709446,13.7983479 21.2674336,13.9273592 C20.8248232,14.0560683 20.3424376,14.120725 19.8196787,14.120725 C19.3474612,14.120725 18.950607,14.0859796 18.6291163,14.0167909 L18.6291163,18.3013559 L17.9203414,18.3013559 L17.9203414,8.3931671 Z M12.2253202,9.19080138 C12.6188846,8.72491045 12.8838528,8.07622833 12.81148,7.43026542 C12.2444601,7.45262335 11.5584139,7.80007767 11.1519898,8.26566647 C10.7871352,8.67838178 10.468037,9.338545 10.5541666,9.97151614 C11.1866809,10.0192533 11.8320548,9.65699444 12.2256193,9.19049924 L12.2253202,9.19080138 Z M13.6434681,13.2883453 C13.6593183,14.9570325 15.1390728,15.512053 15.1555212,15.5193042 C15.1429606,15.5585817 14.9192629,16.3105937 14.3761679,17.0876828 C13.9063428,17.759025 13.4188732,18.4285544 12.6511832,18.4424526 C11.896652,18.4560486 11.6544125,18.0046601 10.7916211,18.0046601 C9.92912879,18.0046601 9.6596747,18.4285544 8.94551671,18.4560486 C8.20444321,18.4835428 7.64011485,17.7294159 7.16670107,17.0601886 C6.19893923,15.6909165 5.45936104,13.1919645 6.45254308,11.5048472 C6.94569489,10.6670291 7.82702806,10.1364814 8.78402369,10.1231875 C9.51163944,10.1095915 10.1985829,10.6020702 10.6435858,10.6020702 C11.0879907,10.6020702 11.9229694,10.009585 12.8010129,10.0965997 C13.1679609,10.1117064 14.1991237,10.2419262 14.861245,11.1903255 C14.8077131,11.222956 13.6306085,11.8933918 13.6434681,13.2883453 L13.6434681,13.2883453 Z" id="Fill-5" fill="#000000"></path>
                        </g>
                    </g>
                </g>
            </g>
        </g>
    </g>
</svg>