<?xml version="1.0" encoding="UTF-8"?>
<svg width="14px" height="19px" viewBox="0 0 14 19" version="1.1" xmlns="http://www.w3.org/2000/svg" xmlns:xlink="http://www.w3.org/1999/xlink">
    <!-- Generator: Sketch 52.5 (67469) - http://www.bohemiancoding.com/sketch -->
    <title>gDocs</title>
    <desc>Created with Sketch.</desc>
    <defs>
        <linearGradient x1="50%" y1="0%" x2="100%" y2="100%" id="linearGradient-1">
            <stop stop-color="#4679DF" offset="0%"></stop>
            <stop stop-color="#4479E0" stop-opacity="0" offset="100%"></stop>
        </linearGradient>
    </defs>
    <g id="Page-1" stroke="none" stroke-width="1" fill="none" fill-rule="evenodd">
        <g id="Artboard" transform="translate(-14.000000, -182.000000)">
            <g id="gDocs" transform="translate(14.000000, 182.000000)">
                <path d="M12.6875,19 L1.3125,19 C0.587890625,19 0,18.3921131 0,17.6428571 L0,1.35714286 C0,0.607886905 0.587890625,0 1.3125,0 L9.625,0 L14,4.52380952 L14,17.6428571 C14,18.3921131 13.4121094,19 12.6875,19 Z" id="Path" fill="#508DF4"></path>
                <path d="M14,4.52380952 L10.7765152,4.52380952 C10.1405509,4.52380952 9.625,4.00825863 9.625,3.37229437 L9.625,0 L14,4.52380952 Z" id="Path" fill="#A5C5F9"></path>
                <polygon id="Path" fill="url(#linearGradient-1)" points="10.5583333 4.52380952 14 9.04761905 14 4.52380952"></polygon>
                <polygon id="Path" fill="#F1F1F1" points="3.0625 9.04761905 10.9375 9.04761905 10.9375 9.95238095 3.0625 9.95238095"></polygon>
                <polygon id="Path" fill="#F1F1F1" points="3.0625 10.8571429 10.9375 10.8571429 10.9375 11.7619048 3.0625 11.7619048"></polygon>
                <polygon id="Path" fill="#F1F1F1" points="3.0625 12.6666667 10.9375 12.6666667 10.9375 13.5714286 3.0625 13.5714286"></polygon>
                <polygon id="Path" fill="#F1F1F1" points="3.0625 14.4761905 7.4375 14.4761905 7.4375 15.3809524 3.0625 15.3809524"></polygon>
            </g>
        </g>
    </g>
</svg>