<svg xmlns="http://www.w3.org/2000/svg" viewBox="0 0 312 298" width="312px" height="298px"><defs><style>.a{fill:#e5f4fe;}.b{fill:none;stroke:#fff;stroke-miterlimit:10;stroke-width:4.78px;}.c{isolation:isolate;}.d{fill:#68b5eb;}.e{fill:#f5da66;}</style></defs><title>icon-guarantee</title><circle class="a" cx="156" cy="149" r="139.27"/><circle class="b" cx="155.75" cy="149" r="117.09"/><path class="a" d="M84.33,42.51,95,63.51s36.38-19.38,67.71-15.4,50.18,17,50.18,17L224.79,41s-35.31-29.47-74.08-24.16S84.33,42.51,84.33,42.51Z"/><path class="a" d="M96,234.74,85.39,256s31.86,30.8,74.35,25,67.71-24.16,67.71-24.16L216,237.13s-36.91,12.21-68.5,8.76S96,234.74,96,234.74Z"/><g class="c"><path class="d" d="M110.74,50.22l-1.09.51-1.28-1.56a4.85,4.85,0,0,1-3,3.68,5.51,5.51,0,0,1-4.82.06,8.83,8.83,0,0,1-4.26-4.54c-2.06-4.45-1-8.56,2.64-10.24a5.28,5.28,0,0,1,4.55-.14,5.92,5.92,0,0,1,2.35,1.88L104.31,41a4.15,4.15,0,0,0-1.77-1.45,3.93,3.93,0,0,0-3.13.12,3.73,3.73,0,0,0-2.23,3.22,9.51,9.51,0,0,0,.95,4.51A9.28,9.28,0,0,0,100.87,51a4.09,4.09,0,0,0,4,.33c2.06-1,2.77-3.06,1.74-5.29-.1-.21-.21-.46-.37-.74l-3.45,1.59-.68-1.47L107.4,43Z"/></g><g class="c"><path class="d" d="M118.61,31.14l3.12,9.57a5.74,5.74,0,0,1,.2,3.94,5.16,5.16,0,0,1-3.54,3.08c-1.93.63-3.48.5-4.67-.4A6.26,6.26,0,0,1,111.66,44l-3.12-9.57,1.82-.6,3.12,9.57A4.49,4.49,0,0,0,115,45.89a4.15,4.15,0,0,0,5.42-1.77,4.06,4.06,0,0,0-.15-2.92l-3.13-9.56Z"/></g><g class="c"><path class="d" d="M134.38,43.46,132,39.36l-5.59,1.14-.44,4.68-1.58.33,1.81-16.1,2.17-.44,8,14.09Zm-6.91-12.22L126.62,39l4.64-1Z"/></g><g class="c"><path class="d" d="M147.25,41.89l-3.46-6.37-4.4.42.64,6.64-1.79.18-1.48-15.34,6-.58c2.87-.28,5,1.28,5.26,3.83a4.44,4.44,0,0,1-.78,2.93,3.67,3.67,0,0,1-1.69,1.28l3.7,6.82Zm-4-7.9a3,3,0,0,0,2.31-1.08,2.87,2.87,0,0,0,.59-2.1c-.15-1.59-1.37-2.47-3.19-2.29l-4.23.4.52,5.46Z"/></g><g class="c"><path class="d" d="M160.63,41.84l-1.46-4.54-5.7-.11L152,41.66l-1.62,0,5.3-15.3,2.22,0,4.7,15.51Zm-4-13.44-2.53,7.34,4.74.1Z"/></g><g class="c"><path class="d" d="M173.93,43.26,167.81,28.9l-.11,1c0,.51-.1.85-.11,1l-1.52,11.34L164.54,42l2-15.27,2.38.32,5.73,13.44.12-1.05c.06-.58.11-1,.13-1.13L176.31,28l1.51.2-2,15.28Z"/></g><g class="c"><path class="d" d="M181.67,44.88,185,31.55l-4.29-1.05.4-1.64,10.44,2.57-.41,1.64L186.81,32l-3.28,13.33Z"/></g><g class="c"><path class="d" d="M198.72,50.18l-9.32-3.27,5.07-14.42,9.12,3.2L203,37.27l-7.33-2.58-1.62,4.61,5.82,2-.52,1.47-5.81-2L191.75,46l7.53,2.64Z"/></g><g class="c"><path class="d" d="M209.92,55.44l-9-4.27,6.61-13.92,8.8,4.17L215.61,43l-7.07-3.36L206.43,44,212,46.7l-.67,1.42-5.62-2.66-2.37,5,7.26,3.44Z"/></g><g class="c"><path class="d" d="M108.39,125v-12H116a21,21,0,0,0,11.43-3q4.88-3,4.87-9.38t-4.69-9.45a16.75,16.75,0,0,0-9.44-2.47q-8.22,0-13,5.31a23.48,23.48,0,0,0-3.95,6.92L87.4,98.55a27.84,27.84,0,0,1,9.07-14.33q8.77-7.47,22.35-7.47,12,0,20.44,6.24a19.28,19.28,0,0,1,8.27,16.3q0,11.05-8.58,16.6a16,16,0,0,1-7.22,2.47A23.55,23.55,0,0,1,143,123.24a19.2,19.2,0,0,1,7.1,15.5,21.5,21.5,0,0,1-6.6,15.86q-8.9,8.9-25.38,8.89-15.67,0-25.62-9.75a28.46,28.46,0,0,1-7.59-12.66l14.38-3.52q4.32,14.08,18.65,14.08,8,0,12.47-4.2a11.88,11.88,0,0,0,4-8.95,13.17,13.17,0,0,0-3.27-8.58q-4-4.87-12.47-4.88Z"/><path class="d" d="M192.85,76.69a29.4,29.4,0,0,1,18.46,6q7.09,5.43,10.8,16a66.29,66.29,0,0,1,3.52,22q0,15.93-7,28-8.52,14.76-25.8,14.75-17,0-25.5-14.38-6.79-11.55-6.79-28.4,0-19.93,8.82-31.73a31,31,0,0,1,10.44-9.39A28.19,28.19,0,0,1,192.85,76.69Zm.31,11.3q-8.72,0-12.6,7-4.69,8.46-4.69,24.63,0,15.38,4.26,24.33,3.59,7.65,12.72,7.65,8,0,12.1-6.3,3-4.56,4.32-13.76a79.39,79.39,0,0,0,.68-10.93q0-14-2.9-21.8-2.22-6.16-6.05-8.76A13.67,13.67,0,0,0,193.16,88Z"/></g><g class="c"><path class="d" d="M103.27,261.77l-1-.58.51-1.94a4.85,4.85,0,0,1-4.75-.32,5.5,5.5,0,0,1-2.85-3.86A8.77,8.77,0,0,1,96.31,249c2.4-4.26,6.34-5.8,9.81-3.84a5.29,5.29,0,0,1,2.77,3.6,5.85,5.85,0,0,1-.15,3l-1.8-.51a4.15,4.15,0,0,0,.14-2.27,4,4,0,0,0-1.92-2.47,3.74,3.74,0,0,0-3.91.08,9.43,9.43,0,0,0-3.08,3.4,9.14,9.14,0,0,0-1.28,4.29A4.08,4.08,0,0,0,99,257.69c2,1.11,4.08.45,5.28-1.68.12-.2.25-.45.39-.74l-3.29-1.85.79-1.41,5,2.83Z"/></g><g class="c"><path class="d" d="M123.11,253.17l-3.73,9.36a5.81,5.81,0,0,1-2.37,3.16,5.11,5.11,0,0,1-4.69.09c-1.89-.75-3-1.84-3.34-3.29a6.35,6.35,0,0,1,.55-3.89l3.73-9.35L115,250l-3.73,9.35a4.52,4.52,0,0,0-.46,2.85,3.74,3.74,0,0,0,2.24,2.12,3.65,3.65,0,0,0,3.06,0,3.94,3.94,0,0,0,1.75-2.33l3.73-9.36Z"/></g><g class="c"><path class="d" d="M129.75,271l-.33-4.77-5.53-1.49-2.49,4-1.57-.42,8.84-13.65,2.15.58.86,16.24ZM129,256.94l-4.23,6.55,4.6,1.23Z"/></g><g class="c"><path class="d" d="M144.14,273.32l-1.93-7-4.38-.58-.88,6.61-1.79-.24,2-15.27,6,.8c2.87.39,4.6,2.39,4.26,4.93a4.42,4.42,0,0,1-1.43,2.68,3.76,3.76,0,0,1-1.93.86l2.05,7.47ZM142,264.71a3,3,0,0,0,2.5-.53,3,3,0,0,0,1-1.91c.21-1.58-.78-2.71-2.59-2.95l-4.21-.57-.73,5.43Z"/></g><g class="c"><path class="d" d="M159.23,273.84l-1.56-4.51-5.7,0-1.35,4.51H149L154,258.44h2.22l5.05,15.4Zm-4.35-13.35-2.36,7.4h4.74Z"/></g><g class="c"><path class="d" d="M174.12,272.53l-9.53-12.36.15,1c.08.5.12.85.14,1l1.37,11.35-1.54.19-1.85-15.3,2.39-.29,8.92,11.58-.16-1.05c-.09-.57-.13-1-.15-1.12l-1.25-10.3,1.51-.18,1.85,15.3Z"/></g><g class="c"><path class="d" d="M183.44,270.65l-3.29-13.3-4.28,1.06-.4-1.63,10.41-2.58.4,1.63L182,256.89l3.29,13.3Z"/></g><g class="c"><path class="d" d="M201.88,264.73l-9.35,3.44-5.32-14.46,9.15-3.37.58,1.58-7.35,2.71,1.7,4.62,5.83-2.15.55,1.48-5.84,2.14,1.92,5.2,7.54-2.77Z"/></g><g class="c"><path class="d" d="M214.27,258.62l-8.88,4.51-7-13.74L207.1,245l.77,1.5-7,3.55,2.23,4.39,5.54-2.82.72,1.4-5.55,2.82,2.51,4.94,7.17-3.64Z"/></g><g class="c"><path class="d" d="M107.44,224.27v-40.7h15a16.9,16.9,0,0,1,12.55,5q5.82,5.94,5.82,15.21a22.25,22.25,0,0,1-3.1,11.83q-5.28,8.63-16.94,8.62Zm7.55-6h6.14a11.35,11.35,0,0,0,5.87-1.61,11.2,11.2,0,0,0,4.89-6.32,20.39,20.39,0,0,0,1-6.62,16.46,16.46,0,0,0-3.25-10.53,9.43,9.43,0,0,0-7.7-3.84h-7Z"/></g><g class="c"><path class="d" d="M178.05,224.27h-7.84L167,214.58H151.31l-3.19,9.69h-6.26l13.5-40.7h9ZM165,208.71l-5.94-18.16-5.93,18.16Z"/></g><g class="c"><path class="d" d="M195.64,224.27h-7.78V207.1L174,183.57h8.88l9.66,16.79,9.24-16.79h7L195.64,207.1Z"/></g><path class="e" d="M245,151c.31-.59.54-.53.51.14l-.71,17.49a1.59,1.59,0,0,0,1.2,1.52l10.42,2.73c.65.17.69.57.1.88L248,178.25a2.33,2.33,0,0,0-1.1,1.79l-.34,16.37c0,.67-.28.73-.6.14l-7-13.18a1,1,0,0,0-1.31-.53.87.87,0,0,0-.26.16L225,191.76c-.55.39-.79.2-.54-.43l6.89-16.93a2.18,2.18,0,0,0-.34-2l-5.91-6.76c-.44-.5-.27-.79.38-.63l9.67,2.38a1.63,1.63,0,0,0,1.75-.79Z"/><path class="e" d="M244.1,112.94c.1-.41.25-.41.34,0l2.22,10.91a1,1,0,0,0,.93.77l6.85.1c.43,0,.51.24.2.53l-4.58,4.09a1.46,1.46,0,0,0-.41,1.27l2.28,10.16c.09.42-.06.5-.35.18l-6.31-7.08a.67.67,0,0,0-.94-.1l-.06,0v.05l-6.33,7.3c-.28.32-.46.24-.4-.18l1.69-11.5a1.38,1.38,0,0,0-.52-1.21L234,125c-.35-.24-.29-.44.14-.44h6.33a1,1,0,0,0,1-.75Z"/><path class="e" d="M74.19,180.87c0-.41.16-.44.32-.06l4.17,9.86a1,1,0,0,0,1,.55L86.19,190c.4-.08.53.13.29.46l-3.54,4.73a1.42,1.42,0,0,0-.14,1.28l4.08,9.14c.17.37,0,.48-.29.23l-7.3-5.47a.64.64,0,0,0-.9.06.71.71,0,0,0-.1.14l-4.58,8.09c-.2.36-.39.31-.41-.1l-.6-11.17a1.33,1.33,0,0,0-.72-1l-5-2.2c-.38-.16-.35-.37,0-.45l6-1.2a1,1,0,0,0,.76-.89Z"/><path class="e" d="M70.81,100c.14-.26.24-.24.23.06l-.31,7.76a.71.71,0,0,0,.5.68l4.63,1.21c.29.08.31.25,0,.39l-3.78,2a1,1,0,0,0-.49.79l-.15,7.26c0,.3-.12.33-.26.06l-3.1-5.85a.46.46,0,0,0-.61-.22h-.08L61.88,118c-.24.17-.35.09-.24-.19l3.06-7.51a1,1,0,0,0-.15-.91l-2.62-3c-.2-.22-.12-.35.17-.28l4.29,1.06a.74.74,0,0,0,.78-.35Z"/><path class="e" d="M66.39,133.72c.13-.51.32-.5.41,0l2.5,13.4a1.22,1.22,0,0,0,1.12,1l8.39.26c.52,0,.63.31.23.65l-5.69,5a1.79,1.79,0,0,0-.52,1.55L75.43,168c.11.51-.09.61-.43.21l-7.59-8.79a.82.82,0,0,0-1.14-.11l0,0-.09.09-7.9,8.81c-.35.39-.56.29-.48-.23l2.29-14a1.68,1.68,0,0,0-.62-1.49l-5.66-4.11c-.42-.31-.34-.55.18-.54l7.75.13a1.26,1.26,0,0,0,1.19-.9Z"/></svg>
