<svg viewBox="0 0 73 73" width="73px" height="73px" xmlns="http://www.w3.org/2000/svg" xmlns:xlink="http://www.w3.org/1999/xlink"><title>Look Professional</title><defs><path id="a" d="M20.857 62.1H53.03V10.43H20.856z"/></defs><g fill="none" fill-rule="evenodd"><path d="M36.5 73C16.342 73 0 56.658 0 36.5S16.342 0 36.5 0 73 16.342 73 36.5 56.658 73 36.5 73z" fill="#89D194"/><path d="M46.308 11.164V33.37h-18.77V11.165c0-.15-.278-.735-.128-.735h19.066c.15 0-.168.583-.168.734zm.677 37.854c-.583 0-1.1-.238-1.498-.69-.65-.74-.976-2.04-.99-3.972-.01-1.327.133-2.46.14-2.507.056-.45.46-.76.904-.7.45.05.76.46.7.9-.22 1.69-.22 4.43.46 5.2.11.12.19.14.29.14l.17-.07c.28-.31.34-1.21.31-1.62-.03-.45.3-.84.74-.87.45-.04.84.29.87.74.03.31.11 1.94-.73 2.84-.35.38-.82.59-1.35.59m-10.15-.87c.63 1.11-.07 2.61-1.35 3.434-1.87 1.2-4.9.63-5.76-2.766 0 0 2.618 1.55 4.07 0 1.454-1.55 2.43-1.77 3.05-.67" fill="#49AD57"/><path d="M37.048 48.153c-.63 1.11.068 2.61 1.356 3.437 1.87 1.2 4.903.63 5.763-2.764 0 0-2.616 1.55-4.068 0-1.46-1.55-2.43-1.77-3.06-.673M42.13 62.1l-5.374-3.163 5.375-3.165" fill="#49AD57"/><path fill="#49AD57" d="M31.708 62.1l5.375-3.163-5.375-3.165"/><mask id="b" fill="#fff"><use xlink:href="#a"/></mask><path fill="#49AD57" mask="url(#b)" d="M27.537 33.37h18.77v-5.213h-18.77"/><path d="M46.785 35.457H27.237c-3.744 0-6.013-2.444-6.107-2.55-.396-.446-.356-1.1.09-1.495.442-.395 1.122-.363 1.52.078.04.045 1.765 1.88 4.497 1.88h19.548c2.442 0 4.377-1.88 4.396-1.9.42-.425 1.1-.42 1.53-.005.43.417.44 1.048.02 1.474-.1.1-2.55 2.51-5.93 2.51" fill="#49AD57" mask="url(#b)"/><path d="M44.934 41.44c0 1.546-1.255 2.802-2.803 2.802-1.54 0-2.8-1.256-2.8-2.803 0-1.55 1.26-2.81 2.81-2.81s2.81 1.25 2.81 2.8M30.68 31.28c-.577 0-1.044-.47-1.044-1.05v-12.5c0-.575.467-1.042 1.043-1.042.57 0 1.04.467 1.04 1.042v12.515c0 .575-.47 1.043-1.05 1.043m0-15.643c-.58 0-1.05-.467-1.05-1.043V13.56c0-.577.466-1.044 1.042-1.044.574 0 1.04.467 1.04 1.043v1.04c0 .57-.47 1.04-1.045 1.04" fill="#FFF" mask="url(#b)"/><path d="M42.13 38.94c-1.377 0-2.498 1.12-2.498 2.5 0 1.376 1.12 2.497 2.5 2.497 1.377 0 2.498-1.12 2.498-2.498 0-1.38-1.12-2.5-2.5-2.5m0 6.61c-2.267 0-4.113-1.85-4.113-4.12s1.846-4.12 4.114-4.12c2.27 0 4.12 1.84 4.12 4.11 0 2.26-1.84 4.11-4.11 4.11" fill="#49AD57" mask="url(#b)"/></g></svg>
