<svg xmlns="http://www.w3.org/2000/svg" viewBox="0 0 312 298" width="312px" height="298px"><defs><style>.a{fill:#e5f4fe;}.b{fill:#9cdcff;}.c{fill:#359ce4;}.d,.e{fill:none;stroke-miterlimit:10;}.d{stroke:#9cdcff;stroke-width:11.3px;}.e{stroke:#359ce4;stroke-width:0.57px;}.f{fill:#68b5eb;}.g{fill:#f5da66;}.h{fill:#64afe9;}.i{fill:#fff;}.j{fill:#9acdf1;}.k{fill:#cee5f7;}.l{fill:#0d82dc;}.m{fill:#f2cd33;}</style></defs><title>pricing page-01</title><circle class="a" cx="156.95" cy="154.84" r="138.74"/><path class="b" d="M99.83,101.84a5.59,5.59,0,0,1-.87.38,6.53,6.53,0,0,1-1.63.37,8.8,8.8,0,0,1-5-1.32c-.26-.15-.52-.31-.78-.49s-.43-.28-.64-.44a17.25,17.25,0,0,1-4.07-4.28,20,20,0,0,1-2.66-5.59q-.09-.31-.18-.66c-.06-.23-.09-.31-.12-.45-2.3-9.49,3.94-14.1,9.79-14.7A9,9,0,0,1,102,77.9a7.76,7.76,0,0,1,.57.84,4.63,4.63,0,0,1,.31.58c.77,1.63.7,3.63.73,6.16v.58a20,20,0,0,0,.08,2.15C104.22,95.68,102.94,100.19,99.83,101.84Z"/><circle class="c" cx="94.81" cy="86.64" r="0.88"/><circle class="c" cx="100.03" cy="86.22" r="0.88"/><path class="b" d="M95.64,94.84s.43.28,1,.62a7.77,7.77,0,0,0,1,.5,3.62,3.62,0,0,0,.56.17,1.69,1.69,0,0,0,.55,0,1.54,1.54,0,0,0,.52-.09c.16-.06.33-.15.5-.23a4.84,4.84,0,0,1,.46-.33c.13-.14.26-.26.39-.38s.44-.48.6-.62l.25-.24a1.45,1.45,0,0,1-.06.34,3.45,3.45,0,0,1-.27.88c-.08.17-.18.37-.29.56a3.41,3.41,0,0,1-.48.56,3.22,3.22,0,0,1-.7.45,2.62,2.62,0,0,1-.87.2,2.85,2.85,0,0,1-.87-.11,3.24,3.24,0,0,1-.73-.34,3.86,3.86,0,0,1-1-.89A3.79,3.79,0,0,1,95.64,94.84Z"/><path class="c" d="M97.35,91.69c-.06-.09.17-.33.64-.47a2.08,2.08,0,0,0,.59-.21h0v-.07h0a.45.45,0,0,0-.07-.25A5.93,5.93,0,0,1,97.83,89c-.11-.47-.07-.75,0-.78s.27.22.48.57.53.77.92,1.44a1.2,1.2,0,0,1,.12.7v.16h0a1,1,0,0,1-.07.15.78.78,0,0,1-.28.29,1.74,1.74,0,0,1-.9.16C97.66,91.75,97.41,91.79,97.35,91.69Z"/><path class="d" d="M92.81,96.51S89,110.25,82.64,121.18"/><path class="b" d="M92.34,96.51l-1.48,3.84-4.32,11.13-4.52-4c2.15-4.85,3-7.86,3.08-10.8a23.25,23.25,0,0,0-1-6.25l-.18-.66,4.34,3.46Z"/><path class="b" d="M99.83,101.84A8,8,0,0,0,97,103.6c-2,2.53-2.87,8.43-3.57,13.1l-4.73-6.5,4.45-11,5,1.12Z"/><path class="c" d="M100.48,93.19c.13.07.13.46-.21,1a2.46,2.46,0,0,1-2.2,1,3.64,3.64,0,0,1-2.1-.91c-.42-.39-.58-.74-.47-.86.21-.29,1.37.41,2.65.54S100.15,93,100.48,93.19Z"/><path class="c" d="M89.8,85.21a6,6,0,0,0-.17,3l.16,1.23-1.51.29a24,24,0,0,1,0,3.6,4.42,4.42,0,0,1-1.5,2.79,3.16,3.16,0,0,1-1.68.66,23.25,23.25,0,0,0-1-6.25l-.18-.66c-.06-.23-.09-.31-.12-.45-2.3-9.49,3.94-14.1,9.79-14.7A9,9,0,0,1,102,78a7.76,7.76,0,0,1,.57.84s-.82.81-4.87,1.1a34.24,34.24,0,0,1-9.13-1C89.3,79.65,90.51,83.1,89.8,85.21Z"/><path class="b" d="M89.42,89.87a2.14,2.14,0,0,1-.75,2.92l-.15.08c-.65.38-1.88-.52-2.73-2S84.9,88,85.43,87.5C86.65,86.19,88.57,88.38,89.42,89.87Z"/><circle class="e" cx="94.8" cy="86.65" r="2.4"/><circle class="e" cx="100.02" cy="86.23" r="2.4"/><line class="e" x1="88.1" y1="87.23" x2="92.34" y2="86.9"/><path class="f" d="M103.63,86.05l-1.1.08v-.57l1.13-.09A2.28,2.28,0,0,0,103.63,86.05Z"/><path class="b" d="M127,111.3a5.47,5.47,0,0,0-5.27,4h0v.23a5.07,5.07,0,0,0-.17,1.29v.11c-.15,3,.85,5-.19,8.52-.41,1.24-.87,2.59-1.38,4-.64,1.82-1.39,3.77-2.25,5.77a63.86,63.86,0,0,1-2.92,6,26.72,26.72,0,0,1-1.76,2.71,9.29,9.29,0,0,1-1.81,2,1.94,1.94,0,0,1-.51.33h-.1c-.09,0-.28-.18-.52-.34a14.07,14.07,0,0,1-1.92-1.86,32.56,32.56,0,0,1-2-2.67,62.81,62.81,0,0,1-3.59-6.07c-.52-1-1-1.93-1.51-2.89L93.44,142a68.58,68.58,0,0,0,4,5.72,29.05,29.05,0,0,0,7.06,6.8,13.13,13.13,0,0,0,3,1.39,9.09,9.09,0,0,0,2,.4l.5.06h1.59l.63-.11a10.86,10.86,0,0,0,1.25-.31,7.09,7.09,0,0,0,1-.38l.82-.42a12.69,12.69,0,0,0,2.53-1.9,19.63,19.63,0,0,0,3.15-4,32.79,32.79,0,0,0,2-3.86,60.34,60.34,0,0,0,2.63-7.25c.68-2.31,1.23-4.47,1.68-6.47.52-2.23.9-4.25,1.2-6,1-3.2,2.5-3.82,3.53-6.45a5.47,5.47,0,0,0-5-7.82Zm-16.44,35h0Zm.21-.07ZM98.12,205.61c-1-4.1-2.09-8-3.28-11.77-2.37-7.49-5-14.27-7.3-20-.14-.33-.27-.63-.4-1a61.28,61.28,0,0,1-2.68-10.16,18.46,18.46,0,0,1-.23-3.48,10.27,10.27,0,0,1,.14-1.37c-7.54-.33-17-2.85-21.92-4.33-.45,1.44-.86,2.87-1.21,4.31-.19.75-.36,1.49-.51,2.24s-.29,1.4-.41,2.17a79.81,79.81,0,0,0-.14,17.48c.58,6.81,1.7,14.49,3,22.54.64,4,1.31,8.12,2,12.32s1.23,8.33,1.59,12.31c.08,1,.15,1.92.18,2.84l-.53-.62a84.55,84.55,0,0,1-6.26-9c-1.91-3-3.64-6-5.22-8.83-3.16-5.57-5.71-10.35-7.58-13.68-.07-.12-.12-.24-.19-.35l-5.82,6.58c1.2,3.23,2.72,7.25,4.62,11.84,1.29,3.06,2.75,6.36,4.44,9.84a93.08,93.08,0,0,0,6.23,10.89,34,34,0,0,0,5,5.79,15.08,15.08,0,0,0,4.59,2.86,10.35,10.35,0,0,0,3.89.7h.65a5.07,5.07,0,0,0,.77-.1l.7-.14h.39l.53-.16h.06l.34-.14a7.94,7.94,0,0,0,1.31-.64,9.87,9.87,0,0,0,3.37-3.6,13,13,0,0,0,1.3-2.93,23.1,23.1,0,0,0,.9-4.51,58.06,58.06,0,0,0,.23-7.46c-.14-4.68-.57-9.12-1-13.45-.39-3.46-.77-6.83-1.16-10.1h.08c-.1-.87-.21-1.76-.33-2.68q-.35-2.7-.73-5.37c-.36-3.06-.69-6-1-8.79,1.7,3.89,3.42,8.11,5.06,12.57,1.25,3.44,2.45,7,3.47,10.61a74.84,74.84,0,0,1,2.27,10.78c.1.88.17,1.72.23,2.59l.15,3c.09,2,.14,3.91.19,5.86.09,3.92.14,7.8.14,11.55,0,7.53-.1,14.57-.23,20.61-.06,2.47-.11,4.78-.18,6.88l10.66-2.41c.09-1.27.18-2.6.28-4,.43-6.08.89-13.19,1.25-20.83.19-3.82.34-7.79.44-11.83,0-2,.09-4.15.1-6.16v-3c0-1.15-.06-2.34-.15-3.47A85.83,85.83,0,0,0,98.12,205.61Zm-27.86,27.2a.71.71,0,0,1,.28.09C70.63,233,70.48,232.93,70.26,232.81Zm23.4-117.28-.29-.73-1.28-3.25-5.94,2.21a6.7,6.7,0,0,0,2.16,1.4A8.9,8.9,0,0,0,93.66,115.53Zm-7.72-7.62a32.77,32.77,0,0,1-3.46-1.51l-.43-.21a21.4,21.4,0,0,0,2.35,5.42Zm-38.47-27,.08.79.14,1.18a9.91,9.91,0,0,0,.24,1.41l.29,1.49c.25.89.45,1.81.76,2.68A39.06,39.06,0,0,0,53.69,98a52.51,52.51,0,0,0,6.15,7.4c1,1,2,1.92,3,2.79l8-8.87a44,44,0,0,1-8.08-7.82A27.82,27.82,0,0,1,58.92,85c-.26-.59-.42-1.2-.64-1.8l-.23-.8c-.09-.3-.17-.6-.23-.9l-.2-1.18L57.56,80v-.15h0v-.42a19,19,0,0,1-.17-2A47.45,47.45,0,0,1,60,60.81,99.12,99.12,0,0,1,66.11,46.5c1.39-2.68,2.71-5,3.86-7,1.86-2.23,3.64-2.44,5.36-4.32a5.49,5.49,0,1,0-9-5.84c-1,2.1-1,4.06-2.73,7-1.25,1.84-2.66,4-4.15,6.46a106.66,106.66,0,0,0-7.61,15,56.58,56.58,0,0,0-4.47,19.68v2.73Z"/><path class="g" d="M101.09,132.33,93.44,142c-.25-.38-.47-.77-.71-1.14-.81-1.33-1.56-2.66-2.27-3.94-2.34,6.61-5.37,15.8-6.08,20.91-7.54-.33-17-2.85-21.92-4.33,2.18-7,5.31-13.92,7.38-20.67a103.59,103.59,0,0,0,3.59-16.78,83.33,83.33,0,0,1-7.3-5.07c-1.08-.86-2.2-1.79-3.33-2.79l8-8.87c.86.66,1.71,1.27,2.53,1.83a68.14,68.14,0,0,0,8.69,5,21.4,21.4,0,0,0,2.35,5.42,10.58,10.58,0,0,0,1.74,2.15,6.7,6.7,0,0,0,2.16,1.4,8.94,8.94,0,0,0,5.36.37c.36.89.78,1.92,1.23,3.05L97,123.45C98.12,126.16,99.5,129.2,101.09,132.33Z"/><path class="f" d="M100.35,222v3c0,2-.06,4.14-.1,6.16-.1,4-.25,8-.44,11.83-.36,7.64-.82,14.75-1.25,20.83-.11,1.59-.23,3.12-.33,4.55l-10.62,2.26c.07-2.21.14-4.67.19-7.31.12-6,.24-13.09.23-20.61,0-3.75,0-7.63-.14-11.55-.06-2-.1-3.85-.19-5.86l-.15-3c-.06-.87-.12-1.71-.23-2.59A73.91,73.91,0,0,0,85.05,209c-1-3.62-2.21-7.18-3.47-10.61-1.64-4.45-3.37-8.68-5.06-12.57.28,2.78.61,5.73,1,8.79.26,1.77.51,3.57.73,5.37.11.92.23,1.81.33,2.68H78.5q.59,4.92,1.16,10.1c.46,4.33.89,8.77,1,13.45a58.06,58.06,0,0,1-.23,7.46,23.1,23.1,0,0,1-.9,4.51,13,13,0,0,1-1.3,2.93,9.91,9.91,0,0,1-3.34,3.41,7.94,7.94,0,0,1-1.31.64l-.34.14h-.06l-.53.16h-.39l-.7.14a6.76,6.76,0,0,0-.77.1h-.65a10.35,10.35,0,0,1-3.89-.7,15.08,15.08,0,0,1-4.59-2.86,34,34,0,0,1-5-5.79,93.08,93.08,0,0,1-6.23-10.89c-1.7-3.48-3.15-6.78-4.44-9.84-2-4.87-3.62-9.11-4.84-12.43l5.76-6.47.46.84c1.88,3.33,4.42,8.11,7.58,13.68,1.58,2.79,3.31,5.79,5.22,8.83a84.55,84.55,0,0,0,6.26,9l.53.62c0-.92-.1-1.88-.18-2.84-.36-4-1-8.17-1.59-12.31l-2-12.32c-1.31-8.06-2.43-15.73-3-22.54a79.81,79.81,0,0,1,.14-17.48c.11-.77.25-1.48.41-2.17s.32-1.49.51-2.24c.35-1.44.76-2.87,1.21-4.31,5,1.48,14.39,4,21.92,4.33-.07.5-.11.95-.14,1.37a18.46,18.46,0,0,0,.23,3.48,61.28,61.28,0,0,0,2.68,10.16c.12.32.26.62.4,1,2.33,5.75,4.93,12.53,7.3,20,1.19,3.74,2.32,7.67,3.28,11.77a84.48,84.48,0,0,1,2.09,12.94C100.3,219.68,100.33,220.86,100.35,222Z"/><path class="g" d="M47.18,197.27l-5.82,6.58c-.07-.2-.15-.4-.21-.59q-.48-1.29-.87-2.4l-.79-2.12c-.61-1.36-1.21-2.71-1.78-4.07v.06c-1.25,1.67-2.49,3.36-3.79,5-2.55,3.31-5.12,6.61-7.77,9.85a1.52,1.52,0,0,1-2.53-1.66c1.92-3.73,3.94-7.39,6-11,1-1.84,2.07-3.64,3.1-5.46l3-5.41,1-1.72a2.27,2.27,0,0,1,3.09-.83,2.35,2.35,0,0,1,.91,1l1,2.07c1,2.12,2,4.26,2.93,6.42l.49.78c.46.77,1.07,1.81,1.8,3.1Z"/><path class="g" d="M112.69,278.47,93.1,293.6l-3.38,2.62a1.77,1.77,0,0,1-2.48-.3,1.74,1.74,0,0,1-.38-1.16L87,290.2l.28-10.62a3.49,3.49,0,0,1,.1-.79V278c.07-2,.15-4.44.23-7.29v-.43l10.66-2.41v.58c-.32,4.07-.6,7.51-.81,10.14-.14,1.6-.25,2.88-.33,3.82L110.41,275a2.08,2.08,0,0,1,2.28,3.46Z"/><path class="h" d="M167.57,231a4.35,4.35,0,0,0-3.35,1.57,29.6,29.6,0,0,1-8.39,6.79,13.4,13.4,0,0,1-.09,8.49,21.89,21.89,0,0,0,4.88-1.94L158,257.58a4.31,4.31,0,0,0,3.24,5.16h0a4.31,4.31,0,0,0,5.17-3.24l5.3-23.26a4.3,4.3,0,0,0-3.21-5.17,4.6,4.6,0,0,0-1-.11"/><path class="h" d="M204.74,213.79a4.32,4.32,0,0,0-3.79,2.27c-1.75,3.24-3.33,5.83-4.73,7.91,3.23,2.12,4.17,4,4.54,6.37l.07.45s.61-.79.91-1.21l1.95,16.12a4.32,4.32,0,0,0,4.28,3.83h.53a4.32,4.32,0,0,0,3.78-4.8h0L209,217.6a4.32,4.32,0,0,0-3.49-3.73,4.45,4.45,0,0,0-.81-.08"/><path class="b" d="M169.48,61a9.5,9.5,0,0,0-6.77-4.29c-5-.89-11.46,3.17-12,10.34-.62,9.07-.48,14.62,3.25,16.49,1.75.89.78,5.38.58,7.35-.27,2.63-1.07,6.81-1.21,7.8a13.31,13.31,0,0,0,4.47,1.08c2.34-.06,9.09-2.59,9.09-2.59-.38-8.76-.62-14.84.6-16.87,2-3.25,3.53-5.51,3.87-9a5.6,5.6,0,0,1,.06-1c.11-3.78-.5-7-2-9.32"/><circle class="c" cx="155.79" cy="67.8" r="1.18" transform="translate(83.18 221.41) rotate(-88.22)"/><circle class="c" cx="161.04" cy="67.42" r="1.18"/><path class="c" d="M158.17,69.39a.48.48,0,0,1,.13.23,1.46,1.46,0,0,1,0,.72,2.84,2.84,0,0,1-.4.91,4.48,4.48,0,0,1-.32.44c-.11.14-.26.29-.36.4l-.08.09h0c0-.06,0,.06.16.11a2.78,2.78,0,0,0,.4.16l.4.12.87.25a3.2,3.2,0,0,1-1,.18,3.53,3.53,0,0,1-.46,0,2.35,2.35,0,0,1-.53-.09,1.23,1.23,0,0,1-.31-.14.68.68,0,0,1-.31-.38.72.72,0,0,1,.06-.54l.12-.18.09-.11.37-.38.33-.36.15-.18.14-.17.23-.32a2.75,2.75,0,0,0,.17-.29,1.06,1.06,0,0,0,.09-.25A.83.83,0,0,0,158.17,69.39Z"/><path class="c" d="M171.46,70.31a5.38,5.38,0,0,1-.06,1,6.22,6.22,0,0,0-2.44.6,5.94,5.94,0,0,0-.83.67,54,54,0,0,1,.22-11.15,2.57,2.57,0,0,1,1.13-.47c1.49,2.36,2.1,5.54,2,9.32"/><path class="f" d="M163.15,54.9a10.42,10.42,0,0,0-4.38,1.35c3.71,2.79,6.89,5.64,7.55,6.23,5.11,3.5,5.14,7.83,5.14,7.83a10.08,10.08,0,0,0,1.28-5.15V64.5c-.19-3.62-5.52-8.75-8.75-9.51a3.75,3.75,0,0,0-.82-.09"/><path class="c" d="M147.43,50.34a2.5,2.5,0,0,0-1.54.46,2.37,2.37,0,0,0-1,2c0,3.72,7.27,9.28,7.27,9.28a9.53,9.53,0,0,1,6-2.06,16.32,16.32,0,0,1,8.23,2.63l-.12-.11c-.66-.59-3.83-3.44-7.55-6.23-4-3-8.57-5.91-11.34-5.91"/><path class="b" d="M173.09,71.73c.6,1-.27,2.73-2,3.85s-3.54,1.21-4.14.21.27-2.73,2-3.85S172.49,70.72,173.09,71.73Z"/><path class="c" d="M160.78,74.57c.12.12,0,.5-.48,1a3.67,3.67,0,0,1-2.42,1.17,3.21,3.21,0,0,1-1.55-.36,3.28,3.28,0,0,1-.94-.8c-.42-.55-.49-1-.34-1.08s.46.14.94.43a3.32,3.32,0,0,0,1.84.56C159.3,75.37,160.52,74.26,160.78,74.57Z"/><path class="c" d="M157.29,65.29c-.06.1-.34,0-.74-.09a2.42,2.42,0,0,0-1.46,0c-1.07.35-1.66,1.39-1.85,1.26s-.07-.35.15-.78a2.56,2.56,0,0,1,1.47-1.23,2.23,2.23,0,0,1,1.91.28C157.17,65,157.34,65.21,157.29,65.29Z"/><path class="c" d="M163.78,66.42c-.19.11-.8-1-2-1.43a2.57,2.57,0,0,0-1.6,0c-.43.13-.71.25-.78.17s.1-.37.55-.66a2.38,2.38,0,0,1,2.09-.26,3,3,0,0,1,1.59,1.32C163.85,66,163.88,66.38,163.78,66.42Z"/><path class="b" d="M199,61.84c0,.82-.07,1.66-.09,2.5l-.06,1.25-.09,1.16-.18,2.33-.06.58v.72l-.2,1.37a40.56,40.56,0,0,1-3.13,10.44A49.13,49.13,0,0,1,190,91.13c-.72,1-1.46,1.92-2.2,2.83a71.85,71.85,0,0,1-10.11,10c-2,1.6-3.84,3-5.54,4.17-.76,6.25-1.63,14.74-2.19,24.51-.25,4.21-.33,8.57-.28,12.86v2.07c0,1.38,0,2.75.1,4.1.43,13.32,1.76,25.06,2.24,28.89h0c.5,3,1.06,6.17,1.7,9.33.45,2.28.92,4.59,1.41,6.89.23,1.06.46,2.12.71,3.18.36,1.7.79,3.34,1.2,5s.86,3.34,1.29,5c.88,3.28,1.81,6.43,2.78,9.32a40.25,40.25,0,0,0,3.23,7.44,9.93,9.93,0,0,0,1.56,2.08,4.29,4.29,0,0,0,.77.64,1.76,1.76,0,0,0,1.24,0,9.36,9.36,0,0,0,2-.94,20.54,20.54,0,0,0,2.51-1.85c2.31,1.2,4.88,3.72,4.37,8.93-.28.27-.57.54-.88.81A18.32,18.32,0,0,1,192,239a12.45,12.45,0,0,1-13-.92,20.63,20.63,0,0,1-4.5-4.35,47.19,47.19,0,0,1-5.53-9.56c-1.5-3.28-2.76-6.64-4-10-.59-1.69-1.18-3.38-1.77-5.09s-1.15-3.46-1.68-5.21c-.27-.87-.54-1.75-.8-2.62q-1.2-3.92-2.23-7.82c-.88-3.32-1.68-6.61-2.42-9.81-.44,1.72-.92,3.46-1.41,5.23-.9,3.28-1.9,6.63-2.93,10q-.37,1.29-.78,2.58c-.77,2.54-1.58,5.1-2.4,7.65-1.07,3.37-2.16,6.72-3.22,10-.57,1.82-.9,2.95-1.27,4.5a37.85,37.85,0,0,0-.76,4.23,19,19,0,0,0,.19,7,5.36,5.36,0,0,0,2.09,3.41,8.2,8.2,0,0,0,4.28,1.06H151a16.28,16.28,0,0,1,.59,9.9l-.78.15a19.12,19.12,0,0,1-4.53.24,16.79,16.79,0,0,1-5.46-1.22,15.64,15.64,0,0,1-5.35-3.74,18.4,18.4,0,0,1-3.53-5.58A30.69,30.69,0,0,1,130,227a49.82,49.82,0,0,1,.5-5.85c.25-1.84.71-4.11,1.06-5.67.84-3.45,1.67-6.95,2.52-10.45.6-2.46,1.19-4.94,1.79-7.38.23-1,.46-1.94.7-2.9.78-3.38,1.56-6.7,2.31-9.91s1.4-6.31,2-9.22a.49.49,0,0,0,0-.17,240.29,240.29,0,0,0,2.89-24.37q.42-5.27.86-11.39c.85-11.87,1.92-22.43,2.77-30-1-.82-2-1.81-3.22-2.88-1.56-1.44-3.3-3.06-5.18-4.88q-2.15-2.08-4.5-4.47C132,94.9,129.3,92,126.64,88.9c-1.06-1.28-2.17-2.57-3.21-4-.53-.69-1.07-1.38-1.6-2.08l-1.55-2.23-.77-1.12c-.26-.37-.53-.85-.79-1.27-.51-.87-1-1.74-1.55-2.61a18.54,18.54,0,0,1-1.12-2.31l-.27-.58-.14-.28-.2-.43-.08-.21-.59-1.64a32.31,32.31,0,0,1-1-12.14,68.19,68.19,0,0,1,1.84-10.43,121.67,121.67,0,0,1,5.81-17c2-4.8,3.85-8.69,5.2-11.39a1.09,1.09,0,0,1,.08-.15l2-11.5a.92.92,0,0,1,1-.76.91.91,0,0,1,.75,1l-.85,7.11,3.05-11.51a1,1,0,0,1,1.22-.72l.09,0a1,1,0,0,1,.72,1.14L132.42,15l4.16-12.6a1,1,0,1,1,2,.61L134.9,15.33H135l4.17-9.59a.94.94,0,0,1,1.2-.53.91.91,0,0,1,.54,1.15L136.68,19l3.45-1.5a1.7,1.7,0,0,1,1.36,3.11L133,24.24c-.95,2.5-2.1,5.68-3.28,9.38a131.36,131.36,0,0,0-4.09,16.13,57.48,57.48,0,0,0-.9,8.88,21.15,21.15,0,0,0,1.13,7.81c.1.21.2.43.29.64h0l.15.27.32.55c.42.71.84,1.5,1.24,2.16L129,71.7c.2.28.35.53.59.82l.71.89,1.4,1.77,1.51,1.73c1,1.14,2.06,2.24,3.09,3.32,1.77,1.83,3.56,3.57,5.31,5.22,2.4,2.24,4.73,4.28,6.89,6.12,1.28,1.08,2.5,2.1,3.64,3l1.54,1.24,2.17,1.73.52.42h0l.6-.24c.57-.23,1.54.66,2.64.15A41.46,41.46,0,0,0,164.84,95c.6-.4-.18,1.44.5,1,.33-.24.69-.46,1-.71,11.48-8.33,16.1-14.17,18.39-22.23l.25-.93v-.21h0v-.25l.11-.58.43-2.29.21-1.14.15-1,.31-2.1c.37-2.83.62-5.75.77-8.54s.18-5.54.15-8.14-.14-5.06-.28-7.33-.34-4.36-.53-6.2-.41-3.45-.59-4.77-.35-2.34-.47-3c-.07-.36-2.66-12.9-2.68-13.07l9.22-1.64c0,.19,2.64,12.68,2.7,12.89.34,1.36.73,3,1.15,4.92s.82,4.06,1.24,6.43.79,4.94,1.12,7.68.6,5.65.77,8.69S199.11,58.56,199,61.84Z"/><path class="g" d="M176.92,196.67l-16.17,4.6q-1.2-3.92-2.23-7.82c-.88-3.32-1.68-6.61-2.42-9.81-.44,1.72-.92,3.46-1.41,5.23-.9,3.28-1.9,6.63-2.93,10q-.37,1.29-.78,2.58l-17.63-4.88c.23-1,.46-1.94.7-2.9.78-3.38,1.56-6.7,2.31-9.91.67-3,5.27-21.49,7.11-30.69l26.32.42c.76,13.38,5.11,33.25,5.72,36.27C176,192.06,176.42,194.37,176.92,196.67Z"/><path class="f" d="M187.7,94a71.85,71.85,0,0,1-10.11,10,39.29,39.29,0,0,1-3.42,2.76c-.76,6.25-1.63,14.74-2.19,24.51-.25,4.21-.33,8.57-.28,12.86v2.07c0,1.38,0,2.75.1,4.1l-29.48-.44q.42-5.27.86-11.39c.85-11.87,1.79-21.81,2.64-29.38-1-.82-.54-.54-1.71-1.61-1.56-1.44-3.3-3.06-5.18-4.88q-2.15-2.09-4.5-4.47l8.14-12.9c2.4,2.24,10.58,7.54,11.72,8.48.2,1.08.49,5.15,4.37,5.5s7.7-5,7.7-5,8-5.68,11.28-9.13c.2-.2.4-.41.59-.62,0,0,.44-.57.48-.61Z"/><path class="i" d="M203.26,227.3s-.25.41-.72,1.15-1.19,1.85-2.25,3.21l-.8,1c-.29.37-.63.76-1,1.15a24.2,24.2,0,0,1-1.75,1.81c.51-5.21-2.07-7.73-4.37-8.93q.63-.54,1.17-1.05l.17-.16.82-.81c.55-.54,1-1,1.34-1.37l.82-.88.08-.09a4.1,4.1,0,0,1,6.46,5Z"/><path class="i" d="M162.13,245.15l-1.23.68a34.64,34.64,0,0,1-3.65,1.71c-.84.33-1.79.69-2.86,1-.4.12-.81.24-1.24.35s-1,.24-1.51.34a16.28,16.28,0,0,0-.59-9.9,17.2,17.2,0,0,0,1.76-.18L154,239l.54-.11c.67-.14,1.27-.29,1.8-.44s1-.25,1.34-.36l1.13-.34.23-.08a4.1,4.1,0,0,1,3.14,7.51Z"/><path class="j" d="M91.43,42.16a3.18,3.18,0,0,1-.06.43l-12-1.17a3.23,3.23,0,0,1,0-.44c.32-3.33,3.72-10.32,7.07-10S91.76,38.83,91.43,42.16Z"/><path class="j" d="M59.5,39.06a3.18,3.18,0,0,1-.06.43l-12-1.17a3.23,3.23,0,0,1,0-.44c.32-3.33,3.72-10.32,7.07-10S59.82,35.73,59.5,39.06Z"/><path class="j" d="M54.57,33.37A2.73,2.73,0,0,1,55.42,28l31.06,3A2.73,2.73,0,0,1,86,36.43l-31.06-3Z"/><path class="c" d="M228,95.35s-6.51-9.16-.76-15.08c3.52-3.63,12-4,15.67,2.53s3.88,15,16.85,25.44-9.1,19.55-16.68,17.69-8.42-35.16-12.46-37.38-2.49,4.78-2.49,4.78Z"/><path class="k" d="M240.33,111.09l-1.05.2a2.57,2.57,0,0,0-.78-.57A3.86,3.86,0,0,1,240.33,111.09Z"/><path class="k" d="M241.12,111.56a3.47,3.47,0,0,0-.79-.46l.7-.15Z"/><path class="l" d="M255.9,214.06l-.06.47c-.13,1-.23,1.85-.31,2.65l-.22-1.86c.19-.37.36-.76.55-1.14A.56.56,0,0,0,255.9,214.06Z"/><path class="m" d="M258.85,99.09l5.85,9.39a46.31,46.31,0,0,1-5.07,3.74,60.06,60.06,0,0,1-6,3.4c-.88.44-1.72.85-2.54,1.22,1,5.64,2,12.15,3,17.75h0c1.19,4.74,2.69,9.78,4.06,14.71a34,34,0,0,1-19.44,5.26c-1.86-7.53-5-12.33-6-17-1.11-5.22-.73-7.17-1-12-1,.67-2.17,1.39-3.4,2.11-1.71,1-3.61,2.09-5.66,3.17-1.17.63-2.42,1.24-3.72,1.84l-2.46-10.94,1.07-.57c1.87-1,3.62-2,5.26-2.92,3.26-1.86,6-3.49,7.84-4.6.32-.19,1-.51,1.88-.9,2.93-1.29,8.32-3.46,12.19-5.12,1.65-.71,3-1.32,3.82-1.75,1.61-.86,3.3-1.85,5-2.93a45.06,45.06,0,0,0,5-3.69Z"/><path class="c" d="M276.85,186.2c-.39,1.43-.79,2.84-1.19,4.24-.79,2.79-1.65,5.56-2.5,8.34q-2.57,8.33-5.64,16.59c-1,2.78-2.17,5.53-3.46,8.33-.64,1.39-1.34,2.8-2.16,4.25-.42.75-.86,1.48-1.4,2.28a16,16,0,0,1-2.27,2.66,8.79,8.79,0,0,1-2.84,1.76,8.18,8.18,0,0,1-1.9.43h-1.58l-.66-.11a7.49,7.49,0,0,1-1.22-.38,8.3,8.3,0,0,1-2-1.2,8.54,8.54,0,0,1-1.27-1.28,11.38,11.38,0,0,1-1.36-2.18,17.23,17.23,0,0,1-1.1-3.22c-.23-1-.38-1.83-.52-2.68a52,52,0,0,1-.6-9.49c.36-9.47,3.44-29.49,3.77-32.22-.45.81-5.8,12.79-7,15-2.36,4.34-4.69,8.62-6.63,13-1,2.18-1.9,4.32-2.66,6.45A37.8,37.8,0,0,0,229,223a15.17,15.17,0,0,0-.21,2.69v1.08c.08.49.14,1,.24,1.49a56.29,56.29,0,0,0,1.76,6.63c.73,2.27,1.59,4.55,2.44,6.85s1.77,4.59,2.72,6.88,2,4.58,3,6.87,2,4.57,3,6.85l.68,1.47a23.08,23.08,0,0,1-7.47,3.77c-.27-.43-.53-.86-.78-1.3q-1.95-3.28-3.83-6.63c-1.28-2.21-2.47-4.49-3.67-6.76a154.41,154.41,0,0,1-6.67-14.14,70.38,70.38,0,0,1-2.69-7.84c-.19-.71-.34-1.46-.51-2.2l-.21-1.4-.09-.69v-.47a23.42,23.42,0,0,1,.12-4.88,46.59,46.59,0,0,1,1.88-8.5,71.71,71.71,0,0,1,2.8-7.67,156.4,156.4,0,0,1,6.89-14.14c1.23-2.26,2.49-4.5,3.72-6.69s2.55-4.4,3.5-6.28c.62-1.22,1.2-2.46,1.71-3.73,1.67-4.52,2.9-9,2.26-14.65-.11-.95-.62-4-.77-5h1.11a35.09,35.09,0,0,0,18.31-5.29c1.65,6,3.58,14,3.89,18.86.69,11.3-4.51,34-6.19,45.91h0l1.36-2.93c2.33-5.1,4.46-10.37,6.62-15.65l3.16-8,1.92-4.95A15,15,0,0,1,276.85,186.2Z"/><path class="f" d="M289.54,185.49a1.93,1.93,0,0,1,0,.34,1.27,1.27,0,0,1-.06.28,1.88,1.88,0,0,1-.25.56.66.66,0,0,1-.12.17c0,.06-.1.12-.15.18l-.17.16h0a2.1,2.1,0,0,1-.7.39,2.22,2.22,0,0,1-2.73-1.22l-1.11-2.63L280.09,174l-2,8.26c-.27,1-.94,3-1.23,4a16.94,16.94,0,0,0-7.88-3.67l1.21-3.11,6.21-16,.09-.25a3,3,0,0,1,3.14-2h0a2.32,2.32,0,0,1,.68.16,3,3,0,0,1,1.82,1.85l6.43,18.93.88,2.6A2,2,0,0,1,289.54,185.49Z"/><path class="j" d="M274.49,89.64v.68a18.65,18.65,0,0,1-.75,5.3,20,20,0,0,1-.89,2.45c-.17.38-.34.79-.53,1.16l-.6,1.09a29.79,29.79,0,0,1-5.78,7.07l-1.26,1.11-5.87-9.41a30.54,30.54,0,0,0,3.79-4.24,9.65,9.65,0,0,0,1.73-4.76v-.37l-.06-.91-.13-2c-.07-.57-.19-1-.27-1.45l-.12-.7-.06-.35-.12-.4a39.27,39.27,0,0,0-2.28-6.31c-.23-.51-.47-1-.7-1.52l-.79-1.48L259,73.15l-.82-1.4c-.53-.92-1.09-1.8-1.66-2.64s-1.08-1.68-1.63-2.46-1.06-1.52-1.58-2.22h0c-1.81-2.09-3.4-2.44-5.4-3.37l-.43-.21a1.67,1.67,0,0,1-.28-.18,5,5,0,0,1-2.37-4.27,5.05,5.05,0,0,1,9.1-3,.22.22,0,0,1,.05.08l.21.31.23.4c1,1.89,1.45,4.05,4,6.59h0c.54.51,1.09,1,1.65,1.63a58,58,0,0,1,4.46,4.94l1.14,1.41,1.11,1.52c.37.51.74,1,1.1,1.57l1,1.69a41.08,41.08,0,0,1,3.71,7.56A44.24,44.24,0,0,1,274,85.75l.31,1.94.15,1v1Z"/><path class="j" d="M242,111.08l1.19,2.38L236,115.94l-2.18-3s1.33-9.54-2.53-11.82c-2.47-1.46-3.13-3.59-4.17-9s-.86-9.15.7-11.5c1.26-1.89,3-1.39,5.69-1.52,5.31-.24,9.24,3.16,8.66,13.29a6.55,6.55,0,0,1-.11.7,18.27,18.27,0,0,1-.78,1.75c-.71,7.13,3.28,15.56,3.28,15.56Z"/><circle class="c" cx="235.22" cy="88.9" r="1.09"/><circle class="c" cx="230.38" cy="89.36" r="1.09"/><path class="c" d="M236.25,94.59c.16.1.12.49-.16,1a3.05,3.05,0,0,1-2,1.54,2.8,2.8,0,0,1-2.47-.71c-.45-.45-.58-.85-.43-1s.48,0,1,.15a3.31,3.31,0,0,0,1.65.18C235,95.53,235.91,94.33,236.25,94.59Z"/><path class="c" d="M233.77,94.06c0,.08-.27.12-.67.12a1.83,1.83,0,0,1-.76-.17.82.82,0,0,1-.44-.42,1,1,0,0,1,0-.58,8.33,8.33,0,0,1,.34-.82,4.57,4.57,0,0,0,.22-.62c.1-.36.16-.62.24-.61s.16.24.15.67a3,3,0,0,1-.12.73c-.08.27-.22.55-.28.78a.71.71,0,0,0,0,.29.64.64,0,0,0,.15.13,2.42,2.42,0,0,0,.58.23C233.55,93.89,233.78,94,233.77,94.06Z"/><path class="j" d="M219,132.67c-.66.3-2.29,1-3,1.33a38.49,38.49,0,0,1-8.2,2.51,15.34,15.34,0,0,1-5.81,0l-.44-.1-.23-.06-.35-.11h-.12l-.22-.09-.32-.13-.42-.21a7,7,0,0,1-.75-.44c-.18-.12-.35-.26-.53-.39a9,9,0,0,1-.9-.85,9.8,9.8,0,0,1-1.9-3.26,19.15,19.15,0,0,1-1-5.08,34.91,34.91,0,0,1,0-4.34c.16-2.77.51-5.37.9-7.86s.9-4.83,1.4-7c.39-1.8.84-3.51,1.26-5.1h0c1.09-4,1.69-7.79.93-10.48h0a4.87,4.87,0,0,1-.18-1.31A5.05,5.05,0,1,1,208,93c-1.27,1.39-2.68,5.35-3.24,9.7-.16,1.57-.29,3.24-.43,5-.18,2.16-.31,4.45-.4,6.78a68.1,68.1,0,0,0,0,7c.07,1.15.16,2.28.32,3.33.1.66.5,2,.41,1.78a8,8,0,0,0,1.19-.21,37.93,37.93,0,0,0,5.92-2.2c1.31-.59,3.56-1.68,4.81-2.33Z"/><path class="l" d="M247.56,60.88l-.31-.15h0A1.77,1.77,0,0,0,247.56,60.88Z"/><ellipse class="c" cx="233.73" cy="93.34" rx="0.38" ry="0.21" transform="translate(-12.16 39.69) rotate(-9.46)"/><path class="c" d="M231.35,86.59c0,.09-.31,0-.7,0a2.29,2.29,0,0,0-1.37.1c-1,.45-1.36,1.51-1.55,1.42s-.1-.32.05-.74A2.32,2.32,0,0,1,229,86a2.09,2.09,0,0,1,1.81.07C231.2,86.3,231.39,86.51,231.35,86.59Z"/><path class="c" d="M233.26,86.24c-.06-.06,0-.3.32-.61a2.17,2.17,0,0,1,3.09-.09c.3.3.4.56.33.61a4.85,4.85,0,0,0-1.87-.52C234.13,85.66,233.41,86.42,233.26,86.24Z"/><path class="c" d="M227.22,80.82A3.66,3.66,0,0,0,230,84.36c2.78.85,9.23-3,12.38,2.53,0,0-.74-8.72-8.09-8.72C229,78.16,227.22,80.82,227.22,80.82Z"/><path class="c" d="M238.34,82.78a8.36,8.36,0,0,0,.32,4c.9,3.35,2.59,4.23,4.11,13,.58,3.38,5,.58,4.55-3s-3.1-8.21-3.1-8.21l-4.11-6.76Z"/><path class="j" d="M240,122.73c-5.35,1.67-6.93-5.56-7.39-10,2.93-1.29,8.32-3.46,12.19-5.12l.59-.24S247.61,120.37,240,122.73Z"/><path class="f" d="M248.25,277.26h0a3.34,3.34,0,0,1-1.76,2.22l-.22.1L237.5,283c-1.34.52-2.67,1-4,1.52-1.6.61-3.2,1.2-4.81,1.79a1.91,1.91,0,0,1-1.06.06l-.19-.06a1.27,1.27,0,0,1-.37-.18.71.71,0,0,1-.14-.1,1.54,1.54,0,0,1-.19-.17,1.07,1.07,0,0,1-.14-.16h0a1.79,1.79,0,0,1,.23-2.52,1.31,1.31,0,0,1,.27-.19l3.84-2.28h0l4.26-2.49h0l4.85-2.77c-.78-1.22-1.54-2.43-2.31-3.65-.9-1.44-1.79-2.88-2.66-4.34a24.54,24.54,0,0,0,7.44-3.82l2,4.39c.89,2,1.85,3.9,2.79,5.81.15.33.31.65.47,1l.2.44A3,3,0,0,1,248.25,277.26Z"/><path class="f" d="M271.68,58.11a2.63,2.63,0,0,1,.06.39l-10.6,2.23c0-.12-.07-.25-.1-.38-.62-2.93.41-9.81,3.36-10.43S271.07,55.18,271.68,58.11Z"/><path class="f" d="M243.59,64a2.63,2.63,0,0,1,.06.39l-10.6,2.23c0-.12-.07-.25-.1-.38-.62-2.93.41-9.81,3.36-10.43S243,61.09,243.59,64Z"/><path class="f" d="M237.86,60.48a2.44,2.44,0,0,1-.71-4.82l27.32-5.74a2.44,2.44,0,0,1,1.24,4.72l-.24,0-27.32,5.74Z"/><circle class="b" cx="186.49" cy="8.38" r="7.28"/><path class="g" d="M207.85,17.89a3.18,3.18,0,0,1-.06.43l-12-1.22a3.23,3.23,0,0,1,0-.44c.34-3.33,3.76-10.31,7.11-10S208.19,14.56,207.85,17.89Z"/><path class="g" d="M175.93,14.66a3.18,3.18,0,0,1-.06.43l-12-1.22a3.23,3.23,0,0,1,0-.44c.34-3.33,3.76-10.31,7.11-10S176.27,11.33,175.93,14.66Z"/><path class="g" d="M171,9a2.73,2.73,0,0,1,.87-5.37l31,3.14a2.73,2.73,0,0,1-.55,5.42L171.35,9Z"/></svg>
