<?xml version="1.0" encoding="UTF-8" standalone="no"?>
<svg xmlns="http://www.w3.org/2000/svg" height="16px" width="16px" version="1.1" xmlns:xlink="http://www.w3.org/1999/xlink" viewBox="0 0 16 16"><!-- Generator: Sketch 42 (36781) - http://www.bohemiancoding.com/sketch -->
 <title>Page 1</title>
 <desc>Created with Sketch.</desc>
 <g id="Navigation-+-Footer" fill-rule="evenodd" fill="none">
  <path id="Page-1" fill="#1F3E54" d="m6.769 2.4615c-2.375 0-4.308 1.933-4.308 4.308 0 2.374 1.933 4.3065 4.308 4.3065s4.308-1.9325 4.308-4.3065c0-2.375-1.933-4.308-4.308-4.308m8 13.538c-0.327 0-0.644-0.136-0.866-0.366l-3.297-3.288c-1.125 0.778-2.472 1.192-3.837 1.192-3.74 0-6.769-3.03-6.769-6.7685 0-3.74 3.029-6.769 6.769-6.769s6.77 3.029 6.77 6.769c0 1.365-0.414 2.711-1.193 3.8365l3.298 3.298c0.221 0.22 0.356 0.538 0.356 0.864 0 0.674-0.558 1.232-1.231 1.232"/>
 </g>
</svg>
