<svg xmlns="http://www.w3.org/2000/svg" width="19" height="19" viewBox="0 0 19 19">
    <g fill="none" fill-rule="evenodd">
        <path fill="#0062AF" d="M9.93 0h1.29v1.767c2.31.014 4.618-.024 6.925.014.492-.051.879.34.833.844.037 4.352-.008 8.707.022 13.059-.022.446.043.941-.21 1.336-.315.23-.722.202-1.09.22-2.16-.012-4.319-.007-6.48-.007V19H9.873c-3.285-.614-6.58-1.178-9.871-1.767-.002-5.155 0-10.309 0-15.461C3.31 1.18 6.621.603 9.93 0z"/>
        <path fill="#FFF" d="M11.083 2.375h7.125v13.458h-7.125v-1.682h5.614v-.841h-5.614v-1.052h5.614v-.84h-5.614v-1.052h5.614v-.841h-5.614V8.473h5.614v-.84h-5.614V6.58h5.614V5.74h-5.614V4.688h5.614v-.841h-5.614V2.375zM4.373 6.585c.424-.024.849-.041 1.273-.063.297 1.451.601 2.9.923 4.344.252-1.492.531-2.979.801-4.468.447-.015.894-.039 1.338-.065-.504 2.083-.947 4.182-1.498 6.252-.373.187-.932-.009-1.374.021-.297-1.422-.643-2.836-.91-4.266-.26 1.389-.6 2.764-.9 4.144-.428-.022-.86-.048-1.29-.076-.37-1.89-.806-3.769-1.153-5.664.382-.017.766-.032 1.148-.045.23 1.369.492 2.731.693 4.102.315-1.405.636-2.81.949-4.216z"/>
    </g>
</svg>
