<svg xmlns="http://www.w3.org/2000/svg" viewBox="0 0 58 54" width="58px" height="54px"><defs><style>.a{fill:#fff;}.b{fill:#9acdf1;}.c{fill:#68b5eb;}.d{fill:#c2e1f7;}.e{fill:#fcb3cd;}</style></defs><title>icons-standard-support</title><path class="a" d="M49.89,27.13A21.47,21.47,0,1,1,28.42,5.66h0A21.47,21.47,0,0,1,49.89,27.13"/><path class="b" d="M25.52,28.53a1.45,1.45,0,0,1-1-.38c-.16-.15-4-3.66-5.81-5.55a72.16,72.16,0,0,1-4.95-6.15,1.45,1.45,0,0,1,2.36-1.7h0a70.46,70.46,0,0,0,4.69,5.84C22.56,22.41,26.46,26,26.5,26a1.45,1.45,0,0,1-1,2.53Z"/><path class="b" d="M33.46,28.21a1.25,1.25,0,0,1-1.09-.64,15.14,15.14,0,0,0-1.15-1.65,25.89,25.89,0,0,0-3.64-3.75A6.09,6.09,0,0,0,22.9,21a10.53,10.53,0,0,0-2.74.65,1.25,1.25,0,0,1-1-2.3c.24-.1,5.94-2.47,10,1a24.63,24.63,0,0,1,5.36,6.08,1.25,1.25,0,0,1-1.09,1.86Z"/><path class="b" d="M35.29,27.67A1.25,1.25,0,0,1,34.21,27a28.33,28.33,0,0,0-5.47-6.47A6.11,6.11,0,0,0,24,19.36a10.53,10.53,0,0,0-2.67.64,1.25,1.25,0,0,1-1-2.3h0c.24-.1,5.94-2.47,10,1a30.39,30.39,0,0,1,6,7.12,1.25,1.25,0,0,1-1.08,1.88Z"/><path class="b" d="M37.1,24.6a1.25,1.25,0,0,1-2.33.63,28.32,28.32,0,0,0-5.47-6.47c-.84-.71-2.35-.68-4-.66A17.81,17.81,0,0,1,22,17.94a11,11,0,0,1-5-2.64,1.25,1.25,0,1,1,1.73-1.81,8.54,8.54,0,0,0,3.76,2,16,16,0,0,0,2.81.12c2,0,4.06-.06,5.61,1.25a30.43,30.43,0,0,1,5.56,6.38c.28.43.44.7.46.74A1.25,1.25,0,0,1,37.1,24.6Z"/><path class="b" d="M36.75,21.36a1.25,1.25,0,0,1-2.26.53s-2.68-3.75-5.7-4.71a9.93,9.93,0,0,0-3.88-.13,15,15,0,0,1-4,0,9.7,9.7,0,0,1-4.75-2.4l1.76-1.78a7.23,7.23,0,0,0,3.41,1.72,12.84,12.84,0,0,0,3.33,0,12,12,0,0,1,4.86.24c3.12,1,5.7,4,6.63,5.18l.36.48A1.25,1.25,0,0,1,36.75,21.36Z"/><path class="b" d="M22.2,17.18a2,2,0,0,1-.15.76,3.64,3.64,0,0,1-.34.65,6.65,6.65,0,0,1-.67.87,2.7,2.7,0,0,1-.67.55h0a3.33,3.33,0,0,1-1.9.35,5.7,5.7,0,0,1-1.79-.48l-1.91-2.2L13.7,16.43l-1.13-1.32-1.09-1.28c-.24-.29-.56-.57-.8-.86l.23-.26.22-.24.46-.48.1-.11.14-.14.18-.17.16-.15.42-.39.11-.1.15-.14.19-.17.15-.12.23-.2.24-.2h.05L14,9.9l.56-.42.28-.2.52.66.22.28h0l.08.1.44.54a11.75,11.75,0,0,0,.89,1l.26.28.34.36.36.33h0L18,13l.13.1h0l.08.06.15.12h0l.37.3c1.16,1,2.25,1.94,2.86,2.43a1.5,1.5,0,0,1,.61,1.12Z"/><path class="b" d="M43.28,43.27a1.45,1.45,0,0,1-1.89-.8h0c-.15-.36-.31-.72-.49-1.06a18.78,18.78,0,0,0-2.56-3.73l-.16-.19-.5-.54h0l-.61-.61a11.8,11.8,0,0,0-2.31-1.8h-.08c-.78-.43-1.61-1-2.35-1.45h0c-1.24-.83-2.22-1.57-2.29-1.62a1.45,1.45,0,1,1,1.75-2.32h0s1.21.85,2.5,1.71c.61.4,1.26.8,1.86,1.13a17.39,17.39,0,0,1,4.2,3.57,20.74,20.74,0,0,1,3.74,5.83v.11a1.45,1.45,0,0,1-.84,1.78"/><path class="b" d="M39.31,36.49a1.38,1.38,0,0,1-1,1.18,1.36,1.36,0,0,1-.4.06H37.8a48.76,48.76,0,0,1-9.45-2L28,35.65a18.09,18.09,0,0,1-6.76-5.06,1.38,1.38,0,1,1,2.16-1.72h0A15.66,15.66,0,0,0,28.8,33l.2.08a32.3,32.3,0,0,0,5.69,1.42h0c1.89.32,3.37.48,3.4.48a1.38,1.38,0,0,1,1.23,1.51"/><path class="b" d="M36.4,39.07h-.15A47.29,47.29,0,0,1,26.44,37c-3.92-1.51-7.06-5.48-7.19-5.65a1.45,1.45,0,0,1,2.29-1.79s2.79,3.51,5.94,4.73a45.13,45.13,0,0,0,9.06,1.9,1.45,1.45,0,1,1-.15,2.9"/><path class="b" d="M36.84,40.78h-.15a47.33,47.33,0,0,1-9.81-2.08,22.22,22.22,0,0,1-7.1-4.88,1.45,1.45,0,1,1,2.11-2h0a19.52,19.52,0,0,0,6,4.17A45.22,45.22,0,0,0,37,37.88a1.45,1.45,0,1,1-.15,2.9"/><path class="b" d="M38.93,41.91a.88.88,0,0,1-.88.83h0c-.11,0-1.16-.07-2.62-.22A33.64,33.64,0,0,1,27.78,41c-.54-.21-1.06-.43-1.57-.65a42.56,42.56,0,0,1-5.3-2.83.89.89,0,0,1,1-1.48h0s.79.51,2,1.17l.3.16a31.34,31.34,0,0,0,3,1.45l.16.07,1.15.47C31.83,40.62,38,41,38.1,41a.88.88,0,0,1,.82.73v.2"/><path class="b" d="M44.89,43.06a22.81,22.81,0,0,1-4.29,3.77c-.19-.34-.37-.71-.56-1a6.73,6.73,0,0,0-4.65-3.3q-.4-.07-.81-.11L37,42l1.9-.31,2-.32,1.79-.29,1.15-.18.28.56.69,1.37Z"/><path class="b" d="M28.23,39.71s7.94,1.77,9.6,2.65,6.73,3.42,5.68.55-4-7.06-5.79-6.84-10.87,2.54-10.87,2.54Z"/><path class="c" d="M34.49,26.94v-.13a3.61,3.61,0,0,0-.12-.35c-.06-.15-.14-.32-.24-.52L34,25.63l-.2-.33-.28-.3-.26-.37-.29-.38-.32-.38c-.22-.26-.45-.52-.7-.78l-.37-.39-.39-.39-.39-.38-.39-.37c-.26-.24-.52-.48-.78-.7l-.38-.32-.37-.3L28.48,20l-.18-.13-.17-.12-.63-.4L27,19l-.44-.25h.13l.35.13.54.22c.21.09.44.2.68.33l.19.1.19.11.4.24c.27.18.55.37.82.58s.55.44.82.68l.41.37.4.39c.26.26.52.52.76.79s.48.55.69.82l.3.41.27.41.24.4.2.39.17.36.13.34a4.41,4.41,0,0,1,.16.56,2.69,2.69,0,0,1,.06.37Z"/><path class="c" d="M36.12,25.27v-.12c0-.08-.09-.19-.15-.33l-.12-.23-.15-.27L35.46,24l-.21-.32L35,23.37,34.73,23l-.3-.37c-.11-.12-.2-.25-.32-.38l-.34-.38-.35-.39-.37-.38-.18-.19-.19-.19-.38-.38L31.92,20l-.19-.18-.19-.18-.38-.33L30.77,19l-.37-.28q-.37-.27-.72-.48l-.33-.2-.3-.18-.5-.28-.43-.25h.12l.35.12.54.2c.21.08.44.18.68.3l.38.19.2.11.2.12a8,8,0,0,1,.82.56c.27.21.55.43.82.67l.4.37.39.38.19.19.19.2.37.4.35.41.33.41q.31.41.57.81l.25.39c.08.13.15.25.21.37a7.34,7.34,0,0,1,.33.67.81.81,0,0,0,.12.29l.08.25a3.61,3.61,0,0,1,.09.36Z"/><path class="c" d="M35.65,21.92l0-.09-.16-.25c-.14-.21-.34-.52-.61-.86a12.74,12.74,0,0,0-1-1.11L33.24,19c-.2-.19-.43-.37-.66-.55L31.94,18c-.23-.17-.45-.33-.68-.48-.45-.3-.88-.55-1.26-.76l-.52-.29-.4-.23L28.82,16h-.09l.39.12c.24.08.59.19,1,.35.21.08.43.17.66.28s.47.23.71.37.48.3.72.46l.36.26.35.27.34.28.17.15.16.15a8.43,8.43,0,0,1,.59.63,8.29,8.29,0,0,1,.88,1.25,6.84,6.84,0,0,1,.46,1,.75.75,0,0,0,.1.28Z"/><path class="c" d="M21.11,29.45h0v.1a2.27,2.27,0,0,0,.16.34l.07.11.08.12.09.13.1.13a6.65,6.65,0,0,0,.5.57c.19.2.41.41.65.62s.5.42.78.63l.21.16.11.08.11.08.45.31.93.61.24.15.24.15.24.15.24.14.24.14.24.13.23.13.23.12c.31.16.62.3.92.43l.43.18.41.16.72.26.57.19.37.12h0l-.38-.06-.59-.12L29,35.58l-.43-.12-.45-.15-1-.37-.5-.23-.25-.13-.25-.13-.25-.13-.25-.14-.49-.29-.48-.31-.24-.16-.23-.16c-.31-.22-.6-.44-.88-.67s-.53-.47-.77-.7a8,8,0,0,1-.62-.7,5.34,5.34,0,0,1-.44-.66l-.08-.15-.07-.14-.06-.14V30a1.92,1.92,0,0,1-.09-.38v-.14"/><path class="c" d="M19.9,31.94,20,32l.12.11.17.15.45.38.6.48.35.27.38.28.82.59.9.6.94.6.48.29.24.14.24.13a10.3,10.3,0,0,0,1,.49l.93.41.85.33.73.25.57.17.37.1h0l-.38,0-.59-.11-.76-.18-.88-.26c-.31-.1-.64-.22-1-.36a10.11,10.11,0,0,1-1-.45l-.25-.13L25,36.15,24.74,36l-.25-.14L24,35.59l-.48-.3c-.31-.21-.62-.42-.9-.63s-.56-.43-.8-.65l-.36-.32-.17-.16-.16-.15q-.3-.3-.54-.57l-.39-.46-.13-.18L20,32l-.08,0h0"/><path class="c" d="M22.14,35.91h.08l.21.13.33.2.44.25.25.14.13.07.14.07L24,37l.3.15.31.16.32.15.33.15.33.15.67.29.33.13.32.13.62.24.15.06.14,0,.27.1.47.18.37.13.24.09h-.65L28,39l-.29-.06-.3-.07-.65-.18-.34-.12-.34-.12-.69-.28L25.06,38l-.33-.17-.32-.17-.31-.18-.29-.18-.27-.19-.25-.18L23,36.76l-.39-.33-.29-.27L22.2,36l-.06-.07"/><path class="d" d="M22.2,28.93a.73.73,0,0,0-.41.16.51.51,0,0,0-.24.47c.07.08.37.46.85,1a.86.86,0,0,0,.3.06A.46.46,0,0,0,23,30.5c.25-.24.15-.77-.24-1.18-.23-.25-.4-.37-.59-.37"/><path class="d" d="M21.55,29.57a1,1,0,0,0,.32.6,1.45,1.45,0,0,0,.53.37,8.41,8.41,0,0,1-.85-1"/><path class="d" d="M31,29.34a.74.74,0,0,0-.5.27c-.35.34-.26.77.19,1.11a1.25,1.25,0,0,0,.75.29.6.6,0,0,0,.49-.21c.24-.31.08-.84-.36-1.19a1,1,0,0,0-.56-.27"/><path class="d" d="M20,29.92a.73.73,0,0,0-.41.16c-.36.25-.31.66.08,1.08a1.48,1.48,0,0,0,.5.35,1.45,1.45,0,0,1,.64-.15h.1a1,1,0,0,0-.32-1.07c-.23-.25-.4-.37-.59-.37"/><path class="d" d="M20.84,31.37a1.45,1.45,0,0,0-.64.15.89.89,0,0,0,.34.07.46.46,0,0,0,.33-.12.41.41,0,0,0,.08-.1h-.1"/><path class="d" d="M21.33,36.33a.49.49,0,0,0-.37.22c-.23.27-.1.58.29.81a1.11,1.11,0,0,0,.56.17.44.44,0,0,0,.4-.18c.14-.24,0-.62-.43-.86a.92.92,0,0,0-.44-.17"/><path class="d" d="M20.06,32.65a.61.61,0,0,0-.37.17c-.3.24-.23.6.13.94a1.12,1.12,0,0,0,.72.33.42.42,0,0,0,.32-.12c.21-.23.08-.68-.28-1a.83.83,0,0,0-.52-.29"/><path class="e" d="M24.67,26.43A.94.94,0,0,1,26,26.5h0a.74.74,0,0,1,0,1.22c-.46.41-.71.39-1.13,0A.94.94,0,0,1,24.67,26.43Z"/><path class="e" d="M33.06,25.91c.31-.19.8,0,1.09.53s.25.9-.17,1.08-.66.08-1-.4A.85.85,0,0,1,33.06,25.91Z"/><path class="e" d="M35,25.3c.31-.19.8,0,1.09.53s.25.9-.17,1.08-.66.08-1-.4A.9.9,0,0,1,35,25.3Z"/><path class="e" d="M37.1,24.6l-.21.14c-.42.18-.61.07-.88-.37s-.25-1,0-1.12a.49.49,0,0,1,.42,0c.28.43.44.7.46.74A1.25,1.25,0,0,1,37.1,24.6Z"/><path class="e" d="M36.75,21.36l-.18.12c-.42.18-.61.07-.88-.37s-.25-1,0-1.12a.5.5,0,0,1,.45,0l.36.48A1.25,1.25,0,0,1,36.75,21.36Z"/></svg>
