<svg xmlns="http://www.w3.org/2000/svg" viewBox="0 0 58 54" width="58px" height="54px"><defs><style>.a{fill:#fff;}.b{fill:#68b5eb;}.c{fill:#0d83dd;}</style></defs><title>icons-standard-link</title><circle class="a" cx="24.97" cy="28.39" r="21.47"/><path class="b" d="M28,35.8c-4.53,4.55-10.19,6.2-13.55,2.9s-1.65-9,2.9-13.56,8.69-7.77,13.56-2.9S32.56,31.26,28,35.8Z"/><rect class="c" x="22.03" y="25.73" width="8.62" height="2.15" transform="translate(-11.24 26.48) rotate(-45)"/><path class="b" d="M46.54,27.55A5.71,5.71,0,0,1,42.88,26a6.79,6.79,0,0,1-2.16-5.61,11.19,11.19,0,0,1,2.71-6.22C36.65,13.29,31,23,30.9,23.13l-1.49-.86c.29-.51,7-12,15.43-9.62A24.18,24.18,0,0,1,54,7.55l.54,1.64a23.45,23.45,0,0,0-7.87,4.15,10.67,10.67,0,0,1,5.52,5.88A6.28,6.28,0,0,1,47,27.51,3.26,3.26,0,0,1,46.54,27.55ZM45.28,14.62a9.82,9.82,0,0,0-2.84,5.85A5.08,5.08,0,0,0,44,24.69a3.69,3.69,0,0,0,2.73,1.12,4.56,4.56,0,0,0,3.74-6,9.17,9.17,0,0,0-5.16-5.12Z"/></svg>
