<svg xmlns="http://www.w3.org/2000/svg" width="20" height="19" viewBox="0 0 20 19">
    <g fill="none" fill-rule="evenodd">
        <path fill="#EA4C3A" d="M0 18.782V0h19.366v18.782z"/>
        <path stroke="#FFF" stroke-linejoin="round" stroke-width=".917" d="M9.917 2.868c.292.14.231.32.142 1.174-.092.882-.399 2.491-.99 4.075-.593 1.58-1.472 3.134-2.237 4.284-.766 1.15-1.42 1.898-1.92 2.33-.501.432-.847.547-1.074.585-.224.038-.326 0-.387-.116-.06-.115-.082-.305-.03-.537.051-.23.173-.498.519-.842.349-.345.92-.768 1.717-1.16.797-.394 1.817-.758 2.655-1.007a19.124 19.124 0 0 1 2.063-.49 15.249 15.249 0 0 1 1.542-.22 8.446 8.446 0 0 1 2.708.212c.387.095.715.21 1 .393.286.181.532.43.654.71.124.277.124.585.021.804-.102.221-.307.355-.541.433-.235.075-.5.094-.818 0-.316-.097-.685-.308-1.072-.586a10.184 10.184 0 0 1-1.327-1.16 23.09 23.09 0 0 1-1.737-1.974c-.55-.71-1.002-1.4-1.308-1.985a7.483 7.483 0 0 1-.602-1.543 8.277 8.277 0 0 1-.276-1.39 4.985 4.985 0 0 1 .02-1.123c.04-.305.103-.537.204-.691a.725.725 0 0 1 .348-.267c.102-.038.164-.038.224-.048.061-.01.122-.029.215 0 .09.027.207.1.325.175"/>
    </g>
</svg>
