<?xml version="1.0" encoding="UTF-8"?>
<svg width="42px" height="29px" viewBox="0 0 42 29" version="1.1" xmlns="http://www.w3.org/2000/svg" xmlns:xlink="http://www.w3.org/1999/xlink">
    <!-- Generator: Sketch 53 (72520) - https://sketchapp.com -->
    <title>Mastercard-icon Copy</title>
    <desc>Created with Sketch.</desc>
    <defs>
        <path d="M5.938562,2.19965356 L9.48046692,3.83936004 L6.73645702,3.83936004 L2.39665708,3.83936004 L5.938562,2.19965356 Z M7.64246954,8.39000923 L9.2325215,8.39000923 L9.2325215,4.66987151 L7.64246954,4.66987151 L7.64246954,8.39000923 Z M5.12284874,8.39000923 L6.73645702,8.39000923 L6.73645702,4.66987151 L5.12284874,4.66987151 L5.12284874,8.39000923 Z M2.62708626,8.39000923 L4.21683622,8.39000923 L4.21683622,4.67596193 L2.62708626,4.67596193 L2.62708626,8.39000923 Z M1.20041856,4.66987151 L1.72107375,4.66987151 L1.72107375,8.39000923 L1.55497146,8.39000923 C1.304912,8.39000923 1.1019652,8.5760438 1.1019652,8.80526496 C1.1019652,9.03448613 1.304912,9.2205207 1.55497146,9.2205207 L1.72107375,9.2205207 L1.72107375,9.22688795 L5.12284874,9.22688795 L5.12284874,9.2205207 L6.73645702,9.2205207 L10.138534,9.2205207 L10.3221525,9.2205207 C10.572212,9.2205207 10.7751588,9.03448613 10.7751588,8.80526496 C10.7751588,8.5760438 10.572212,8.39000923 10.3221525,8.39000923 L10.138534,8.39000923 L10.138534,4.66987151 L10.6767054,4.66987151 C11.0209902,4.66987151 11.298532,4.49214206 11.367087,4.22776257 C11.4286958,3.98968262 11.297324,3.74994164 11.0403185,3.6311785 L6.30247703,1.43752087 C6.08140998,1.33536795 5.79571403,1.33536795 5.57494898,1.43752087 L0.836805537,3.63090166 C0.579497983,3.74994164 0.448126169,3.98968262 0.510037024,4.22776257 C0.578591971,4.49214206 0.8558318,4.66987151 1.20041856,4.66987151 L1.20041856,4.66987151 Z" id="path-1"></path>
    </defs>
    <g id="Page-1" stroke="none" stroke-width="1" fill="none" fill-rule="evenodd">
        <g id="Payments-Copy" transform="translate(-546.000000, -1558.000000)">
            <g id="Group-3" transform="translate(279.000000, 1282.000000)">
                <g id="Group-12" transform="translate(267.000000, 276.000000)">
                    <g id="Icons-/-Credit-cards-/-Small-/-ACH-icon">
                        <g id="small">
                            <path d="M2.24295852,28.2078736 L39.3265394,28.2078736 C40.2890055,28.2078736 41.074623,27.4141833 41.074623,26.4367421 L41.074623,2.26600647 C41.074623,1.28856523 40.2890055,0.494874976 39.3265394,0.494874976 L2.24295852,0.494874976 C1.28049247,0.494874976 0.494874976,1.28856523 0.494874976,2.26600647 L0.494874976,26.4367421 C0.494874976,27.4141833 1.28049247,28.2078736 2.24295852,28.2078736 Z" id="background-copy" stroke="#E6EBEC" stroke-width="0.989749951" fill="#FFFFFF"></path>
                            <path d="M16.4760149,17.8154991 L16.4760149,11.8740302 L18.7920298,11.8740302 C19.4512032,11.8740302 19.7718822,11.9452922 20.101469,12.1768936 C20.4845022,12.4441261 20.7161037,12.8984214 20.7161037,13.4150708 C20.7161037,14.1009676 20.3330704,14.5641705 19.638266,14.7334178 C19.9856682,14.8046798 20.1460077,14.867034 20.3419782,15.0184658 C20.7071959,15.2856982 20.9031664,15.7043625 20.9031664,16.2031964 C20.9031664,16.6574917 20.7250114,17.0939714 20.4221479,17.3790194 C20.101469,17.6818829 19.6917125,17.8154991 19.06817,17.8154991 L16.4760149,17.8154991 Z M17.4914983,16.9247242 L18.8721995,16.9247242 C19.4512032,16.9247242 19.816421,16.5951374 19.816421,16.0695802 C19.816421,15.5618385 19.4422955,15.2144362 18.8811073,15.2144362 L17.4914983,15.2144362 L17.4914983,16.9247242 Z M17.4914983,14.3682 L18.7920298,14.3682 C19.317587,14.3682 19.6560815,14.0297056 19.6560815,13.5130561 C19.6560815,13.0320376 19.3086792,12.7202664 18.7742143,12.7202664 L17.4914983,12.7202664 L17.4914983,14.3682 Z M26.4972331,17.8154991 L25.3481334,17.8154991 L24.8760227,16.3991669 L22.5956388,16.3991669 L22.1235281,17.8154991 L21.2149377,17.8154991 L23.1835503,11.8740302 L24.5018972,11.8740302 L26.4972331,17.8154991 Z M24.5909747,15.544023 L23.726923,12.8895136 L22.8628713,15.544023 L24.5909747,15.544023 Z M31.6904511,17.8154991 L30.7105987,17.8154991 L28.3945838,14.0207978 C28.3678605,13.9762591 28.314414,13.8604583 28.2342443,13.7001188 C28.2164288,13.6555801 28.1451668,13.5219638 28.0739048,13.3794398 L28.0739048,17.8154991 L27.2098531,17.8154991 L27.2098531,11.8740302 L28.3945838,11.8740302 L30.4700894,15.3747757 C30.4789972,15.3925912 30.5680747,15.5529307 30.6482444,15.7043625 C30.7195064,15.8468865 30.7729529,15.9537795 30.8442149,16.0873957 L30.8442149,11.8740302 L31.6904511,11.8740302 L31.6904511,17.8154991 Z M37.6675511,17.8154991 L36.4739126,17.8154991 L35.21792,14.7868643 L34.0688203,16.3100894 L34.0688203,17.8154991 L32.9998903,17.8154991 L32.9998903,11.8740302 L34.0688203,11.8740302 L34.0688203,15.0006503 C34.2113443,14.7779565 34.2826063,14.6710635 34.362776,14.5552628 L36.3402964,11.8740302 L37.4181341,11.8740302 L36.0107097,13.8248273 L37.6675511,17.8154991 Z" id="BANK" fill="#062942" fill-rule="nonzero"></path>
                            <g id="Icons-/-Bank" transform="translate(3.502192, 8.761892)">
                                <mask id="mask-2" fill="white">
                                    <use xlink:href="#path-1"></use>
                                </mask>
                                <use id="Fill-3" fill="#000000" fill-rule="evenodd" xlink:href="#path-1"></use>
                                <g id="Colours-/-Brand-Primaries-/-Grey" mask="url(#mask-2)" fill="#8495A2" fill-rule="evenodd">
                                    <rect id="swatch" style="mix-blend-mode: screen;" x="0" y="0" width="11.9975781" height="10.9983438"></rect>
                                </g>
                            </g>
                        </g>
                    </g>
                </g>
            </g>
        </g>
    </g>
</svg>