<svg xmlns="http://www.w3.org/2000/svg" width="15" height="19" viewBox="0 0 15 19">
    <defs>
        <linearGradient id="a" x1="22.351%" x2="122.351%" y1="-22.351%" y2="77.649%">
            <stop offset="0%" stop-opacity=".15"/>
            <stop offset="100%" stop-opacity="0"/>
        </linearGradient>
    </defs>
    <g fill="none" fill-rule="evenodd">
        <path fill="#1EA362" d="M14.25 4.75L9.5 0H1.583C.71 0 0 .709 0 1.583v15.834C0 18.29.709 19 1.583 19h11.084c.874 0 1.583-.709 1.583-1.583V4.75z"/>
        <path fill="url(#a)" d="M11.083 4.75c-.43 0-.82-.173-1.106-.453L14.25 8.57V4.75h-3.167z"/>
        <path fill="#000" d="M12.667 18.802H1.583A1.583 1.583 0 0 1 0 17.22v.198C0 18.29.709 19 1.583 19h11.084c.874 0 1.583-.709 1.583-1.583v-.198c0 .874-.709 1.583-1.583 1.583z" opacity=".1"/>
        <path fill="#8ED1B1" d="M9.5 0v3.167c0 .874.709 1.583 1.583 1.583h3.167L9.5 0z"/>
        <path fill="#000" d="M11.083 4.552A1.583 1.583 0 0 1 9.5 2.97v.198c0 .874.709 1.583 1.583 1.583h3.167l-.198-.198h-2.969z" opacity=".1"/>
        <path fill="#FFF" d="M9.5 0H1.583C.71 0 0 .709 0 1.583v.198C0 .907.709.198 1.583.198H9.5" opacity=".2"/>
        <path fill="#FFF" fill-rule="nonzero" d="M3.5 9v6.5h7V9h-7zm6.3 1.95H7.35v-1.3H9.8v1.3zm-2.45.65H9.8v1.3H7.35v-1.3zm-.7 1.3H4.2v-1.3h2.45v1.3zm0-3.25v1.3H4.2v-1.3h2.45zm-2.45 3.9h2.45v1.3H4.2v-1.3zm3.15 1.3v-1.3H9.8v1.3H7.35z"/>
    </g>
</svg>
