<svg xmlns="http://www.w3.org/2000/svg" viewBox="0 0 125 39" width="125px" height="39px"><defs><style>.a{fill:#1b1a19;}.b{fill:#41b9c0;}</style></defs><title>interaction_award</title><polygon class="a" points="53.24 0.64 55.05 0.64 55.05 8.57 53.24 8.57 53.24 0.64"/><polyline class="a" points="56.47 0.64 58.56 0.64 61.58 5.87 61.58 0.64 63.18 0.64 63.18 8.57 61.38 8.57 58.07 2.93 58.07 8.57 56.47 8.57 56.47 0.64"/><polyline class="a" points="66.11 2.04 63.97 2.04 63.97 0.64 70.07 0.64 70.07 2.04 67.93 2.04 67.93 8.57 66.11 8.57 66.11 2.04"/><polyline class="a" points="70.86 0.64 76.04 0.64 76.04 2.04 72.65 2.04 72.65 3.89 75.36 3.89 75.36 5.2 72.65 5.2 72.65 7.17 76.22 7.17 76.22 8.57 70.86 8.57 70.86 0.64"/><path class="a" d="M77.14.64H80C81.86.64,83,1.41,83,3v0A2.06,2.06,0,0,1,81.42,5.2l2.1,3.37H81.6L79.7,5.51h-.78V8.57H77.14V.64Zm2.8,3.65c.9,0,1.36-.38,1.36-1.14v0C81.29,2.3,80.8,2,79.94,2h-1V4.29Z"/><path class="a" d="M86.26.64H88.6l2.58,7.93H89.3l-.54-1.76H85.88l-.55,1.76H83.65L86.26.64Zm0,4.89h2.1l-1-3.43L86.27,5.53Z"/><path class="a" d="M91.08,4.66V4.57A3.85,3.85,0,0,1,95,.52c1.91,0,3.33.93,3.52,2.88H96.7A1.51,1.51,0,0,0,95,1.94c-1.26,0-2.06,1-2.06,2.62v.09c0,1.64.76,2.59,2.07,2.59a1.66,1.66,0,0,0,1.82-1.52h1.77c-.2,2-1.61,3-3.57,3a3.68,3.68,0,0,1-4-4"/><polyline class="a" points="100.92 2.04 98.77 2.04 98.77 0.64 104.87 0.64 104.87 2.04 102.73 2.04 102.73 8.57 100.92 8.57 100.92 2.04"/><polygon class="a" points="105.7 0.64 107.51 0.64 107.51 8.57 105.7 8.57 105.7 0.64"/><path class="a" d="M108.52,4.66V4.57a3.92,3.92,0,0,1,4.09-4,3.86,3.86,0,0,1,4.09,4v.09a4.09,4.09,0,0,1-8.18,0Zm6.3,0V4.55C114.83,3,114,2,112.61,2s-2.21,1-2.21,2.61v.09c0,1.62.93,2.62,2.23,2.62s2.19-1,2.19-2.63Z"/><polyline class="a" points="117.67 0.64 119.76 0.64 122.78 5.87 122.78 0.64 124.38 0.64 124.38 8.57 122.58 8.57 119.27 2.93 119.27 8.57 117.67 8.57 117.67 0.64"/><path class="a" d="M55.18,10.48h2.35l2.58,7.93H58.23l-.54-1.76H54.8l-.54,1.76H52.57l2.61-7.93Zm0,4.89h2.1l-1-3.43-1.06,3.43Z"/><polyline class="a" points="59.73 10.48 61.56 10.48 62.8 15.96 64.16 10.48 65.69 10.48 67.11 15.99 68.39 10.48 70.06 10.48 68.13 18.41 66.29 18.41 64.86 12.93 63.4 18.41 61.67 18.41 59.73 10.48"/><path class="a" d="M72.08,10.48h2.35L77,18.41H75.13l-.54-1.76H71.7l-.55,1.76H69.47l2.61-7.93Zm0,4.89h2.1l-1-3.43-1.06,3.43Z"/><path class="a" d="M77.76,10.48H80.6c1.88,0,3.07.76,3.07,2.4v0A2.06,2.06,0,0,1,82,15l2.1,3.37H82.23l-1.9-3.06h-.78v3.06H77.76V10.48Zm2.8,3.65c.9,0,1.36-.38,1.36-1.14v0c0-.81-.49-1.09-1.36-1.09h-1v2.27Z"/><path class="a" d="M84.89,10.48h2.6c2.79,0,4.17,1.51,4.17,3.88v.09c0,2.37-1.39,4-4.18,4H84.89V10.48ZM87.43,17c1.6,0,2.36-.9,2.36-2.54v-.09c0-1.63-.7-2.51-2.38-2.51h-.71V17Z"/><path class="a" d="M92,15.92h1.72c.08.71.38,1.3,1.56,1.3.79,0,1.31-.43,1.31-1.05s-.33-.85-1.5-1c-2-.27-2.87-.88-2.87-2.41,0-1.35,1.13-2.36,2.89-2.36s2.83.8,3,2.37H96.45a1.15,1.15,0,0,0-1.32-1.05c-.79,0-1.19.37-1.19.9s.26.83,1.48,1c1.92.24,2.91.76,2.91,2.41,0,1.41-1.16,2.53-3,2.53-2.18,0-3.18-1-3.28-2.61"/><polyline class="b" points="52.57 20.32 54.39 20.32 55.64 25.79 56.99 20.32 58.53 20.32 59.94 25.82 61.23 20.32 62.9 20.32 60.96 28.24 59.13 28.24 57.69 22.77 56.24 28.24 54.5 28.24 52.57 20.32"/><polygon class="b" points="63.58 20.32 65.39 20.32 65.39 28.24 63.58 28.24 63.58 20.32"/><polyline class="b" points="66.7 20.32 68.79 20.32 71.82 25.54 71.82 20.32 73.42 20.32 73.42 28.24 71.62 28.24 68.3 22.6 68.3 28.24 66.7 28.24 66.7 20.32"/><polyline class="b" points="74.68 20.32 76.77 20.32 79.79 25.54 79.79 20.32 81.39 20.32 81.39 28.24 79.59 28.24 76.28 22.6 76.28 28.24 74.68 28.24 74.68 20.32"/><polyline class="b" points="82.66 20.32 87.84 20.32 87.84 21.71 84.45 21.71 84.45 23.56 87.16 23.56 87.16 24.87 84.45 24.87 84.45 26.84 88.02 26.84 88.02 28.24 82.66 28.24 82.66 20.32"/><path class="b" d="M88.82,20.32h2.85c1.88,0,3.07.77,3.07,2.41v0a2.06,2.06,0,0,1-1.63,2.11l2.1,3.37H93.29l-1.9-3.06h-.78v3.06H88.82V20.32ZM91.63,24c.9,0,1.36-.38,1.36-1.14v0c0-.81-.49-1.09-1.36-1.09h-1V24Z"/><path class="b" d="M52.78,34.16v-.09a3.92,3.92,0,0,1,4.09-4A3.86,3.86,0,0,1,61,34v.09a4.09,4.09,0,0,1-8.18,0Zm6.3,0v-.09c0-1.54-.82-2.59-2.21-2.59s-2.21,1-2.21,2.61v.09c0,1.62.93,2.62,2.23,2.62s2.19-1,2.19-2.63Z"/><path class="b" d="M61.81,30.15h2.75c1.93,0,3,.85,3,2.53v0c0,1.67-1.17,2.47-3,2.47h-1v2.88H61.81V30.15Zm2.7,3.79c.88,0,1.34-.42,1.34-1.21v0c0-.84-.49-1.17-1.34-1.17H63.6v2.43Z"/><polyline class="b" points="69.88 31.55 67.74 31.55 67.74 30.15 73.84 30.15 73.84 31.55 71.69 31.55 71.69 38.08 69.88 38.08 69.88 31.55"/><polygon class="b" points="74.56 30.15 76.37 30.15 76.37 38.08 74.56 38.08 74.56 30.15"/><polyline class="b" points="77.68 30.15 80.06 30.15 81.92 35.08 83.75 30.15 86.08 30.15 86.08 38.08 84.29 38.08 84.29 32.51 82.09 38.08 81.5 38.08 79.29 32.51 79.29 38.08 77.68 38.08 77.68 30.15"/><polygon class="b" points="87.4 30.15 89.21 30.15 89.21 38.08 87.4 38.08 87.4 30.15"/><polyline class="b" points="89.87 37.85 93.66 31.55 90.29 31.55 90.29 30.15 96.21 30.15 96.21 30.36 92.49 36.67 96.07 36.67 96.07 38.08 89.87 38.08 89.87 37.85"/><polygon class="b" points="96.96 30.15 98.77 30.15 98.77 38.08 96.96 38.08 96.96 30.15"/><polyline class="b" points="100.08 30.15 102.17 30.15 105.19 35.37 105.19 30.15 106.79 30.15 106.79 38.08 104.99 38.08 101.68 32.43 101.68 38.08 100.08 38.08 100.08 30.15"/><path class="b" d="M107.65,34.16v-.09a3.89,3.89,0,0,1,4-4c1.77,0,3.35.81,3.53,2.77h-1.79a1.53,1.53,0,0,0-1.72-1.35c-1.38,0-2.19,1-2.19,2.65v.09c0,1.53.66,2.63,2.21,2.63a1.67,1.67,0,0,0,1.91-1.67h-1.79V33.83h3.57v.84c0,2.12-1.36,3.52-3.73,3.52a3.76,3.76,0,0,1-4-4"/><path class="a" d="M8,34.76H4V30.69L22,12.83,9.73.68H0v9.6l9.42,9.38L0,29.05v9.7h9.7L16,32.46l-2.86-2.84L8,34.76ZM4,8.62V4.68h4.1l8.21,8.17-4,4L4,8.62Z"/><path class="a" d="M38.2,29.1l-9.42-9.37,9.4-9.36V.66h-9.7L22.15,6.95,25,9.81l5.16-5.14h4V8.72L16.23,26.58,28.46,38.75H38.2V29.1ZM21.86,26.56l4-4,8.29,8.24v4H30.1l-8.25-8.2Z"/></svg>
