<svg xmlns="http://www.w3.org/2000/svg" viewBox="0 0 150 120" width="150px" height="120px"><defs><style>.a,.b{fill:#9acdf1;}.a{opacity:0.35;}.a,.j{isolation:isolate;}.c,.j{fill:#fff;}.d{fill:#0d83dd;}.e{opacity:0.58;}.f{fill:#efc100;}.g{fill:#e09200;}.h{opacity:0.57;}.i{fill:#b9dffc;}.j{opacity:0.36;}.k{fill:#fc95d1;}.l{opacity:0.23;}</style></defs><title>invoicing</title><ellipse class="a" cx="74.7" cy="103.88" rx="36.89" ry="5.99"/><path class="b" d="M123.82,61.19a7.73,7.73,0,0,0-3.38-5.54,2.29,2.29,0,1,0-2.83,3.6l.23.16a3.14,3.14,0,0,1,1.45,2.26,4.94,4.94,0,0,1-4.56,5,5.74,5.74,0,0,1-.66,0,31.24,31.24,0,0,0-1.11-13C109.69,43.5,100,35.13,77.51,36.55c-15.06,1-19.56,2.47-25.81,4.26C38.62,44.56,38.14,53,37.91,56.58c-.34,5.09,1.17,9.5-3.62,11.13a7.91,7.91,0,0,1-4,.44c-1.19-.2-2-.6-2.84,0-1.29,1-1.77,5.24-.59,7.42A5.85,5.85,0,0,0,29,78.05a4.59,4.59,0,0,0,3,.59c4.93-1.09,6.46-2.56,8.1-3.92,1-.83,1.67-1.49,1.94-.78.41,1.08-2.71,4.17-5.77,5.56-.86.39-1.3,1-.16,1.61a72.54,72.54,0,0,1,7.24,4.58C45,87,46.2,88,47,88.7a5.47,5.47,0,0,1,1.46,4.22,20.49,20.49,0,0,1-1.18,5.18c-1.41,4,5.85,5.45,8.07-1a9.83,9.83,0,0,1,1.87-3,3.5,3.5,0,0,1,3-.84c2,.48,2.29,1.62,2.19,2.48A26,26,0,0,1,61.14,102c-1.41,4,5.85,5.45,8.07-1A15.07,15.07,0,0,1,72,96a4.88,4.88,0,0,1,3.09-1.28,71.09,71.09,0,0,0,10-.88c.17,0,.52.29.52.47a15,15,0,0,1-.21,3.9c-.75,4.21,6.64,4.45,7.8-2.28a23.75,23.75,0,0,1,.78-2.68c.26-1.1,1.14-1,1.25.48a53.6,53.6,0,0,1,0,5.53c-.13,4.27,6.64,4.45,7.8-2.28.87-5,2.47-10.37,4.91-14a40.54,40.54,0,0,0,3.28-5.7,30.49,30.49,0,0,0,2-6.1,10.56,10.56,0,0,0,1.22.07h.4a9.5,9.5,0,0,0,8.94-10v-.09Z"/><path class="c" d="M69.44,42.41s2.8-.76,10.29-.52"/><path class="d" d="M69.47,44a1.91,1.91,0,0,1-.7-3.71c.31-.1,3.24-1,10.81-1.13a1.91,1.91,0,0,1,.07,3.81c-7,.13-9.68.94-9.7,1A1.92,1.92,0,0,1,69.47,44Z"/><ellipse class="d" cx="30.41" cy="73.06" rx="0.81" ry="2.12"/><ellipse class="d" cx="27.88" cy="73.06" rx="0.81" ry="2.12"/><path class="d" d="M42.74,66.08a2.22,2.22,0,0,1,0-.5,3.92,3.92,0,0,1,1.4-2.78,3.72,3.72,0,0,1,1-.6,3.62,3.62,0,0,1,1.38-.2H47a2.9,2.9,0,0,1,.72.23,3.21,3.21,0,0,1,1,.71,3.7,3.7,0,0,1,1,1.68,3.76,3.76,0,0,1,.1,1.29,2.16,2.16,0,0,1-.1.5l-.4-.28c-.24-.17-.57-.41-.93-.65a6.69,6.69,0,0,0-1.11-.62,2.47,2.47,0,0,0-.5-.16h-.92a5.42,5.42,0,0,0-.55.13,9,9,0,0,0-1.21.5Z"/><g class="e"><path class="d" d="M54.26,52.74a5.79,5.79,0,0,1,1.46.43,12,12,0,0,1,1.36.7c.43.28.85.57,1.25.88a13.45,13.45,0,0,1,1.15,1,14.41,14.41,0,0,1,1,1.11c.35.38.63.79,1,1.19a14.52,14.52,0,0,1,.84,1.26c.27.42.51.87.75,1.32l-2-.37.43-.4.44-.45c.3-.3.58-.63.86-.94.56-.65,1.09-1.32,1.59-2,.26-.35.48-.72.73-1.08a9.93,9.93,0,0,0,.66-1.14c.2-.39.41-.79.61-1.2s.35-.84.57-1.28a8.24,8.24,0,0,1,.23,1.39A9.09,9.09,0,0,1,67,54.65a12.7,12.7,0,0,1-.32,1.42,11.82,11.82,0,0,1-.5,1.37,14.16,14.16,0,0,1-1.43,2.51c-.28.4-.58.78-.9,1.16-.16.19-.32.37-.5.55s-.34.35-.56.55a1.26,1.26,0,0,1-1.94-.32v0c-.45-.81-.89-1.63-1.37-2.42s-1-1.57-1.5-2.34c-.27-.38-.53-.76-.81-1.13s-.57-.75-.87-1.1A18,18,0,0,0,54.26,52.74Z"/></g><circle class="f" cx="72.19" cy="30.85" r="2.62"/><circle class="f" cx="74.3" cy="38.87" r="3.56"/><path class="g" d="M74.72,38.08c0,.12-.1.24,0,.33s.1.06.24.06H75a.51.51,0,0,0,.43-.32.5.5,0,0,0-.11-.65,1.26,1.26,0,0,0-.79-.11,2.08,2.08,0,0,0-1,.44A2.19,2.19,0,0,0,72.82,39c-.21.74,0,1.12.25,1.31a1.43,1.43,0,0,0,1.08.24,1.66,1.66,0,0,0,.36-.09,1.51,1.51,0,0,0,.89-.77.56.56,0,0,0,0-.32.28.28,0,0,0-.24-.07,1.44,1.44,0,0,0-.58.35l-.14,0a1,1,0,0,1-.46.22.35.35,0,0,1-.25,0,.57.57,0,0,1-.16-.53A2.21,2.21,0,0,1,74,38.12C74.27,37.83,74.83,37.71,74.72,38.08Z"/><path class="g" d="M74.42,37.83h-.08a.34.34,0,0,1-.24-.42h0l.2-.75a.34.34,0,0,1,.66.17h0l-.2.75A.34.34,0,0,1,74.42,37.83Z"/><path class="g" d="M73.48,41.47H73.4a.34.34,0,0,1-.26-.4v0l.22-.86a.35.35,0,1,1,.67.17h0l-.22.86A.34.34,0,0,1,73.48,41.47Z"/><path class="g" d="M71.82,30.09c.06.08.1.17.2.17s.09,0,.15-.12h0a.4.4,0,0,0,0-.42.39.39,0,0,0-.46-.23,1,1,0,0,0-.44.45,1.63,1.63,0,0,0-.2.84,1.72,1.72,0,0,0,.38,1c.37.48.72.51.94.45a1.12,1.12,0,0,0,.66-.57,1.31,1.31,0,0,0,.09-.31,1.18,1.18,0,0,0-.07-.92c-.06-.1-.14-.15-.21-.14a.22.22,0,0,0-.15.12,1.13,1.13,0,0,0-.05.53V31a.78.78,0,0,1-.08.39.27.27,0,0,1-.14.13A.52.52,0,0,1,72,31.4a1.73,1.73,0,0,1-.55-.86C71.45,30.26,71.64,29.85,71.82,30.09Z"/><path class="g" d="M71.31,30.27a.27.27,0,0,1-.21-.1l-.38-.47a.27.27,0,0,1,.42-.34l.38.47a.27.27,0,0,1-.21.44Z"/><path class="g" d="M73.14,32.56a.27.27,0,0,1-.21-.1l-.44-.54a.27.27,0,0,1,.42-.34l.44.54a.27.27,0,0,1-.21.44Z"/><g class="h"><path class="i" d="M71.74,10.13a24.93,24.93,0,0,1,.43,2.59c.19,1.59.35,3.63.41,5.71a51.37,51.37,0,0,1-.14,5.73c-.14,1.57-.3,2.61-.3,2.61a24.93,24.93,0,0,1-.43-2.59c-.19-1.59-.35-3.63-.4-5.71a53.91,53.91,0,0,1,.14-5.73C71.59,11.17,71.74,10.13,71.74,10.13Z"/></g><g class="h"><path class="i" d="M75.26,14.73a16.86,16.86,0,0,1,.45,2,36.2,36.2,0,0,1,.43,8.92,16.71,16.71,0,0,1-.28,2,16.73,16.73,0,0,1-.46-2A36.21,36.21,0,0,1,75,16.77,16.86,16.86,0,0,1,75.26,14.73Z"/></g><ellipse class="j" cx="85.91" cy="52.02" rx="11.55" ry="3.53" transform="translate(-2.12 3.67) rotate(-2.42)"/><path class="k" d="M36.49,77.31a22.64,22.64,0,0,0,.67-3.8c.32-2.73,1.07-4.17,2.57-3.77,1.2.32.92,3.48.43,5.11A14.06,14.06,0,0,1,36.49,77.31Z"/><g class="l"><path class="d" d="M69.31,84l1.57.46,1.48.37A11.65,11.65,0,0,0,74,85a5.73,5.73,0,0,0,.81,0h.79a7.52,7.52,0,0,0,.76-.09,5.83,5.83,0,0,0,.71-.12c.22-.06.45-.06.63-.12a4.43,4.43,0,0,1,.5-.12l.47-.09a4.48,4.48,0,0,1-.26.4c-.09.12-.2.28-.34.44a3,3,0,0,1-.52.49,3.37,3.37,0,0,1-.7.49,4.46,4.46,0,0,1-.89.39,4.58,4.58,0,0,1-1,.22,4.67,4.67,0,0,1-1.09,0,5.71,5.71,0,0,1-3.49-1.58A4,4,0,0,1,69.31,84Z"/></g><g class="l"><path class="d" d="M79.5,87.77l1.63.15c.47,0,1,.06,1.52.08a11.65,11.65,0,0,0,1.63-.08,5.74,5.74,0,0,0,.8-.12,4.1,4.1,0,0,0,.77-.18,7.51,7.51,0,0,0,.73-.23,5.83,5.83,0,0,0,.67-.25c.2-.1.43-.15.59-.24a4.8,4.8,0,0,1,.47-.22l.45-.18a4.49,4.49,0,0,1-.17.44,5.39,5.39,0,0,1-.24.49,3,3,0,0,1-.42.58,3.38,3.38,0,0,1-.6.62,4.45,4.45,0,0,1-.8.56,4.58,4.58,0,0,1-1,.42,4.67,4.67,0,0,1-1.07.23A5.71,5.71,0,0,1,80.72,89,4,4,0,0,1,79.5,87.77Z"/></g><g class="l"><path class="d" d="M62.88,88l1.55.51c.45.14.95.29,1.46.42a11.66,11.66,0,0,0,1.6.29,5.73,5.73,0,0,0,.81.06h.79a7.52,7.52,0,0,0,.76-.06,5.83,5.83,0,0,0,.71-.09c.22-.05.45,0,.63-.1a1.23,1.23,0,0,1,.5-.1l.47-.07a4.48,4.48,0,0,1-.27.39c-.09.12-.21.27-.35.43a3,3,0,0,1-.54.47,3.37,3.37,0,0,1-.72.47,4.45,4.45,0,0,1-.9.36,4.58,4.58,0,0,1-1,.19,4.67,4.67,0,0,1-1.09,0,5.71,5.71,0,0,1-3.44-1.7A4,4,0,0,1,62.88,88Z"/></g><path class="d" d="M69.22,41.42l10.51-.71s-2.48,1.77-4.4,1.77S70.63,43.24,69.22,41.42Z"/></svg>
