<svg xmlns="http://www.w3.org/2000/svg" viewBox="0 0 149 74" width="149px" height="74px"><defs><style>.a{fill:#e5f4fe;}.b{fill:#0064be;isolation:isolate;}</style></defs><title>its-free</title><path class="a" d="M.12,50.88c0,3.52,2.13,6.39,4.73,6.39H116.34c2.6,0,4.73,2.88,4.73,6.39v7c0,3.52,1.5,4.36,3.34,1.87l8-10.78c1.84-2.49,5.47-4.52,8.07-4.52h3.84c2.6,0,4.73-2.88,4.73-6.39V6.39C149,2.88,146.87,0,144.27,0H4.85C2.25,0,.1,2.88.08,6.39L0,15.33c0,3.52,0,9.27,0,12.78l0,2c0,3.52.07,9.27.07,12.78Z" transform="translate(0)"/><path class="b" d="M38.71,27.57c-.22-2.48-.48-6.22,1.28-6.38.72-.06,1.55.11,1.62.58a.9.9,0,0,1,0,.3,49.42,49.42,0,0,0,.19,9.74,64.87,64.87,0,0,0,1.08,7.92c.11.62.38,1.2.43,1.8,0,.45-.42.76-1,.81s-.9-.64-1.06-1.11C39.91,37.76,39.1,32,38.71,27.57ZM49.39,40.45a57.45,57.45,0,0,1-1.6-9.29c-1.82.52-3.06.84-3.06.84a1.54,1.54,0,0,1-1.38-1.32c0-.3,0-.57.21-.71l4.06-.75a36.59,36.59,0,0,1-.17-4c0-1.81.16-4,1.53-4.17.84-.07,1.58.13,1.63.7l0,.21a60.68,60.68,0,0,0-.37,6.81,32.49,32.49,0,0,0,4-1.14,1.29,1.29,0,0,1,.29-.09.25.25,0,0,1,.29.25,1.61,1.61,0,0,1-1.27,1.62c-1.11.4-2.25.74-3.28,1.07,0,.57.07,1.14.12,1.68.39,4.45.76,6.62.94,7.63l.06.72a1.2,1.2,0,0,1-1.21,1.31C49.81,41.8,49.61,41.31,49.39,40.45Zm8.32-14.37V26a5.31,5.31,0,0,0,.62-2.91l0-.24a16.11,16.11,0,0,0-.7-2.8c0-.33.15-1.34,1-1.41s1.88.44,2.1,2.29l0,.24c.17,1.94-.43,5.4-1.9,5.53h-.15C58.27,26.64,57.75,26.59,57.71,26.08Zm5.35,12.6c.42,0,.91,0,1.53,0,1.37-.12,2.85-.52,2.73-1.81s-5-2.24-5.24-5.14l0-.18c-.07-2.58,3-3.84,4.86-4l.36,0c.84,0,1.16.2,1.21.8a4.19,4.19,0,0,1,0,.54c-.11,1.15-3.94.71-3.77,2.65.08,1,1.34,1.57,2.4,2.26,1.5,1,2.84,1.5,3,2.93v.15c.09,2.07-3,3.33-4.84,3.58l-.3,0a10.09,10.09,0,0,1-1.5,0,1.51,1.51,0,0,1-1.28-1.21c0-.27.14-.52.61-.57Zm28.54-21.8a1.1,1.1,0,0,1,.93,1c.06.72-.14,1.79-.53,1.82,0,0-1.16-.5-5.37-.13-1.7.15-6.86,1.14-8.41,2a2.82,2.82,0,0,1-1.14.4c-.33,0-.55-.46-.6-1a.8.8,0,0,1,.39-.76c1.17-.79,4-2.88,11.58-3.54A9,9,0,0,1,91.59,16.89Zm-8.23,14c.45,5.11.76,6.32.87,7.57,0,.18.1.41.12.62s-.07.61-.67.66a1.38,1.38,0,0,1-.33,0c-.33,0-.58-.4-.8-.92A61.64,61.64,0,0,1,81,31.25l-1.4.51a1.39,1.39,0,0,1-.29.09c-.21,0-.31-.12-.34-.48,0-1.15.52-1.34,1.33-1.68a2.75,2.75,0,0,0,.43-.19c-.15-1-.26-1.93-.33-2.77-.13-1.44-.4-4.51,1.31-4.66.81-.07,1.43.15,1.53.65a.66.66,0,0,1,0,.27c-.1,1.6-.07,3.68,0,5.54a24.85,24.85,0,0,1,5.67-1.25c.24,0,.72-.06.78.68s-.2,1.55-.76,1.6c-.24,0-.66,0-1,0a26.87,26.87,0,0,0-4.59.91Zm12.92.68A9.55,9.55,0,0,0,96.19,34l.07.84c.17,1.88-.33,2.41-1.44,2.5-.75.07-.83-.59-.89-1.28a27.56,27.56,0,0,0-1-6.23A19.49,19.49,0,0,1,92.44,28a1.31,1.31,0,0,1,0-.46,1.2,1.2,0,0,1,1-.78c1.08-.09,1.39.42,1.9,2.48a15.46,15.46,0,0,1,1-1.86A4.43,4.43,0,0,1,99.62,25a1.54,1.54,0,0,1,1.76,1.2c.06.66-.2,1.49-.83,1.55l-.29-.19a1.29,1.29,0,0,0-.92-.16C97.47,27.58,96.59,29.94,96.28,31.56ZM111,33c.27-.39.33-.69.72-.73s.64.46.68.87c.13,1.52-2.45,3.35-4.75,3.55-3.59.31-5.38-2.63-5.64-5.59-.3-3.38,1.43-6.42,4.83-6.72a2.68,2.68,0,0,1,3,2.29,5.14,5.14,0,0,1-.52,2.67,10.25,10.25,0,0,1-4.12,3.88A2.93,2.93,0,0,0,108.14,35,3.91,3.91,0,0,0,111,33Zm-4.32-6.37c-2,.18-2.19,2.81-2.07,4.19,0,.36.09.72.15,1,2.22-1.1,3.18-2.9,3.05-4.33A1,1,0,0,0,106.72,26.65ZM122.46,31c.48,0,.79.38.83.89.18,2-2.87,3.35-4.69,3.51-3.41.3-5.21-2.74-5.46-5.57-.28-3.23,1.27-6.13,4.5-6.42a2.38,2.38,0,0,1,2.78,2.23c.21,2.42-1.81,4.77-3.94,6.61a2.6,2.6,0,0,0,2.63,1.43C121.23,33.48,122.49,31,122.46,31Zm-4.86-5.33c-1.94.17-1.93,2.76-1.81,4.07a7.38,7.38,0,0,0,.16,1.16c1.86-1.79,2.57-3.3,2.46-4.64A.68.68,0,0,0,117.6,25.66Z" transform="translate(0)"/></svg>
