<?xml version="1.0" encoding="UTF-8"?>
<svg width="410px" height="106px" viewBox="0 0 410 106" version="1.1" xmlns="http://www.w3.org/2000/svg" xmlns:xlink="http://www.w3.org/1999/xlink">
    <!-- Generator: Sketch 50.2 (55047) - http://www.bohemiancoding.com/sketch -->
    <title>join-10-million</title>
    <desc>Created with Sketch.</desc>
    <defs>
        <path d="M71.5211671,53.2674561 C71.828518,51.1056137 71.9875139,48.8959611 71.9875139,46.6491328 C71.9875139,20.9164235 51.128181,0.0587764734 25.3996294,0.0587764734 C16.1324206,0.0587764734 7.49699936,2.76474125 0.240522285,7.42982275 L0.240522285,53.2674561 L71.5211671,53.2674561 Z" id="path-1"></path>
        <polygon id="path-3" points="5.52511033 0.215103429 0.123169245 0.215103429 0.123169245 7.65978366 5.52511033 7.65978366"></polygon>
    </defs>
    <g id="Page-1" stroke="none" stroke-width="1" fill="none" fill-rule="evenodd">
        <g id="join-10-million">
            <g id="Page-1">
                <path d="M77.8788224,16.4268857 C74.9895988,16.4268857 71.7139146,18.710244 68.7268451,20.9932945 C65.7394679,23.2766528 63.0403976,25.5597034 61.3037866,25.5597034 C60.9816335,25.5597034 60.6927111,25.4812322 60.4410195,25.3095187 C58.9404078,24.2841616 58.9677923,21.9626448 60.3727119,19.5066498 C46.8822838,27.6553462 37.8613831,42.4599397 37.8613831,59.3715621 C37.8613831,85.0768834 58.6970238,105.912066 84.396037,105.912066 C86.4194166,105.912066 88.4135655,105.782819 90.3689453,105.532327 C90.154792,104.832549 90.7664828,103.45084 90.2421764,101.956194 C89.1895636,98.949362 83.4781931,96.6980077 83.027425,94.1460009 C82.5794261,91.5866086 90.0950998,91.5866086 79.7268178,86.9269575 C69.3557666,82.2663832 65.7440832,79.4204941 64.0988566,74.6100552 C62.8607058,70.9902245 61.6936317,66.0385374 60.645019,66.0385374 C59.5893293,66.0385374 60.0400974,68.6367037 59.2453301,69.1983114 C58.9994846,69.3746408 58.7687159,69.4561893 58.5527164,69.4561893 C56.6899518,69.4561893 55.9582613,63.3779019 56.5708752,59.6402106 C57.1702583,55.9846832 59.1385611,52.2002169 60.340712,50.6421787 C62.3139379,48.0849405 63.7853189,46.8334017 60.9930181,40.774809 C58.2801017,34.8885452 58.3702554,31.2961025 62.294861,29.3687881 C63.1434743,28.9518137 64.0705489,28.6850116 65.0083928,28.6850116 C67.1890027,28.6853193 69.426228,30.1276509 70.8619167,34.4798795 C71.6622224,36.9054091 72.8265272,37.6547322 74.2237545,37.6547322 C75.354521,37.6547322 76.6382101,37.1635948 78.0049759,36.6724573 C79.3714341,36.1813199 80.8212767,35.6901825 82.2846576,35.6901825 C82.7369642,35.6901825 83.1911169,35.7372652 83.6440389,35.8458939 C88.4323347,36.992189 91.6603267,43.7567149 87.3895681,43.7567149 C87.330799,43.7567149 87.2704914,43.755484 87.2089531,43.7530221 C82.6695798,43.5628449 85.1384967,39.8916232 83.9323459,39.2903184 C83.8677306,39.257699 83.7929616,39.241697 83.7092695,39.241697 C82.8323486,39.241697 80.9831224,41.0111458 79.6046643,44.2690857 C77.7314382,48.6964005 79.229896,52.944924 81.1938911,52.944924 C82.1185042,52.944924 83.1465017,52.0032695 83.9741919,49.6959083 C84.2535758,48.9170431 84.4972675,47.8396795 84.73419,46.5093618 C84.9778817,45.1421164 85.6372647,44.5629681 86.60157,44.5629681 C88.811103,44.5629681 92.6209397,47.603035 96.6950835,51.1656278 C98.9209241,53.1070978 99.7581528,53.9241216 99.4196921,54.5805102 C99.319077,54.7753034 99.1350774,54.8583906 98.8886165,54.8583906 C98.1600029,54.8583906 96.8855445,54.131224 95.6095477,53.4102121 C94.4566275,52.759055 93.1480153,52.2599165 92.1286332,52.2599165 C91.4434042,52.2599165 90.888944,52.4854828 90.6003293,53.041859 C89.9880232,54.2229276 90.9080209,55.1445797 92.9504774,56.1197768 C95.5652401,57.3679306 94.0483208,58.2554245 91.2634046,61.1760921 C89.7286392,62.7855212 89.5883319,62.7965995 86.2932631,67.4005514 C85.3443424,68.726561 84.1911145,70.5289369 83.4163471,71.8078637 C83.0861941,72.3525462 82.7083489,72.5427235 82.3166576,72.5427235 C81.7409667,72.5427235 81.135122,72.1325191 80.6055849,71.8324822 C79.1446654,71.0049956 77.3194392,70.3633781 75.6825202,70.3633781 C73.5234486,70.3633781 71.6920685,71.4804388 71.4597614,74.7605353 C71.285608,77.2605356 71.7096069,77.9430813 72.4382205,77.9430813 C72.876681,77.9430813 73.425295,77.6956662 74.0200627,77.4482511 C74.6151382,77.200836 75.255752,76.9534209 75.8785197,76.9534209 C76.2720572,76.9534209 76.6585177,77.05251 77.0212861,77.312542 C79.6502026,79.1967742 76.1197498,80.5698665 81.8317357,84.8223905 C83.2366553,85.8683655 84.0824993,86.2754926 84.8360359,86.2754926 C85.7160338,86.2754926 86.4692627,85.7191164 87.8372593,84.9756402 C90.2920224,83.6403987 91.6621729,83.0978703 92.9944773,83.0978703 C94.3520124,83.0978703 95.6707783,83.6616321 98.0578493,84.5248154 C104.287372,86.7761697 105.566754,87.5316474 110.530126,87.8319921 C111.01751,87.8615342 111.481508,87.871997 111.920277,87.871997 C112.482737,87.871997 113.003966,87.8547642 113.479657,87.8372235 C113.955041,87.8196829 114.384886,87.80245 114.764885,87.80245 C116.724572,87.80245 117.358417,88.2665072 116.084882,91.5866086 C114.606116,95.4646249 108.099363,99.693146 101.613225,102.622738 C117.102418,96.4490539 128.498389,82.1916048 130.586692,65.0611862 C130.125462,65.6994187 129.537156,65.9772991 128.886081,65.9772991 C126.325779,65.9772991 122.799326,61.6776924 122.270712,58.1206387 C121.392253,52.2208348 121.96579,46.5438276 119.023336,46.2237881 C116.015343,45.8966709 115.912882,44.5635835 114.635654,41.5733689 C113.048581,37.8581419 110.702126,32.7276636 104.470757,29.5192682 C94.2535511,24.2607741 99.2138465,22.7578197 94.3569354,18.8293356 C92.8723237,17.6245717 91.5554039,17.2716052 90.2572533,17.2716052 C89.3384863,17.2716052 88.4289501,17.4485501 87.4763371,17.6254949 C86.5237241,17.8024398 85.5280342,17.9793847 84.4363446,17.9793847 C83.1203479,17.9793847 81.6649669,17.7221222 79.9778941,16.8980207 C79.3098958,16.5718266 78.6068206,16.4268857 77.8788224,16.4268857 M98.2969257,43.7496371 C97.6815426,43.7496371 96.9855443,43.6431624 96.2556999,43.4059024 C93.5713989,42.5344104 91.9806336,39.7808404 90.8997132,37.0989714 C89.3671016,33.2972722 84.082807,34.1219892 82.4597341,32.4987123 C80.8329689,30.8649725 83.8071154,29.0625966 86.4603396,28.5489948 C87.256953,28.394822 87.9920281,28.3086575 88.7111033,28.3086575 C90.7037137,28.3086575 92.5723245,28.9693543 95.279087,30.6714102 C100.228921,33.7837937 96.8276985,37.6581173 97.5433891,39.299858 C97.8261576,39.9491688 99.4526151,40.4821575 100.025229,41.0496121 C101.531687,42.5424114 100.369536,43.7496371 98.2969257,43.7496371" id="Fill-1" fill="#86C1EE" fill-rule="nonzero"></path>
                <g id="Group-10" transform="translate(56.307553, 12.709566)">
                    <path d="M8.70077844,15.9755686 C7.76293461,15.9755686 6.83585998,16.2423707 5.9872467,16.6590374 C2.06294873,18.5866595 1.97279511,22.1787945 4.68540377,28.0650583 C7.47770455,34.123651 6.00632358,35.3751898 4.0330977,37.9327357 C2.83094683,39.4907738 0.862644016,43.2749325 0.263568578,46.9304598 C-0.349045289,50.6684589 0.382337514,56.7464386 2.24510213,56.7464386 C2.46110159,56.7464386 2.69187025,56.6648901 2.9377158,56.4888684 C3.73248306,55.9272607 3.28171494,53.3287867 4.33740464,53.3287867 C5.38601742,53.3287867 6.55309145,58.2807815 7.79124223,61.9006122 C9.43646892,66.7110511 13.0481523,69.5569402 23.4192035,74.2172068 C33.7877932,78.8771656 26.2718118,78.8771656 26.7198107,81.4365579 C27.1705788,83.9882569 32.8819493,86.239919 33.9345621,89.2467511 C34.4588685,90.741089 33.8474854,92.1227978 34.061331,92.8225763 C34.066254,92.8391937 34.0717925,92.8555034 34.0779463,92.8708899 C37.5302455,92.433913 40.8646987,91.6193511 44.038537,90.4693633 C44.4600744,90.2896488 44.8828426,90.1040875 45.3056108,89.9132947 C51.7917486,86.9833952 58.2985017,82.7548742 59.7772673,78.8771656 C61.0508026,75.5567565 60.416958,75.0926993 58.4575782,75.0926993 C58.0772715,75.0926993 57.6477341,75.1102399 57.1720429,75.1277805 C56.6963518,75.1450134 56.1751223,75.162554 55.6126622,75.162554 C55.1738941,75.162554 54.7098952,75.1520912 54.2225118,75.1225491 C49.2591395,74.8218967 47.979758,74.0667267 41.750235,71.8150646 C39.363164,70.9518813 38.044398,70.3884273 36.6868629,70.3884273 C35.3545585,70.3881196 33.9847158,70.9309557 31.5296449,72.2661971 C30.1616483,73.0096734 29.4084194,73.5660496 28.5284216,73.5660496 C27.7751927,73.5660496 26.929041,73.1586148 25.5241214,72.1129475 C19.8121355,67.8601157 23.3425883,66.4870235 20.7136717,64.6027913 C20.3509034,64.3427593 19.9644428,64.2439779 19.5709054,64.2439779 C18.9481377,64.2439779 18.3075239,64.491393 17.7127561,64.7388081 C17.1179884,64.9862232 16.5690666,65.2336383 16.1306062,65.2336383 C15.4019926,65.2336383 14.9779937,64.5510926 15.1524548,62.0510923 C15.3844542,58.7709958 17.2158343,57.653935 19.3749058,57.653935 C21.0118249,57.653935 22.8370511,58.2955526 24.2979706,59.1230391 C24.8275077,59.4230761 25.4336601,59.8332805 26.0090432,59.8332805 C26.4010423,59.8332805 26.7785798,59.6427955 27.1087328,59.098113 C27.8835001,57.8191862 29.036728,56.0168102 29.9856488,54.6911084 C33.2810252,50.0871565 33.4210249,50.0757705 34.9557903,48.4666491 C37.7407065,45.5459815 39.2579335,44.6584876 36.642863,43.410026 C34.6004066,42.4348289 33.6804088,41.5134846 34.292715,40.332416 C34.5813297,39.7760398 35.1357899,39.5501658 35.8210189,39.5501658 C36.840401,39.5501658 38.1490132,40.0496119 39.3019334,40.7007691 C40.5779302,41.421781 41.8523886,42.1489476 42.5810022,42.1489476 C42.8274631,42.1489476 43.0114627,42.0655527 43.1120778,41.8707594 C43.4505385,41.2146786 42.6133098,40.3976548 40.3874692,38.4561848 C36.3133254,34.893592 32.5034887,31.8535251 30.2939557,31.8535251 C29.3296504,31.8535251 28.6702674,32.4323656 28.4265757,33.7999188 C28.1896532,35.1299288 27.9459615,36.2072923 27.6665776,36.9861575 C26.8388873,39.2938265 25.8108899,40.2351733 24.8865845,40.2351733 C22.9222817,40.2351733 21.4238238,35.9869575 23.29705,31.5596427 C24.6755081,28.3017028 26.525042,26.5319463 27.4016552,26.5319463 C27.4853473,26.5319463 27.5601163,26.548256 27.6247315,26.5805676 C28.8308824,27.1821802 26.3619654,30.8530941 30.9016465,31.0432714 C30.9631848,31.046041 31.0231847,31.0472719 31.0819537,31.0472719 C35.3527124,31.0472719 32.1247204,24.282746 27.3364246,23.1361432 C26.8835026,23.0278222 26.4296576,22.9807394 25.9770433,22.9807394 C24.5136623,22.9807394 23.0641275,23.4718769 21.6973616,23.9630143 C20.3305958,24.4541518 19.0472143,24.9452892 17.9161402,24.9452892 C16.5189129,24.9452892 15.3546081,24.1956584 14.5546101,21.7704365 C13.1186136,17.4182079 10.8813884,15.9755686 8.70077844,15.9755686" id="Fill-3" fill="#E7F2FB" fill-rule="nonzero"></path>
                    <g id="Group-7" transform="translate(2.769224, 0.000000)">
                        <g id="Fill-5-Clipped">
                            <mask id="mask-2" fill="white">
                                <use xlink:href="#path-1"></use>
                            </mask>
                            <g id="path-1"></g>
                            <path d="M25.3996294,0.0587457003 C16.5867281,0.0587457003 8.34644086,2.50520101 1.31876596,6.75741728 C1.31107367,6.77095741 1.30368908,6.78357435 1.29599679,6.79711448 C-0.108922807,9.25310942 -0.136307355,11.5746263 1.36430431,12.5999834 C1.6156883,12.7713891 1.90491836,12.850168 2.22676371,12.850168 C3.96368249,12.850168 6.66244503,10.5671175 9.64982224,8.28375921 C12.6371995,6.00070865 15.9128836,3.71735037 18.8021073,3.71735037 C19.5297978,3.71735037 20.2331806,3.86198358 20.901179,4.18848535 C22.5882517,5.01258689 24.0436327,5.26984936 25.3596295,5.26984936 C26.4513191,5.26984936 27.4470089,5.09290448 28.3996219,4.9159596 C29.352235,4.73901472 30.2617712,4.56206984 31.1805381,4.56206984 C32.4786888,4.56206984 33.7956086,4.91503641 35.2802203,6.11980025 C40.1371313,10.0482843 35.1768359,11.5512388 45.3940414,16.8097329 C51.6254105,20.0181282 53.9718663,25.1482988 55.5589393,28.8638336 C56.8361669,31.8540482 56.9386281,33.1871356 59.9466207,33.5142528 C62.8890749,33.8342922 62.3155379,39.5112995 63.1939973,45.4111034 C63.7226113,48.9681571 67.2490641,53.2674561 69.8093655,53.2674561 C70.4601331,53.2674561 71.048747,52.9898834 71.509669,52.3516509 C71.5656688,52.2744106 71.6195148,52.1916312 71.6718224,52.1036203 C71.8804373,50.3138613 71.9875139,48.494868 71.9875139,46.6491021 C71.9875139,20.9167005 51.128181,0.0587457003 25.3996294,0.0587457003" id="Fill-5" fill="#E7F2FB" fill-rule="nonzero" mask="url(#mask-2)"></path>
                        </g>
                    </g>
                    <path d="M32.4035812,15.5991837 C31.6845061,15.5991837 30.949431,15.6853482 30.1528176,15.839521 C27.4995934,16.3531228 24.5254469,18.155191 26.1522121,19.7892385 C27.775285,21.4125154 33.0595796,20.5877984 34.5921912,24.3891899 C35.6731116,27.0710588 37.2638769,29.8249366 39.9481779,30.6964286 C40.6780223,30.9333809 41.3740206,31.0398556 41.9894036,31.0398556 C44.0620139,31.0398556 45.2241649,29.8326299 43.7177071,28.3401383 C43.1450931,27.7726838 41.5186356,27.2393873 41.2355594,26.5900765 C40.5201765,24.9483357 43.9213989,21.0743199 38.971565,17.9616287 C36.2648024,16.2598805 34.3961917,15.5991837 32.4035812,15.5991837" id="Fill-8" fill="#E7F2FB" fill-rule="nonzero"></path>
                </g>
                <g id="Group-64" transform="translate(0.000000, 0.092627)">
                    <path d="M56.950382,9.57979583 C56.9731511,9.52163482 56.9946895,9.52501985 56.9983818,9.58718136 L57.1094585,11.4501802 C57.1131508,11.5123417 57.165766,11.5757341 57.2263813,11.5911206 L58.373763,11.8816179 C58.4343783,11.8970044 58.4411475,11.9373171 58.3885322,11.9711674 L57.4448423,12.5826274 C57.392227,12.6164777 57.3546886,12.6949489 57.3608425,12.7571104 L57.5051498,14.1929797 C57.5113036,14.2551412 57.4876114,14.2637576 57.4525346,14.2120589 L56.6266905,12.9977555 C56.5916136,12.9463645 56.5319215,12.9448259 56.4940754,12.9943704 L55.6134622,14.1535902 C55.5756161,14.2031348 55.5503854,14.1932874 55.5574623,14.1311259 L55.7623849,12.3167485 C55.7694618,12.2548947 55.7411542,12.1662684 55.6993081,12.1198011 L55.0313098,11.3803254 C54.9894637,11.3341659 55.0057714,11.3030851 55.0676174,11.3113938 L56.1036148,11.4514111 C56.1654608,11.4597198 56.2346914,11.4190994 56.2574606,11.3609384 L56.950382,9.57979583 Z" id="Fill-11" fill="#EFC100" fill-rule="nonzero"></path>
                    <path d="M31.1642305,42.9054408 C31.1829997,42.8571271 31.2008458,42.8598967 31.2039227,42.9115954 L31.2962301,44.4560934 C31.2993071,44.5077921 31.3429993,44.5604139 31.393153,44.5730309 L32.3445352,44.8139836 C32.394689,44.8266006 32.4002274,44.8601432 32.3568429,44.8881466 L31.5740756,45.3949783 C31.5306911,45.4232895 31.4993066,45.4882206 31.5045373,45.5399192 L31.6242293,46.7302198 C31.6291524,46.7819184 31.6097678,46.7889962 31.5805371,46.7462217 L30.8959234,45.7393284 C30.8666927,45.6965539 30.8171544,45.695323 30.7860776,45.7365589 L30.0556178,46.6976004 C30.0242333,46.7388362 30.003618,46.7305275 30.0094641,46.6791365 L30.1793098,45.1746435 C30.185156,45.1232525 30.1614637,45.049705 30.1270023,45.0115464 L29.5731575,44.3982401 C29.5383883,44.3600816 29.5519268,44.3342322 29.6033113,44.3410023 L30.4623861,44.4573243 C30.5134629,44.4640944 30.5706935,44.430244 30.5894627,44.3822381 L31.1642305,42.9054408 Z" id="Fill-13" fill="#EFC100" fill-rule="nonzero"></path>
                    <path d="M28.5794369,33.9443366 C28.6018984,33.8870987 28.6231291,33.890176 28.6268214,33.9517221 L28.7363596,35.7891793 C28.7400519,35.8507253 28.7920517,35.9131945 28.8517439,35.9282733 L29.9837411,36.2150779 C30.0434332,36.2301567 30.0498948,36.2698539 29.9982026,36.3033965 L29.067128,36.90624 C29.0154358,36.9397826 28.9782051,37.0173306 28.9843589,37.0785689 L29.1265124,38.4950512 C29.1326663,38.5562895 29.1092817,38.5645982 29.0748203,38.5138227 L28.260053,37.3161367 C28.2255916,37.2650534 28.1668225,37.2635148 28.1292841,37.3124439 L27.2606709,38.4559694 C27.2234402,38.5048985 27.1985172,38.4950512 27.2052864,38.4338128 L27.4077475,36.6443616 C27.4145167,36.5831233 27.3865168,36.4957279 27.3452861,36.4498761 L26.6865185,35.7205554 C26.6452878,35.6747036 26.6612878,35.6442383 26.7222107,35.652547 L27.744362,35.7907179 C27.8052849,35.7987189 27.8735925,35.758714 27.8957463,35.7011684 L28.5794369,33.9443366 Z" id="Fill-15" fill="#EFC100" fill-rule="nonzero"></path>
                    <path d="M25.4966445,45.8442337 C25.5323367,45.7522223 25.5664905,45.7574537 25.5723366,45.8562351 L25.7483362,48.8018289 C25.7541823,48.9006103 25.8372591,49.0009303 25.9329511,49.025241 L27.7477159,49.4843745 C27.8434079,49.5086852 27.8538694,49.5723854 27.7711004,49.6262382 L26.2784887,50.5928188 C26.1957197,50.6466716 26.1360275,50.7709946 26.1458737,50.8691605 L26.3738731,53.1399019 C26.3837192,53.2380678 26.3464886,53.251608 26.2907964,53.1700594 L24.9846458,51.2498228 C24.9292613,51.1682743 24.8348,51.1655047 24.7751078,51.2442837 L23.3821882,53.0774326 C23.3224961,53.1559039 23.2828038,53.1399019 23.2938807,53.0417359 L23.6181876,50.172767 C23.6292645,50.0746011 23.5840339,49.9345838 23.5178802,49.861344 L22.4615751,48.6919692 C22.3954214,48.6187294 22.4215752,48.5694926 22.5191134,48.582725 L24.1575709,48.8042907 C24.2554168,48.8175231 24.364955,48.7528998 24.4006472,48.6608884 L25.4966445,45.8442337 Z" id="Fill-17" fill="#EFC100" fill-rule="nonzero"></path>
                    <path d="M22.949297,36.5937092 C22.9849892,36.5016978 23.019143,36.5069292 23.0249891,36.6057107 L23.2009887,39.5513044 C23.2068348,39.6500858 23.2899115,39.7504058 23.3856036,39.7747165 L25.2003683,40.23385 C25.2960604,40.2581607 25.3065219,40.3218609 25.2237529,40.3757137 L23.7311412,41.3422943 C23.6483722,41.3961471 23.58868,41.5204701 23.5985261,41.618636 L23.8265256,43.8893774 C23.8363717,43.9875433 23.799141,44.0010835 23.7434489,43.919535 L22.4372982,41.9992983 C22.3819138,41.9177498 22.2874525,41.9149803 22.2277603,41.9937592 L20.8348407,43.8269082 C20.7751485,43.9053794 20.7354563,43.8893774 20.7465332,43.7912115 L21.0708401,40.9222425 C21.081917,40.8240766 21.0366863,40.6840594 20.9705327,40.6108196 L19.9142276,39.4414447 C19.8480739,39.3682049 19.8742277,39.3189681 19.9717659,39.3322005 L21.6102234,39.5537662 C21.7080693,39.5669986 21.8176075,39.5023753 21.8532997,39.4103639 L22.949297,36.5937092 Z" id="Fill-19" fill="#EFC100" fill-rule="nonzero"></path>
                    <path d="M18.121832,19.5072345 C18.146755,19.4352256 18.1732165,19.4383029 18.1806011,19.5140046 L18.4039852,21.7795145 C18.4113698,21.8552161 18.4784465,21.9299946 18.5529079,21.9459966 L19.9655198,22.2460335 C20.0399811,22.2617278 20.0498272,22.3106569 19.9876735,22.3543546 L18.8661379,23.1439903 C18.8036765,23.1879957 18.7615227,23.2855462 18.7719843,23.3609401 L19.0153683,25.1042319 C19.0258298,25.1796258 18.9975222,25.1913195 18.9522915,25.1300812 L17.8882941,23.6889806 C17.8430635,23.6277422 17.7704483,23.6286654 17.7267561,23.6908269 L16.7076817,25.14516 C16.6639895,25.2076292 16.6329126,25.1965509 16.6384511,25.1205416 L16.8030661,22.8993448 C16.8086045,22.8236432 16.7695277,22.7168608 16.7166047,22.6623925 L15.8673761,21.7924392 C15.8144531,21.7379709 15.8329146,21.6995046 15.9086067,21.7065824 L17.178142,21.8284436 C17.2538342,21.8358291 17.3362955,21.7828995 17.3609108,21.7108907 L18.121832,19.5072345 Z" id="Fill-21" fill="#EFC100" fill-rule="nonzero"></path>
                    <path d="M9.41409975,15.5423459 C9.44640736,15.4491037 9.48056112,15.4531042 9.49040725,15.5512701 L9.779945,18.4879397 C9.78948343,18.5864133 9.87656014,18.6833484 9.97317529,18.7039663 L11.8042477,19.0929373 C11.9008628,19.1132475 11.9137859,19.1766399 11.8331707,19.23357 L10.3787127,20.2573885 C10.2980976,20.3140108 10.2433285,20.440488 10.2568669,20.5383462 L10.5725584,22.7986247 C10.5860968,22.8964829 10.5494816,22.911254 10.4907125,22.8318596 L9.11133127,20.9636293 C9.05286988,20.8842349 8.95840857,20.8854659 8.90179333,20.9660912 L7.58087352,22.851862 C7.52425828,22.9324873 7.48364299,22.9183317 7.49102759,22.8198581 L7.70425783,19.9401186 C7.71164243,19.8416449 7.66118102,19.7034741 7.59225811,19.6326961 L6.49133776,18.5051726 C6.42241485,18.4343946 6.4464148,18.3845423 6.54487609,18.3937742 L8.19041047,18.5519476 C8.28887177,18.5611795 8.39564073,18.4925556 8.42764066,18.3993134 L9.41409975,15.5423459 Z" id="Fill-23" fill="#EFC100" fill-rule="nonzero"></path>
                    <path d="M19.7950894,7.04945327 C19.819397,6.95374917 19.8538585,6.95498009 19.8717046,7.05222284 L20.4024725,9.95504207 C20.4203186,10.0519771 20.5147799,10.1418343 20.6126258,10.1541435 L22.469852,10.3907881 C22.5676979,10.403405 22.5858517,10.4652588 22.5101596,10.5286512 L21.1452399,11.6687917 C21.0692401,11.7321841 21.0249325,11.8626617 21.0467786,11.9589813 L21.5477005,14.1854095 C21.5692389,14.2817291 21.5338543,14.2998851 21.4689314,14.2254144 L19.9403198,12.477199 C19.8750892,12.403036 19.7812433,12.4119602 19.7313973,12.4972015 L18.5704771,14.4851387 C18.520631,14.57038 18.4790927,14.5593017 18.4781696,14.4605203 L18.4535543,11.5733953 C18.4526312,11.4746139 18.3907852,11.3407513 18.3163238,11.2761279 L17.1264806,10.2430776 C17.0520193,10.1784542 17.0717115,10.1264478 17.1704805,10.1276787 L18.8237072,10.1495276 C18.9224762,10.1507585 19.0230913,10.0735182 19.047399,9.97812184 L19.7950894,7.04945327 Z" id="Fill-25" fill="#EFC100" fill-rule="nonzero"></path>
                    <g id="Group-29" transform="translate(56.615244, 0.000000)">
                        <g id="Fill-27-Clipped">
                            <mask id="mask-4" fill="white">
                                <use xlink:href="#path-3"></use>
                            </mask>
                            <g id="path-3"></g>
                            <path d="M3.19482285,0.280649967 C3.23051507,0.188638629 3.26466883,0.193870043 3.27051497,0.292651446 L3.44651454,3.23824518 C3.45236068,3.33671885 3.53543739,3.43734664 3.63112946,3.46165732 L5.4458942,3.92079082 C5.54158627,3.94510151 5.55204778,4.00880167 5.46927876,4.06265446 L3.97666707,5.0292351 C3.89389804,5.08308789 3.83420588,5.2074109 3.84405201,5.30557684 L4.07205145,7.57631819 C4.08189758,7.67448413 4.04435921,7.68802426 3.98897473,7.60647575 L2.68282412,5.68623913 C2.62743964,5.60469062 2.53297834,5.60192105 2.47328618,5.68069999 L1.08036655,7.51384895 C1.02067439,7.59232016 0.980982185,7.57631819 0.99205908,7.47815225 L1.31636597,4.60918334 C1.32744286,4.5110174 1.28221221,4.37100014 1.21605853,4.29745262 L0.15975345,3.12838549 C0.0935997681,3.05514569 0.119753549,3.00590886 0.217291769,3.01914126 L1.85574925,3.24070702 C1.95359516,3.25363169 2.06313335,3.18931607 2.09882557,3.09730473 L3.19482285,0.280649967 Z" id="Fill-27" fill="#EFC100" fill-rule="nonzero" mask="url(#mask-4)"></path>
                        </g>
                    </g>
                    <path d="M150.032921,38.5717068 C150.057228,38.5095452 150.080305,38.513238 150.084305,38.5797077 L150.203074,40.572261 C150.207074,40.6387307 150.263382,40.7067391 150.327997,40.7230488 L151.555686,41.0338563 C151.620301,41.050166 151.627378,41.0932482 151.571378,41.1295604 L150.561842,41.7834871 C150.505535,41.8197993 150.465227,41.9038097 150.471996,41.9702794 L150.62615,43.5061609 C150.632919,43.5726307 150.607688,43.5818626 150.57015,43.5264711 L149.686768,42.2278496 C149.649229,42.1724581 149.585229,42.1709195 149.544922,42.2241568 L148.60277,43.4640019 C148.562463,43.5169315 148.535386,43.5061609 148.543078,43.4399989 L148.762462,41.4994521 C148.769847,41.4329824 148.739385,41.3382015 148.69477,41.2886569 L147.98031,40.4977902 C147.935387,40.4482457 147.952926,40.4150108 148.019079,40.423935 L149.127384,40.5737996 C149.193538,40.5827238 149.267384,40.5390261 149.291692,40.4768646 L150.032921,38.5717068 Z" id="Fill-30" fill="#EFC100" fill-rule="nonzero"></path>
                    <path d="M142.849246,43.918304 C142.884938,43.8262927 142.919092,43.8315241 142.924938,43.9303055 L143.100938,46.8758992 C143.106784,46.9746807 143.189861,47.0750007 143.285553,47.0993114 L145.100317,47.5584449 C145.196009,47.5827556 145.206471,47.6464557 145.123702,47.7003085 L143.63109,48.6668892 C143.548321,48.720742 143.488629,48.845065 143.498475,48.9432309 L143.726475,51.2139723 C143.736321,51.3121382 143.69909,51.3256783 143.643398,51.2441298 L142.337247,49.3238932 C142.281863,49.2423447 142.187402,49.2395751 142.127709,49.3183541 L140.73479,51.151503 C140.675098,51.2299742 140.635405,51.2139723 140.646482,51.1158063 L140.970789,48.2468374 C140.981866,48.1486715 140.936635,48.0086542 140.870482,47.9354144 L139.814177,46.7660396 C139.748023,46.6927998 139.774177,46.6435629 139.871715,46.6567953 L141.510172,46.8783611 C141.608018,46.8915935 141.717557,46.8269701 141.753249,46.7349588 L142.849246,43.918304 Z" id="Fill-32" fill="#EFC100" fill-rule="nonzero"></path>
                    <path d="M150.241505,47.6123592 C150.265812,47.5495823 150.289197,47.553275 150.293197,47.6203602 L150.413197,49.6289154 C150.417197,49.6960006 150.473812,49.7646244 150.539042,49.7809341 L151.77627,50.0942035 C151.841501,50.1108209 151.848578,50.1542109 151.79227,50.1908308 L150.774426,50.8499889 C150.718119,50.8866088 150.677196,50.9712347 150.683965,51.0383198 L150.839657,52.5865106 C150.846426,52.6532881 150.820888,52.66252 150.783042,52.6068208 L149.892582,51.2977364 C149.854736,51.2420373 149.790429,51.2404986 149.749506,51.2940437 L148.79997,52.5437361 C148.759047,52.5972812 148.73197,52.5865106 148.739662,52.5197332 L148.960892,50.5634921 C148.968277,50.4967146 148.937508,50.4010105 148.892585,50.3511582 L148.172279,49.5538292 C148.127356,49.5039769 148.144894,49.4704343 148.211664,49.4793585 L149.328584,49.6304541 C149.395353,49.6393782 149.469814,49.5953728 149.494122,49.5325958 L150.241505,47.6123592 Z" id="Fill-34" fill="#EFC100" fill-rule="nonzero"></path>
                    <path d="M152.409315,10.6049375 C152.445007,10.5129262 152.479161,10.5181576 152.485007,10.616939 L152.661006,13.5625327 C152.666852,13.6610064 152.749929,13.7616342 152.845621,13.7859449 L154.660386,14.2450784 C154.756078,14.2693891 154.76654,14.3330892 154.683771,14.386942 L153.191159,15.3535227 C153.10839,15.4073755 153.048698,15.5316985 153.058544,15.6298644 L153.286543,17.9006058 C153.296389,17.9987717 153.259159,18.0123118 153.203467,17.9307633 L151.897316,16.0105267 C151.841931,15.9289782 151.74747,15.9262086 151.687778,16.0049876 L150.294858,17.8381365 C150.235166,17.9166077 150.195474,17.9006058 150.206551,17.8024398 L150.530858,14.9334709 C150.541935,14.835305 150.496704,14.6952877 150.43055,14.6217402 L149.374245,13.4526731 C149.308092,13.3794333 149.334245,13.3301964 149.431784,13.3434288 L151.070241,13.5649946 C151.168087,13.5779193 151.277625,13.5136036 151.313317,13.4215923 L152.409315,10.6049375 Z" id="Fill-36" fill="#EFC100" fill-rule="nonzero"></path>
                    <path d="M159.229482,18.0526245 C159.266098,17.9110686 159.317174,17.912915 159.343021,18.0569327 L160.11348,22.3614631 C160.139326,22.5054809 160.279018,22.6387281 160.423941,22.6578073 L163.174396,23.0187749 C163.319318,23.0375464 163.346088,23.1295578 163.233472,23.2231078 L161.204554,24.9048535 C161.091939,24.9984034 161.025786,25.191658 161.05717,25.3344449 L161.787014,28.6363902 C161.818707,28.779177 161.766091,28.8056418 161.670092,28.6951667 L159.414713,26.0963849 C159.318713,25.9859097 159.179636,25.9985267 159.105483,26.1243883 L157.373795,29.0641352 C157.299641,29.1899969 157.23841,29.1733794 157.237487,29.0272076 L157.216564,24.7485265 C157.215949,24.6023546 157.12518,24.4038686 157.015026,24.3075491 L155.2578,22.7701289 C155.147646,22.6738093 155.177185,22.5971845 155.323646,22.5996463 L157.772871,22.6408822 C157.919332,22.643344 158.06887,22.5294838 158.105793,22.3879279 L159.229482,18.0526245 Z" id="Fill-38" fill="#EFC100" fill-rule="nonzero"></path>
                    <path d="M163.930117,10.1271864 C163.955348,10.0619476 163.979655,10.065948 163.983655,10.1354951 L164.10827,12.2200596 C164.11227,12.2896067 164.171347,12.3606923 164.239039,12.3779252 L165.523036,12.7028884 C165.590728,12.7201213 165.598113,12.7650499 165.539651,12.8032084 L164.483346,13.4872927 C164.424577,13.5251435 164.382423,13.6131544 164.3895,13.6827014 L164.550731,15.2893609 C164.557808,15.3589079 164.531346,15.3684476 164.491962,15.3105943 L163.567964,13.9519654 C163.528579,13.8941121 163.46181,13.8925734 163.419657,13.9479649 L162.434121,15.2450478 C162.391659,15.3007469 162.363659,15.2893609 162.371351,15.2201216 L162.600889,13.1900253 C162.608889,13.1204783 162.576889,13.0213891 162.53012,12.9693827 L161.782738,12.1422039 C161.735968,12.0901975 161.754122,12.055424 161.823353,12.0649636 L162.982735,12.2215983 C163.051965,12.2308302 163.129196,12.1852861 163.154426,12.120355 L163.930117,10.1271864 Z" id="Fill-40" fill="#EFC100" fill-rule="nonzero"></path>
                    <path d="M48.7486177,4.73963018 C48.777233,4.61838447 48.8209252,4.61930766 48.8452328,4.74116883 L49.5790771,8.38961841 C49.6036925,8.51178731 49.7249229,8.62257019 49.8486149,8.63611032 L52.1953784,8.89306506 C52.3190704,8.90660519 52.343378,8.98446094 52.2492244,9.06600945 L50.5535363,10.5338826 C50.4596903,10.6154311 50.4067674,10.78099 50.4359981,10.901928 L51.1172272,13.6982726 C51.1467656,13.8192105 51.102458,13.842598 51.0187659,13.750279 L49.0526169,11.5801654 C48.9689248,11.4878463 48.8507713,11.5010787 48.7898483,11.6097075 L47.3698519,14.1423273 C47.3092366,14.250956 47.2566214,14.2377236 47.2532368,14.1134006 L47.1578524,10.4735675 C47.1544678,10.3489368 47.0738526,10.1818392 46.9784682,10.1018294 L45.4550874,8.82567214 C45.359703,8.74597001 45.3833952,8.68011574 45.5080103,8.67950028 L47.5929282,8.66996064 C47.7172356,8.66934518 47.8424661,8.56994832 47.8713891,8.44870261 L48.7486177,4.73963018 Z" id="Fill-42" fill="#EFC100" fill-rule="nonzero"></path>
                    <path d="M114.777531,8.73919994 C114.803069,8.67365341 114.827377,8.67734617 114.831685,8.74781639 L114.956915,10.847152 C114.961223,10.9176222 115.0203,10.9890156 115.088607,11.0062485 L116.382142,11.3336735 C116.450142,11.3509064 116.457834,11.3964505 116.398758,11.434609 L115.33476,12.123617 C115.275684,12.1620833 115.233222,12.2507096 115.240299,12.3205643 L115.40276,13.9389176 C115.409837,14.0090801 115.383068,14.0186197 115.343683,13.9604587 L114.412609,12.5919824 C114.373224,12.5338214 114.30584,12.531975 114.263378,12.5879819 L113.270458,13.8946044 C113.227996,13.9506113 113.199689,13.9392253 113.207381,13.8693706 L113.438765,11.8241955 C113.446457,11.7543407 113.414457,11.6543284 113.367381,11.602322 L112.614459,10.7686808 C112.567383,10.7166744 112.585844,10.6815931 112.655382,10.6911328 L113.823072,10.8486907 C113.892918,10.8582303 113.970764,10.8123785 113.996302,10.7468319 L114.777531,8.73919994 Z" id="Fill-44" fill="#EFC100" fill-rule="nonzero"></path>
                    <path d="M124.780675,5.43765466 C124.816368,5.34564332 124.850521,5.35087473 124.856368,5.44965614 L125.032367,8.39524987 C125.038213,8.49403127 125.12129,8.59435133 125.216982,8.61866201 L127.031747,9.07779551 C127.127439,9.1021062 127.1379,9.16580636 127.055131,9.21965915 L125.56252,10.1862398 C125.479751,10.2400926 125.420058,10.3644156 125.429905,10.4625815 L125.657904,12.7333229 C125.66775,12.8314888 125.630519,12.845029 125.574827,12.7634804 L124.268677,10.8432438 C124.213292,10.7616953 124.118831,10.7589257 124.059139,10.8377047 L122.666219,12.6708536 C122.606527,12.7493249 122.566835,12.7333229 122.577912,12.6351569 L122.902219,9.76618803 C122.913295,9.66802209 122.868065,9.52800484 122.801911,9.45476504 L121.745606,8.28539018 C121.679452,8.21215038 121.705606,8.16291355 121.803144,8.17614595 L123.441602,8.39771171 C123.539448,8.41094411 123.648986,8.34632076 123.684678,8.25430943 L124.780675,5.43765466 Z" id="Fill-46" fill="#EFC100" fill-rule="nonzero"></path>
                    <path d="M129.177188,13.1530669 C129.23288,13.0102801 129.285803,13.0185888 129.295033,13.1715307 L129.568264,17.7471715 C129.577187,17.9001134 129.706417,18.0561326 129.855032,18.0939834 L132.673794,18.8073021 C132.822409,18.8451529 132.838717,18.9439343 132.710102,19.0273292 L130.391646,20.5290527 C130.263031,20.6124476 130.170108,20.8053945 130.185493,20.9580287 L130.539646,24.4852325 C130.55503,24.637559 130.496877,24.6587924 130.410723,24.5320075 L128.382113,21.5491784 C128.295651,21.4223936 128.14919,21.4187008 128.056575,21.5408697 L125.892888,24.3879898 C125.799965,24.5101587 125.738427,24.4852325 125.755658,24.3329061 L126.259349,19.8763569 C126.276579,19.7240304 126.206426,19.5061574 126.103657,19.392605 L124.463045,17.5760735 C124.360276,17.462521 124.400584,17.3862039 124.552584,17.4065141 L127.0975,17.7505565 C127.249192,17.7711744 127.419038,17.6711621 127.47473,17.5280675 L129.177188,13.1530669 Z" id="Fill-48" fill="#EFC100" fill-rule="nonzero"></path>
                    <path d="M137.351106,30.1531002 C137.376644,30.0875536 137.400952,30.0912464 137.40526,30.1617166 L137.53049,32.2610522 C137.534798,32.3315224 137.593874,32.4029158 137.662182,32.4201487 L138.955717,32.7475737 C139.023717,32.7648066 139.031409,32.8103507 138.972333,32.8485092 L137.908335,33.5375172 C137.849258,33.5759835 137.806797,33.6646098 137.813874,33.7344645 L137.976335,35.3528178 C137.983412,35.4229803 137.956643,35.4325199 137.917258,35.3743589 L136.986184,34.0058826 C136.946799,33.9477216 136.879415,33.9458752 136.836953,34.0018821 L135.844033,35.3085047 C135.801571,35.3645116 135.773264,35.3531255 135.780956,35.2832708 L136.01234,33.2380957 C136.020032,33.1682409 135.988032,33.0682286 135.940955,33.0162222 L135.188034,32.182581 C135.140957,32.1305746 135.159419,32.0954934 135.228957,32.105033 L136.396647,32.2625909 C136.466493,32.2721305 136.544339,32.2262787 136.569877,32.1607322 L137.351106,30.1531002 Z" id="Fill-50" fill="#EFC100" fill-rule="nonzero"></path>
                    <path d="M2.18922534,42.7816717 C2.21476374,42.7161251 2.23907137,42.7198179 2.24337906,42.7902881 L2.36860952,44.8896237 C2.3729172,44.9600939 2.43199397,45.0314874 2.5003015,45.0487203 L3.79383675,45.3761452 C3.86183658,45.3933781 3.86952887,45.4389222 3.8104521,45.4770807 L2.74645473,46.1660887 C2.68737796,46.204555 2.64491652,46.2931813 2.65199343,46.3630361 L2.81445456,47.9813893 C2.82153147,48.0515518 2.79476231,48.0610914 2.75537779,48.0029304 L1.82430317,46.6344541 C1.78491865,46.5762931 1.71753421,46.5744467 1.67507277,46.6304536 L0.682152156,47.9370762 C0.639690723,47.9930831 0.6113831,47.981697 0.619075389,47.9118423 L0.850459431,45.8666672 C0.85815172,45.7968124 0.826151799,45.6968001 0.779074993,45.6447937 L0.0261537813,44.8111525 C-0.0209230251,44.7591461 -0.00246153236,44.7240649 0.0670767569,44.7336045 L1.23476617,44.8911624 C1.30461215,44.900702 1.38245811,44.8548502 1.40799651,44.7893037 L2.18922534,42.7816717 Z" id="Fill-52" fill="#EFC100" fill-rule="nonzero"></path>
                    <path d="M32.330166,26.3001639 C31.7744751,24.663039 33.3658558,23.9647992 35.3883123,23.278253 C37.4104611,22.5917069 39.098457,22.1762711 39.6538402,23.8137036 C40.2095311,25.4508284 39.020611,27.3353683 36.9981545,28.0216067 C34.9763133,28.7081529 32.885857,27.9375964 32.330166,26.3001639" id="Fill-56" fill="#FFFFFF" fill-rule="nonzero"></path>
                    <path d="M24.2721245,27.0523488 C23.6607414,25.2512038 27.9428846,22.1689779 33.8367162,20.1678082 C39.7299323,18.167254 45.0034577,18.0047724 45.6151485,19.8062252 C46.2262239,21.6070625 41.9440807,24.6892884 36.0505568,26.6904581 C30.157033,28.69132 24.8835076,28.8534939 24.2721245,27.0523488" id="Fill-58" fill="#FFFFFF" fill-rule="nonzero"></path>
                    <path d="M38.4463047,20.2561268 C39.0023034,21.8932516 37.410615,22.5914915 35.3881585,23.2780376 C33.3657019,23.9648915 31.6780138,24.3800196 31.1223229,22.7428947 C30.5666319,21.1054622 31.7558598,19.22123 33.7783163,18.5346839 C35.8001574,17.8481378 37.8906138,18.619002 38.4463047,20.2561268" id="Fill-60" fill="#0D83DD" fill-rule="nonzero"></path>
                    <path d="M38.4463047,20.2561268 C39.0023034,21.8932516 37.410615,22.5914915 35.3881585,23.2780376 C33.3657019,23.9648915 31.6780138,24.3800196 31.1223229,22.7428947 C30.5666319,21.1054622 31.7558598,19.22123 33.7783163,18.5346839 C35.8001574,17.8481378 37.8906138,18.619002 38.4463047,20.2561268 Z" id="Stroke-62" stroke="#FFFFFF" stroke-width="3.052"></path>
                </g>
            </g>
            <path d="M181.017701,23.7728846 C180.991701,23.7208846 180.991701,23.6168846 180.991701,23.4608846 C181.043701,23.0188846 181.667701,22.7848846 182.447701,22.7848846 C183.903701,22.7848846 183.929701,28.0628846 183.929701,30.9748846 C183.929701,31.2088846 183.955701,31.2348846 183.955701,31.4688846 C183.955701,36.3568846 183.851701,43.1948846 179.795701,43.1948846 C178.183701,43.1948846 176.935701,42.3628846 176.935701,40.9068846 C176.935701,40.4648846 177.117701,40.0748846 177.689701,40.0748846 C177.897701,40.0748846 178.859701,41.3748846 179.873701,41.3748846 C181.641701,41.3748846 181.745701,37.4488846 181.745701,34.4588846 C181.745701,30.9748846 181.511701,27.9588846 181.017701,23.7728846 Z M190.039701,41.0368846 C188.011701,41.0368846 186.503701,39.1388846 186.503701,36.7988846 C186.503701,33.8608846 187.257701,30.9228846 190.767701,30.9228846 C193.263701,30.9228846 194.225701,33.1588846 194.225701,35.2648846 C194.225701,37.8908846 192.951701,41.0368846 190.039701,41.0368846 Z M190.195701,39.0348846 C191.989701,39.0348846 192.561701,36.7468846 192.561701,35.1088846 C192.561701,34.0428846 192.015701,32.8728846 190.949701,32.8728846 C188.817701,32.8728846 188.609701,35.0828846 188.609701,36.5908846 C188.609701,37.9948846 189.129701,39.0348846 190.195701,39.0348846 Z M199.737701,26.8408846 L199.737701,27.1268846 C199.737701,27.6728846 198.983701,28.2188846 198.359701,28.2188846 C197.631701,28.2188846 197.293701,27.4908846 197.293701,26.9448846 C197.293701,26.4508846 197.657701,25.5928846 198.359701,25.5928846 C198.983701,25.5928846 199.737701,26.2168846 199.737701,26.8408846 Z M198.879701,34.4588846 C198.879701,36.3048846 198.931701,37.9688846 199.373701,39.3728846 C199.477701,39.6588846 199.607701,39.8668846 199.789701,40.1008846 C199.867701,40.2308846 199.893701,40.2828846 199.893701,40.3868846 C199.893701,41.0368846 199.477701,41.2448846 199.061701,41.2448846 C198.775701,41.2448846 198.593701,41.1668846 198.255701,41.0108846 C196.929701,40.4128846 196.487701,35.8108846 196.487701,33.6008846 C196.487701,32.3008846 196.721701,31.0528846 197.657701,31.0528846 C198.385701,31.0528846 198.905701,31.2088846 198.983701,31.7288846 C199.009701,31.9108846 199.035701,32.0928846 199.035701,32.2748846 C199.035701,32.5348846 198.957701,32.8208846 198.931701,33.1068846 C198.905701,33.4188846 198.879701,33.7308846 198.879701,34.4588846 Z M204.807701,33.0288846 C204.599701,33.5748846 204.547701,34.3028846 204.547701,35.9408846 L204.547701,36.9028846 C204.599701,37.4748846 204.599701,37.7088846 204.781701,37.7088846 C204.885701,37.7088846 205.119701,36.8508846 205.457701,36.0708846 C206.549701,33.5488846 207.719701,32.1448846 209.019701,32.1448846 C211.619701,32.1448846 210.553701,37.1628846 212.295701,39.0608846 C212.529701,39.3208846 212.945701,39.5288846 212.945701,39.8668846 C212.945701,40.5428846 212.425701,40.7508846 211.905701,40.7508846 C211.567701,40.7508846 211.333701,40.6468846 210.969701,40.4908846 C209.643701,39.8148846 209.305701,37.9688846 208.993701,36.3828846 C208.759701,35.2388846 208.265701,34.8228846 207.979701,34.8228846 C207.199701,34.8228846 206.211701,37.7868846 205.743701,38.8008846 C205.353701,39.6068846 205.067701,40.7248846 204.443701,40.7248846 C203.975701,40.7248846 203.507701,40.7248846 203.195701,40.2308846 C202.519701,39.1388846 202.233701,36.5908846 202.233701,35.5248846 C202.233701,32.7428846 202.519701,31.3648846 203.637701,31.3648846 C204.391701,31.3648846 204.911701,32.0668846 204.911701,32.6648846 C204.911701,32.7688846 204.885701,32.8468846 204.807701,33.0288846 Z M220.225701,39.5808846 C220.225701,36.3568846 227.427701,32.3528846 227.427701,29.2848846 C227.427701,28.7128846 227.115701,28.2188846 226.049701,28.2188846 C224.281701,28.2188846 223.241701,28.8168846 222.305701,30.0388846 C222.019701,30.4288846 221.733701,30.7148846 221.447701,30.7148846 C220.615701,30.7148846 220.147701,30.1428846 220.147701,29.4148846 C220.147701,27.8808846 222.097701,26.3728846 225.425701,26.3728846 C228.077701,26.3728846 229.585701,27.2048846 229.585701,28.8688846 C229.585701,32.0408846 225.009701,35.4988846 223.319701,37.6828846 C222.955701,38.1508846 222.669701,38.6448846 222.669701,39.2168846 C222.669701,39.5288846 222.747701,39.7628846 224.047701,39.7628846 C226.127701,39.7628846 228.545701,38.8788846 229.819701,37.2408846 C230.001701,37.0068846 230.105701,36.9288846 230.287701,36.9288846 C230.547701,36.9288846 231.353701,37.0588846 231.353701,38.0208846 C231.353701,40.7768846 226.231701,41.4788846 223.293701,41.4788846 C221.577701,41.4788846 220.225701,41.3748846 220.225701,39.5808846 Z M237.411701,24.9168846 C237.489701,24.7608846 237.671701,24.6828846 237.879701,24.6828846 C239.153701,24.6828846 239.465701,26.2428846 239.465701,26.9968846 C239.465701,28.2448846 237.749701,31.6508846 236.969701,33.1848846 C236.449701,34.2248846 236.033701,35.0308846 235.669701,35.5768846 C237.229701,35.5508846 238.581701,35.3948846 239.985701,35.2908846 C240.011701,32.8988846 240.323701,27.9328846 241.779701,27.9328846 C242.273701,27.9328846 243.053701,28.1668846 243.053701,28.9208846 C243.053701,28.9728846 243.053701,29.0508846 243.027701,29.1288846 C242.585701,30.0908846 242.221701,33.6528846 242.143701,35.1868846 C242.403701,35.1868846 242.767701,35.1608846 243.131701,35.1608846 C243.885701,35.1608846 244.639701,35.1868846 244.639701,35.7068846 C244.613701,36.0968846 244.301701,37.1888846 243.573701,37.1888846 C243.339701,37.1888846 242.741701,37.1628846 242.039701,37.1368846 L242.039701,37.7348846 C242.039701,39.2948846 242.117701,40.7768846 242.273701,42.4148846 C242.273701,43.0648846 242.195701,43.2208846 241.883701,43.2208846 C240.427701,43.2208846 240.063701,39.7368846 239.985701,37.0068846 L239.543701,37.0068846 C238.373701,37.0068846 237.229701,37.0848846 235.929701,37.2928846 C235.227701,37.4228846 234.603701,37.5268846 234.265701,37.5268846 C233.953701,37.5268846 232.757701,37.0328846 232.731701,36.3048846 C232.731701,36.2008846 232.861701,35.9928846 233.069701,35.7848846 C234.785701,33.3928846 236.189701,29.7528846 237.411701,24.9168846 Z M266.349701,40.9068846 C264.555701,40.9068846 264.009701,31.0528846 263.879701,28.4788846 C262.943701,30.5848846 261.695701,35.9148846 260.005701,35.9148846 C258.211701,35.9148846 256.521701,28.8688846 256.287701,28.1148846 C255.507701,31.5208846 254.909701,36.1748846 254.701701,38.4628846 C254.649701,39.1648846 254.649701,39.7628846 254.649701,40.3608846 C254.649701,40.8548846 254.259701,41.0888846 253.843701,41.0888846 C252.777701,41.0888846 252.465701,40.3088846 252.465701,39.1648846 C252.465701,36.7208846 254.285701,28.3228846 254.935701,26.0088846 C255.377701,23.4348846 255.871701,22.3168846 256.885701,22.3168846 C257.483701,22.3168846 257.925701,22.9668846 257.951701,23.4608846 C257.951701,23.4608846 257.951701,23.9288846 258.029701,24.8648846 C258.237701,27.6208846 259.511701,33.1848846 260.291701,33.3668846 C260.915701,33.3668846 262.553701,28.3228846 263.047701,26.4508846 C263.645701,24.1628846 264.139701,23.7988846 264.633701,23.7988846 C265.673701,23.7988846 265.569701,24.6828846 265.673701,25.4628846 L265.673701,26.5028846 C265.673701,30.2728846 266.609701,36.5908846 267.233701,38.8268846 C267.337701,39.0348846 267.753701,39.7368846 267.753701,39.9968846 C267.753701,40.4648846 267.181701,40.9068846 266.349701,40.9068846 Z M273.213701,26.8408846 L273.213701,27.1268846 C273.213701,27.6728846 272.459701,28.2188846 271.835701,28.2188846 C271.107701,28.2188846 270.769701,27.4908846 270.769701,26.9448846 C270.769701,26.4508846 271.133701,25.5928846 271.835701,25.5928846 C272.459701,25.5928846 273.213701,26.2168846 273.213701,26.8408846 Z M272.355701,34.4588846 C272.355701,36.3048846 272.407701,37.9688846 272.849701,39.3728846 C272.953701,39.6588846 273.083701,39.8668846 273.265701,40.1008846 C273.343701,40.2308846 273.369701,40.2828846 273.369701,40.3868846 C273.369701,41.0368846 272.953701,41.2448846 272.537701,41.2448846 C272.251701,41.2448846 272.069701,41.1668846 271.731701,41.0108846 C270.405701,40.4128846 269.963701,35.8108846 269.963701,33.6008846 C269.963701,32.3008846 270.197701,31.0528846 271.133701,31.0528846 C271.861701,31.0528846 272.381701,31.2088846 272.459701,31.7288846 C272.485701,31.9108846 272.511701,32.0928846 272.511701,32.2748846 C272.511701,32.5348846 272.433701,32.8208846 272.407701,33.1068846 C272.381701,33.4188846 272.355701,33.7308846 272.355701,34.4588846 Z M278.959701,40.0228846 C279.011701,40.1268846 279.193701,40.3608846 279.193701,40.7248846 C279.167701,41.1408846 278.673701,41.3488846 278.153701,41.3488846 C277.685701,41.3488846 277.113701,40.9588846 276.879701,40.4648846 C275.839701,38.2808846 275.761701,34.0948846 275.761701,31.6508846 C275.761701,29.9348846 275.865701,28.0108846 275.943701,26.9708846 C276.021701,25.5668846 276.203701,23.8248846 277.373701,23.8248846 C278.049701,23.8248846 278.777701,24.1628846 278.803701,24.6048846 C278.803701,24.6828846 278.803701,24.8648846 278.777701,24.9168846 C278.361701,27.6208846 278.023701,30.7668846 278.023701,33.1848846 C278.023701,33.6268846 278.023701,34.0688846 278.049701,34.5108846 C278.101701,36.2788846 278.231701,38.6968846 278.959701,40.0228846 Z M284.783701,39.8148846 C284.835701,39.9188846 285.043701,40.1528846 285.043701,40.5168846 C285.043701,40.9328846 284.393701,41.1928846 283.873701,41.1928846 C281.819701,41.1928846 281.715701,34.5628846 281.715701,31.7288846 C281.715701,29.8048846 281.793701,28.7908846 281.897701,27.6728846 C282.079701,25.9568846 282.469701,24.1628846 283.457701,24.1628846 C284.055701,24.1628846 284.627701,24.5528846 284.679701,24.9428846 C284.679701,25.0208846 284.679701,25.2028846 284.653701,25.2548846 C284.289701,27.8548846 284.003701,30.2208846 284.003701,32.4828846 C284.003701,33.0028846 284.029701,33.5228846 284.029701,34.0948846 L284.029701,34.3548846 C284.133701,36.1488846 284.185701,38.5928846 284.783701,39.8148846 Z M289.801701,34.4588846 C289.775701,35.0308846 289.749701,35.6028846 289.749701,36.1228846 C289.749701,37.2408846 289.853701,38.3068846 290.139701,39.3988846 C290.217701,39.6588846 290.347701,39.8668846 290.529701,40.0748846 C290.607701,40.2048846 290.633701,40.2568846 290.633701,40.3608846 C290.607701,41.0108846 290.191701,41.2448846 289.775701,41.2448846 C289.099701,41.2448846 288.397701,40.6728846 288.111701,39.9188846 C287.643701,38.5668846 287.409701,36.3308846 287.383701,34.6668846 L287.383701,33.8348846 C287.383701,32.6388846 287.539701,30.9228846 288.527701,30.9228846 C288.579701,30.9228846 288.839701,30.9748846 288.917701,30.9748846 C289.671701,31.1048846 289.983701,31.7028846 289.983701,32.3268846 C289.983701,33.0288846 289.827701,33.8088846 289.801701,34.4588846 Z M290.919701,26.1648846 L290.919701,26.4768846 C290.867701,27.0228846 290.191701,27.6728846 289.567701,27.7248846 L289.307701,27.7248846 C288.683701,27.7248846 288.423701,27.1268846 288.423701,26.6328846 C288.423701,25.9568846 288.891701,25.1508846 289.541701,25.0728846 L289.645701,25.0728846 C290.243701,25.0728846 290.919701,25.5928846 290.919701,26.1648846 Z M296.561701,41.0368846 C294.533701,41.0368846 293.025701,39.1388846 293.025701,36.7988846 C293.025701,33.8608846 293.779701,30.9228846 297.289701,30.9228846 C299.785701,30.9228846 300.747701,33.1588846 300.747701,35.2648846 C300.747701,37.8908846 299.473701,41.0368846 296.561701,41.0368846 Z M296.717701,39.0348846 C298.511701,39.0348846 299.083701,36.7468846 299.083701,35.1088846 C299.083701,34.0428846 298.537701,32.8728846 297.471701,32.8728846 C295.339701,32.8728846 295.131701,35.0828846 295.131701,36.5908846 C295.131701,37.9948846 295.651701,39.0348846 296.717701,39.0348846 Z M305.583701,33.0288846 C305.375701,33.5748846 305.323701,34.3028846 305.323701,35.9408846 L305.323701,36.9028846 C305.375701,37.4748846 305.375701,37.7088846 305.557701,37.7088846 C305.661701,37.7088846 305.895701,36.8508846 306.233701,36.0708846 C307.325701,33.5488846 308.495701,32.1448846 309.795701,32.1448846 C312.395701,32.1448846 311.329701,37.1628846 313.071701,39.0608846 C313.305701,39.3208846 313.721701,39.5288846 313.721701,39.8668846 C313.721701,40.5428846 313.201701,40.7508846 312.681701,40.7508846 C312.343701,40.7508846 312.109701,40.6468846 311.745701,40.4908846 C310.419701,39.8148846 310.081701,37.9688846 309.769701,36.3828846 C309.535701,35.2388846 309.041701,34.8228846 308.755701,34.8228846 C307.975701,34.8228846 306.987701,37.7868846 306.519701,38.8008846 C306.129701,39.6068846 305.843701,40.7248846 305.219701,40.7248846 C304.751701,40.7248846 304.283701,40.7248846 303.971701,40.2308846 C303.295701,39.1388846 303.009701,36.5908846 303.009701,35.5248846 C303.009701,32.7428846 303.295701,31.3648846 304.413701,31.3648846 C305.167701,31.3648846 305.687701,32.0668846 305.687701,32.6648846 C305.687701,32.7688846 305.661701,32.8468846 305.583701,33.0288846 Z M325.057701,40.9588846 C325.057701,41.4528846 324.537701,41.7908846 323.965701,41.7908846 C322.795701,41.7908846 322.639701,32.6648846 322.639701,29.7788846 L322.639701,29.3628846 C322.639701,28.4008846 322.821701,25.8268846 324.069701,25.8268846 C324.719701,25.8268846 325.291701,26.0608846 325.343701,26.5028846 C325.343701,26.6068846 325.343701,26.6848846 325.317701,26.7368846 C324.979701,29.0248846 324.953701,31.2868846 324.953701,33.2888846 L324.953701,33.4708846 C329.269701,32.8728846 330.569701,30.3768846 330.569701,28.3228846 C330.569701,25.4108846 327.709701,24.0848846 324.147701,24.0848846 C322.561701,24.0848846 320.871701,24.2928846 319.285701,24.8908846 C319.129701,24.9688846 318.973701,25.0208846 318.869701,25.0208846 C318.557701,25.0208846 318.427701,24.2408846 318.427701,23.8508846 C318.427701,22.0568846 321.573701,22.0048846 323.237701,22.0048846 L323.497701,22.0048846 C327.761701,22.0048846 333.039701,23.9548846 333.039701,28.2968846 C333.039701,32.0928846 328.567701,34.3548846 324.953701,34.7708846 C324.953701,36.8248846 324.979701,38.8788846 325.057701,40.9588846 Z M337.563701,39.9968846 C338.473701,39.9968846 339.461701,39.5028846 340.215701,38.4888846 C340.475701,38.1768846 340.553701,37.9168846 340.891701,37.9168846 C341.281701,37.9168846 341.411701,38.3588846 341.411701,38.7228846 C341.411701,40.0488846 339.045701,41.4268846 337.043701,41.4268846 C333.923701,41.4268846 332.597701,38.7488846 332.597701,36.1748846 C332.597701,33.2368846 334.313701,30.7408846 337.277701,30.7408846 C338.473701,30.7408846 339.721701,31.5728846 339.721701,32.9508846 C339.721701,33.7308846 339.487701,34.5108846 339.071701,35.2128846 C338.291701,36.5388846 336.731701,37.5268846 335.223701,38.2548846 C335.717701,39.4248846 336.601701,39.9968846 337.563701,39.9968846 Z M337.875701,33.4968846 C337.875701,33.3408846 337.745701,32.6648846 336.965701,32.6648846 C335.197701,32.6648846 334.859701,34.9268846 334.859701,36.1228846 C334.859701,36.4348846 334.885701,36.7468846 334.911701,37.0068846 C336.913701,36.2268846 337.875701,34.7448846 337.875701,33.4968846 Z M346.065701,41.0368846 C344.037701,41.0368846 342.529701,39.1388846 342.529701,36.7988846 C342.529701,33.8608846 343.283701,30.9228846 346.793701,30.9228846 C349.289701,30.9228846 350.251701,33.1588846 350.251701,35.2648846 C350.251701,37.8908846 348.977701,41.0368846 346.065701,41.0368846 Z M346.221701,39.0348846 C348.015701,39.0348846 348.587701,36.7468846 348.587701,35.1088846 C348.587701,34.0428846 348.041701,32.8728846 346.975701,32.8728846 C344.843701,32.8728846 344.635701,35.0828846 344.635701,36.5908846 C344.635701,37.9948846 345.155701,39.0348846 346.221701,39.0348846 Z M354.177701,47.7188846 C353.969701,47.7968846 353.657701,47.7968846 353.605701,47.7968846 C353.293701,47.7968846 353.111701,47.2768846 353.007701,46.6268846 C352.617701,43.7408846 352.461701,40.5168846 352.461701,37.5528846 C352.461701,36.2268846 352.461701,34.7188846 352.591701,33.3928846 C352.747701,31.8588846 352.981701,29.9608846 354.021701,29.9608846 C354.671701,29.9608846 355.321701,30.1948846 355.321701,30.6888846 C355.321701,30.7408846 355.321701,30.7928846 355.295701,30.8708846 C355.217701,31.2348846 355.165701,31.5988846 355.113701,31.9628846 C356.179701,31.3648846 357.245701,31.1828846 358.259701,31.1828846 C359.949701,31.1828846 361.353701,32.1708846 361.353701,33.9648846 C361.353701,37.7088846 357.973701,40.6208846 354.541701,40.6208846 L354.541701,41.5308846 C354.541701,43.5068846 354.775701,45.1448846 354.775701,46.7828846 C354.775701,47.3548846 354.567701,47.5628846 354.177701,47.7188846 Z M358.935701,34.4068846 C358.935701,33.4968846 358.363701,32.7688846 357.557701,32.7688846 C356.647701,32.7688846 355.711701,33.0548846 354.879701,33.5748846 C354.645701,35.5768846 354.541701,37.5268846 354.489701,39.2688846 C357.141701,38.7748846 358.935701,37.1368846 358.935701,34.4068846 Z M366.423701,40.0228846 C366.475701,40.1268846 366.657701,40.3608846 366.657701,40.7248846 C366.631701,41.1408846 366.137701,41.3488846 365.617701,41.3488846 C365.149701,41.3488846 364.577701,40.9588846 364.343701,40.4648846 C363.303701,38.2808846 363.225701,34.0948846 363.225701,31.6508846 C363.225701,29.9348846 363.329701,28.0108846 363.407701,26.9708846 C363.485701,25.5668846 363.667701,23.8248846 364.837701,23.8248846 C365.513701,23.8248846 366.241701,24.1628846 366.267701,24.6048846 C366.267701,24.6828846 366.267701,24.8648846 366.241701,24.9168846 C365.825701,27.6208846 365.487701,30.7668846 365.487701,33.1848846 C365.487701,33.6268846 365.487701,34.0688846 365.513701,34.5108846 C365.565701,36.2788846 365.695701,38.6968846 366.423701,40.0228846 Z M376.668039,37.604643 C376.667979,37.6046389 376.667866,37.6047191 376.667701,37.6048846 C376.667773,37.6048846 376.667844,37.6048846 376.667916,37.6048846 L376.668039,37.604643 Z M376.667916,37.6048846 C377.083781,37.6050195 377.317701,37.994961 377.317701,38.4368846 C377.317701,40.1788846 374.587701,41.1148846 373.001701,41.1148846 C370.037701,41.1148846 368.711701,38.3588846 368.711701,35.8888846 C368.711701,33.0808846 370.271701,30.6888846 373.079701,30.6888846 C374.561701,30.6888846 375.315701,31.6768846 375.315701,32.8208846 C375.315701,34.9268846 373.391701,36.7988846 371.415701,38.2288846 C371.831701,39.1388846 372.559701,39.6588846 373.573701,39.6588846 C375.407951,39.6588846 376.677459,37.6052791 376.668039,37.604643 L376.667916,37.6048846 Z M373.521701,33.2108846 C373.521701,33.0288846 373.391701,32.6388846 372.871701,32.6388846 C371.181701,32.6388846 370.999701,34.8748846 370.999701,36.0188846 C370.999701,36.3828846 370.999701,36.7208846 371.051701,37.0328846 C372.793701,35.6288846 373.521701,34.3808846 373.521701,33.2108846 Z M161.127701,66.9248846 C161.049701,66.6128846 160.971701,66.3008846 160.971701,66.0148846 C160.971701,65.1308846 161.621701,64.6108846 162.297701,64.4288846 C162.479701,64.3768846 162.609701,64.3768846 162.713701,64.3768846 C163.077701,64.3768846 162.999701,64.6368846 163.181701,65.3128846 C163.805701,67.6788846 164.741701,73.0608846 165.859701,73.0608846 C167.341701,73.0608846 169.031701,64.6628846 169.031701,60.5548846 C169.031701,59.2808846 168.771701,58.7868846 168.771701,58.1108846 C168.771701,57.8768846 169.161701,57.1748846 169.811701,57.1748846 C170.981701,57.1748846 171.267701,58.0848846 171.267701,59.0468846 C171.267701,59.3328846 171.215701,59.6188846 171.189701,59.8788846 C170.565701,66.0928846 168.693701,75.1928846 165.547701,75.1928846 C164.273701,75.1928846 163.129701,73.2948846 161.959701,69.6808846 C161.049701,71.8648846 159.775701,75.0368846 158.111701,75.0368846 C157.331701,75.0368846 156.473701,74.3608846 155.667701,72.4888846 C154.185701,69.0308846 153.431701,63.0248846 153.431701,58.9948846 C153.431701,57.6168846 154.341701,56.7848846 155.199701,56.7848846 C155.589701,56.7848846 155.979701,56.8888846 155.979701,57.3568846 L155.901701,58.2668846 C155.953701,61.1788846 156.525701,68.5628846 157.617701,71.5008846 C157.903701,72.3068846 158.241701,72.6188846 158.579701,72.6188846 C159.255701,72.6188846 160.815701,69.2908846 161.153701,68.2248846 C161.179701,68.1728846 161.257701,67.9128846 161.309701,67.6528846 L161.127701,66.9248846 Z M182.265701,75.2708846 C181.095701,74.7508846 180.731701,73.1648846 180.393701,71.6568846 L179.951701,68.9528846 C179.873701,68.6148846 179.613701,68.1728846 179.093701,68.1728846 C178.859701,68.1728846 178.573701,68.5108846 178.313701,68.8228846 C177.793701,69.4728846 177.507701,70.5128846 175.947701,73.6068846 C175.583701,74.3088846 175.037701,75.2188846 174.231701,75.2188846 C173.867701,75.2188846 173.451701,74.8288846 173.321701,74.2828846 C172.619701,71.4748846 172.567701,68.4848846 172.567701,65.7028846 C172.567701,64.0388846 172.645701,62.4528846 172.723701,60.8408846 C172.801701,59.4888846 172.957701,58.1628846 173.373701,58.1628846 C174.803701,58.1628846 175.193701,58.8128846 175.193701,59.8008846 C175.193701,59.9828846 175.193701,60.1648846 175.167701,60.3468846 C174.907701,62.4268846 174.673701,65.2608846 174.673701,67.8348846 C174.673701,68.9528846 174.725701,71.4228846 174.855701,72.3328846 C174.881701,72.4628846 174.907701,72.5408846 174.959701,72.5408846 C175.037701,72.5408846 175.115701,72.3848846 175.167701,72.2028846 C176.025701,70.2268846 176.493701,68.6668846 177.325701,67.5228846 C177.949701,66.6388846 178.937701,65.8588846 180.133701,65.8588846 C181.771701,65.8588846 182.161701,67.6268846 182.291701,69.0308846 C182.499701,71.0068846 182.577701,71.9168846 182.733701,72.5148846 C182.889701,73.0868846 183.071701,73.6068846 183.227701,73.9448846 C183.331701,74.1788846 183.435701,74.4388846 183.435701,74.4908846 C183.435701,75.0368846 182.993701,75.3228846 182.577701,75.3228846 C182.473701,75.3228846 182.395701,75.3228846 182.265701,75.2708846 Z M188.817701,75.0628846 C186.451701,75.0628846 185.177701,73.0868846 185.177701,70.4088846 C185.177701,67.5748846 186.399701,65.1048846 189.441701,65.1048846 C191.989701,65.1048846 193.003701,67.3928846 193.003701,69.4728846 C193.003701,71.9688846 191.521701,74.9328846 188.817701,75.0628846 Z M189.051701,73.2168846 C190.897701,73.2168846 191.365701,70.8248846 191.365701,69.1608846 C191.365701,68.0688846 190.871701,67.0548846 189.597701,67.0548846 C187.621701,67.0548846 187.439701,69.4208846 187.439701,70.8248846 C187.439701,72.2548846 187.959701,73.2168846 189.051701,73.2168846 Z M204.105701,62.1668846 C204.027701,62.6088846 204.027701,63.0768846 204.027701,63.5188846 C204.027701,64.7668846 204.027701,65.8588846 204.053701,66.8208846 C205.951701,66.2228846 208.291701,65.7288846 210.371701,65.4168846 C210.371701,61.4128846 210.397701,57.4348846 212.087701,57.4348846 C212.581701,57.4348846 213.309701,57.4868846 213.309701,57.9808846 C213.309701,58.7348846 212.815701,61.3608846 212.633701,65.1828846 C213.023701,65.1308846 213.387701,65.1308846 213.725701,65.1308846 C213.959701,65.1308846 214.375701,65.1308846 214.375701,65.8068846 C214.375701,66.5088846 213.855701,67.2628846 213.231701,67.2628846 C212.997701,67.2628846 212.789701,67.2368846 212.581701,67.2368846 L212.581701,68.0168846 C212.581701,72.3068846 212.685701,74.8028846 212.685701,75.2188846 C212.685701,75.6348846 212.425701,75.6868846 212.191701,75.6868846 C211.255701,75.6868846 211.073701,74.5688846 210.995701,73.9448846 C210.631701,71.3448846 210.423701,69.8108846 210.371701,67.3148846 C208.161701,67.4968846 206.107701,68.0948846 204.079701,68.6928846 C204.235701,73.3468846 204.547701,74.0488846 204.547701,74.7508846 C204.547701,75.0628846 204.495701,75.3748846 204.105701,75.3748846 C203.299701,75.3748846 203.039701,74.8288846 202.857701,74.1008846 C202.571701,73.0608846 202.285701,71.4228846 202.077701,69.3168846 L201.635701,69.4208846 C201.505701,69.4468846 200.751701,69.7588846 200.673701,69.7588846 C200.491701,69.7588846 200.465701,69.1868846 200.465701,68.8748846 C200.465701,68.4588846 201.037701,68.0168846 201.921701,67.6008846 C201.791701,65.6768846 201.687701,63.4928846 201.687701,61.1528846 C201.687701,59.9308846 201.765701,56.2648846 203.273701,56.2648846 C203.923701,56.2648846 204.495701,56.4988846 204.521701,56.9148846 C204.521701,57.0448846 204.521701,57.3568846 204.495701,57.4088846 C204.261701,58.8388846 204.157701,60.5028846 204.105701,62.1668846 Z M220.745701,65.0788846 C221.603701,65.0788846 222.513701,65.3388846 222.955701,66.2228846 C223.059701,66.4048846 223.189701,66.7168846 223.189701,67.0288846 C223.189701,67.4188846 222.773701,67.9128846 222.409701,67.9128846 C222.331701,67.9128846 222.201701,67.7568846 222.019701,67.4708846 C221.785701,67.1068846 221.655701,67.0288846 221.031701,67.0288846 C219.471701,67.0288846 218.665701,68.8488846 218.665701,70.6948846 C218.665701,71.5008846 218.717701,72.9828846 220.069701,72.9828846 C221.629701,72.9828846 222.773701,70.1748846 223.241701,68.7968846 C223.657701,67.5488846 224.125701,66.8728846 224.515701,66.8728846 C224.879701,66.8728846 225.711701,66.8728846 225.711701,67.8088846 C225.711701,69.1088846 225.763701,70.3308846 225.867701,71.2928846 C225.971701,72.1768846 226.153701,72.9568846 226.465701,73.7108846 C226.569701,73.9448846 226.621701,74.1008846 226.621701,74.2048846 C226.621701,74.6208846 226.153701,74.9328846 225.789701,74.9328846 C224.801701,74.9328846 223.943701,73.0088846 223.839701,70.3308846 C222.903701,72.4368846 221.395701,74.7248846 219.601701,74.7248846 C217.547701,74.7248846 216.455701,72.8528846 216.455701,70.7208846 C216.455701,67.9648846 217.625701,65.0788846 220.745701,65.0788846 Z M233.277701,73.1128846 C234.395701,73.1128846 235.435701,69.7588846 235.513701,68.0948846 L235.513701,67.8608846 C235.513701,67.0028846 235.253701,66.6388846 235.253701,66.0928846 C235.305701,65.5988846 236.085701,65.3388846 236.631701,65.3388846 C237.437701,65.3388846 237.645701,65.8068846 237.645701,66.7948846 C237.645701,67.0808846 237.619701,67.4708846 237.593701,67.8608846 C237.463701,70.2788846 235.331701,75.0888846 232.783701,75.0888846 C231.431701,75.0888846 230.261701,73.4768846 229.507701,71.7348846 C229.273701,71.1628846 228.389701,68.9268846 228.389701,67.3148846 C228.389701,65.9888846 228.597701,65.3908846 229.429701,65.3908846 C230.417701,65.3908846 231.301701,66.0148846 231.301701,67.2628846 C231.301701,67.9388846 231.145701,68.7448846 231.145701,69.2388846 C231.249701,70.0708846 232.107701,73.1128846 233.277701,73.1128846 Z M244.197701,73.6588846 C246.043701,73.6588846 247.317701,71.5788846 247.291701,71.6048846 C247.707701,71.6048846 247.941701,71.9948846 247.941701,72.4368846 C247.941701,74.1788846 245.211701,75.1148846 243.625701,75.1148846 C240.661701,75.1148846 239.335701,72.3588846 239.335701,69.8888846 C239.335701,67.0808846 240.895701,64.6888846 243.703701,64.6888846 C245.185701,64.6888846 245.939701,65.6768846 245.939701,66.8208846 C245.939701,68.9268846 244.015701,70.7988846 242.039701,72.2288846 C242.455701,73.1388846 243.183701,73.6588846 244.197701,73.6588846 Z M244.145701,67.2108846 C244.145701,67.0288846 244.015701,66.6388846 243.495701,66.6388846 C241.805701,66.6388846 241.623701,68.8748846 241.623701,70.0188846 C241.623701,70.3828846 241.623701,70.7208846 241.675701,71.0328846 C243.417701,69.6288846 244.145701,68.3808846 244.145701,67.2108846 Z M266.895701,68.0168846 C267.077701,72.3068846 267.493701,74.8028846 267.493701,75.2188846 C267.467701,75.6088846 267.051701,75.6608846 266.791701,75.6608846 C265.855701,75.6608846 265.647701,74.2828846 265.543701,73.6588846 C265.127701,71.1888846 264.867701,69.9148846 264.685701,67.7308846 C263.541701,71.2928846 261.565701,75.3488846 259.329701,75.3488846 C259.277701,75.3488846 259.251701,75.3228846 259.173701,75.3228846 C255.949701,74.9068846 255.481701,70.1228846 255.247701,65.5468846 C255.221701,64.7928846 255.169701,63.8828846 255.169701,62.9728846 C255.169701,62.5828846 255.169701,62.2188846 255.195701,61.8288846 C255.221701,61.2048846 255.221701,60.5808846 255.273701,59.9048846 C255.351701,59.1248846 255.533701,56.9408846 256.729701,56.9408846 C257.353701,56.9408846 258.289701,57.2008846 258.289701,57.6168846 L258.289701,57.8768846 C258.289701,57.9028846 257.925701,61.4648846 257.847701,63.4148846 C257.821701,63.9868846 257.795701,64.8448846 257.795701,65.8328846 C257.795701,68.9788846 258.081701,73.3468846 259.797701,73.3468846 C261.279701,73.3468846 263.801701,67.9648846 264.529701,64.6108846 C264.503701,63.8568846 264.503701,63.1028846 264.503701,62.4008846 C264.503701,59.7748846 264.815701,57.7988846 266.037701,57.7988846 C266.557701,57.7988846 267.285701,57.9028846 267.285701,58.3968846 L267.285701,58.5528846 C267.285701,59.4628846 266.895701,61.9588846 266.869701,65.7288846 C266.869701,66.4828846 266.869701,67.1588846 266.895701,68.0168846 Z M274.175701,72.1248846 C274.175701,70.9548846 270.171701,70.3828846 270.067701,67.8608846 L270.067701,67.7308846 C270.067701,65.5468846 272.511701,64.4808846 274.565701,64.3508846 C275.527701,64.3508846 275.865701,65.0268846 275.865701,65.5988846 C275.865701,66.4568846 272.173701,66.1448846 272.173701,67.7828846 C272.173701,68.6928846 274.747701,69.8368846 275.371701,70.2268846 C276.177701,70.7468846 276.593701,71.3448846 276.593701,72.1508846 C276.593701,74.3348846 273.005701,75.3748846 271.315701,75.3748846 C270.613701,75.3748846 269.755701,75.2188846 269.755701,74.4648846 C269.755701,74.1788846 269.859701,73.9188846 270.119701,73.9188846 C270.379701,73.9188846 270.561701,73.9708846 270.769701,73.9708846 C271.861701,73.9708846 274.175701,73.4508846 274.175701,72.1248846 Z M283.301701,73.9968846 C284.211701,73.9968846 285.199701,73.5028846 285.953701,72.4888846 C286.213701,72.1768846 286.291701,71.9168846 286.629701,71.9168846 C287.019701,71.9168846 287.149701,72.3588846 287.149701,72.7228846 C287.149701,74.0488846 284.783701,75.4268846 282.781701,75.4268846 C279.661701,75.4268846 278.335701,72.7488846 278.335701,70.1748846 C278.335701,67.2368846 280.051701,64.7408846 283.015701,64.7408846 C284.211701,64.7408846 285.459701,65.5728846 285.459701,66.9508846 C285.459701,67.7308846 285.225701,68.5108846 284.809701,69.2128846 C284.029701,70.5388846 282.469701,71.5268846 280.961701,72.2548846 C281.455701,73.4248846 282.339701,73.9968846 283.301701,73.9968846 Z M283.613701,67.4968846 C283.613701,67.3408846 283.483701,66.6648846 282.703701,66.6648846 C280.935701,66.6648846 280.597701,68.9268846 280.597701,70.1228846 C280.597701,70.4348846 280.623701,70.7468846 280.649701,71.0068846 C282.651701,70.2268846 283.613701,68.7448846 283.613701,67.4968846 Z M295.183701,64.5328846 C295.183701,61.7248846 295.261701,57.4868846 296.795701,57.4868846 C297.445701,57.4868846 297.939701,57.7728846 297.965701,58.2148846 C297.965701,58.2928846 297.965701,58.4748846 297.939701,58.5268846 C297.601701,60.5808846 297.263701,63.1028846 297.263701,64.9488846 L297.263701,65.3388846 C297.263701,68.4328846 297.289701,71.1888846 298.459701,73.9708846 C298.563701,74.2048846 298.667701,74.4648846 298.667701,74.5168846 C298.667701,75.0628846 298.251701,75.3488846 297.835701,75.3488846 C296.691701,75.3488846 296.015701,73.3468846 295.651701,70.9808846 C294.949701,72.9048846 293.675701,74.8288846 291.335701,74.8288846 C289.671701,74.8288846 288.189701,73.1388846 288.189701,70.7988846 C288.189701,67.6268846 290.087701,65.4428846 292.323701,65.4428846 C293.207701,65.4428846 294.533701,65.7288846 295.235701,66.7428846 C295.209701,65.8848846 295.183701,65.1308846 295.183701,64.5328846 Z M291.829701,73.1648846 C293.571701,73.1648846 294.897701,70.2788846 295.391701,68.9008846 C295.391701,68.8748846 295.365701,68.8228846 295.365701,68.7708846 C295.027701,68.2768846 294.091701,67.0808846 292.713701,67.0808846 C291.439701,67.0808846 290.295701,68.5108846 290.295701,70.6948846 C290.295701,72.2288846 291.023701,73.1648846 291.829701,73.1648846 Z M322.587701,67.1588846 C320.949701,67.1588846 319.987701,69.2128846 319.597701,70.5908846 C319.415701,71.2668846 319.337701,71.9948846 319.337701,72.7228846 L319.337701,73.4508846 C319.337701,75.0888846 318.765701,75.5048846 317.803701,75.5048846 C317.205701,75.5048846 317.179701,75.0108846 317.179701,74.2568846 L317.179701,74.0748846 C317.179701,71.9428846 317.023701,70.7468846 316.919701,69.9148846 C316.607701,67.4968846 315.853701,67.1588846 314.683701,67.1588846 C313.201701,67.1588846 311.745701,67.6528846 310.211701,68.3028846 L310.211701,68.4328846 C310.211701,69.0048846 310.237701,69.6288846 310.237701,70.2268846 L310.237701,73.2428846 C310.237701,73.7368846 310.263701,74.2308846 310.263701,75.0368846 C310.263701,75.4788846 310.081701,76.0768846 309.405701,76.0768846 C309.119701,76.0768846 308.937701,75.6868846 308.781701,75.2188846 C308.599701,74.6468846 308.313701,71.9948846 308.105701,69.2388846 L306.493701,70.1488846 C306.363701,70.2008846 306.129701,70.3048846 305.973701,70.3048846 C305.869701,70.3048846 305.791701,70.2528846 305.791701,70.0968846 C305.791701,68.7448846 305.999701,68.4328846 307.013701,68.0688846 L308.001701,67.7048846 C307.949701,66.6128846 307.923701,65.5208846 307.923701,64.6108846 C307.923701,63.3628846 307.923701,60.6848846 309.405701,60.6848846 C310.107701,60.6848846 310.627701,60.9188846 310.679701,61.3608846 C310.679701,61.4648846 310.679701,61.5428846 310.653701,61.5948846 C310.419701,63.1028846 310.289701,65.1828846 310.237701,66.8988846 C311.953701,66.3008846 313.903701,65.7288846 315.359701,65.7288846 C316.997701,65.7288846 318.375701,66.5608846 318.947701,68.6148846 C319.883701,66.4308846 321.417701,65.1828846 322.977701,65.1828846 C323.705701,65.1828846 324.433701,65.6248846 324.433701,66.3788846 C324.433701,66.9248846 324.147701,67.6268846 323.601701,67.6268846 C323.601701,67.6268846 323.497701,67.5488846 323.367701,67.4448846 C323.211701,67.3148846 323.003701,67.1588846 322.587701,67.1588846 Z M315.931701,56.2908846 C316.945701,56.2908846 318.661701,56.4208846 319.415701,56.7068846 C319.805701,56.8628846 320.143701,57.0968846 320.143701,57.6168846 C320.143701,58.2408846 319.883701,59.1508846 319.545701,59.1508846 C319.545701,59.1508846 317.803701,58.6308846 314.137701,58.6308846 C312.655701,58.6308846 308.131701,59.0988846 306.727701,59.7228846 C306.389701,59.8788846 305.791701,59.9828846 305.453701,59.9828846 C305.167701,59.9568846 305.011701,59.5408846 305.011701,59.0988846 C305.063701,58.7348846 305.167701,58.6048846 305.401701,58.4748846 C306.467701,57.8768846 310.133701,56.2908846 315.931701,56.2908846 Z M329.997701,73.9968846 C330.907701,73.9968846 331.895701,73.5028846 332.649701,72.4888846 C332.909701,72.1768846 332.987701,71.9168846 333.325701,71.9168846 C333.715701,71.9168846 333.845701,72.3588846 333.845701,72.7228846 C333.845701,74.0488846 331.479701,75.4268846 329.477701,75.4268846 C326.357701,75.4268846 325.031701,72.7488846 325.031701,70.1748846 C325.031701,67.2368846 326.747701,64.7408846 329.711701,64.7408846 C330.907701,64.7408846 332.155701,65.5728846 332.155701,66.9508846 C332.155701,67.7308846 331.921701,68.5108846 331.505701,69.2128846 C330.725701,70.5388846 329.165701,71.5268846 327.657701,72.2548846 C328.151701,73.4248846 329.035701,73.9968846 329.997701,73.9968846 Z M330.309701,67.4968846 C330.309701,67.3408846 330.179701,66.6648846 329.399701,66.6648846 C327.631701,66.6648846 327.293701,68.9268846 327.293701,70.1228846 C327.293701,70.4348846 327.319701,70.7468846 327.345701,71.0068846 C329.347701,70.2268846 330.309701,68.7448846 330.309701,67.4968846 Z M339.383701,72.1248846 C339.383701,70.9548846 335.379701,70.3828846 335.275701,67.8608846 L335.275701,67.7308846 C335.275701,65.5468846 337.719701,64.4808846 339.773701,64.3508846 C340.735701,64.3508846 341.073701,65.0268846 341.073701,65.5988846 C341.073701,66.4568846 337.381701,66.1448846 337.381701,67.7828846 C337.381701,68.6928846 339.955701,69.8368846 340.579701,70.2268846 C341.385701,70.7468846 341.801701,71.3448846 341.801701,72.1508846 C341.801701,74.3348846 338.213701,75.3748846 336.523701,75.3748846 C335.821701,75.3748846 334.963701,75.2188846 334.963701,74.4648846 C334.963701,74.1788846 335.067701,73.9188846 335.327701,73.9188846 C335.587701,73.9188846 335.769701,73.9708846 335.977701,73.9708846 C337.069701,73.9708846 339.383701,73.4508846 339.383701,72.1248846 Z M353.423701,75.2708846 C352.253701,74.7508846 351.889701,73.1648846 351.551701,71.6568846 L351.109701,68.9528846 C351.031701,68.6148846 350.771701,68.1728846 350.251701,68.1728846 C350.017701,68.1728846 349.731701,68.5108846 349.471701,68.8228846 C348.951701,69.4728846 348.665701,70.5128846 347.105701,73.6068846 C346.741701,74.3088846 346.195701,75.2188846 345.389701,75.2188846 C345.025701,75.2188846 344.609701,74.8288846 344.479701,74.2828846 C343.777701,71.4748846 343.725701,68.4848846 343.725701,65.7028846 C343.725701,64.0388846 343.803701,62.4528846 343.881701,60.8408846 C343.959701,59.4888846 344.115701,58.1628846 344.531701,58.1628846 C345.961701,58.1628846 346.351701,58.8128846 346.351701,59.8008846 C346.351701,59.9828846 346.351701,60.1648846 346.325701,60.3468846 C346.065701,62.4268846 345.831701,65.2608846 345.831701,67.8348846 C345.831701,68.9528846 345.883701,71.4228846 346.013701,72.3328846 C346.039701,72.4628846 346.065701,72.5408846 346.117701,72.5408846 C346.195701,72.5408846 346.273701,72.3848846 346.325701,72.2028846 C347.183701,70.2268846 347.651701,68.6668846 348.483701,67.5228846 C349.107701,66.6388846 350.095701,65.8588846 351.291701,65.8588846 C352.929701,65.8588846 353.319701,67.6268846 353.449701,69.0308846 C353.657701,71.0068846 353.735701,71.9168846 353.891701,72.5148846 C354.047701,73.0868846 354.229701,73.6068846 354.385701,73.9448846 C354.489701,74.1788846 354.593701,74.4388846 354.593701,74.4908846 C354.593701,75.0368846 354.151701,75.3228846 353.735701,75.3228846 C353.631701,75.3228846 353.553701,75.3228846 353.423701,75.2708846 Z M357.921701,74.4648846 C358.129701,74.5428846 358.441701,74.5688846 358.805701,74.5688846 C362.133701,74.5688846 366.683701,73.7108846 366.683701,69.5508846 C366.527701,67.4968846 365.019701,67.0548846 362.653701,67.0548846 C362.185701,67.0548846 361.223701,67.3668846 360.885701,67.3668846 C360.729701,67.3668846 360.599701,67.3148846 360.469701,67.2628846 C360.469701,67.6528846 360.469701,68.0688846 360.495701,68.5108846 C360.547701,69.6548846 360.755701,70.9028846 360.885701,72.1248846 C360.911701,72.3848846 360.989701,73.1908846 361.015701,73.6588846 C361.015701,73.6588846 361.041701,73.7368846 361.041701,73.8148846 C361.041701,73.9448846 360.963701,74.1008846 360.495701,74.1008846 C359.741701,74.1008846 359.351701,73.2688846 359.169701,72.4368846 C358.779701,70.6168846 358.571701,68.1208846 358.467701,65.6508846 C358.441701,65.1568846 358.441701,64.6628846 358.441701,64.1688846 C358.441701,62.0888846 358.727701,60.2428846 360.027701,60.2428846 C360.703701,60.2428846 361.275701,60.5028846 361.275701,60.7888846 C361.275701,60.9968846 360.651701,62.7648846 360.495701,65.8068846 C360.859701,65.7288846 361.301701,65.6248846 361.665701,65.3648846 C362.939701,64.5848846 364.707701,63.2328846 364.915701,61.0228846 C364.863701,59.3328846 363.355701,59.1768846 361.873701,59.1768846 C360.443701,59.1768846 359.429701,59.2288846 357.947701,59.7748846 C357.011701,60.0608846 355.997701,60.5288846 355.321701,60.9968846 C355.009701,60.8928846 354.853701,60.5808846 354.853701,60.2168846 C354.957701,59.4888846 355.477701,58.6828846 358.025701,58.0328846 C359.507701,57.6688846 360.963701,57.3568846 362.601701,57.3568846 C364.603701,57.3568846 367.359701,57.8508846 367.359701,60.2948846 C367.359701,62.0888846 365.331701,65.0788846 363.069701,65.7288846 C363.303701,65.7028846 363.563701,65.7028846 363.797701,65.7028846 C366.111701,65.7028846 369.049701,66.6128846 369.049701,69.4728846 C369.049701,74.7248846 362.757701,76.0768846 358.311701,76.0768846 C357.427701,76.0768846 356.387701,75.9208846 356.387701,75.0108846 C356.387701,74.5168846 356.647701,74.0488846 356.933701,74.0488846 C357.349701,74.0488846 357.271701,74.2308846 357.921701,74.4648846 Z M374.587701,75.0368846 C372.559701,75.0368846 371.051701,73.1388846 371.051701,70.7988846 C371.051701,67.8608846 371.805701,64.9228846 375.315701,64.9228846 C377.811701,64.9228846 378.773701,67.1588846 378.773701,69.2648846 C378.773701,71.8908846 377.499701,75.0368846 374.587701,75.0368846 Z M374.743701,73.0348846 C376.537701,73.0348846 377.109701,70.7468846 377.109701,69.1088846 C377.109701,68.0428846 376.563701,66.8728846 375.497701,66.8728846 C373.365701,66.8728846 373.157701,69.0828846 373.157701,70.5908846 C373.157701,71.9948846 373.677701,73.0348846 374.743701,73.0348846 Z M384.467701,75.0628846 C382.101701,75.0628846 380.827701,73.0868846 380.827701,70.4088846 C380.827701,67.5748846 382.049701,65.1048846 385.091701,65.1048846 C387.639701,65.1048846 388.653701,67.3928846 388.653701,69.4728846 C388.653701,71.9688846 387.171701,74.9328846 384.467701,75.0628846 Z M384.701701,73.2168846 C386.547701,73.2168846 387.015701,70.8248846 387.015701,69.1608846 C387.015701,68.0688846 386.521701,67.0548846 385.247701,67.0548846 C383.271701,67.0548846 383.089701,69.4208846 383.089701,70.8248846 C383.089701,72.2548846 383.609701,73.2168846 384.701701,73.2168846 Z M393.359701,60.3728846 C392.917701,63.0508846 392.761701,65.9108846 392.761701,68.8228846 C392.761701,69.1608846 392.761701,69.5248846 392.787701,69.8888846 C394.425701,67.3148846 395.803701,65.9628846 396.895701,65.3128846 C397.233701,65.1308846 397.649701,64.9228846 398.013701,64.9228846 C398.663701,64.9228846 399.235701,65.3648846 399.235701,66.3788846 C399.235701,66.7428846 398.663701,66.7428846 397.935701,67.2108846 C396.843701,67.8868846 395.933701,68.5888846 395.101701,69.4208846 C396.349701,71.1628846 398.091701,72.8788846 399.963701,73.7628846 C400.093701,73.8148846 400.145701,73.9188846 400.145701,74.0228846 C400.145701,74.8028846 399.365701,75.1148846 398.923701,75.1148846 C397.103701,75.1148846 395.283701,73.0868846 393.801701,70.9028846 L392.943701,71.9168846 C393.073701,73.1128846 393.203701,74.1788846 393.203701,74.4648846 C393.203701,75.1408846 393.073701,75.3748846 392.683701,75.3748846 C391.461701,75.3748846 391.279701,74.3608846 391.201701,73.4248846 C391.019701,71.1368846 390.863701,69.1088846 390.863701,66.6128846 C390.863701,64.1688846 390.941701,61.9588846 391.201701,59.2808846 C391.253701,58.7608846 391.461701,58.3448846 392.007701,58.3448846 C392.475701,58.3448846 393.463701,58.7868846 393.463701,59.5408846 C393.463701,59.6708846 393.411701,59.8528846 393.359701,60.3728846 Z M401.627701,73.7628846 L401.861701,73.7628846 C402.225701,73.7628846 402.641701,73.8668846 403.187701,73.8668846 C404.383701,73.8668846 405.683701,73.6328846 405.683701,72.5148846 C405.683701,71.2928846 401.549701,70.2008846 401.549701,67.6788846 L401.549701,67.5228846 C401.679701,65.2868846 404.409701,64.4288846 406.047701,64.4288846 L406.359701,64.4288846 C407.087701,64.4808846 407.347701,64.6888846 407.347701,65.2088846 C407.347701,65.3388846 407.321701,65.4948846 407.295701,65.6768846 C407.113701,66.6648846 403.837701,65.9888846 403.837701,67.6788846 C403.837701,68.5108846 404.877701,69.1348846 405.735701,69.8108846 C406.957701,70.7468846 408.075701,71.3188846 408.075701,72.5668846 L408.075701,72.6968846 C407.997701,74.4908846 405.241701,75.3488846 403.629701,75.4268846 L403.369701,75.4268846 C402.927701,75.4268846 402.303701,75.4008846 402.069701,75.3488846 C401.471701,75.2448846 401.055701,74.6208846 401.055701,74.2048846 C401.055701,73.9708846 401.211701,73.7628846 401.627701,73.7628846 Z" id="Join-24-Million-Peop" fill="#FFFFFF" transform="translate(280.753701, 49.040885) rotate(-4.000000) translate(-280.753701, -49.040885) "></path>
        </g>
    </g>
</svg>