<svg xmlns="http://www.w3.org/2000/svg" viewBox="0 0 37 37" width="43" height="auto"><defs><style>.a{fill:#cdd4d9;}</style></defs><title>close</title><path class="a" d="M36.11,29.55a2.79,2.79,0,0,1-.84,2l-4.1,4.1a2.91,2.91,0,0,1-4.1,0l-8.86-8.86L9.35,35.7a2.79,2.79,0,0,1-2,.84,2.79,2.79,0,0,1-2-.84l-4.1-4.1a2.91,2.91,0,0,1,0-4.1L10,18.64,1.16,9.78a2.79,2.79,0,0,1-.84-2,2.79,2.79,0,0,1,.84-2l4.1-4.1a2.79,2.79,0,0,1,2-.84,2.79,2.79,0,0,1,2,.84l8.86,8.86,8.86-8.86a2.91,2.91,0,0,1,4.1,0l4.1,4.1a2.79,2.79,0,0,1,.84,2,2.79,2.79,0,0,1-.84,2l-8.86,8.86,8.86,8.86A2.79,2.79,0,0,1,36.11,29.55Z"/></svg>
