<?xml version="1.0" encoding="UTF-8"?>
<svg width="41px" height="40px" viewBox="0 0 41 40" version="1.1" xmlns="http://www.w3.org/2000/svg" xmlns:xlink="http://www.w3.org/1999/xlink">
    <!-- Generator: Sketch 52.2 (67145) - http://www.bohemiancoding.com/sketch -->
    <title>Cnet</title>
    <desc>Created with Sketch.</desc>
    <g id="Final" stroke="none" stroke-width="1" fill="none" fill-rule="evenodd" opacity="0.8">
        <g id="Desktop-(max-width:-1600px)" transform="translate(-705.000000, -1266.000000)">
            <g id="FEATURED-IN-Top-dark" transform="translate(205.000000, 1240.000000)">
                <g id="LOGOS">
                    <g id="Group-29" transform="translate(117.000000, 26.000000)">
                        <g id="Cnet" transform="translate(383.000000, 0.000000)">
                            <g id="Group-3" transform="translate(0.000000, 0.033807)">
                                <polygon id="Clip-2" points="20.1980117 39.0011307 0 39.0011307 0 0.0542318206 20.1980117 0.0542318206 40.3960234 0.0542318206 40.3960234 39.0011307 20.1980117 39.0011307"></polygon>
                                <path d="M20.1978245,39.0011307 C31.3541892,39.0011307 40.3960234,30.2827493 40.3960234,19.5282975 C40.3960234,8.77287736 31.3541892,0.0542318206 20.1978245,0.0542318206 C9.04319464,0.0542318206 -9.13048988e-06,8.77287736 -9.13048988e-06,19.5282975 C-9.13048988e-06,30.2827493 9.04319464,39.0011307 20.1978245,39.0011307" id="Fill-1" fill="#062942"></path>
                            </g>
                            <polygon id="Fill-4" fill="#FFFFFF" points="12.5761561 31.1911323 13.9833474 31.1911323 13.9833474 9.08048448 12.5761561 9.08048448"></polygon>
                            <polygon id="Fill-6" fill="#FFFFFF" points="12.5761561 31.1911323 13.9833474 31.1911323 13.9833474 9.08048448 12.5761561 9.08048448"></polygon>
                            <path d="M6.80520167,17.1322635 C6.82948877,15.7260218 9.3353521,15.6849958 9.3353521,17.0672029 L9.35963921,18.264881 L11.271838,18.264881 L11.271838,17.1582349 C11.3927257,13.4581457 4.81594153,13.4605227 4.86497227,17.0672029 L4.86497227,23.4376811 C4.81594153,27.0450656 11.399391,27.1383866 11.2785946,23.4376811 L11.2785946,22.103367 L9.3353521,22.103367 L9.3353521,23.5320585 C9.3353521,24.9146178 6.83259314,24.9380361 6.80830603,23.5320585 L6.80830603,17.0672029 L6.80520167,17.1322635 Z" id="Fill-7" fill="#FFFFFF"></path>
                            <path d="M17.7462328,15.691405 C17.7462328,15.691405 18.0803175,15.2173168 18.955749,14.7485109 C20.0678428,14.152401 21.1552844,14.7476305 20.9951355,14.6783441 C21.8702931,15.0533888 22.2033734,15.9580742 22.2654608,16.9703428 L22.2654608,24.5149046 L23.4979858,24.5149046 L23.4979858,25.8979041 L20.3282445,25.8979041 L20.3268749,16.8804553 C20.3268749,15.5675346 18.0280911,15.609353 18.0052649,16.9442833 L18.0071823,16.8804553 L18.0071823,25.8979041 L15.1654082,25.8979041 L15.1654082,24.5117352 L16.0635746,24.5142884 L16.0635746,16.0658335 L14.9956723,16.0602871 L14.9956723,14.6783441 L17.7410285,14.6783441 L17.7462328,15.691405 Z" id="Fill-8" fill="#FFFFFF"></path>
                            <path d="M32.095996,23.4067003 C32.1600007,24.4203775 32.4925332,25.325415 33.3664125,25.7002837 C33.199781,25.6293245 33.7937195,25.9134253 34.4009885,25.9041813 C34.7174513,25.8998674 36.2665305,25.9017162 36.2665305,25.9017162 L36.2665305,24.5143148 C36.2665305,24.5143148 35.4836821,24.5050707 35.0697057,24.5087683 C34.5444285,24.514931 34.0882692,24.2728247 34.0511994,23.5568942 L34.0543037,16.0722867 L34.0511994,16.0603135 L35.9205761,16.0603135 L35.9205761,14.7005562 L34.0472732,14.7005562 L34.0543037,14.6783705 L34.0543037,11.774503 L32.0972742,11.774503 L32.095996,23.4067003 Z" id="Fill-9" fill="#FFFFFF"></path>
                            <path d="M26.0497207,17.0584519 C26.0803992,15.6728993 28.575032,15.6849606 28.575032,17.0671677 L28.5680015,19.1519234 L26.0497207,19.1525397 L26.0497207,17.0584519 Z M28.575032,22.1034198 L28.575032,23.5320233 C28.575032,24.9145826 26.0740078,24.9380009 26.0497207,23.5320233 L26.0497207,20.5565804 L30.1573461,20.5608943 C30.3546561,20.5608943 30.5149875,20.407795 30.5149875,20.2180717 L30.5129788,17.1582877 C30.6340491,13.4581105 24.0573562,13.4605756 24.1060217,17.0671677 L24.1060217,23.4376459 C24.0573562,27.0451184 30.6404404,27.1383513 30.5200092,23.4376459 L30.5200092,22.1034198 L28.575032,22.1034198 Z" id="Fill-10" fill="#FFFFFF"></path>
                        </g>
                    </g>
                </g>
            </g>
        </g>
    </g>
</svg>