<?xml version="1.0" encoding="UTF-8"?>
<svg width="215px" height="31px" viewBox="0 0 215 31" version="1.1" xmlns="http://www.w3.org/2000/svg" xmlns:xlink="http://www.w3.org/1999/xlink">
    <!-- Generator: Sketch 52.2 (67145) - http://www.bohemiancoding.com/sketch -->
    <title>New York Times</title>
    <desc>Created with Sketch.</desc>
    <g id="Final" stroke="none" stroke-width="1" fill="none" fill-rule="evenodd" opacity="0.8">
        <g id="Desktop-(max-width:-1600px)" transform="translate(-1062.000000, -1274.000000)">
            <g id="FEATURED-IN-Top-dark" transform="translate(205.000000, 1240.000000)">
                <g id="LOGOS">
                    <g id="Group-29" transform="translate(117.000000, 26.000000)">
                        <g id="New-York-Times" transform="translate(740.000000, 8.000000)">
                            <g id="Group-3" transform="translate(0.000000, 0.363057)">
                                <polygon id="Clip-2" points="4.98659978e-21 0.00825431178 4.98659978e-21 23.0898096 16.3123658 23.0898096 16.3123658 0.00825431178 0 0.00825431178"></polygon>
                                <path d="M3.19494975,13.2279265 C3.08640564,11.1909758 3.7067628,9.7870913 3.70749869,9.7870913 L6.14366995,8.69064301 L6.14366995,16.8651793 L4.8396689,17.5208947 C4.1622801,16.7229715 3.28068119,14.8193174 3.19494975,13.2279265 M13.2777773,0.0349021808 C12.8045986,-0.00965379468 12.6666188,-0.00965379468 12.037063,0.124014132 C12.7685398,0.262137655 13.6321094,0.244315265 14.0824754,1.02887173 C14.4684509,1.69721136 13.996376,2.20106519 13.7277754,2.39711148 C13.1515717,2.73610819 12.5164967,2.66927423 11.6967128,2.46840104 C9.58065465,1.95600732 7.20482656,0.948670977 5.43831724,0.694701917 C4.22703861,0.520562313 3.18538315,0.904115002 2.26441401,1.50116507 C1.20436124,2.28572154 0.674886773,3.4534594 0.754731081,4.75040958 C0.816913975,5.73992354 1.33203854,6.54230239 2.00942735,6.95221737 C2.38473239,7.17945284 2.59188606,7.19727523 2.59188606,7.19727523 C2.41490397,7.00160024 2.18089024,6.80072705 2.07970506,6.45764604 C1.90014735,5.85131347 2.16102115,5.17851825 2.58195151,4.79533686 C3.00251393,4.41623977 3.69793209,4.38950618 4.2612576,4.47416253 C4.825319,4.55881889 8.41316162,5.57506643 9.48903607,5.84240228 C10.2208809,6.02545308 11.4726336,6.36853409 12.5025148,6.48883522 L12.5025148,10.4335242 L10.6127435,11.9799879 L12.5017789,13.5264515 L12.5021468,19.0094356 C12.5021468,19.0094356 11.0719403,20.0836059 8.63429723,19.8114432 C7.20151504,19.6469574 5.52662431,18.4788482 4.97470513,17.7076585 L9.81356455,15.2611642 L9.81356455,6.79627145 L3.81383512,9.49747746 C4.17773383,8.48531422 5.03063294,7.17091295 6.02592719,6.51111321 C6.37510806,6.27942214 6.65953041,6.06109786 6.90531842,5.89141385 C6.37179654,5.94079672 6.22204247,6.03399297 5.84563359,6.17657209 C2.75451824,7.34468125 0.0766063821,10.4777089 0.00228126594,14.1105061 C-0.0356171844,15.960693 0.3783222,17.680925 1.30260285,19.156099 C2.61874612,21.2554281 4.54641584,22.459182 6.66872906,22.9002862 C8.48196754,23.2793833 10.17268,23.1590821 12.4274538,21.8974054 C13.6998115,21.1885941 14.7142389,19.9451111 15.2720452,18.6526165 C16.0119849,16.9368402 16.072328,15.5997896 15.9670955,14.9396186 C15.8563437,15.1935876 15.8077748,15.3276269 15.8077748,15.3276269 C14.6274036,17.7926862 12.7243863,18.8935901 12.7243863,18.8935901 L12.7240184,13.5264515 L14.6237242,11.9799879 L12.7243863,10.4286974 L12.7243863,6.48883522 C12.7243863,6.48883522 13.8480938,6.54230239 14.7775257,5.90923624 C15.6966551,5.28099699 15.9604724,4.80833235 16.1959579,3.89901915 C16.4605112,2.87868731 16.2883124,1.75550543 15.533287,1.01550494 C14.8224151,0.386894387 13.8790012,0.0883693513 13.2777773,0.0349021808" id="Fill-1" fill="#062942"></path>
                            </g>
                            <path d="M33.9010101,10.4086472 L36.6271229,15.097421 L33.9010101,17.1128363 L33.9010101,10.4086472 Z M36.5700913,20.8607364 L33.9010101,18.3384969 L33.901378,17.3979945 L39.2630889,13.4172894 L36.5487504,8.65685473 C36.5487504,8.65685473 34.7104916,9.78040791 33.4741926,10.5244927 C32.2386295,11.2644932 30.5799284,12.0802388 30.5799284,12.0802388 L30.5799284,19.8801336 L29.4742503,20.7764513 L29.6210608,20.9498484 L30.6995109,20.0724669 L34.0805678,23.156483 L39.9566673,18.458798 L39.8179517,18.289114 L36.5700913,20.8607364 Z" id="Fill-4" fill="#062942"></path>
                            <path d="M27.5984978,11.4828546 L24.9603241,8.52322393 L21.5759557,11.456121 L21.5759557,1.48969191 L17.347151,4.78831929 C17.5351714,4.90862042 18.1345557,5.02001036 18.1522171,5.87140079 L18.1522171,19.8315305 L16.3617913,21.173408 L16.4839494,21.3601718 L17.3489907,20.7092832 L19.7568301,22.9690138 L23.547779,19.925098 L23.4105351,19.7509584 L22.5190016,20.463854 L21.5759557,19.5188961 L21.5851544,11.7412793 L22.6897286,10.7918657 L24.3366555,12.8555499 C24.3366555,12.8555499 24.3337119,17.892603 24.3381272,19.5641946 C24.3256171,21.3464337 24.3197299,23.5708907 23.3914019,24.6446897 C22.4634418,25.7236869 22.0914482,25.8087146 21.1461947,26.0894172 C21.9181456,26.2806366 23.2788104,26.3879423 24.920218,25.5584585 C26.736768,24.6402341 27.6507462,22.6923954 27.638236,20.6959164 L27.7151367,17.8654981 L27.7155047,11.6833565 L28.8771106,10.7874101 L28.7417064,10.6136418 L27.5984978,11.4828546 Z" id="Fill-6" fill="#062942"></path>
                            <path d="M57.8527203,6.25001519 C58.5908202,6.21882601 59.7178392,5.80891104 60.265343,5.24305015 C62.0149268,3.42887935 61.3000075,1.44985144 61.1079396,1.25826075 C61.0012353,2.12301797 60.3422438,2.99223079 59.2420849,2.99631509 C57.7990002,3.00077069 56.919241,1.92660038 56.919241,1.92660038 L53.4237529,5.94703456 L53.5908004,6.09852488 L54.5923498,4.94415381 C55.8150347,6.08070249 56.7084079,6.18763683 57.6319527,6.25001519 L57.6312168,16.0025756 L50.8911797,3.64720363 C50.281861,2.62650049 49.3520611,1.73055409 47.8957304,1.71718729 C46.2212076,1.7082761 45.023175,3.19681698 44.880044,4.48040037 C44.7177797,5.92921217 44.8973374,6.26338199 44.8973374,6.26338199 C44.8973374,6.26338199 45.1438613,4.65008438 46.1329005,4.66345117 C47.0218583,4.67681796 47.4839987,5.50110351 47.8405385,6.12080287 L47.8405385,9.70013289 C46.9239847,9.76251126 44.538222,9.8694456 44.3925154,12.374234 C44.3818449,13.3058252 44.955105,14.2819724 45.4573514,14.6116866 C46.1027289,15.0394239 46.6064472,15.0305128 46.6064472,15.0305128 C46.6064472,15.0305128 45.8330244,14.6161422 46.0644625,13.7959409 C46.2716162,13.0607673 47.7871863,12.9404662 47.8420102,13.2479024 L47.8416423,18.297951 C47.112741,18.2890398 44.777755,18.3696118 43.7250611,20.3887401 C43.0903541,21.6099451 43.1271487,22.9741006 43.8056413,23.9361383 C44.3586643,24.7210661 45.4967217,25.7239469 47.4560348,25.3853214 C45.9415685,25.2111818 45.3053897,24.2844176 45.3223152,23.5533283 C45.3337215,23.0847479 45.7550199,22.1668948 46.675989,22.0421381 C47.5962222,21.9129258 48.5366925,22.3495743 49.3310882,23.2900767 L52.8295199,19.3899437 L52.6606326,19.2384533 L51.7212662,20.2992568 C50.766814,19.2028086 49.4120363,18.5118196 48.0631459,18.311689 L48.0631459,6.4286104 L57.1492073,23.1296752 C57.1492073,23.1296752 57.2360426,23.3212659 57.6098759,23.3212659 C57.9310928,23.3212659 57.8541921,23.0580143 57.8541921,23.0580143 L57.8527203,6.25001519 Z" id="Fill-8" fill="#062942"></path>
                            <path d="M63.9978621,10.4086472 L66.7243428,15.097421 L63.9978621,17.1128363 L63.9978621,10.4086472 Z M66.6673112,20.8607364 L63.9978621,18.3384969 L63.99823,17.3979945 L69.3599409,13.4172894 L66.6463382,8.65685473 C66.6463382,8.65685473 64.8073435,9.78040791 63.5710446,10.5244927 C62.3347456,11.2644932 60.6775163,12.0802388 60.6775163,12.0802388 L60.6775163,19.8801336 L59.5714702,20.7764513 L59.7179128,20.9498484 L60.7963629,20.0724669 L64.1777877,23.156483 L70.0538872,18.458798 L69.9148036,18.289114 L66.6673112,20.8607364 Z" id="Fill-10" fill="#062942"></path>
                            <path d="M88.5163933,10.8276219 L85.8333302,8.59016928 L82.9633504,11.2375368 L84.0778592,12.2894291 L84.0778592,21.137132 L83.642579,21.4182059 L81.1916899,19.3767996 L81.1916899,12.0265489 L82.1899277,10.9345562 L79.5734628,8.59462488 L76.7093702,11.1528805 L77.8216714,12.2675225 L77.8216714,20.5627312 L77.2793188,20.9904685 L75.2158769,19.3233325 L75.2158769,11.6611899 C75.1632607,9.4638377 72.3690778,9.31643168 71.9279104,7.66748929 C71.6416483,6.59777458 72.8209157,5.85331849 72.8209157,5.85331849 C72.8209157,5.85331849 72.0934862,5.85331849 71.4212486,6.1967708 C70.7935325,6.52202942 69.5495067,7.50263218 69.4876918,8.79958237 C69.3475043,11.7503018 71.9341655,11.0593129 71.8719826,13.8407197 L71.8719826,20.5939204 L70.5849071,21.5429626 L70.7133203,21.7260134 L71.978687,20.7985066 L74.8597051,23.2145543 L77.9912945,20.7090233 L81.1486402,23.2320054 L87.3205684,19.3901664 L87.3205684,12.1780392 L89.7328232,10.0386098 L89.5878524,9.86929708 L88.5163933,10.8276219 Z" id="Fill-12" fill="#062942"></path>
                            <path d="M198.474442,10.4086472 L201.200923,15.097421 L198.474442,17.1128363 L198.474442,10.4086472 Z M201.144259,20.8607364 L198.474442,18.3384969 L198.474442,17.3979945 L203.836889,13.4172894 L201.12255,8.65685473 C201.12255,8.65685473 199.283555,9.78040791 198.04836,10.5244927 C196.811693,11.2644932 195.153728,12.0802388 195.153728,12.0802388 L195.153728,19.8801336 L194.047682,20.7764513 L194.194861,20.9498484 L195.273679,20.0724669 L198.654736,23.156483 L204.530467,18.458798 L204.391751,18.289114 L201.144259,20.8607364 Z" id="Fill-14" fill="#062942"></path>
                            <polygon id="Fill-16" fill="#062942" points="192.723849 20.3929358 191.392988 18.9040236 191.392988 11.6076113 192.677856 10.622553 192.544291 10.4443291 191.257952 11.4293874 188.826564 8.67916985 185.350209 11.4516654 182.915509 8.77719299 179.558001 11.4293874 177.100857 8.79055978 173.535827 11.9195032 173.679326 12.0888159 174.786108 11.1260355 176.428987 13.0025847 176.428987 19.4479778 175.63128 20.1835227 178.191081 23.103053 180.817848 20.4909589 179.738294 19.3633215 179.738294 11.567511 180.391399 11.0413791 182.207581 13.1808086 182.207581 19.6083793 181.524673 20.2949126 183.935088 23.0317634 186.512918 20.4285806 185.565825 19.4256998 185.541173 11.5987001 186.237695 11.0280124 188.131513 13.131797 188.131513 19.5240943 187.508213 20.1523335 190.169935 23.0804037 193.742692 19.7509584 193.591098 19.5864726"></polygon>
                            <polygon id="Fill-18" fill="#062942" points="173.617621 20.7315983 172.208387 19.0911958 172.208387 11.8883511 173.396853 10.8498256 173.253354 10.6805129 172.124128 11.6611156 169.641963 8.74158534 166.260906 11.7190384 166.405141 11.8883511 167.340092 11.0726055 168.802678 12.8199423 168.802678 20.1876441 167.771325 21.0969573 167.915192 21.2666413 168.998058 20.3350501 171.356592 23.0804408 174.765245 20.0101628 174.621378 19.8404788"></polygon>
                            <polygon id="Fill-20" fill="#062942" points="171.896443 5.58156417 169.809452 3.24608846 167.243396 5.61720895 169.318612 7.94377347"></polygon>
                            <path d="M153.709712,13.5909834 C153.601168,11.5540328 154.222997,10.1501482 154.222997,10.1501482 L156.659168,9.05369995 L156.659168,17.2282362 L155.354799,17.8839517 C154.677043,17.0860284 153.795076,15.1823744 153.709712,13.5909834 M166.322537,15.6906838 C165.141798,18.1557431 163.238781,19.256647 163.238781,19.256647 L163.238781,13.8895085 L165.138855,12.3430448 L163.238781,10.7917543 L163.238781,6.85189216 C163.238781,6.85189216 164.362856,6.90535933 165.291552,6.27229318 C166.212153,5.64405393 166.474867,5.17138929 166.71072,4.26207609 C166.975274,3.24174425 166.803443,2.11856237 166.04805,1.37856188 C165.337546,0.749951327 164.393764,0.451426291 163.792172,0.397959121 C163.319361,0.353403145 163.181381,0.353403145 162.551825,0.487071071 C163.28367,0.625194595 164.146504,0.607372205 164.597238,1.39192867 C164.983213,2.0602683 164.511139,2.56412213 164.24217,2.76016842 C163.666334,3.09916513 163.031995,3.03233117 162.211843,2.83145798 C160.095785,2.31906426 157.719589,1.31172792 155.953448,1.05775886 C154.741801,0.883619253 153.700514,1.26717194 152.779177,1.86422201 C151.719124,2.64877848 151.190017,3.81651634 151.269126,5.11346652 C151.330941,6.10298048 151.846065,6.90535933 152.523822,7.31527431 C152.899127,7.54250978 153.106649,7.56033217 153.106649,7.56033217 C152.929299,7.36465718 152.695653,7.16378399 152.594468,6.82070298 C152.415278,6.21437041 152.675416,5.54157519 153.096714,5.1583938 C153.517276,4.77929671 154.212695,4.75256312 154.77602,4.83721947 C155.339714,4.92187583 158.927924,5.93812337 160.004167,6.20545922 C160.736011,6.38851002 161.987028,6.73159103 163.016909,6.85189216 L163.016909,10.7965812 L161.128242,12.3430448 L163.016909,13.8895085 L163.016909,19.3724926 C163.016909,19.3724926 161.586703,20.4466629 159.149796,20.1745001 C157.716278,20.0100143 156.041755,18.8419052 155.489836,18.0707155 L160.327591,15.6242211 L160.327591,7.15932839 L154.328598,9.8605344 C154.692864,8.84837116 155.545763,7.53396989 156.541058,6.87417015 C156.889871,6.64247908 157.174293,6.4241548 157.420817,6.25447079 C156.886191,6.30385366 156.736805,6.39704991 156.360764,6.53962903 C153.269281,7.70773819 150.591369,10.8407659 150.517412,14.4735631 C150.478777,16.3237499 150.893453,18.0439819 151.818101,19.519156 C153.133877,21.618485 155.061546,22.822239 157.184227,23.2633431 C158.99673,23.6424402 160.68781,23.5221391 162.942216,22.2604624 C164.214206,21.5516511 165.229001,20.308168 165.78644,19.0156735 C166.527483,17.2998971 166.586355,15.9628465 166.48149,15.3026755 C166.371474,15.5566446 166.322537,15.6906838 166.322537,15.6906838" id="Fill-22" fill="#062942"></path>
                            <g id="Group-26" transform="translate(204.945989, 7.789053)">
                                <polygon id="Clip-25" points="9.84439843 16.3928017 9.84439843 0.0837281038 0.151641057 0.0837281038 0.151641057 16.3928017 9.84439843 16.3928017"></polygon>
                                <path d="M6.72638622,13.6068379 C6.72638622,13.6068379 6.031336,11.4718641 4.02860527,11.0526667 C1.94087899,10.6160181 0.725552954,12.6436863 0.725552954,12.6436863 C1.06406338,11.2709909 3.79495948,9.02054288 5.3292948,7.46442543 L6.72638622,8.69082866 L6.72638622,13.6068379 Z M3.82439517,2.37427654 C3.82439517,2.37427654 4.55329644,3.80526595 5.95885061,4.23745891 C7.63852465,4.75876383 8.8851261,3.05189867 8.8851261,3.05189867 C7.87768963,5.12894972 5.10227205,7.37085789 5.10227205,7.37085789 L3.82439517,6.24767601 L3.82439517,2.37427654 Z M7.54212277,5.33836281 C10.3690528,2.04901792 9.63389646,0.578299431 9.35940865,0.0837281038 C9.40613781,0.386337437 9.48083087,1.66583653 7.87180249,1.80841565 C6.84412898,1.9019832 5.93530206,0.74315654 5.93530206,0.74315654 C5.93530206,0.74315654 4.68833266,1.57672458 3.46932717,2.34754296 C2.25068962,3.11427703 0.695381372,3.8988335 0.695381372,3.8988335 L0.695381372,7.62519825 L2.81180745,9.57749257 C1.01880601,11.4139414 -0.167452279,12.5813079 0.227721854,14.3067381 C0.633566424,16.0759816 2.32611857,16.4903522 2.71577352,16.3748779 C1.55269583,15.9374868 1.17407927,14.9657952 2.00195804,14.3913944 C3.22795451,13.540004 4.64013172,15.3226143 4.64013172,15.3226143 C7.16976129,13.4598032 9.84472959,12.0555474 9.84472959,12.0555474 L9.84472959,7.21491197 L7.54212277,5.33836281 Z" id="Fill-24" fill="#062942"></path>
                            </g>
                            <path d="M118.091534,21.3734272 L115.117794,18.6588544 L115.117794,10.2882718 L118.091534,13.0648516 L118.091534,21.3734272 Z M121.248512,11.8748358 L117.505764,8.5944021 C117.505764,8.5944021 116.104625,9.41905895 114.851769,10.1323259 C113.452102,10.9298778 111.791929,11.6877007 111.791929,11.6877007 L111.779051,11.6877007 L111.779051,19.965087 L110.800682,20.8250174 L110.951172,20.9947014 L111.881708,20.1789557 L115.401112,23.1697756 C115.401112,23.1697756 116.830215,22.2742005 118.167699,21.511922 C119.506655,20.7496435 121.42439,19.7241135 121.42439,19.7241135 L121.42439,12.0266974 L122.434402,11.0817394 L122.285384,10.9124267 L121.248512,11.8748358 Z" id="Fill-27" fill="#062942"></path>
                            <path d="M133.211802,8.70590343 C132.84312,9.05826694 132.794919,9.10727851 132.458616,9.29441361 C131.837891,9.63749462 131.161606,9.28513111 130.997502,9.20530166 C130.710136,9.06235123 130.402533,8.79055978 130.402533,8.79055978 L128.167629,11.0952176 L126.16637,8.67025865 L122.582942,11.9195032 L122.730489,12.0847316 L123.747124,11.179874 L124.930071,12.7619824 L124.917193,19.91136 L123.37513,21.3152445 L123.541074,21.4938397 L124.553662,20.5314306 L127.367714,23.1160485 L131.066676,20.0004719 L130.930168,19.8267036 L129.749429,20.8121333 L128.334308,19.5500853 L128.334308,11.2686146 C129.664433,12.9045615 130.936055,12.4946465 131.371335,12.2804066 C132.435068,11.7591016 133.287231,10.4977962 133.211802,8.70590343" id="Fill-29" fill="#062942"></path>
                            <path d="M145.530822,20.4596584 L139.79307,11.7144343 L140.061303,11.2956081 C140.061303,11.2956081 141.440365,12.4588904 142.92282,12.2093769 C144.605805,11.928303 145.420806,10.0877699 145.636423,8.46518977 C145.636423,8.46518977 144.509771,9.72241088 143.219016,9.38341417 C142.269716,9.12944511 141.724787,8.47855657 141.724787,8.47855657 L137.592016,14.5448526 L142.888969,23.0847479 L146.826728,19.6127235 L146.678446,19.4437821 L145.530822,20.4596584 Z" id="Fill-31" fill="#062942"></path>
                            <path d="M138.649788,20.5445004 L137.45985,19.2791107 L137.459114,19.2791107 L137.459114,1.19124113 L132.951038,4.38701847 C133.645721,4.3290957 134.177771,5.13593016 134.177771,6.44624714 L134.177771,19.9875507 L132.458727,21.4979982 L132.614736,21.6676822 L133.599727,20.7940138 L136.060551,23.1254052 L139.693283,19.9251723 L139.551624,19.7554883 L138.649788,20.5445004 Z" id="Fill-33" fill="#062942"></path>
                            <path d="M102.654686,14.3754657 C102.654686,14.3754657 103.17165,13.7112103 103.955008,13.7112103 C104.739101,13.7112103 105.232517,14.3531877 105.232517,14.3531877 L105.232517,20.6207282 C105.232517,20.6207282 105.321928,21.6143265 104.470868,22.3227665 C103.705172,22.9558326 102.654686,22.67513 102.654686,22.67513 L102.654686,14.3754657 Z M102.654686,11.5275962 C102.654686,11.5275962 103.167235,12.1023683 103.95096,12.1023683 C104.734686,12.1023683 105.232517,11.5316805 105.232517,11.5316805 L105.232517,13.9740906 C105.232517,13.9740906 104.734686,13.4305077 103.95096,13.4305077 C103.167235,13.4305077 102.654686,14.0056511 102.654686,14.0056511 L102.654686,11.5275962 Z M102.654686,5.34953893 L103.493971,4.6811993 L105.232517,6.22320735 L105.232517,11.1841439 C105.232517,11.1841439 104.739101,11.8168388 103.955008,11.8168388 C103.17165,11.8168388 102.654686,11.1574103 102.654686,11.1574103 L102.654686,5.34953893 Z M100.840344,22.4835393 C103.129337,22.8180804 105.69944,24.2887989 107.829848,23.0137554 C108.785036,22.416334 108.948037,21.3778085 109.012059,20.3574767 L109.012059,4.71238848 L110.305022,3.5892066 L110.164098,3.41989389 L108.927432,4.4985198 L106.275276,2.11848811 L102.654686,5.05992509 L102.654686,2.3234456 L102.435022,2.3234456 L102.435022,22.6127516 C102.435022,22.6127516 101.93204,22.4698012 101.401094,22.3587826 C100.943737,22.2559325 100.276282,22.1753605 100.276282,22.1753605 L100.276282,5.34953893 C100.276282,4.1283339 99.7747719,2.74672737 98.0089984,2.3145344 C96.2991528,1.89979253 95.2056169,2.79611024 94.6194788,3.43326069 C93.5770874,4.57426496 93.7857129,5.83111477 93.7857129,5.83111477 C93.7857129,5.83111477 94.0572571,4.19999476 95.2030413,4.22672835 C95.9992767,4.24455074 96.4908527,4.92625716 96.4915886,6.14746219 L96.4915886,10.9034413 C95.3579466,11.028198 94.4594222,11.2108775 93.709916,12.2583142 C92.7981455,13.5285308 93.4994508,14.9015975 93.8350177,15.29369 C94.5245487,16.0960689 95.3476441,15.9713122 95.3476441,15.9713122 C95.3476441,15.9713122 94.3549255,15.5613972 94.7975647,14.6650795 C95.0882421,14.072485 96.4194712,13.9878287 96.4904848,14.3086317 L96.4915886,22.3721493 C96.4915886,22.3721493 93.9972819,23.2320797 93.9362028,25.4119808 C93.8523111,26.9268839 94.7166166,28.4692633 95.9389336,28.9820283 C98.3103463,29.9845377 101.839318,28.5405528 104.791717,28.2019274 C106.143551,28.0504371 106.560434,28.2242054 106.742935,28.8435335 C107.103155,30.0691941 105.839996,30.8095659 105.839996,30.8095659 C105.839996,30.8095659 108.422242,30.4486625 108.981888,28.3846069 C109.314511,27.283703 109.322606,25.6834009 107.168649,24.671609 C104.806435,23.5621652 97.9181157,26.3569387 96.3712703,25.313215 C95.6000552,24.7919101 95.5849694,23.9943582 95.8035294,23.4771375 C96.4731913,21.9043116 99.1411686,22.2291989 100.840344,22.4835393 L100.840344,22.4835393 Z" id="Fill-35" fill="#062942"></path>
                        </g>
                    </g>
                </g>
            </g>
        </g>
    </g>
</svg>