<?xml version="1.0" encoding="utf-8"?>
<!-- Generator: Adobe Illustrator 16.0.0, SVG Export Plug-In . SVG Version: 6.00 Build 0)  -->
<!DOCTYPE svg PUBLIC "-//W3C//DTD SVG 1.1//EN" "http://www.w3.org/Graphics/SVG/1.1/DTD/svg11.dtd">
<svg version="1.1" id="Layer_1" xmlns="http://www.w3.org/2000/svg" xmlns:xlink="http://www.w3.org/1999/xlink" x="0px" y="0px"
	 width="360px" height="144px" viewBox="0 0 360 144" enable-background="new 0 0 360 144" xml:space="preserve">
<g>
	<g>
		<g>
			<path fill="none" stroke="#6E4B9E" stroke-width="4" stroke-miterlimit="10" d="M88.872,75.379
				c0-14.658-11.861-26.519-26.519-26.519s-26.518,11.86-26.518,26.519s11.86,26.518,26.518,26.518S88.872,90.037,88.872,75.379z"/>
		</g>
		<g>
			<line fill="none" stroke="#6E4B9E" stroke-width="4" stroke-miterlimit="10" x1="62.354" y1="75.379" x2="62.354" y2="101.896"/>
			<line fill="none" stroke="#6E4B9E" stroke-width="4" stroke-miterlimit="10" x1="62.354" y1="75.379" x2="85.324" y2="88.638"/>
			<line fill="none" stroke="#6E4B9E" stroke-width="4" stroke-miterlimit="10" x1="62.354" y1="75.379" x2="85.324" y2="62.119"/>
			<line fill="none" stroke="#6E4B9E" stroke-width="4" stroke-miterlimit="10" x1="62.354" y1="75.379" x2="62.354" y2="48.86"/>
			<line fill="none" stroke="#6E4B9E" stroke-width="4" stroke-miterlimit="10" x1="62.354" y1="75.379" x2="39.384" y2="62.119"/>
			<line fill="none" stroke="#6E4B9E" stroke-width="4" stroke-miterlimit="10" x1="62.354" y1="75.379" x2="39.384" y2="88.638"/>
		</g>
	</g>
	<g>
		<path fill="#6E4B9E" d="M98.354,38.661c2.898-0.493,6.967-0.862,12.702-0.862c5.796,0,9.927,1.109,12.702,3.329
			c2.652,2.097,4.44,5.55,4.44,9.619s-1.356,7.522-3.823,9.866c-3.206,3.021-7.954,4.378-13.503,4.378
			c-1.233,0-2.343-0.062-3.207-0.186v14.86h-9.311V38.661z M107.665,57.53c0.802,0.185,1.788,0.246,3.145,0.246
			c4.995,0,8.078-2.528,8.078-6.782c0-3.823-2.651-6.104-7.337-6.104c-1.912,0-3.207,0.185-3.885,0.37V57.53z"/>
		<path fill="#6E4B9E" d="M149.899,79.666l-0.555-3.021h-0.185c-1.973,2.405-5.056,3.7-8.632,3.7c-6.104,0-9.743-4.44-9.743-9.25
			c0-7.83,7.029-11.592,17.697-11.53v-0.432c0-1.603-0.863-3.885-5.488-3.885c-3.083,0-6.351,1.049-8.324,2.282l-1.727-6.043
			c2.097-1.172,6.228-2.651,11.715-2.651c10.051,0,13.257,5.919,13.257,13.01v10.482c0,2.898,0.123,5.673,0.432,7.338H149.899z
			 M148.789,65.423c-4.933-0.062-8.756,1.109-8.756,4.747c0,2.405,1.604,3.576,3.7,3.576c2.343,0,4.255-1.541,4.871-3.452
			c0.124-0.493,0.185-1.049,0.185-1.604V65.423z"/>
		<path fill="#6E4B9E" d="M165.311,59.441c0-4.439-0.123-7.338-0.247-9.928h8.077l0.309,5.55h0.247
			c1.541-4.378,5.241-6.228,8.139-6.228c0.863,0,1.295,0,1.974,0.123v8.817c-0.679-0.123-1.48-0.246-2.528-0.246
			c-3.453,0-5.796,1.85-6.413,4.747c-0.123,0.617-0.185,1.356-0.185,2.097v15.292h-9.373V59.441z"/>
		<path fill="#6E4B9E" d="M200.516,40.882v8.632h6.722v6.906h-6.722v10.914c0,3.638,0.863,5.303,3.7,5.303
			c1.172,0,2.097-0.123,2.774-0.247l0.062,7.092c-1.232,0.493-3.452,0.801-6.104,0.801c-3.021,0-5.549-1.048-7.029-2.589
			c-1.726-1.789-2.589-4.687-2.589-8.941V56.42h-4.009v-6.906h4.009v-6.536L200.516,40.882z"/>
		<path fill="#6E4B9E" d="M222.341,41.128c0,2.59-1.974,4.687-5.057,4.687c-2.96,0-4.933-2.097-4.871-4.687
			c-0.062-2.713,1.911-4.748,4.933-4.748S222.279,38.415,222.341,41.128z M212.66,79.666V49.514h9.372v30.152H212.66z"/>
		<path fill="#6E4B9E" d="M246.694,79.666l-0.556-3.021h-0.185c-1.974,2.405-5.057,3.7-8.633,3.7c-6.104,0-9.742-4.44-9.742-9.25
			c0-7.83,7.029-11.592,17.696-11.53v-0.432c0-1.603-0.863-3.885-5.487-3.885c-3.083,0-6.352,1.049-8.324,2.282l-1.727-6.043
			c2.097-1.172,6.228-2.651,11.716-2.651c10.051,0,13.257,5.919,13.257,13.01v10.482c0,2.898,0.123,5.673,0.432,7.338H246.694z
			 M245.584,65.423c-4.933-0.062-8.756,1.109-8.756,4.747c0,2.405,1.604,3.576,3.7,3.576c2.343,0,4.254-1.541,4.871-3.452
			c0.123-0.493,0.185-1.049,0.185-1.604V65.423z"/>
		<path fill="#6E4B9E" d="M262.106,35.887h9.372v43.779h-9.372V35.887z"/>
		<path fill="#6E4B9E" d="M277.828,74.672c0-3.33,2.281-5.734,5.55-5.734c3.268,0,5.487,2.343,5.487,5.734
			c0,3.268-2.22,5.673-5.549,5.673C280.109,80.345,277.828,77.939,277.828,74.672z"/>
		<path fill="#6E4B9E" d="M294.537,35.887h9.372v43.779h-9.372V35.887z"/>
		<path fill="#6E4B9E" d="M318.521,49.514l4.501,14.799c0.493,1.788,1.109,4.008,1.479,5.611h0.186
			c0.432-1.604,0.925-3.885,1.356-5.611l3.699-14.799h10.051l-7.029,19.855c-4.316,11.962-7.214,16.771-10.605,19.793
			c-3.269,2.836-6.721,3.822-9.064,4.131l-1.973-7.954c1.171-0.185,2.651-0.74,4.069-1.604c1.418-0.739,2.96-2.22,3.885-3.761
			c0.309-0.432,0.493-0.925,0.493-1.356c0-0.309-0.062-0.802-0.432-1.542L308.1,49.514H318.521z"/>
	</g>
	<g>
		<path fill="#6E4B9E" d="M98.974,85.046c1.486-0.248,3.432-0.46,5.909-0.46c3.043,0,5.272,0.708,6.688,1.981
			c1.309,1.132,2.087,2.866,2.087,4.989c0,2.158-0.637,3.857-1.84,5.096c-1.628,1.733-4.282,2.618-7.29,2.618
			c-0.92,0-1.769-0.035-2.477-0.212v9.554h-3.078V85.046z M102.052,96.546c0.672,0.177,1.522,0.248,2.548,0.248
			c3.715,0,5.98-1.805,5.98-5.096c0-3.149-2.229-4.671-5.626-4.671c-1.345,0-2.371,0.106-2.902,0.248V96.546z"/>
		<path fill="#6E4B9E" d="M126.256,108.612l-0.248-2.158h-0.106c-0.956,1.345-2.795,2.548-5.237,2.548
			c-3.468,0-5.237-2.442-5.237-4.919c0-4.14,3.68-6.404,10.297-6.369v-0.354c0-1.415-0.389-3.963-3.893-3.963
			c-1.592,0-3.255,0.496-4.458,1.274l-0.708-2.053c1.416-0.92,3.468-1.521,5.626-1.521c5.237,0,6.511,3.574,6.511,7.006v6.405
			c0,1.486,0.071,2.937,0.283,4.104H126.256z M125.796,99.872c-3.397-0.07-7.254,0.531-7.254,3.857c0,2.017,1.344,2.972,2.937,2.972
			c2.229,0,3.645-1.415,4.14-2.866c0.106-0.318,0.177-0.672,0.177-0.99V99.872z"/>
		<path fill="#6E4B9E" d="M134.676,91.486l3.751,10.12c0.389,1.132,0.814,2.477,1.097,3.503h0.071
			c0.319-1.026,0.672-2.336,1.097-3.574l3.397-10.049h3.291l-4.671,12.207c-2.229,5.874-3.751,8.882-5.874,10.722
			c-1.521,1.345-3.043,1.876-3.822,2.018l-0.778-2.619c0.778-0.247,1.805-0.742,2.725-1.521c0.849-0.672,1.911-1.875,2.619-3.468
			c0.142-0.318,0.248-0.565,0.248-0.743c0-0.177-0.071-0.424-0.212-0.813l-6.334-15.781H134.676z"/>
		<path fill="#6E4B9E" d="M150.209,96.121c0-1.769-0.035-3.22-0.142-4.635h2.725l0.142,2.76h0.106
			c0.955-1.628,2.547-3.149,5.378-3.149c2.335,0,4.104,1.415,4.848,3.433h0.071c0.531-0.956,1.203-1.699,1.911-2.229
			c1.026-0.778,2.159-1.203,3.787-1.203c2.265,0,5.626,1.486,5.626,7.431v10.085h-3.043v-9.695c0-3.291-1.203-5.272-3.715-5.272
			c-1.77,0-3.149,1.31-3.68,2.831c-0.142,0.424-0.248,0.99-0.248,1.557v10.58h-3.043V98.351c0-2.725-1.203-4.706-3.574-4.706
			c-1.946,0-3.362,1.557-3.857,3.113c-0.177,0.461-0.248,0.991-0.248,1.522v10.332h-3.043V96.121z"/>
		<path fill="#6E4B9E" d="M181.453,100.615c0.071,4.211,2.761,5.944,5.875,5.944c2.229,0,3.573-0.389,4.741-0.884l0.53,2.229
			c-1.097,0.496-2.973,1.062-5.697,1.062c-5.271,0-8.421-3.468-8.421-8.634s3.043-9.235,8.032-9.235
			c5.591,0,7.077,4.919,7.077,8.067c0,0.638-0.07,1.133-0.106,1.451H181.453z M190.583,98.386c0.036-1.981-0.813-5.06-4.317-5.06
			c-3.148,0-4.529,2.901-4.776,5.06H190.583z"/>
		<path fill="#6E4B9E" d="M197.446,96.121c0-1.769-0.035-3.22-0.142-4.635h2.76l0.178,2.83h0.07c0.85-1.627,2.831-3.22,5.662-3.22
			c2.37,0,6.051,1.415,6.051,7.289v10.227h-3.114V98.74c0-2.761-1.026-5.061-3.963-5.061c-2.053,0-3.645,1.451-4.176,3.185
			c-0.142,0.39-0.212,0.92-0.212,1.451v10.297h-3.114V96.121z"/>
		<path fill="#6E4B9E" d="M220.694,86.567v4.919h4.458v2.37h-4.458v9.235c0,2.123,0.602,3.326,2.335,3.326
			c0.814,0,1.416-0.105,1.805-0.212l0.142,2.336c-0.602,0.247-1.557,0.424-2.76,0.424c-1.451,0-2.618-0.46-3.361-1.309
			c-0.885-0.92-1.203-2.442-1.203-4.459v-9.342h-2.654v-2.37h2.654v-4.105L220.694,86.567z"/>
		<path fill="#6E4B9E" d="M236.263,85.046c1.486-0.248,3.433-0.46,5.909-0.46c3.043,0,5.272,0.708,6.688,1.981
			c1.31,1.132,2.088,2.866,2.088,4.989c0,2.158-0.637,3.857-1.84,5.096c-1.628,1.733-4.281,2.618-7.289,2.618
			c-0.92,0-1.77-0.035-2.478-0.212v9.554h-3.078V85.046z M239.341,96.546c0.673,0.177,1.521,0.248,2.548,0.248
			c3.716,0,5.98-1.805,5.98-5.096c0-3.149-2.229-4.671-5.627-4.671c-1.344,0-2.37,0.106-2.901,0.248V96.546z"/>
		<path fill="#6E4B9E" d="M254.804,83.489h3.114v25.123h-3.114V83.489z"/>
		<path fill="#6E4B9E" d="M272.637,108.612l-0.248-2.158h-0.105c-0.956,1.345-2.796,2.548-5.237,2.548
			c-3.468,0-5.237-2.442-5.237-4.919c0-4.14,3.681-6.404,10.297-6.369v-0.354c0-1.415-0.389-3.963-3.892-3.963
			c-1.593,0-3.256,0.496-4.459,1.274l-0.708-2.053c1.416-0.92,3.468-1.521,5.627-1.521c5.236,0,6.511,3.574,6.511,7.006v6.405
			c0,1.486,0.07,2.937,0.283,4.104H272.637z M272.177,99.872c-3.397-0.07-7.254,0.531-7.254,3.857c0,2.017,1.345,2.972,2.937,2.972
			c2.229,0,3.645-1.415,4.141-2.866c0.105-0.318,0.177-0.672,0.177-0.99V99.872z"/>
		<path fill="#6E4B9E" d="M280.209,96.121c0-1.769-0.035-3.22-0.142-4.635h2.76l0.178,2.83h0.07c0.85-1.627,2.831-3.22,5.662-3.22
			c2.37,0,6.051,1.415,6.051,7.289v10.227h-3.114V98.74c0-2.761-1.026-5.061-3.963-5.061c-2.053,0-3.645,1.451-4.176,3.185
			c-0.142,0.39-0.212,0.92-0.212,1.451v10.297h-3.114V96.121z"/>
		<path fill="#6E4B9E" d="M299.422,105.428c0.92,0.602,2.548,1.238,4.104,1.238c2.265,0,3.327-1.132,3.327-2.548
			c0-1.486-0.885-2.3-3.186-3.149c-3.078-1.097-4.529-2.795-4.529-4.848c0-2.76,2.229-5.024,5.91-5.024
			c1.733,0,3.255,0.495,4.21,1.062l-0.778,2.265c-0.672-0.425-1.91-0.991-3.503-0.991c-1.84,0-2.866,1.062-2.866,2.336
			c0,1.415,1.026,2.053,3.256,2.901c2.972,1.133,4.493,2.618,4.493,5.166c0,3.008-2.335,5.131-6.404,5.131
			c-1.875,0-3.609-0.46-4.812-1.167L299.422,105.428z"/>
	</g>
</g>
</svg>
