<?xml version="1.0" encoding="UTF-8"?>
<svg width="152px" height="29px" viewBox="0 0 152 29" version="1.1" xmlns="http://www.w3.org/2000/svg" xmlns:xlink="http://www.w3.org/1999/xlink">
    <!-- Generator: Sketch 52.2 (67145) - http://www.bohemiancoding.com/sketch -->
    <title>Bloomberg</title>
    <desc>Created with Sketch.</desc>
    <g id="Final" stroke="none" stroke-width="1" fill="none" fill-rule="evenodd" opacity="0.8">
        <g id="Desktop-(max-width:-1600px)" transform="translate(-828.000000, -1275.000000)">
            <g id="FEATURED-IN-Top-dark" transform="translate(205.000000, 1240.000000)">
                <g id="LOGOS">
                    <g id="Group-29" transform="translate(117.000000, 26.000000)">
                        <g id="Bloomberg" transform="translate(506.500000, 9.000000)">
                            <g id="Group-3" transform="translate(0.000000, 0.533464)">
                                <polygon id="Clip-2" points="15.2227761 0.238415281 0.000242024496 0.238415281 0.000242024496 20.682487 15.2227761 20.682487 15.2227761 0.238415281"></polygon>
                                <path d="M5.50629932,16.0360895 L7.7732621,16.0360895 C8.421081,16.0360895 10.0410316,16.0360895 10.0410316,14.1773762 C10.0410316,12.3186629 8.421081,12.3186629 7.7732621,12.3186629 L5.50629932,12.3186629 L5.50629932,16.0360895 Z M5.50629932,7.9824368 L7.1254432,7.9824368 C7.7732621,7.9824368 9.0688999,7.9824368 9.0688999,6.43312326 C9.0688999,4.88458129 7.7732621,4.88458129 7.1254432,4.88458129 L5.50629932,4.88458129 L5.50629932,7.9824368 Z M0.000242024496,0.23818381 L6.4776243,0.23818381 C10.0410316,0.23818381 11.3358627,0.547583575 12.9558133,2.40629688 C13.9271383,3.33603932 14.2514511,4.57440995 14.2514511,5.81355215 C14.2514511,7.36286569 13.6036322,8.6020079 11.6601755,9.53097876 C15.2227761,10.770121 15.2227761,13.5578051 15.2227761,14.4875476 C15.2227761,16.0360895 14.5749572,17.8948029 13.2793194,18.8237737 C11.3358627,20.3730873 10.3645377,20.682487 6.80193712,20.682487 L0.000242024496,20.682487 L0.000242024496,0.23818381 Z" id="Fill-1" fill="#062942"></path>
                            </g>
                            <polygon id="Clip-5" points="0 29.0815719 150.60781 29.0815719 150.60781 0.771879116 0 0.771879116"></polygon>
                            <polygon id="Fill-4" fill="#062942" points="16.5181719 21.2161823 21.3764103 21.2161823 21.3764103 0.771879116 16.5181719 0.771879116"></polygon>
                            <path d="M31.4171192,17.4986786 C33.3605759,17.4986786 34.9797198,15.9501366 34.9797198,13.4718522 C34.9797198,11.3037391 33.3605759,9.75442558 31.4171192,9.75442558 C29.1501564,9.75442558 27.5310125,11.3037391 27.5310125,13.4718522 C27.5310125,15.9501366 29.1501564,17.4986786 31.4171192,17.4986786 M31.4171192,5.41819944 C37.2474893,5.41819944 39.8379582,9.75442558 39.8379582,13.4718522 C39.8379582,17.1892788 37.2474893,21.8356763 31.4171192,21.8356763 C25.5875558,21.8356763 22.6719674,17.1892788 22.6719674,13.4718522 C22.6719674,9.75442558 25.5875558,5.41819944 31.4171192,5.41819944" id="Fill-6" fill="#062942"></path>
                            <path d="M49.5550804,17.4986786 C51.4985371,17.4986786 53.441187,15.9501366 53.441187,13.4718522 C53.441187,11.3037391 51.4985371,9.75442558 49.5550804,9.75442558 C47.6116237,9.75442558 45.6681669,11.3037391 45.6681669,13.4718522 C45.6681669,15.9501366 47.6116237,17.4986786 49.5550804,17.4986786 M49.5550804,5.41819944 C55.3846437,5.41819944 58.3002322,9.75442558 58.3002322,13.4718522 C58.3002322,17.1892788 55.3846437,21.8356763 49.5550804,21.8356763 C43.7247102,21.8356763 40.8099286,17.1892788 40.8099286,13.4718522 C40.8099286,9.75442558 43.7247102,5.41819944 49.5550804,5.41819944" id="Fill-7" fill="#062942"></path>
                            <path d="M59.2716378,6.03746191 L63.8063701,6.03746191 L63.8063701,7.58677545 C64.1298762,6.96643278 65.425514,5.41789081 68.3402957,5.41789081 C69.6359335,5.41789081 71.5793902,6.03746191 72.875028,8.20557498 C73.846353,6.65703301 75.4663036,5.41789081 78.0575792,5.41789081 C79.0289042,5.41789081 80.9723609,5.72806214 82.2679987,6.96643278 C83.5628298,8.51574632 83.8871426,9.44471718 83.8871426,12.852744 L83.8871426,21.2157965 L79.0289042,21.2157965 L79.0289042,13.1621438 C79.0289042,11.9230016 79.0289042,9.75488852 76.7619414,9.75488852 C73.846353,9.75488852 73.846353,11.9230016 73.846353,12.852744 L73.846353,21.2157965 L69.3124274,21.2157965 L69.3124274,12.852744 C69.3124274,12.2324014 69.3124274,9.75488852 66.7211518,9.75488852 C64.1298762,9.75488852 64.1298762,12.2324014 64.1298762,13.1621438 L64.1298762,21.2157965 L59.2716378,21.2157965 L59.2716378,6.03746191 Z" id="Fill-8" fill="#062942"></path>
                            <path d="M94.5754284,17.4986786 C96.8423912,17.4986786 98.4623418,15.6399653 98.4623418,13.4718522 C98.4623418,11.6131389 96.8423912,9.75442558 94.5754284,9.75442558 C91.9841528,9.75442558 90.688515,11.6131389 90.688515,13.4718522 C90.688515,15.6399653 91.9841528,17.4986786 94.5754284,17.4986786 L94.5754284,17.4986786 Z M85.8302766,0.771801959 L90.688515,0.771801959 L90.688515,7.27614117 C92.3076589,5.41819944 94.5754284,5.41819944 95.2232473,5.41819944 C98.7858479,5.41819944 103.32058,7.58631251 103.32058,13.4718522 C103.32058,19.0472205 99.1101607,21.8356763 95.2232473,21.8356763 C92.9562845,21.8356763 91.3363339,20.5965341 90.688515,19.6675632 L90.3650089,19.6675632 L90.3650089,21.2161052 L85.8302766,21.2161052 L85.8302766,0.771801959 Z" id="Fill-9" fill="#062942"></path>
                            <path d="M116.923728,11.9230016 C116.600222,10.9940307 115.628091,9.13531742 113.036815,9.13531742 C110.769852,9.13531742 109.798527,10.9940307 109.474214,11.9230016 L116.923728,11.9230016 Z M121.134148,16.5693991 C120.162823,18.117941 119.190691,19.3570832 117.895053,20.2868257 C116.275909,21.2157965 114.980272,21.8353676 113.036815,21.8353676 C108.502889,21.8353676 104.615976,18.117941 104.615976,13.4715436 C104.615976,9.44471718 108.178577,5.41789081 113.036815,5.41789081 C117.895053,5.41789081 121.458461,9.13531742 121.458461,13.7817149 L121.458461,15.0208571 L109.474214,15.0208571 C109.798527,16.8795704 111.417671,17.8085413 113.036815,17.8085413 C114.656766,17.8085413 115.303778,17.1889702 115.952403,16.5693991 L121.134148,16.5693991 Z" id="Fill-10" fill="#062942"></path>
                            <path d="M123.401433,6.03746191 L127.936166,6.03746191 L127.936166,7.58677545 C128.583985,7.27660411 130.526635,5.72806214 132.470091,6.03746191 L132.470091,10.3744596 C130.526635,10.3744596 128.259672,10.3744596 128.259672,12.852744 L128.259672,21.2157965 L123.401433,21.2157965 L123.401433,6.03746191 Z" id="Fill-11" fill="#062942"></path>
                            <path d="M141.863143,17.4986786 C144.130105,17.4986786 145.750056,15.9501366 145.750056,13.781252 C145.750056,11.3037391 144.130105,9.75442558 141.863143,9.75442558 C139.919686,9.75442558 137.976229,11.3037391 137.976229,13.4718522 C137.976229,15.9501366 139.919686,17.4986786 141.863143,17.4986786 L141.863143,17.4986786 Z M150.608294,19.3573919 C150.608294,21.5255049 150.283982,24.6233604 149.636163,25.8625027 C148.340525,27.721216 145.425743,29.5791577 141.53883,28.9603582 C136.032772,28.6501868 134.413629,26.1719024 134.090123,23.6943896 L139.271867,23.6943896 C139.919686,25.2429315 141.53883,25.2429315 141.863143,25.2429315 C144.454418,25.2429315 145.750056,24.9327602 145.750056,19.976963 L145.750056,19.6675632 C145.102237,20.2863627 143.806599,21.8356763 141.215324,21.8356763 C137.004904,21.8356763 133.117991,18.4276494 133.117991,13.781252 C133.117991,8.51605494 137.004904,5.41819944 141.215324,5.41819944 C143.15878,5.41819944 144.777924,6.03777054 145.750056,7.27614117 L145.750056,6.03777054 L150.608294,6.03777054 L150.608294,19.3573919 Z" id="Fill-12" fill="#062942"></path>
                        </g>
                    </g>
                </g>
            </g>
        </g>
    </g>
</svg>