<?xml version="1.0" encoding="UTF-8"?>
<svg width="118px" height="49px" viewBox="0 0 118 49" version="1.1" xmlns="http://www.w3.org/2000/svg" xmlns:xlink="http://www.w3.org/1999/xlink">
    <!-- Generator: Sketch 48.1 (47250) - http://www.bohemiancoding.com/sketch -->
    <title>logo-stripe-white</title>
    <desc>Created with Sketch.</desc>
    <defs>
        <polygon id="path-1" points="0 49 118 49 118 0 0 0"></polygon>
    </defs>
    <g id="05-Default-Load-(Top-Picks)-1280" stroke="none" stroke-width="1" fill="none" fill-rule="evenodd" transform="translate(-815.000000, -987.000000)">
        <g id="logo-stripe-white" transform="translate(815.000000, 987.000000)">
            <path d="M101.377973,21.5808581 C101.377973,17.9757976 103.699673,16.4763476 105.819486,16.4763476 C107.87234,16.4763476 110.059449,17.9757976 110.059449,21.5808581 L101.377973,21.5808581 Z M118,24.6116612 C118,16.4444444 113.827669,10 105.85347,10 C97.8449508,10 93,16.4444444 93,24.5478548 C93,34.1507151 98.7201308,39 106.929864,39 C110.933956,39 113.962261,38.1386139 116.250313,36.9262926 L116.250313,30.5456546 C113.962261,31.630363 111.338066,32.30033 108.006595,32.30033 C104.742756,32.30033 101.849042,31.2156216 101.479253,27.4510451 L117.932704,27.4510451 C117.932704,27.0363036 118,25.3773377 118,24.6116612 Z" id="Fill-1" fill="#FFFFFF"></path>
            <path d="M78.9801948,32.7335025 C77.0649351,32.7335025 75.9285714,32.0406091 75.149026,31.1827411 L75.1168831,18.9416244 C75.9607143,17.9847716 77.1298701,17.3248731 78.9801948,17.3248731 C81.9350649,17.3248731 83.9801948,20.6903553 83.9801948,25.0126904 C83.9801948,29.4340102 81.9672078,32.7335025 78.9801948,32.7335025 M80.9282468,10 C77.7464286,10 75.700974,11.5177665 74.5646104,12.5736041 L74.1428571,10.5279188 L67,10.5279188 L67,49 L75.1168831,47.251269 L75.149026,37.9137056 C76.3181818,38.7715736 78.038961,39.9923858 80.8957792,39.9923858 C86.7077922,39.9923858 92,35.2411168 92,24.7817259 C91.9672078,15.213198 86.6100649,10 80.9282468,10" id="Fill-3" fill="#FFFFFF"></path>
            <polygon id="Fill-5" fill="#FFFFFF" points="56 8 64 6.31906615 64 0 56 1.64980545"></polygon>
            <mask id="mask-2" fill="white">
                <use xlink:href="#path-1"></use>
            </mask>
            <g id="Clip-8"></g>
            <polygon id="Fill-7" fill="#FFFFFF" mask="url(#mask-2)" points="56 39 64 39 64 10 56 10"></polygon>
            <path d="M46.3818182,12.7625203 L45.8727273,10.3385834 L39,10.3385834 L39,39 L46.9545455,39 L46.9545455,19.5757485 C48.8318182,17.0535438 52.0136364,17.5121265 53,17.8724414 L53,10.3385834 C51.9818182,9.9455125 48.2590909,9.22488259 46.3818182,12.7625203" id="Fill-9" fill="#FFFFFF" mask="url(#mask-2)"></path>
            <path d="M30.9032258,4 L23.0322581,5.68648649 L23,31.6648649 C23,36.4648649 26.5806452,40 31.3548387,40 C34,40 35.9354839,39.5135135 37,38.9297297 L37,32.3459459 C35.9677419,32.7675676 30.8709677,34.2594595 30.8709677,29.4594595 L30.8709677,17.9459459 L37,17.9459459 L37,11.0378378 L30.8709677,11.0378378 L30.9032258,4 Z" id="Fill-10" fill="#FFFFFF" mask="url(#mask-2)"></path>
            <path d="M8.36692913,18.6363586 C8.36692913,17.3934878 9.42519685,16.9154606 11.1779528,16.9154606 C13.6913386,16.9154606 16.8661417,17.6484357 19.3795276,18.9550435 L19.3795276,11.4659502 C16.6346457,10.4142903 13.9228346,10 11.1779528,10 C4.46456693,10 0,13.3780591 0,19.0187804 C0,27.8144815 12.5669291,26.4119496 12.5669291,30.2046176 C12.5669291,31.6702491 11.2440945,32.1482764 9.39212598,32.1482764 C6.64724409,32.1482764 3.14173228,31.0650666 0.363779528,29.5987978 L0.363779528,37.1838152 C3.43937008,38.4585545 6.5480315,39 9.39212598,39 C16.2708661,39 21,35.717865 21,30.0134067 C20.9669291,20.5165991 8.36692913,22.2056286 8.36692913,18.6363586" id="Fill-11" fill="#FFFFFF" mask="url(#mask-2)"></path>
        </g>
    </g>
</svg>