<?xml version="1.0" encoding="UTF-8"?>
<svg width="96px" height="24px" viewBox="0 0 96 24" version="1.1" xmlns="http://www.w3.org/2000/svg" xmlns:xlink="http://www.w3.org/1999/xlink">
    <!-- Generator: Sketch 52.2 (67145) - http://www.bohemiancoding.com/sketch -->
    <title>Forbes</title>
    <desc>Created with Sketch.</desc>
    <g id="Final" stroke="none" stroke-width="1" fill="none" fill-rule="evenodd" opacity="0.8">
        <g id="Desktop-(max-width:-1600px)" transform="translate(-526.000000, -1274.000000)">
            <g id="FEATURED-IN-Top-dark" transform="translate(205.000000, 1240.000000)">
                <g id="LOGOS">
                    <g id="Group-29" transform="translate(117.000000, 26.000000)">
                        <g id="Forbes" transform="translate(204.500000, 8.000000)">
                            <g id="Group-3" transform="translate(46.728468, 0.448086)">
                                <polygon id="Clip-2" points="17.7876967 0.148507029 0.0731868853 0.148507029 0.0731868853 22.6634848 17.7876967 22.6634848 17.7876967 0.148507029"></polygon>
                                <path d="M8.71227034,21.5273165 C8.27466455,21.5273165 7.72781517,21.5273165 7.40008443,21.4241369 C7.29084085,19.97843 7.18159727,13.8848705 7.29084085,8.51416444 C7.94630234,8.30780527 8.38390813,8.20462569 8.9307575,8.20462569 C11.3360107,8.20462569 12.6488281,10.8896805 12.6488281,14.1944092 C12.6488281,18.3257674 11.0089114,21.5273165 8.71227034,21.5273165 M11.2273986,6.55196313 C9.69609404,6.55196313 8.49378318,6.86150188 7.29084085,7.48117579 C7.29084085,4.17644708 7.29084085,1.18125712 7.40008443,0.148268464 L0.0731868853,1.38761628 L0.0731868853,2.0078866 L0.839154887,2.11106619 C1.82297859,2.31682894 2.1513408,2.83332326 2.36982796,4.0732675 C2.58894659,6.55196313 2.47907154,19.7714744 2.36982796,21.9406313 C4.33810682,22.353946 6.41562927,22.6634848 8.49378318,22.6634848 C14.2893762,22.6634848 17.7876967,19.2555765 17.7876967,13.8848705 C17.7876967,9.65033267 14.9454691,6.55196313 11.2273986,6.55196313" id="Fill-1" fill="#062942"></path>
                            </g>
                            <path d="M19.2451828,1.00996708 L0,1.00996708 L0,1.93917974 L1.09369875,2.04235932 C2.51512824,2.2493149 3.06197761,3.07534797 3.27983331,5.03754928 C3.60882698,8.75559273 3.4995834,15.4688261 3.27983331,18.6709717 C3.06197761,20.6325766 2.51512824,21.5629821 1.09369875,21.6655652 L0,21.8725208 L0,22.6985539 L12.3565225,22.6985539 L12.3565225,21.8725208 L11.0443366,21.6655652 C9.62290715,21.5629821 9.07605778,20.6325766 8.85757062,18.6709717 C8.74769557,17.3278479 8.63845199,15.158691 8.63845199,12.4736362 L11.2628238,12.5768158 C12.9040034,12.5768158 13.6687085,13.8161636 13.9970707,15.5726021 L14.9808944,15.5726021 L14.9808944,8.23969482 L13.9970707,8.23969482 C13.6687085,9.99553697 12.9040034,11.2342884 11.2628238,11.2342884 L8.63845199,11.337468 C8.63845199,7.82638008 8.74769557,4.52105496 8.85757062,2.55885365 L12.6842533,2.55885365 C15.6369873,2.55885365 17.1682919,4.31469579 18.2613591,7.41306533 L19.3544264,7.10293017 L19.2451828,1.00996708 Z" id="Fill-4" fill="#062942"></path>
                            <path d="M25.1505246,7.82620115 C22.7452714,7.82620115 22.0891785,10.9245707 22.0891785,14.9527493 C22.0891785,18.8771519 23.1822457,22.0787011 25.3702747,22.0787011 C27.88414,22.0787011 28.5408644,18.9803315 28.5408644,14.9527493 C28.5408644,11.0277503 27.4471657,7.82620115 25.1505246,7.82620115 M25.4782553,6.7932125 C30.9461176,6.7932125 33.6803645,10.3048968 33.6803645,14.9527493 C33.6803645,19.3930498 30.6183869,23.1116897 25.1505246,23.1116897 C19.6832938,23.1116897 16.9490469,19.6006018 16.9490469,14.9527493 C16.9490469,10.511256 20.0110245,6.7932125 25.4782553,6.7932125" id="Fill-6" fill="#062942"></path>
                            <path d="M70.9681035,13.0937276 L76.1076036,12.9899516 C76.1076036,10.9245707 75.7798729,7.82620115 73.9208376,7.82620115 C72.0618023,7.82620115 71.0773471,10.7176151 70.9681035,13.0937276 M65.9384785,15.0553325 C65.9384785,10.8213911 68.7813375,6.7932125 74.3584434,6.7932125 C78.951094,6.7932125 81.1384915,9.99535804 81.1384915,14.2292994 L70.9681035,14.2292994 C70.85886,18.0511189 72.8271388,20.8393532 76.764328,20.8393532 C78.5134883,20.8393532 79.3886998,20.4266349 80.4817671,19.7037814 L80.9193729,20.2196793 C79.8256742,21.6659827 77.4197895,23.1116897 74.3584434,23.1116897 C69.4374305,23.1116897 65.9384785,19.806961 65.9384785,15.0553325" id="Fill-8" fill="#062942"></path>
                            <g id="Group-12" transform="translate(82.090553, 6.412223)">
                                <polygon id="Clip-11" points="6.59231339 16.6995856 13.0441888 16.6995856 13.0441888 0.3811084 0.140437992 0.3811084 0.140437992 16.6995856"></polygon>
                                <path d="M12.0599862,1.20773789 C10.7478003,0.690647148 8.99800861,0.3811084 7.03036121,0.3811084 C2.9845599,0.3811084 0.469431668,2.65284846 0.469431668,5.33849967 C0.469431668,8.02415088 2.32783548,9.16031912 4.9522073,9.98635219 C7.6858227,10.9155649 8.4517907,11.6390148 8.4517907,12.8783626 C8.4517907,14.1177104 7.46733554,15.2538786 5.7181753,15.2538786 C3.64065286,15.2538786 2.10934832,14.1177104 0.906405994,11.0193408 L0.140437992,11.2257 L0.250313039,15.770373 C1.56249895,16.2868673 3.9683836,16.6995856 6.04590605,16.6995856 C10.310826,16.6995856 13.0444414,14.6336083 13.0444414,11.4326556 C13.0444414,9.2634987 11.8414991,8.02415088 8.99800861,6.99116223 C5.93666246,5.854994 4.84296372,5.13214051 4.84296372,3.78961311 C4.84296372,2.44648929 5.82741888,1.51668022 7.13960479,1.51668022 C9.10788365,1.51668022 10.4200696,2.65284846 11.4038933,5.44167925 L12.1692298,5.23532009 L12.0599862,1.20773789 Z" id="Fill-10" fill="#062942"></path>
                            </g>
                            <path d="M47.8954171,7.20640796 C46.0370133,6.17341931 42.7559171,6.68991364 41.0061254,10.4079571 L41.1160004,6.79368963 L33.7891029,8.13621703 L33.7891029,8.75529453 L34.5544394,8.85907052 C35.5388946,8.96225011 35.9758689,9.47814802 36.0857439,10.8212718 C36.3042311,13.2999675 36.1949875,17.6376848 36.0857439,19.8068417 C35.9758689,21.0461895 35.5388946,21.6658634 34.5544394,21.769043 L33.7891029,21.8722226 L33.7891029,22.6988521 L43.9588594,22.6988521 L43.9588594,21.8722226 L42.6466735,21.769043 C41.5529747,21.6658634 41.225244,21.0461895 41.1160004,19.8068417 C40.8968818,17.8446404 40.8968818,13.9196414 41.0061254,11.4409457 C41.5529747,10.7180923 43.9588594,10.0984183 46.1456254,11.4409457 L47.8954171,7.20640796 Z" id="Fill-13" fill="#062942"></path>
                        </g>
                    </g>
                </g>
            </g>
        </g>
    </g>
</svg>