<svg xmlns="http://www.w3.org/2000/svg" viewBox="0 0 331.12 44" width="331.12px" height="44px"><defs><style>.a{fill:#8595a1;}</style></defs><title>mc-visa-amex-applepay_darkgrey</title><polygon class="a" points="106.84 32.5 110.33 12.14 115.91 12.14 112.42 32.5 106.84 32.5"/><path class="a" d="M132.65,12.3a14.42,14.42,0,0,0-5-.86c-5.51,0-9.4,2.78-9.43,6.76,0,2.94,2.77,4.58,4.89,5.56S126,25.4,126,26.3c0,1.37-1.73,2-3.34,2a11.69,11.69,0,0,1-5.26-1.08l-.72-.33-.78,4.58a17.65,17.65,0,0,0,6.22,1.09c5.86,0,9.67-2.74,9.72-7,0-2.33-1.47-4.1-4.68-5.56-2-1-3.14-1.58-3.13-2.54s1-1.76,3.2-1.76a10.29,10.29,0,0,1,4.18.78l.5.24.76-4.44"/><path class="a" d="M140.08,25.17c.46-1.63,2.22-5.8,2.22-5.8s.46-1.22.74-2l.38,1.82s1.07,5.15,1.29,6Zm7-13h-4.41a2.74,2.74,0,0,0-2.94,1.58L131.4,32.5h5.86s1-2.63,1.17-3.19l7.15.06c.17.72.68,3.12.68,3.12h5.14l-4.52-20.36Z"/><path class="a" d="M102.28,12.13h-.12L96.7,25.94,96.12,23l0,0-2-9.23c-.34-1.3-1.32-1.6-2.53-1.6h-9l-.07.26a23.76,23.76,0,0,1,5.91,2.25L93.4,32.27l5.9.14,8.78-20.28Z"/><path class="a" d="M214,17.36a2,2,0,0,0,.38,1.37,1.34,1.34,0,0,0,.52.26,1.35,1.35,0,0,1-.46-.25,2,2,0,0,1-.38-1.37,1.93,1.93,0,0,1,.4-1.32,1.34,1.34,0,0,1,.48-.29,1.33,1.33,0,0,0-.56.31A1.93,1.93,0,0,0,214,17.36Z"/><polygon class="a" points="222.42 19.86 220.11 14.46 220.07 14.46 222.42 19.96 222.42 19.86"/><polygon class="a" points="219.99 17.77 218.99 15.44 218.98 15.46 219.93 17.77 219.99 17.77"/><polygon class="a" points="226.38 20.29 226.38 20.3 228.38 20.3 228.47 14.45 228.33 14.45 228.33 20.29 226.38 20.29"/><polygon class="a" points="226.99 18.43 224.59 14.45 224.54 14.45 226.99 18.52 226.99 18.43"/><polygon class="a" points="218.49 16.6 217.99 17.77 218.01 17.77 218.49 16.6"/><rect class="a" x="210.44" y="14.45" width="1.42" height="5.85"/><path class="a" d="M207.16,17a1.29,1.29,0,0,0,.69-.12h0a1.29,1.29,0,0,1-.69.12Z"/><path class="a" d="M209.33,18.08a1.62,1.62,0,0,0-.68-.5h0A1.62,1.62,0,0,1,209.33,18.08Z"/><path class="a" d="M208,18.41a1.36,1.36,0,0,0-1-.25h0a1.36,1.36,0,0,1,1,.25,1.75,1.75,0,0,1,.22,1.14v.74h0v-.74A1.75,1.75,0,0,0,208,18.41Z"/><path class="a" d="M207.68,14.43a3.29,3.29,0,0,0-.44,0h.44Z"/><polygon class="a" points="190.71 20.29 190.74 20.29 190.74 15.77 190.71 15.71 190.71 20.29"/><polygon class="a" points="183.85 20.29 183.92 20.29 184.46 18.98 184.39 18.98 183.85 20.29"/><polygon class="a" points="193.93 20.29 193.96 20.29 195.93 15.78 195.93 15.71 193.93 20.29"/><polygon class="a" points="223.71 20.29 220.9 20.29 220.9 20.3 223.74 20.3 223.74 15.96 223.71 15.9 223.71 20.29"/><path class="a" d="M227.25,26.22c0,1.81,1.63,1.81,2.94,1.81a.71.71,0,0,1,.49.13.48.48,0,0,1,.17.39.51.51,0,0,1-.17.38.79.79,0,0,1-.56.14h-2.68V30.3h2.69a2.17,2.17,0,0,0,1.84-.7v0a1.88,1.88,0,0,0,.29-1.1A1.7,1.7,0,0,0,232,27.4v-.12l-.06-.06a2.21,2.21,0,0,0-1.58-.47h-.81a1.59,1.59,0,0,1-.54-.07.44.44,0,0,1-.31-.44.45.45,0,0,1,.2-.42,1,1,0,0,1,.56-.11H232V24.48h-2.72C227.79,24.48,227.25,25.38,227.25,26.22Z"/><polygon class="a" points="184.83 14.45 182.33 20.29 184.89 14.45 184.83 14.45"/><path class="a" d="M217.41,19l-.53,1.3h-1.63a2.93,2.93,0,0,1-.5,0,2.92,2.92,0,0,0,.58,0h1.6l.53-1.3h0Z"/><rect class="a" x="216.72" y="14.46" width="0.08" height="1.25"/><polygon class="a" points="193.42 18.39 191.61 14.45 191.56 14.45 193.39 18.45 193.42 18.39"/><polygon class="a" points="186.85 17.77 185.85 15.44 186.8 17.77 186.85 17.77"/><polygon class="a" points="195.96 20.29 195.96 20.3 197.39 20.3 197.39 20.29 197.44 20.29 197.44 14.45 197.33 14.45 197.33 20.29 195.96 20.29"/><path class="a" d="M229.93,31.47h-3.62V31a3.25,3.25,0,0,1-1.9.52H213V29.6c0-.24,0-.24-.25-.24h-.18v2.12h-3.75v-2.2a4.75,4.75,0,0,1-1.94.29h-.45v1.91h-4.55l-1.12-1.27-1.19,1.27H192.2V23.34h7.52l1.08,1.25L202,23.34h5a3.18,3.18,0,0,1,2,.48v-.48h4.5a3.63,3.63,0,0,1,1.88.48v-.48h6.88v.48a2.64,2.64,0,0,1,1.67-.48h3.82v.48a2.91,2.91,0,0,1,1.75-.48H232V3.26H182.33V17.16L184,13.29h3.64l.47,1v-1h4.26l.93,2.1.91-2.1h13.52a2.3,2.3,0,0,1,1.58.48v-.48H213v.48a4.82,4.82,0,0,1,2.33-.48h5.41l.5,1v-1h4l.54,1v-1h3.86v8.13h-3.92L225,20.2v1.24h-4.89l-.53-1.3h-1.2l-.54,1.3h-2.54a4.78,4.78,0,0,1-2.24-.5v.5h-6V19.59c0-.28,0-.28-.2-.28h-.23v2.13H195v-1l-.42,1H192.1l-.42-1v1H187l-.54-1.3h-1.2l-.54,1.3h-2.38V40.74H232V30.41l0,.68A4.84,4.84,0,0,1,229.93,31.47Z"/><path class="a" d="M207,24.49h-4.46l-1.77,1.91L199,24.49h-5.61v5.92h5.53l1.79-1.93,1.72,1.93h2.71v-2h1.74c1.22,0,2.43-.38,2.43-2h0C209.32,24.8,208.08,24.49,207,24.49Zm-8.64,4.58H194.9V28H198V26.77H194.9V25.71h3.43l1.53,1.7Zm5.53.69-2.14-2.38,2.14-2.3Zm3.19-2.57v0h-1.8V25.71h1.82c.5,0,.85.21.85.72S207.59,27.2,207.05,27.2Z"/><rect class="a" x="203.09" y="19.08" width="0.01" height="1.21"/><rect class="a" x="204.03" y="14.45" width="0.03" height="5.84"/><rect class="a" x="199.83" y="15.66" width="3.26" height="0.01"/><path class="a" d="M226.45,27.23a2.25,2.25,0,0,0-1.59-.47h-.75a1.6,1.6,0,0,1-.54-.07.49.49,0,0,1-.1-.86,1,1,0,0,1,.56-.11h2.56V24.48h-2.8c-1.47,0-2,.89-2,1.74,0,1.81,1.64,1.81,2.94,1.81a.73.73,0,0,1,.5.13.5.5,0,0,1,.17.39.52.52,0,0,1-.16.38.82.82,0,0,1-.57.14H222V30.3h2.72c1.41,0,2.19-.58,2.19-1.84a1.62,1.62,0,0,0-.42-1.24Z"/><path class="a" d="M215.65,26.08a1.37,1.37,0,0,0-.72-1.3,3.45,3.45,0,0,0-1.68-.28H210V30.3h1.4V28.17h1.5a1.35,1.35,0,0,1,1,.26,1.91,1.91,0,0,1,.23,1.14v.73h1.4V29.15a1.7,1.7,0,0,0-.23-1.07,1.52,1.52,0,0,0-.63-.48l0,0A1.64,1.64,0,0,0,215.65,26.08Zm-1.79.79h0l0,0,0,0a1.34,1.34,0,0,1-.69.12h-1.74V25.71h1.72a1.38,1.38,0,0,1,.67.11.56.56,0,0,1,.29.53A.62.62,0,0,1,213.86,26.87Z"/><polygon class="a" points="216.46 30.29 221.12 30.29 221.12 29.07 217.85 29.07 217.85 27.93 221.04 27.93 221.04 26.73 217.85 26.73 217.85 25.68 221.12 25.68 221.12 24.46 216.46 24.46 216.46 30.29"/><rect class="a" x="199.83" y="17.91" width="3.19" height="0.01"/><path class="a" d="M208.13,16.28a.6.6,0,0,1-.29.55.6.6,0,0,0,.3-.55.53.53,0,0,0-.29-.52,1.43,1.43,0,0,0-.66-.11h0a1.43,1.43,0,0,1,.66.11A.53.53,0,0,1,208.13,16.28Z"/><path class="a" d="M184.39,19h3l.54,1.3h2.81V15.71l0,.07v-.07l2,4.58h1.19l2-4.57v.07l0-.07v4.57h1.37V14.45h-2.21l-1.68,4,0-.06,0,.06-1.83-4h-2.23V20l-2.43-5.53h-2l-2.56,5.84h1.52Zm1.46-3.55,1,2.33h-2Z"/><path class="a" d="M205.43,20.28V18.16H207a1.36,1.36,0,0,1,1,.25,1.75,1.75,0,0,1,.22,1.14v.74h1.38V19.15a1.68,1.68,0,0,0-.23-1.07,1.62,1.62,0,0,0-.69-.49h0a1.64,1.64,0,0,0,1-1.56,1.36,1.36,0,0,0-.71-1.29,3.29,3.29,0,0,0-1.25-.29h-3.62v5.84Zm0-4.63h1.73a1.43,1.43,0,0,1,.66.11.53.53,0,0,1,.29.52.6.6,0,0,1-.3.55h0a1.29,1.29,0,0,1-.69.12h-1.7Z"/><polygon class="a" points="203.09 19.07 199.83 19.07 199.83 17.93 199.83 17.91 203.02 17.91 203.02 16.73 199.83 16.73 199.83 16.71 199.83 15.68 199.83 15.66 203.09 15.66 203.09 14.45 198.43 14.45 198.43 20.29 203.09 20.29 203.09 19.07"/><path class="a" d="M213.33,15.14a3.11,3.11,0,0,0-.75,2.28,2.94,2.94,0,0,0,.75,2.23,2.79,2.79,0,0,0,1.92.64h1.63l.53-1.3h3l.54,1.29h2.81V15.91l0,.05v0l2.63,4.37h2V14.45H227v4.07l-.05-.09v.09l-2.45-4.07h-2.07V20l0-.12V20l-2.36-5.51h-2L216,19h-.63a1.59,1.59,0,0,1-1.06-.31,2,2,0,0,1-.38-1.37,1.93,1.93,0,0,1,.38-1.29,1.58,1.58,0,0,1,1.15-.37h1.24V14.46h-1.27A2.83,2.83,0,0,0,213.33,15.14Zm5.16,1.47.48-1.17v0l1,2.33h-2Z"/><path class="a" d="M324.12,42h-53a7,7,0,0,1-7-7V9a7,7,0,0,1,7-7h53a7,7,0,0,1,7,7V35A7,7,0,0,1,324.12,42Zm-53-38a5,5,0,0,0-5,5V35a5,5,0,0,0,5,5h53a5,5,0,0,0,5-5V9a5,5,0,0,0-5-5Z"/><path class="a" d="M284.52,14.6a3.47,3.47,0,0,0,.88-2.6,3.86,3.86,0,0,0-2.5,1.23,3.3,3.3,0,0,0-.9,2.51,3.2,3.2,0,0,0,2.52-1.15m2.13,6a3.61,3.61,0,0,0,2.28,3.28,8.7,8.7,0,0,1-1.17,2.31c-.71,1-1.44,2-2.6,2s-1.5-.64-2.8-.64-1.7.62-2.78.66-2-1.07-2.68-2c-1.46-2-2.57-5.69-1.07-8.17a4.18,4.18,0,0,1,3.51-2c1.1,0,2.13.7,2.8.7s1.93-.87,3.25-.74a4,4,0,0,1,3.1,1.61,3.66,3.66,0,0,0-1.83,3.08"/><path class="a" d="M294.16,20.78a4.79,4.79,0,0,0,.86.15h1a4.87,4.87,0,0,0,3.16-.92,3.27,3.27,0,0,0,1.12-2.69,3.5,3.5,0,0,0-.29-1.49,2.68,2.68,0,0,0-.84-1,3.89,3.89,0,0,0-1.29-.61,6.18,6.18,0,0,0-1.66-.21,12.18,12.18,0,0,0-1.25.05,7.39,7.39,0,0,0-.84.12Zm-1.07-7.35q.66-.11,1.45-.2a16,16,0,0,1,1.75-.09,7.71,7.71,0,0,1,2.35.32,4.25,4.25,0,0,1,1.62.91,3.73,3.73,0,0,1,.85,1.25,4.23,4.23,0,0,1,.31,1.66,4.46,4.46,0,0,1-.42,2,4.15,4.15,0,0,1-1.15,1.43,4.86,4.86,0,0,1-1.72.86,7.93,7.93,0,0,1-2.18.28,8.87,8.87,0,0,1-1.79-.15V28h-1.07Z"/><path class="a" d="M308.83,22.38a15.31,15.31,0,0,0-1.8.07,6.75,6.75,0,0,0-1.74.38,3.32,3.32,0,0,0-1.32.86,2.15,2.15,0,0,0-.52,1.51,2,2,0,0,0,.66,1.64,2.3,2.3,0,0,0,1.47.53,3.69,3.69,0,0,0,1.18-.18,3.11,3.11,0,0,0,.91-.47,3,3,0,0,0,.65-.67,3.1,3.1,0,0,0,.4-.77,2.89,2.89,0,0,0,.11-.63Zm1.07,3.13v1.27A8,8,0,0,0,310,28h-1l-.16-1.49h0a3.75,3.75,0,0,1-.52.61,4.07,4.07,0,0,1-.74.56,4,4,0,0,1-1,.4,4.23,4.23,0,0,1-1.17.15A3.59,3.59,0,0,1,304,28a2.87,2.87,0,0,1-1-.66,2.67,2.67,0,0,1-.58-.93,3,3,0,0,1-.19-1,3.19,3.19,0,0,1,1.62-2.87,9.2,9.2,0,0,1,4.89-1v-.28a6.57,6.57,0,0,0-.08-1,2.92,2.92,0,0,0-.35-1,2.24,2.24,0,0,0-.82-.81,2.85,2.85,0,0,0-1.48-.33,4.94,4.94,0,0,0-2.65.79l-.34-.77a5.13,5.13,0,0,1,1.5-.69,6.16,6.16,0,0,1,1.61-.21,4,4,0,0,1,1.85.37,3,3,0,0,1,1.12,1,3.52,3.52,0,0,1,.56,1.32,7.36,7.36,0,0,1,.15,1.45v4.13Z"/><path class="a" d="M312,17.5l2.77,6.83q.23.57.43,1.17l.36,1.1h0l.36-1.08q.2-.6.45-1.24L319,17.5h1.13L317,25.2q-.48,1.22-.9,2.22a19.76,19.76,0,0,1-.85,1.79,12.79,12.79,0,0,1-.87,1.41,5.94,5.94,0,0,1-1,1.07,5.36,5.36,0,0,1-1.17.8l-.71.32-.36-.85a9.09,9.09,0,0,0,.91-.46,4.93,4.93,0,0,0,1-.74,9,9,0,0,0,.9-1,7.22,7.22,0,0,0,.87-1.56,1.71,1.71,0,0,0,.14-.46,1.28,1.28,0,0,0-.14-.46l-3.92-9.73H312"/><path class="a" d="M9.7,42.51V39.76A1.63,1.63,0,0,0,8.19,38H8a1.69,1.69,0,0,0-1.54.78A1.61,1.61,0,0,0,5,38a1.45,1.45,0,0,0-1.28.65v-.54h-1v4.38h1V40.1a1,1,0,0,1,.88-1.15H4.8c.63,0,1,.41,1,1.15v2.44h1V40.1a1,1,0,0,1,.89-1.16h.18c.65,0,1,.41,1,1.15v2.44Zm14.22-4.38H22.36V36.8h-1v1.33h-.87V39h.89v2c0,1,.39,1.62,1.52,1.62a2.23,2.23,0,0,0,1.19-.34l-.27-.81a1.76,1.76,0,0,1-.84.25c-.46,0-.63-.29-.63-.73V39h1.56ZM32,38a1.29,1.29,0,0,0-1.15.64v-.53h-.94v4.38h1V40.05c0-.72.31-1.13.92-1.13a1.55,1.55,0,0,1,.6.11l.29-.92A2,2,0,0,0,32,38Zm-12.28.46A3.27,3.27,0,0,0,18,38c-1.11,0-1.83.53-1.83,1.4,0,.71.53,1.15,1.51,1.29l.46.06c.52.07.77.21.77.46s-.35.53-1,.53a2.33,2.33,0,0,1-1.46-.46l-.46.74a3.16,3.16,0,0,0,1.89.57c1.26,0,2-.6,2-1.43s-.58-1.17-1.53-1.31l-.46-.06c-.41-.05-.74-.14-.74-.43s.31-.51.83-.51a2.82,2.82,0,0,1,1.37.38ZM45.27,38a1.29,1.29,0,0,0-1.15.64v-.53h-.94v4.38h1V40.05c0-.72.31-1.13.92-1.13a1.55,1.55,0,0,1,.6.11l.29-.92a2,2,0,0,0-.68-.12ZM33,40.31a2.21,2.21,0,0,0,2.13,2.29h.21a2.29,2.29,0,0,0,1.57-.52l-.46-.77a1.92,1.92,0,0,1-1.14.39,1.41,1.41,0,0,1,0-2.8,1.92,1.92,0,0,1,1.14.39l.46-.77A2.29,2.29,0,0,0,35.33,38,2.21,2.21,0,0,0,33,40.09q0,.1,0,.21Zm8.92,0V38.13H41v.53A1.66,1.66,0,0,0,39.59,38a2.29,2.29,0,0,0,0,4.58A1.66,1.66,0,0,0,41,42v.53h1Zm-3.54,0a1.31,1.31,0,1,1,0,.1S38.37,40.35,38.37,40.31ZM26.88,38a2.29,2.29,0,1,0,.06,4.58h0a2.66,2.66,0,0,0,1.82-.6l-.46-.7a2.08,2.08,0,0,1-1.27.46,1.21,1.21,0,0,1-1.31-1.07H29v-.37A2.08,2.08,0,0,0,26.9,38Zm0,.85A1.08,1.08,0,0,1,28,39.94H25.7a1.13,1.13,0,0,1,1.16-1.06Zm23.85,1.45V36.37h-.92v2.29A1.66,1.66,0,0,0,48.45,38a2.29,2.29,0,0,0,0,4.58A1.66,1.66,0,0,0,49.82,42v.53h.92Zm1.59,1.55a.44.44,0,0,1,.41.26.43.43,0,0,1,0,.34.44.44,0,0,1-.24.23.43.43,0,0,1-.17,0,.46.46,0,0,1-.41-.27.43.43,0,0,1,0-.34.44.44,0,0,1,.43-.26Zm0,.77.13,0,.11-.07a.34.34,0,0,0,0-.46L52.46,42l-.13,0-.13,0a.33.33,0,0,0-.11.07.33.33,0,0,0,.26.56Zm0-.54a.18.18,0,0,1,.12,0,.11.11,0,0,1,0,.1.11.11,0,0,1,0,.08.16.16,0,0,1-.1,0l.13.15h-.11l-.12-.15h0v.15h-.09v-.4Zm-.1.08v.11h.16a0,0,0,0,0,0,0,0,0,0,0,0,0,0h-.05Zm-5-1.86a1.31,1.31,0,1,1,0,.1S47.21,40.35,47.22,40.32Zm-32.15,0V38.13h-1v.53A1.66,1.66,0,0,0,12.75,38a2.29,2.29,0,1,0,0,4.58A1.66,1.66,0,0,0,14.12,42v.53h1Zm-3.54,0a1.22,1.22,0,1,1,0,.11s0-.08,0-.11Z"/><path class="a" d="M19.37,17.75A17.34,17.34,0,0,1,25.82,4.19a16.47,16.47,0,1,0,0,27.11A17.34,17.34,0,0,1,19.37,17.75Z"/><path class="a" d="M49.8,7.56A16.46,16.46,0,0,0,27.5,4.2a17.44,17.44,0,0,1,0,27.1A16.46,16.46,0,0,0,53.32,17.75h0A16.48,16.48,0,0,0,49.8,7.56Z"/><path class="a" d="M20.37,17.75a16.45,16.45,0,0,0,6.29,13,16.48,16.48,0,0,0,0-25.91A16.45,16.45,0,0,0,20.37,17.75Z"/><path class="a" d="M51.75,28v-.53H52v-.11h-.54v.11h.23V28Zm1.06,0v-.64h-.16l-.19.46-.19-.46h-.15V28h.12v-.48l.18.42h.12l.18-.42V28Z"/></svg>
