<svg xmlns="http://www.w3.org/2000/svg" viewBox="0 0 130 62" width="130px" height="62px"><defs><style>.a{fill:#fff;}.b{fill:#e0effb;}.c{fill:#f1c719;}.d{fill:#fa51a9;}.e{fill:#b1e3ba;}.f{fill:#0d83dd;}</style></defs><title>mostPopular</title><rect class="a" width="130" height="62"/><path class="b" d="M9,16.18a3,3,0,0,0-1.76.57A3,3,0,0,0,6.58,21l6.57,9h5.6L11.6,17.67l-.17-.26A3,3,0,0,0,9,16.18"/><path class="b" d="M64.45,1h0a3.52,3.52,0,0,0-3.5,3.48L60.76,30h3.73L67.91,5a3.29,3.29,0,0,0,0-.45A3.51,3.51,0,0,0,64.45,1"/><path class="b" d="M34.34,16.13a3.06,3.06,0,0,0-1.28.29,3,3,0,0,0-1.44,4L36.13,30h4.93L37.2,18.2c0-.11-.09-.23-.14-.34a3,3,0,0,0-2.72-1.73"/><path class="b" d="M117,18.1a3,3,0,0,0-2.72,1.72L109.43,30h5.65l4.44-7.32a2.44,2.44,0,0,0,.14-.28,3,3,0,0,0-1.43-4A3,3,0,0,0,117,18.1"/><path class="b" d="M93.07,10.31a3,3,0,0,0-2.87,2.11L84.72,30h4.63l6.49-15.51.1-.27a3,3,0,0,0-2-3.76,3,3,0,0,0-.89-.13"/><polygon class="c" points="6.61 22.69 5 23.79 6.85 24.4 7.4 26.28 8.55 24.7 10.5 24.76 9.36 23.18 10.02 21.34 8.16 21.94 6.62 20.74 6.61 22.69"/><polygon class="c" points="52.31 9.75 49.89 10.4 51.9 11.94 51.8 14.46 53.86 13.03 56.22 13.94 55.48 11.52 57.04 9.56 54.52 9.49 53.12 7.37 52.31 9.75"/><polygon class="c" points="79.72 8.01 76.99 9.62 79.93 10.8 80.61 13.89 82.65 11.47 85.8 11.78 84.12 9.09 85.38 6.19 82.31 6.95 79.94 4.86 79.72 8.01"/><path class="d" d="M58.85,18.88a.81.81,0,0,0-.31.06.83.83,0,0,0-.45.45.84.84,0,0,0,.45,1.09l4.07,1.75a.75.75,0,0,0,.33.07.81.81,0,0,0,.75-.51.83.83,0,0,0-.45-1.09L59.18,19a.78.78,0,0,0-.33-.07"/><path class="d" d="M26.48,19.83a.82.82,0,0,0-.4.1l-3.91,2.13a.89.89,0,0,0-.41.49.84.84,0,0,0,.07.64.83.83,0,0,0,.73.43.85.85,0,0,0,.4-.1l3.91-2.13a.83.83,0,0,0,.34-1.13.84.84,0,0,0-.73-.43"/><path class="d" d="M103.05,12.11a.84.84,0,0,0-.82.68l-.82,4.37a.86.86,0,0,0,.13.63.83.83,0,0,0,.53.35h.15a.84.84,0,0,0,.82-.68l.82-4.37a.83.83,0,0,0-.66-1h-.15"/><polygon class="c" points="90.8 22.32 89.09 23.32 90.93 24.07 91.36 26 92.63 24.48 94.6 24.67 93.55 23 94.34 21.18 92.42 21.66 90.94 20.35 90.8 22.32"/><polygon class="e" points="72.24 19.63 73.31 21.91 74.99 19.74 76.68 17.56 73.93 17.45 71.18 17.34 72.24 19.63"/><polygon class="e" points="18.37 12.14 17.07 13.74 19.28 14.19 21.48 14.64 20.57 12.59 19.66 10.54 18.37 12.14"/><polygon class="e" points="47.76 24.64 48.34 26.89 50.24 25.2 52.14 23.51 49.66 22.95 47.19 22.38 47.76 24.64"/><polygon class="e" points="116.65 25.13 117.72 27.41 119.4 25.24 121.09 23.06 118.34 22.95 115.59 22.84 116.65 25.13"/><path class="f" d="M21.82,43c-.87,2-2,6.87-3.58,6.87s-3.22-6.51-3.43-7.2a86.55,86.55,0,0,0-1.47,9.55c0,.65,0,1.2,0,1.75a.68.68,0,0,1-.75.68c-1,0-1.27-.72-1.27-1.78,0-2.26,1.68-10,2.28-12.15.41-2.37.86-3.4,1.8-3.4a1.12,1.12,0,0,1,1,1.05s0,.43.08,1.3c.19,2.54,1.36,7.68,2.08,7.85.58,0,2.09-4.66,2.55-6.39.55-2.11,1-2.45,1.46-2.45,1,0,.87.82,1,1.54v1a58.77,58.77,0,0,0,1.44,11.38,4.19,4.19,0,0,1,.48,1.08c0,.43-.52.84-1.29.84-1.66,0-2.16-9.1-2.28-11.48"/><path class="f" d="M32.66,49.11c0-1-.5-2.07-1.48-2.07-2,0-2.16,2-2.16,3.43s.48,2.26,1.46,2.26c1.66,0,2.18-2.11,2.18-3.62m-5.59,1.56c0-2.72.7-5.43,3.94-5.43,2.3,0,3.19,2.07,3.19,4,0,2.42-1.18,5.33-3.86,5.33-1.88,0-3.27-1.75-3.27-3.91"/><path class="f" d="M36,48v-.12c0-2,2.25-3,4.15-3.12a1.11,1.11,0,0,1,1.2,1.16c0,.79-3.41.5-3.41,2,0,.84,2.38,1.9,2.95,2.26A2,2,0,0,1,42,51.91c0,2-3.31,3-4.87,3-.65,0-1.44-.14-1.44-.84,0-.26.09-.5.33-.5s.41,0,.6,0c1,0,3.15-.48,3.15-1.7S36.07,50.28,36,48"/><path class="f" d="M45.91,53.86a45.79,45.79,0,0,1-.62-7.52c-1.49.29-2.5.46-2.5.46a1.24,1.24,0,0,1-1-1.15c0-.24,0-.46.22-.55l3.29-.32a29.26,29.26,0,0,1,.14-3.24c.15-1.44.41-3.21,1.51-3.21.68,0,1.25.21,1.25.67v.17a51.14,51.14,0,0,0-.77,5.4,25.11,25.11,0,0,0,3.29-.63,1.32,1.32,0,0,1,.24,0,.2.2,0,0,1,.22.21A1.28,1.28,0,0,1,50,45.31c-.91.24-1.85.43-2.69.63,0,.45,0,.91,0,1.34,0,3.58.14,5.33.21,6.15V54a1,1,0,0,1-1,1c-.34,0-.46-.41-.58-1.1"/><path class="f" d="M59,55.27c-1.08,0-1.23-8.42-1.23-11.09V43.8c0-.89.17-3.26,1.32-3.26.6,0,1.13.21,1.18.62a.45.45,0,0,1,0,.22,41.38,41.38,0,0,0-.33,6v.17c4-.55,5.18-2.85,5.18-4.75,0-2.69-2.64-3.91-5.93-3.91a12.76,12.76,0,0,0-4.48.74,1.06,1.06,0,0,1-.39.12c-.29,0-.41-.72-.41-1.08,0-1.65,2.91-1.7,4.44-1.7h.24c3.94,0,8.81,1.8,8.81,5.81,0,3.5-4.13,5.59-7.46,6,0,1.9,0,3.8.09,5.72,0,.45-.48.76-1,.76"/><path class="f" d="M72.14,49.11c0-1-.5-2.07-1.48-2.07-2,0-2.16,2-2.16,3.43S69,52.73,70,52.73c1.66,0,2.18-2.11,2.18-3.62m-5.59,1.56c0-2.72.7-5.43,3.94-5.43,2.3,0,3.19,2.07,3.19,4,0,2.42-1.18,5.33-3.86,5.33-1.88,0-3.27-1.75-3.27-3.91"/><path class="f" d="M80.3,47a4.71,4.71,0,0,0-2.47.74c-.22,1.85-.31,3.65-.36,5.26,2.45-.46,4.1-2,4.1-4.49A1.37,1.37,0,0,0,80.3,47M76.65,60.82c-.28,0-.45-.48-.55-1.08a64.69,64.69,0,0,1-.5-8.38c0-1.22,0-2.61.12-3.84.14-1.41.36-3.17,1.32-3.17.6,0,1.2.22,1.2.68a.36.36,0,0,1,0,.16c-.07.34-.12.68-.16,1a5.77,5.77,0,0,1,2.9-.72,2.59,2.59,0,0,1,2.86,2.57,6.37,6.37,0,0,1-6.29,6.14V55c0,1.83.21,3.34.21,4.85a.79.79,0,0,1-.55.87,1.8,1.8,0,0,1-.53.07"/><path class="f" d="M88,54.48c-2.28,0-2.71-3-2.83-4.7,0-.29,0-.84,0-1.18,0-1.2.14-2.45,1.36-2.76a2.14,2.14,0,0,1,.55-.1c.39,0,.53.34.53.89,0,1.25-.28,2.33-.28,3.46s.31,2.38,1.27,2.38,2.06-2.28,3-4.93c.17-1.31.51-1.43.94-1.43s1.27,0,1.27,1v.7a22.58,22.58,0,0,0,.15,3.12,8.06,8.06,0,0,0,.64,2.4,2.55,2.55,0,0,1,.2.55.79.79,0,0,1-.8.75.47.47,0,0,1-.33-.1c-.91-.6-1.71-2.11-1.8-4.7-1.16,3.36-2.28,4.7-3.82,4.7"/><path class="f" d="M99.91,54.29c0,.38-.48.58-1,.58a1.47,1.47,0,0,1-1.18-.82c-1-2-1-5.88-1-8.14,0-1.58.1-3.36.17-4.32.07-1.29.24-2.9,1.32-2.9.62,0,1.3.31,1.32.72a1.32,1.32,0,0,1,0,.29,53.69,53.69,0,0,0-.7,7.63c0,.41,0,.81,0,1.22.05,1.64.17,3.87.84,5.09a1.22,1.22,0,0,1,.22.65"/><path class="f" d="M107.78,46.44a1.58,1.58,0,0,1,.22.75.89.89,0,0,1-.72.81c-.07,0-.19-.14-.36-.41s-.34-.4-.91-.4c-1.44,0-2.19,1.68-2.19,3.38,0,.74.05,2.11,1.3,2.11,1.44,0,2.5-2.59,2.93-3.86s.81-1.78,1.17-1.78,1.11,0,1.11.87c0,1.2,0,2.32.14,3.21a8.57,8.57,0,0,0,.55,2.23,1.29,1.29,0,0,1,.15.46.78.78,0,0,1-.77.67c-.91,0-1.7-1.77-1.8-4.25-.86,2-2.26,4.06-3.91,4.06-1.9,0-2.91-1.73-2.91-3.7,0-2.54,1.08-5.2,4-5.2a2.11,2.11,0,0,1,2,1"/><path class="f" d="M118.44,47.21c-1.42,0-2.31,1.66-2.62,2.86a5.49,5.49,0,0,0-.21,1.53c0,.15,0,.27,0,.41v.79c0,1.32-.36,1.78-1.08,1.78h-.22c-.6-.07-.62-.6-.62-1.15a24.48,24.48,0,0,0-.48-5.21c-.1-.46-.17-.94-.26-1.59a2.63,2.63,0,0,1,0-.36,1,1,0,0,1,.8-.48c1.15,0,1.34,1.44,1.44,2.26.43-.74.72-1.13.86-1.34a3.36,3.36,0,0,1,2.59-1.37h.24a1.42,1.42,0,0,1,1.35,1.2c0,.48-.2,1.13-.7,1.13-.07,0-.24-.17-.26-.2a1,1,0,0,0-.72-.26Z"/></svg>
