<svg xmlns="http://www.w3.org/2000/svg" viewBox="0 0 50 50"><defs><style>.a{fill:#0d83dd;}</style></defs><title>project</title><path class="a" d="M18.53,22.14v.05a4.37,4.37,0,0,0,.31-.78,3.12,3.12,0,0,0,.11-.82V17.88h-.61a1.78,1.78,0,0,1-1.78-1.79,1.78,1.78,0,0,1,.52-1.29,1.69,1.69,0,0,1,1.26-.53H31.66a1.69,1.69,0,0,1,1.26.53,1.78,1.78,0,0,1,.52,1.29,1.78,1.78,0,0,1-1.78,1.79h-.61l0,3.46a.34.34,0,0,0,.05.14L40.7,37.89v0a5.87,5.87,0,0,1,.71,1.62,7.18,7.18,0,0,1,.23,1.81,6.39,6.39,0,0,1-1.48,4.19,6.56,6.56,0,0,1-3.72,2.32l.37-.05a56.89,56.89,0,0,1-6,1,52.65,52.65,0,0,1-6.19.35h-.09a51.39,51.39,0,0,1-5.72-.32,50.26,50.26,0,0,1-5.25-.89h0a6.91,6.91,0,0,1-2.77-1.39A6.36,6.36,0,0,1,8.92,44v0a5.73,5.73,0,0,1-.42-1.29,7.3,7.3,0,0,1-.14-1.43,7.18,7.18,0,0,1,.23-1.81A5.33,5.33,0,0,1,9.3,38ZM36.25,37.38l-.21,0a.65.65,0,0,1-.21-.07,6.86,6.86,0,0,0-4.38-.3,34.74,34.74,0,0,0-4.29,1.61l-1.64.75c-.57.25-1.14.49-1.74.71l.1,0a15.66,15.66,0,0,1-2.49.63,16,16,0,0,1-2.62.21H18.3a11.92,11.92,0,0,1-3-.37,10.84,10.84,0,0,1-2.65-1.08l-.23.42v0a4.24,4.24,0,0,0-.3.77,2.81,2.81,0,0,0-.12.82A3,3,0,0,0,12,42c.05.21.1.42.16.6a2.94,2.94,0,0,0,.85,1.13,2.75,2.75,0,0,0,1.26.61l-.33,0a52.65,52.65,0,0,0,5.32.87,49.91,49.91,0,0,0,5.51.3,47.56,47.56,0,0,0,5.63-.32,50.16,50.16,0,0,0,5.2-.89h0a2.73,2.73,0,0,0,1.24-.61,3.72,3.72,0,0,0,.87-1.13h0A2.9,2.9,0,0,0,38,41.27a2.76,2.76,0,0,0-.12-.82,3.19,3.19,0,0,0-.3-.73Zm-13-12.29A1.78,1.78,0,0,1,25,26.88a1.76,1.76,0,0,1-.52,1.28,1.66,1.66,0,0,1-1.26.54H18.86L17.5,31.09h3.28a1.82,1.82,0,0,1,1.29.52,1.69,1.69,0,0,1,.54,1.27,1.66,1.66,0,0,1-.54,1.26,1.82,1.82,0,0,1-1.29.52H15.39l-.94,1.64a7.35,7.35,0,0,0,4.08.93,12.52,12.52,0,0,0,4-.61A10.7,10.7,0,0,0,24.11,36c.5-.24,1-.46,1.55-.68,1.18-.56,2.45-1.09,3.79-1.57a10.81,10.81,0,0,1,4.36-.59l-5.76-9.89a4.36,4.36,0,0,1-.38-.91,3.85,3.85,0,0,1-.14-1l-.05-3.51H22.56v2.71a6,6,0,0,1-.26,1.81A6.37,6.37,0,0,1,21.62,24L21,25.09ZM21.91,4.8a2.3,2.3,0,0,0-1.69-.71,2.37,2.37,0,0,0-1.74.71,2.38,2.38,0,0,0,0,3.37,2.37,2.37,0,0,0,1.74.71,2.41,2.41,0,0,0,2.39-2.4A2.29,2.29,0,0,0,21.91,4.8ZM26.55,4a1.85,1.85,0,0,1-.38-.56A1.87,1.87,0,0,1,26,2.73a1.82,1.82,0,0,1,.14-.7,1.85,1.85,0,0,1,.38-.56,1.76,1.76,0,0,1,.61-.42,1.82,1.82,0,0,1,1.4,0,1.36,1.36,0,0,1,.56.42l1.27,1.22a2.59,2.59,0,0,1,.38.61,1.82,1.82,0,0,1,.14.7,1.65,1.65,0,0,1-.14.68,3,3,0,0,1-.38.59,2.55,2.55,0,0,1-.61.37,1.82,1.82,0,0,1-.7.14,1.78,1.78,0,0,1-.7-.14,1.87,1.87,0,0,1-.57-.37Zm0,7.5a1.85,1.85,0,0,1-.38-.56,1.87,1.87,0,0,1-.14-.71,1.82,1.82,0,0,1,.14-.7A1.85,1.85,0,0,1,26.55,9L27.81,7.7a1.87,1.87,0,0,1,.57-.37,1.62,1.62,0,0,1,.7-.14,1.66,1.66,0,0,1,1.26.54A1.78,1.78,0,0,1,30.86,9a1.87,1.87,0,0,1-.12.68,1.73,1.73,0,0,1-.4.58L29.12,11.5a1.36,1.36,0,0,1-.56.42,1.82,1.82,0,0,1-1.4,0A1.76,1.76,0,0,1,26.55,11.5Zm7.54-5.72a1.82,1.82,0,0,1-.7-.14,1.71,1.71,0,0,1-.56-.37,3,3,0,0,1-.38-.59A1.65,1.65,0,0,1,32.31,4a1.82,1.82,0,0,1,.14-.7,2.59,2.59,0,0,1,.38-.61l1.26-1.22a1.46,1.46,0,0,1,.57-.42,1.82,1.82,0,0,1,1.4,0,1.36,1.36,0,0,1,.56.42A1.68,1.68,0,0,1,37,2a1.82,1.82,0,0,1,.14.7,1.87,1.87,0,0,1-.14.71,1.68,1.68,0,0,1-.38.56L35.36,5.27a1.82,1.82,0,0,1-.56.37A1.87,1.87,0,0,1,34.09,5.78Zm-1.26,4.5a2.89,2.89,0,0,1-.38-.58A1.69,1.69,0,0,1,32.31,9a1.84,1.84,0,0,1,1.83-1.83,1.57,1.57,0,0,1,.66.14,1.82,1.82,0,0,1,.56.37L36.62,9a1.68,1.68,0,0,1,.38.56,1.82,1.82,0,0,1,.14.7,1.69,1.69,0,0,1-.54,1.27,1.76,1.76,0,0,1-1.24.52,1.82,1.82,0,0,1-.7-.14,1.9,1.9,0,0,1-.57-.38Z"/></svg>