<svg xmlns="http://www.w3.org/2000/svg" viewBox="0 0 150 120" width="150px" height="120px"><defs><style>.a{fill:#e5f4fe;}.b{fill:none;stroke:#9acdf1;stroke-linecap:round;stroke-miterlimit:10;stroke-width:2px;}</style></defs><title>project-management</title><path class="a" d="M133.89,52.11c4.6,34-26.2,50.75-51.8,54.22s-60.62,1.54-66-38.29C11.5,34.1,43.95,17,69.56,13.6S128.55,12.62,133.89,52.11Z"/><path class="b" d="M30.83,86.51s-6.38,7.29-1.06,14.42c5.45,7.32,18.52-2,16.09-9.79-2.2-7-9.79-5.09-13-1.9"/><path class="b" d="M106.14,28.75s3.68-9-3.66-14c-7.53-5.15-16.87,8-12.08,14.49,4.36,5.93,10.91,1.64,12.9-2.4"/><path class="b" d="M113.09,60.85s9,3.68,14-3.66c5.16-7.53-7.93-16.86-14.47-12.06C106.69,49.49,111,56,115,58"/><path class="b" d="M34.89,20s-9-3.65-14,3.69c-5.14,7.54,8,16.84,14.5,12,5.92-4.37,1.62-10.91-2.44-12.89"/><path class="b" d="M50.56,96.44S90,104.09,108.56,67"/><path class="b" d="M99.83,73.27s7.57-8.26,9.57-7.14-1.64,11.55-1.64,11.55"/><path class="b" d="M37.47,45.39c21.63,38.4,67.09,12.8,67.09,12.8"/><line class="b" x1="85.1" y1="35.44" x2="74.6" y2="48.92"/><line class="b" x1="85.85" y1="48.08" x2="73.85" y2="36.28"/><line class="b" x1="72.53" y1="73.4" x2="62.03" y2="86.88"/><line class="b" x1="73.28" y1="86.03" x2="61.28" y2="74.24"/><line class="b" x1="119.92" y1="88.8" x2="109.43" y2="102.28"/><line class="b" x1="120.67" y1="101.44" x2="108.68" y2="89.65"/><line class="b" x1="62.75" y1="18.33" x2="52.25" y2="31.81"/><line class="b" x1="63.5" y1="30.97" x2="51.5" y2="19.17"/><path class="b" d="M39,55.54s-4.61-9.69-2.86-11.48,9.49,6.18,9.49,6.18"/></svg>
