<?xml version="1.0" encoding="utf-8"?>
<!-- Generator: Adobe Illustrator 21.1.0, SVG Export Plug-In . SVG Version: 6.00 Build 0)  -->
<svg version="1.1" id="Layer_1" xmlns="http://www.w3.org/2000/svg" xmlns:xlink="http://www.w3.org/1999/xlink" x="0px" y="0px"
	 viewBox="0 0 435.8 73.3" style="enable-background:new 0 0 435.8 73.3;" xml:space="preserve">
<style type="text/css">
	.st0{fill:#231F20;}
	.st1{fill:#EB657C;}
</style>
<title>Artboard</title>
<desc>Created with Sketch.</desc>
<g id="Artboard">
	<g id="ProsperoLogo" transform="translate(3.000000, 4.000000)">
		<path id="Fill-1" class="st0" d="M9.9,28.4v16h6.2c4.8,0,8-3.6,8-8c0-4.4-3.3-8-8-8H9.9L9.9,28.4z M1.5,20.6h15.2
			c9.1,0,15.9,7,15.9,15.8s-6.8,15.8-16,15.8H9.9v12.6H1.5V20.6L1.5,20.6z"/>
		<path id="Fill-3" class="st0" d="M54.7,20.6h13.9c10.2,0,16.3,6.5,16.3,14.9c0,5.5-2.7,10.9-8.5,13.2l10,16.3h-9.6L63.4,43h4.1
			c6.5,0,8.8-4.4,8.8-7.5c0-4.4-2.4-7-8.8-7h-4.5v36.4h-8.4V20.6z"/>
		<path id="Fill-5" class="st0" d="M144.3,42.8c0-7.9-6.4-14.4-14.3-14.4c-7.9,0-14.2,6.5-14.2,14.4c0,7.9,6.3,14.4,14.2,14.4
			C138,57.2,144.3,50.7,144.3,42.8 M107.5,42.8c0-12.6,10-22.7,22.6-22.7c12.6,0,22.6,10.2,22.6,22.7c0,12.6-10,22.7-22.6,22.7
			C117.5,65.5,107.5,55.4,107.5,42.8"/>
		<path id="Fill-8" class="st0" d="M173.3,57.6l7.7-6.1c2.2,3.8,5.6,5.9,9.6,5.9c4.3,0,6.6-2.8,6.6-5.8c0-3.6-4.4-4.8-9.1-6.2
			c-5.9-1.8-12.5-4.1-12.5-12.6c0-7.1,6.2-12.7,14.7-12.7c7.2,0,11.3,2.7,14.9,6.4l-7,5.3c-1.8-2.7-4.4-4.2-7.9-4.2
			c-3.9,0-6,2.1-6,4.9c0,3.4,4.2,4.5,9,6.1c6,1.9,12.8,4.6,12.8,13.1c0,7-5.6,13.8-15.3,13.8C182.7,65.5,177.3,62.1,173.3,57.6"/>
		<path id="Fill-10" class="st0" d="M238.7,28.4v16h6.2c4.8,0,8-3.6,8-8c0-4.4-3.3-8-8-8H238.7z M230.3,20.6h15.2
			c9.1,0,15.9,7,15.9,15.8s-6.8,15.8-16,15.8h-6.7v12.6h-8.4V20.6z"/>
		<polygon id="Fill-12" class="st0" points="283.5,20.6 309.6,20.6 309.6,28.7 291.9,28.7 291.9,38.6 309.6,38.6 309.6,46.7 
			291.9,46.7 291.9,56.8 309.6,56.8 309.6,64.9 283.5,64.9 		"/>
		<path id="Fill-14" class="st0" d="M333.4,20.6h13.9c10.2,0,16.3,6.5,16.3,14.9c0,5.5-2.7,10.9-8.5,13.2l10,16.3h-9.6L342.1,43h4.1
			c6.5,0,8.8-4.4,8.8-7.5c0-4.4-2.4-7-8.8-7h-4.5v36.4h-8.4V20.6z"/>
		<path id="Fill-16" class="st0" d="M421.8,42.8c0-7.9-6.4-14.4-14.3-14.4c-7.9,0-14.2,6.5-14.2,14.4c0,7.9,6.3,14.4,14.2,14.4
			C415.5,57.2,421.8,50.7,421.8,42.8 M385,42.8c0-12.6,10-22.7,22.6-22.7c12.6,0,22.6,10.2,22.6,22.7c0,12.6-10,22.7-22.6,22.7
			C395,65.5,385,55.4,385,42.8"/>
		<polygon id="Fill-19" class="st1" points="-0.3,3.6 430.2,3.6 430.2,-0.2 -0.3,-0.2 		"/>
	</g>
</g>
</svg>
