<?xml version="1.0" encoding="UTF-8" standalone="no"?>
<svg xmlns="http://www.w3.org/2000/svg" height="15px" width="15px" version="1.1" xmlns:xlink="http://www.w3.org/1999/xlink" viewBox="0 0 15 15"><!-- Generator: Sketch 44.1 (41455) - http://www.bohemiancoding.com/sketch -->
 <title> copy 3</title>
 <desc>Created with Sketch.</desc>
 <g id="Search-Results" fill-rule="evenodd" fill="none">
  <path id="-copy-3" fill="#062942" d="m10.286 6.2857c0-2.2053-1.7949-4-4.0003-4-2.2053 0-4 1.7947-4 4 0 2.2054 1.7947 4.0003 4 4.0003 2.2054 0 4.0003-1.7949 4.0003-4.0003zm4.571 7.4283c0 0.625-0.518 1.143-1.143 1.143-0.303 0-0.598-0.125-0.803-0.339l-3.0628-3.054c-1.0446 0.724-2.2946 1.107-3.5625 1.107-3.4732 0-6.2857-2.8121-6.2857-6.2853s2.8125-6.2857 6.2857-6.2857 6.2853 2.8125 6.2853 6.2857c0 1.2679-0.383 2.5179-1.107 3.5625l3.063 3.0628c0.205 0.205 0.33 0.5 0.33 0.803z"/>
 </g>
</svg>
