<svg xmlns="http://www.w3.org/2000/svg" viewBox="0 0 150 120" width="150px" height="120px"><defs><style>.a{fill:none;stroke:#cee5f7;stroke-miterlimit:10;stroke-width:7.94px;}.b{fill:#efc100;}.c{fill:#cde4f6;}.d{fill:#0d80da;}.e{fill:#f83e9f;}.f{fill:#0d81db;}.g{opacity:0.19;}.h{fill:#fff;}.i{fill:#0064be;}.j{fill:#e4f4fe;opacity:0.33;isolation:isolate;}</style></defs><title>start-business</title><path class="a" d="M79.18,69.45S130,80.25,128.71,90c-.93,7-30.78-1.5-37.36,11.42"/><path class="a" d="M70.8,69.45S20,80.25,21.28,90c.93,7,30.71-1.74,39.56,10.58"/><path class="b" d="M74.25,6.16C60.7,6.16,47.7,35.23,56,49.43S83.33,40,83.33,40Z"/><path class="b" d="M74.23,6.16c13.55,0,26.55,29.07,18.25,43.27S65.16,40,65.16,40Z"/><path class="c" d="M91,31.06c0,.64,0,1.29-.06,1.94-.7,14-8.83,23.28-16.37,23.28h-.17C68.85,56.28,63,51.28,60,43a34.16,34.16,0,0,1-1.89-9.3v-.72a41.16,41.16,0,0,1,.43-8.73,25.64,25.64,0,0,1,3.1-9c.2-.34.42-.68.64-1A14.81,14.81,0,0,1,72.4,7.58a14.08,14.08,0,0,1,2-.14h.8a14.17,14.17,0,0,1,8.33,3.28c.13.11.27.25.4.37,3.19,2.79,5.62,7.23,6.59,13.33a37.6,37.6,0,0,1,.49,5.1Z"/><path class="d" d="M76.83,24.71a5,5,0,0,1,.25-.44,4.47,4.47,0,0,1,.93-1,3.77,3.77,0,0,1,.79-.51,3.81,3.81,0,0,1,3.42-.1l.56.27c.17.11.33.23.49.35a5.33,5.33,0,0,1,.83.77,7.55,7.55,0,0,1,.6.83,5,5,0,0,1,.42.8,5.66,5.66,0,0,1,.43,1.26c.07.31.1.5.1.5s-.15-.11-.39-.32-.55-.52-.94-.86c-.2-.16-.38-.37-.6-.55l-.67-.55a4.89,4.89,0,0,0-.72-.5L82,24.42l-.39-.17a1.78,1.78,0,0,0-.39-.14,1.74,1.74,0,0,0-.39-.11,4.44,4.44,0,0,0-.79-.09,5.66,5.66,0,0,0-.79.06,6.27,6.27,0,0,0-.75.17c-.47.13-.88.29-1.17.39Z"/><path class="d" d="M72,24.41l-.47-.14c-.29-.08-.68-.2-1.15-.29-.23,0-.48-.07-.72-.1a5,5,0,0,0-.76,0,4.26,4.26,0,0,0-.75.15,3.81,3.81,0,0,0-.74.29,5,5,0,0,0-.72.42c-.24.14-.46.34-.69.5s-.43.37-.64.54-.39.37-.58.52c-.37.32-.67.62-.91.82l-.38.31a1.86,1.86,0,0,1,.09-.48,5.49,5.49,0,0,1,.4-1.22,4.43,4.43,0,0,1,.39-.77,6.36,6.36,0,0,1,.56-.8,5.14,5.14,0,0,1,.77-.76,4.64,4.64,0,0,1,1-.63,4.11,4.11,0,0,1,1.14-.37,3.88,3.88,0,0,1,1.16,0,3.93,3.93,0,0,1,1,.28,3.61,3.61,0,0,1,.8.44,4.15,4.15,0,0,1,.95.91A3.44,3.44,0,0,1,72,24.41Z"/><path class="c" d="M81.36,57c-1.19,4.15-1.05,15-1.05,15h-6V53.66c2.92-.09,10.5-3.14,10.5-3.14A17.22,17.22,0,0,0,81.36,57Z"/><path class="c" d="M67.61,57c1.19,4.15,1.05,15,1.05,15h5.95V53.66c-3-.09-10.49-3.09-10.49-3.09A17,17,0,0,1,67.61,57Z"/><path class="c" d="M59.41,37c1,2.33,1.06,4.57.18,5s-2.41-1.1-3.39-3.42-1.06-4.57-.18-5S58.42,34.66,59.41,37Z"/><path class="c" d="M89.56,37c-1,2.33-1.06,4.57-.18,5s2.41-1.1,3.39-3.42,1.06-4.57.18-5S90.54,34.66,89.56,37Z"/><path class="e" d="M69.36,41.75s.72.4,1.7.87a13.88,13.88,0,0,0,1.65.65,6.57,6.57,0,0,0,1.82.31h.91a7.48,7.48,0,0,0,.88-.19,10,10,0,0,0,1.62-.65,13.16,13.16,0,0,0,1.65-1,4.32,4.32,0,0,1-.91,1.73,5.15,5.15,0,0,1-3.54,2H74.5A5.41,5.41,0,0,1,72,44.86a5.82,5.82,0,0,1-1.64-1.34,5.41,5.41,0,0,1-.8-1.23A3.32,3.32,0,0,1,69.36,41.75Z"/><path class="f" d="M65.83,30.6l1.17.73a9.17,9.17,0,0,0,1.06.56,3,3,0,0,0,.53.18,2,2,0,0,0,.49.07h.42a1.88,1.88,0,0,0,.42-.16,2.76,2.76,0,0,0,.46-.29l.45-.35,1-.93a2.82,2.82,0,0,1,0,1.5A3,3,0,0,1,71,33.33a2.73,2.73,0,0,1-.91.59l-.33.1-.28,0H69a3.16,3.16,0,0,1-1.87-.78A3.69,3.69,0,0,1,66.2,32,3.19,3.19,0,0,1,65.83,30.6Z"/><path class="f" d="M77,30.6l1,.82a5.18,5.18,0,0,0,.92.54,2.91,2.91,0,0,0,.44.14h.86A2.75,2.75,0,0,0,80.7,32a6.79,6.79,0,0,0,1-.53l1.09-.75a2.76,2.76,0,0,1-.18,1.43,3.13,3.13,0,0,1-.87,1.29,2.84,2.84,0,0,1-1.4.68h-1a4.17,4.17,0,0,1-.52-.15,2.83,2.83,0,0,1-.85-.53A3,3,0,0,1,77.11,32,2.64,2.64,0,0,1,77,30.6Z"/><path class="f" d="M74.83,32.91l.45,2.51a3.67,3.67,0,0,0,.36,1.1,10.31,10.31,0,0,0,.77,1.1,1.2,1.2,0,0,1,.19,1,2.35,2.35,0,0,1-.08.24,1.14,1.14,0,0,1-.15.24,1.38,1.38,0,0,1-.4.33,3.46,3.46,0,0,1-1.69.35,3.67,3.67,0,0,1-1.66-.36,1.54,1.54,0,0,1-.39-.31,1.14,1.14,0,0,1-.16-.23.75.75,0,0,1,0-.1h0v-.09a1.19,1.19,0,0,1,.19-1,10,10,0,0,0,.77-1.1,3.69,3.69,0,0,0,.36-1.1L73.84,33v2.57a4.25,4.25,0,0,1-.27,1.28,7,7,0,0,1-.69,1.23.45.45,0,0,0-.08.38v.09h0l.06.06a1.09,1.09,0,0,0,.2.14,2.93,2.93,0,0,0,1.29.23,2.79,2.79,0,0,0,1.27-.21c.16-.11.22-.14.28-.31s0-.21-.07-.4a6.9,6.9,0,0,1-.69-1.23,4.25,4.25,0,0,1-.32-1.29c-.05-.77,0-1.41,0-1.86S74.83,32.91,74.83,32.91Z"/><path class="b" d="M83.31,52.74C84.4,50.66,86.7,47.39,87,43c.62-8-1.92-18.36-11.91-18.36-11.75,0-13.66,10.71-12.78,18.75a24.85,24.85,0,0,0,3.14,9.07s-10-6.73-10.9-13.51,4.7-32,19.67-32S95,29.52,93.59,43.31,83.31,52.74,83.31,52.74Z"/><g class="g"><path class="h" d="M58.3,31.18a10.44,10.44,0,0,1,.28-1.93,17.4,17.4,0,0,1,1.91-4.85,16.1,16.1,0,0,1,5.27-5.52,15.45,15.45,0,0,1,4.06-1.81,17.28,17.28,0,0,1,4.51-.65H76l.6.06a14.62,14.62,0,0,1,2.28.38A15.17,15.17,0,0,1,83,18.52,14.8,14.8,0,0,1,88.42,24a16,16,0,0,1,1.82,4.91,9.67,9.67,0,0,1,.21,1.94s-.32-.64-.94-1.66a23.57,23.57,0,0,0-2.93-3.84,16,16,0,0,0-5.16-3.7,15.19,15.19,0,0,0-3.34-1,16.88,16.88,0,0,0-1.77-.23,17.62,17.62,0,0,0-1.88-.06,17.1,17.1,0,0,0-3.62.41A15.66,15.66,0,0,0,67.5,21.9a18.09,18.09,0,0,0-5.16,3.84,26.51,26.51,0,0,0-3,3.81A14.33,14.33,0,0,0,58.3,31.18Z"/></g><polygon class="c" points="75.24 25.61 77.69 22.33 77.2 25.77 75.24 25.61"/><path class="c" d="M74.42,19.22a8.34,8.34,0,0,1-3.61,7.54l-3.61.66S73.27,22.33,74.42,19.22Z"/><circle class="c" cx="73.78" cy="89.73" r="2.8"/><polygon class="c" points="61.98 68.76 87.1 68.76 87.1 81.68 63.77 81.68 61.98 68.76"/><path class="e" d="M90.14,99.28l-32,.78.68-10.4L59,85.6l.52-7.92L60.17,68l3.48-1.12a24.56,24.56,0,0,0,2.63,8.64,9,9,0,0,0,8.13,5,9.57,9.57,0,0,0,8.32-5,24.1,24.1,0,0,0,2.93-8.54l2.57.82h0l.57,9.7L89.31,86l.19,3.22Z"/><rect class="i" x="51.85" y="76.47" width="47.18" height="37.37"/><polygon class="i" points="99.04 113.84 51.85 113.84 47.18 105.11 103.71 105.11 99.04 113.84"/><circle class="j" cx="75.45" cy="95.15" r="2.45"/></svg>
