<svg xmlns="http://www.w3.org/2000/svg" viewBox="0 0 90 38" width="90px" height="38px"><title>stripe</title><path d="M78.89,17.75c.18-3,1-4.36,2.49-4.36s2.25,1.43,2.37,4.36Zm11.05,1.77c0-3.32-.72-6-2.13-7.8A7.54,7.54,0,0,0,81.5,8.89c-5.6,0-9.08,4.18-9.08,10.88,0,3.76.94,6.57,2.77,8.36,1.65,1.61,4,2.41,7.07,2.41a13.24,13.24,0,0,0,7.07-1.77l-.72-4.56A11.58,11.58,0,0,1,83,25.57a4,4,0,0,1-2.79-.82A4.09,4.09,0,0,1,79,21.83H89.88C89.88,21.51,89.94,20,89.94,19.52ZM63.6,24a2.57,2.57,0,0,1-2.31,1.55,3.9,3.9,0,0,1-1.77-.4V15.26A3.53,3.53,0,0,1,62,14c1.67,0,2.49,1.83,2.49,5.39A9.62,9.62,0,0,1,63.6,24Zm5.48-12.87a5.76,5.76,0,0,0-4.86-2.27,6.85,6.85,0,0,0-5.16,2.49l-.34-2.09H52.92V37.86l6.59-1.11v-6.7a10,10,0,0,0,3,.48,7.76,7.76,0,0,0,5.89-2.47c1.77-2,2.69-5,2.69-9C71.06,15.56,70.39,12.89,69.07,11.16ZM43.73,9.29h6.61V30.14H43.73V9.29Zm3.33-2.07A3.48,3.48,0,0,0,50.5,3.7a3.47,3.47,0,1,0-6.93,0A3.48,3.48,0,0,0,47.05,7.22ZM40.88,9A3.92,3.92,0,0,0,37,11.76l-.4-2.47H30.8V30.14h6.59V16.61A4.2,4.2,0,0,1,41,15.22a6.39,6.39,0,0,1,1.17.08V9.17A5,5,0,0,0,40.88,9ZM28.25,14.21l.8-4.93h-4.2v-6l-5.65.94-.82,5-2,.32-.74,4.6h2.73v9.67c0,2.51.64,4.26,1.93,5.33a7.48,7.48,0,0,0,4.86,1.31A12.36,12.36,0,0,0,28.61,30V24.81a9.32,9.32,0,0,1-1.91.3c-1.29,0-1.85-.66-1.85-2.19V14.21ZM9.4,17.15c-1.93-.72-3-1.29-3-2.17S7,13.79,8.08,13.79a13.07,13.07,0,0,1,5.44,1.47l.8-5A15.08,15.08,0,0,0,7.77,8.87a8.32,8.32,0,0,0-5.42,1.69A6,6,0,0,0,.26,15.38c0,3.64,2.21,5.21,5.79,6.51,2.31.82,3.09,1.43,3.09,2.33S8.4,25.61,7,25.61A14.27,14.27,0,0,1,.82,23.7l-.82,5a16,16,0,0,0,7.39,1.79A9,9,0,0,0,13,28.91a6.22,6.22,0,0,0,2.25-5.17c0-3.74-2.25-5.29-5.89-6.59Z"/></svg>
