<svg xmlns="http://www.w3.org/2000/svg" viewBox="0 0 210 143" width="210px" height="143px"><defs><style>.cls-1{isolation:isolate;}.cls-14,.cls-2,.cls-3{fill:none;stroke-miterlimit:10;stroke-width:0.63px;}.cls-2{stroke:#f76bbb;}.cls-3{stroke:#a8e0b2;}.cls-4,.cls-9{fill:#0064be;}.cls-5,.cls-8{fill:#cfe6f8;}.cls-16,.cls-6{fill:#0d83dd;}.cls-7{fill:#efc100;}.cls-19,.cls-8{mix-blend-mode:multiply;}.cls-9{opacity:0.51;}.cls-10{fill:#a8e0b2;}.cls-11,.cls-13{opacity:0.3;}.cls-12,.cls-13{fill:#fff;}.cls-14{stroke:#efc100;}.cls-15{fill:#f93ea0;}.cls-16{opacity:0.52;}.cls-17{fill:#f76bbb;}.cls-18{fill:#6fc57c;}.cls-19{fill:#49ad57;}</style></defs><title>education stuff</title><g class="cls-1"><g id="Layer_1" data-name="Layer 1"><path class="cls-2" d="M159.74,47.91S175.91,51.44,175.56,65c-.47,18.57-35.67,38.72-50.15,47.53"/><path class="cls-3" d="M77.2,13.84S48.08,12.11,37.07,26.43c-9.87,12.83-6.71,42.76,31.69,61.33"/><path class="cls-4" d="M89.34,65.13s.74.77,2.69.47,1-4.67-1-4.1S89.34,65.13,89.34,65.13Z"/><path class="cls-5" d="M114.92,99.18l-1.25-10.51a1.68,1.68,0,0,0-3.14-.6c-.68,1.26-1.29,2.27-1.83,3.07a4.36,4.36,0,0,1,1.86,3.19l.35-.47.69,5.71a1.68,1.68,0,0,0,1.66,1.49l.2,0A1.68,1.68,0,0,0,114.92,99.18Zm-10.56-1.69a4.72,4.72,0,0,1-.89-.33A4.25,4.25,0,0,0,104.36,97.49Zm-1.46-.66a6.1,6.1,0,0,1-.84-.69A5.65,5.65,0,0,0,102.9,96.82ZM98.31,94a1.69,1.69,0,0,0-2,.44A11.58,11.58,0,0,1,93,97.1a6.21,6.21,0,0,1-.07,3.6,8.84,8.84,0,0,0,1.9-.76l-1,4.24a1.67,1.67,0,0,0,1.27,2,1.44,1.44,0,0,0,.37,0,1.67,1.67,0,0,0,1.64-1.3l2.06-9A1.68,1.68,0,0,0,98.31,94ZM97.09,67.25c0-.39.1-.77.1-1.16,0-.14.1-.28.1-.42v.41C97.29,66.48,97.08,66.87,97.09,67.25Zm-.09-2V65c-1-.35-2.58-1.69-4.65-1.54a4.53,4.53,0,0,0-1.94.56c.08.52.2,1,.27,1.49C92.21,64.44,95,64.9,97,65.26Zm-2.08,13.3.11.54c0-.18-.07-.36-.11-.54l-.06-.22ZM90.6,97.39a1.7,1.7,0,0,0,.58.15h0A1.75,1.75,0,0,1,90.6,97.39Zm.58-28.5c-.06-.32-.13-.67-.2-1l.19,1a8,8,0,0,1-.08,2.84A8.06,8.06,0,0,0,91.19,68.89Zm-.41-2.18q.08.45.16.87l-.15-.87-.15-.86C90.69,66.15,90.73,66.45,90.78,66.72Zm16.94-52.65c-.12-.92-.39-1.65-1.31-1.54s-.68.76-.57,1.68c0,0,.35,5.14.3,8.59A36.57,36.57,0,0,1,105,32.53a13.83,13.83,0,0,1-3.26,5.19,7.31,7.31,0,0,0,2.08,2.69,17.87,17.87,0,0,0,4.42-7C109.87,27.28,107.78,14.61,107.72,14.07Zm-8.6,12a4.94,4.94,0,0,0-3.51-2.23,5.62,5.62,0,0,0-6.2,5.36c-.32,4.71-.25,7.59,1.69,8.56.91.46,1.12.58,1.28,1.55,0,.69-.37,1.43-.37,2.23h0a7.9,7.9,0,0,1,.17,1.37,3.75,3.75,0,0,0,1.72.4,6,6,0,0,0,2.54-.87c0-4.47.5-4.65,1.64-6.37a9.38,9.38,0,0,0,2-4.65c0-.18,0-.35,0-.53A8.55,8.55,0,0,0,99.12,26.07ZM82.64,32.66c-3.53-7.4.64-16.34.68-16.42.39-.84,0-.1-.79-.49s-1.32-.94-1.71-.1c-.18.38-5.21,10.6-1.23,18.42a27.94,27.94,0,0,0,6.19,8A8.13,8.13,0,0,0,87,38.53,21.36,21.36,0,0,1,82.64,32.66Z"/><path class="cls-6" d="M103.83,40.41a44.74,44.74,0,0,1-4.09,3.95A91.82,91.82,0,0,0,97,63.92c0,.4,0,1.22,0,1.22a7.93,7.93,0,0,0-4.7-1.63c-2.39.18-2.93,1.66-2.93,1.66s-.82-6.77-.84-10.44a70.34,70.34,0,0,1,.64-10A23,23,0,0,1,85.78,42,8.13,8.13,0,0,0,87,38.53a34.89,34.89,0,0,0,5.31,4.25h0a3.1,3.1,0,0,0,1.78.55,5.42,5.42,0,0,0,2.46-.88v0a42.32,42.32,0,0,0,5.23-4.78A7.35,7.35,0,0,0,103.83,40.41Z"/><path class="cls-5" d="M109.76,7.14c-.69-.41-1.73,3.08-1.91,3.1s1.27-4.3.47-4.47-1.07,4.14-1.27,4.1.52-3.68-.4-3.69c-.46,0-.43,1.86-.45,3.68,0,.86-.18,1.56-.42,1.32a3.93,3.93,0,0,1-.54-.7c-.81-1.28-1.54-1-1.41-.63a8.45,8.45,0,0,0,1.18,1.8c.61.84.65,2,.9,3.31,0,.12,0,.26.07.39,0,.38.09,1.32.11,2.47a6.77,6.77,0,0,0,2,.16c-.06-.46-.11-.83-.15-1.12a6.69,6.69,0,0,1,.63-4.4c.62-1,2-2.54,1.64-2.93s-1.37,1.45-1.59,1.33S110.51,7.59,109.76,7.14Z"/><path class="cls-6" d="M90.55,29a1.41,1.41,0,0,1,.09-.46,1.58,1.58,0,0,1,.23-.43,1.34,1.34,0,0,1,.47-.38.91.91,0,0,1,.32-.07,1.11,1.11,0,0,1,.31,0,1.18,1.18,0,0,1,.45.24,1.16,1.16,0,0,1,.24.25l.07.1-.12,0a3,3,0,0,0-.3-.12,1.63,1.63,0,0,0-.4-.09.72.72,0,0,0-.41.07,1.81,1.81,0,0,0-.66.56Z"/><path class="cls-6" d="M96.21,28.64l-.32-.31a1.81,1.81,0,0,0-.73-.47.72.72,0,0,0-.41,0,1.63,1.63,0,0,0-.38.14,3,3,0,0,0-.28.15L94,28.2l.06-.11a1.16,1.16,0,0,1,.2-.28,1.18,1.18,0,0,1,.42-.29,1.12,1.12,0,0,1,.3-.06.91.91,0,0,1,.32,0,1.34,1.34,0,0,1,.51.32,1.58,1.58,0,0,1,.29.4A1.41,1.41,0,0,1,96.21,28.64Z"/><circle class="cls-6" cx="91.9" cy="29.75" r="0.72" transform="translate(59.31 120.68) rotate(-88.22)"/><circle class="cls-6" cx="94.91" cy="29.52" r="0.72" transform="translate(62.46 123.46) rotate(-88.22)"/><path class="cls-6" d="M93.25,30.43a.28.28,0,0,1,.07.12.72.72,0,0,1,0,.37,1.46,1.46,0,0,1-.21.47,2,2,0,0,1-.17.23c-.06.07-.14.15-.19.21l0,0v0s0,0,0,0,0,0,.08.06L93,32l.21.06.45.13a1.82,1.82,0,0,1-.47.09h-.24a1.2,1.2,0,0,1-.28,0,.67.67,0,0,1-.16-.07.37.37,0,0,1-.16-.2.36.36,0,0,1,0-.28.53.53,0,0,1,.06-.09l0-.06.19-.2.17-.18.08-.09L93,31l.12-.17.09-.15a.82.82,0,0,0,0-.13A.36.36,0,0,0,93.25,30.43Z"/><path class="cls-6" d="M91.53,32.8a2.33,2.33,0,0,0,3.35-.14s-.3,2-1.58,2.17S91.53,32.8,91.53,32.8Z"/><path class="cls-7" d="M110.55,94.32c-1.61,2.06-3.45,3.47-5.57,3.27-3.31-.32-5.86-4.38-8.83-14a49.35,49.35,0,0,1-1.23-5c-.31-1.16-.72-2.38-1.11-2.41s-.78.7-1.17,1.48c-3,7-5.44,14.81-3.71,18,1,1.83,1.94,1.92,2.25,1.95A3.51,3.51,0,0,0,93,97.1a6.17,6.17,0,0,1-.08,3.6,6,6,0,0,1-2.07.18c-1.38-.13-3.35-.88-4.88-3.68-1.83-3.34-1.11-9.06,2.19-17.5.71-1.82,1.46-3.54,2.16-5.07.52-1.55,1.19-4,.86-5.74-.13-.64-.26-1.37-.4-2.17-.06-.37-.13-.76-.19-1.16,1.52-1.11,4.59-.66,6.26-.29q0,.41,0,.83,0,1.16.05,2.33a75,75,0,0,0,2.45,14.17,48.37,48.37,0,0,0,3.57,9.13c1.24,2.19,2.08,2.5,2.38,2.52s1.4-.16,3.39-3.11A4.37,4.37,0,0,1,110.55,94.32Z"/><path class="cls-8" d="M100.15,30.91c0,.18,0,.36,0,.53a3.28,3.28,0,0,0-1.27.31,3.16,3.16,0,0,0-.43.35,28,28,0,0,1,.12-5.79,1.35,1.35,0,0,1,.58-.24A8.55,8.55,0,0,1,100.15,30.91Z"/><path class="cls-6" d="M91.62,24.83s3-2.27,4.64-1.88,4.44,3.06,4.54,4.94a5.31,5.31,0,0,1-.66,3S100.11,26,91.62,24.83Z"/><path class="cls-9" d="M91.62,24.83s3-2.27,4.64-1.88,4.44,3.06,4.54,4.94a5.31,5.31,0,0,1-.66,3S100.11,26,91.62,24.83Z"/><path class="cls-4" d="M90.14,26.61s-5.43-4.15-3.26-5.83S97.54,26.9,97.54,26.9,93.4,24,90.14,26.61Z"/><path class="cls-5" d="M101,31.64c.31.52-.14,1.42-1,2s-1.84.63-2.15.11.14-1.42,1-2S100.69,31.12,101,31.64Z"/><path class="cls-5" d="M85,15.17a10.36,10.36,0,0,0-1.44,1.29c-.69.79-1.56,3.87-1.68,3.83-.82-.27-2.68-.07-2.4-1.06A16.17,16.17,0,0,0,80.11,15c0-1.84.65-5.34,3-5.35,2.58,0,3.28,1,2.89,3.2A4.08,4.08,0,0,1,85,15.17Z"/><path class="cls-10" d="M74.93,11.95c1.65-.89,4.91-1.52,8.64-1.42a15.87,15.87,0,0,1,7.68,1.83,2.9,2.9,0,0,1,1.22,1.59,4.8,4.8,0,0,1,.19,1.76,1.64,1.64,0,0,1-1.06,1.48,5.75,5.75,0,0,1-5.35-1.39,1.17,1.17,0,0,1-.41-1.15l.3-1.06a12.73,12.73,0,0,0-3.33-.42,13.7,13.7,0,0,0-3.16.38s.29,1,.35,1.44a1.29,1.29,0,0,1-.47,1.3,5.3,5.3,0,0,1-3.08.91,4.66,4.66,0,0,1-2.82-.7,1.45,1.45,0,0,1-.79-1.39,7.24,7.24,0,0,1,.31-1.3C73.31,13.26,73.48,12.73,74.93,11.95Z"/><g class="cls-11"><path class="cls-12" d="M76.29,14.82c.62,0,1.13.19,1.13.45s-.5.5-1.12.51-1.13-.19-1.13-.45S75.67,14.83,76.29,14.82Z"/></g><g class="cls-11"><path class="cls-12" d="M89.46,14.9c.6.15,1,.48.93.74s-.63.34-1.23.19-1-.48-.93-.74S88.87,14.75,89.46,14.9Z"/></g><path class="cls-13" d="M79,14.75a5.19,5.19,0,0,0-1-.45,4.6,4.6,0,0,0-1.62-.21,5.55,5.55,0,0,0-1.62.32,6.07,6.07,0,0,0-1.14.55c-.12.08-.24.06-.16,0a3.64,3.64,0,0,1,1.12-.88,4.34,4.34,0,0,1,1.79-.47,3.84,3.84,0,0,1,1.82.35,3.43,3.43,0,0,1,1,.67C79.22,14.73,79.13,14.84,79,14.75Z"/><path class="cls-13" d="M91.93,15.69a4.34,4.34,0,0,0-.81-.81,4.13,4.13,0,0,0-1.51-.72A5.46,5.46,0,0,0,87.9,14a3.6,3.6,0,0,0-.85.17,3,3,0,0,0-.52.22c-.1.05-.15,0-.07-.08a2.41,2.41,0,0,1,.48-.36,3.11,3.11,0,0,1,.91-.34,4.43,4.43,0,0,1,1.93.07,3.56,3.56,0,0,1,1.65.92,3.06,3.06,0,0,1,.67,1C92.17,15.78,92,15.83,91.93,15.69Z"/><path class="cls-5" d="M85.1,14.64s.14-1.25.31-2.34-.46-1.52-1-.63a7.83,7.83,0,0,0-.51,3"/><path class="cls-14" d="M136.64,24.28s10.91-2.19,21.19.64c18.68,5.14,24.66,16,26.39,25.91,5.83,33.38-26.77,53.69-62,67.36"/><path class="cls-2" d="M45.72,40.75s-8.72-1.2-14.9,3.1C23.54,48.91,20.95,64.29,37,77.61c6.71,5.59,16.69,10.81,31,14.76"/><path class="cls-4" d="M73.71,65.29s5.14,2.24,5.46,11.85S77.59,91.75,83.59,96.3c0,0-8,1.58-8-9S76.8,71,73.71,65.29Z"/><path class="cls-5" d="M68,104.74h0Z"/><path class="cls-5" d="M68.46,124.85c1.1,2.5,1.65,3.76.64,4.76a1.8,1.8,0,0,1-.47.34,1.92,1.92,0,0,1-.94.23h0a5.29,5.29,0,0,1-2.05-.56l-.3-.14c-.9-.42-2.08-1-3.5-1.88-2.38-1.38-4.62-2.85-4.72-2.91A1.68,1.68,0,1,1,59,121.89c2,1.32,4.38,2.74,6.17,3.71-.57-1.25-1.27-2.76-2-4.27a5.89,5.89,0,0,1,3.42-.63C67.31,122.3,68,123.7,68.46,124.85Z"/><path class="cls-5" d="M62.1,69.55a4.38,4.38,0,0,0-1.22,1.83,10.83,10.83,0,0,0-.38,1.26c-4-2.29-8-5.3-10.39-9.08s-2.57-8.76-1.53-14.62c.05-.27.1-.55.16-.82s.07-.35.11-.52l2.6.42c-.11.53-.22,1.08-.31,1.64-.62,3.89-.55,8.45,1.8,12.09A24.09,24.09,0,0,0,62.1,69.55Z"/><path class="cls-5" d="M73,94.13c0,.22.06.43.09.65a8.82,8.82,0,0,1-6-.05c-.31-.11-.63-.24-1-.39,0-.45,0-.9,0-1.33A13.36,13.36,0,0,0,73,94.13Z"/><path class="cls-5" d="M76.91,61.6c0,.37-.08.73-.13,1.08-.23,1.5-.63,2.17-1.95,3.75s-2.68,2.16-2.67,5.35c0,.49.25.84.89,1a6.41,6.41,0,0,0,1.31.11c-1,1.11-3.66,4-5.19,4.72A13.65,13.65,0,0,1,67,71.77l.26.11c.52.21.83.21,1.05.07a.9.9,0,0,0,.3-.33,3.2,3.2,0,0,0,.3-.84c.18-1,.5-2.61-.54-3.05-2.24-1-2.09-3.61-2-5.53.13-2.88.87-4.75,1.92-5.88a4.72,4.72,0,0,1,4.53-1.36C75.67,55.49,77.3,57.66,76.91,61.6Z"/><path class="cls-5" d="M86.28,71.71a10.67,10.67,0,0,1-6.76,4A9.52,9.52,0,0,1,79,72.38a7.34,7.34,0,0,0,4.53-2.59c.38-.56,1.05-3.1-2.91-10.79C78.32,54.57,76,50.65,76,50.61a1.45,1.45,0,0,1,.25-2.17c.76-.54,1.07,1,1.61,1.74a44,44,0,0,1,6.08,7.94C87.77,64.72,88.16,69,86.28,71.71Z"/><path class="cls-5" d="M97.44,130.28a1.68,1.68,0,0,1-1.95-1.36c-.44-2.49-1.06-5.31-1.59-7.21l-.48,1c-.35.69-.71,1.4-1.09,2.12a7.4,7.4,0,0,0-2.61-2.26c.25-.47.48-.94.7-1.37.54-1.07,1-2,1.42-2.68s1.2-2,2.63-1.77,2.17,1.69,3.28,6.48c.6,2.56,1,5,1.06,5.15A1.68,1.68,0,0,1,97.44,130.28Z"/><path class="cls-5" d="M74.29,41.43c-.89.11.58,3.94.43,4.08s-1.82-4.71-2.65-4.31,1.89,4.42,1.69,4.54-2.07-3.64-2.89-3c-.41.31.9,2,2.12,3.59.58.78.92,1.51.54,1.47a4.41,4.41,0,0,1-1-.26c-1.6-.58-2.08.15-1.69.41a9.51,9.51,0,0,0,2.29.8c1.13.33,1.88,1.12,3,2.43.09.11,1.4,2.25,1.51,2.35.29.32-.18-.52.62.49.54-.24,1.72,0,2.39-.59C80.32,53,77,49,76.88,47c-.1-1.37,0-3.64-.56-3.75s-.22,2.23-.5,2.28S75.27,41.32,74.29,41.43Z"/><path class="cls-4" d="M75.29,59.72a3.84,3.84,0,0,1,.3,1.86c0,.87-.16,1.37-.11,1.87a1.5,1.5,0,0,0,.47.88c1.05,1.05.89-2.77.86-3.19S75.29,59.72,75.29,59.72Z"/><circle class="cls-6" cx="69.11" cy="60.63" r="0.72" transform="translate(0.7 122.04) rotate(-83.17)"/><circle class="cls-6" cx="71.98" cy="60.73" r="0.72" transform="translate(3.12 124.98) rotate(-83.17)"/><path class="cls-6" d="M70.43,61.51a.28.28,0,0,1,.06.13.72.72,0,0,1,0,.37,1.46,1.46,0,0,1-.25.45,2,2,0,0,1-.19.21l-.21.19,0,0,0,0s0,0,0,0,0,0,.08.06l.2.1.2.08.44.17a1.82,1.82,0,0,1-.48,0l-.24,0a1.2,1.2,0,0,1-.27-.07.67.67,0,0,1-.15-.08.37.37,0,0,1-.15-.21.36.36,0,0,1,.05-.27l.07-.09.05-.05.21-.18.19-.17.08-.08.08-.08.14-.16.1-.14a.82.82,0,0,0,.06-.12A.36.36,0,0,0,70.43,61.51Z"/><path class="cls-15" d="M68.51,63.75a2.33,2.33,0,0,0,3.35.15s-.46,1.44-1.75,1.47S68.51,63.75,68.51,63.75Z"/><path class="cls-4" d="M77,61.64c0,.37,0,.58-.08.94-.3.27-.67.73-.81.49s.23-1.55.15-1.69c-2.81-4.56-5.92-3.06-8-5.1a4.8,4.8,0,0,1,4.6-1.38C75.71,55.45,77.36,57.65,77,61.64Z"/><path class="cls-6" d="M68.17,59.39a1,1,0,0,1,.11-.38,1.12,1.12,0,0,1,.7-.58,1.1,1.1,0,0,1,.52,0,1.09,1.09,0,0,1,.36.22,1.07,1.07,0,0,1,.24.31l-.36-.12a2,2,0,0,0-.33-.08.75.75,0,0,0-.34,0,1.47,1.47,0,0,0-.61.33Z"/><path class="cls-6" d="M71.43,59.2a.83.83,0,0,1,.28-.32,1,1,0,0,1,.42-.18,1.26,1.26,0,0,1,.54,0,1.46,1.46,0,0,1,.72.62,1.44,1.44,0,0,1,.13.28,1,1,0,0,1,0,.11l-.33-.24c-.09-.07-.2-.14-.32-.22a1.26,1.26,0,0,0-.36-.17A1.62,1.62,0,0,0,71.43,59.2Z"/><path class="cls-16" d="M68.64,130a1.92,1.92,0,0,1-.94.23h0a5.29,5.29,0,0,1-2.05-.56l-.3-.14c-.9-.42-2.08-1-3.5-1.88-2.38-1.38-4.62-2.85-4.72-2.91a1.67,1.67,0,0,1-.76-1.38,21.45,21.45,0,0,1,5.95,2.62A67.58,67.58,0,0,1,68.64,130Z"/><path class="cls-5" d="M77.85,62.88c.3.52-.14,1.42-1,2s-1.79.63-2.09.11.14-1.42,1-2S77.54,62.36,77.85,62.88Z"/><path class="cls-17" d="M75.32,76.2h.1c-1.45.46-1.32,1.88-1.61,4.09a52.23,52.23,0,0,0-.66,11.29c0,.64.16,1.79.26,2.41-1.45.53-4.83.17-7.86-1.24,0-.62,0-1.24,0-1.81-.1-3-.67-7.26-.59-9s.55-2.59,1-4.86a6.81,6.81,0,0,0,.17-1.64,54.09,54.09,0,0,1-5.68-2.79,10.83,10.83,0,0,1,.38-1.26,4.38,4.38,0,0,1,1.22-1.83A48.09,48.09,0,0,0,67,71.77a13.65,13.65,0,0,0,2.13,5.8c1.52-.67,4.21-3.61,5.19-4.72h.06A20.28,20.28,0,0,0,79,72.38a9.52,9.52,0,0,0,.53,3.32A23.09,23.09,0,0,1,75.32,76.2Z"/><path class="cls-17" d="M66.09,92.53c0,.16,0,.32,0,.48l-.54-.23c0-.62,0-1.24,0-1.81-.09-2.9-.62-6.86-.59-8.76C65,84.22,66,89.62,66.09,92.53Z"/><path class="cls-17" d="M73.16,91.59c0,.64.16,1.79.26,2.41a3.59,3.59,0,0,1-.43.12c-.06-.41-.1-.83-.13-1.25a56.64,56.64,0,0,1,.82-11.52A48.19,48.19,0,0,0,73.16,91.59Z"/><path class="cls-6" d="M92.56,125.14c-1.93,3.66-4.27,7.34-7.23,7.62l-.43,0c-3.38,0-6-4.08-7.55-7.52-1.67-3.71-3.37-9.39-4.83-13.27-1.73-4.62-3.59-6.53-4.31-7.09l-.13-.09-.06,0h0l0,0c-.82-.59-1.7-1.21-2.6-1.84a48.07,48.07,0,0,0-7.45-4.39c-.5-.22-.84-.17-.65.47a59.35,59.35,0,0,0,2.32,6.41c1.69,4.07,3.9,8.78,5.85,12.92l1.13,2.4a6,6,0,0,0-3.81.85L62,120c-8.75-18.62-9.74-23.28-7.28-24.87,2.13-1.37,5.79-.59,11,2.93a5.64,5.64,0,0,0,.25-2c0-.53,0-1.11,0-1.71a9,9,0,0,0,7,.44c.09.57.2,1.13.32,1.67.59,2.78,1.48,5.35,1.72,7.6.17,1.55.32,2.89.45,3.9a30.83,30.83,0,0,0,.75,3.88,106.25,106.25,0,0,0,4.23,11.95c2.25,5,3.69,5.4,4.2,5.35.22,0,1.07-.26,2.59-2.48a40.21,40.21,0,0,0,2.39-4.13A7.32,7.32,0,0,1,92.56,125.14Z"/><path class="cls-5" d="M54.15,44.29c-.41.33-.83.82-1.44,1.29-1.09.84-1.59,3.76-1.61,3.88-.29,1.68-2.65.17-2.44-1a32.28,32.28,0,0,0,.64-4.33c0-1.84.65-5.34,3-5.35,2.58,0,3.28,1,2.89,3.2A4.08,4.08,0,0,1,54.15,44.29Z"/><path class="cls-17" d="M46.82,39.38a14.79,14.79,0,0,1,7.25.69,12.59,12.59,0,0,1,5.74,3.32,2.66,2.66,0,0,1,.62,1.66,4.71,4.71,0,0,1-.25,1.58A1.45,1.45,0,0,1,59,47.69,4.14,4.14,0,0,1,56.59,47,4.55,4.55,0,0,1,55,45.27a1.12,1.12,0,0,1-.06-1.1l.48-.86a9.91,9.91,0,0,0-2.57-1.11,10.49,10.49,0,0,0-2.62-.38s0,.95,0,1.33a1.21,1.21,0,0,1-.67,1,4.1,4.1,0,0,1-2.67.11,3.7,3.7,0,0,1-2.1-1.25,1.36,1.36,0,0,1-.32-1.39A6.92,6.92,0,0,1,45,40.61C45.23,40.17,45.49,39.74,46.82,39.38Z"/><g class="cls-11"><ellipse class="cls-12" cx="47.16" cy="42.62" rx="0.44" ry="0.94" transform="translate(-5.57 78.11) rotate(-76.05)"/></g><g class="cls-11"><ellipse class="cls-12" cx="57.58" cy="45.59" rx="0.44" ry="0.94" transform="translate(-11.1 71.61) rotate(-59.12)"/></g><path class="cls-13" d="M49.43,42.74a4.24,4.24,0,0,0-.72-.63,3.58,3.58,0,0,0-1.25-.54,4.26,4.26,0,0,0-1.38-.08,4.79,4.79,0,0,0-1,.23c-.12,0-.2,0-.12-.07a3,3,0,0,1,1.1-.52,3.35,3.35,0,0,1,1.54,0,3,3,0,0,1,1.38.71,2.94,2.94,0,0,1,.62.8C49.63,42.77,49.54,42.85,49.43,42.74Z"/><path class="cls-13" d="M59.61,46.46a3.88,3.88,0,0,0-.46-.89,3.41,3.41,0,0,0-1-1,4.23,4.23,0,0,0-1.34-.53A2.76,2.76,0,0,0,56,44a2.31,2.31,0,0,0-.47.07c-.09,0-.12,0,0-.09A2,2,0,0,1,56,43.8a2.42,2.42,0,0,1,.81-.09,3.41,3.41,0,0,1,1.53.49,3,3,0,0,1,1.12,1.17,2.86,2.86,0,0,1,.31,1C59.77,46.59,59.66,46.61,59.61,46.46Z"/><path class="cls-5" d="M54.29,43.76s.14-1.25.31-2.34-.46-1.52-1-.63a7.83,7.83,0,0,0-.51,3"/><path class="cls-5" d="M128.2,28.31c.41.32.85.8,1.47,1.25,1.11.81,1.69,3.72,1.71,3.84.33,1.67,2.65.1,2.41-1.06A32.28,32.28,0,0,1,133,28c0-1.84-.79-5.32-3.13-5.27-2.58.05-3.25,1.06-2.8,3.27A4.08,4.08,0,0,0,128.2,28.31Z"/><path class="cls-4" d="M128.66,52.95s0,.67,0,1.39a23.1,23.1,0,0,1-.74,4.78,17.39,17.39,0,0,1-.57,2.16c-.16.54-.32,1.07-.51,1.58-.11.29-.22.58-.35.86a11.56,11.56,0,0,1-1,2s-.05.31-.08.31h0c-.16,0-.32.2-.48.38a5.63,5.63,0,0,1-.71.58,8,8,0,0,1-.27,1.07,8.49,8.49,0,0,1-6.52,5.7,9.8,9.8,0,0,0,1.42-1.55,9.16,9.16,0,0,1-6.13,1.47A6.87,6.87,0,0,0,117,69.5c-2,1.84-5.33.72-5.33.72s4.47-2.36,5.58-7.07a9.29,9.29,0,0,0,.25-2.21c0-.28,0-.57,0-.86-.13-1.41-.2-2.7-.25-3.87a42.63,42.63,0,0,1,.08-4.76,23.72,23.72,0,0,1,.42-3.07h0c.74-3.5,2-4.14,2-4.14l0,.08.2.54c.19.53.48,1.33.84,2.25,0,0-.06,0-.05,0,.42,1.1,1.32,2.34,1.32,3.44h0a11.86,11.86,0,0,1,1.42,2.65,5.55,5.55,0,0,1,.47.68l1.84-.34h0Z"/><path class="cls-5" d="M126.6,65.6l-.21.07c.07-.11.13-.22.19-.31C126.59,65.44,126.6,65.52,126.6,65.6Z"/><path class="cls-5" d="M109.7,105c-.08-.92-.14-1.72-.24-2.34s-.33-2.09-1.76-2.33-2.63,1-5.25,5.71c-1.39,2.5-2.61,5-2.66,5.09a1.68,1.68,0,1,0,3,1.47c1.13-2.31,2.5-4.87,3.59-6.71,0,.48.09,1,.14,1.49a6,6,0,0,1,3.23-1.57C109.74,105.49,109.72,105.23,109.7,105Zm5.29,26.3L113.57,124c.42-.06.84-.13,1.23-.2a7.18,7.18,0,0,1-.86-3.25h-.05c-.76.13-1.57.23-2.45.3a1.64,1.64,0,0,0-1.2.65,1.67,1.67,0,0,0-.31,1.34l1.78,9.08a1.67,1.67,0,0,0,1.64,1.35,1.39,1.39,0,0,0,.32,0A1.68,1.68,0,0,0,115,131.27Zm11-74.85h0c-.08-1.06-.15-2-.21-2.83h0q-.06-.84-.11-1.47c0-.45-.06-.81-.09-1.08,0-.12,0-.23,0-.31s0-.2,0-.25a.11.11,0,0,0,0,0,1.64,1.64,0,0,0-.21-.65,1.58,1.58,0,0,0-.37-.45l0,0a1.7,1.7,0,0,0-1-.36h-.16a1.64,1.64,0,0,0-1,.45,1.69,1.69,0,0,0-.53,1.2h0c0,.05,0,.1,0,.15s.11,1.33.28,3.45c.13,1.74.3,4.05.5,6.75l-.09-.07-.67-.5c.09.33.2.71.33,1.12s.37,1.13.59,1.71a14.12,14.12,0,0,0,.68,1.52,5.59,5.59,0,0,0,.33.58l0,.06.07.11a2.47,2.47,0,0,0,.7.72.81.81,0,0,0,.6.13,1.22,1.22,0,0,0,.74-.61,4.12,4.12,0,0,0,.33-.67,11.29,11.29,0,0,0,.54-2c.1-.57.18-1.16.25-1.72.09-.82.15-1.57.18-2.1-.45.65-.87,1.24-1.25,1.75C126.17,59.28,126.05,57.75,126,56.42ZM126,82.61a6.3,6.3,0,0,1-2.23-.35A6.28,6.28,0,0,0,126,82.61Zm.64-.06a5.57,5.57,0,0,1-.64.06A5.5,5.5,0,0,0,126.66,82.55Zm-2.88-.3a9.15,9.15,0,0,1-.91-.38A7.28,7.28,0,0,0,123.78,82.25Zm-1.39-.64c.16.09.31.18.47.25l-.47-.26ZM114,28.85c-.89-.27-1,.58-1.25,1.47-1.18,4.32-1.89,5.91-2.37,7.42a3.32,3.32,0,0,1,1.42-.64,2.21,2.21,0,0,1,1.29.11c.42-2.06.79-4.17,1.24-6.2C114.61,29.92,114.92,29.12,114,28.85Z"/><path class="cls-5" d="M127.62,64.69l-.35.43a1.66,1.66,0,0,1-.67.48h0l-.21.07c.07-.11.13-.22.19-.31C127,64.75,127.37,64.64,127.62,64.69Z"/><path class="cls-5" d="M127.62,64.69l-.35.43a1.66,1.66,0,0,1-.67.48h0l-.21.07c.07-.11.13-.22.19-.31C127,64.75,127.37,64.64,127.62,64.69Z"/><path class="cls-5" d="M127.49,55.07c-1.19.62-1.92,0-1.42,4.14.34,2.81.36,3.64.36,3.64A8.92,8.92,0,0,1,125,60.77l.09,2.47-2.24-.92c.06-4.21-.55-5.82-2.15-7.24h0a7,7,0,0,1-2.8-5.81c0-3.7,2.5-6.7,5.57-6.7a4.57,4.57,0,0,1,.83.08h0a5.4,5.4,0,0,1,.8.23l.05,0,.22.08c1.07.43,1.69,1.09,2.23,2.89.16.52.3,1.13.45,1.86A12.62,12.62,0,0,1,128.8,51C128.85,52.56,128.63,54.48,127.49,55.07Z"/><path class="cls-4" d="M121.94,44.58s-1.88,1.59-1.24,6.07c.4,2.74,1.93,5.53,2,9.53l-4.79-5s-1.58-7.6,2-10.27S121.94,44.58,121.94,44.58Z"/><path class="cls-5" d="M112.76,24.27c.77-.2.8,3.44,1,3.51s0-4.48.8-4.42-.13,4.27.08,4.3.53-3.68,1.41-3.43c.44.13-.11,1.91-.59,3.66-.23.83-.27,1.55,0,1.39a3.93,3.93,0,0,0,.71-.52c1.14-1,1.77-.55,1.53-.21a8.45,8.45,0,0,1-1.63,1.4c-.82.64-1.64.86-2.07,2.6-.22.9-.35,1.92-.69,3a6.77,6.77,0,0,1-2-.4l.46-1a6.69,6.69,0,0,0,.62-4.4c-.3-1.18-1.2-3-.76-3.28s.91,1.77,1.16,1.72S111.91,24.49,112.76,24.27Z"/><path class="cls-4" d="M127.61,45.88a5.85,5.85,0,0,1-2.5-3l.05,0c.08,0,.09-.07.16-.05C126.47,43.18,127.08,44.08,127.61,45.88Z"/><path class="cls-6" d="M128.9,70.46c.25,1.68-1,3.21-1,7.4a3.72,3.72,0,0,1,0,.4c0,1.34,0,2.69-.05,4a6.22,6.22,0,0,1-5.4-.65c0-1.45.06-2.82.06-4.06,0,0-.06-4.81-.08-6,0-.22,0-.45,0-.66,0-.69-.09-1.35-.18-2,0-.36-.11-.71-.17-1a17,17,0,0,0-.57-2.2h0a14.44,14.44,0,0,0-1.1-2.49h0l-.1-.08c-.82-.61-1.76-1.35-2.75-2.18-3-2.53-6.5-5.87-7.83-8.86s-.73-8.95.25-13.85a3.74,3.74,0,0,1,2-1.12,1.77,1.77,0,0,1,1.65.35c-1.12,5.21-1.83,10.88-.77,13.26a19.77,19.77,0,0,0,4.48,5.5c1,1,2.11,1.89,3.15,2.73.63.51,1.24,1,1.82,1.42.09.33.2.71.33,1.12s.37,1.13.59,1.71a14.12,14.12,0,0,0,.68,1.52,5.59,5.59,0,0,0,.33.58l0,.06.07.11a2.47,2.47,0,0,0,.7.72.81.81,0,0,0,.6.13,1.22,1.22,0,0,0,.74-.61,4.12,4.12,0,0,0,.33-.67,11.29,11.29,0,0,0,.54-2c.1-.57.18-1.16.25-1.72.09-.82.15-1.57.18-2.1l.47-.71h0c.31-.45.62-.93.93-1.43,2.66-4.31,4.07-8,4.07-10.78,0-4-1.18-9.44-2.24-13.52A2.08,2.08,0,0,1,132,31.45a2.53,2.53,0,0,1,1.95.11c1.13,4.29,2.44,10.24,2.44,14.71,0,6.51-5.72,14.57-8.1,17.62-.06.62-.11,1.63-.17,2.91C128.3,68.08,128.73,69.31,128.9,70.46Z"/><path class="cls-4" d="M127.78,102.86c-.55,7.88-1.81,12.71-4.09,15.9-2,2.74-4.81,4.26-8.89,5a7.27,7.27,0,0,1-.87-3.39c3.36-.57,5.44-1.81,6.92-3.88,1.87-2.6,2.86-6.68,3.36-13.8.16-2.27.28-5,.26-8.28-.46,1.75-.92,3.43-1.5,5.31-4.15,13.7-7.37,16.06-9.4,16.58a5.27,5.27,0,0,1-1.34.16,4.38,4.38,0,0,1-2.54-.83c-2.19-1.57-2.87-5.08-3.2-8.25a5.93,5.93,0,0,1,3.3-1.62c.21,2.49.62,6.11,1.9,7a1.12,1.12,0,0,0,1.05.1c.47-.12,2.81-1.2,6.46-12.73l.06-.24c.86-2.89-.17-5.64,1-10.6A27.77,27.77,0,0,1,121.79,85a9,9,0,0,0,.54-3s0-.23,0-.34a6.19,6.19,0,0,0,5.53.64c0,2.15,0,4.22-.06,6.06l0,1.31C128,94.76,128,99.47,127.78,102.86Z"/><polygon class="cls-10" points="134.18 79.44 134.15 79.44 134.18 79.43 134.18 79.44"/><path class="cls-10" d="M134.26,79.4l-.08,0h0Z"/><circle class="cls-6" cx="126.11" cy="48.19" r="0.72" transform="translate(-7.52 28.96) rotate(-12.72)"/><circle class="cls-6" cx="123.12" cy="48.83" r="0.72" transform="translate(-7.73 28.31) rotate(-12.72)"/><path class="cls-6" d="M124.87,49.24a.36.36,0,0,0,0,.12l.07.12.11.13.15.14.09.07.09.08.21.15.22.16.06,0,.08.08a.36.36,0,0,1,.08.27.37.37,0,0,1-.12.22.67.67,0,0,1-.14.1,1.2,1.2,0,0,1-.26.1l-.23,0a1.82,1.82,0,0,1-.48,0l.42-.22.19-.1.19-.12c.06,0,.09-.11.07-.07s0,0,0,0l0,0-.05,0-.22-.17a2,2,0,0,1-.21-.19,1.46,1.46,0,0,1-.29-.42.72.72,0,0,1-.07-.37A.28.28,0,0,1,124.87,49.24Z"/><path class="cls-6" d="M126.93,51a2.19,2.19,0,0,1-3.23.71s.68,1.93,2,1.83S126.93,51,126.93,51Z"/><path class="cls-4" d="M125.51,42.91c-.24,2.49-2.11,3.69-4,4.19a8.35,8.35,0,0,0,2.38-3.18c-1.21,1.57-3.56,4.17-6.27,4.76,0,0,.45-5.11,4.35-6a6.35,6.35,0,0,1,2.46,0h0l.3.06h0a4.3,4.3,0,0,1,.51.14Z"/><path class="cls-6" d="M121.59,48.58a1.1,1.1,0,0,1,0-.43,1.4,1.4,0,0,1,.19-.41,1.44,1.44,0,0,1,.17-.2,1.26,1.26,0,0,1,.22-.17l.12-.07.13-.05a1.09,1.09,0,0,1,.26-.06,1.25,1.25,0,0,1,.25,0,.88.88,0,0,1,.21,0,.69.69,0,0,1,.17.06l.12.06.1.06h-.25l-.16,0a1.32,1.32,0,0,0-.18,0l-.19,0a1.47,1.47,0,0,0-.19.07l-.09,0-.09.05a1.51,1.51,0,0,0-.17.12l-.15.14c-.1.1-.18.2-.26.29Z"/><path class="cls-6" d="M125.1,47a.94.94,0,0,1,.19-.35,1.16,1.16,0,0,1,.32-.27,1.1,1.1,0,0,1,.23-.1,1,1,0,0,1,.52,0,1.29,1.29,0,0,1,.24.09l.19.13a1.18,1.18,0,0,1,.14.14.93.93,0,0,1,.15.24l0,.1-.1,0-.1-.06-.13-.06-.15-.07-.17-.06-.17,0a.94.94,0,0,0-.18,0l-.18,0-.17,0-.17.06-.15.07Z"/><path class="cls-7" d="M123,26.8a15.11,15.11,0,0,1,6.54-3.55,12.86,12.86,0,0,1,6.76-.46,2.72,2.72,0,0,1,1.47,1.05,4.81,4.81,0,0,1,.69,1.48,1.48,1.48,0,0,1-.4,1.57,4.23,4.23,0,0,1-2.45.76,4.65,4.65,0,0,1-2.29-.54,1.15,1.15,0,0,1-.68-.89c0-.39-.08-1-.08-1a10.13,10.13,0,0,0-2.81.52,10.72,10.72,0,0,0-2.44,1.18s.54.8.72,1.16a1.23,1.23,0,0,1,0,1.26A4.19,4.19,0,0,1,125.85,31a3.78,3.78,0,0,1-2.49.14,1.39,1.39,0,0,1-1.06-1,7.07,7.07,0,0,1-.15-1.21C122.11,28.37,122.08,27.86,123,26.8Z"/><g class="cls-11"><ellipse class="cls-12" cx="125.14" cy="29.35" rx="0.96" ry="0.45" transform="translate(-2.5 44.52) rotate(-19.98)"/></g><g class="cls-11"><ellipse class="cls-12" cx="135.68" cy="25.92" rx="0.96" ry="0.45" transform="translate(-1.19 7.26) rotate(-3.05)"/></g><path class="cls-13" d="M127.14,28.15a4.34,4.34,0,0,0-1-.12,3.66,3.66,0,0,0-1.37.25,4.35,4.35,0,0,0-1.21.72,4.89,4.89,0,0,0-.75.78c-.08.1-.17.11-.14,0a3.07,3.07,0,0,1,.63-1.07,3.42,3.42,0,0,1,1.3-.89,3.08,3.08,0,0,1,1.57-.18,3,3,0,0,1,1,.32C127.33,28.07,127.29,28.19,127.14,28.15Z"/><path class="cls-13" d="M137.89,25.5A4,4,0,0,0,137,25a3.48,3.48,0,0,0-1.43-.22,4.32,4.32,0,0,0-1.44.32,2.82,2.82,0,0,0-.64.37,2.36,2.36,0,0,0-.35.33c-.06.07-.12,0-.08-.05a2,2,0,0,1,.27-.44,2.47,2.47,0,0,1,.63-.54,3.49,3.49,0,0,1,1.58-.46,3,3,0,0,1,1.62.36,2.92,2.92,0,0,1,.86.71C138.1,25.52,138,25.6,137.89,25.5Z"/><path class="cls-5" d="M127.86,27.39c-.12-.84-.1-.83-.37-2.33-.19-1.09.42-1.53,1-.66a7.83,7.83,0,0,1,.59,3"/><path class="cls-18" d="M146.33,76.64l-.45,1.75s-8.65,8.66-10.7,7.87-.26-7.18-.26-7.18h0l.08,0,10.92-3.89Z"/><path class="cls-10" d="M145.87,78.39s-10,.92-10.42.94-.88-.17-.17-.59a28.9,28.9,0,0,1,5.35-2.48,19.11,19.11,0,0,1,5.17-1.19c.72,0,1,1.12.86,1.84a4.36,4.36,0,0,1-.79,1.48Z"/><path class="cls-19" d="M146.71,76.52a1.86,1.86,0,0,1,0,.39,4.4,4.4,0,0,1-.79,1.48l-1.56.14c-2.82.26-8.52.78-8.86.79s-.88-.17-.17-.59a28.94,28.94,0,0,1,5.35-2.48,19.17,19.17,0,0,1,5.17-1.19.63.63,0,0,1,.26.06,1.32,1.32,0,0,1,.62,1.05h0A2.26,2.26,0,0,1,146.71,76.52Z"/><path class="cls-5" d="M159.34,124.44a1.69,1.69,0,0,0-2.37.06,66.53,66.53,0,0,1-5.77,5.41c.55-1.56,1.35-3.59,2.1-5.46a10.68,10.68,0,0,1-3.85.59c-2.47,6.3-2.76,7.74-1.83,8.83a2.07,2.07,0,0,0,1.38.72l.21,0h.07c1,0,2.47-.54,6.3-4.05,2-1.84,3.74-3.65,3.81-3.73a1.69,1.69,0,0,0-.06-2.38Zm-13.09-57.6c-.65-2.69-.76-3.53-2.19-4.58a2.46,2.46,0,0,0-.31-.21,4.81,4.81,0,0,0-1.86-.72h0a4.47,4.47,0,0,0-1.3,0l-.16,0c-3.13.53-5.14,4-4.5,7.8A7.58,7.58,0,0,0,138.78,74l.32.23v0c1.4.81,2.32,2.63,2.52,5.24l2.57-.56,1.11-1.06c-.42-2.59-.08-3,.55-3.65a4.59,4.59,0,0,0,1.23-1.76C147.67,70.58,146.58,68.16,146.26,66.85Zm-16,51.35c-1.48-.65-3.34.16-6.4,2.84-1.79,1.57-3.34,3.2-3.41,3.27a1.68,1.68,0,0,0,2.45,2.3,35.61,35.61,0,0,1,5.41-4.8c-.05.8-.19,1.86-.35,2.9a9,9,0,0,1,3.35.32C131.85,121.16,131.93,119,130.22,118.2Z"/><path class="cls-4" d="M144.12,62.19c-1.56-.26-5.89,1-6.5,2.18a2,2,0,0,0,.19,2,5.59,5.59,0,0,1,.27,4.72l.68,3a7.69,7.69,0,0,1-2.89-4.92c-.65-3.83,1.39-7.37,4.56-7.91l.16,0a6.45,6.45,0,0,1,1.32,0h0a4.85,4.85,0,0,1,1.88.73Z"/><ellipse class="cls-5" cx="137.31" cy="71.15" rx="1.98" ry="1.12"/><path class="cls-18" d="M146.78,77.67l-1.09,1.63-3.36,2.1-5.22-2.2,7.12-.59.08-.07a5,5,0,0,0,.93-1.53c.27-.61.57-1.31.82-1.89a1.32,1.32,0,0,1,.62,1.05h0l0,.35Z"/><path class="cls-4" d="M153.89,123l-.59,1.49a10.6,10.6,0,0,1-3.84.59c.39-1,.82-2.09,1.32-3.33,1.32-3.29,2.68-6.69,3.67-9.6a22.64,22.64,0,0,0,1.34-5.14c-.7.1-2.63.69-6.91,3.81-.54.39-1.06.79-1.57,1.18a23.07,23.07,0,0,0-5.57,8.23l0-.1c-3.8,10.06-8.66,17.15-12.23,17.15a2.59,2.59,0,0,1-.39,0,2.34,2.34,0,0,1-1.54-1c-1.07-1.47-.8-4.06.08-9.64.09-.57.19-1.23.29-1.89a9.1,9.1,0,0,1,3.35.32q-.15,1-.32,2.09a52.61,52.61,0,0,0-.74,6.29,21.84,21.84,0,0,0,4.44-5.93,59.84,59.84,0,0,0,3.56-7.59l0,0a51.36,51.36,0,0,0,3-12.91q.09-.82.16-1.64l6-1.75,0,.2a16,16,0,0,0,0,2.15,3.42,3.42,0,0,0,.36,1.56h0c3.82-2.7,8.5-5.48,10.81-3C160.12,106.42,158.85,110.57,153.89,123Z"/><path class="cls-6" d="M143.32,67a.77.77,0,0,0,.92.5.69.69,0,0,0,.45-.89.77.77,0,0,0-.92-.5A.69.69,0,0,0,143.32,67Z"/><path class="cls-6" d="M140.41,67.52a.77.77,0,0,0,.92.5.69.69,0,0,0,.45-.89.77.77,0,0,0-.92-.5A.69.69,0,0,0,140.41,67.52Z"/><path class="cls-6" d="M142.79,67.66a.36.36,0,0,0,0,.12l.08.11L143,68l.16.13.19.14.44.27a.54.54,0,0,1,.28.32.34.34,0,0,1-.07.27.57.57,0,0,1-.14.13,1,1,0,0,1-.26.12l-.23.06a1.76,1.76,0,0,1-.48,0l.41-.24.19-.11.17-.13,0-.06s0,0,0,0,0,0,0,0l0,0-.05,0-.24-.16a2.24,2.24,0,0,1-.22-.18,1.56,1.56,0,0,1-.32-.4.76.76,0,0,1-.1-.36A.28.28,0,0,1,142.79,67.66Z"/><path class="cls-6" d="M145.09,69.7s-.92,1.8-3.24.66c0,0,.87,1.9,2.14,1.73S145.09,69.7,145.09,69.7Z"/><path class="cls-6" d="M139.27,66.38a1.1,1.1,0,0,1,0-.43,1.4,1.4,0,0,1,.19-.41,1.44,1.44,0,0,1,.17-.2,1.26,1.26,0,0,1,.22-.17l.12-.07.13-.05a1.09,1.09,0,0,1,.26-.06,1.25,1.25,0,0,1,.25,0,.88.88,0,0,1,.21,0,.69.69,0,0,1,.17.06l.12.06.1.06H141l-.16,0a1.32,1.32,0,0,0-.18,0l-.19,0a1.47,1.47,0,0,0-.19.07l-.09,0-.09.05a1.51,1.51,0,0,0-.17.12l-.15.14c-.1.1-.18.2-.26.29Z"/><path class="cls-6" d="M142.92,65a.94.94,0,0,1,.19-.35,1.16,1.16,0,0,1,.32-.27,1.1,1.1,0,0,1,.23-.1,1,1,0,0,1,.52,0,1.29,1.29,0,0,1,.24.09l.19.13a1.18,1.18,0,0,1,.14.14.93.93,0,0,1,.15.24l0,.1-.1,0-.1-.06-.13-.06-.15-.07-.17-.06-.17,0a.94.94,0,0,0-.18,0l-.18,0-.17,0-.17.06-.15.07Z"/><path class="cls-18" d="M148.2,91.46V91.4q0-.34,0-.69v-.07q0-.35,0-.71v-.08q0-.36-.06-.74V89q0-.38-.07-.77v-.07q0-.4-.08-.82v0c-.18-1.77-.42-3.74-.75-5.94,2.66-2.85,8.77-10.09,9.28-16.82a60.34,60.34,0,0,0-.11-9.09,5.88,5.88,0,0,1-3.37,0,57.85,57.85,0,0,1,.13,8.84c-.22,2.9-1.89,6.55-4.85,10.54-1,1.36-2,2.56-2.83,3.47l-.08-.45-1.11,1.32-2.59.82h-.94a17.34,17.34,0,0,1,.07,2.36c-.11,1.35-.22,1.53-.22,2.47l.3,1.49s.26,2.12.41,5.53v.07c0,.18,0,.35,0,.54v.22l0,.44v.67c0,.14,0,.28,0,.42v.26c0,.17,0,.35,0,.53s0,.59,0,.64C141.36,99.07,141,107,141,107s.77.08,1.6.15a14.57,14.57,0,0,0,5.06-.42,22.72,22.72,0,0,1,.05-2.62c.12-1.53.29-3.2.41-5,0,0,0-.12,0-.14s0-.3,0-.44v-.18c0-.11,0-.23,0-.35V97c0-.13,0-.25,0-.38v-.08c0-1.3,0-2.74,0-4.37v0C148.22,91.92,148.21,91.69,148.2,91.46Z"/><path class="cls-5" d="M150.66,92.67A22.81,22.81,0,0,1,146.73,97a4.31,4.31,0,0,0-.41.51l-.33.4a4.63,4.63,0,0,1-1.72-1.8c.13-.17.21-.48.34-.64a4.3,4.3,0,0,0,.55-1.14,2.36,2.36,0,0,1,.41-.76,18.86,18.86,0,0,1,2.35-2.9,1.68,1.68,0,1,1,2.72,2Z"/><path class="cls-18" d="M146.87,97.59c-.42.52-.86,1.05-1.32,1.59-5.2,6.17-7.34,7.38-8.65,7.57a4.69,4.69,0,0,1-.57,0,2.63,2.63,0,0,1-1.6-.57c-1.43-1.1-1.5-3.74-.52-8.47a73.53,73.53,0,0,1,3.36-10.92c1.41-3.62,2.29-3.14,3.19-4.43l2.77,1.27L142,85.36a22.49,22.49,0,0,0-1.34,2.71,66.39,66.39,0,0,0-2.89,9.69,19.78,19.78,0,0,0-.74,5c.82-.5,2.51-1.76,5.91-5.79.51-.6,1-1.21,1.47-1.79A6,6,0,0,0,146.87,97.59Z"/><path class="cls-16" d="M159.86,125.74a1.71,1.71,0,0,1-.46,1.09c-.08.08-1.81,1.89-3.81,3.73-3.83,3.52-5.31,4.05-6.3,4.05h-.07l-.21,0a25.26,25.26,0,0,1,4.72-4.88C156.58,127.3,159.19,125.61,159.86,125.74Z"/><path class="cls-5" d="M144.64,95.52a4.37,4.37,0,0,0,.56-1.71c.15-1.09,0-3.21,2.12-2.17S144.64,95.52,144.64,95.52Z"/><path class="cls-5" d="M150.46,50.51a13.34,13.34,0,0,1,1.38,1.35,11.83,11.83,0,0,1,1.45,3.95c.22,1.69,2.64.28,2.48-.89a32.28,32.28,0,0,1-.46-4.35c.08-1.84-.42-5.36-2.76-5.47-2.58-.13-3.31.83-3,3.07A4.08,4.08,0,0,0,150.46,50.51Z"/><path class="cls-17" d="M145.52,47.85a15.12,15.12,0,0,1,7.18-2,12.87,12.87,0,0,1,6.69,1.1,2.72,2.72,0,0,1,1.19,1.36,4.81,4.81,0,0,1,.33,1.6,1.48,1.48,0,0,1-.75,1.44,4.23,4.23,0,0,1-2.56.18,4.65,4.65,0,0,1-2.11-1.05,1.15,1.15,0,0,1-.46-1c.06-.39.15-1,.15-1a10.13,10.13,0,0,0-2.86-.14,10.73,10.73,0,0,0-2.64.59s.34.91.44,1.29a1.23,1.23,0,0,1-.27,1.23,4.19,4.19,0,0,1-2.52,1.07,3.78,3.78,0,0,1-2.45-.43,1.39,1.39,0,0,1-.8-1.21,7.07,7.07,0,0,1,.13-1.22C144.28,49.18,144.37,48.68,145.52,47.85Z"/><g class="cls-11"><ellipse class="cls-12" cx="147" cy="50.83" rx="0.96" ry="0.45" transform="translate(-4.94 17.58) rotate(-6.73)"/></g><g class="cls-11"><ellipse class="cls-12" cx="158.05" cy="49.91" rx="0.45" ry="0.96" transform="translate(80.96 196.63) rotate(-79.81)"/></g><path class="cls-13" d="M149.22,50.12a4.34,4.34,0,0,0-.92-.34,3.66,3.66,0,0,0-1.39-.07,4.35,4.35,0,0,0-1.34.42,4.89,4.89,0,0,0-.91.59c-.1.08-.2.07-.14,0a3.07,3.07,0,0,1,.86-.89,3.42,3.42,0,0,1,1.47-.57,3.08,3.08,0,0,1,1.57.18,3,3,0,0,1,.88.54C149.42,50.08,149.36,50.19,149.22,50.12Z"/><path class="cls-13" d="M160.3,50a4,4,0,0,0-.77-.69,3.48,3.48,0,0,0-1.35-.55,4.32,4.32,0,0,0-1.47,0A2.82,2.82,0,0,0,156,49a2.37,2.37,0,0,0-.42.24c-.08.06-.13,0-.07-.07a2,2,0,0,1,.37-.37,2.47,2.47,0,0,1,.74-.38,3.49,3.49,0,0,1,1.65-.08,3,3,0,0,1,1.49.72,2.92,2.92,0,0,1,.67.89C160.5,50.07,160.4,50.13,160.3,50Z"/><path class="cls-5" d="M150.18,49.57c-.06-.85,0-.83-.21-2.35-.12-1.1.52-1.5,1-.59a7.83,7.83,0,0,1,.38,3.05"/><polygon class="cls-7" points="63.88 28.09 67.69 24.4 65.36 29.16 70.04 31.64 64.8 30.9 63.88 36.12 62.97 30.9 57.72 31.64 62.4 29.16 60.07 24.4 63.88 28.09"/><polygon class="cls-7" points="119.59 15.05 122.07 12.65 120.56 15.75 123.6 17.36 120.19 16.88 119.59 20.27 119 16.88 115.59 17.36 118.63 15.75 117.12 12.65 119.59 15.05"/><polygon class="cls-7" points="163.87 67.58 166.34 65.18 164.83 68.28 167.87 69.89 164.46 69.41 163.87 72.8 163.27 69.41 159.86 69.89 162.91 68.28 161.39 65.18 163.87 67.58"/><polygon class="cls-7" points="43.97 92.91 46.44 90.52 44.93 93.61 47.97 95.22 44.56 94.74 43.97 98.14 43.37 94.74 39.96 95.22 43.01 93.61 41.49 90.52 43.97 92.91"/></g></g></svg>
