<svg xmlns="http://www.w3.org/2000/svg" viewBox="0 0 43 90.71"><defs><style>.a{fill:#0d83dd;}</style></defs><title>hand</title><path class="a" d="M42.88,59.66c-.42-3.32-6.4-12.8-12.46-12.09.53-4.7-.94-10-2.77-16.49l-.35-1.25c-.51-1.85-1.22-4.38-4.22-5.31a6.31,6.31,0,0,0-1.87-.29,5.88,5.88,0,0,0-4.43,2.06c-.08.08-.14.19-.21.28A25.13,25.13,0,0,1,17,22.24s5.77-.75,7.58-5.17-.25-13.51-5-15.91c-4-2-7,0-8.68.93C8.93,3.24,5.91,6.59,4.17,9.84c-.36.67-1.13,2.87-.41,6.5.5,2.51,1.46,6.53,2.89,11.37a16,16,0,0,0-1.55.74,8.49,8.49,0,0,0-2.79,2.42,6.24,6.24,0,0,0-.59.61c-1.5,1.77-2,4.34-1.42,7.64C1.38,45.54,3.52,50.57,10.5,54.2l.42.2a6.92,6.92,0,0,1,2.69,1.92c.39.57,1.69,3.49,1.89,16.87.09,5.64,0,11.86-.21,17.52h3c-.26-18.89-.91-34-2.29-36a10.23,10.23,0,0,0-4.17-3.06c-5.94-3.09-7.68-7.07-8.67-13,0-.13,0-.25,0-.38,0-.48,0-1,0-1.43a11.79,11.79,0,0,1,.28-2.48A6.45,6.45,0,0,1,6.3,30.09a10.17,10.17,0,0,1,.92-.5,10.36,10.36,0,0,1,1.15-.46,14.73,14.73,0,0,1,5.76-.59c.28,0,.74,0,1.24.1a10,10,0,0,1,1.22.2,2.2,2.2,0,0,1,1.48.83s.06.07.07.11a1.13,1.13,0,0,1-.53,1.45,3.46,3.46,0,0,1-.83.36c-.77.23-1.65.32-2.13.43l-2.87.64c-1.12.25-2.23.51-3.34.78-.81.2-1.61.4-2.41.62-1.65.45-1.14,2.28.51,1.9.85-.2,1.71-.38,2.57-.56,2.29-.47,4.59-.86,6.9-1.21l1-.17h0l.32-.05c1.55-.23,3.38-.35,4.34.7,1.86,2-1.72,2.7-4,3-.7.09-1.28.14-1.53.19-2,.33-3.92.69-5.88,1-.92.14-1.84.28-2.76.38-1.49.17-2,2.14-.22,2,1.26-.08,2.51-.2,3.77-.3a46.65,46.65,0,0,1,7.4-.18l.57,0c1.12.11,2.36.3,2.53,1.54.15,1.07-1,1.42-2.12,1.56-.68.08-1.36.09-1.76.13-1.21.12-3.47-.28-5.49-.22-1.6,0-3.05.38-3.71,1.49a2.73,2.73,0,0,0-.37,1.2c-.11,1.42,2.59,1.07,2.69-.18,0-.42.92-.51,2.23-.51a104,104,0,0,0,11,20.14,6.6,6.6,0,0,0,.81.92c.11,5.3.29,13.82.51,23.86h2.86c-.19-9.11-.34-17-.45-22.32,5.18,1.19,12-3.26,12-3.26S43.34,63.21,42.88,59.66ZM18.57,4.74c.6-.23,1.85,1.61,2.8,4.1s1.24,4.7.64,4.93-1.85-1.61-2.8-4.1S18,5,18.57,4.74Zm-4.69,6.72a10,10,0,0,1-.06-4.89,11.51,11.51,0,0,1,1.3-3.3c.21-.34.54-.26.47.1a27.4,27.4,0,0,0-.42,3.4A13.34,13.34,0,0,0,15.56,11a11,11,0,0,0,1.8,3.79,8.83,8.83,0,0,0,2.22,2.06c.37.24.32.63-.11.54a6.83,6.83,0,0,1-3.1-1.67A9.07,9.07,0,0,1,13.89,11.46Zm13.45,37c-3.81,1.14-5.6.53-7.14-2.88,2.14-.35,3.87-1.17,4.13-3s-.88-3-2.7-3.59c1.92-.58,3.68-2.05,3-4.36-.59-2.08-2.53-2.63-4.46-2.72a4,4,0,0,0,.61-2.8,1.9,1.9,0,0,0-1.18-1.44,2.9,2.9,0,0,1,2.6-.34c1.43.44,1.78,1.51,2.29,3.32C26.67,38.38,28.33,43.86,27.33,48.47Zm9.61,15a8.27,8.27,0,0,1-3.35-1,9.06,9.06,0,0,1-3.49-3.43,9.43,9.43,0,0,1-1.21-4.73,11.86,11.86,0,0,1,.22-2.16,9.9,9.9,0,0,1,.39-1.46c.07-.18.18-.25.28-.23s.15.09.15.24a24.55,24.55,0,0,0,.32,3.49,11.83,11.83,0,0,0,1.35,4,11.06,11.06,0,0,0,2.73,3.15A12.69,12.69,0,0,0,37.07,63C37.44,63.18,37.37,63.55,36.94,63.52Zm2.13-3.65c-.54.34-2.14-1.2-3.58-3.45s-2.16-4.35-1.62-4.7,2.14,1.2,3.58,3.45S39.61,59.52,39.07,59.87Z"/></svg>