<svg xmlns="http://www.w3.org/2000/svg" viewBox="0 0 1578.16 160.18"><defs><style>.a{fill:#ce2922;}.b,.c{fill:#fff;}.b{fill-rule:evenodd;}</style></defs><title>the-globe-and-mail</title><rect class="a" width="1578.16" height="160.18"/><path class="b" d="M1496.13,81.8a1.74,1.74,0,0,0-2.29,1.66,2.69,2.69,0,0,0,1.28,2.6,1.79,1.79,0,0,0,.84.3c4,.33,8.76-6.71,11.8-12,1.38-2.4,1.9-3.2,2.54-3.2.3,0,1.42-.12,2.66,2.08,1.66,2.91,10,11.22,20.57,8.94.42-1-1.45-1.88-2.7-2.5,0,0-4.37-3.53,1.25-5.19,5.61-1.25,8.31.83,13.09-3.12.2-1.25-2.5-1.87-2.5-1.87s-3.32-2.07,6.44-5c4.78-1.25,4.78-2.08,3.95-2.7s-3.12-1.45.21-3.74c3.53-2.29,5.81-5.41,5.61-6.44-.62-.83-2.08-.62-4,.42a4.82,4.82,0,0,1-6.23-1.87c-1.46-2.29-2.92-1.87-4.78-.42s-5.61,3.53-7.28,0c-1-3.95-.62-2.91,2.29-8.31a28.06,28.06,0,0,0,3.54-10.6c0-.83-.42-1.25-3.12,0-2.28.63-2.49-11-2.7-12.67,0,0,0-3.12-1.87-.42-1.46,1.87-7.27,7.48-9.14,8.1s-4.57-1-4.16-3.33c0-2.29-1.45-1.46-2.08,0s-5,15.58-6,16.42-1.87,2.91-3.74-.62-5.13-11.91-8.17-7.76c-.83-.83-6.16-8-10.53-8.24-.63.83.41,2.91,1.24,3.53.83,1,.83,3.95,0,6a9.81,9.81,0,0,0,.2,7.28c.63,1.25-.2,3.33-3.74,3.74s-2.92,1.46-1.46,3.33,6.86,6.44,8.11,8.1-.21,3.74-2.7,3.95-4.78-.62-5.4.83c-.21,1.46,1.87.83,2.7,2.08,0,0,4.57,8.31,10.59,7.9s6.31.39,5.62,2.91c-.6,2.18-5.46,9.24-10,9.76"/><path class="c" d="M283,118.71c-2.68,8-6.24,12.24-12.66,12.24H250.2c-.18,0-.18-2.1-.18-47.2h29.6V74.67H250V27.29h15.16c7.13.18,9.63,2.45,11.77,9.27L283,55.61l10.16-1.92V19.95h-76v7.34h11.05V131H202.77V27.29h11.05V19.95H170v7.34h10.88V74.67h-38V27.29h11.05V19.95H20.55L19.3,53.69l10.16,1.92,6.06-20.8c2-6.82,4.1-7.87,11.05-7.87h7.49V131H40v7.35H89.91V131H75.82v-104h7.49c7.67,0,8.74.87,10.87,7.69l6.24,21,10.16-1.92V27.29h10.52V131H110.05v7.35h43.87V131l-11.05-.17V83.58h38V131H170v7.35h127l2.49-36.36-10-1.92Zm-7.85-91.07c3.39,0,5.71,2.44,7.31,7.86l4.46,14.34.53,1.75-2.5.53L279.8,35.85c-1.07-3.67-2.85-7.34-5.35-8.21ZM24.83,51.76l-2.49-.35,1.07-26.57L25.9,25ZM59.78,131H57.1v-104h2.68Zm42.62-78.83L97.22,34.81c-1.07-3.67-2.32-7.34-4.82-8.21h2c2.5.35,4.28,4.19,5.35,7.87l5.17,17.13ZM126.82,131h-2.68V27.29h2.68Zm59.73,0h-2.67V27.29h2.67ZM234,131H231.3V27.29H234ZM293.7,104l-6.24,18.7c-1.6,4.55-4.82,7.87-8.56,7.87h-.35c2.5-.87,5-4.55,6.24-8.21l6.42-18.88ZM1395.6,27.29h10.87V19.95h-43.86v7.34h11.06V131h-19.26l-33.87-111h-17.3c-4.27,17.48-30,98.59-30,98.59-2.68,7.87-6.42,12.41-14.09,12.41h-10.7l-3.22-71.84c-.71-15.91-.88-19.93-.88-22.38,0-6.64.72-8,11.59-9.44V19.95h-32.63c-6.42,17.13-16,46-23.71,67.47-13.9-34.78-26.38-67.47-26.38-67.47h-35.13v7.34c12.12,2.28,13.19,1.05,13.19,12.59v1.4c-1.07,21-3.39,57.86-5,79.72-.35,5.24-2,7.86-13,10.48v6.82h36v-7c-12.66-2.1-13.37-6.47-13.37-10.31,0-3.33,1.25-33.57,2.13-57.69l.72-19.93,31.56,79.89,4.63-2.1,26.57-78.49,5.35,88.27H1215v7.35h79.16V131c-12.66-1-13-4.54-10.52-15.73.89-3.85,2.32-9.61,5-19.4H1320c3.39,11,7.31,22.72,10.87,35.13h-10.33v7.35h86.13V131H1395.6Zm-205.4,87.58-31.2-79,.18-6.47,32.45,82ZM1230,131l-5.88-95.27,2.31-6.47L1232.63,131Zm61.34-44,12.66-43,13.37,43Zm42.79,44-28.71-92.3,1.43-5.07,30,97.37Zm45.28,0h-2.67V27.29h2.67Zm97.34-32-6.05,19.58c-2.32,7.34-6.42,12.41-13.55,12.41H1443.2c-.18,0-.18-4.72-.18-103.66h11.06V19.95h-41.82v7.34h9V131h-9v7.35h72l2.86-37.41ZM1427,131h-2.67V27.29H1427Zm48.14-8.21c-1.25,4-3.74,7.17-6.06,7.87h-3c2.5-.87,5.17-4.55,6.42-8.21l6.06-19.23,2.5.52ZM1044.52,19.95H966.78v7.34c14.62,0,14.8,8.22,14.8,12.76V97.92c-15.16-23.95-48.68-74.65-50.45-78h-29.6v6.82c5.71.52,10.87,6.82,14.26,11.89v79.71c0,6.87-.47,11.68-8.73,12.73V131h-8.74l-33.88-111H847.15c-4.29,17.48-30,98.59-30,98.59-2.68,7.87-6.42,12.41-14.09,12.41v7.35h34.95V131c-12.66-1-13-4.54-10.52-15.73.89-3.85,2.32-9.61,5-19.4h31.38c3.39,11,7.31,22.72,10.87,35.13H864.44v7.35h76.67V131c-16.58-.17-16.95-7-16.95-12.58v-67l56,86.88h9.45c0-6.12.35-13.64.35-21.15V40.05c0-8,2.32-12.76,13.37-12.76h10V131h-11.77v7.35h43c33.53,0,53-28.15,53-60.66,0-33.73-18.9-57.69-53-57.69M835.2,86.9l12.66-43,13.37,43ZM878,131l-28.71-92.3,1.43-5.07,30,97.37Zm102.88,3.15L918.29,36.91A73.67,73.67,0,0,0,911.51,28l.17-.35,3.4.52s4.63,6.12,7,9.79l58.84,91.25ZM1019,131h-2.67V27.29H1019Zm22.82,0h-2.5c-2.85,0-4.1-1.92-4.1-5.24V27.29h2.14c9.45,0,13,1.58,16.76,3.67,13.73,8,20.33,29,20.33,50.35,0,24.47-6.61,39.15-16.4,45.45-3.57,2.27-7.14,4.19-16.23,4.19m29.25-9.61c-3.22,4.37-8.56,8.91-14.26,9.44h-.72c19.26-7.87,21.4-33.92,21.4-50,0-14.69-2.68-27.45-8.21-37.24-3.92-7.16-9.26-13.11-16.41-16.08h.54c3.39.35,7.49,2.8,10,4.72,11.76,9.62,16.94,27.62,16.94,48.08,0,15-2,30.94-9.28,41.07M662.25,77.29c15.51-5.24,21-16.61,21-26.92,0-19.05-12.48-30.41-34.41-30.41h-48v7.34h11.77V131H600.92v7.35h50.46c22.65,0,37.44-12.59,37.44-30.94,0-15.56-9.63-27.79-26.57-30.07m-7.14-49.64A11.44,11.44,0,0,1,661,31.14c4.1,4.89,6.24,12.93,6.24,21.68,0,6.29-1.24,12.23-3.92,16.43A12.58,12.58,0,0,1,656.19,74h-.35c5.7-3.32,8.55-12.23,8.55-21.15,0-10.84-3.2-21.33-9.62-25.17Zm-20.68-.35H645.5c10.51,0,15.86,11.37,15.86,25.53,0,11.71-4.82,21.32-13.37,21.32H634.44ZM618.39,131h-2.68V27.29h2.68Zm28.71,0H636.22c-1.78,0-1.78-1.92-1.78-4.19V81.83h15c11.41.69,16.4,12.58,16.4,27.1,0,15.2-6.78,22-18.72,22m20-4.72a13.45,13.45,0,0,1-7.31,4.37h-.54c6.24-3.32,9.63-11.19,9.63-21.67,0-11.54-4.1-23.25-11.23-26.92H658a14,14,0,0,1,8.56,5.77c3.39,5.25,5.17,12.94,5.17,21.15,0,7.69-1.6,13.46-4.63,17.3m-278.33-28h13v30.07c-4.28,1.23-8.38,1.4-13.37,1.4-15.87,0-29.24-14.51-29.24-52.09,0-28.14,10.52-49.47,26-49.47,12.13,0,16.41,14.86,21.4,33.39l11.77-2.1V28.34c-9.62-6.82-18.36-9.27-30.67-9.27C355.93,19.07,336,49.14,336,81c0,40,21.57,58.56,50.81,58.56,7.85,0,18.9-2.45,26.39-5.24l9.81-.87V90.74H388.74Zm5.7-69.92c3,0,7,3,9.45,7.69,2,4,4.1,8.74,7.49,21.5l-2.67.52c-3.39-12.06-5.35-17.48-7.85-22.37a18.63,18.63,0,0,0-6.77-7.34ZM362.53,130.6C345.23,118.71,339,100.36,339,81c.36-20.63,8.38-41.07,25.67-52.44,2.32-1.57,2.32-.52,2,0l-2.13,1.75C350.23,42.15,341.85,61.9,341.85,81s6.24,36.19,20.5,47.9l2.14,1.75c.71,1.4-.72.7-2,0m42.26-32.34h2.68v28.67l-2.68.7ZM550.45,18.73c-32.27,0-49,28.84-49,61.88a90.78,90.78,0,0,0,2.12,20.08L494.29,99l-6.06,19.58c-2.33,7.34-6.42,12.41-13.56,12.41H460.77c-.17,0-.17-4.72-.17-103.66h11.05V19.95H428.32v7.34h10.52V131H426.9v7.35h74.89L504.39,104c6.22,22.34,22.14,35.48,46.06,35.48,32.46,0,49.21-28.67,49.21-61.71,0-36.36-17.65-59.08-49.21-59.08M444.55,131h-2.67V27.29h2.67Zm48.14-8.21c-1.25,4-3.74,7.17-6.06,7.87h-3c2.5-.87,5.17-4.55,6.42-8.21l6.07-19.23,2.49.52ZM528,131.31C510.7,119.59,504.45,100,504.45,81c0-20.8,6.77-40.73,23.54-53,1.25-.7,2.68-1.4,2,0l-2,1.75C514.09,42.15,507.31,61.9,507.31,81s6.78,36.89,20.68,48.77l2,1.58c.72,1.4-.71.7-2,0m-3.39-52.1c0-34.26,7.49-51.22,25.85-51.22,16.23,0,26,17,26,51.22s-7.49,51-26,51c-16,0-25.85-16.78-25.85-51m39.76,51.39c-2.49,1.05-2.49.53-.71-.7,12.84-8.74,15.87-28.84,15.87-49.12s-3.39-42.13-15.87-51.4c-1.78-1.22-1.78-1.74.71-.7,16.41,7.87,18,37.58,18,51.57,0,16.78-1.42,42.47-18,50.34m192-11.89c-2.67,8-6.24,12.24-12.66,12.24H723.59c-.18,0-.18-2.1-.18-47.2H753V74.67h-29.6V27.29h15.16c7.13.18,9.63,2.45,11.77,9.27l6.06,19.06,10.17-1.92V19.95h-76v7.34h11.06V131H690.6v7.35h79.7l2.5-36.36-10-1.92Zm-7.85-91.07c3.39,0,5.71,2.44,7.31,7.86l4.46,14.34.54,1.75-2.51.53-5.16-16.26c-1.08-3.67-2.86-7.34-5.36-8.21ZM707.36,131h-2.67V27.29h2.67ZM767.1,104l-6.24,18.7c-1.61,4.55-4.82,7.87-8.56,7.87h-.36c2.5-.87,5-4.55,6.24-8.21l6.42-18.88Z"/></svg>