<svg xmlns="http://www.w3.org/2000/svg" viewBox="0 0 521.44 28.44"><defs><style>.a{fill:#327365;}</style></defs><title>the-huffington-post</title><path class="a" d="M14.48,21.78c0,4.21.08,4.81,2.41,5l1.28.12c.24.16.16.88-.08,1-2.29-.08-3.65-.12-5.25-.12s-3,0-5.58.12a.7.7,0,0,1,0-1l1.44-.12c2.29-.2,2.49-.8,2.49-5V3.84c0-1.24,0-1.28-1.2-1.28H7.78c-1.73,0-3.93.08-4.93,1A7.33,7.33,0,0,0,1,6.33a.78.78,0,0,1-1-.28,42,42,0,0,0,1.52-6,1,1,0,0,1,.76,0C2.53,1.36,3.85,1.32,5.7,1.32H21.94c2.17,0,2.53-.08,3.13-1.12.2-.08.64,0,.72.12a24.37,24.37,0,0,0-.6,6.1c-.16.32-.84.32-1,.08-.12-1-.4-2.49-1-2.93-.92-.68-2.45-1-4.65-1H15.64c-1.2,0-1.16,0-1.16,1.36V21.78Zm25.59-6.94c-1.93,0-2,.08-2,1.28v5.66c0,4.21.2,4.77,2.45,5l1.16.12c.24.16.16.88-.08,1-2.17-.08-3.53-.12-5.1-.12-1.72,0-3.09.08-4.65.12a.78.78,0,0,1-.08-1l.68-.12c2.25-.4,2.33-.8,2.33-5V7.33c0-4.21-.28-4.89-2.37-5.06l-1-.08c-.24-.16-.16-.88.08-1,2,0,3.33.12,5.06.12,1.56,0,2.93,0,4.65-.12.24.12.32.84.08,1l-.76.08c-2.33.24-2.41.84-2.41,5.06v4.61c0,1.24.08,1.28,2,1.28H51.55c1.93,0,2,0,2-1.28V7.33c0-4.21-.08-4.81-2.45-5.06l-.76-.08c-.24-.16-.16-.88.08-1,1.85.08,3.21.12,4.85.12s2.93,0,4.73-.12c.24.12.32.84.08,1l-.84.08c-2.33.24-2.41.84-2.41,5.06V21.78c0,4.21.08,4.73,2.41,5l1,.12c.24.16.16.88-.08,1-1.93-.08-3.29-.12-4.85-.12s-3.09,0-4.85.12a.78.78,0,0,1-.08-1l.76-.12c2.45-.4,2.45-.8,2.45-5V16.12c0-1.2-.08-1.28-2-1.28Zm30.17-7.5c0-4.17-.08-4.77-2.45-5.06l-.64-.08c-.24-.16-.16-.88.08-1,1.72.08,3.09.12,4.73.12h7.54a54,54,0,0,0,5.42-.12,45.28,45.28,0,0,1,.64,5.34.79.79,0,0,1-1,.08c-.6-1.89-1-3.29-3.05-3.81a19.22,19.22,0,0,0-3.89-.24H74.74c-1.2,0-1.2.08-1.2,1.6v8c0,1.12.12,1.12,1.32,1.12h2.33a14.83,14.83,0,0,0,3.41-.24c.48-.16.76-.4,1-1.4L81.88,10a.79.79,0,0,1,1,0c0,1-.16,2.53-.16,4.05s.16,3,.16,3.85a.79.79,0,0,1-1,0l-.36-1.56a1.71,1.71,0,0,0-1.24-1.52,13.46,13.46,0,0,0-3.09-.2H74.86c-1.2,0-1.32,0-1.32,1.08v5.66c0,2.13.12,3.49.76,4.17.48.48,1.32.92,4.85.92,3.09,0,4.25-.16,5.14-.6a10.07,10.07,0,0,0,2.85-3.89.74.74,0,0,1,1,.28,35,35,0,0,1-1.81,5.58c-3.61-.08-7.18-.12-10.75-.12H72c-1.72,0-3.09,0-5.46.12a.78.78,0,0,1-.08-1l1.32-.12c2.29-.2,2.49-.8,2.49-5V7.33ZM115,14.84c-1.93,0-2,.08-2,1.28v5.66c0,4.21.2,4.77,2.45,5l1.16.12c.24.16.16.88-.08,1-2.17-.08-3.53-.12-5.1-.12-1.73,0-3.09.08-4.65.12a.78.78,0,0,1-.08-1l.68-.12c2.25-.4,2.33-.8,2.33-5V7.33c0-4.21-.28-4.89-2.37-5.06l-1-.08c-.24-.16-.16-.88.08-1,2,0,3.33.12,5.06.12,1.56,0,2.93,0,4.65-.12.24.12.32.84.08,1l-.76.08c-2.33.24-2.41.84-2.41,5.06v4.61c0,1.24.08,1.28,2,1.28h11.47c1.93,0,2,0,2-1.28V7.33c0-4.21-.08-4.81-2.45-5.06l-.76-.08c-.24-.16-.16-.88.08-1,1.85.08,3.21.12,4.85.12s2.93,0,4.73-.12c.24.12.32.84.08,1l-.84.08c-2.33.24-2.41.84-2.41,5.06V21.78c0,4.21.08,4.73,2.41,5l1,.12c.24.16.16.88-.08,1-1.93-.08-3.29-.12-4.85-.12s-3.09,0-4.85.12a.78.78,0,0,1-.08-1l.76-.12c2.45-.4,2.45-.8,2.45-5V16.12c0-1.2-.08-1.28-2-1.28Zm49.2-3.45c0-2.49-.08-7.1-.76-8.3a2.48,2.48,0,0,0-2-.84l-1-.08a.73.73,0,0,1,.08-1c1.52.08,3,.12,4.57.12s2.77,0,4.21-.12a.69.69,0,0,1,.08,1l-1,.08a2.34,2.34,0,0,0-2,1c-.56,1.32-.56,5.94-.56,8.18v4.53c0,3.49-.56,7.18-2.81,9.59a10.57,10.57,0,0,1-7.66,2.93c-2.77,0-5.54-.52-7.5-2.21-2.13-1.77-3.13-4.69-3.13-9.47V7.29c0-4.17-.08-4.85-2.41-5.06l-1-.08c-.24-.16-.16-.84.08-1,2,.08,3.37.12,5,.12s3,0,4.93-.12c.24.12.32.8.08,1l-1,.08c-2.33.2-2.41.88-2.41,5.06V16c0,6.46,2,10.71,8.14,10.71,5.82,0,8-4.57,8-10.67Zm17.49,1.24c0,1.08.12,1.08,1.32,1.08h2.73a15.15,15.15,0,0,0,3.41-.24c.44-.16.76-.36,1-1.4l.36-1.6a.85.85,0,0,1,1,0c0,1-.16,2.57-.16,4.05s.16,3,.16,3.89c-.16.24-.76.24-1,0l-.4-1.56a1.92,1.92,0,0,0-1.28-1.52,13.59,13.59,0,0,0-3.09-.2H183c-1.2,0-1.32,0-1.32,1.08v5.58c0,4.21.08,4.81,2.45,5l1.36.12c.24.16.16.88-.08,1-2.37-.08-3.73-.12-5.34-.12-1.76,0-3.13,0-5,.12a.78.78,0,0,1-.08-1l1-.12c2.33-.28,2.41-.8,2.41-5V7.33c0-4.21-.08-4.77-2.41-5.06l-.64-.08c-.24-.16-.16-.88.08-1,1.69.08,3.05.12,4.65.12h7.38c2.57,0,4.9,0,5.42-.12,0,1.85,0,3.77.12,5.3a.72.72,0,0,1-1,.12c-.32-1.81-.8-3.29-2.81-3.81a17.26,17.26,0,0,0-3.89-.24H182.9c-1.2,0-1.2.08-1.2,1.6v8.46Zm24.09,0c0,1.08.12,1.08,1.32,1.08h2.73a15.15,15.15,0,0,0,3.41-.24c.44-.16.76-.36,1-1.4l.36-1.6a.84.84,0,0,1,1,0c0,1-.16,2.57-.16,4.05s.16,3,.16,3.89c-.16.24-.76.24-1,0l-.4-1.56a1.92,1.92,0,0,0-1.28-1.52,13.59,13.59,0,0,0-3.09-.2h-2.73c-1.2,0-1.32,0-1.32,1.08v5.58c0,4.21.08,4.81,2.45,5l1.36.12c.24.16.16.88-.08,1-2.37-.08-3.73-.12-5.34-.12-1.76,0-3.13,0-5,.12a.78.78,0,0,1-.08-1l1-.12c2.33-.28,2.41-.8,2.41-5V7.33c0-4.21-.08-4.77-2.41-5.06l-.64-.08c-.24-.16-.16-.88.08-1,1.68.08,3,.12,4.65.12h7.38c2.57,0,4.9,0,5.42-.12,0,1.85,0,3.77.12,5.3a.72.72,0,0,1-1,.12c-.32-1.81-.8-3.29-2.81-3.81a17.26,17.26,0,0,0-3.89-.24H207c-1.2,0-1.2.08-1.2,1.6v8.46Zm21-5.22c0-4.25-.08-4.93-2.45-5.14l-1-.08c-.24-.16-.16-.88.08-1,2,.08,3.37.12,5.05.12s3,0,5-.12c.24.12.32.84.08,1l-1,.08c-2.37.2-2.45.88-2.45,5.14V21.7c0,4.25.08,4.81,2.45,5.1l1,.12c.24.16.16.88-.08,1-2-.08-3.37-.12-5-.12s-3,0-5.05.12a.78.78,0,0,1-.08-1l1-.12c2.37-.28,2.45-.84,2.45-5.1ZM265.22,21c0,1.2,0,6,.12,7a.72.72,0,0,1-.76.44c-.48-.68-1.65-2.09-5.14-6.06l-9.31-10.59c-1.08-1.24-3.81-4.53-4.65-5.42h-.08A10.22,10.22,0,0,0,245.2,9v8.74c0,1.89,0,7.1.72,8.31.24.44,1,.68,2,.76l1.24.12a.73.73,0,0,1-.08,1c-1.8-.08-3.21-.12-4.69-.12-1.68,0-2.77,0-4.17.12a.74.74,0,0,1-.08-1l1.08-.12c.92-.12,1.56-.36,1.77-.8.56-1.44.52-6.34.52-8.26V6.13a3.68,3.68,0,0,0-.88-2.89,4.35,4.35,0,0,0-2.49-1l-.68-.08a.7.7,0,0,1,.08-1c1.68.12,3.81.12,4.53.12A13,13,0,0,0,246,1.2c.8,2,5.54,7.34,6.86,8.82l3.89,4.37c2.77,3.09,4.73,5.33,6.62,7.26h.08a4.08,4.08,0,0,0,.16-1.69V11.38c0-1.89,0-7.1-.8-8.3-.24-.36-.88-.6-2.49-.8l-.68-.08c-.28-.24-.24-.88.08-1,1.85.08,3.21.12,4.73.12,1.73,0,2.77,0,4.13-.12a.71.71,0,0,1,.08,1l-.56.08c-1.28.2-2.09.52-2.25.84-.68,1.44-.6,6.42-.6,8.26V21Zm32.53,2.73c0,1.6.24,2.57,1,2.85a.33.33,0,0,1,0,.48,9.08,9.08,0,0,0-2,.36,31.35,31.35,0,0,1-7.18,1c-4.77,0-9.15-1.32-12.23-4.45a12.62,12.62,0,0,1-3.69-9.11,13.77,13.77,0,0,1,3.61-9.51c2.69-2.81,6.66-4.69,12.72-4.69a23.86,23.86,0,0,1,5.1.6,10.56,10.56,0,0,0,2.49.36,45,45,0,0,0,.6,5.82c-.12.32-.84.36-1.08.12-1.12-4.33-4.13-5.7-8.23-5.7-7.78,0-11.19,5.53-11.19,11.55,0,7.7,4,13.76,12,13.76,2.49,0,4-.52,4.41-1.2a4.46,4.46,0,0,0,.4-2.29V22.1c0-3.37-.12-3.61-2.61-3.89l-1.77-.2a.67.67,0,0,1,0-1c1.16.08,3.37.12,5.74.12,1.56,0,2.93,0,4.25-.12a.7.7,0,0,1,0,1l-.64.08c-1.69.2-1.73,1.32-1.73,3.37V23.7Zm21.2-1.93c0,4.21.08,4.81,2.41,5l1.28.12c.24.16.16.88-.08,1-2.29-.08-3.65-.12-5.26-.12s-3,0-5.58.12a.7.7,0,0,1,0-1l1.44-.12c2.29-.2,2.49-.8,2.49-5V3.84c0-1.24,0-1.28-1.2-1.28h-2.21c-1.73,0-3.93.08-4.93,1a7.34,7.34,0,0,0-1.81,2.77.78.78,0,0,1-1-.28,41.86,41.86,0,0,0,1.52-6,1,1,0,0,1,.76,0c.24,1.28,1.56,1.24,3.41,1.24H326.4c2.17,0,2.53-.08,3.13-1.12.2-.08.64,0,.72.12a24.37,24.37,0,0,0-.6,6.1c-.16.32-.84.32-1,.08-.12-1-.4-2.49-1-2.93-.92-.68-2.45-1-4.65-1H320.1c-1.2,0-1.16,0-1.16,1.36V21.78h0Zm15.48-6.94A13.87,13.87,0,0,1,348.7.68c9.27,0,13.92,6.7,13.92,13.76a13.7,13.7,0,0,1-13.92,14C339.79,28.44,334.42,22.06,334.42,14.84Zm24.19.84c0-6.62-2.93-13.76-10.59-13.76-4.17,0-9.59,2.85-9.59,11.63,0,5.94,2.89,13.64,10.79,13.64C354,27.19,358.61,23.58,358.61,15.68ZM393,21c0,1.2,0,6,.12,7a.72.72,0,0,1-.76.44c-.48-.68-1.65-2.09-5.14-6.06l-9.31-10.59c-1.08-1.24-3.81-4.53-4.65-5.42h-.08A10.21,10.21,0,0,0,373,9v8.74c0,1.89,0,7.1.72,8.31.24.44,1,.68,2,.76l1.24.12a.74.74,0,0,1-.08,1c-1.8-.08-3.21-.12-4.69-.12-1.69,0-2.77,0-4.17.12a.75.75,0,0,1-.08-1l1.08-.12c.92-.12,1.56-.36,1.77-.8.56-1.44.52-6.34.52-8.26V6.13a3.68,3.68,0,0,0-.88-2.89,4.34,4.34,0,0,0-2.49-1l-.68-.08a.7.7,0,0,1,.08-1c1.68.12,3.81.12,4.53.12a13,13,0,0,0,1.85-.12c.8,2,5.54,7.34,6.86,8.82l3.89,4.37c2.77,3.09,4.73,5.33,6.62,7.26h.08a4.06,4.06,0,0,0,.16-1.69V11.38c0-1.89,0-7.1-.8-8.3-.24-.36-.88-.6-2.48-.8l-.68-.08c-.28-.24-.24-.88.08-1,1.85.08,3.21.12,4.73.12,1.73,0,2.77,0,4.13-.12a.71.71,0,0,1,.08,1l-.56.08c-1.28.2-2.09.52-2.25.84-.68,1.44-.6,6.42-.6,8.26V21Zm29.16.8c0,4.21.08,4.73,2.65,5l1.08.12a.79.79,0,0,1-.08,1c-2.29-.08-3.61-.12-5.21-.12s-3.13,0-4.89.12a.78.78,0,0,1-.08-1l.84-.12c2.33-.32,2.41-.8,2.41-5V7c0-3.41-.08-4.09-1.89-4.29l-1.44-.16a.67.67,0,0,1,.08-1,63.21,63.21,0,0,1,7.94-.32c3.33,0,5.82.44,7.7,1.6a6.93,6.93,0,0,1,3.21,6,6.8,6.8,0,0,1-4,6.38,13.54,13.54,0,0,1-5.54,1.2c-.28-.12-.28-.72,0-.8,4.33-.8,5.9-3.25,5.9-6.74,0-3.89-2.29-6.42-6.46-6.42-2.13,0-2.17.16-2.17,1.44V21.78h0Zm18.05-6.94A13.87,13.87,0,0,1,454.5.68c9.27,0,13.92,6.7,13.92,13.76a13.7,13.7,0,0,1-13.92,14C445.6,28.44,440.22,22.06,440.22,14.84Zm24.19.84c0-6.62-2.93-13.76-10.59-13.76-4.17,0-9.59,2.85-9.59,11.63,0,5.94,2.89,13.64,10.79,13.64C459.84,27.19,464.41,23.58,464.41,15.68Zm17.23,12.76A12.54,12.54,0,0,1,475.38,27a18.49,18.49,0,0,1-1.08-5.62c.2-.28.8-.36,1-.12.6,2,2.25,6,6.9,6,3.37,0,5-2.21,5-4.61,0-1.77-.36-3.73-3.29-5.62l-3.81-2.49c-2-1.32-4.33-3.61-4.33-6.9,0-3.81,3-6.9,8.18-6.9a15.53,15.53,0,0,1,3.73.52,5.36,5.36,0,0,0,1.4.24,17.55,17.55,0,0,1,.72,4.89c-.16.24-.8.36-1,.12-.52-1.92-1.6-4.53-5.45-4.53s-4.77,2.61-4.77,4.45c0,2.33,1.93,4,3.41,4.93l3.21,2c2.53,1.56,5,3.89,5,7.7C490.18,25.43,486.85,28.44,481.64,28.44Zm28.49-6.66c0,4.21.08,4.81,2.41,5l1.28.12c.24.16.16.88-.08,1-2.29-.08-3.65-.12-5.26-.12s-3,0-5.58.12a.7.7,0,0,1,0-1l1.44-.12c2.29-.2,2.49-.8,2.49-5V3.84c0-1.24,0-1.28-1.2-1.28h-2.21c-1.73,0-3.93.08-4.93,1a7.32,7.32,0,0,0-1.8,2.77.78.78,0,0,1-1-.28,42.4,42.4,0,0,0,1.52-6,1,1,0,0,1,.76,0c.24,1.28,1.56,1.24,3.41,1.24h16.25c2.17,0,2.53-.08,3.13-1.12.2-.08.64,0,.72.12a24.32,24.32,0,0,0-.6,6.1c-.16.32-.84.32-1,.08-.12-1-.4-2.49-1-2.93-.92-.68-2.45-1-4.65-1h-2.85c-1.2,0-1.16,0-1.16,1.36V21.78h0Z"/></svg>
