<svg xmlns="http://www.w3.org/2000/svg" viewBox="0 0 50 50"><defs><style>.a{fill:#0d83dd;}</style></defs><title>time-tracking</title><path class="a" d="M26.78,6.37V8.9h.1a17.9,17.9,0,0,1,6.79,2,19.25,19.25,0,0,1,5.51,4.19A19.93,19.93,0,0,1,42.86,21a18.89,18.89,0,0,1-.19,14.53,19.74,19.74,0,0,1-4.1,6.09,18.94,18.94,0,0,1-6.12,4.13A18.54,18.54,0,0,1,25,47.2a18.54,18.54,0,0,1-7.45-1.5,18.94,18.94,0,0,1-6.12-4.13,19.74,19.74,0,0,1-4.1-6.09A18.89,18.89,0,0,1,7.14,21a19.46,19.46,0,0,1,9.19-10.08,18.34,18.34,0,0,1,6.89-2V6.37H21.39a1.76,1.76,0,0,1-1.78-1.78,1.73,1.73,0,0,1,.51-1.27,1.76,1.76,0,0,1,1.27-.52h7.22a1.76,1.76,0,0,1,1.27.52,1.73,1.73,0,0,1,.51,1.27,1.76,1.76,0,0,1-1.78,1.78ZM40.61,28a15.07,15.07,0,0,0-1.22-6.05A16.29,16.29,0,0,0,36,17a15.78,15.78,0,0,0-5-3.33A14.64,14.64,0,0,0,25,12.37a14.89,14.89,0,0,0-6.09,1.26A15.83,15.83,0,0,0,14,17a16.29,16.29,0,0,0-3.37,5A15.07,15.07,0,0,0,9.39,28a15.44,15.44,0,0,0,1.22,6.09A16.82,16.82,0,0,0,14,39a15.72,15.72,0,0,0,4.93,3.35,15.81,15.81,0,0,0,12.18,0A15.72,15.72,0,0,0,36,39a16.82,16.82,0,0,0,3.37-5A15.44,15.44,0,0,0,40.61,28ZM23.22,17.8a1.81,1.81,0,0,1,.51-1.28,1.76,1.76,0,0,1,2.54,0,1.81,1.81,0,0,1,.51,1.28v9H31a1.76,1.76,0,0,1,1.27.52,1.73,1.73,0,0,1,.51,1.27A1.76,1.76,0,0,1,31,30.37H25a1.76,1.76,0,0,1-1.78-1.78Z"/></svg>