<?xml version="1.0" encoding="UTF-8" standalone="no"?>
<svg xmlns="http://www.w3.org/2000/svg" height="24px" width="24px" version="1.1" xmlns:xlink="http://www.w3.org/1999/xlink" viewBox="0 0 24 24"><!-- Generator: Sketch 42 (36781) - http://www.bohemiancoding.com/sketch -->
 <title>Page 1</title>
 <desc>Created with Sketch.</desc>
 <defs>
  <polygon id="path-1" points="11.674 23.28 0 23.28 0 0 11.674 0 23.348 0 23.348 23.28"/>
 </defs>
 <g id="Articles" opacity=".95" fill-rule="evenodd" fill="none">
  <g id="Article-1440" transform="translate(-896 -2967)">
   <g id="Group-5" transform="translate(865 2967)">
    <g id="Group-Copy-10">
     <g id="Page-1" transform="translate(30.982)">
      <mask id="mask-2" fill="white">
       <use xlink:href="#path-1"/>
      </mask>
      <path id="Fill-1" fill="#062942" mask="url(#mask-2)" d="m16.431 9.5064c0.006 0.0931 0.006 0.1862 0.006 0.2793 0 2.8383-2.166 6.1083-6.126 6.1083-1.2201 0-2.353-0.352-3.3068-0.964 0.1739 0.02 0.3403 0.027 0.5201 0.027 1.0069 0 1.9338-0.339 2.6737-0.917-0.9471-0.02-1.7398-0.638-2.0136-1.489 0.1337 0.02 0.2668 0.033 0.4069 0.033 0.1932 0 0.387-0.027 0.5668-0.073-0.9865-0.2-1.7272-1.064-1.7272-2.107v-0.027c0.2866 0.16 0.6205 0.26 0.9736 0.272-0.5802-0.385-0.9602-1.0431-0.9602-1.7875 0-0.3986 0.1068-0.7641 0.2936-1.0831 1.06 1.3025 2.6531 2.1534 4.4401 2.2466-0.034-0.1595-0.054-0.326-0.054-0.4918 0-1.1832 0.961-2.147 2.154-2.147 0.62 0 1.18 0.259 1.573 0.678 0.487-0.0931 0.954-0.273 1.367-0.5186-0.161 0.4982-0.5 0.9173-0.947 1.1832 0.434-0.0465 0.853-0.1664 1.24-0.3323-0.293 0.4255-0.66 0.8043-1.08 1.1099m-4.757-9.5064c-6.4472 0-11.674 5.2112-11.674 11.64-0.00029185 6.429 5.2268 11.64 11.674 11.64 6.447 0 11.674-5.211 11.674-11.64 0-6.4288-5.227-11.64-11.674-11.64"/>
     </g>
    </g>
   </g>
  </g>
 </g>
</svg>
