<?xml version="1.0" encoding="UTF-8" standalone="no"?>
<svg width="16px" height="13px" viewBox="0 0 16 13" version="1.1" xmlns="http://www.w3.org/2000/svg" xmlns:xlink="http://www.w3.org/1999/xlink">
    <!-- Generator: Sketch 40.3 (33839) - http://www.bohemiancoding.com/sketch -->
    <title> copy</title>
    <desc>Created with Sketch.</desc>
    <defs></defs>
    <g id="Design" stroke="none" stroke-width="1" fill="none" fill-rule="evenodd">
        <g id="4Es" transform="translate(-718.000000, -2876.000000)" fill="#1DA1F2">
            <g id="Group-19" transform="translate(212.000000, 2806.855858)">
                <path d="M521.394531,71.1050607 C520.842501,71.3430048 520.242882,71.5143246 519.624227,71.580949 C520.261917,71.2002383 520.747323,70.600619 520.97575,69.8867866 C520.385648,70.2389439 519.719404,70.4959236 519.024607,70.6291723 C518.463059,70.0295531 517.663567,69.6583602 516.778414,69.6583602 C515.074734,69.6583602 513.704176,71.0384363 513.704176,72.7325987 C513.704176,72.9705429 513.732729,73.2084871 513.780318,73.4369135 C511.229557,73.3036647 508.95481,72.0853906 507.441486,70.2199084 C507.174988,70.6767612 507.022704,71.2002383 507.022704,71.7713043 C507.022704,72.8372942 507.565217,73.7795531 508.393262,74.3315835 C507.888821,74.312548 507.412932,74.1697815 507.003668,73.9413551 L507.003668,73.9794261 C507.003668,75.4737155 508.06014,76.7110251 509.46877,76.9965581 C509.21179,77.0631825 508.935775,77.1012536 508.65976,77.1012536 C508.459887,77.1012536 508.269531,77.082218 508.079176,77.0536647 C508.469404,78.2719388 509.602019,79.1570911 510.953541,79.1856444 C509.897069,80.0136901 508.5741,80.4990962 507.136917,80.4990962 C506.879937,80.4990962 506.641993,80.4895784 506.394531,80.4610251 C507.755572,81.3366597 509.373592,81.8411013 511.115343,81.8411013 C516.768897,81.8411013 519.862171,77.1583602 519.862171,73.0942739 C519.862171,72.9610251 519.862171,72.8277764 519.852653,72.6945277 C520.452272,72.2567104 520.97575,71.7141977 521.394531,71.1050607 Z" id="-copy"></path>
            </g>
        </g>
    </g>
</svg>