<svg xmlns="http://www.w3.org/2000/svg" viewBox="0 0 71 40" width="70.67px" height="40px"><title>webby_awards</title><path d="M.05,22v3.11c24.24-1.43,6.21-2.17,0-3.11"/><path d="M.05,27.14v3.05l.2.05c18.47-1.69,13.16-2.31-.2-3.1"/><path d="M.05.11v10c15.2-.51,15.27-1.36,7.39-2.4L8.86,6C18.59,7.52,18,9.95,11,11.16c2.34.82,10.64,2.33.61,5.32,1.63.44,10.84,2.7-.61,4.72,1.81.81,11.44,2,.4,4.92,2.86.47,10.2,2,.51,5.12,3.66.38,4.08.51,5.06,2.21V40h4.45V.11H.05"/><path d="M.05,17.29V20.4c4.56-.89,25.37-1.25,0-3.11"/><path d="M.05,12v3.3c14.25-.76,19.06-1.74,0-3.3"/><polyline points="26.65 10.74 24.22 10.74 24.22 10.27 29.6 10.27 29.6 10.74 27.16 10.74 27.16 17.19 26.65 17.19 26.65 10.74"/><polyline points="30.91 10.27 31.43 10.27 31.43 13.47 35.89 13.47 35.89 10.27 36.41 10.27 36.41 17.19 35.89 17.19 35.89 13.95 31.43 13.95 31.43 17.19 30.91 17.19 30.91 10.27"/><polyline points="38.22 10.27 43.18 10.27 43.18 10.74 38.74 10.74 38.74 13.46 42.73 13.46 42.73 13.94 38.74 13.94 38.74 16.71 43.23 16.71 43.23 17.19 38.22 17.19 38.22 10.27"/><polyline points="24.58 21.16 26.89 21.16 28.27 25.7 29.79 21.14 31.68 21.14 33.2 25.7 34.58 21.16 36.85 21.16 34.21 29.06 32.3 29.06 30.72 24.55 29.13 29.06 27.22 29.06 24.58 21.16"/><path d="M36.85,25v0A4.06,4.06,0,0,1,41,20.77c2.8,0,4.09,2,4.09,4.41,0,.18,0,.39,0,.58H39.58a1.68,1.68,0,0,0,1.76,1.33,2.44,2.44,0,0,0,1.8-.82l1.58,1.3a4.26,4.26,0,0,1-3.52,1.64A4.09,4.09,0,0,1,36.85,25Zm5.53-.7A1.46,1.46,0,0,0,41,22.86c-.75,0-1.26.57-1.41,1.46Z"/><path d="M46.59,21.16h4.05a3,3,0,0,1,2.16.69,1.76,1.76,0,0,1,.51,1.28v0a1.82,1.82,0,0,1-1.22,1.75,1.91,1.91,0,0,1,1.57,1.91v0c0,1.34-1.11,2.16-3,2.16H46.59V21.16Zm4.56,2.42c0-.44-.35-.67-1-.67H48.73v1.38h1.38c.67,0,1-.22,1-.68v0Zm-.76,2.23H48.73v1.44h1.69c.68,0,1.05-.26,1.05-.72v0c0-.43-.34-.71-1.07-.71Z"/><path d="M55.35,21.16H59.4a3,3,0,0,1,2.16.69,1.76,1.76,0,0,1,.51,1.28v0a1.82,1.82,0,0,1-1.22,1.75,1.91,1.91,0,0,1,1.57,1.91v0c0,1.34-1.11,2.16-3,2.16H55.35V21.16Zm4.56,2.42c0-.44-.35-.67-1-.67H57.48v1.38h1.38c.67,0,1-.22,1-.68v0Zm-.76,2.23H57.48v1.44h1.69c.68,0,1.05-.26,1.05-.72v0c0-.43-.34-.71-1.07-.71Z"/><polyline points="65.43 26.07 62.42 21.16 64.91 21.16 66.54 24.02 68.17 21.16 70.62 21.16 67.62 26.04 67.62 29 65.43 29 65.43 26.07"/><path d="M28.15,32.35h.5l3.25,7h-.57l-.89-1.94H26.33l-.89,1.94h-.54l3.25-7Zm2.07,4.56-1.83-4-1.84,4Z"/><polyline points="31.86 32.4 32.44 32.4 34.63 38.56 36.67 32.38 37.07 32.38 39.11 38.56 41.3 32.4 41.84 32.4 39.31 39.37 38.89 39.37 36.85 33.36 34.81 39.37 34.39 39.37 31.86 32.4"/><path d="M45.22,32.36h.5l3.25,7h-.57l-.89-1.94H43.39l-.89,1.94H42l3.25-7Zm2.07,4.56-1.83-4-1.84,4Z"/><path d="M50.16,32.4h2.93a2.76,2.76,0,0,1,2,.68,1.82,1.82,0,0,1,.53,1.28v0c0,1.16-.87,1.82-2,2l2.3,3h-.66L53,36.45H50.68v2.87h-.52V32.4ZM53,36c1.17,0,2-.58,2-1.58v0c0-.93-.74-1.51-2-1.51H50.68V36Z"/><path d="M57.12,32.4h2.32a3.46,3.46,0,0,1,3.71,3.44v0a3.48,3.48,0,0,1-3.71,3.46H57.12V32.4Zm.52.47v6h1.8a3,3,0,0,0,3.17-3v0a3,3,0,0,0-3.17-3Z"/><path d="M64.1,38.31l.34-.39a3.4,3.4,0,0,0,2.5,1c1,0,1.76-.58,1.76-1.37v0c0-.73-.39-1.16-2-1.47s-2.35-.9-2.35-1.95v0a2,2,0,0,1,2.24-1.82,3.49,3.49,0,0,1,2.39.84l-.33.41a3,3,0,0,0-2.08-.78c-1,0-1.7.58-1.7,1.3v0c0,.73.38,1.18,2,1.51s2.29.9,2.29,1.91v0c0,1.12-1,1.89-2.31,1.89a4,4,0,0,1-2.81-1.11"/></svg>
