<svg xmlns="http://www.w3.org/2000/svg" width="36" height="36" viewBox="0 0 36 36"><path fill="#262626" d="M1 1h4v4H1zM7 1h4v4H7zM13 1h4v4h-4zM19 1h4v4h-4zM25 1h4v4h-4zM31 1h4v4h-4zM1 7h4v4H1zM7 7h4v4H7zM13 7h4v4h-4zM19 7h4v4h-4zM25 7h4v4h-4zM31 7h4v4h-4zM1 13h4v4H1zM7 13h4v4H7zM13 13h4v4h-4zM19 13h4v4h-4zM25 13h4v4h-4zM31 13h4v4h-4zM1 19h4v4H1zM7 19h4v4H7zM13 19h4v4h-4zM19 19h4v4h-4zM25 19h4v4h-4zM31 19h4v4h-4zM1 25h4v4H1zM7 25h4v4H7zM13 25h4v4h-4zM19 25h4v4h-4zM25 25h4v4h-4zM31 25h4v4h-4zM1 31h4v4H1zM7 31h4v4H7zM13 31h4v4h-4zM19 31h4v4h-4zM25 31h4v4h-4zM31 31h4v4h-4z"/></svg>