<?xml version="1.0" encoding="utf-8"?>
<!-- Generator: Adobe Illustrator 16.0.0, SVG Export Plug-In . SVG Version: 6.00 Build 0)  -->
<!DOCTYPE svg PUBLIC "-//W3C//DTD SVG 1.1//EN" "http://www.w3.org/Graphics/SVG/1.1/DTD/svg11.dtd">
<svg version="1.1" id="Layer_1" xmlns="http://www.w3.org/2000/svg" xmlns:xlink="http://www.w3.org/1999/xlink" x="0px" y="0px"
	 width="254.968px" height="164.979px" viewBox="0 0 254.968 164.979" enable-background="new 0 0 254.968 164.979"
	 xml:space="preserve">
<path fill="#231F20" d="M212.72,78.66l-92.521-41.194c-0.242-0.108-0.508-0.108-0.748,0L26.926,78.66
	c-0.389,0.174-0.65,0.603-0.65,1.082c0,0.478,0.261,0.906,0.65,1.084l92.524,41.19c0.121,0.052,0.248,0.078,0.374,0.078
	s0.255-0.026,0.374-0.078l92.52-41.19c0.394-0.178,0.652-0.606,0.652-1.084C213.373,79.263,213.112,78.834,212.72,78.66
	 M119.824,119.686L30.109,79.742l89.715-39.946l89.716,39.946L119.824,119.686z M89.706,73.43h-7.492
	c-0.058,0-0.11,0.049-0.11,0.107v4.571c0,0.066,0.052,0.109,0.11,0.109h6.57c0.064,0,0.114,0.054,0.114,0.111v2.559
	c0,0.066-0.05,0.113-0.114,0.113h-6.57c-0.058,0-0.11,0.053-0.11,0.103v6.189c0,0.062-0.047,0.104-0.099,0.104h-3.8
	c-0.063,0-0.108-0.042-0.108-0.104v-16.53c0-0.059,0.045-0.106,0.108-0.106h11.404c0.054,0,0.11,0.049,0.118,0.106l0.083,2.557
	C89.811,73.383,89.764,73.43,89.706,73.43 M100.586,73.07c3.477,0,3.953,2.893,3.953,5.998c0,3.133-0.477,6.021-3.949,6.021
	c-3.489,0-3.97-2.889-3.97-6.021C96.62,75.962,97.102,73.07,100.586,73.07 M100.59,87.867c5.117,0,7.92-3.374,7.92-8.8
	c0-5.491-2.729-8.782-7.925-8.782c-5.131,0-7.925,3.371-7.925,8.782C92.661,84.493,95.455,87.867,100.59,87.867 M118.029,87.695
	c-2.771,0-5.059-0.435-6.338-0.741c-0.035,0-0.089-0.065-0.084-0.139c0.072-0.534,0.288-2.056,0.367-2.648
	c0.015-0.069,0.062-0.108,0.133-0.083c1.025,0.311,2.386,0.704,4.02,0.8c1.861,0.102,3.571-0.059,3.827-1.51
	c0.278-1.711-1.708-2.236-4.481-3.155c-2.777-0.927-4.115-3.05-3.989-4.985c0.237-3.308,2.059-4.889,5.991-4.963
	c0.104,0,0.197-0.004,0.292-0.004c1.97,0,3.652,0.326,5.489,0.819c0.031,0.009,0.083,0.044,0.074,0.099
	c-0.079,0.508-0.376,1.979-0.475,2.545c-0.014,0.049-0.049,0.062-0.075,0.056c-0.94-0.31-2.228-0.661-3.808-0.796
	c-1.594-0.124-3.236-0.216-3.47,1.304c-0.245,1.528,1.173,2.459,4.473,3.518c3.049,0.978,4.182,2.754,4.003,5.169
	C123.754,86.075,121.807,87.695,118.029,87.695 M139.61,82.978c-0.218,3.099-2.178,4.718-5.952,4.718
	c-2.793,0-5.057-0.435-6.348-0.741c-0.021,0-0.083-0.065-0.083-0.139c0.075-0.534,0.29-2.056,0.363-2.648
	c0.018-0.069,0.064-0.108,0.14-0.083c1.031,0.311,2.4,0.704,4.021,0.8c1.856,0.102,3.566-0.059,3.822-1.51
	c0.286-1.711-1.688-2.236-4.479-3.155c-2.775-0.927-4.109-3.05-3.979-4.985c0.224-3.308,2.045-4.889,5.977-4.963
	c0.104,0,0.201-0.004,0.3-0.004c1.976,0,3.651,0.326,5.487,0.819c0.033,0.009,0.09,0.044,0.078,0.099
	c-0.082,0.508-0.381,1.979-0.467,2.545c-0.013,0.049-0.066,0.062-0.084,0.056c-0.941-0.31-2.225-0.661-3.804-0.796
	c-1.601-0.124-3.251-0.216-3.487,1.304c-0.236,1.529,1.192,2.459,4.477,3.518C138.651,78.785,139.787,80.562,139.61,82.978
	 M148.095,87.294c0,0.059-0.053,0.104-0.109,0.104h-3.906c-0.074,0-0.115-0.045-0.115-0.104V70.749c0-0.064,0.041-0.116,0.115-0.116
	h3.906c0.059,0,0.109,0.052,0.109,0.116V87.294z M163.58,87.294c-0.006,0.059-0.059,0.104-0.125,0.104h-10.461
	c-0.059,0-0.115-0.045-0.115-0.104V70.774c0-0.067,0.058-0.113,0.115-0.113h3.897c0.065,0,0.11,0.046,0.11,0.113l0.002,13.688
	c0,0.063,0.045,0.114,0.108,0.114h6.481c0.062,0,0.109,0.058,0.109,0.114L163.58,87.294z"/>
</svg>
